<svg width="1434" height="313" viewBox="0 0 1434 313" fill="none" xmlns="http://www.w3.org/2000/svg">
<path d="M0 0L48 8.29481C96 16.2795 192 33.3343 288 49.6138C384 65.8934 480 82.9481 576 78.5294C672 74.4207 768 49.6138 864 37.2104C960 24.8069 1056 24.8069 1152 33.1017C1248 41.0865 1344 58.1412 1392 66.1259L1440 74.4207V198.455H1392C1344 198.455 1248 198.455 1152 198.455C1056 198.455 960 198.455 864 198.455C768 198.455 672 198.455 576 198.455C480 198.455 384 198.455 288 198.455C192 198.455 96 198.455 48 198.455H0V0Z" fill="#F7F7F7"/>
<path d="M1440 313L1392 304.427C1344 296.174 1248 278.547 1152 261.721C1056 244.895 960 227.268 864 231.835C768 236.082 672 261.721 576 274.541C480 287.361 384 287.361 288 278.787C192 270.535 96 252.908 48 244.655L0 236.082V107.885H48C96 107.885 192 107.885 288 107.885C384 107.885 480 107.885 576 107.885C672 107.885 768 107.885 864 107.885C960 107.885 1056 107.885 1152 107.885C1248 107.885 1344 107.885 1392 107.885H1440V313Z" fill="#F7F7F7"/>
</svg>
