<?xml version="1.0" encoding="UTF-8"?><svg xmlns="http://www.w3.org/2000/svg" height="98.474mm" version="1.1" viewBox="0 0 416.66774 348.92251" width="117.59mm">
 <g id="change1_1" transform="translate(101.02 -425.12)">
  <path d="m-66.788 482.39s5.6028-3.9153 8.4296-5.8359c2.5785-1.7518 4.9217-3.9462 7.7812-5.1874 3.4626-1.5031 7.3823-1.5978 11.023-2.5937 3.4948-0.9559 6.7602-2.9928 10.375-3.2422 2.6233-0.18095 5.2682 0.52286 7.7812 1.2969 2.9576 0.91093 5.8911 2.1205 8.4296 3.8906 2.5074 1.7484 4.2521 4.396 6.4843 6.4843 1.6778 1.5697 5.1874 4.539 5.1874 4.539l8.4296 5.8359 11.023 7.1327 12.32 11.023 7.1327 5.1874 10.375 6.4843 15.562 7.7812 24.64 2.5937 12.969 5.1874 12.32 1.2969 21.398 1.9453 23.343-1.9453 18.804-1.9453 22.695-1.2969 15.562 0.64843 17.508 1.9453 11.023-1.9453 16.859-7.7812 10.375-5.8359 11.023-9.7264 5.8359-9.7264 1.9453-15.562-1.2968-16.211-4.539-14.914-4.539-9.7264-2.5937-7.7812-0.64843-9.078 4.539 9.7264 7.1327 11.672 8.4296 14.265 5.1874 11.023v-4.539l1.9453 10.375-0.64843 3.8906 1.9453-7.1327v6.4843l-3.2421 5.1874-2.5937 1.9453 6.4843-1.2969-3.2421 8.4296-1.2969 1.9453 4.539-3.2422-4.539 17.508-6.4843 11.023-9.7264 7.7812-7.1327 5.1874-4.539 1.2968-5.8359 2.5937-2.5937 10.375 5.1874 5.1874 6.4843 10.375 6.4843 10.375 1.2969 9.078v16.859l-1.9453 24.64v18.156l5.1874 18.156 4.539 12.969 7.1327 11.672 7.1327 11.672 2.5937 5.1874 3.2422 7.1327-0.64843 26.586 3.8906 16.211-1.9453 10.375-8.4296 7.1327-11.023-1.2968-1.9453-7.7812-0.64843-5.8359 4.539-3.8906 1.9453-4.539-3.8906-24.64-8.4296-15.562-18.804-20.101-14.265-17.508-8.4296-11.672v17.508l-1.9453 10.375s9.7491 13.563 9.7264 21.398c-0.009 3.0947-3.8906 8.4296-3.8906 8.4296l-10.375 26.586-5.1874 14.914h-5.8359l-5.8359 5.1874-4.539-1.9453h-9.078l-1.9453-3.2422-0.64843-5.8359 4.539-5.8359 3.8906-2.5937 7.1327 2.5937 9.7264-20.101-2.5937-14.265-5.8359-17.508-9.078-25.937-5.1874-12.32-3.8906-26.586v-3.2422l-12.969-1.9453-1.9453-5.8359-7.1327-0.64843-12.969 1.9453-13.617 9.7264-14.914 6.4843-25.289 12.32-16.211 3.8906-12.32 1.2969-11.023-1.9453-3.8906 20.75v40.851l1.2969 18.156v3.8906s-9.078-6.4843-6.4843 9.078 2.5937 22.695 2.5937 22.695v5.1874l-12.969 1.2969-11.023-1.9453-5.1874-4.539 0.64843-8.4296 2.5937-3.8906h-7.7812l-3.2421-3.8906-0.64843-5.1874 3.2421-4.539h6.4843l3.2421-7.1327-7.7812-56.413-7.7812-27.234 1.2969-5.8359-9.078-20.75-7.1327-16.211-5.8359-23.992-7.1327-10.375s-10.687-18.457-17.508-26.586c-3.44-4.0994-6.7557-8.909-11.672-11.023-3.5796-1.5395-7.8265-1.2788-11.672-0.64843-3.4459 0.56495-6.2976 3.2302-9.7264 3.8906-2.3347 0.44962-4.7555-0.0396-7.1327 0-6.487 0.10809-13.048 1.681-19.453 0.64843-4.3208-0.69655-14.914-3.8906-12.32-4.539 2.5937-0.64843-1.813-7.7268-3.8906-11.023-1.6298-2.586-6.4843-6.4843-6.4843-6.4843l-0.64843-5.8359 2.5937-5.1874 9.7264-2.5937 11.672-5.1874 8.4296-7.1327z" fill="inherit" fill-rule="evenodd" stroke="#000" stroke-width="1px"/>
 </g>
</svg>