<?xml version="1.0" encoding="UTF-8"?><svg xmlns="http://www.w3.org/2000/svg" viewBox="0 0 36 36">
 <g id="change1_1"><path d="m24 7c-3 0-3 1-6 1s-3-1-6-1c-4 0-9 2-9 9 0 11 6 20 10 20 3 0 3-1 5-1s2 1 5 1c4 0 10-9 10-20 0-7.001-5-9-9-9z" fill="#DD2E44"/></g>
 <g id="change2_1"><path d="m19 7s3-4 8-4c4 0 6 2 6 2s-4 3-7 3-7-1-7-1z" fill="#77B255"/></g>
 <g id="change3_1"><path d="m18 10c-0.552 0-1-0.448-1-1 0-3.441 1.2-6.615 3.293-8.707 0.391-0.391 1.023-0.391 1.414 0s0.391 1.024 0 1.414c-1.721 1.72-2.707 4.378-2.707 7.293 0 0.552-0.448 1-1 1z" fill="#662113"/></g>
</svg>