<?xml version="1.0" encoding="UTF-8"?><!-- Generator: Adobe Illustrator 18.0.0, SVG Export Plug-In . SVG Version: 6.00 Build 0)  --><svg xmlns="http://www.w3.org/2000/svg" enable-background="new 146.8 3 549.1 588.4" id="Layer_1" version="1.1" viewBox="146.8 3 549.1 588.4" x="0px" xml:space="preserve" y="0px">
<g id="Change4">
	<g>
		<path d="m452.6 591.5h-0.2c-18.9-3.1-18.3-18-18.3-18.2s1.8-24.3-8.7-29.6c-1.5-0.7-3.1-1.4-4.8-2.3-11.3-5-25.5-11.2-43.6-48.7-20.5-42.5-44.3-211-45.2-218.1-0.1-1 0.5-1.8 1.4-1.9 1-0.1 1.8 0.5 1.9 1.4 0.2 1.8 24.6 175 44.9 217 17.6 36.4 31.1 42.4 41.9 47 1.8 0.7 3.3 1.4 5 2.3 12.5 6.3 10.6 31.9 10.6 33 0 0.5-0.4 11.9 15.5 14.5 1 0.1 1.5 1.1 1.4 2-0.2 1-1 1.6-1.8 1.6z" fill="#C2B59B"/>
	</g>
	<g>
		<path d="m356.9 324.4c-7.1 0-13.2-3.1-16-8.2-1.9-3.5-2.3-7.5-1-11.8 1.8-6.2 6.8-11.7 13.5-15.2 7.1-3.8 13.1-6.3 18.5-6.3 4.9 0 8.7 2.3 11.5 6.5 2.6 4.2 3.3 8.9 1.9 14-1.9 7-7.4 13.7-14.5 17.4-4.5 2.4-9.3 3.6-13.9 3.6zm15-38.1c-4.9 0-11 2.9-16.8 6s-10.2 8-11.8 13.2c-1 3.3-0.7 6.4 0.7 9.2 2.1 4 7 6.4 13 6.4 4 0 8.3-1.1 12.3-3.2 6.3-3.3 11.2-9.2 12.9-15.2 1.1-4 0.6-8-1.5-11.3-2.4-3.5-5.1-5.1-8.8-5.1z" fill="#C2B59B"/>
	</g>
	<g>
		<path d="m432.5 553.4c-3.8 0-6.8-2.1-6.8-5 0-2.7 3-5 6.8-5s6.8 2.1 6.8 5c-0.1 2.8-3.1 5-6.8 5zm0-6.5c-2 0-3.3 1-3.3 1.4s1.2 1.4 3.3 1.4c2 0 3.3-1 3.3-1.4s-1.3-1.4-3.3-1.4z" fill="#C2B59B"/>
	</g>
	<g>
		<path d="m461.3 582.3c-0.2 0-0.4 0-0.6-0.1-1-0.4-22.5-8-30.1-28.1-3.2-8.6 0.5-23.8 4.6-41.4 6-24.8 12.7-52.9 2.9-70.6-8.5-15.1-5.5-25.5-2.1-37.5 3.8-13.5 8.1-28.7-2.7-55.5-9.4-23.1-13.2-51.7-14.9-71.6-1.8-21.5-1.3-37.9-1.3-38 0-1 0.8-1.7 1.8-1.7s1.7 0.8 1.7 1.8c0 0.6-1.7 64.8 15.8 108.2 11.3 28 6.7 44.5 2.9 57.7-3.3 11.8-6 21.1 1.8 34.9 10.6 18.9 3.7 47.7-2.5 73.1-3.9 16.3-7.7 31.8-4.9 39.4 7 18.6 27.9 26 28.1 26.1 1 0.4 1.4 1.3 1.1 2.3-0.2 0.5-0.9 1-1.6 1z" fill="#C2B59B"/>
	</g>
	<g>
		<path d="m495.2 360.9c-4.4 0-8.8-1-12.7-2.7-12-5.5-18.6-17.3-14.6-26.4 2.6-6 8.8-9.4 16.8-9.4 4 0 8.3 1 12.3 2.7 8.6 3.9 23 10.5 18.1 23.8-2.7 7.4-10.1 12-19.9 12zm-10.6-35.3c-6.5 0-11.7 2.7-13.6 7.4-3.2 7.4 2.6 17.3 12.9 21.9 3.6 1.5 7.4 2.4 11.3 2.4 8.2 0 14.4-3.6 16.5-9.8 3.1-8.7-3.6-13.7-16.3-19.5-3.4-1.4-7.2-2.4-10.8-2.4z" fill="#C2B59B"/>
	</g>
	<g>
		<path d="m426.7 590.2c-0.7 0-1.4-0.5-1.7-1.2-0.1-0.4-3.3-10.2-3.7-22.5-0.1-6.1 5.6-12.4 13-20.5 8.9-9.9 20-22 25.2-38.8 7.3-23.1 18.5-39.8 29.3-55.7 4.2-6.1 8-11.9 11.5-17.9 12.4-20.7 8.5-90.2 8.5-91 0-1 0.7-1.8 1.7-1.8s1.8 0.7 1.8 1.7c0.1 2.9 3.9 71.2-8.9 92.9-3.6 6.1-7.5 11.8-11.7 18-10.7 15.8-21.7 32.1-28.9 54.9-5.5 17.4-16.9 30-26.1 40-6.8 7.5-12.1 13.3-12 18.1 0.2 11.8 3.5 21.4 3.5 21.5 0.4 1-0.2 1.9-1.1 2.1 0 0.2-0.2 0.2-0.4 0.2z" fill="#C2B59B"/>
	</g>
</g>
<g id="Change1">
	<g>
		<path d="m336.4 320.1c-47.9 16.9-134.8-43.2-168-90.1-21.7-30.6-36.9-81.6 4.3-113.6 43.5-33.7 92.9 3.2 92.9 3.2s9-56 56.1-67.5c36.9-9 73.9 13.5 86.7 77s-19.7 172.6-72 191z" fill="#7CD6DB"/>
	</g>
	<g>
		<polygon fill="#7CD6DB" points="343.7 314.9 346.1 338.2 326.9 334.9 338.3 319"/>
	</g>
	<g>
		<path d="m327 335.9c-0.1 3.6 4.2 6.7 9.5 6.8 5.4 0.1 9.8-2.6 9.9-6.2s-4.2-6.5-9.5-6.8c-5.4-0.2-9.8 2.6-9.9 6.2z" fill="#7CD6DB"/>
	</g>
	<g opacity=".4">
		<path d="m327 335.9c-0.1 3.6 4.2 6.7 9.5 6.8 5.4 0.1 9.8-2.6 9.9-6.2s-4.2-6.5-9.5-6.8c-5.4-0.2-9.8 2.6-9.9 6.2z" fill="#7CD6DB"/>
	</g>
</g>
<g id="Change2">
	<g>
		<path d="m412.4 264.3c-50.7 2.9-117.3-79.2-136-133.6-12.3-35.5-12.6-88.6 36-107.7 51.1-20.2 88.3 29 88.3 29s24.4-51 72.7-48.9c38 1.7 67.1 33.6 61.7 98.2-5.5 64.7-67.4 160-122.7 163z" fill="#EFE8E5"/>
	</g>
	<g>
		<polygon fill="#EFE8E5" points="413 258 411.3 277.3 429 271.2 420.8 260.1"/>
	</g>
	<g>
			<ellipse cx="420" cy="273.8" fill="#EFE8E5" rx="9.3" ry="6.3" transform="matrix(-.9818 .19 -.19 -.9818 884.31 462.82)"/>
	</g>
	<g opacity=".4">
			<ellipse cx="420" cy="273.8" fill="#EFE8E5" rx="9.3" ry="6.3" transform="matrix(-.9818 .19 -.19 -.9818 884.31 462.82)"/>
	</g>
</g>
<g id="Change3">
	<g>
		<path d="m513.7 358.5c48.6 14.5 132.5-49.6 163.5-98.1 20.2-31.7 32.9-83.2-9.8-113.2-45-31.5-92.6 7.6-92.6 7.6s-11.8-55.4-59.3-64.7c-37.3-7.3-73.2 16.9-82.9 81.1-9.9 64.2 28 171.4 81.1 187.3z" fill="#EA60A9"/>
	</g>
	<g>
		<polygon fill="#EA60A9" points="507.4 349.8 506.2 372.8 524.9 368.6 512.9 353.5"/>
	</g>
	<g>
		<path d="m524.9 369.5c0.2 3.6-3.8 6.7-9 7.1s-9.8-2.1-10-5.6 3.8-6.7 9-7.1c5.2-0.3 9.6 2.2 10 5.6z" fill="#EA60A9"/>
	</g>
	<g opacity=".4">
		<path d="m524.9 369.5c0.2 3.6-3.8 6.7-9 7.1s-9.8-2.1-10-5.6 3.8-6.7 9-7.1c5.2-0.3 9.6 2.2 10 5.6z" fill="#EA60A9"/>
	</g>
</g>
<g id="Change4_1_">
	<g>
		<path d="m336.3 321.7c-0.6 0-1.2-0.4-1.5-0.8-0.8-1.3-0.8-2.9-0.1-4.3 0.6-1.1 2.1-3.1 6.3-3.6 2.4-0.2 3.6 0.6 4.3 1.4 1.5 2 0.6 5.1 0.4 5.7-0.4 1-1.3 1.3-2.3 1.1-1-0.4-1.3-1.3-1.1-2.3 0.4-0.8 0.4-2 0.1-2.4-0.1-0.1-0.5-0.2-1.1-0.1-2.7 0.4-3.5 1.3-3.6 1.7s-0.1 0.6 0 1c0.5 0.8 0.2 1.9-0.6 2.4-0.2 0.1-0.4 0.2-0.8 0.2z" fill="#C2B59B"/>
	</g>
	<g>
		<path d="m411.4 266.1c-0.7 0-1.4-0.5-1.7-1.2-0.6-1.7-0.2-3.5 1-5 1.8-2.4 5.5-3.8 8.8-3.6 2 0.1 3.6 0.8 4.4 2 1.2 1.5 1 3.2 0.8 3.5-0.2 1-1.1 1.5-2 1.4-1-0.2-1.5-1.1-1.4-2 0 0 0-0.4-0.2-0.7-0.4-0.4-1-0.6-1.9-0.7-2.3-0.1-4.8 0.8-5.8 2.3-0.7 0.8-0.5 1.5-0.4 1.8 0.4 1-0.2 1.9-1.1 2.1-0.1 0.1-0.4 0.1-0.5 0.1z" fill="#C2B59B"/>
	</g>
	<g>
		<path d="m516.8 360c-0.4 0-0.7-0.1-1-0.2-0.8-0.5-1.1-1.5-0.5-2.4 0.1-0.2 0.5-1 0.4-1.3-0.1-0.2-0.4-0.5-0.8-0.7-1.5-0.7-4.6-0.4-6 0.7-0.4 0.4-0.4 0.6-0.2 0.7 0.4 1-0.1 1.9-1.1 2.3s-1.9-0.1-2.3-1.1c-0.6-1.7-0.1-3.3 1.2-4.5 2.3-2 6.9-2.6 9.8-1.3 1.8 0.8 2.4 2 2.6 3 0.6 2-0.6 3.9-0.7 4.2-0.3 0.4-0.9 0.6-1.4 0.6z" fill="#C2B59B"/>
	</g>
</g>
</svg>