<?xml version="1.0" encoding="utf-8"?>
<!-- Generator: Adobe Illustrator 18.1.1, SVG Export Plug-In . SVG Version: 6.00 Build 0)  -->
<!DOCTYPE svg PUBLIC "-//W3C//DTD SVG 1.1//EN" "http://www.w3.org/Graphics/SVG/1.1/DTD/svg11.dtd">
<svg version="1.1" id="Layer_2" xmlns="http://www.w3.org/2000/svg" xmlns:xlink="http://www.w3.org/1999/xlink" x="0px" y="0px"
	 viewBox="111 -2.4 273 500" enable-background="new 111 -2.4 273 500" xml:space="preserve">
<g id="Change1">
	<path fill="#7A4B3B" d="M357.7,200.8c-14-39.2-35.9-63.3-43.2-70.6c-3.8-12.4-6.6-24.3-7.3-35c-1.5-23.8-8.3-54.4-16.4-67.9
		c23.7-23.2,4.6-31.5-4.7-21.9c-4,4.1-5.3,9.4-5.5,14.3c-13.4-2.3-45.7-0.3-57.6,3.6c0.7-6.1,0.1-13.8-5.3-19.3
		c-9.7-10-30-0.6-1.6,24.8c-5.3,5.7-13.7,15.8-15.8,68.9c0,0-6.4,13.2-14.5,30.1c-6.5,6.1-30.8,29.7-49.8,73
		c-20.4,46.5-26,80.5-20.3,94c3.1,7.3,8.6,11.1,13.8,12.3c-0.4,17.1,1.4,34.4,6.6,50.5c3.5,10.8,8.3,20.1,14.1,28l0,0
		c1.2,1.6,14.3,32.1,15.1,41.2c0.8,9.1-0.4,34.7,0,40.5s1.3,20.2,11.8,24.4c10.5,4.1,37,5.8,46.1-2.9c9.1-8.7,1.5-21.1,0-22.7
		c-1.3-1.5-7-20.4-1.9-40.6c14.4,2.1,27.7,1.6,37.2-0.3c3.6-0.7,7.4-1.5,11.2-2.4c6.4,21.2,0.3,41.7-1.1,43.3c-1.5,1.7-9,14,0,22.7
		c9,8.7,35.6,7,46.1,2.9c10.5-4.1,11.4-18.6,11.8-24.4s-0.8-31.4,0-40.5c0.7-7.4,15-42,21-55.6c0.9-1.8,1.8-3.6,2.6-5.5
		c6.9-16.2,10-34.3,10.6-52.6c6.7-0.1,15.1-3.6,19.1-12.9C385.5,286.6,374.8,248.6,357.7,200.8z"/>
</g>
<g id="Change2">
	<path fill="#A57A6F" d="M285.3,28.8c0,0-5.2-13.3,2.3-20.9C295,0.3,310.8,8.2,285.3,28.8z"/>
	<path fill="#A57A6F" d="M218.5,27.4c0,0,5.2-13.3-2.3-20.9S193.1,6.8,218.5,27.4z"/>
	<path fill="#A57A6F" d="M181,253.5c-3.4,7.7-26.8,52.6-12.7,87.8c14.1,35.2,62,39.8,83,36.5s49.6-8.7,62-32.1
		c16-30.1,1-72.1-8-90.8s-29.5-85.8-36.5-95.6s-37.3-11.4-44.5,2.7C217.1,176,184.4,245.8,181,253.5z"/>
	<path fill="#A57A6F" d="M235.3,64.3c0-7.8,26.4-12,33.2-4.1c7.6,8.7-2.7,40.9-9.9,46.8c-7.3,6-13.6,3.6-16.5-2.2
		C240,100.7,235.3,82.9,235.3,64.3z"/>
</g>
<g>
	<path fill="#28150D" d="M243.3,85.4c0,0,13.9-2.9,16,0s-5.5,14.5-8,14.5C248.8,99.8,243.3,92,243.3,85.4z"/>
	<line fill="none" stroke="#28150D" stroke-miterlimit="10" x1="251.5" y1="98" x2="251.5" y2="110.5"/>
	<ellipse fill="#28150D" cx="226" cy="60.6" rx="2.7" ry="2.7"/>
	<ellipse fill="#28150D" cx="279" cy="59.8" rx="2.7" ry="2.7"/>
	<g>
		<path fill="#28150D" d="M146.8,223.3c0,0-0.4,1.3-1,3.6c-0.7,2.3-1.6,5.5-2.7,9.4c-1.1,3.9-2.3,8.5-3.5,13.4
			c-0.6,2.4-1.3,5-1.9,7.6c-0.6,2.6-1.2,5.2-1.8,7.8c-0.6,2.6-1.1,5.3-1.7,7.9c-0.5,2.6-1,5.2-1.5,7.6c-0.4,2.5-0.8,4.9-1.2,7.2
			c-0.3,2.3-0.6,4.5-0.9,6.5c-0.2,2-0.4,3.9-0.6,5.5c-0.2,1.6-0.2,3.1-0.3,4.2c-0.1,2.4-0.2,3.7-0.2,3.7s0-1.3,0-3.7
			c0-1.2,0-2.6,0.1-4.3c0.1-1.6,0.2-3.5,0.4-5.5c0.2-2,0.5-4.2,0.7-6.5c0.3-2.3,0.7-4.7,1.1-7.2c0.5-2.5,0.9-5.1,1.4-7.7
			s1-5.3,1.6-7.9c0.6-2.6,1.2-5.3,1.9-7.8c0.6-2.6,1.3-5.1,1.9-7.6c0.6-2.5,1.3-4.8,2-7c0.7-2.2,1.3-4.3,1.9-6.3
			c1.2-3.9,2.3-7.1,3-9.3C146.3,224.6,146.8,223.3,146.8,223.3z"/>
	</g>
	<g>
		<path fill="#28150D" d="M120.8,302.8c0,0-0.5-0.7-1-1.8c-0.6-1.1-1.2-2.7-1.6-4.3c-0.1-0.4-0.2-0.8-0.3-1.2
			c-0.1-0.4-0.1-0.8-0.2-1.2c-0.1-0.8-0.2-1.5-0.1-2.2c0-0.3,0-0.6,0.1-0.9c0-0.3,0.1-0.5,0.1-0.7c0.1-0.4,0.1-0.6,0.1-0.6
			s0,0.2,0.1,0.6c0,0.2,0,0.4,0.1,0.7c0,0.3,0.1,0.5,0.1,0.8c0.1,0.6,0.3,1.3,0.4,2.1c0.2,0.7,0.4,1.6,0.6,2.3
			c0.4,1.6,0.9,3.2,1.2,4.4C120.6,302,120.8,302.8,120.8,302.8z"/>
	</g>
	<g>
		<path fill="#28150D" d="M123.9,292.5c0,0,0.1,0.9,0.2,2.3c0.1,1.3,0.3,3.1,0.6,4.9c0.1,0.9,0.3,1.8,0.4,2.6
			c0.1,0.4,0.2,0.8,0.3,1.2c0.1,0.4,0.2,0.7,0.3,1c0.1,0.3,0.2,0.6,0.3,0.9c0.1,0.3,0.2,0.5,0.2,0.7c0.1,0.4,0.2,0.6,0.2,0.6
			s-0.1-0.2-0.4-0.5c-0.1-0.2-0.3-0.4-0.4-0.6c-0.1-0.2-0.3-0.5-0.5-0.8c-0.3-0.6-0.6-1.4-0.8-2.2c-0.2-0.8-0.4-1.7-0.6-2.6
			c-0.1-0.9-0.2-1.8-0.2-2.7c0-0.9,0-1.7,0.1-2.3C123.7,293.4,123.9,292.5,123.9,292.5z"/>
	</g>
	<g>
		<path fill="#28150D" d="M343.3,229.1c0,0,0.5,1.3,1.2,3.5c0.8,2.2,1.8,5.4,3,9.3c0.6,1.9,1.2,4,1.9,6.3c0.6,2.2,1.3,4.6,2,7
			c0.7,2.4,1.3,5,1.9,7.6c0.7,2.6,1.3,5.2,1.9,7.8c0.6,2.6,1.1,5.3,1.6,7.9c0.5,2.6,0.9,5.2,1.4,7.7c0.4,2.5,0.7,4.9,1.1,7.2
			c0.3,2.3,0.5,4.5,0.7,6.5c0.2,2,0.3,3.9,0.4,5.5c0.1,1.6,0.1,3.1,0.1,4.3c0,2.4,0,3.7,0,3.7s-0.1-1.3-0.2-3.7
			c-0.1-1.2-0.1-2.6-0.3-4.2c-0.2-1.6-0.4-3.5-0.6-5.5c-0.3-2-0.6-4.2-0.9-6.5c-0.4-2.3-0.8-4.7-1.2-7.2c-0.5-2.5-0.9-5-1.5-7.6
			c-0.6-2.6-1.1-5.2-1.7-7.9c-0.6-2.6-1.2-5.3-1.8-7.8c-0.6-2.6-1.2-5.1-1.9-7.6c-1.3-4.9-2.5-9.5-3.5-13.4c-1.1-3.9-2-7.1-2.7-9.4
			C343.6,230.4,343.3,229.1,343.3,229.1z"/>
	</g>
	<g>
		<path fill="#28150D" d="M372.2,310.3c0,0,0.2-0.8,0.5-2s0.8-2.8,1.2-4.4c0.2-0.8,0.4-1.6,0.6-2.3c0.2-0.8,0.3-1.5,0.4-2.1
			c0.1-0.3,0.1-0.6,0.1-0.8c0-0.3,0.1-0.5,0.1-0.7c0-0.4,0.1-0.6,0.1-0.6s0.1,0.2,0.1,0.6c0,0.2,0.1,0.4,0.1,0.7s0.1,0.6,0.1,0.9
			c0,0.6,0,1.4-0.1,2.2c-0.1,0.4-0.1,0.8-0.2,1.2s-0.2,0.8-0.3,1.2c-0.4,1.6-1.1,3.2-1.6,4.3C372.7,309.6,372.2,310.3,372.2,310.3z"
			/>
	</g>
	<g>
		<path fill="#28150D" d="M367.4,299.3c0,0,0.2,0.9,0.3,2.3c0.1,0.7,0.1,1.5,0.1,2.3c0,0.9-0.1,1.8-0.2,2.7
			c-0.1,0.9-0.3,1.8-0.6,2.6c-0.2,0.8-0.5,1.6-0.8,2.2c-0.2,0.3-0.3,0.6-0.5,0.8c-0.1,0.2-0.3,0.4-0.4,0.6c-0.2,0.3-0.4,0.5-0.4,0.5
			s0.1-0.2,0.2-0.6c0.1-0.2,0.2-0.4,0.2-0.7c0.1-0.3,0.2-0.6,0.3-0.9s0.2-0.7,0.3-1c0.1-0.4,0.2-0.8,0.3-1.2
			c0.2-0.8,0.3-1.7,0.4-2.6c0.3-1.8,0.4-3.5,0.6-4.9C367.3,300.2,367.4,299.3,367.4,299.3z"/>
	</g>
	<g>
		<path fill="#28150D" d="M184.8,479.4c0,0,0.3,0.1,0.7,0.3c0.2,0.1,0.5,0.3,0.7,0.5c0.3,0.2,0.6,0.4,0.9,0.7c0.3,0.3,0.6,0.6,0.9,1
			c0.3,0.4,0.6,0.8,0.8,1.3c0.2,0.5,0.5,0.9,0.7,1.5c0.2,0.5,0.4,1,0.5,1.6c0.1,0.5,0.3,1.1,0.3,1.6c0.1,0.5,0.1,1.1,0.1,1.6
			c0,0.5,0,1,0,1.5c0,0.5-0.1,0.9-0.1,1.3c-0.1,0.8-0.3,1.5-0.3,2c-0.1,0.5-0.2,0.7-0.2,0.7s0-0.3,0-0.8c0-0.5,0-1.2,0-2
			c0-0.4,0-0.8-0.1-1.3c0-0.5-0.1-0.9-0.1-1.4c0-0.5-0.1-1-0.2-1.5c-0.1-0.5-0.2-1-0.3-1.5c-0.1-0.5-0.3-1-0.4-1.5
			c-0.2-0.5-0.4-1-0.6-1.4c-0.2-0.4-0.4-0.9-0.7-1.2c-0.2-0.4-0.5-0.7-0.7-1.1c-0.3-0.3-0.5-0.6-0.7-0.8c-0.2-0.2-0.4-0.4-0.6-0.6
			C185,479.6,184.8,479.4,184.8,479.4z"/>
	</g>
	<g>
		<path fill="#28150D" d="M200.9,479.4c0,0,0.3,0.1,0.7,0.3c0.2,0.1,0.5,0.3,0.7,0.5c0.3,0.2,0.6,0.4,0.9,0.7c0.3,0.3,0.6,0.6,0.9,1
			c0.3,0.4,0.6,0.8,0.8,1.3c0.2,0.5,0.5,0.9,0.7,1.5c0.2,0.5,0.4,1,0.5,1.6c0.1,0.5,0.3,1.1,0.3,1.6c0.1,0.5,0.1,1.1,0.1,1.6
			c0,0.5,0,1,0,1.5c0,0.5-0.1,0.9-0.1,1.3c-0.1,0.8-0.3,1.5-0.3,2c-0.1,0.5-0.2,0.7-0.2,0.7s0-0.3,0-0.8c0-0.5,0-1.2,0-2
			c0-0.4,0-0.8-0.1-1.3c0-0.5-0.1-0.9-0.1-1.4c0-0.5-0.1-1-0.2-1.5c-0.1-0.5-0.2-1-0.3-1.5c-0.1-0.5-0.3-1-0.4-1.5
			c-0.2-0.5-0.4-1-0.6-1.4c-0.2-0.4-0.4-0.9-0.7-1.2c-0.2-0.4-0.5-0.7-0.7-1.1c-0.3-0.3-0.5-0.6-0.7-0.8c-0.2-0.2-0.4-0.4-0.6-0.6
			C201.1,479.6,200.9,479.4,200.9,479.4z"/>
	</g>
	<g>
		<path fill="#28150D" d="M214.9,476.2c0,0,0.3,0.1,0.7,0.3c0.2,0.1,0.5,0.3,0.7,0.5c0.3,0.2,0.6,0.4,0.9,0.7c0.3,0.3,0.6,0.6,0.9,1
			c0.3,0.4,0.6,0.8,0.8,1.3c0.2,0.5,0.5,0.9,0.7,1.5c0.2,0.5,0.4,1,0.5,1.6c0.1,0.5,0.3,1.1,0.3,1.6c0.1,0.5,0.1,1.1,0.1,1.6
			c0,0.5,0,1,0,1.5c0,0.5-0.1,0.9-0.1,1.3c-0.1,0.8-0.3,1.5-0.3,2c-0.1,0.5-0.2,0.7-0.2,0.7s0-0.3,0-0.8c0-0.5,0-1.2,0-2
			c0-0.4,0-0.8-0.1-1.3c0-0.5-0.1-0.9-0.1-1.4c0-0.5-0.1-1-0.2-1.5c-0.1-0.5-0.2-1-0.3-1.5c-0.1-0.5-0.3-1-0.4-1.5
			c-0.2-0.5-0.4-1-0.6-1.4c-0.2-0.4-0.4-0.9-0.7-1.2c-0.2-0.4-0.5-0.7-0.7-1.1c-0.2-0.3-0.5-0.6-0.7-0.8c-0.2-0.2-0.4-0.4-0.6-0.6
			C215.1,476.3,214.9,476.2,214.9,476.2z"/>
	</g>
	<g>
		<path fill="#28150D" d="M307.9,479.4c0,0-0.2,0.2-0.6,0.5c-0.2,0.2-0.4,0.4-0.6,0.6s-0.4,0.5-0.7,0.8c-0.2,0.3-0.5,0.7-0.7,1.1
			c-0.3,0.4-0.4,0.8-0.7,1.2c-0.2,0.5-0.4,0.9-0.6,1.4c-0.2,0.5-0.3,1-0.4,1.5c-0.1,0.5-0.3,1-0.3,1.5c-0.1,0.5-0.2,1-0.2,1.5
			c0,0.5-0.1,1-0.1,1.4c0,0.5,0,0.9-0.1,1.3c0,0.8,0,1.5,0,2c0,0.5,0,0.8,0,0.8s-0.1-0.3-0.2-0.7c-0.1-0.5-0.3-1.1-0.3-2
			c0-0.4-0.1-0.9-0.1-1.3c0-0.5,0-1,0-1.5c0-0.5,0.1-1.1,0.1-1.6c0.1-0.5,0.2-1.1,0.3-1.6c0.1-0.5,0.3-1.1,0.5-1.6
			c0.2-0.5,0.5-1,0.7-1.5c0.3-0.5,0.5-0.9,0.8-1.3c0.3-0.4,0.6-0.7,0.9-1c0.3-0.3,0.6-0.5,0.9-0.7c0.3-0.2,0.5-0.4,0.7-0.5
			C307.6,479.5,307.9,479.4,307.9,479.4z"/>
	</g>
	<g>
		<path fill="#28150D" d="M291.7,479.4c0,0-0.2,0.2-0.6,0.5c-0.2,0.2-0.4,0.4-0.6,0.6s-0.4,0.5-0.7,0.8c-0.2,0.3-0.5,0.7-0.7,1.1
			c-0.3,0.4-0.4,0.8-0.7,1.2c-0.2,0.5-0.4,0.9-0.6,1.4c-0.2,0.5-0.3,1-0.4,1.5c-0.1,0.5-0.3,1-0.3,1.5c-0.1,0.5-0.2,1-0.2,1.5
			c0,0.5-0.1,1-0.1,1.4c0,0.5,0,0.9-0.1,1.3c0,0.8,0,1.5,0,2c0,0.5,0,0.8,0,0.8s-0.1-0.3-0.2-0.7c-0.1-0.5-0.3-1.1-0.3-2
			c0-0.4-0.1-0.9-0.1-1.3c0-0.5,0-1,0-1.5c0-0.5,0.1-1.1,0.1-1.6c0.1-0.5,0.2-1.1,0.3-1.6c0.1-0.5,0.3-1.1,0.5-1.6s0.5-1,0.7-1.5
			c0.3-0.5,0.5-0.9,0.8-1.3c0.3-0.4,0.6-0.7,0.9-1c0.3-0.3,0.6-0.5,0.9-0.7c0.3-0.2,0.5-0.4,0.7-0.5
			C291.5,479.5,291.7,479.4,291.7,479.4z"/>
	</g>
	<g>
		<path fill="#28150D" d="M277.8,476.2c0,0-0.2,0.2-0.6,0.5c-0.2,0.2-0.4,0.4-0.6,0.6c-0.2,0.2-0.4,0.5-0.7,0.8
			c-0.2,0.3-0.5,0.7-0.7,1.1c-0.3,0.4-0.4,0.8-0.7,1.2c-0.2,0.5-0.4,0.9-0.6,1.4c-0.2,0.5-0.3,1-0.4,1.5c-0.1,0.5-0.3,1-0.3,1.5
			c-0.1,0.5-0.2,1-0.2,1.5c0,0.5-0.1,1-0.1,1.4c0,0.5,0,0.9-0.1,1.3c0,0.8,0,1.5,0,2c0,0.5,0,0.8,0,0.8s-0.1-0.3-0.2-0.7
			c-0.1-0.5-0.3-1.1-0.3-2c0-0.4-0.1-0.9-0.1-1.3c0-0.5,0-1,0-1.5c0-0.5,0.1-1.1,0.1-1.6c0.1-0.5,0.2-1.1,0.3-1.6
			c0.1-0.5,0.3-1.1,0.5-1.6c0.2-0.5,0.5-1,0.7-1.5c0.3-0.5,0.5-0.9,0.8-1.3c0.3-0.4,0.6-0.7,0.9-1c0.3-0.3,0.6-0.5,0.9-0.7
			c0.3-0.2,0.5-0.4,0.7-0.5C277.5,476.3,277.8,476.2,277.8,476.2z"/>
	</g>
</g>
<g>
	<g opacity="0.1">
		<path fill="#FFFFFF" d="M199.6,126.7c0,0-0.1,0.7-0.4,1.8c-0.3,1-0.7,2.4-1.3,3.6c-0.5,1.3-1.2,2.5-1.7,3.5c-0.5,0.9-1,1.5-1,1.5
			s0-0.7,0.2-1.8s0.6-2.4,1.1-3.7c0.5-1.3,1.3-2.5,1.9-3.4C199.1,127.2,199.6,126.7,199.6,126.7z"/>
	</g>
	<g opacity="0.1">
		<path fill="#FFFFFF" d="M214.3,125.8c0,0-0.1,0.7-0.4,1.8c-0.3,1-0.7,2.4-1.3,3.6c-0.5,1.3-1.2,2.5-1.7,3.5c-0.5,0.9-1,1.5-1,1.5
			s0-0.7,0.2-1.8s0.6-2.4,1.1-3.7c0.5-1.3,1.3-2.5,1.9-3.4C213.8,126.4,214.3,125.8,214.3,125.8z"/>
	</g>
	<g opacity="0.1">
		<path fill="#FFFFFF" d="M219.8,136.2c0,0-0.1,0.7-0.4,1.8c-0.3,1-0.7,2.4-1.3,3.6c-0.5,1.3-1.2,2.5-1.7,3.5c-0.5,0.9-1,1.5-1,1.5
			s0-0.7,0.2-1.8c0.2-1.1,0.6-2.4,1.1-3.7s1.3-2.5,1.9-3.4C219.3,136.7,219.8,136.2,219.8,136.2z"/>
	</g>
	<g opacity="0.1">
		<path fill="#FFFFFF" d="M206.9,144.9c0,0-0.1,0.7-0.4,1.8c-0.3,1-0.7,2.4-1.3,3.6c-0.5,1.3-1.2,2.5-1.7,3.5c-0.5,0.9-1,1.5-1,1.5
			s0-0.7,0.2-1.8c0.2-1.1,0.6-2.4,1.1-3.7c0.5-1.3,1.3-2.5,1.9-3.4C206.3,145.4,206.9,144.9,206.9,144.9z"/>
	</g>
	<g opacity="0.1">
		<path fill="#FFFFFF" d="M187.6,138.4c0,0-0.1,0.7-0.4,1.8c-0.3,1-0.7,2.4-1.3,3.6c-0.5,1.3-1.2,2.5-1.7,3.5c-0.5,0.9-1,1.5-1,1.5
			s0-0.7,0.2-1.8c0.2-1.1,0.6-2.4,1.1-3.7c0.5-1.3,1.3-2.5,1.9-3.4C187,138.9,187.6,138.4,187.6,138.4z"/>
	</g>
	<g opacity="0.1">
		<path fill="#FFFFFF" d="M195.2,146.4c0,0-0.1,0.7-0.4,1.8c-0.3,1-0.7,2.4-1.3,3.6c-0.5,1.3-1.2,2.5-1.7,3.5c-0.5,0.9-1,1.5-1,1.5
			s0-0.7,0.2-1.8c0.2-1.1,0.6-2.4,1.1-3.7s1.3-2.5,1.9-3.4C194.7,146.9,195.2,146.4,195.2,146.4z"/>
	</g>
	<g opacity="0.1">
		<path fill="#FFFFFF" d="M216.5,156.1c0,0-0.1,0.7-0.4,1.8c-0.3,1-0.7,2.4-1.3,3.6c-0.5,1.3-1.2,2.5-1.7,3.5c-0.5,0.9-1,1.5-1,1.5
			s0-0.7,0.2-1.8c0.2-1.1,0.6-2.4,1.1-3.7s1.3-2.5,1.9-3.4C216,156.6,216.5,156.1,216.5,156.1z"/>
	</g>
	<g opacity="0.1">
		<path fill="#FFFFFF" d="M183.5,166.8c0,0-0.1,0.7-0.4,1.8c-0.3,1-0.7,2.4-1.3,3.6c-0.5,1.3-1.2,2.5-1.7,3.5c-0.5,0.9-1,1.5-1,1.5
			s0-0.7,0.2-1.8c0.2-1.1,0.6-2.4,1.1-3.7c0.5-1.3,1.3-2.5,1.9-3.4C183,167.3,183.5,166.8,183.5,166.8z"/>
	</g>
	<g opacity="0.1">
		<path fill="#FFFFFF" d="M198.2,166c0,0-0.1,0.7-0.4,1.8c-0.3,1-0.7,2.4-1.3,3.6c-0.5,1.3-1.2,2.5-1.7,3.5c-0.5,0.9-1,1.5-1,1.5
			s0-0.7,0.2-1.8s0.6-2.4,1.1-3.7c0.5-1.3,1.3-2.5,1.9-3.4C197.7,166.5,198.2,166,198.2,166z"/>
	</g>
	<g opacity="0.1">
		<path fill="#FFFFFF" d="M203.7,176.3c0,0-0.1,0.7-0.4,1.8c-0.3,1-0.7,2.4-1.3,3.6c-0.5,1.3-1.2,2.5-1.7,3.5c-0.5,0.9-1,1.5-1,1.5
			s0-0.7,0.2-1.8c0.2-1.1,0.6-2.4,1.1-3.7s1.3-2.5,1.9-3.4C203.2,176.8,203.7,176.3,203.7,176.3z"/>
	</g>
	<g opacity="0.1">
		<path fill="#FFFFFF" d="M190.8,185c0,0-0.1,0.7-0.4,1.8c-0.3,1-0.7,2.4-1.3,3.6c-0.5,1.3-1.2,2.5-1.7,3.5c-0.5,0.9-1,1.5-1,1.5
			s0-0.7,0.2-1.8c0.2-1.1,0.6-2.4,1.1-3.7c0.5-1.3,1.3-2.5,1.9-3.4C190.2,185.6,190.8,185,190.8,185z"/>
	</g>
	<g opacity="0.1">
		<path fill="#FFFFFF" d="M171.5,178.6c0,0-0.1,0.7-0.4,1.8c-0.3,1-0.7,2.4-1.3,3.6c-0.5,1.3-1.2,2.5-1.7,3.5c-0.5,0.9-1,1.5-1,1.5
			s0-0.7,0.2-1.8s0.6-2.4,1.1-3.7s1.3-2.5,1.9-3.4C170.9,179.1,171.5,178.6,171.5,178.6z"/>
	</g>
	<g opacity="0.1">
		<path fill="#FFFFFF" d="M179.1,186.5c0,0-0.1,0.7-0.4,1.8c-0.3,1-0.7,2.4-1.3,3.6c-0.5,1.3-1.2,2.5-1.7,3.5c-0.5,0.9-1,1.5-1,1.5
			s0-0.7,0.2-1.8c0.2-1.1,0.6-2.4,1.1-3.7c0.5-1.3,1.3-2.5,1.9-3.4C178.6,187.1,179.1,186.5,179.1,186.5z"/>
	</g>
	<g opacity="0.1">
		<path fill="#FFFFFF" d="M200.4,196.2c0,0-0.1,0.7-0.4,1.8c-0.3,1-0.7,2.4-1.3,3.6c-0.5,1.3-1.2,2.5-1.7,3.5c-0.5,0.9-1,1.5-1,1.5
			s0-0.7,0.2-1.8c0.2-1.1,0.6-2.4,1.1-3.7c0.5-1.3,1.3-2.5,1.9-3.4C199.9,196.7,200.4,196.2,200.4,196.2z"/>
	</g>
	<g opacity="0.1">
		<path fill="#FFFFFF" d="M167.4,206.4c0,0-0.1,0.7-0.4,1.8c-0.3,1-0.7,2.4-1.3,3.6c-0.5,1.3-1.2,2.5-1.7,3.5c-0.5,0.9-1,1.5-1,1.5
			s0-0.7,0.2-1.8c0.2-1.1,0.6-2.4,1.1-3.7s1.3-2.5,1.9-3.4C166.8,206.9,167.4,206.4,167.4,206.4z"/>
	</g>
	<g opacity="0.1">
		<path fill="#FFFFFF" d="M182.1,205.6c0,0-0.1,0.7-0.4,1.8c-0.3,1-0.7,2.4-1.3,3.6c-0.5,1.3-1.2,2.5-1.7,3.5c-0.5,0.9-1,1.5-1,1.5
			s0-0.7,0.2-1.8c0.2-1.1,0.6-2.4,1.1-3.7c0.5-1.3,1.3-2.5,1.9-3.4C181.6,206.1,182.1,205.6,182.1,205.6z"/>
	</g>
	<g opacity="0.1">
		<path fill="#FFFFFF" d="M187.6,215.9c0,0-0.1,0.7-0.4,1.8c-0.3,1-0.7,2.4-1.3,3.6c-0.5,1.3-1.2,2.5-1.7,3.5c-0.5,0.9-1,1.5-1,1.5
			s0-0.7,0.2-1.8s0.6-2.4,1.1-3.7c0.5-1.3,1.3-2.5,1.9-3.4C187,216.5,187.6,215.9,187.6,215.9z"/>
	</g>
	<g opacity="0.1">
		<path fill="#FFFFFF" d="M174.7,224.7c0,0-0.1,0.7-0.4,1.8c-0.3,1-0.7,2.4-1.3,3.6c-0.5,1.3-1.2,2.5-1.7,3.5c-0.5,0.9-1,1.5-1,1.5
			s0-0.7,0.2-1.8c0.2-1.1,0.6-2.4,1.1-3.7s1.3-2.5,1.9-3.4C174.1,225.2,174.7,224.7,174.7,224.7z"/>
	</g>
	<g opacity="0.1">
		<path fill="#FFFFFF" d="M155.4,218.2c0,0-0.1,0.7-0.4,1.8c-0.3,1-0.7,2.4-1.3,3.6c-0.5,1.3-1.2,2.5-1.7,3.5c-0.5,0.9-1,1.5-1,1.5
			s0-0.7,0.2-1.8c0.2-1.1,0.6-2.4,1.1-3.7c0.5-1.3,1.3-2.5,1.9-3.4C154.8,218.7,155.4,218.2,155.4,218.2z"/>
	</g>
	<g opacity="0.1">
		<path fill="#FFFFFF" d="M163,226.1c0,0-0.1,0.7-0.4,1.8c-0.3,1-0.7,2.4-1.3,3.6c-0.5,1.3-1.2,2.5-1.7,3.5c-0.5,0.9-1,1.5-1,1.5
			s0-0.7,0.2-1.8c0.2-1.1,0.6-2.4,1.1-3.7c0.5-1.3,1.3-2.5,1.9-3.4C162.5,226.7,163,226.1,163,226.1z"/>
	</g>
	<g opacity="0.1">
		<path fill="#FFFFFF" d="M181.3,235c0,0-0.1,0.7-0.4,1.8c-0.3,1-0.7,2.4-1.3,3.6c-0.5,1.3-1.2,2.5-1.7,3.5c-0.5,0.9-1,1.5-1,1.5
			s0-0.7,0.2-1.8c0.2-1.1,0.6-2.4,1.1-3.7s1.3-2.5,1.9-3.4C180.8,235.5,181.3,235,181.3,235z"/>
	</g>
	<g opacity="0.1">
		<path fill="#FFFFFF" d="M176.8,150.3c0,0-0.1,0.7-0.4,1.8c-0.3,1-0.7,2.4-1.3,3.6c-0.5,1.3-1.2,2.5-1.7,3.5c-0.5,0.9-1,1.5-1,1.5
			s0-0.7,0.2-1.8c0.2-1.1,0.6-2.4,1.1-3.7c0.5-1.3,1.3-2.5,1.9-3.4C176.3,150.8,176.8,150.3,176.8,150.3z"/>
	</g>
	<g opacity="0.1">
		<path fill="#FFFFFF" d="M170.7,246.9c0,0,0,0.7-0.1,1.8c-0.1,1.1-0.4,2.4-0.7,3.8c-0.4,1.3-0.8,2.7-1.2,3.7
			c-0.4,1-0.8,1.6-0.8,1.6s-0.1-0.7-0.1-1.8c0-1.1,0.2-2.5,0.6-3.8c0.4-1.4,0.9-2.7,1.4-3.6C170.3,247.5,170.7,246.9,170.7,246.9z"
			/>
	</g>
	<g opacity="0.1">
		<path fill="#FFFFFF" d="M150.7,243.1c0,0,0,0.7-0.1,1.8c-0.1,1.1-0.4,2.4-0.7,3.8c-0.4,1.3-0.8,2.7-1.2,3.7
			c-0.4,1-0.8,1.6-0.8,1.6s-0.1-0.7-0.1-1.8s0.2-2.5,0.6-3.8c0.4-1.4,0.9-2.7,1.4-3.6C150.3,243.7,150.7,243.1,150.7,243.1z"/>
	</g>
	<g opacity="0.1">
		<path fill="#FFFFFF" d="M159.4,249.9c0,0,0,0.7-0.1,1.8c-0.1,1.1-0.4,2.4-0.7,3.8c-0.4,1.3-0.8,2.7-1.2,3.7
			c-0.4,1-0.8,1.6-0.8,1.6s-0.1-0.7-0.1-1.8c0-1.1,0.2-2.5,0.6-3.8c0.4-1.4,0.9-2.7,1.4-3.6C159,250.5,159.4,249.9,159.4,249.9z"/>
	</g>
	<g opacity="0.1">
		<path fill="#FFFFFF" d="M150.6,271.2c0,0,0,0.7-0.1,1.8c-0.1,1.1-0.4,2.4-0.7,3.8c-0.4,1.3-0.8,2.7-1.2,3.7s-0.8,1.6-0.8,1.6
			s-0.1-0.7-0.1-1.8s0.2-2.5,0.6-3.8c0.4-1.4,0.9-2.7,1.4-3.6C150.1,271.8,150.6,271.2,150.6,271.2z"/>
	</g>
	<g opacity="0.1">
		<path fill="#FFFFFF" d="M165,268.4c0,0,0,0.7-0.1,1.8c-0.1,1.1-0.4,2.4-0.7,3.8c-0.4,1.3-0.8,2.7-1.2,3.7s-0.8,1.6-0.8,1.6
			s-0.1-0.7-0.1-1.8c0-1.1,0.2-2.5,0.6-3.8c0.4-1.4,0.9-2.7,1.4-3.6C164.6,269,165,268.4,165,268.4z"/>
	</g>
	<g opacity="0.1">
		<path fill="#FFFFFF" d="M160.3,288.3c0,0,0,0.7-0.1,1.8c-0.1,1.1-0.4,2.4-0.7,3.8c-0.4,1.3-0.8,2.7-1.2,3.7
			c-0.4,1-0.8,1.6-0.8,1.6s-0.1-0.7-0.1-1.8c0-1.1,0.2-2.5,0.6-3.8c0.4-1.4,0.9-2.7,1.4-3.6C159.9,288.9,160.3,288.3,160.3,288.3z"
			/>
	</g>
	<g opacity="0.1">
		<path fill="#FFFFFF" d="M140.3,284.5c0,0,0,0.7-0.1,1.8c-0.1,1.1-0.4,2.4-0.7,3.8c-0.4,1.3-0.8,2.7-1.2,3.7
			c-0.4,1-0.8,1.6-0.8,1.6s-0.1-0.7-0.1-1.8c0-1.1,0.2-2.5,0.6-3.8c0.4-1.4,0.9-2.7,1.4-3.6C139.9,285.1,140.3,284.5,140.3,284.5z"
			/>
	</g>
	<g opacity="0.1">
		<path fill="#FFFFFF" d="M149,291.4c0,0,0,0.7-0.1,1.8c-0.1,1.1-0.4,2.4-0.7,3.8c-0.4,1.3-0.8,2.7-1.2,3.7s-0.8,1.6-0.8,1.6
			s-0.1-0.7-0.1-1.8c0-1.1,0.2-2.5,0.6-3.8c0.4-1.4,0.9-2.7,1.4-3.6C148.6,291.9,149,291.4,149,291.4z"/>
	</g>
	<g opacity="0.1">
		<path fill="#FFFFFF" d="M141.6,262.2c0,0,0,0.7-0.1,1.8c-0.1,1.1-0.4,2.4-0.7,3.8c-0.4,1.3-0.8,2.7-1.2,3.7
			c-0.4,1-0.8,1.6-0.8,1.6s-0.1-0.7-0.1-1.8c0-1.1,0.2-2.5,0.6-3.8c0.4-1.4,0.9-2.7,1.4-3.6C141.1,262.7,141.6,262.2,141.6,262.2z"
			/>
	</g>
	<g opacity="0.1">
		<path fill="#FFFFFF" d="M139,314.6c0,0,0.3,0.7,0.6,1.7c0.3,1,0.6,2.4,0.9,3.7c0.2,1.4,0.4,2.8,0.4,3.8c0,1.1-0.1,1.8-0.1,1.8
			s-0.4-0.6-0.8-1.6c-0.4-1-0.8-2.4-1-3.8s-0.3-2.8-0.2-3.9C138.8,315.3,139,314.6,139,314.6z"/>
	</g>
	<g opacity="0.1">
		<path fill="#FFFFFF" d="M151.1,306.3c0,0,0.3,0.7,0.6,1.7c0.3,1,0.6,2.4,0.9,3.7c0.2,1.4,0.4,2.8,0.4,3.8c0,1.1-0.1,1.8-0.1,1.8
			s-0.4-0.6-0.8-1.6c-0.4-1-0.8-2.4-1-3.8c-0.2-1.4-0.3-2.8-0.2-3.9C150.9,307,151.1,306.3,151.1,306.3z"/>
	</g>
	<g opacity="0.1">
		<path fill="#FFFFFF" d="M155,326.3c0,0,0.3,0.7,0.6,1.7c0.3,1,0.6,2.4,0.9,3.7c0.2,1.4,0.4,2.8,0.4,3.8c0,1.1-0.1,1.8-0.1,1.8
			s-0.4-0.6-0.8-1.6c-0.4-1-0.8-2.4-1-3.8c-0.2-1.4-0.3-2.8-0.2-3.9C154.8,327.1,155,326.3,155,326.3z"/>
	</g>
	<g opacity="0.1">
		<path fill="#FFFFFF" d="M135.1,330.8c0,0,0.3,0.7,0.6,1.7c0.3,1,0.6,2.4,0.9,3.7c0.2,1.4,0.4,2.8,0.4,3.8c0,1.1-0.1,1.8-0.1,1.8
			s-0.4-0.6-0.8-1.6c-0.4-1-0.8-2.4-1-3.8c-0.2-1.4-0.3-2.8-0.2-3.9C134.9,331.5,135.1,330.8,135.1,330.8z"/>
	</g>
	<g opacity="0.1">
		<path fill="#FFFFFF" d="M145.9,333.6c0,0,0.3,0.7,0.6,1.7s0.6,2.4,0.9,3.7c0.2,1.4,0.4,2.8,0.4,3.8c0,1.1-0.1,1.8-0.1,1.8
			s-0.4-0.6-0.8-1.6s-0.8-2.4-1-3.8c-0.2-1.4-0.3-2.8-0.2-3.9C145.7,334.3,145.9,333.6,145.9,333.6z"/>
	</g>
	<g opacity="0.1">
		<path fill="#FFFFFF" d="M134.6,300.7c0,0,0.1,0.7,0.2,1.8c0.1,1.1,0,2.5-0.1,3.8c-0.1,1.4-0.3,2.8-0.6,3.8c-0.2,1-0.5,1.7-0.5,1.7
			s-0.2-0.7-0.4-1.8c-0.1-1.1-0.2-2.5-0.1-3.9c0.1-1.4,0.4-2.8,0.7-3.8C134.2,301.4,134.6,300.7,134.6,300.7z"/>
	</g>
	<g opacity="0.1">
		<path fill="#FFFFFF" d="M163.6,347.3c0,0,0.4,0.6,0.9,1.6s1,2.3,1.4,3.6c0.4,1.3,0.7,2.7,0.9,3.7c0.2,1,0.2,1.8,0.2,1.8
			s-0.5-0.6-1-1.5c-0.5-0.9-1.1-2.2-1.5-3.6c-0.4-1.3-0.7-2.7-0.8-3.8C163.5,348,163.6,347.3,163.6,347.3z"/>
	</g>
	<g opacity="0.1">
		<path fill="#FFFFFF" d="M144.5,354.3c0,0,0.4,0.6,0.9,1.6s1,2.3,1.4,3.6c0.4,1.3,0.7,2.7,0.9,3.7c0.2,1,0.2,1.8,0.2,1.8
			s-0.5-0.6-1-1.5c-0.5-0.9-1.1-2.2-1.5-3.6c-0.4-1.3-0.7-2.7-0.8-3.8C144.4,355.1,144.5,354.3,144.5,354.3z"/>
	</g>
	<g opacity="0.1">
		<path fill="#FFFFFF" d="M155.1,358c0,0,0.4,0.6,0.9,1.6c0.5,1,1,2.3,1.4,3.6c0.4,1.3,0.7,2.7,0.9,3.7c0.2,1,0.2,1.8,0.2,1.8
			s-0.5-0.6-1-1.5c-0.5-0.9-1.1-2.2-1.5-3.6c-0.4-1.3-0.7-2.7-0.8-3.8C155.1,358.7,155.1,358,155.1,358z"/>
	</g>
	<g opacity="0.1">
		<path fill="#FFFFFF" d="M155.1,375.4c0,0,0.4,0.6,0.9,1.6c0.5,1,1,2.3,1.4,3.6c0.4,1.3,0.7,2.7,0.9,3.7c0.2,1,0.2,1.8,0.2,1.8
			s-0.5-0.6-1-1.5c-0.5-0.9-1.1-2.2-1.5-3.6c-0.4-1.3-0.7-2.7-0.8-3.8C155.1,376.2,155.1,375.4,155.1,375.4z"/>
	</g>
	<g opacity="0.1">
		<path fill="#FFFFFF" d="M168.6,371.6c0,0,0.4,0.6,0.9,1.6s1,2.3,1.4,3.6c0.4,1.3,0.7,2.7,0.9,3.7c0.2,1,0.2,1.8,0.2,1.8
			s-0.5-0.6-1-1.5s-1.1-2.2-1.5-3.6c-0.4-1.3-0.7-2.7-0.8-3.8C168.5,372.3,168.6,371.6,168.6,371.6z"/>
	</g>
	<g opacity="0.1">
		<path fill="#FFFFFF" d="M176.9,387.8c0,0,0.4,0.6,0.9,1.6c0.5,1,1,2.3,1.4,3.6c0.4,1.3,0.7,2.7,0.9,3.7c0.2,1,0.2,1.8,0.2,1.8
			s-0.5-0.6-1-1.5s-1.1-2.2-1.5-3.6c-0.4-1.3-0.7-2.7-0.8-3.8C176.9,388.6,176.9,387.8,176.9,387.8z"/>
	</g>
	<g opacity="0.1">
		<path fill="#FFFFFF" d="M157.9,394.9c0,0,0.4,0.6,0.9,1.6c0.5,1,1,2.3,1.4,3.6c0.4,1.3,0.7,2.7,0.9,3.7c0.2,1,0.2,1.8,0.2,1.8
			s-0.5-0.6-1-1.5s-1.1-2.2-1.5-3.6c-0.4-1.3-0.7-2.7-0.8-3.8C157.8,395.7,157.9,394.9,157.9,394.9z"/>
	</g>
	<g opacity="0.1">
		<path fill="#FFFFFF" d="M168.9,396.3c0,0,0.4,0.6,0.9,1.6c0.5,1,1,2.3,1.4,3.6c0.4,1.3,0.7,2.7,0.9,3.7c0.2,1,0.2,1.8,0.2,1.8
			s-0.5-0.6-1-1.5s-1.1-2.2-1.5-3.6c-0.4-1.3-0.7-2.7-0.8-3.8C168.9,397,168.9,396.3,168.9,396.3z"/>
	</g>
	<g opacity="0.1">
		<path fill="#FFFFFF" d="M175.2,360.9c0,0,0.4,0.6,0.9,1.6s1,2.3,1.4,3.6c0.4,1.3,0.7,2.7,0.9,3.7c0.2,1,0.2,1.8,0.2,1.8
			s-0.5-0.6-1-1.5c-0.5-0.9-1.1-2.2-1.5-3.6c-0.4-1.3-0.7-2.7-0.8-3.8C175.2,361.6,175.2,360.9,175.2,360.9z"/>
	</g>
	<path opacity="0.1" fill="#FFFFFF" stroke="#FFFFFF" stroke-width="1.5" stroke-miterlimit="10" enable-background="new    " d="
		M212.1,479.4"/>
	<g opacity="0.1">
		<path fill="#FFFFFF" d="M289,124.9c0,0,0.5,0.5,1.1,1.4c0.6,0.9,1.3,2.1,1.9,3.4c0.6,1.3,1,2.7,1.1,3.7c0.2,1.1,0.2,1.8,0.2,1.8
			s-0.5-0.6-1-1.5c-0.5-0.9-1.2-2.2-1.7-3.5c-0.5-1.3-1-2.6-1.3-3.6C289.1,125.7,289,124.9,289,124.9z"/>
	</g>
	<g opacity="0.1">
		<path fill="#FFFFFF" d="M281.7,143.2c0,0,0.5,0.5,1.1,1.4c0.6,0.9,1.3,2.1,1.9,3.4c0.6,1.3,1,2.7,1.1,3.7c0.2,1.1,0.2,1.8,0.2,1.8
			s-0.5-0.6-1-1.5c-0.5-0.9-1.2-2.2-1.7-3.5c-0.5-1.3-1-2.6-1.3-3.6C281.8,143.9,281.7,143.2,281.7,143.2z"/>
	</g>
	<g opacity="0.1">
		<path fill="#FFFFFF" d="M301,136.7c0,0,0.5,0.5,1.1,1.4c0.6,0.9,1.3,2.1,1.9,3.4c0.6,1.3,1,2.7,1.1,3.7c0.2,1.1,0.2,1.8,0.2,1.8
			s-0.5-0.6-1-1.5c-0.5-0.9-1.2-2.2-1.7-3.5s-1-2.6-1.3-3.6C301.1,137.4,301,136.7,301,136.7z"/>
	</g>
	<g opacity="0.1">
		<path fill="#FFFFFF" d="M293.4,144.7c0,0,0.5,0.5,1.1,1.4c0.6,0.9,1.3,2.1,1.9,3.4c0.6,1.3,1,2.7,1.1,3.7c0.2,1.1,0.2,1.8,0.2,1.8
			s-0.5-0.6-1-1.5c-0.5-0.9-1.2-2.2-1.7-3.5c-0.5-1.3-1-2.6-1.3-3.6C293.5,145.4,293.4,144.7,293.4,144.7z"/>
	</g>
	<g opacity="0.1">
		<path fill="#FFFFFF" d="M305.1,165.1c0,0,0.5,0.5,1.1,1.4c0.6,0.9,1.3,2.1,1.9,3.4c0.6,1.3,1,2.7,1.1,3.7c0.2,1.1,0.2,1.8,0.2,1.8
			s-0.5-0.6-1-1.5c-0.5-0.9-1.2-2.2-1.7-3.5c-0.5-1.3-1-2.6-1.3-3.6C305.2,165.8,305.1,165.1,305.1,165.1z"/>
	</g>
	<g opacity="0.1">
		<path fill="#FFFFFF" d="M290.4,164.2c0,0,0.5,0.5,1.1,1.4c0.6,0.9,1.3,2.1,1.9,3.4c0.6,1.3,1,2.7,1.1,3.7c0.2,1.1,0.2,1.8,0.2,1.8
			s-0.5-0.6-1-1.5c-0.5-0.9-1.2-2.2-1.7-3.5c-0.5-1.3-1-2.6-1.3-3.6C290.5,165,290.4,164.2,290.4,164.2z"/>
	</g>
	<g opacity="0.1">
		<path fill="#FFFFFF" d="M284.9,174.6c0,0,0.5,0.5,1.1,1.4c0.6,0.9,1.3,2.1,1.9,3.4c0.6,1.3,1,2.7,1.1,3.7c0.2,1.1,0.2,1.8,0.2,1.8
			s-0.5-0.6-1-1.5c-0.5-0.9-1.2-2.2-1.7-3.5c-0.5-1.3-1-2.6-1.3-3.6C285,175.3,284.9,174.6,284.9,174.6z"/>
	</g>
	<g opacity="0.1">
		<path fill="#FFFFFF" d="M297.8,183.3c0,0,0.5,0.5,1.1,1.4c0.6,0.9,1.3,2.1,1.9,3.4c0.6,1.3,1,2.7,1.1,3.7c0.2,1.1,0.2,1.8,0.2,1.8
			s-0.5-0.6-1-1.5c-0.5-0.9-1.2-2.2-1.7-3.5c-0.5-1.3-1-2.6-1.3-3.6C297.9,184.1,297.8,183.3,297.8,183.3z"/>
	</g>
	<g opacity="0.1">
		<path fill="#FFFFFF" d="M317.1,176.8c0,0,0.5,0.5,1.1,1.4c0.6,0.9,1.3,2.1,1.9,3.4c0.6,1.3,1,2.7,1.1,3.7c0.2,1.1,0.2,1.8,0.2,1.8
			s-0.5-0.6-1-1.5c-0.5-0.9-1.2-2.2-1.7-3.5c-0.5-1.3-1-2.6-1.3-3.6C317.2,177.6,317.1,176.8,317.1,176.8z"/>
	</g>
	<g opacity="0.1">
		<path fill="#FFFFFF" d="M309.5,184.8c0,0,0.5,0.5,1.1,1.4c0.6,0.9,1.3,2.1,1.9,3.4c0.6,1.3,1,2.7,1.1,3.7c0.2,1.1,0.2,1.8,0.2,1.8
			s-0.5-0.6-1-1.5c-0.5-0.9-1.2-2.2-1.7-3.5c-0.5-1.3-1-2.6-1.3-3.6C309.6,185.6,309.5,184.8,309.5,184.8z"/>
	</g>
	<g opacity="0.1">
		<path fill="#FFFFFF" d="M288.2,194.5c0,0,0.5,0.5,1.1,1.4c0.6,0.9,1.3,2.1,1.9,3.4c0.6,1.3,1,2.7,1.1,3.7c0.2,1.1,0.2,1.8,0.2,1.8
			s-0.5-0.6-1-1.5c-0.5-0.9-1.2-2.2-1.7-3.5c-0.5-1.3-1-2.6-1.3-3.6C288.3,195.2,288.2,194.5,288.2,194.5z"/>
	</g>
	<g opacity="0.1">
		<path fill="#FFFFFF" d="M321.2,204.7c0,0,0.5,0.5,1.1,1.4c0.6,0.9,1.3,2.1,1.9,3.4c0.6,1.3,1,2.7,1.1,3.7c0.2,1.1,0.2,1.8,0.2,1.8
			s-0.5-0.6-1-1.5c-0.5-0.9-1.2-2.2-1.7-3.5c-0.5-1.3-1-2.6-1.3-3.6C321.3,205.4,321.2,204.7,321.2,204.7z"/>
	</g>
	<g opacity="0.1">
		<path fill="#FFFFFF" d="M306.5,203.9c0,0,0.5,0.5,1.1,1.4c0.6,0.9,1.3,2.1,1.9,3.4c0.6,1.3,1,2.7,1.1,3.7c0.2,1.1,0.2,1.8,0.2,1.8
			s-0.5-0.6-1-1.5c-0.5-0.9-1.2-2.2-1.7-3.5c-0.5-1.3-1-2.6-1.3-3.6C306.6,204.6,306.5,203.9,306.5,203.9z"/>
	</g>
	<g opacity="0.1">
		<path fill="#FFFFFF" d="M301,214.2c0,0,0.5,0.5,1.1,1.4c0.6,0.9,1.3,2.1,1.9,3.4c0.6,1.3,1,2.7,1.1,3.7c0.2,1.1,0.2,1.8,0.2,1.8
			s-0.5-0.6-1-1.5c-0.5-0.9-1.2-2.2-1.7-3.5c-0.5-1.3-1-2.6-1.3-3.6C301.1,215,301,214.2,301,214.2z"/>
	</g>
	<g opacity="0.1">
		<path fill="#FFFFFF" d="M313.9,222.9c0,0,0.5,0.5,1.1,1.4c0.6,0.9,1.3,2.1,1.9,3.4c0.6,1.3,1,2.7,1.1,3.7c0.2,1.1,0.2,1.8,0.2,1.8
			s-0.5-0.6-1-1.5c-0.5-0.9-1.2-2.2-1.7-3.5c-0.5-1.3-1-2.6-1.3-3.6C314,223.7,313.9,222.9,313.9,222.9z"/>
	</g>
	<g opacity="0.1">
		<path fill="#FFFFFF" d="M333.2,216.4c0,0,0.5,0.5,1.1,1.4c0.6,0.9,1.3,2.1,1.9,3.4c0.6,1.3,1,2.7,1.1,3.7c0.2,1.1,0.2,1.8,0.2,1.8
			s-0.5-0.6-1-1.5c-0.5-0.9-1.2-2.2-1.7-3.5c-0.5-1.3-1-2.6-1.3-3.6C333.3,217.2,333.2,216.4,333.2,216.4z"/>
	</g>
	<g opacity="0.1">
		<path fill="#FFFFFF" d="M325.6,224.4c0,0,0.5,0.5,1.1,1.4c0.6,0.9,1.3,2.1,1.9,3.4c0.6,1.3,1,2.7,1.1,3.7c0.2,1.1,0.2,1.8,0.2,1.8
			s-0.5-0.6-1-1.5c-0.5-0.9-1.2-2.2-1.7-3.5c-0.5-1.3-1-2.6-1.3-3.6C325.7,225.2,325.6,224.4,325.6,224.4z"/>
	</g>
	<g opacity="0.1">
		<path fill="#FFFFFF" d="M307.3,233.3c0,0,0.5,0.5,1.1,1.4c0.6,0.9,1.3,2.1,1.9,3.4c0.6,1.3,1,2.7,1.1,3.7c0.2,1.1,0.2,1.8,0.2,1.8
			s-0.5-0.6-1-1.5c-0.5-0.9-1.2-2.2-1.7-3.5c-0.5-1.3-1-2.6-1.3-3.6C307.4,234,307.3,233.3,307.3,233.3z"/>
	</g>
	<g opacity="0.1">
		<path fill="#FFFFFF" d="M308.7,153.8c0,0,0.5,0.5,1.1,1.4c0.6,0.9,1.3,2.1,1.9,3.4c0.6,1.3,1,2.7,1.1,3.7c0.2,1.1,0.2,1.8,0.2,1.8
			s-0.5-0.6-1-1.5c-0.5-0.9-1.2-2.2-1.7-3.5c-0.5-1.3-1-2.6-1.3-3.6C308.8,154.5,308.7,153.8,308.7,153.8z"/>
	</g>
	<g opacity="0.1">
		<path fill="#FFFFFF" d="M328.9,194.5c0,0,0.5,0.5,1.1,1.4c0.6,0.9,1.3,2.1,1.9,3.4c0.6,1.3,1,2.7,1.1,3.7c0.2,1.1,0.2,1.8,0.2,1.8
			s-0.5-0.6-1-1.5c-0.5-0.9-1.2-2.2-1.7-3.5c-0.5-1.3-1-2.6-1.3-3.6C329,195.2,328.9,194.5,328.9,194.5z"/>
	</g>
	<g opacity="0.1">
		<path fill="#FFFFFF" d="M317.9,245.2c0,0,0.5,0.6,0.9,1.5c0.5,1,1,2.3,1.4,3.6c0.4,1.4,0.6,2.8,0.6,3.8c0.1,1.1-0.1,1.8-0.1,1.8
			s-0.4-0.6-0.8-1.6c-0.4-1-0.9-2.3-1.2-3.7c-0.4-1.3-0.6-2.7-0.7-3.8C317.8,245.9,317.9,245.2,317.9,245.2z"/>
	</g>
	<g opacity="0.1">
		<path fill="#FFFFFF" d="M337.9,241.3c0,0,0.5,0.6,0.9,1.5c0.5,1,1,2.3,1.4,3.6c0.4,1.4,0.6,2.8,0.6,3.8c0.1,1.1-0.1,1.8-0.1,1.8
			s-0.4-0.6-0.8-1.6c-0.4-1-0.9-2.3-1.2-3.7c-0.4-1.3-0.6-2.7-0.7-3.8C337.9,242.1,337.9,241.3,337.9,241.3z"/>
	</g>
	<g opacity="0.1">
		<path fill="#FFFFFF" d="M329.2,248.2c0,0,0.5,0.6,0.9,1.5c0.5,1,1,2.3,1.4,3.6c0.4,1.4,0.6,2.8,0.6,3.8c0.1,1.1-0.1,1.8-0.1,1.8
			s-0.4-0.6-0.8-1.6c-0.4-1-0.9-2.3-1.2-3.7c-0.4-1.3-0.6-2.7-0.7-3.8C329.2,249,329.2,248.2,329.2,248.2z"/>
	</g>
	<g opacity="0.1">
		<path fill="#FFFFFF" d="M338,269.5c0,0,0.5,0.6,0.9,1.5c0.5,1,1,2.3,1.4,3.6c0.4,1.4,0.6,2.8,0.6,3.8c0.1,1.1-0.1,1.8-0.1,1.8
			s-0.4-0.6-0.8-1.6c-0.4-1-0.9-2.3-1.2-3.7c-0.4-1.3-0.6-2.7-0.7-3.8C338,270.2,338,269.5,338,269.5z"/>
	</g>
	<g opacity="0.1">
		<path fill="#FFFFFF" d="M323.6,266.7c0,0,0.5,0.6,0.9,1.5c0.5,1,1,2.3,1.4,3.6c0.4,1.4,0.6,2.8,0.6,3.8c0.1,1.1-0.1,1.8-0.1,1.8
			s-0.4-0.6-0.8-1.6c-0.4-1-0.9-2.3-1.2-3.7c-0.4-1.3-0.6-2.7-0.7-3.8C323.5,267.4,323.6,266.7,323.6,266.7z"/>
	</g>
	<g opacity="0.1">
		<path fill="#FFFFFF" d="M328.3,286.6c0,0,0.5,0.6,0.9,1.5c0.5,1,1,2.3,1.4,3.6c0.4,1.4,0.6,2.8,0.6,3.8c0.1,1.1-0.1,1.8-0.1,1.8
			s-0.4-0.6-0.8-1.6c-0.4-1-0.9-2.3-1.2-3.7c-0.4-1.3-0.6-2.7-0.7-3.8C328.2,287.3,328.3,286.6,328.3,286.6z"/>
	</g>
	<g opacity="0.1">
		<path fill="#FFFFFF" d="M348.3,282.8c0,0,0.5,0.6,0.9,1.5c0.5,1,1,2.3,1.4,3.6c0.4,1.4,0.6,2.8,0.6,3.8c0.1,1.1-0.1,1.8-0.1,1.8
			s-0.4-0.6-0.8-1.6c-0.4-1-0.9-2.3-1.2-3.7c-0.4-1.3-0.6-2.7-0.7-3.8C348.3,283.5,348.3,282.8,348.3,282.8z"/>
	</g>
	<g opacity="0.1">
		<path fill="#FFFFFF" d="M339.6,289.6c0,0,0.5,0.6,0.9,1.5c0.5,1,1,2.3,1.4,3.6c0.4,1.4,0.6,2.8,0.6,3.8c0.1,1.1-0.1,1.8-0.1,1.8
			s-0.4-0.6-0.8-1.6c-0.4-1-0.9-2.3-1.2-3.7c-0.4-1.3-0.6-2.7-0.7-3.8C339.6,290.4,339.6,289.6,339.6,289.6z"/>
	</g>
	<g opacity="0.1">
		<path fill="#FFFFFF" d="M347,260.4c0,0,0.5,0.6,0.9,1.5c0.5,1,1,2.3,1.4,3.6c0.4,1.4,0.6,2.8,0.6,3.8c0.1,1.1-0.1,1.8-0.1,1.8
			s-0.4-0.6-0.8-1.6c-0.4-1-0.9-2.3-1.2-3.7c-0.4-1.3-0.6-2.7-0.7-3.8C347,261.2,347,260.4,347,260.4z"/>
	</g>
	<g opacity="0.1">
		<path fill="#FFFFFF" d="M349.6,312.8c0,0,0.2,0.7,0.2,1.8c0.1,1.1,0,2.5-0.2,3.9c-0.2,1.4-0.6,2.8-1,3.8s-0.8,1.6-0.8,1.6
			s-0.1-0.7-0.1-1.8c0-1.1,0.2-2.5,0.4-3.8c0.2-1.4,0.6-2.7,0.9-3.7C349.3,313.5,349.6,312.8,349.6,312.8z"/>
	</g>
	<g opacity="0.1">
		<path fill="#FFFFFF" d="M337.5,304.5c0,0,0.2,0.7,0.2,1.8c0.1,1.1,0,2.5-0.2,3.9c-0.2,1.4-0.6,2.8-1,3.8c-0.4,1-0.8,1.6-0.8,1.6
			s-0.1-0.7-0.1-1.8c0-1.1,0.2-2.5,0.4-3.8c0.2-1.4,0.6-2.7,0.9-3.7C337.2,305.2,337.5,304.5,337.5,304.5z"/>
	</g>
	<g opacity="0.1">
		<path fill="#FFFFFF" d="M333.6,324.6c0,0,0.2,0.7,0.2,1.8c0.1,1.1,0,2.5-0.2,3.9s-0.6,2.8-1,3.8s-0.8,1.6-0.8,1.6
			s-0.1-0.7-0.1-1.8c0-1.1,0.2-2.5,0.4-3.8c0.2-1.4,0.6-2.7,0.9-3.7C333.3,325.3,333.6,324.6,333.6,324.6z"/>
	</g>
	<g opacity="0.1">
		<path fill="#FFFFFF" d="M353.5,329c0,0,0.2,0.7,0.2,1.8c0.1,1.1,0,2.5-0.2,3.9c-0.2,1.4-0.6,2.8-1,3.8c-0.4,1-0.8,1.6-0.8,1.6
			s-0.1-0.7-0.1-1.8c0-1.1,0.2-2.5,0.4-3.8c0.2-1.4,0.6-2.7,0.9-3.7C353.2,329.7,353.5,329,353.5,329z"/>
	</g>
	<g opacity="0.1">
		<path fill="#FFFFFF" d="M342.7,331.9c0,0,0.2,0.7,0.2,1.8c0.1,1.1,0,2.5-0.2,3.9c-0.2,1.4-0.6,2.8-1,3.8c-0.4,1-0.8,1.6-0.8,1.6
			s-0.1-0.7-0.1-1.8c0-1.1,0.2-2.5,0.4-3.8c0.2-1.4,0.6-2.7,0.9-3.7C342.4,332.6,342.7,331.9,342.7,331.9z"/>
	</g>
	<g opacity="0.1">
		<path fill="#FFFFFF" d="M354,299c0,0,0.4,0.7,0.7,1.7s0.6,2.4,0.7,3.8c0.1,1.4,0.1,2.8-0.1,3.9c-0.1,1.1-0.4,1.8-0.4,1.8
			s-0.3-0.7-0.5-1.7s-0.5-2.4-0.6-3.8c-0.1-1.4-0.1-2.8-0.1-3.8C353.9,299.7,354,299,354,299z"/>
	</g>
	<g opacity="0.1">
		<path fill="#FFFFFF" d="M325,345.5c0,0,0.1,0.7,0,1.8c-0.1,1.1-0.4,2.5-0.8,3.8c-0.4,1.4-1,2.6-1.5,3.6c-0.5,0.9-1,1.5-1,1.5
			s0-0.7,0.2-1.8c0.2-1.1,0.5-2.4,0.9-3.7c0.4-1.3,0.9-2.6,1.4-3.6C324.6,346.2,325,345.5,325,345.5z"/>
	</g>
	<g opacity="0.1">
		<path fill="#FFFFFF" d="M344.1,352.6c0,0,0.1,0.7,0,1.8c-0.1,1.1-0.4,2.5-0.8,3.8c-0.4,1.4-1,2.6-1.5,3.6c-0.5,0.9-1,1.5-1,1.5
			s0-0.7,0.2-1.8c0.2-1.1,0.5-2.4,0.9-3.7c0.4-1.3,0.9-2.6,1.4-3.6C343.7,353.2,344.1,352.6,344.1,352.6z"/>
	</g>
	<g opacity="0.1">
		<path fill="#FFFFFF" d="M333.5,356.2c0,0,0.1,0.7,0,1.8c-0.1,1.1-0.4,2.5-0.8,3.8c-0.4,1.4-1,2.6-1.5,3.6c-0.5,0.9-1,1.5-1,1.5
			s0-0.7,0.2-1.8c0.2-1.1,0.5-2.4,0.9-3.7c0.4-1.3,0.9-2.6,1.4-3.6C333.1,356.9,333.5,356.2,333.5,356.2z"/>
	</g>
	<g opacity="0.1">
		<path fill="#FFFFFF" d="M333.5,373.7c0,0,0.1,0.7,0,1.8c-0.1,1.1-0.4,2.5-0.8,3.8c-0.4,1.4-1,2.6-1.5,3.6c-0.5,0.9-1,1.5-1,1.5
			s0-0.7,0.2-1.8c0.2-1.1,0.5-2.4,0.9-3.7c0.4-1.3,0.9-2.6,1.4-3.6C333.1,374.3,333.5,373.7,333.5,373.7z"/>
	</g>
	<g opacity="0.1">
		<path fill="#FFFFFF" d="M320,369.9c0,0,0.1,0.7,0,1.8c-0.1,1.1-0.4,2.5-0.8,3.8c-0.4,1.4-1,2.6-1.5,3.6c-0.5,0.9-1,1.5-1,1.5
			s0-0.7,0.2-1.8c0.2-1.1,0.5-2.4,0.9-3.7c0.4-1.3,0.9-2.6,1.4-3.6C319.6,370.5,320,369.9,320,369.9z"/>
	</g>
	<g opacity="0.1">
		<path fill="#FFFFFF" d="M311.7,386.1c0,0,0.1,0.7,0,1.8c-0.1,1.1-0.4,2.5-0.8,3.8c-0.4,1.4-1,2.6-1.5,3.6c-0.5,0.9-1,1.5-1,1.5
			s0-0.7,0.2-1.8c0.2-1.1,0.5-2.4,0.9-3.7c0.4-1.3,0.9-2.6,1.4-3.6C311.3,386.7,311.7,386.1,311.7,386.1z"/>
	</g>
	<g opacity="0.1">
		<path fill="#FFFFFF" d="M330.8,393.2c0,0,0.1,0.7,0,1.8c-0.1,1.1-0.4,2.5-0.8,3.8c-0.4,1.4-1,2.6-1.5,3.6c-0.5,0.9-1,1.5-1,1.5
			s0-0.7,0.2-1.8c0.2-1.1,0.5-2.4,0.9-3.7c0.4-1.3,0.9-2.6,1.4-3.6C330.3,393.8,330.8,393.2,330.8,393.2z"/>
	</g>
	<g opacity="0.1">
		<path fill="#FFFFFF" d="M319.7,394.6c0,0,0.1,0.7,0,1.8c-0.1,1.1-0.4,2.5-0.8,3.8c-0.4,1.4-1,2.6-1.5,3.6c-0.5,0.9-1,1.5-1,1.5
			s0-0.7,0.2-1.8c0.2-1.1,0.5-2.4,0.9-3.7c0.4-1.3,0.9-2.6,1.4-3.6C319.3,395.2,319.7,394.6,319.7,394.6z"/>
	</g>
	<g opacity="0.1">
		<path fill="#FFFFFF" d="M313.4,359.2c0,0,0.1,0.7,0,1.8c-0.1,1.1-0.4,2.5-0.8,3.8c-0.4,1.4-1,2.6-1.5,3.6c-0.5,0.9-1,1.5-1,1.5
			s0-0.7,0.2-1.8c0.2-1.1,0.5-2.4,0.9-3.7c0.4-1.3,0.9-2.6,1.4-3.6C312.9,359.8,313.4,359.2,313.4,359.2z"/>
	</g>
	<g opacity="0.1">
		<path fill="#FFFFFF" d="M190.1,369.6c0,0,0.2,0.7,0.3,1.8c0.1,1.1,0.2,2.5,0.2,3.8c0,1.4-0.1,2.8-0.3,3.8
			c-0.2,1.1-0.4,1.8-0.4,1.8s-0.3-0.7-0.5-1.7c-0.2-1.1-0.4-2.5-0.3-3.9c0-1.4,0.2-2.8,0.5-3.9C189.8,370.3,190.1,369.6,190.1,369.6
			z"/>
	</g>
	<g opacity="0.1">
		<path fill="#FFFFFF" d="M194.2,389.2c0,0,0.2,0.7,0.3,1.8c0.1,1.1,0.2,2.5,0.2,3.8c0,1.4-0.1,2.8-0.3,3.8
			c-0.2,1.1-0.4,1.8-0.4,1.8s-0.3-0.7-0.5-1.7c-0.2-1.1-0.4-2.5-0.3-3.9c0-1.4,0.2-2.8,0.5-3.9C193.9,389.9,194.2,389.2,194.2,389.2
			z"/>
	</g>
	<g opacity="0.1">
		<path fill="#FFFFFF" d="M203.7,376.7c0,0,0.2,0.7,0.3,1.8c0.1,1.1,0.2,2.5,0.2,3.8c0,1.4-0.1,2.8-0.3,3.8
			c-0.2,1.1-0.4,1.8-0.4,1.8s-0.3-0.7-0.5-1.7c-0.2-1.1-0.4-2.5-0.3-3.9c0-1.4,0.2-2.8,0.5-3.9C203.4,377.4,203.7,376.7,203.7,376.7
			z"/>
	</g>
	<g opacity="0.1">
		<path fill="#FFFFFF" d="M291.9,372.2c0,0,0.2,0.7,0.3,1.8c0.1,1.1,0.2,2.5,0.2,3.8c0,1.4-0.1,2.8-0.3,3.8
			c-0.2,1.1-0.4,1.8-0.4,1.8s-0.3-0.7-0.5-1.7c-0.2-1.1-0.4-2.5-0.3-3.9c0-1.4,0.2-2.8,0.5-3.9C291.6,372.8,291.9,372.2,291.9,372.2
			z"/>
	</g>
	<g opacity="0.1">
		<path fill="#FFFFFF" d="M293.4,388.4c0,0,0.2,0.7,0.3,1.8c0.1,1.1,0.2,2.5,0.2,3.8c0,1.4-0.1,2.8-0.3,3.8
			c-0.2,1.1-0.4,1.8-0.4,1.8s-0.3-0.7-0.5-1.7c-0.2-1.1-0.4-2.5-0.3-3.9c0-1.4,0.2-2.8,0.5-3.9C293.1,389.1,293.4,388.4,293.4,388.4
			z"/>
	</g>
	<g opacity="0.1">
		<path fill="#FFFFFF" d="M302.9,379.2c0,0,0.2,0.7,0.3,1.8c0.1,1.1,0.2,2.5,0.2,3.8c0,1.4-0.1,2.8-0.3,3.8
			c-0.2,1.1-0.4,1.8-0.4,1.8s-0.3-0.7-0.5-1.7c-0.2-1.1-0.4-2.5-0.3-3.9c0-1.4,0.2-2.8,0.5-3.9C302.6,379.9,302.9,379.2,302.9,379.2
			z"/>
	</g>
	<g opacity="0.1">
		<path fill="#FFFFFF" d="M207.5,392.8c0,0,0.2,0.7,0.3,1.8c0.1,1.1,0.2,2.5,0.2,3.8c0,1.4-0.1,2.8-0.3,3.8
			c-0.2,1.1-0.4,1.8-0.4,1.8s-0.3-0.7-0.5-1.7c-0.2-1.1-0.4-2.5-0.3-3.9c0-1.4,0.2-2.8,0.5-3.9C207.2,393.5,207.5,392.8,207.5,392.8
			z"/>
	</g>
	<g opacity="0.1">
		<path fill="#FFFFFF" d="M217,380.2c0,0,0.2,0.7,0.3,1.8c0.1,1.1,0.2,2.5,0.2,3.8c0,1.4-0.1,2.8-0.3,3.8c-0.2,1.1-0.4,1.8-0.4,1.8
			s-0.3-0.7-0.5-1.7c-0.2-1.1-0.4-2.5-0.3-3.9c0-1.4,0.2-2.8,0.5-3.9C216.7,380.9,217,380.2,217,380.2z"/>
	</g>
	<g opacity="0.1">
		<path fill="#FFFFFF" d="M249.7,380.6c0,0,0.2,0.7,0.3,1.8c0.1,1.1,0.2,2.5,0.2,3.8c0,1.4-0.1,2.8-0.3,3.8
			c-0.2,1.1-0.4,1.8-0.4,1.8s-0.3-0.7-0.5-1.7c-0.2-1.1-0.4-2.5-0.3-3.9c0-1.4,0.2-2.8,0.5-3.9C249.4,381.2,249.7,380.6,249.7,380.6
			z"/>
	</g>
	<g opacity="0.1">
		<path fill="#FFFFFF" d="M258.9,385.2c0,0,0.2,0.7,0.3,1.8c0.1,1.1,0.2,2.5,0.2,3.8c0,1.4-0.1,2.8-0.3,3.8
			c-0.2,1.1-0.4,1.8-0.4,1.8s-0.3-0.7-0.5-1.7c-0.2-1.1-0.4-2.5-0.3-3.9c0-1.4,0.2-2.8,0.5-3.9C258.6,385.9,258.9,385.2,258.9,385.2
			z"/>
	</g>
	<g opacity="0.1">
		<path fill="#FFFFFF" d="M267.5,378.7c0,0,0.2,0.7,0.3,1.8c0.1,1.1,0.2,2.5,0.2,3.8c0,1.4-0.1,2.8-0.3,3.8
			c-0.2,1.1-0.4,1.8-0.4,1.8s-0.3-0.7-0.5-1.7c-0.2-1.1-0.4-2.5-0.3-3.9c0-1.4,0.2-2.8,0.5-3.9C267.2,379.4,267.5,378.7,267.5,378.7
			z"/>
	</g>
	<g opacity="0.1">
		<path fill="#FFFFFF" d="M271.4,393c0,0,0.2,0.7,0.3,1.8c0.1,1.1,0.2,2.5,0.2,3.8c0,1.4-0.1,2.8-0.3,3.8c-0.2,1.1-0.4,1.8-0.4,1.8
			s-0.3-0.7-0.5-1.7c-0.2-1.1-0.4-2.5-0.3-3.9c0-1.4,0.2-2.8,0.5-3.9C271.1,393.6,271.4,393,271.4,393z"/>
	</g>
	<g opacity="0.1">
		<path fill="#FFFFFF" d="M280.8,379.5c0,0,0.2,0.7,0.3,1.8c0.1,1.1,0.2,2.5,0.2,3.8c0,1.4-0.1,2.8-0.3,3.8
			c-0.2,1.1-0.4,1.8-0.4,1.8s-0.3-0.7-0.5-1.7c-0.2-1.1-0.4-2.5-0.3-3.9c0-1.4,0.2-2.8,0.5-3.9C280.5,380.2,280.8,379.5,280.8,379.5
			z"/>
	</g>
	<g opacity="0.1">
		<path fill="#FFFFFF" d="M230.2,382.2c0,0,0.2,0.7,0.3,1.8s0.2,2.5,0.2,3.8c0,1.4-0.1,2.8-0.3,3.8c-0.2,1.1-0.4,1.8-0.4,1.8
			s-0.3-0.7-0.5-1.7c-0.2-1.1-0.4-2.5-0.3-3.9c0-1.4,0.2-2.8,0.5-3.9C229.9,382.9,230.2,382.2,230.2,382.2z"/>
	</g>
	<g opacity="0.1">
		<path fill="#FFFFFF" d="M239.1,389c0,0,0.2,0.7,0.3,1.8c0.1,1.1,0.2,2.5,0.2,3.8c0,1.4-0.1,2.8-0.3,3.8c-0.2,1.1-0.4,1.8-0.4,1.8
			s-0.3-0.7-0.5-1.7c-0.2-1.1-0.4-2.5-0.3-3.9c0-1.4,0.2-2.8,0.5-3.9C238.8,389.6,239.1,389,239.1,389z"/>
	</g>
	<g opacity="0.1">
		<path fill="#FFFFFF" d="M220.3,393c0,0,0.2,0.7,0.3,1.8c0.1,1.1,0.2,2.5,0.2,3.8c0,1.4-0.1,2.8-0.3,3.8c-0.2,1.1-0.4,1.8-0.4,1.8
			s-0.3-0.7-0.5-1.7c-0.2-1.1-0.4-2.5-0.3-3.9c0-1.4,0.2-2.8,0.5-3.9C220,393.6,220.3,393,220.3,393z"/>
	</g>
	<g opacity="0.1">
		<path fill="#FFFFFF" d="M246.2,398.3c0,0,0.2,0.7,0.3,1.8s0.2,2.5,0.2,3.8c0,1.4-0.1,2.8-0.3,3.8c-0.2,1.1-0.4,1.8-0.4,1.8
			s-0.3-0.7-0.5-1.7c-0.2-1.1-0.4-2.5-0.3-3.9c0-1.4,0.2-2.8,0.5-3.9C245.9,399,246.2,398.3,246.2,398.3z"/>
	</g>
	<g opacity="0.1">
		<path fill="#FFFFFF" d="M280.9,398.6c0,0,0.2,0.7,0.3,1.8c0.1,1.1,0.2,2.5,0.2,3.8c0,1.4-0.1,2.8-0.3,3.8
			c-0.2,1.1-0.4,1.8-0.4,1.8s-0.3-0.7-0.5-1.7c-0.2-1.1-0.4-2.5-0.3-3.9c0-1.4,0.2-2.8,0.5-3.9C280.6,399.2,280.9,398.6,280.9,398.6
			z"/>
	</g>
	<g opacity="0.1">
		<path fill="#FFFFFF" d="M180.4,404.8c0,0,0.2,0.7,0.3,1.8c0.1,1.1,0.2,2.5,0.2,3.8c0,1.4-0.1,2.8-0.3,3.8
			c-0.2,1.1-0.4,1.8-0.4,1.8s-0.3-0.7-0.5-1.7c-0.2-1.1-0.4-2.5-0.3-3.9c0-1.4,0.2-2.8,0.5-3.9C180.1,405.4,180.4,404.8,180.4,404.8
			z"/>
	</g>
	<g opacity="0.1">
		<path fill="#FFFFFF" d="M187.6,418.8c0,0,0.2,0.7,0.3,1.8c0.1,1.1,0.2,2.5,0.2,3.8c0,1.4-0.1,2.8-0.3,3.8
			c-0.2,1.1-0.4,1.8-0.4,1.8s-0.3-0.7-0.5-1.7c-0.2-1.1-0.4-2.5-0.3-3.9c0-1.4,0.2-2.8,0.5-3.9C187.2,419.4,187.6,418.8,187.6,418.8
			z"/>
	</g>
	<g opacity="0.1">
		<path fill="#FFFFFF" d="M197.1,406.2c0,0,0.2,0.7,0.3,1.8c0.1,1.1,0.2,2.5,0.2,3.8c0,1.4-0.1,2.8-0.3,3.8
			c-0.2,1.1-0.4,1.8-0.4,1.8s-0.3-0.7-0.5-1.7c-0.2-1.1-0.4-2.5-0.3-3.9c0-1.4,0.2-2.8,0.5-3.9C196.8,406.9,197.1,406.2,197.1,406.2
			z"/>
	</g>
	<g opacity="0.1">
		<path fill="#FFFFFF" d="M200.9,422.3c0,0,0.2,0.7,0.3,1.8c0.1,1.1,0.2,2.5,0.2,3.8c0,1.4-0.1,2.8-0.3,3.8
			c-0.2,1.1-0.4,1.8-0.4,1.8s-0.3-0.7-0.5-1.7c-0.2-1.1-0.4-2.5-0.3-3.9c0-1.4,0.2-2.8,0.5-3.9C200.6,423,200.9,422.3,200.9,422.3z"
			/>
	</g>
	<g opacity="0.1">
		<path fill="#FFFFFF" d="M210.4,409.7c0,0,0.2,0.7,0.3,1.8c0.1,1.1,0.2,2.5,0.2,3.8c0,1.4-0.1,2.8-0.3,3.8
			c-0.2,1.1-0.4,1.8-0.4,1.8s-0.3-0.7-0.5-1.7c-0.2-1.1-0.4-2.5-0.3-3.9c0-1.4,0.2-2.8,0.5-3.9C210.1,410.4,210.4,409.7,210.4,409.7
			z"/>
	</g>
	<g opacity="0.1">
		<path fill="#FFFFFF" d="M225.7,409.7c0,0,0.2,0.7,0.3,1.8c0.1,1.1,0.2,2.5,0.2,3.8c0,1.4-0.1,2.8-0.3,3.8
			c-0.2,1.1-0.4,1.8-0.4,1.8s-0.3-0.7-0.5-1.7c-0.2-1.1-0.4-2.5-0.3-3.9c0-1.4,0.2-2.8,0.5-3.9C225.4,410.4,225.7,409.7,225.7,409.7
			z"/>
	</g>
	<g opacity="0.1">
		<path fill="#FFFFFF" d="M213.7,422.5c0,0,0.2,0.7,0.3,1.8s0.2,2.5,0.2,3.8c0,1.4-0.1,2.8-0.3,3.8c-0.2,1.1-0.4,1.8-0.4,1.8
			s-0.3-0.7-0.5-1.7c-0.2-1.1-0.4-2.5-0.3-3.9c0-1.4,0.2-2.8,0.5-3.9C213.4,423.1,213.7,422.5,213.7,422.5z"/>
	</g>
	<g opacity="0.1">
		<path fill="#FFFFFF" d="M172.4,413.2c0,0,0.2,0.7,0.3,1.8c0.1,1.1,0.2,2.5,0.2,3.8c0,1.4-0.1,2.8-0.3,3.8
			c-0.2,1.1-0.4,1.8-0.4,1.8s-0.3-0.7-0.5-1.7c-0.2-1.1-0.4-2.5-0.3-3.9c0-1.4,0.2-2.8,0.5-3.9C172.1,413.8,172.4,413.2,172.4,413.2
			z"/>
	</g>
	<g opacity="0.1">
		<path fill="#FFFFFF" d="M192,430c0,0,0.2,0.7,0.3,1.8c0.1,1.1,0.2,2.5,0.2,3.8c0,1.4-0.1,2.8-0.3,3.8c-0.2,1.1-0.4,1.8-0.4,1.8
			s-0.3-0.7-0.5-1.7c-0.2-1.1-0.4-2.5-0.3-3.9c0-1.4,0.2-2.8,0.5-3.9C191.7,430.7,192,430,192,430z"/>
	</g>
	<g opacity="0.1">
		<path fill="#FFFFFF" d="M199.1,444c0,0,0.2,0.7,0.3,1.8c0.1,1.1,0.2,2.5,0.2,3.8c0,1.4-0.1,2.8-0.3,3.8c-0.2,1.1-0.4,1.8-0.4,1.8
			s-0.3-0.7-0.5-1.7c-0.2-1.1-0.4-2.5-0.3-3.9c0-1.4,0.2-2.8,0.5-3.9C198.8,444.6,199.1,444,199.1,444z"/>
	</g>
	<g opacity="0.1">
		<path fill="#FFFFFF" d="M208.7,431.4c0,0,0.2,0.7,0.3,1.8c0.1,1.1,0.2,2.5,0.2,3.8c0,1.4-0.1,2.8-0.3,3.8
			c-0.2,1.1-0.4,1.8-0.4,1.8s-0.3-0.7-0.5-1.7c-0.2-1.1-0.4-2.5-0.3-3.9c0-1.4,0.2-2.8,0.5-3.9C208.4,432.1,208.7,431.4,208.7,431.4
			z"/>
	</g>
	<g opacity="0.1">
		<path fill="#FFFFFF" d="M212.5,447.5c0,0,0.2,0.7,0.3,1.8c0.1,1.1,0.2,2.5,0.2,3.8c0,1.4-0.1,2.8-0.3,3.8
			c-0.2,1.1-0.4,1.8-0.4,1.8s-0.3-0.7-0.5-1.7c-0.2-1.1-0.4-2.5-0.3-3.9c0-1.4,0.2-2.8,0.5-3.9C212.2,448.2,212.5,447.5,212.5,447.5
			z"/>
	</g>
	<g opacity="0.1">
		<path fill="#FFFFFF" d="M184,438.4c0,0,0.2,0.7,0.3,1.8c0.1,1.1,0.2,2.5,0.2,3.8c0,1.4-0.1,2.8-0.3,3.8c-0.2,1.1-0.4,1.8-0.4,1.8
			s-0.3-0.7-0.5-1.7c-0.2-1.1-0.4-2.5-0.3-3.9c0-1.4,0.2-2.8,0.5-3.9C183.7,439,184,438.4,184,438.4z"/>
	</g>
	<g opacity="0.1">
		<path fill="#FFFFFF" d="M175.8,427.2c0,0,0.2,0.7,0.3,1.8c0.1,1.1,0.2,2.5,0.2,3.8c0,1.4-0.1,2.8-0.3,3.8
			c-0.2,1.1-0.4,1.8-0.4,1.8s-0.3-0.7-0.5-1.7c-0.2-1.1-0.4-2.5-0.3-3.9c0-1.4,0.2-2.8,0.5-3.9C175.5,427.8,175.8,427.2,175.8,427.2
			z"/>
	</g>
	<g opacity="0.1">
		<path fill="#FFFFFF" d="M170.8,441.9c0,0,0.2,0.7,0.3,1.8c0.1,1.1,0.2,2.5,0.2,3.8c0,1.4-0.1,2.8-0.3,3.8
			c-0.2,1.1-0.4,1.8-0.4,1.8s-0.3-0.7-0.5-1.7c-0.2-1.1-0.4-2.5-0.3-3.9c0-1.4,0.2-2.8,0.5-3.9C170.5,442.6,170.8,441.9,170.8,441.9
			z"/>
	</g>
	<g opacity="0.1">
		<path fill="#FFFFFF" d="M294.8,424.3c0,0,0.2,0.7,0.3,1.8c0.1,1.1,0.2,2.5,0.2,3.8c0,1.4-0.1,2.8-0.3,3.8
			c-0.2,1.1-0.4,1.8-0.4,1.8s-0.3-0.7-0.5-1.7c-0.2-1.1-0.4-2.5-0.3-3.9c0-1.4,0.2-2.8,0.5-3.9C294.5,424.9,294.8,424.3,294.8,424.3
			z"/>
	</g>
	<g opacity="0.1">
		<path fill="#FFFFFF" d="M308.1,427.8c0,0,0.2,0.7,0.3,1.8c0.1,1.1,0.2,2.5,0.2,3.8c0,1.4-0.1,2.8-0.3,3.8
			c-0.2,1.1-0.4,1.8-0.4,1.8s-0.3-0.7-0.5-1.7c-0.2-1.1-0.4-2.5-0.3-3.9c0-1.4,0.2-2.8,0.5-3.9C307.8,428.5,308.1,427.8,308.1,427.8
			z"/>
	</g>
	<g opacity="0.1">
		<path fill="#FFFFFF" d="M317.6,415.2c0,0,0.2,0.7,0.3,1.8c0.1,1.1,0.2,2.5,0.2,3.8c0,1.4-0.1,2.8-0.3,3.8
			c-0.2,1.1-0.4,1.8-0.4,1.8s-0.3-0.7-0.5-1.7c-0.2-1.1-0.4-2.5-0.3-3.9c0-1.4,0.2-2.8,0.5-3.9C317.3,415.9,317.6,415.2,317.6,415.2
			z"/>
	</g>
	<g opacity="0.1">
		<path fill="#FFFFFF" d="M320.9,428c0,0,0.2,0.7,0.3,1.8c0.1,1.1,0.2,2.5,0.2,3.8c0,1.4-0.1,2.8-0.3,3.8c-0.2,1.1-0.4,1.8-0.4,1.8
			s-0.3-0.7-0.5-1.7c-0.2-1.1-0.4-2.5-0.3-3.9c0-1.4,0.2-2.8,0.5-3.9C320.6,428.6,320.9,428,320.9,428z"/>
	</g>
	<g opacity="0.1">
		<path fill="#FFFFFF" d="M279.7,418.7c0,0,0.2,0.7,0.3,1.8c0.1,1.1,0.2,2.5,0.2,3.8c0,1.4-0.1,2.8-0.3,3.8
			c-0.2,1.1-0.4,1.8-0.4,1.8s-0.3-0.7-0.5-1.7c-0.2-1.1-0.4-2.5-0.3-3.9c0-1.4,0.2-2.8,0.5-3.9C279.4,419.3,279.7,418.7,279.7,418.7
			z"/>
	</g>
	<g opacity="0.1">
		<path fill="#FFFFFF" d="M299.3,435.5c0,0,0.2,0.7,0.3,1.8c0.1,1.1,0.2,2.5,0.2,3.8c0,1.4-0.1,2.8-0.3,3.8
			c-0.2,1.1-0.4,1.8-0.4,1.8s-0.3-0.7-0.5-1.7c-0.2-1.1-0.4-2.5-0.3-3.9c0-1.4,0.2-2.8,0.5-3.9C299,436.1,299.3,435.5,299.3,435.5z"
			/>
	</g>
	<g opacity="0.1">
		<path fill="#FFFFFF" d="M306.4,449.5c0,0,0.2,0.7,0.3,1.8c0.1,1.1,0.2,2.5,0.2,3.8c0,1.4-0.1,2.8-0.3,3.8
			c-0.2,1.1-0.4,1.8-0.4,1.8s-0.3-0.7-0.5-1.7c-0.2-1.1-0.4-2.5-0.3-3.9c0-1.4,0.2-2.8,0.5-3.9C306.1,450.1,306.4,449.5,306.4,449.5
			z"/>
	</g>
	<g opacity="0.1">
		<path fill="#FFFFFF" d="M315.8,440.2c0,0,0.2,0.7,0.3,1.8c0.1,1.1,0.2,2.5,0.2,3.8c0,1.4-0.1,2.8-0.3,3.8
			c-0.2,1.1-0.4,1.8-0.4,1.8s-0.3-0.7-0.5-1.7c-0.2-1.1-0.4-2.5-0.3-3.9c0-1.4,0.2-2.8,0.5-3.9C315.5,440.9,315.8,440.2,315.8,440.2
			z"/>
	</g>
	<g opacity="0.1">
		<path fill="#FFFFFF" d="M321.1,453c0,0,0.2,0.7,0.3,1.8c0.1,1.1,0.2,2.5,0.2,3.8c0,1.4-0.1,2.8-0.3,3.8c-0.2,1.1-0.4,1.8-0.4,1.8
			s-0.3-0.7-0.5-1.7c-0.2-1.1-0.4-2.5-0.3-3.9c0-1.4,0.2-2.8,0.5-3.9C320.7,453.7,321.1,453,321.1,453z"/>
	</g>
	<g opacity="0.1">
		<path fill="#FFFFFF" d="M291.3,443.9c0,0,0.2,0.7,0.3,1.8c0.1,1.1,0.2,2.5,0.2,3.8c0,1.4-0.1,2.8-0.3,3.8
			c-0.2,1.1-0.4,1.8-0.4,1.8s-0.3-0.7-0.5-1.7c-0.2-1.1-0.4-2.5-0.3-3.9c0-1.4,0.2-2.8,0.5-3.9C291,444.5,291.3,443.9,291.3,443.9z"
			/>
	</g>
	<g opacity="0.1">
		<path fill="#FFFFFF" d="M283.1,432.7c0,0,0.2,0.7,0.3,1.8c0.1,1.1,0.2,2.5,0.2,3.8c0,1.4-0.1,2.8-0.3,3.8
			c-0.2,1.1-0.4,1.8-0.4,1.8s-0.3-0.7-0.5-1.7c-0.2-1.1-0.4-2.5-0.3-3.9c0-1.4,0.2-2.8,0.5-3.9C282.8,433.3,283.1,432.7,283.1,432.7
			z"/>
	</g>
	<g opacity="0.1">
		<path fill="#FFFFFF" d="M278,447.4c0,0,0.2,0.7,0.3,1.8c0.1,1.1,0.2,2.5,0.2,3.8c0,1.4-0.1,2.8-0.3,3.8c-0.2,1.1-0.4,1.8-0.4,1.8
			s-0.3-0.7-0.5-1.7c-0.2-1.1-0.4-2.5-0.3-3.9c0-1.4,0.2-2.8,0.5-3.9C277.7,448.1,278,447.4,278,447.4z"/>
	</g>
	<g opacity="0.1">
		<path fill="#FFFFFF" d="M301.8,413.7c0,0,0.2,0.7,0.3,1.8c0.1,1.1,0.2,2.5,0.2,3.8c0,1.4-0.1,2.8-0.3,3.8
			c-0.2,1.1-0.4,1.8-0.4,1.8s-0.3-0.7-0.5-1.7c-0.2-1.1-0.4-2.5-0.3-3.9c0-1.4,0.2-2.8,0.5-3.9C301.5,414.4,301.8,413.7,301.8,413.7
			z"/>
	</g>
	<g opacity="0.1">
		<path fill="#FFFFFF" d="M290.4,408.1c0,0,0.2,0.7,0.3,1.8c0.1,1.1,0.2,2.5,0.2,3.8c0,1.4-0.1,2.8-0.3,3.8
			c-0.2,1.1-0.4,1.8-0.4,1.8s-0.3-0.7-0.5-1.7c-0.2-1.1-0.4-2.5-0.3-3.9c0-1.4,0.2-2.8,0.5-3.9C290.1,408.8,290.4,408.1,290.4,408.1
			z"/>
	</g>
	<g opacity="0.1">
		<path fill="#FFFFFF" d="M308,403.9c0,0,0.2,0.7,0.3,1.8c0.1,1.1,0.2,2.5,0.2,3.8c0,1.4-0.1,2.8-0.3,3.8c-0.2,1.1-0.4,1.8-0.4,1.8
			s-0.3-0.7-0.5-1.7c-0.2-1.1-0.4-2.5-0.3-3.9c0-1.4,0.2-2.8,0.5-3.9C307.7,404.6,308,403.9,308,403.9z"/>
	</g>
	<g opacity="0.1">
		<path fill="#FFFFFF" d="M263.1,399.7c0,0,0.2,0.7,0.3,1.8c0.1,1.1,0.2,2.5,0.2,3.8c0,1.4-0.1,2.8-0.3,3.8
			c-0.2,1.1-0.4,1.8-0.4,1.8s-0.3-0.7-0.5-1.7c-0.2-1.1-0.4-2.5-0.3-3.9c0-1.4,0.2-2.8,0.5-3.9C262.8,400.3,263.1,399.7,263.1,399.7
			z"/>
	</g>
	<g opacity="0.1">
		<path fill="#FFFFFF" d="M255.5,408.1c0,0,0.2,0.7,0.3,1.8c0.1,1.1,0.2,2.5,0.2,3.8c0,1.4-0.1,2.8-0.3,3.8
			c-0.2,1.1-0.4,1.8-0.4,1.8s-0.3-0.7-0.5-1.7c-0.2-1.1-0.4-2.5-0.3-3.9c0-1.4,0.2-2.8,0.5-3.9C255.2,408.8,255.5,408.1,255.5,408.1
			z"/>
	</g>
	<g opacity="0.1">
		<path fill="#FFFFFF" d="M271.6,409.7c0,0,0.2,0.7,0.3,1.8c0.1,1.1,0.2,2.5,0.2,3.8c0,1.4-0.1,2.8-0.3,3.8
			c-0.2,1.1-0.4,1.8-0.4,1.8s-0.3-0.7-0.5-1.7c-0.2-1.1-0.4-2.5-0.3-3.9c0-1.4,0.2-2.8,0.5-3.9C271.3,410.4,271.6,409.7,271.6,409.7
			z"/>
	</g>
	<g opacity="0.1">
		<path fill="#FFFFFF" d="M237.8,410.4c0,0,0.2,0.7,0.3,1.8c0.1,1.1,0.2,2.5,0.2,3.8c0,1.4-0.1,2.8-0.3,3.8
			c-0.2,1.1-0.4,1.8-0.4,1.8s-0.3-0.7-0.5-1.7c-0.2-1.1-0.4-2.5-0.3-3.9c0-1.4,0.2-2.8,0.5-3.9C237.5,411,237.8,410.4,237.8,410.4z"
			/>
	</g>
	<g opacity="0.1">
		<path fill="#FFFFFF" d="M230.3,398.3c0,0,0.2,0.7,0.3,1.8s0.2,2.5,0.2,3.8c0,1.4-0.1,2.8-0.3,3.8c-0.2,1.1-0.4,1.8-0.4,1.8
			s-0.3-0.7-0.5-1.7c-0.2-1.1-0.4-2.5-0.3-3.9c0-1.4,0.2-2.8,0.5-3.9C230,399,230.3,398.3,230.3,398.3z"/>
	</g>
	<g opacity="0.1">
		<path fill="#FFFFFF" d="M189.6,455.7c0,0,0.2,0.7,0.3,1.8c0.1,1.1,0.2,2.5,0.2,3.8c0,1.4-0.1,2.8-0.3,3.8
			c-0.2,1.1-0.4,1.8-0.4,1.8s-0.3-0.7-0.5-1.7c-0.2-1.1-0.4-2.5-0.3-3.9c0-1.4,0.2-2.8,0.5-3.9C189.3,456.4,189.6,455.7,189.6,455.7
			z"/>
	</g>
	<g opacity="0.1">
		<path fill="#FFFFFF" d="M203,459.2c0,0,0.2,0.7,0.3,1.8c0.1,1.1,0.2,2.5,0.2,3.8c0,1.4-0.1,2.8-0.3,3.8c-0.2,1.1-0.4,1.8-0.4,1.8
			s-0.3-0.7-0.5-1.7c-0.2-1.1-0.4-2.5-0.3-3.9c0-1.4,0.2-2.8,0.5-3.9C202.7,459.9,203,459.2,203,459.2z"/>
	</g>
	<g opacity="0.1">
		<path fill="#FFFFFF" d="M212.5,446.7c0,0,0.2,0.7,0.3,1.8s0.2,2.5,0.2,3.8c0,1.4-0.1,2.8-0.3,3.8c-0.2,1.1-0.4,1.8-0.4,1.8
			s-0.3-0.7-0.5-1.7c-0.2-1.1-0.4-2.5-0.3-3.9c0-1.4,0.2-2.8,0.5-3.9C212.2,447.4,212.5,446.7,212.5,446.7z"/>
	</g>
	<g opacity="0.1">
		<path fill="#FFFFFF" d="M215.8,459.4c0,0,0.2,0.7,0.3,1.8c0.1,1.1,0.2,2.5,0.2,3.8c0,1.4-0.1,2.8-0.3,3.8
			c-0.2,1.1-0.4,1.8-0.4,1.8s-0.3-0.7-0.5-1.7c-0.2-1.1-0.4-2.5-0.3-3.9c0-1.4,0.2-2.8,0.5-3.9C215.5,460.1,215.8,459.4,215.8,459.4
			z"/>
	</g>
	<g opacity="0.1">
		<path fill="#FFFFFF" d="M174.5,450.1c0,0,0.2,0.7,0.3,1.8c0.1,1.1,0.2,2.5,0.2,3.8c0,1.4-0.1,2.8-0.3,3.8
			c-0.2,1.1-0.4,1.8-0.4,1.8s-0.3-0.7-0.5-1.7c-0.2-1.1-0.4-2.5-0.3-3.9c0-1.4,0.2-2.8,0.5-3.9C174.2,450.8,174.5,450.1,174.5,450.1
			z"/>
	</g>
	<g opacity="0.1">
		<path fill="#FFFFFF" d="M194.1,466.9c0,0,0.2,0.7,0.3,1.8c0.1,1.1,0.2,2.5,0.2,3.8c0,1.4-0.1,2.8-0.3,3.8
			c-0.2,1.1-0.4,1.8-0.4,1.8s-0.3-0.7-0.5-1.7c-0.2-1.1-0.4-2.5-0.3-3.9c0-1.4,0.2-2.8,0.5-3.9C193.8,467.6,194.1,466.9,194.1,466.9
			z"/>
	</g>
	<g opacity="0.1">
		<path fill="#FFFFFF" d="M177.9,464.1c0,0,0.2,0.7,0.3,1.8c0.1,1.1,0.2,2.5,0.2,3.8c0,1.4-0.1,2.8-0.3,3.8
			c-0.2,1.1-0.4,1.8-0.4,1.8s-0.3-0.7-0.5-1.7c-0.2-1.1-0.4-2.5-0.3-3.9c0-1.4,0.2-2.8,0.5-3.9C177.6,464.8,177.9,464.1,177.9,464.1
			z"/>
	</g>
	<g opacity="0.1">
		<path fill="#FFFFFF" d="M299.5,455.4c0,0,0.2,0.7,0.3,1.8c0.1,1.1,0.2,2.5,0.2,3.8c0,1.4-0.1,2.8-0.3,3.8
			c-0.2,1.1-0.4,1.8-0.4,1.8s-0.3-0.7-0.5-1.7c-0.2-1.1-0.4-2.5-0.3-3.9c0-1.4,0.2-2.8,0.5-3.9C299.2,456.1,299.5,455.4,299.5,455.4
			z"/>
	</g>
	<g opacity="0.1">
		<path fill="#FFFFFF" d="M312.3,464.1c0,0,0.2,0.7,0.3,1.8c0.1,1.1,0.2,2.5,0.2,3.8c0,1.4-0.1,2.8-0.3,3.8
			c-0.2,1.1-0.4,1.8-0.4,1.8s-0.3-0.7-0.5-1.7c-0.2-1.1-0.4-2.5-0.3-3.9c0-1.4,0.2-2.8,0.5-3.9C312,464.8,312.3,464.1,312.3,464.1z"
			/>
	</g>
	<g opacity="0.1">
		<path fill="#FFFFFF" d="M290.7,463.1c0,0,0.2,0.7,0.3,1.8c0.1,1.1,0.2,2.5,0.2,3.8c0,1.4-0.1,2.8-0.3,3.8
			c-0.2,1.1-0.4,1.8-0.4,1.8s-0.3-0.7-0.5-1.7c-0.2-1.1-0.4-2.5-0.3-3.9c0-1.4,0.2-2.8,0.5-3.9C290.4,463.7,290.7,463.1,290.7,463.1
			z"/>
	</g>
	<g opacity="0.1">
		<path fill="#FFFFFF" d="M274.5,460.2c0,0,0.2,0.7,0.3,1.8c0.1,1.1,0.2,2.5,0.2,3.8c0,1.4-0.1,2.8-0.3,3.8
			c-0.2,1.1-0.4,1.8-0.4,1.8s-0.3-0.7-0.5-1.7c-0.2-1.1-0.4-2.5-0.3-3.9c0-1.4,0.2-2.8,0.5-3.9C274.2,460.9,274.5,460.2,274.5,460.2
			z"/>
	</g>
	<g opacity="0.1">
		<path fill="#FFFFFF" d="M225,101.4c0,0,0.2,0.7,0.3,1.8c0.1,1.1,0.2,2.5,0.2,3.8c0,1.4-0.1,2.8-0.3,3.8c-0.2,1.1-0.4,1.8-0.4,1.8
			s-0.3-0.7-0.5-1.7c-0.2-1.1-0.4-2.5-0.3-3.9c0-1.4,0.2-2.8,0.5-3.9C224.7,102,225,101.4,225,101.4z"/>
	</g>
	<g opacity="0.1">
		<path fill="#FFFFFF" d="M267,109.8c0,0,0.2,0.7,0.3,1.8c0.1,1.1,0.2,2.5,0.2,3.8c0,1.4-0.1,2.8-0.3,3.8c-0.2,1.1-0.4,1.8-0.4,1.8
			s-0.3-0.7-0.5-1.7c-0.2-1.1-0.4-2.5-0.3-3.9c0-1.4,0.2-2.8,0.5-3.9C266.7,110.4,267,109.8,267,109.8z"/>
	</g>
	<g opacity="0.1">
		<path fill="#FFFFFF" d="M243.6,114.6c0,0,0.2,0.7,0.3,1.8c0.1,1.1,0.2,2.5,0.2,3.8c0,1.4-0.1,2.8-0.3,3.8
			c-0.2,1.1-0.4,1.8-0.4,1.8s-0.3-0.7-0.5-1.7c-0.2-1.1-0.4-2.5-0.3-3.9c0-1.4,0.2-2.8,0.5-3.9C243.3,115.3,243.6,114.6,243.6,114.6
			z"/>
	</g>
	<g opacity="0.1">
		<path fill="#FFFFFF" d="M256.5,115.4c0,0,0.2,0.7,0.3,1.8s0.2,2.5,0.2,3.8c0,1.4-0.1,2.8-0.3,3.8c-0.2,1.1-0.4,1.8-0.4,1.8
			s-0.3-0.7-0.5-1.7c-0.2-1.1-0.4-2.5-0.3-3.9c0-1.4,0.2-2.8,0.5-3.9C256.2,116.1,256.5,115.4,256.5,115.4z"/>
	</g>
	<g opacity="0.1">
		<path fill="#FFFFFF" d="M233.2,122.2c0,0,0.2,0.7,0.3,1.8c0.1,1.1,0.2,2.5,0.2,3.8c0,1.4-0.1,2.8-0.3,3.8
			c-0.2,1.1-0.4,1.8-0.4,1.8s-0.3-0.7-0.5-1.7c-0.2-1.1-0.4-2.5-0.3-3.9c0-1.4,0.2-2.8,0.5-3.9C232.9,122.9,233.2,122.2,233.2,122.2
			z"/>
	</g>
	<g opacity="0.1">
		<path fill="#FFFFFF" d="M276.4,126.2c0,0,0.2,0.7,0.3,1.8c0.1,1.1,0.2,2.5,0.2,3.8c0,1.4-0.1,2.8-0.3,3.8
			c-0.2,1.1-0.4,1.8-0.4,1.8s-0.3-0.7-0.5-1.7c-0.2-1.1-0.4-2.5-0.3-3.9c0-1.4,0.2-2.8,0.5-3.9C276.1,126.9,276.4,126.2,276.4,126.2
			z"/>
	</g>
	<g opacity="0.1">
		<path fill="#FFFFFF" d="M270.2,143.2c0,0,0.2,0.7,0.3,1.8s0.2,2.5,0.2,3.8c0,1.4-0.1,2.8-0.3,3.8c-0.2,1.1-0.4,1.8-0.4,1.8
			s-0.3-0.7-0.5-1.7c-0.2-1.1-0.4-2.5-0.3-3.9c0-1.4,0.2-2.8,0.5-3.9C269.9,143.9,270.2,143.2,270.2,143.2z"/>
	</g>
	<g opacity="0.1">
		<path fill="#FFFFFF" d="M247.6,127.5c0,0,0.2,0.7,0.3,1.8s0.2,2.5,0.2,3.8c0,1.4-0.1,2.8-0.3,3.8c-0.2,1.1-0.4,1.8-0.4,1.8
			s-0.3-0.7-0.5-1.7c-0.2-1.1-0.4-2.5-0.3-3.9c0-1.4,0.2-2.8,0.5-3.9C247.3,128.2,247.6,127.5,247.6,127.5z"/>
	</g>
	<g opacity="0.1">
		<path fill="#FFFFFF" d="M261,133.1c0,0,0.2,0.7,0.3,1.8c0.1,1.1,0.2,2.5,0.2,3.8c0,1.4-0.1,2.8-0.3,3.8c-0.2,1.1-0.4,1.8-0.4,1.8
			s-0.3-0.7-0.5-1.7c-0.2-1.1-0.4-2.5-0.3-3.9c0-1.4,0.2-2.8,0.5-3.9C260.7,133.8,261,133.1,261,133.1z"/>
	</g>
	<g opacity="0.1">
		<path fill="#FFFFFF" d="M239.4,134.1c0,0,0.2,0.7,0.3,1.8s0.2,2.5,0.2,3.8c0,1.4-0.1,2.8-0.3,3.8c-0.2,1.1-0.4,1.8-0.4,1.8
			s-0.3-0.7-0.5-1.7c-0.2-1.1-0.4-2.5-0.3-3.9c0-1.4,0.2-2.8,0.5-3.9C239.1,134.8,239.4,134.1,239.4,134.1z"/>
	</g>
	<g opacity="0.1">
		<path fill="#FFFFFF" d="M253.4,136.3c0,0,0.2,0.7,0.3,1.8s0.2,2.5,0.2,3.8c0,1.4-0.1,2.8-0.3,3.8c-0.2,1.1-0.4,1.8-0.4,1.8
			s-0.3-0.7-0.5-1.7c-0.2-1.1-0.4-2.5-0.3-3.9c0-1.4,0.2-2.8,0.5-3.9C253,137,253.4,136.3,253.4,136.3z"/>
	</g>
	<g opacity="0.1">
		<path fill="#FFFFFF" d="M292.5,107c0,0,0.2,0.7,0.3,1.8c0.1,1.1,0.2,2.5,0.2,3.8c0,1.4-0.1,2.8-0.3,3.8c-0.2,1.1-0.4,1.8-0.4,1.8
			s-0.3-0.7-0.5-1.7c-0.2-1.1-0.4-2.5-0.3-3.9c0-1.4,0.2-2.8,0.5-3.9C292.2,107.6,292.5,107,292.5,107z"/>
	</g>
	<g opacity="0.1">
		<path fill="#FFFFFF" d="M282,112.6c0,0,0.2,0.7,0.3,1.8c0.1,1.1,0.2,2.5,0.2,3.8c0,1.4-0.1,2.8-0.3,3.8c-0.2,1.1-0.4,1.8-0.4,1.8
			s-0.3-0.7-0.5-1.7c-0.2-1.1-0.4-2.5-0.3-3.9c0-1.4,0.2-2.8,0.5-3.9C281.7,113.3,282,112.6,282,112.6z"/>
	</g>
	<g opacity="0.1">
		<path fill="#FFFFFF" d="M301.2,101.4c0,0,0.2,0.7,0.3,1.8c0.1,1.1,0.2,2.5,0.2,3.8c0,1.4-0.1,2.8-0.3,3.8
			c-0.2,1.1-0.4,1.8-0.4,1.8s-0.3-0.7-0.5-1.7c-0.2-1.1-0.4-2.5-0.3-3.9c0-1.4,0.2-2.8,0.5-3.9C300.9,102,301.2,101.4,301.2,101.4z"
			/>
	</g>
	<g opacity="0.1">
		<path fill="#FFFFFF" d="M282.7,95.8c0,0,0.2,0.7,0.3,1.8s0.2,2.5,0.2,3.8c0,1.4-0.1,2.8-0.3,3.8c-0.2,1.1-0.4,1.8-0.4,1.8
			s-0.3-0.7-0.5-1.7c-0.2-1.1-0.4-2.5-0.3-3.9c0-1.4,0.2-2.8,0.5-3.9C282.4,96.4,282.7,95.8,282.7,95.8z"/>
	</g>
	<g opacity="0.1">
		<path fill="#FFFFFF" d="M273.4,101.4c0,0,0.2,0.7,0.3,1.8c0.1,1.1,0.2,2.5,0.2,3.8c0,1.4-0.1,2.8-0.3,3.8
			c-0.2,1.1-0.4,1.8-0.4,1.8s-0.3-0.7-0.5-1.7c-0.2-1.1-0.4-2.5-0.3-3.9c0-1.4,0.2-2.8,0.5-3.9C273.1,102,273.4,101.4,273.4,101.4z"
			/>
	</g>
	<g opacity="0.1">
		<path fill="#FFFFFF" d="M290.5,89.7c0,0,0.2,0.7,0.3,1.8c0.1,1.1,0.2,2.5,0.2,3.8c0,1.4-0.1,2.8-0.3,3.8c-0.2,1.1-0.4,1.8-0.4,1.8
			s-0.3-0.7-0.5-1.7c-0.2-1.1-0.4-2.5-0.3-3.9c0-1.4,0.2-2.8,0.5-3.9C290.2,90.4,290.5,89.7,290.5,89.7z"/>
	</g>
	<g opacity="0.1">
		<path fill="#FFFFFF" d="M301.4,119.6c0,0,0.4,0.6,0.9,1.6c0.5,1,1,2.2,1.5,3.6c0.5,1.3,0.8,2.7,1,3.7c0.2,1,0.2,1.8,0.2,1.8
			s-0.5-0.6-1-1.5c-0.6-0.9-1.2-2.2-1.6-3.5c-0.5-1.3-0.8-2.7-0.9-3.8C301.3,120.4,301.4,119.6,301.4,119.6z"/>
	</g>
	<g opacity="0.1">
		<path fill="#FFFFFF" d="M295.7,82.3c0,0,0.2,0.7,0.3,1.8s0.2,2.5,0.2,3.8c0,1.4-0.1,2.8-0.3,3.8c-0.2,1.1-0.4,1.8-0.4,1.8
			s-0.3-0.7-0.5-1.7c-0.2-1.1-0.4-2.5-0.3-3.9c0-1.4,0.2-2.8,0.5-3.9C295.4,82.9,295.7,82.3,295.7,82.3z"/>
	</g>
	<g opacity="0.1">
		<path fill="#FFFFFF" d="M296.5,58.1c0,0,0.4,0.7,0.7,1.7c0.4,1,0.8,2.3,1.1,3.7s0.5,2.7,0.6,3.8c0.1,1.1,0,1.8,0,1.8
			s-0.4-0.6-0.9-1.6c-0.5-1-0.9-2.3-1.2-3.7c-0.3-1.4-0.5-2.8-0.5-3.9C296.4,58.8,296.5,58.1,296.5,58.1z"/>
	</g>
	<g opacity="0.1">
		<path fill="#FFFFFF" d="M302,78.5c0,0,0.2,0.7,0.3,1.8c0.1,1.1,0.2,2.5,0.2,3.8c0,1.4-0.1,2.8-0.3,3.8c-0.2,1.1-0.4,1.8-0.4,1.8
			s-0.3-0.7-0.5-1.7c-0.2-1.1-0.4-2.5-0.3-3.9c0-1.4,0.2-2.8,0.5-3.9C301.7,79.2,302,78.5,302,78.5z"/>
	</g>
	<g opacity="0.1">
		<path fill="#FFFFFF" d="M284.1,78.5c0,0,0.2,0.7,0.3,1.8c0.1,1.1,0.2,2.5,0.2,3.8c0,1.4-0.1,2.8-0.3,3.8c-0.2,1.1-0.4,1.8-0.4,1.8
			s-0.3-0.7-0.5-1.7c-0.2-1.1-0.4-2.5-0.3-3.9c0-1.4,0.2-2.8,0.5-3.9C283.7,79.2,284.1,78.5,284.1,78.5z"/>
	</g>
	<g opacity="0.1">
		<path fill="#FFFFFF" d="M276.6,87.9c0,0,0.2,0.7,0.3,1.8c0.1,1.1,0.2,2.5,0.2,3.8c0,1.4-0.1,2.8-0.3,3.8c-0.2,1.1-0.4,1.8-0.4,1.8
			s-0.3-0.7-0.5-1.7c-0.2-1.1-0.4-2.5-0.3-3.9c0-1.4,0.2-2.8,0.5-3.9C276.3,88.5,276.6,87.9,276.6,87.9z"/>
	</g>
	<g opacity="0.1">
		<path fill="#FFFFFF" d="M291.3,69c0,0,0.2,0.7,0.3,1.8c0.1,1.1,0.2,2.5,0.2,3.8c0,1.4-0.1,2.8-0.3,3.8c-0.2,1.1-0.4,1.8-0.4,1.8
			s-0.3-0.7-0.5-1.7c-0.2-1.1-0.4-2.5-0.3-3.9c0-1.4,0.2-2.8,0.5-3.9C291,69.7,291.3,69,291.3,69z"/>
	</g>
	<g opacity="0.1">
		<path fill="#FFFFFF" d="M218.7,112.6c0,0-0.1,0.7-0.4,1.8c-0.3,1-0.7,2.4-1.3,3.6c-0.5,1.3-1.2,2.5-1.7,3.5c-0.5,0.9-1,1.5-1,1.5
			s0-0.7,0.2-1.8c0.2-1.1,0.6-2.4,1.1-3.7s1.3-2.5,1.9-3.4C218.1,113.1,218.7,112.6,218.7,112.6z"/>
	</g>
	<g opacity="0.1">
		<path fill="#FFFFFF" d="M227.1,116.9c0,0,0,0.7-0.1,1.8c-0.1,1.1-0.5,2.5-0.9,3.8c-0.5,1.3-1.1,2.6-1.7,3.5
			c-0.6,0.9-1.1,1.5-1.1,1.5s0-0.7,0.3-1.8c0.2-1,0.6-2.4,1.1-3.7s1-2.6,1.5-3.5C226.7,117.5,227.1,116.9,227.1,116.9z"/>
	</g>
	<g opacity="0.1">
		<path fill="#FFFFFF" d="M215.2,94.6c0,0,0.3,0.7,0.5,1.7c0.3,1,0.4,2.5,0.5,3.9c0,1.4-0.1,2.8-0.3,3.9c-0.2,1.1-0.5,1.7-0.5,1.7
			s-0.2-0.7-0.4-1.8c-0.2-1.1-0.3-2.4-0.3-3.8c0-1.4,0-2.8,0.2-3.8C215,95.3,215.2,94.6,215.2,94.6z"/>
	</g>
	<g opacity="0.1">
		<path fill="#FFFFFF" d="M206.5,89c0,0,0.3,0.7,0.5,1.7c0.3,1,0.4,2.5,0.5,3.9c0,1.4-0.1,2.8-0.3,3.9c-0.2,1.1-0.5,1.7-0.5,1.7
			s-0.2-0.7-0.4-1.8c-0.2-1.1-0.3-2.4-0.3-3.8s0-2.8,0.2-3.8C206.3,89.7,206.5,89,206.5,89z"/>
	</g>
	<g opacity="0.1">
		<path fill="#FFFFFF" d="M224.9,83.4c0,0,0.3,0.7,0.5,1.7c0.3,1,0.4,2.5,0.5,3.9c0,1.4-0.1,2.8-0.3,3.9c-0.2,1.1-0.5,1.7-0.5,1.7
			s-0.2-0.7-0.4-1.8c-0.2-1.1-0.3-2.4-0.3-3.8c0-1.4,0-2.8,0.2-3.8C224.8,84.1,224.9,83.4,224.9,83.4z"/>
	</g>
	<g opacity="0.1">
		<path fill="#FFFFFF" d="M234.4,95.8c0,0,0.3,0.7,0.5,1.7c0.3,1,0.4,2.5,0.5,3.9c0,1.4-0.1,2.8-0.3,3.9c-0.2,1.1-0.5,1.7-0.5,1.7
			s-0.2-0.7-0.4-1.8c-0.2-1.1-0.3-2.4-0.3-3.8c0-1.4,0-2.8,0.2-3.8C234.2,96.5,234.4,95.8,234.4,95.8z"/>
	</g>
	<g opacity="0.1">
		<path fill="#FFFFFF" d="M217.1,77.3c0,0,0.3,0.7,0.5,1.7c0.3,1,0.4,2.5,0.5,3.9c0,1.4-0.1,2.8-0.3,3.9c-0.2,1.1-0.5,1.7-0.5,1.7
			s-0.2-0.7-0.4-1.8c-0.2-1.1-0.3-2.4-0.3-3.8s0-2.8,0.2-3.8C216.9,78,217.1,77.3,217.1,77.3z"/>
	</g>
	<g opacity="0.1">
		<path fill="#FFFFFF" d="M206.3,107.2c0,0,0.1,0.7-0.1,1.8c-0.1,1.1-0.4,2.5-0.9,3.8c-0.5,1.3-1.1,2.6-1.6,3.5s-1,1.5-1,1.5
			s0-0.7,0.2-1.8c0.2-1,0.6-2.4,1-3.7s1-2.6,1.5-3.6C205.9,107.9,206.3,107.2,206.3,107.2z"/>
	</g>
	<g opacity="0.1">
		<path fill="#FFFFFF" d="M212,69.9c0,0,0.3,0.7,0.5,1.7c0.3,1,0.4,2.5,0.5,3.9c0,1.4-0.1,2.8-0.3,3.9c-0.2,1.1-0.5,1.7-0.5,1.7
			s-0.2-0.7-0.4-1.8c-0.2-1.1-0.3-2.4-0.3-3.8c0-1.4,0-2.8,0.2-3.8C211.8,70.6,212,69.9,212,69.9z"/>
	</g>
	<g opacity="0.1">
		<path fill="#FFFFFF" d="M211.1,45.7c0,0,0.1,0.7,0.1,1.8c0,1.1-0.1,2.5-0.5,3.9c-0.3,1.4-0.8,2.7-1.2,3.7c-0.4,1-0.9,1.6-0.9,1.6
			s0-0.7,0-1.8c0.1-1.1,0.3-2.4,0.6-3.8c0.3-1.4,0.7-2.7,1.1-3.7C210.8,46.4,211.1,45.7,211.1,45.7z"/>
	</g>
	<g opacity="0.1">
		<path fill="#FFFFFF" d="M205.7,66.1c0,0,0.3,0.7,0.5,1.7c0.3,1,0.4,2.5,0.5,3.9c0,1.4-0.1,2.8-0.3,3.9c-0.2,1.1-0.5,1.7-0.5,1.7
			s-0.2-0.7-0.4-1.8c-0.2-1.1-0.3-2.4-0.3-3.8c0-1.4,0-2.8,0.2-3.8C205.5,66.8,205.7,66.1,205.7,66.1z"/>
	</g>
	<g opacity="0.1">
		<path fill="#FFFFFF" d="M223.6,66.1c0,0,0.3,0.7,0.5,1.7c0.3,1,0.4,2.5,0.5,3.9c0,1.4-0.1,2.8-0.3,3.9s-0.5,1.7-0.5,1.7
			s-0.2-0.7-0.4-1.8c-0.2-1.1-0.3-2.4-0.3-3.8c0-1.4,0-2.8,0.2-3.8C223.4,66.8,223.6,66.1,223.6,66.1z"/>
	</g>
	<g opacity="0.1">
		<path fill="#FFFFFF" d="M231,78.7c0,0,0.3,0.7,0.5,1.7c0.3,1,0.4,2.5,0.5,3.9c0,1.4-0.1,2.8-0.3,3.9c-0.2,1.1-0.5,1.7-0.5,1.7
			s-0.2-0.7-0.4-1.8c-0.2-1.1-0.3-2.4-0.3-3.8s0-2.8,0.2-3.8C230.8,79.4,231,78.7,231,78.7z"/>
	</g>
	<g opacity="0.1">
		<path fill="#FFFFFF" d="M216.4,56.7c0,0,0.3,0.7,0.5,1.7c0.3,1,0.4,2.5,0.5,3.9c0,1.4-0.1,2.8-0.3,3.9c-0.2,1.1-0.5,1.7-0.5,1.7
			s-0.2-0.7-0.4-1.8c-0.2-1.1-0.3-2.4-0.3-3.8c0-1.4,0-2.8,0.2-3.8C216.2,57.4,216.4,56.7,216.4,56.7z"/>
	</g>
	<g opacity="0.1">
		<path fill="#FFFFFF" d="M228.6,134.1c0,0-0.1,0.7-0.4,1.8c-0.3,1-0.7,2.4-1.3,3.6c-0.5,1.3-1.2,2.5-1.7,3.5c-0.5,0.9-1,1.5-1,1.5
			s0-0.7,0.2-1.8c0.2-1.1,0.6-2.4,1.1-3.7c0.5-1.3,1.3-2.5,1.9-3.4C228.1,134.6,228.6,134.1,228.6,134.1z"/>
	</g>
	<g opacity="0.1">
		<path fill="#FFFFFF" d="M197.4,115.1c0,0-0.1,0.7-0.4,1.8c-0.3,1-0.7,2.4-1.3,3.6c-0.5,1.3-1.2,2.5-1.7,3.5c-0.5,0.9-1,1.5-1,1.5
			s0-0.7,0.2-1.8c0.2-1.1,0.6-2.4,1.1-3.7c0.5-1.3,1.3-2.5,1.9-3.4C196.9,115.6,197.4,115.1,197.4,115.1z"/>
	</g>
	<g opacity="0.1">
		<path fill="#FFFFFF" d="M226.1,26.6c0,0,0.2,0.7,0.3,1.8c0.1,1.1,0.2,2.5,0.2,3.8c0,1.4-0.1,2.8-0.3,3.8c-0.2,1.1-0.4,1.8-0.4,1.8
			s-0.3-0.7-0.5-1.7c-0.2-1.1-0.4-2.5-0.3-3.9c0-1.4,0.2-2.8,0.5-3.9C225.8,27.3,226.1,26.6,226.1,26.6z"/>
	</g>
	<g opacity="0.1">
		<path fill="#FFFFFF" d="M219.9,36.2c0,0,0.2,0.7,0.3,1.8c0.1,1.1,0.2,2.5,0.2,3.8c0,1.4-0.1,2.8-0.3,3.8c-0.2,1.1-0.4,1.8-0.4,1.8
			s-0.3-0.7-0.5-1.7c-0.2-1.1-0.4-2.5-0.3-3.9c0-1.4,0.2-2.8,0.5-3.9C219.6,36.9,219.9,36.2,219.9,36.2z"/>
	</g>
	<g opacity="0.1">
		<path fill="#FFFFFF" d="M289.8,40.2c0,0,0.4,0.6,0.7,1.6c0.4,1,0.8,2.3,1.1,3.7c0.3,1.4,0.5,2.7,0.6,3.8c0.1,1.1,0.1,1.8,0.1,1.8
			s-0.4-0.6-0.9-1.6c-0.5-1-1-2.3-1.3-3.7c-0.3-1.4-0.5-2.8-0.5-3.9C289.6,41,289.8,40.2,289.8,40.2z"/>
	</g>
	<g opacity="0.1">
		<path fill="#FFFFFF" d="M273.6,21.8c0,0,0.2,0.7,0.3,1.8c0.1,1.1,0.2,2.5,0.2,3.8c0,1.4-0.1,2.8-0.3,3.8c-0.2,1.1-0.4,1.8-0.4,1.8
			s-0.3-0.7-0.5-1.7c-0.2-1.1-0.4-2.5-0.3-3.9c0-1.4,0.2-2.8,0.5-3.9C273.3,22.5,273.6,21.8,273.6,21.8z"/>
	</g>
	<g opacity="0.1">
		<path fill="#FFFFFF" d="M276.7,67.9c0,0,0.2,0.7,0.3,1.8s0.2,2.5,0.2,3.8c0,1.4-0.1,2.8-0.3,3.8c-0.2,1.1-0.4,1.8-0.4,1.8
			s-0.3-0.7-0.5-1.7c-0.2-1.1-0.4-2.5-0.3-3.9c0-1.4,0.2-2.8,0.5-3.9C276.4,68.5,276.7,67.9,276.7,67.9z"/>
	</g>
	<g opacity="0.1">
		<path fill="#FFFFFF" d="M257,21c0,0,0.2,0.7,0.3,1.8c0.1,1.1,0.2,2.5,0.2,3.8c0,1.4-0.1,2.8-0.3,3.8c-0.2,1.1-0.4,1.8-0.4,1.8
			s-0.3-0.7-0.5-1.7c-0.2-1.1-0.4-2.5-0.3-3.9c0-1.4,0.2-2.8,0.5-3.9C256.7,21.7,257,21,257,21z"/>
	</g>
	<g opacity="0.1">
		<path fill="#FFFFFF" d="M238.2,25c0,0,0.2,0.7,0.3,1.8c0.1,1.1,0.2,2.5,0.2,3.8c0,1.4-0.1,2.8-0.3,3.8c-0.2,1.1-0.4,1.8-0.4,1.8
			s-0.3-0.7-0.5-1.7c-0.2-1.1-0.4-2.5-0.3-3.9c0-1.4,0.2-2.8,0.5-3.9C237.9,25.7,238.2,25,238.2,25z"/>
	</g>
	<g opacity="0.1">
		<path fill="#FFFFFF" d="M264.2,30.4c0,0,0.2,0.7,0.3,1.8c0.1,1.1,0.2,2.5,0.2,3.8c0,1.4-0.1,2.8-0.3,3.8c-0.2,1.1-0.4,1.8-0.4,1.8
			s-0.3-0.7-0.5-1.7c-0.2-1.1-0.4-2.5-0.3-3.9c0-1.4,0.2-2.8,0.5-3.9C263.9,31.1,264.2,30.4,264.2,30.4z"/>
	</g>
	<g opacity="0.1">
		<path fill="#FFFFFF" d="M228.3,41.8c0,0,0.2,0.7,0.3,1.8c0.1,1.1,0.2,2.5,0.2,3.8c0,1.4-0.1,2.8-0.3,3.8c-0.2,1.1-0.4,1.8-0.4,1.8
			s-0.3-0.7-0.5-1.7c-0.2-1.1-0.4-2.5-0.3-3.9c0-1.4,0.2-2.8,0.5-3.9C228,42.5,228.3,41.8,228.3,41.8z"/>
	</g>
	<g opacity="0.1">
		<path fill="#FFFFFF" d="M243.7,41.8c0,0,0.2,0.7,0.3,1.8c0.1,1.1,0.2,2.5,0.2,3.8c0,1.4-0.1,2.8-0.3,3.8c-0.2,1.1-0.4,1.8-0.4,1.8
			s-0.3-0.7-0.5-1.7c-0.2-1.1-0.4-2.5-0.3-3.9c0-1.4,0.2-2.8,0.5-3.9C243.4,42.5,243.7,41.8,243.7,41.8z"/>
	</g>
	<g opacity="0.1">
		<path fill="#FFFFFF" d="M281,31.7c0,0,0.2,0.7,0.3,1.8c0.1,1.1,0.2,2.5,0.2,3.8c0,1.4-0.1,2.8-0.3,3.8c-0.2,1.1-0.4,1.8-0.4,1.8
			s-0.3-0.7-0.5-1.7c-0.2-1.1-0.4-2.5-0.3-3.9c0-1.4,0.2-2.8,0.5-3.9C280.7,32.4,281,31.7,281,31.7z"/>
	</g>
	<g opacity="0.1">
		<path fill="#FFFFFF" d="M273.5,40.2c0,0,0.2,0.7,0.3,1.8c0.1,1.1,0.2,2.5,0.2,3.8c0,1.4-0.1,2.8-0.3,3.8c-0.2,1.1-0.4,1.8-0.4,1.8
			s-0.3-0.7-0.5-1.7c-0.2-1.1-0.4-2.5-0.3-3.9c0-1.4,0.2-2.8,0.5-3.9C273.2,40.9,273.5,40.2,273.5,40.2z"/>
	</g>
	<g opacity="0.1">
		<path fill="#FFFFFF" d="M255.8,42.5c0,0,0.2,0.7,0.3,1.8c0.1,1.1,0.2,2.5,0.2,3.8c0,1.4-0.1,2.8-0.3,3.8c-0.2,1.1-0.4,1.8-0.4,1.8
			s-0.3-0.7-0.5-1.7c-0.2-1.1-0.4-2.5-0.3-3.9c0-1.4,0.2-2.8,0.5-3.9C255.5,43.1,255.8,42.5,255.8,42.5z"/>
	</g>
	<g opacity="0.1">
		<path fill="#FFFFFF" d="M248.2,30.4c0,0,0.2,0.7,0.3,1.8c0.1,1.1,0.2,2.5,0.2,3.8c0,1.4-0.1,2.8-0.3,3.8c-0.2,1.1-0.4,1.8-0.4,1.8
			s-0.3-0.7-0.5-1.7c-0.2-1.1-0.4-2.5-0.3-3.9c0-1.4,0.2-2.8,0.5-3.9C247.9,31.1,248.2,30.4,248.2,30.4z"/>
	</g>
	<g opacity="0.1">
		<path fill="#FFFFFF" d="M287.1,56.7c0,0,0.2,0.7,0.3,1.8c0.1,1.1,0.2,2.5,0.2,3.8c0,1.4-0.1,2.8-0.3,3.8c-0.2,1.1-0.4,1.8-0.4,1.8
			s-0.3-0.7-0.5-1.7c-0.2-1.1-0.4-2.5-0.3-3.9c0-1.4,0.2-2.8,0.5-3.9C286.8,57.3,287.1,56.7,287.1,56.7z"/>
	</g>
	<g opacity="0.1">
		<path fill="#FFFFFF" d="M313.9,133c0,0,0.5,0.5,1.1,1.4c0.6,0.9,1.3,2.1,1.9,3.4c0.6,1.3,1,2.7,1.1,3.7c0.2,1.1,0.2,1.8,0.2,1.8
			s-0.5-0.6-1-1.5c-0.5-0.9-1.2-2.2-1.7-3.5c-0.5-1.3-1-2.6-1.3-3.6C314,133.7,313.9,133,313.9,133z"/>
	</g>
	<g opacity="0.1">
		<path fill="#FFFFFF" d="M326.7,149.2c0,0,0.5,0.5,1.1,1.4c0.6,0.9,1.3,2.1,1.9,3.4c0.6,1.3,1,2.7,1.1,3.7c0.2,1.1,0.2,1.8,0.2,1.8
			s-0.5-0.6-1-1.5c-0.5-0.9-1.2-2.2-1.7-3.5c-0.5-1.3-1-2.6-1.3-3.6C326.8,150,326.7,149.2,326.7,149.2z"/>
	</g>
	<g opacity="0.1">
		<path fill="#FFFFFF" d="M315.5,147.4c0,0,0.5,0.5,1.1,1.4c0.6,0.9,1.3,2.1,1.9,3.4s1,2.7,1.1,3.7c0.2,1.1,0.2,1.8,0.2,1.8
			s-0.5-0.6-1-1.5c-0.5-0.9-1.2-2.2-1.7-3.5c-0.5-1.3-1-2.6-1.3-3.6C315.5,148.1,315.5,147.4,315.5,147.4z"/>
	</g>
	<g opacity="0.1">
		<path fill="#FFFFFF" d="M322.9,166.4c0,0,0.5,0.5,1.1,1.4c0.6,0.9,1.3,2.1,1.9,3.4c0.6,1.3,1,2.7,1.1,3.7c0.2,1.1,0.2,1.8,0.2,1.8
			s-0.5-0.6-1-1.5c-0.5-0.9-1.2-2.2-1.7-3.5c-0.5-1.3-1-2.6-1.3-3.6C323,167.2,322.9,166.4,322.9,166.4z"/>
	</g>
	<g opacity="0.1">
		<path fill="#FFFFFF" d="M334.5,167.9c0,0,0.5,0.5,1.1,1.4c0.6,0.9,1.3,2.1,1.9,3.4c0.6,1.3,1,2.7,1.1,3.7c0.2,1.1,0.2,1.8,0.2,1.8
			s-0.5-0.6-1-1.5c-0.5-0.9-1.2-2.2-1.7-3.5c-0.5-1.3-1-2.6-1.3-3.6C334.6,168.7,334.5,167.9,334.5,167.9z"/>
	</g>
	<g opacity="0.1">
		<path fill="#FFFFFF" d="M346.3,187.8c0,0,0.5,0.5,1.1,1.4c0.6,0.9,1.3,2.1,1.9,3.4c0.6,1.3,1,2.7,1.1,3.7c0.2,1.1,0.2,1.8,0.2,1.8
			s-0.5-0.6-1-1.5c-0.5-0.9-1.2-2.2-1.7-3.5c-0.5-1.3-1-2.6-1.3-3.6C346.4,188.5,346.3,187.8,346.3,187.8z"/>
	</g>
	<g opacity="0.1">
		<path fill="#FFFFFF" d="M331.6,187c0,0,0.5,0.5,1.1,1.4c0.6,0.9,1.3,2.1,1.9,3.4c0.6,1.3,1,2.7,1.1,3.7c0.2,1.1,0.2,1.8,0.2,1.8
			s-0.5-0.6-1-1.5c-0.5-0.9-1.2-2.2-1.7-3.5c-0.5-1.3-1-2.6-1.3-3.6C331.7,187.7,331.6,187,331.6,187z"/>
	</g>
	<g opacity="0.1">
		<path fill="#FFFFFF" d="M339,206c0,0,0.5,0.5,1.1,1.4c0.6,0.9,1.3,2.1,1.9,3.4c0.6,1.3,1,2.7,1.1,3.7c0.2,1.1,0.2,1.8,0.2,1.8
			s-0.5-0.6-1-1.5c-0.5-0.9-1.2-2.2-1.7-3.5s-1-2.6-1.3-3.6C339.1,206.8,339,206,339,206z"/>
	</g>
	<g opacity="0.1">
		<path fill="#FFFFFF" d="M350.6,207.5c0,0,0.5,0.5,1.1,1.4c0.6,0.9,1.3,2.1,1.9,3.4c0.6,1.3,1,2.7,1.1,3.7c0.2,1.1,0.2,1.8,0.2,1.8
			s-0.5-0.6-1-1.5c-0.5-0.9-1.2-2.2-1.7-3.5c-0.5-1.3-1-2.6-1.3-3.6C350.7,208.3,350.6,207.5,350.6,207.5z"/>
	</g>
	<g opacity="0.1">
		<path fill="#FFFFFF" d="M362.9,229.9c0,0,0.5,0.6,0.9,1.5c0.5,1,1,2.3,1.4,3.6c0.4,1.4,0.6,2.8,0.6,3.8c0.1,1.1-0.1,1.8-0.1,1.8
			s-0.4-0.6-0.8-1.6c-0.4-1-0.9-2.3-1.2-3.7c-0.4-1.3-0.6-2.7-0.7-3.8C362.9,230.6,362.9,229.9,362.9,229.9z"/>
	</g>
	<g opacity="0.1">
		<path fill="#FFFFFF" d="M352.6,229.4c0,0,0.5,0.6,0.9,1.5c0.5,1,1,2.3,1.4,3.6c0.4,1.4,0.6,2.8,0.6,3.8c0.1,1.1-0.1,1.8-0.1,1.8
			s-0.4-0.6-0.8-1.6c-0.4-1-0.9-2.3-1.2-3.7c-0.4-1.3-0.6-2.7-0.7-3.8C352.6,230.1,352.6,229.4,352.6,229.4z"/>
	</g>
	<g opacity="0.1">
		<path fill="#FFFFFF" d="M363.1,252.6c0,0,0.5,0.6,0.9,1.5c0.5,1,1,2.3,1.4,3.6c0.4,1.4,0.6,2.8,0.6,3.8c0.1,1.1-0.1,1.8-0.1,1.8
			s-0.4-0.6-0.8-1.6s-0.9-2.3-1.2-3.7c-0.4-1.3-0.6-2.7-0.7-3.8C363.1,253.3,363.1,252.6,363.1,252.6z"/>
	</g>
	<g opacity="0.1">
		<path fill="#FFFFFF" d="M373.3,265.9c0,0,0.5,0.6,0.9,1.5c0.5,1,1,2.3,1.4,3.6c0.4,1.4,0.6,2.8,0.6,3.8c0.1,1.1-0.1,1.8-0.1,1.8
			s-0.4-0.6-0.8-1.6c-0.4-1-0.9-2.3-1.2-3.7c-0.4-1.3-0.6-2.7-0.7-3.8C373.3,266.6,373.3,265.9,373.3,265.9z"/>
	</g>
	<g opacity="0.1">
		<path fill="#FFFFFF" d="M364.6,272.7c0,0,0.5,0.6,0.9,1.5c0.5,1,1,2.3,1.4,3.6c0.4,1.4,0.6,2.8,0.6,3.8c0.1,1.1-0.1,1.8-0.1,1.8
			s-0.4-0.6-0.8-1.6c-0.4-1-0.9-2.3-1.2-3.7c-0.4-1.3-0.6-2.7-0.7-3.8C364.6,273.5,364.6,272.7,364.6,272.7z"/>
	</g>
	<g opacity="0.1">
		<path fill="#FFFFFF" d="M372.1,243.5c0,0,0.5,0.6,0.9,1.5c0.5,1,1,2.3,1.4,3.6c0.4,1.4,0.6,2.8,0.6,3.8c0.1,1.1-0.1,1.8-0.1,1.8
			s-0.4-0.6-0.8-1.6s-0.9-2.3-1.2-3.7c-0.4-1.3-0.6-2.7-0.7-3.8C372.1,244.3,372.1,243.5,372.1,243.5z"/>
	</g>
	<g opacity="0.1">
		<path fill="#FFFFFF" d="M373.2,282.1c0,0,0.4,0.7,0.7,1.7c0.3,1,0.6,2.4,0.7,3.8c0.1,1.4,0.1,2.8-0.1,3.9
			c-0.1,1.1-0.4,1.8-0.4,1.8s-0.3-0.7-0.5-1.7s-0.5-2.4-0.6-3.8s-0.1-2.8-0.1-3.8C373.1,282.8,373.2,282.1,373.2,282.1z"/>
	</g>
	<g opacity="0.1">
		<path fill="#FFFFFF" d="M354.2,249c0,0,0.5,0.6,0.9,1.5c0.5,1,1,2.3,1.4,3.6c0.4,1.4,0.6,2.8,0.6,3.8c0.1,1.1-0.1,1.8-0.1,1.8
			s-0.4-0.6-0.8-1.6c-0.4-1-0.9-2.3-1.2-3.7c-0.4-1.3-0.6-2.7-0.7-3.8C354.2,249.7,354.2,249,354.2,249z"/>
	</g>
	<g opacity="0.1">
		<path fill="#FFFFFF" d="M362.4,287.7c0,0,0.4,0.7,0.7,1.7c0.3,1,0.6,2.4,0.7,3.8c0.1,1.4,0.1,2.8-0.1,3.9
			c-0.1,1.1-0.4,1.8-0.4,1.8s-0.3-0.7-0.5-1.7c-0.2-1-0.5-2.4-0.6-3.8s-0.1-2.8-0.1-3.8C362.3,288.4,362.4,287.7,362.4,287.7z"/>
	</g>
	<g opacity="0.1">
		<path fill="#FFFFFF" d="M166.3,192.9c0,0-0.1,0.7-0.4,1.7c-0.3,1-0.8,2.3-1.4,3.6c-0.6,1.3-1.3,2.5-1.9,3.4
			c-0.6,0.9-1.1,1.5-1.1,1.5s0-0.7,0.3-1.8c0.2-1,0.7-2.4,1.3-3.7c0.6-1.3,1.4-2.5,2-3.3C165.7,193.4,166.3,192.9,166.3,192.9z"/>
	</g>
	<g opacity="0.1">
		<path fill="#FFFFFF" d="M183.9,132.1c0,0-0.1,0.7-0.4,1.7c-0.3,1-0.8,2.3-1.4,3.6c-0.6,1.3-1.3,2.5-1.9,3.4
			c-0.6,0.9-1.1,1.5-1.1,1.5s0-0.7,0.3-1.8c0.2-1,0.7-2.4,1.3-3.7c0.6-1.3,1.4-2.5,2-3.3C183.4,132.5,183.9,132.1,183.9,132.1z"/>
	</g>
	<g opacity="0.1">
		<path fill="#FFFFFF" d="M170.5,147.7c0,0-0.1,0.7-0.4,1.7c-0.3,1-0.8,2.3-1.4,3.6c-0.6,1.3-1.3,2.5-1.9,3.4
			c-0.6,0.9-1.1,1.5-1.1,1.5s0-0.7,0.3-1.8c0.2-1,0.7-2.4,1.3-3.7c0.6-1.3,1.4-2.5,2-3.3C169.9,148.2,170.5,147.7,170.5,147.7z"/>
	</g>
	<g opacity="0.1">
		<path fill="#FFFFFF" d="M173.5,165.1c0,0-0.1,0.7-0.4,1.7c-0.3,1-0.8,2.3-1.4,3.6s-1.3,2.5-1.9,3.4s-1.1,1.5-1.1,1.5
			s0-0.7,0.3-1.8c0.2-1,0.7-2.4,1.3-3.7c0.6-1.3,1.4-2.5,2-3.3C172.9,165.6,173.5,165.1,173.5,165.1z"/>
	</g>
	<g opacity="0.1">
		<path fill="#FFFFFF" d="M161.8,166.1c0,0-0.1,0.7-0.4,1.7c-0.3,1-0.8,2.3-1.4,3.6c-0.6,1.3-1.3,2.5-1.9,3.4
			c-0.6,0.9-1.1,1.5-1.1,1.5s0-0.7,0.3-1.8c0.2-1,0.7-2.4,1.3-3.7c0.6-1.3,1.4-2.5,2-3.3C161.2,166.6,161.8,166.1,161.8,166.1z"/>
	</g>
	<g opacity="0.1">
		<path fill="#FFFFFF" d="M149.2,185.4c0,0-0.1,0.7-0.4,1.7s-0.8,2.3-1.4,3.6c-0.6,1.3-1.3,2.5-1.9,3.4c-0.6,0.9-1.1,1.5-1.1,1.5
			s0-0.7,0.3-1.8c0.2-1,0.7-2.4,1.3-3.7c0.6-1.3,1.4-2.5,2-3.3C148.6,185.9,149.2,185.4,149.2,185.4z"/>
	</g>
	<g opacity="0.1">
		<path fill="#FFFFFF" d="M159.9,183.4c0,0-0.1,0.7-0.4,1.7c-0.3,1-0.8,2.3-1.4,3.6c-0.6,1.3-1.3,2.5-1.9,3.4
			c-0.6,0.9-1.1,1.5-1.1,1.5s0-0.7,0.3-1.8c0.2-1,0.7-2.4,1.3-3.7c0.6-1.3,1.4-2.5,2-3.3C159.3,183.9,159.9,183.4,159.9,183.4z"/>
	</g>
	<g opacity="0.1">
		<path fill="#FFFFFF" d="M155.6,204c0,0-0.1,0.7-0.4,1.7c-0.3,1-0.8,2.3-1.4,3.6c-0.6,1.3-1.3,2.5-1.9,3.4
			c-0.6,0.9-1.1,1.5-1.1,1.5s0-0.7,0.3-1.8c0.2-1,0.7-2.4,1.3-3.7c0.6-1.3,1.4-2.5,2-3.3C155,204.5,155.6,204,155.6,204z"/>
	</g>
	<g opacity="0.1">
		<path fill="#FFFFFF" d="M143.9,204.9c0,0-0.1,0.7-0.4,1.7s-0.8,2.3-1.4,3.6s-1.3,2.5-1.9,3.4c-0.6,0.9-1.1,1.5-1.1,1.5
			s0-0.7,0.3-1.8c0.2-1,0.7-2.4,1.3-3.7c0.6-1.3,1.4-2.5,2-3.3C143.4,205.4,143.9,204.9,143.9,204.9z"/>
	</g>
	<g opacity="0.1">
		<path fill="#FFFFFF" d="M130.6,226.7c0,0,0,0.7-0.2,1.8c-0.2,1.1-0.5,2.4-0.9,3.7c-0.4,1.3-0.9,2.6-1.4,3.6
			c-0.4,1-0.9,1.6-0.9,1.6s-0.1-0.7,0-1.8c0.1-1.1,0.4-2.5,0.8-3.8c0.4-1.4,1-2.6,1.5-3.6C130.1,227.3,130.6,226.7,130.6,226.7z"/>
	</g>
	<g opacity="0.1">
		<path fill="#FFFFFF" d="M141,226.7c0,0,0,0.7-0.2,1.8c-0.2,1.1-0.5,2.4-0.9,3.7c-0.4,1.3-0.9,2.6-1.4,3.6c-0.4,1-0.9,1.6-0.9,1.6
			s-0.1-0.7,0-1.8s0.4-2.5,0.8-3.8c0.4-1.4,1-2.6,1.5-3.6C140.5,227.2,141,226.7,141,226.7z"/>
	</g>
	<g opacity="0.1">
		<path fill="#FFFFFF" d="M125.3,247c0,0,0,0.7-0.2,1.8s-0.5,2.4-0.9,3.7c-0.4,1.3-0.9,2.6-1.4,3.6c-0.4,1-0.9,1.6-0.9,1.6
			s-0.1-0.7,0-1.8c0.1-1.1,0.4-2.5,0.8-3.8c0.4-1.4,1-2.6,1.5-3.6C124.8,247.5,125.3,247,125.3,247z"/>
	</g>
</g>
</svg>
