<?xml version="1.0" encoding="utf-8"?>
<!-- Generator: Adobe Illustrator 16.0.0, SVG Export Plug-In . SVG Version: 6.00 Build 0)  -->
<!DOCTYPE svg PUBLIC "-//W3C//DTD SVG 1.1//EN" "http://www.w3.org/Graphics/SVG/1.1/DTD/svg11.dtd">
<svg version="1.1" id="Layer_1" xmlns="http://www.w3.org/2000/svg" xmlns:xlink="http://www.w3.org/1999/xlink" x="0px" y="0px"
	 width="500px" height="293px" viewBox="0 0 500 293" enable-background="new 0 0 500 293" xml:space="preserve">
<g id="change1">
	<path fill="#575756" d="M437.747,47.94c0,0,24.185,18.493,27.386,23.828c3.201,5.336,2.49,14.585,3.914,18.853
		c1.421,4.269,3.201,11.025,12.448,18.14c9.247,7.112,18.85,16.359,18.495,19.205c-0.355,2.846-3.2,3.557-4.98,5.335
		c-1.777,1.779-5.335,8.181-9.957,8.537c-4.625,0.355-10.671,0-10.671,0s-12.45,4.624-19.206,2.846
		c-6.759-1.779-17.072-6.402-22.765-7.47c-5.691-1.066-18.85-3.349-23.83-2.208c-4.979,1.142-6.757,3.987-9.958,4.342
		c-3.201,0.355,0-3.2,0-3.2s-6.402,3.556-11.026,3.2c-4.625-0.354,0-4.342,0-4.342s-10.314,6.12-14.228,7.898
		c-3.912,1.779-3.556,5.691-7.113,11.027c-3.558,5.335-3.912,13.16-7.112,16.005l-2.848,2.489c0,0-7.469,25.964-7.823,29.877
		c-0.356,3.913-1.066,4.979,2.134,8.892c3.201,3.913,8.893,8.893,13.516,12.094c4.624,3.201,7.469,4.622,11.381,8.18
		c3.914,3.558,6.402,4.269,7.469,13.516c1.067,9.248-6.046,23.12-9.957,30.944c-3.914,7.824-13.161,11.025-17.429,9.958
		c-4.269-1.066-2.135-2.846-0.356-5.335c0,0-6.757,4.27-4.979,0.356c1.777-3.913,3.557-12.094,3.557-14.228
		s-2.134,3.202-3.913,0.356c-1.778-2.846-0.354-4.27-3.201-4.625c-2.845-0.354-2.488,1.424-4.979-0.71
		c-2.49-2.135,0-1.779-4.624-1.779c-4.622,0-3.201,0.355-6.402-1.778s-11.737-1.067-11.024-3.557l1.421-2.489
		c0,0-11.024-6.759-15.648-6.759c-4.625,0-23.118-10.67-23.118-10.67s-5.335,27.389-4.981,34.501
		c0.356,7.113-2.488,9.958,5.691,13.516c8.181,3.557,17.073,1.066,22.052,10.314H242.48c0,0-3.912-2.133-4.979-11.025
		s-1.067-20.63-2.134-27.388c-1.067-6.758-3.913-17.072-3.913-22.407s3.557-46.594,3.557-46.594s-8.893,8.536-11.737,9.603
		l2.49-7.112c0,0-7.115,8.892-11.026,9.958c-3.912,1.067-8.18,2.491-8.18,0.712c0-1.778,2.134-3.558,2.134-3.558l-8.182,4.624
		c0,0,2.491,14.938-5.69,27.742c-8.181,12.805-33.789,29.521-41.969,34.5c-8.181,4.98-13.872,8.183-14.583,11.027
		c-0.712,2.845,2.489,3.911,2.489,3.911s3.913,0.711,8.181,1.067s23.83,1.068,28.81,3.558c4.979,2.489,12.449,7.825,8.536,11.382
		H26.229c0,0,1.779-7.114,6.047-9.96s20.272-27.743,23.118-40.191s1.423-23.83-3.912-35.567s-28.455-36.812-29.521-69.712
		c-0.696-21.473,4.98-30.944,4.98-30.944s-5.335,12.449-13.516,12.449c0,0-4.269,4.625-8.181,1.424
		c-3.912-3.201-5.69-22.053,3.913-33.078C18.76,76.394,34.41,71.769,34.41,71.769s19.562-28.454,47.304-45.882
		s67.935-19.918,78.96-19.207c11.026,0.712,57.976,7.469,64.022,7.825c6.045,0.356,6.045,0.356,6.045,0.356l-2.844-2.846
		c0,0,9.247,0.356,13.515,1.423s10.672,1.423,12.094,1.423s7.824,1.422,7.824,1.422l-1.777-4.624c0,0,9.247,4.98,13.159,4.268
		c3.914-0.711,24.188-8.394,33.435-9.354c9.246-0.961,19.206,4.726,34.145,10.417s73.625,18.851,73.625,18.851
		s4.268-13.872,13.515-12.804c9.249,1.067,10.67,12.804,11.026,14.227S437.747,47.94,437.747,47.94z"/>
</g>
<g id="change2">
	<path fill="#F6F6F6" d="M457.576,79.684c0,0-2.935-2.668-3.201,0c-0.267,2.667,1.601,15.205,1.601,15.205
		s-5.335-2.668-8.803-10.671s-3.734-5.068-4.269-4.268c-0.533,0.8,1.334,17.072,13.338,18.406l2.935-1.334
		C459.177,97.022,457.31,83.418,457.576,79.684z"/>
	<path fill="#F6F6F6" d="M486.652,125.032c0.178-1.77,6.22-2.13,10.504-2.017c1.854,2.182,2.957,3.96,2.834,4.95
		c-0.355,2.846-3.2,3.557-4.98,5.335c-0.292,0.292-0.636,0.718-1.021,1.212l0,0C486.92,130.656,486.386,127.699,486.652,125.032z"/>
	<path fill="#F6F6F6" d="M453.041,122.996c0-2.57,4.002-1.165,4.002-1.165s-1.067,3.468,5.068,11.203
		c6.136,7.736,18.14,8.961,18.14,8.961l0,0c-3.17,0.001-5.869-0.157-5.869-0.157s-1.194,0.442-3.038,1.001
		C452.812,135.825,453.041,125.399,453.041,122.996z"/>
</g>
</svg>
