<?xml version="1.0" encoding="UTF-8"?><svg xmlns="http://www.w3.org/2000/svg" xmlns:xlink="http://www.w3.org/1999/xlink" height="500.5" preserveAspectRatio="xMidYMid meet" version="1.0" viewBox="-0.9 0.0 439.1 500.5" width="439.1" zoomAndPan="magnify"><defs><clipPath id="a"><path d="M 13 0 L 438.289062 0 L 438.289062 500 L 13 500 Z M 13 0"/></clipPath><clipPath id="b"><path d="M 13 0 L 438.289062 0 L 438.289062 411 L 13 411 Z M 13 0"/></clipPath></defs><g><g clip-path="url(#a)" id="change1_2"><path d="M 435.980469 49.210938 C 431.257812 31.382812 416.980469 15.0625 398.671875 12.851562 C 377.675781 10.320312 359.082031 25.960938 345.121094 41.851562 C 340.871094 46.699219 336.640625 51.878906 334.917969 58.085938 C 333.195312 64.308594 334.628906 71.84375 339.914062 75.535156 C 348.664062 81.613281 360.285156 74.109375 367.886719 66.644531 C 375.488281 59.183594 385.851562 50.71875 395.515625 55.207031 C 405.808594 59.988281 405.167969 74.746094 402.042969 85.65625 C 391.328125 123.003906 370.179688 157.257812 341.730469 183.71875 C 322.902344 171.523438 302.339844 162.019531 280.855469 155.589844 C 265.324219 150.941406 248.28125 147.964844 233.164062 153.8125 C 226.910156 156.226562 221.277344 160.054688 214.941406 162.242188 C 204.671875 165.796875 192.976562 164.273438 183.566406 158.894531 C 182.898438 158.503906 182.226562 158.097656 181.578125 157.671875 C 183.832031 154.035156 186.882812 150.710938 189.957031 147.785156 C 196.664062 141.40625 204.363281 134.941406 206.253906 125.875 C 206.359375 125.386719 206.433594 124.894531 206.5 124.40625 C 207.433594 117.476562 204.753906 110.363281 200.886719 104.460938 C 196.738281 98.148438 191.265625 92.832031 186.53125 86.941406 C 182.832031 82.347656 179.589844 77.382812 176.859375 72.152344 C 185.117188 54.121094 188.914062 34.253906 187.765625 14.605469 C 187.4375 8.757812 185.023438 1.355469 178.878906 1.070312 C 174.53125 0.867188 171.210938 4.566406 168.640625 7.90625 C 159.996094 19.164062 151.332031 30.414062 142.6875 41.671875 C 119.140625 33.761719 92.921875 33.753906 69.4375 41.886719 C 58.507812 25.84375 46.21875 10.648438 29.453125 1.273438 C 28.15625 0.550781 26.730469 -0.152344 25.261719 0.0273438 C 23.0625 0.304688 21.605469 2.464844 20.777344 4.527344 C 18.425781 10.425781 18.820312 17.019531 19.257812 23.355469 C 20.9375 47.882812 23.050781 73.695312 35.714844 94.519531 C 34.4375 98.15625 32.695312 101.675781 30.761719 105.003906 C 26.347656 112.574219 20.851562 119.484375 16.671875 127.191406 C 15.355469 129.617188 14.164062 132.1875 13.621094 134.867188 C 13.367188 136.070312 13.238281 137.304688 13.300781 138.535156 C 13.515625 143 16.015625 147.007812 18.585938 150.667969 C 24.613281 159.203125 31.566406 167.101562 39.265625 174.152344 C 39.03125 198.136719 38.808594 222.121094 38.574219 246.117188 C 38.476562 256.015625 38.402344 266.050781 40.914062 275.628906 C 44.378906 288.875 52.53125 300.304688 59.921875 311.828125 C 81.78125 345.925781 98.066406 383.582031 108.039062 422.832031 C 106.976562 428.445312 105.753906 434.039062 104.371094 439.589844 C 102.523438 447.03125 100.277344 454.609375 95.527344 460.617188 C 91.570312 465.613281 86.105469 469.230469 81.980469 474.089844 C 77.855469 478.945312 75.1875 486.027344 78.144531 491.671875 C 81.535156 498.1875 90.179688 499.390625 97.515625 499.796875 C 105.636719 500.242188 114.609375 500.421875 120.863281 495.222656 C 124.796875 491.957031 126.953125 487.089844 128.964844 482.390625 C 141.148438 454.003906 153.042969 425.511719 164.683594 396.914062 C 168.566406 387.367188 172.414062 377.808594 176.230469 368.238281 C 176.242188 368.238281 176.261719 368.238281 176.285156 368.238281 C 192.410156 368.164062 208.550781 370.132812 224.199219 374.054688 C 229.34375 380.914062 233.929688 388.195312 237.871094 395.808594 C 240.15625 400.199219 242.261719 404.8125 242.644531 409.746094 C 243.304688 418.292969 238.765625 426.289062 234.375 433.65625 C 233.121094 435.761719 231.824219 437.917969 229.929688 439.472656 C 224.519531 443.925781 214.632812 443.4375 212.601562 450.144531 C 211.324219 454.335938 214.601562 458.84375 218.691406 460.40625 C 222.777344 461.96875 227.347656 461.320312 231.632812 460.4375 C 235.035156 459.734375 238.457031 458.875 241.488281 457.183594 C 245.589844 454.898438 248.738281 451.238281 251.789062 447.667969 C 260.378906 437.609375 268.96875 427.554688 277.570312 417.484375 C 280.144531 414.46875 282.746094 411.414062 284.609375 407.898438 C 288.839844 399.890625 288.742188 390.683594 287.234375 381.5625 C 299.078125 386.632812 310.910156 391.714844 322.753906 396.796875 C 325.527344 397.988281 328.453125 399.296875 330.144531 401.804688 C 332.035156 404.609375 331.941406 408.246094 331.769531 411.628906 C 331.335938 420.75 330.886719 429.859375 330.453125 438.972656 C 330.238281 443.234375 329.960938 447.722656 327.613281 451.273438 C 324.582031 455.875 318.648438 458.023438 315.90625 462.816406 C 313.121094 467.699219 314.589844 474.195312 318.246094 478.46875 C 321.902344 482.742188 327.304688 485.132812 332.738281 486.609375 C 342.953125 489.40625 355.859375 488.429688 361.472656 479.445312 C 365.738281 472.621094 364.183594 463.871094 363.121094 455.90625 C 361.089844 440.84375 361.324219 425.46875 363.78125 410.46875 C 364.460938 406.34375 365.300781 402.238281 366.3125 398.1875 C 369.085938 387.027344 373.03125 374.832031 367.992188 364.488281 C 365.875 360.148438 362.355469 356.652344 359.941406 352.464844 C 351.492188 337.75 358.476562 319.441406 364.078125 303.429688 C 373.5 276.542969 377.984375 245.054688 365.515625 220.1875 C 397.003906 187.695312 420.308594 147.308594 432.546875 103.75 C 437.53125 85.996094 440.691406 67.039062 435.980469 49.210938" fill="#a1733a"/></g><g id="change2_1"><path d="M 13.300781 138.535156 C 13.515625 143 16.015625 147.007812 18.585938 150.667969 C 24.613281 159.203125 31.566406 167.101562 39.265625 174.152344 C 39.03125 198.136719 38.808594 222.121094 38.574219 246.117188 C 38.476562 256.015625 38.402344 266.050781 40.914062 275.628906 C 44.378906 288.875 52.53125 300.304688 59.921875 311.828125 C 81.78125 345.925781 98.066406 383.582031 108.039062 422.832031 C 106.976562 428.445312 105.753906 434.039062 104.371094 439.589844 C 102.523438 447.03125 100.277344 454.609375 95.527344 460.617188 C 91.570312 465.613281 86.105469 469.230469 81.980469 474.089844 C 77.855469 478.945312 75.1875 486.027344 78.144531 491.671875 C 81.535156 498.1875 90.179688 499.390625 97.515625 499.796875 C 105.636719 500.242188 114.609375 500.421875 120.863281 495.222656 C 124.796875 491.957031 126.953125 487.089844 128.964844 482.390625 C 141.148438 454.003906 153.042969 425.511719 164.683594 396.914062 C 155.316406 387.207031 141.253906 382.125 127.855469 383.878906 C 125.039062 384.253906 121.976562 384.855469 119.5 383.464844 C 114.683594 380.773438 116.035156 373.703125 116.769531 368.238281 C 119.148438 350.519531 107.816406 334.125 103.851562 316.6875 C 99.664062 298.265625 103.925781 278.734375 112.046875 261.679688 C 120.171875 244.628906 131.960938 229.628906 143.65625 214.785156 C 157.414062 197.328125 166.214844 182.644531 178.144531 166.210938 C 179.867188 163.816406 181.675781 161.382812 183.566406 158.894531 C 182.898438 158.503906 182.226562 158.097656 181.578125 157.671875 C 183.832031 154.035156 186.882812 150.710938 189.957031 147.785156 C 196.664062 141.40625 204.363281 134.941406 206.253906 125.875 C 206.359375 125.386719 206.433594 124.894531 206.5 124.40625 C 202.863281 123.589844 199.28125 122.324219 195.910156 120.761719 C 185.503906 115.933594 176.347656 108.566406 166.375 102.8125 C 156.402344 97.050781 144.910156 92.84375 133.757812 95.179688 C 121.542969 97.730469 112.058594 107.511719 102.574219 116.050781 C 89.5625 127.757812 74.847656 138.027344 58.210938 142.183594 C 43.136719 145.957031 26.253906 144.0625 13.621094 134.867188 C 13.367188 136.070312 13.238281 137.304688 13.300781 138.535156 Z M 195.101562 328.0625 C 198.824219 326.777344 202.734375 328.96875 206.285156 330.667969 C 217.925781 336.25 231.78125 337.035156 243.984375 332.804688 C 249.257812 330.96875 254.234375 328.246094 259.636719 326.808594 C 265.035156 325.375 271.246094 325.417969 275.71875 328.765625 C 281.429688 333.019531 282.535156 340.929688 285.183594 347.539062 C 290.222656 360.140625 301.726562 368.996094 313.621094 375.523438 C 325.519531 382.0625 338.382812 386.972656 349.320312 395.023438 C 354.988281 399.1875 360.15625 404.460938 363.78125 410.46875 C 361.324219 425.46875 361.089844 440.84375 363.121094 455.90625 C 364.183594 463.871094 365.738281 472.621094 361.472656 479.445312 C 355.859375 488.429688 342.953125 489.40625 332.738281 486.609375 C 327.304688 485.132812 321.902344 482.742188 318.246094 478.46875 C 314.589844 474.195312 313.121094 467.699219 315.90625 462.816406 C 318.648438 458.023438 324.582031 455.875 327.613281 451.273438 C 329.960938 447.722656 330.238281 443.234375 330.453125 438.972656 C 330.886719 429.859375 331.335938 420.75 331.769531 411.628906 C 331.941406 408.246094 332.035156 404.609375 330.144531 401.804688 C 328.453125 399.296875 325.527344 397.988281 322.753906 396.796875 C 310.910156 391.714844 299.078125 386.632812 287.234375 381.5625 C 288.742188 390.683594 288.839844 399.890625 284.609375 407.898438 C 282.746094 411.414062 280.144531 414.46875 277.570312 417.484375 C 268.96875 427.554688 260.378906 437.609375 251.789062 447.667969 C 248.738281 451.238281 245.589844 454.898438 241.488281 457.183594 C 238.457031 458.875 235.035156 459.734375 231.632812 460.4375 C 227.347656 461.320312 222.773438 461.96875 218.691406 460.40625 C 214.601562 458.84375 211.324219 454.335938 212.601562 450.144531 C 214.632812 443.4375 224.519531 443.925781 229.929688 439.472656 C 231.824219 437.917969 233.121094 435.761719 234.375 433.65625 C 238.765625 426.289062 243.304688 418.292969 242.644531 409.746094 C 242.261719 404.8125 240.15625 400.199219 237.871094 395.808594 C 233.929688 388.195312 229.34375 380.914062 224.199219 374.054688 C 208.550781 370.132812 192.410156 368.164062 176.285156 368.238281 C 176.347656 368.050781 176.402344 367.855469 176.464844 367.675781 C 179.769531 356.757812 183.820312 346.074219 188.59375 335.707031 C 190.03125 332.570312 191.847656 329.191406 195.101562 328.0625" fill="#f1dbc6"/></g><g clip-path="url(#b)" id="change1_1"><path d="M 176.285156 368.238281 C 176.347656 368.050781 176.402344 367.855469 176.464844 367.675781 C 179.769531 356.757812 183.820312 346.074219 188.59375 335.707031 C 190.03125 332.570312 191.847656 329.191406 195.101562 328.0625 C 198.824219 326.777344 202.734375 328.96875 206.285156 330.667969 C 217.925781 336.25 231.78125 337.035156 243.984375 332.804688 C 249.257812 330.96875 254.234375 328.246094 259.636719 326.808594 C 265.035156 325.375 271.246094 325.417969 275.71875 328.765625 C 281.429688 333.019531 282.535156 340.929688 285.183594 347.539062 C 290.222656 360.140625 301.726562 368.996094 313.621094 375.523438 C 325.519531 382.0625 338.382812 386.972656 349.320312 395.023438 C 354.988281 399.1875 360.15625 404.460938 363.78125 410.46875 C 364.460938 406.34375 365.300781 402.238281 366.3125 398.1875 C 369.085938 387.027344 373.03125 374.832031 367.992188 364.488281 C 365.875 360.148438 362.355469 356.652344 359.941406 352.464844 C 351.492188 337.75 358.476562 319.441406 364.078125 303.429688 C 373.5 276.542969 377.984375 245.054688 365.515625 220.1875 C 397.003906 187.695312 420.308594 147.308594 432.546875 103.75 C 437.53125 85.996094 440.6875 67.039062 435.980469 49.210938 C 431.257812 31.382812 416.980469 15.0625 398.671875 12.851562 C 377.675781 10.320312 359.082031 25.960938 345.121094 41.851562 C 340.871094 46.699219 336.640625 51.878906 334.917969 58.085938 C 333.195312 64.308594 334.628906 71.84375 339.914062 75.535156 C 348.664062 81.613281 360.285156 74.109375 367.886719 66.644531 C 375.488281 59.183594 385.851562 50.71875 395.515625 55.207031 C 405.808594 59.992188 405.167969 74.746094 402.042969 85.65625 C 391.328125 123.003906 370.179688 157.257812 341.730469 183.71875 C 322.902344 171.527344 302.339844 162.019531 280.855469 155.589844 C 265.324219 150.941406 248.28125 147.964844 233.164062 153.8125 C 226.910156 156.226562 221.277344 160.054688 214.941406 162.242188 C 204.671875 165.796875 192.976562 164.273438 183.566406 158.894531 C 181.675781 161.382812 179.867188 163.816406 178.144531 166.210938 C 166.214844 182.644531 157.414062 197.328125 143.65625 214.785156 C 131.960938 229.628906 120.171875 244.628906 112.046875 261.679688 C 103.925781 278.734375 99.664062 298.265625 103.851562 316.6875 C 107.816406 334.125 119.148438 350.519531 116.769531 368.238281 C 116.035156 373.703125 114.683594 380.773438 119.5 383.464844 C 121.976562 384.855469 125.039062 384.253906 127.855469 383.878906 C 141.253906 382.125 155.316406 387.207031 164.683594 396.914062 C 168.566406 387.367188 172.414062 377.808594 176.230469 368.238281 C 176.242188 368.238281 176.261719 368.238281 176.285156 368.238281 Z M 200.886719 104.460938 C 204.753906 110.363281 207.433594 117.476562 206.5 124.40625 C 202.863281 123.589844 199.28125 122.324219 195.910156 120.761719 C 185.503906 115.933594 176.347656 108.566406 166.375 102.8125 C 156.402344 97.050781 144.910156 92.84375 133.757812 95.179688 C 121.542969 97.730469 112.058594 107.511719 102.574219 116.050781 C 89.5625 127.757812 74.847656 138.027344 58.210938 142.183594 C 43.136719 145.957031 26.253906 144.0625 13.621094 134.867188 C 14.164062 132.1875 15.355469 129.617188 16.671875 127.191406 C 20.851562 119.484375 26.347656 112.574219 30.761719 105.003906 C 32.695312 101.675781 34.4375 98.15625 35.714844 94.519531 C 23.050781 73.695312 20.9375 47.882812 19.257812 23.355469 C 18.820312 17.019531 18.425781 10.425781 20.777344 4.527344 C 21.605469 2.464844 23.0625 0.304688 25.261719 0.0273438 C 26.730469 -0.152344 28.15625 0.550781 29.453125 1.273438 C 46.21875 10.648438 58.507812 25.84375 69.4375 41.886719 C 92.921875 33.753906 119.140625 33.761719 142.6875 41.671875 C 151.332031 30.414062 159.996094 19.164062 168.640625 7.90625 C 171.210938 4.566406 174.53125 0.867188 178.878906 1.070312 C 185.023438 1.359375 187.4375 8.757812 187.765625 14.605469 C 188.914062 34.253906 185.117188 54.121094 176.859375 72.152344 C 179.589844 77.382812 182.832031 82.347656 186.53125 86.941406 C 191.265625 92.832031 196.738281 98.148438 200.886719 104.460938" fill="#a1733a"/></g><g id="change3_1"><path d="M 31.386719 15.605469 C 27.527344 16.71875 26.453125 21.609375 26.242188 25.617188 C 25.40625 41.785156 27.574219 58.097656 32.566406 73.503906 C 33.886719 77.589844 39.261719 78.65625 41.996094 75.347656 C 47.117188 69.140625 50.878906 61.816406 52.917969 54.042969 C 53.480469 51.910156 53.476562 49.664062 52.957031 47.519531 C 50.664062 38.035156 46.5625 28.988281 40.902344 21.035156 C 38.636719 17.859375 35.140625 14.507812 31.386719 15.605469 Z M 180.503906 15.964844 C 181.992188 28.632812 180.929688 41.585938 177.441406 53.855469 C 176.351562 57.695312 171.421875 58.882812 168.796875 55.867188 C 166.550781 53.28125 164.507812 50.515625 162.695312 47.605469 C 160.335938 43.816406 160.058594 39.09375 161.972656 35.0625 C 164.960938 28.761719 167.949219 22.449219 170.9375 16.144531 C 171.828125 14.285156 172.769531 12.34375 174.652344 11.296875 C 175.542969 10.800781 176.613281 10.613281 177.589844 10.90625 C 179.753906 11.554688 180.261719 13.914062 180.503906 15.964844" fill="#f49274"/></g><g id="change2_2"><path d="M 161.675781 64.574219 C 156.292969 64.574219 151.929688 66.714844 151.929688 69.355469 C 151.929688 71.992188 156.292969 74.132812 161.675781 74.132812 C 167.058594 74.132812 171.421875 71.992188 171.421875 69.355469 C 171.421875 66.714844 167.058594 64.574219 161.675781 64.574219 Z M 95.828125 67.226562 C 95.828125 69.867188 91.464844 72.007812 86.082031 72.007812 C 80.699219 72.007812 76.335938 69.867188 76.335938 67.226562 C 76.335938 64.589844 80.699219 62.449219 86.082031 62.449219 C 91.464844 62.449219 95.828125 64.589844 95.828125 67.226562" fill="#f1dbc6"/></g><g id="change4_1"><path d="M 156.488281 95.03125 C 161.335938 87.503906 169.296875 87.980469 177.066406 89.3125 C 178.300781 89.523438 181.191406 88.09375 179.429688 86.648438 C 171.179688 79.890625 156.792969 84.496094 152.828125 94.015625 C 151.878906 96.304688 155.460938 96.628906 156.488281 95.03125 Z M 106.210938 132.320312 C 94.0625 141.074219 84.160156 151.988281 77.339844 165.367188 C 76.652344 166.714844 78.933594 167.191406 79.59375 166.144531 C 87.226562 154.03125 96.730469 143.042969 108.082031 134.273438 C 109.710938 133.019531 107.621094 131.300781 106.210938 132.320312 Z M 84.390625 136.683594 C 91.910156 133.070312 99.859375 129.421875 108.316406 129.101562 C 109.332031 129.0625 109.566406 127.644531 108.449219 127.550781 C 92.558594 126.214844 75.722656 136.097656 62.804688 144.441406 C 48.800781 153.484375 36.171875 164.726562 25.933594 177.902344 C 24.925781 179.199219 27.015625 180.179688 27.933594 179.171875 C 38.558594 167.535156 50.320312 156.996094 63.554688 148.398438 C 70.242188 144.050781 77.203125 140.140625 84.390625 136.683594 Z M 110.953125 123.839844 C 111.832031 124.015625 112.628906 122.714844 111.566406 122.414062 C 74.09375 111.875 35.785156 123.652344 0.847656 137.5625 C -0.859375 138.242188 0.285156 140.152344 1.847656 139.628906 C 36.9375 127.875 73.625 116.375 110.953125 123.839844 Z M 172.382812 127.140625 C 171.277344 127.726562 172.535156 128.757812 173.429688 128.355469 C 188.765625 121.453125 204.378906 129.324219 218.652344 135.109375 C 219.691406 135.53125 221.308594 134.085938 220.011719 133.363281 C 205.660156 125.351562 188.066406 118.8125 172.382812 127.140625 Z M 168.894531 121.59375 C 167.609375 122.964844 170.117188 124.09375 171.183594 123 C 184.574219 109.289062 202.257812 103.730469 221.050781 103.109375 C 222.550781 103.058594 222.6875 101.105469 221.164062 100.902344 C 201.753906 98.289062 181.996094 107.609375 168.894531 121.59375 Z M 75.183594 93.90625 C 77.800781 90.480469 80.746094 87.480469 84.316406 86.246094 C 82.890625 88.496094 82.007812 91.609375 82.007812 95.054688 C 82.007812 101.902344 85.496094 107.457031 89.804688 107.457031 C 94.109375 107.457031 97.601562 101.902344 97.601562 95.054688 C 97.601562 88.820312 94.707031 83.679688 90.945312 82.796875 C 84.054688 79.769531 75.929688 86.738281 72.761719 92.789062 C 72.03125 94.179688 74.402344 94.925781 75.183594 93.90625 Z M 127.949219 140.882812 C 121.535156 145.601562 113.054688 146.765625 105.878906 143.109375 C 104.601562 142.460938 102.441406 144.046875 104.046875 144.980469 C 118.605469 153.453125 135.4375 143.816406 141.707031 129.726562 C 142.085938 129.691406 142.457031 129.621094 142.820312 129.523438 C 144.664062 134.160156 148.066406 138.246094 152.707031 140.234375 C 158.714844 142.8125 163.804688 140.632812 168.523438 136.75 C 169.105469 136.273438 168.199219 135.839844 167.753906 136.027344 C 161.914062 138.53125 157.074219 138.722656 152.273438 134.136719 C 150.277344 132.230469 148.757812 129.898438 147.109375 127.679688 L 155.136719 124.046875 C 161.371094 121.226562 159.359375 111.898438 152.515625 111.898438 L 129.773438 111.898438 C 122.929688 111.898438 120.917969 121.226562 127.152344 124.046875 L 137.53125 128.742188 C 135.101562 133.367188 132.292969 137.6875 127.949219 140.882812 Z M 240.480469 443.835938 C 240.292969 443.253906 239.394531 443.3125 239.027344 443.636719 C 235.628906 446.628906 235.894531 454.472656 237.964844 458.152344 C 238.585938 459.257812 240.601562 458.890625 240.601562 457.558594 C 240.597656 454.855469 240.066406 452.21875 240.234375 449.503906 C 240.351562 447.589844 241.078125 445.683594 240.480469 443.835938 Z M 226.765625 442.527344 C 222.859375 446.46875 220.992188 456.347656 224.140625 461.152344 C 224.640625 461.910156 226.253906 462.015625 226.464844 460.914062 C 227.039062 457.949219 226.425781 454.847656 226.726562 451.820312 C 227.019531 448.808594 228.285156 445.925781 228.4375 442.9375 C 228.476562 442.144531 227.171875 442.117188 226.765625 442.527344 Z M 340.988281 476.566406 C 339.945312 472.066406 339.933594 467.597656 340.746094 463.054688 C 341.027344 461.46875 338.300781 461.386719 337.941406 462.777344 C 335.933594 470.625 335.539062 483.363281 342.457031 489.097656 C 343.203125 489.71875 345.382812 489.609375 345.09375 488.175781 C 344.28125 484.15625 341.929688 480.617188 340.988281 476.566406 Z M 327.195312 458.863281 C 321.632812 463.777344 315.769531 474.625 319.609375 482.03125 C 320.074219 482.933594 321.765625 482.816406 322.003906 481.78125 C 322.84375 478.144531 322.449219 474.378906 323.464844 470.730469 C 324.601562 466.648438 326.6875 463.261719 328.96875 459.75 C 329.652344 458.699219 327.835938 458.304688 327.195312 458.863281 Z M 108.5 475.46875 C 104.550781 482.265625 104.03125 491.582031 106.867188 498.855469 C 107.503906 500.492188 110.625 499.601562 110.441406 497.882812 C 110.027344 494.015625 109.484375 490.15625 109.726562 486.253906 C 109.945312 482.773438 110.867188 479.460938 111.496094 476.054688 C 111.804688 474.375 109.160156 474.332031 108.5 475.46875 Z M 98.75 466.085938 C 89.191406 471.910156 83.703125 487.601562 88.179688 498 C 88.902344 499.675781 91.820312 498.714844 91.753906 497.027344 C 91.53125 491.328125 91.027344 486.054688 92.726562 480.480469 C 94.285156 475.371094 97.355469 471.464844 100.109375 467.007812 C 100.617188 466.1875 99.339844 465.726562 98.75 466.085938 Z M 192.636719 296.085938 C 193.746094 303.28125 194.800781 309.828125 193.722656 317.160156 C 192.667969 324.335938 190.457031 331.210938 187.578125 337.855469 C 182.257812 350.140625 174.964844 361.65625 171.511719 374.671875 C 171.082031 376.28125 174.035156 376.554688 174.582031 375.261719 C 180.464844 361.347656 188.367188 348.1875 193.4375 333.953125 C 197.535156 322.457031 200.867188 307.039062 194.230469 295.800781 C 193.902344 295.242188 192.503906 295.222656 192.636719 296.085938 Z M 103.054688 299.394531 C 103.167969 298.683594 101.964844 298.546875 101.796875 299.1875 C 95.8125 322.039062 110.496094 341.84375 114.65625 363.523438 C 90.875 347 83.199219 312.09375 54.199219 302.507812 C 53.8125 302.382812 53.34375 302.847656 53.824219 303.0625 C 82.246094 315.796875 87.109375 352.523438 113.3125 367.9375 C 113.941406 368.308594 114.65625 368.3125 115.296875 368.101562 C 116.429688 380.140625 113.207031 392.359375 109.9375 403.859375 C 106.289062 416.707031 102.097656 429.40625 100.691406 442.746094 C 100.382812 445.703125 105.589844 445.398438 105.9375 442.71875 C 107.746094 428.898438 112.128906 415.734375 115.816406 402.351562 C 118.96875 390.902344 121.953125 378.835938 120.535156 366.886719 C 117.796875 343.800781 99.222656 323.320312 103.054688 299.394531 Z M 183.054688 160.113281 C 185.441406 157.554688 180.421875 155.90625 178.480469 157.957031 C 163.78125 173.511719 142.488281 182.527344 121.214844 183.550781 C 109.433594 184.113281 97.933594 181.953125 86.578125 179.039062 C 74.753906 176.003906 63.292969 172.210938 52.179688 167.136719 C 51.4375 166.796875 50.644531 167.761719 51.496094 168.207031 C 74.121094 180.003906 99.609375 189.644531 125.558594 187.402344 C 147.3125 185.519531 168.109375 176.167969 183.054688 160.113281 Z M 342.574219 182.910156 C 341.769531 182.699219 340.367188 183.574219 341.4375 184.3125 C 351.589844 191.3125 358.28125 199.480469 361.417969 211.613281 C 361.945312 213.640625 365.46875 213.054688 365.3125 210.964844 C 364.375 198.492188 354.925781 186.097656 342.574219 182.910156 Z M 317.039062 244.902344 C 317.394531 255.742188 311.613281 265.828125 305.808594 274.574219 C 298.945312 284.917969 291.65625 294.769531 286.890625 306.324219 C 281.945312 318.316406 279.433594 331.441406 280.402344 344.425781 C 280.839844 350.332031 281.964844 356.179688 283.757812 361.824219 C 285.867188 368.460938 289.332031 374.152344 292.269531 380.394531 C 293.179688 382.328125 289.886719 383.867188 288.671875 382.378906 C 287.460938 380.890625 286.351562 379.328125 285.320312 377.726562 C 278.949219 377.777344 272.523438 376.042969 266.257812 375.117188 C 259.472656 374.109375 252.675781 373.179688 245.851562 372.464844 C 232.835938 371.105469 219.769531 370.011719 206.6875 369.59375 C 205.824219 369.566406 205.726562 368.519531 206.621094 368.472656 C 220.839844 367.699219 235.035156 367.632812 249.238281 368.757812 C 255.863281 369.28125 262.472656 369.964844 269.054688 370.886719 C 273.449219 371.503906 278.222656 371.863281 282.640625 373.058594 C 273.078125 354.292969 273.910156 329.824219 280.519531 310.742188 C 288.824219 286.773438 309.972656 269.863281 315.460938 244.839844 C 315.613281 244.136719 317.015625 244.132812 317.039062 244.902344" fill="#3e393a"/></g></g></svg>