<?xml version="1.0" standalone="no"?>
<!DOCTYPE svg PUBLIC "-//W3C//DTD SVG 1.1//EN" "http://www.w3.org/Graphics/SVG/1.1/DTD/svg11.dtd">
<!-- Generator: Adobe Illustrator 16.0.0, SVG Export Plug-In . SVG Version: 6.00 Build 0)  -->
<svg xmlns="http://www.w3.org/2000/svg" xmlns:xlink="http://www.w3.org/1999/xlink" version="1.1" id="Layer_1" x="0px" y="0px" width="489.579px" height="259.561px" viewBox="0 0 489.579 259.561" style="enable-background:new 0 0 489.579 259.561;" xml:space="preserve">
<g id="change1">
	<path style="fill:#318BA2;" d="M399.99,80.383c-8.121,0-15.979,1.1-23.458,3.125C359.838,34.928,313.777,0,259.532,0   c-51.466,0-95.579,31.434-114.223,76.145c-6.647-2.108-13.724-3.253-21.068-3.253c-38.456,0-69.628,31.176-69.628,69.632   c0,0.047,0.003,0.09,0.003,0.137C24.123,144.644,0,169.99,0,200.985c0,32.29,26.174,58.464,58.463,58.464   c0.896,0,1.785-0.027,2.669-0.068l0.006,0.068l0.451-0.084c0.403-0.023,0.799-0.062,1.199-0.092h330.327   c2.271,0.174,4.559,0.287,6.875,0.287c49.48,0,89.589-40.108,89.589-89.586C489.579,120.497,449.471,80.383,399.99,80.383z"/>
</g>
</svg>
