<?xml version="1.0" standalone="no"?>
<!DOCTYPE svg PUBLIC "-//W3C//DTD SVG 1.1//EN" "http://www.w3.org/Graphics/SVG/1.1/DTD/svg11.dtd">
<!-- Generator: Adobe Illustrator 16.0.0, SVG Export Plug-In . SVG Version: 6.00 Build 0)  -->
<svg xmlns="http://www.w3.org/2000/svg" xmlns:xlink="http://www.w3.org/1999/xlink" version="1.1" id="Layer_1" x="0px" y="0px" width="492.174px" height="462.485px" viewBox="0 0 492.174 462.485" style="enable-background:new 0 0 492.174 462.485;" xml:space="preserve">
<g id="change1">
	<path style="fill-rule:evenodd;clip-rule:evenodd;fill:#D2DF64;" d="M344.928,338.617c-5.973-3.993-8.059-9.585-7.487-16.422   c0.266-3.146,0.643-6.309,1.37-9.373c1.223-5.186,0.279-9.468-3.451-13.507c-6.243-6.76-14.356-7.369-22.222-6.074   c-11.506,1.9-22.833,5.068-34.124,8.105c-3.729,0.997-6.719,1.281-9.024-2.198c-1.483-2.242-3.201-2.012-5.052-0.726   c-4.316,3.009-8.595,6.055-12.855,9.143c-0.773,0.555-1.357,1.357-2.652,2.688c2.599,0.425,4.36,0.958,6.122,0.953   c4.36,0,8.711-0.145,13.062-0.406c9.979-0.609,19.026,2.266,27.444,7.352c1.397,0.848,2.185,2.702,3.263,4.102   c-0.439,0.735-0.88,1.479-1.33,2.226c-1.402-0.935-2.696-2.157-4.229-2.749c-5.399-2.099-10.747-4.991-16.356-5.713   c-9.901-1.272-19.983-1.173-29.995-1.66c-3.035-0.153-5.52,0.73-7.69,2.576h-18.521c-2.523,0.849-5.085,1.62-7.573,2.572   c-6.027,2.311-11.857,5.609-18.091,6.828c-7.659,1.503-15.641,1.408-23.503,1.72c-1.444,0.062-2.95-1.201-4.434-1.852   c0.132-0.355,0.268-0.722,0.4-1.082c12.894,0.794,25.699,1.114,37.295-5.646c-0.032-0.497-0.067-0.993-0.097-1.494   c-3.964,0.203-7.917,0.402-11.869,0.605c0.825-1.26,1.771-1.95,2.823-2.217c7.154-1.778,14.305-3.642,21.525-5.149   c5.785-1.213,12.14-0.875,17.415-3.149c9.922-4.292,19.312-9.829,28.764-15.141c2.963-1.67,5.385-4.296,8.58-6.914   c-5.456-2.652-10.216-1.826-14.877-1.443c-17.669,1.476-34.858,5.411-51.828,10.397c-14.738,4.328-29.063,9.991-44.417,12.325   c-9.796,1.484-18.705,5.934-27.575,12.323c11.097,1.611,20.761-2.554,31.73-4.074c-1.157,1.309-1.351,1.679-1.651,1.859   c-10.981,6.349-23.031,8.042-35.432,8.113c-1.27,0.014-2.897-0.221-3.747-1.016c-1.551-1.43-3.259-3.227-3.683-5.14   c-0.239-1.074,1.739-3.042,3.135-3.976c1.472-0.983,3.425-1.25,5.182-1.782c5.911-1.783,12.019-3.091,17.709-5.425   c9.349-3.822,18.689-7.184,28.93-7.414c2.032-0.041,4.072-1.011,6.059-1.688c13.347-4.558,26.496-9.843,40.082-13.506   c10.088-2.726,20.703-3.66,31.155-4.815c9.133-1.011,18.329-2.347,27.552,0.248c2.081,0.582,5.07-0.239,7.038-1.431   c7.184-4.327,12.739-10.362,15.857-18.25c5.106-12.947,1.493-25.769-7.435-32.591c-10.229-7.825-22.378-11.869-35.512-11.896   c-1.703,0-3.412,0.551-5.942,0.989c1.713,2.41,3.007,3.895,3.871,5.591c0.448,0.871,0.13,2.139,0.156,3.222   c-0.947-0.054-2.009,0.153-2.831-0.198c-10.108-4.274-20.606-6.652-31.573-6.959c-1.512-0.041-3.002-0.704-4.526-0.938   c-2.769-0.424-6.032-1.846-8.239-0.889c-6.596,2.865-12.868,6.53-19.091,10.163c-7.122,4.17-13.59,9.734-22.813,8.096   c-10.401-1.855-20.512-0.921-29.842,4.54c-5.695,3.339-11.374,6.724-16.864,10.397c-2.479,1.656-4.936,3.728-6.583,6.178   c-3.241,4.793-5.841,10.023-8.816,15.005c-4.549,7.622-8.192,15.7-8.344,24.626c-0.304,17.623,0.941,35.028,7.274,51.856   c6.794,18.07,12.868,36.428,19.07,54.709c1.936,5.713,3.266,11.63,4.871,17.451c0.701,1.431,1.402,2.86,2.104,4.292   c1.44,2.202,3.056,4.305,4.286,6.615c7.294,13.72,18.578,21.896,33.636,25.38c12.565,2.91,24.662,0.804,36.706-2.486   c2.144-0.592,4.795-1.647,5.885-3.339c3.072-4.775,7.275-7.934,12.042-10.601c3.344-1.878,6.639-3.859,10.046-5.619   c1.553-0.799,3.324-1.182,4.996-1.755c0.4,0.356,0.804,0.712,1.209,1.078c-1.544,2.762-3.083,5.528-4.805,8.633   c8.092,0.379,15.421,0.723,23.845,1.124c-1.857-2.383-3.236-3.89-4.307-5.591c-2.116-3.326-4.585-6.558-5.969-10.19   c-4.571-12.059-4.254-24.662-3.129-37.254c0.183-1.998-0.164-5.022,3.079-4.904c0.427,0.017,1.335,3.736,0.962,5.515   c-2.85,13.498-0.912,26.07,6.778,37.578c5.613,8.402,12.203,15.564,22.541,18.285c9.276,2.446,18.364,1.638,27.322-1.033   c12.837-3.845,23.171-11.034,28.426-23.923c2.947-7.238,5.235-14.747,7.968-22.071c1.236-3.326,2.868-6.504,4.239-9.78   c2.692-6.438,6.135-12.717,7.808-19.431c2.296-9.176,1.986-18.508-4.684-26.311C349.509,342.593,347.4,340.268,344.928,338.617z"/>
	<path style="fill-rule:evenodd;clip-rule:evenodd;fill:#D2DF64;" d="M98.436,89.064c0.6,1.187,2.858,2.257,4.261,2.157   c2.495-0.181,4.929-1.287,8.702-2.387c-1.795,5.082-2.483,9.784-4.913,13.254c-3.766,5.379-3.911,10.722-1.688,16.174   c5.749,14.116,11.835,28.092,17.889,42.077c1.798,4.161,4.049,7.983,10.68,5.637c-0.771,2.505-1.463,4.125-1.751,5.826   c-0.573,3.294-1.859,6.859-1.153,9.915c1.355,5.875,3.47,11.679,6.077,17.13c2.014,4.229,4.654,8.542,8.083,11.625   c6.85,6.155,18.617,2.577,21.736-6.494c4.906-14.288,1.573-27.713-5.65-40.34c-0.748-1.313-3.906-2.459-5.283-1.936   c-3.875,1.462-7.43,3.791-11.059,5.871c-2.41,1.381-4.735,2.92-7.999,4.946c0.355-7.306,5.027-10.1,8.879-13.119   c3.931-3.086,8.475-5.397,13.522-8.529c-2.158,0.334-3.976,0.208-5.378,0.912c-4.241,2.125-8.302,4.621-12.487,6.873   c-1.204,0.641-2.593,0.948-3.894,1.413c1.184-5.063,3.384-8.583,7.935-10.104c2.121-0.717,4.427-1.363,6.126-2.708   c1.261-0.997,2.382-3.091,2.346-4.666c-0.081-4.224-0.65-8.461-1.324-12.636c-1.674-10.334-3.515-20.642-8.956-29.834   c-3.929-6.629-9.664-8.516-16.399-4.938c-4.767,2.537-9.178,5.731-13.864,8.43c-1.027,0.591-2.537,0.33-3.827,0.46   c0.537-1.237,0.742-2.965,1.674-3.62c3.12-2.17,6.435-4.066,9.79-5.857c2.2-1.169,4.591-1.963,6.897-2.924   c-0.141-0.357-0.281-0.704-0.418-1.052c-3.935,1.042-7.866,2.08-11.8,3.127c-0.216-0.303-0.434-0.601-0.643-0.903   c0.558-0.898,0.921-2.229,1.729-2.608c3.177-1.525,6.4-3.448,9.789-3.926c6.904-0.979,6.964-0.632,7.082-7.636   c0.021-1.056-0.112-2.112-0.202-3.167c-1.183-14.103-5.463-27.23-12.491-39.451c-3.297-5.745-7.286-10.871-14.32-12.153   c-2.805-0.509-5.682-0.563-8.524-0.826c-2.848,1.404-5.697,2.812-8.542,4.215c-5.59,6.237-6.74,13.502-4.98,21.463   C87.199,62.795,91.984,76.248,98.436,89.064z"/>
	<path style="fill-rule:evenodd;clip-rule:evenodd;fill:#D2DF64;" d="M486.102,269.071c-0.701-1.426-1.402-2.857-2.104-4.283   c-0.593-0.514-1.316-0.926-1.758-1.548c-3.771-5.397-8.93-8.317-15.349-9.611c-7.452-1.503-14.778-0.872-21.952,0.974   c-8.998,2.329-16.234,6.725-21.413,13.43l-0.035-0.049c-0.292,0.438-0.585,0.849-0.882,1.277c-0.377,0.541-0.763,1.069-1.118,1.638   c-3.821,5.537-7.628,10.582-11.246,15.041c-2.279-0.279-2.791,1.814-3.259,3.931c-11.106,13.114-19.659,20.376-19.659,20.376   l-0.509,1.426c-6.05,2.112-11.695,5.117-17.317,8.462c-7.008,4.169-9.106,10.019-9.295,17.107   c-0.162,5.962,1.114,11.647,4.827,16.77c4.198,5.781,9.331,6.024,13.731,0.41c2.665-3.397,5.65-2.652,8.967-5.41   c5.07-4.201,10.392-8.154,15.902-11.756c5.191-3.403,7.542,0.167,7.146-5.975c-0.067-1.188,0.638-6.427,0.979-7.641   c0.404,0,0.809,0,1.214,0c1.479,4.065,3.065,0.091,4.404,4.201c1.465,4.504,1.69,4.526,5.345,1.832   c2.408-1.782,5.173-3.108,7.852-4.485c13.103-6.706,27.728-10.213,39.185-20.385C480.613,295.155,489.364,285.014,486.102,269.071z   "/>
	<path style="fill-rule:evenodd;clip-rule:evenodd;fill:#D2DF64;" d="M192.004,86.618c1.059,6.354,0.762,12.627,0.973,18.963   c0.47,14.229,2.749,28.408,4.435,42.587c0.312,2.64,2.157,3.448,4.704,2.482c2.22-0.848,4.463-1.647,6.729-2.337   c3.27-0.998,4.187-0.063,3.357,3.493c0.697-0.068,1.351-0.222,1.984-0.167c0.807,0.063,1.593,0.298,2.391,0.451   c-0.49,0.795-0.892,1.684-1.508,2.36c-0.42,0.46-1.124,0.7-1.744,0.921c-5.996,2.18-8.803,7.044-9.025,12.871   c-0.456,11.796,3.996,21.959,12.149,30.389c6.677,6.896,12.396,6.16,17.796-1.71c7.115-10.366,7.131-21.937,5.967-33.693   c-0.503-5.094-2.321-6.548-7.967-7.73c-1.843-0.384-3.652-0.912-5.475-1.372c0.007-0.659,0.016-1.327,0.022-1.985   c2.083-0.145,4.225-0.664,6.239-0.343c3.079,0.497,5.029-0.609,5.773-3.407c0.947-3.57,1.659-7.216,2.167-10.876   c1.706-12.532-2.326-24.382-4.396-36.481c-0.503-2.893-2.724-2.812-4.51-2.663c-7.082,0.582-14.138,1.471-21.208,2.252   c-1.43,0.158-2.895,0.587-4.284,0.424c-0.867-0.09-2.072-0.893-2.337-1.651c-0.276-0.786,0.099-2.351,0.728-2.798   c4.883-3.43,9.623-7.244,14.956-9.766c3.517-1.647,7.96-1.3,11.967-1.936c3.021-0.474,4.598-1.724,3.956-5.384   c-1.706-9.748-3.068-19.554-4.427-29.36c-1.465-10.609-2.544-21.282-4.261-31.851c-0.852-5.244-3.745-9.49-8.722-12.13   c-12.655-6.733-26.795,4.63-29.706,15.05c-2.737,9.784-2.724,19.965-1.623,30.001C188.401,63.057,190.033,74.872,192.004,86.618z"/>
	<path style="fill-rule:evenodd;clip-rule:evenodd;fill:#D2DF64;" d="M273.751,210.07c6.8,4.058,15.003,2.094,19.673-5.88   c3.848-6.57,10.725-21.765,13.521-28.882c1.767-4.499-0.378-8.43-4.45-11.11c-4.935-3.258-12.639-0.239-18.42-2.342   c-0.121-0.041-0.098-0.474-0.306-1.602c1.929-0.542,3.974-1.684,5.942-1.543c4.45,0.325,9.026,0.763,13.232,2.125   c3.816,1.241,5.47,0.167,7.008-3.141c4.948-10.687,5.406-22.041,5.056-33.476c-0.053-1.584-1.689-3.312-2.957-4.625   c-1.879-1.94-4.077-3.565-6.148-5.321c0.314-0.492,0.624-0.983,0.931-1.471c2.772,1.065,5.532,2.135,8.301,3.204   c0.243-0.438,0.485-0.875,0.729-1.313c-3.69-2.18-7.38-4.359-11.066-6.535c0.145-0.501,0.292-1.002,0.432-1.512   c2.67,0.293,5.35,0.451,7.982,0.907c5.398,0.929,8.145-1.35,7.835-6.67c-0.495-8.443-1.021-16.891-1.443-25.339   c-0.287-5.781-1.239-11.747,3.74-16.358c0.44-0.406,0.603-1.196,0.719-1.841c1.789-10.668,2.517-21.35-0.971-31.829   c-2.544-7.626-11.044-12.383-18.68-10.244c-8.828,2.486-14.689,8.913-16.801,17.406c-3.767,15.19-5.79,30.728-4.939,46.509   c0.183,3.525-0.09,7.072-0.158,10.605c-0.045,2.952-0.107,5.903-0.161,8.953c15.506-2.265,15.506-2.265,18.939,0.655   c-3.64,0.898-6.8,1.688-10.193,2.532c2.292,1.444,4.261,2.694,6.787,4.278c-4.374,3.051-8.405,2.243-12.267,2.248   c-2.44,0-4.525,0.28-4.952,3.263c-1.875,13.124-3.807,26.242-5.614,39.379c-0.328,2.409,0.071,4.544,3.47,4.287   c0.729-0.059,1.546,1.011,2.328,1.557c-0.575,0.803-0.988,1.873-1.771,2.351c-1.763,1.101-3.713,1.909-5.582,2.83   c0.306,0.176,0.615,0.361,0.917,0.537c-1.097,2.767-2.774,5.452-3.187,8.326c-1.336,9.287-2.486,18.629-3.134,27.984   C267.791,203.418,269.484,207.534,273.751,210.07z"/>
	<path style="fill-rule:evenodd;clip-rule:evenodd;fill:#D2DF64;" d="M110.81,230.536c-0.571-8.123-4.647-14.915-8.4-21.698   c-5.063-9.156-11.378-17.423-19.898-23.8c-1.562-1.173-2.571-3.235-3.531-5.05c-1.481-2.784-2.46-5.83-4.065-8.52   c-5.702-9.549-13.628-17.09-21.775-24.5c-3.052-2.78-5.607-6.291-7.755-9.847c-4.724-7.816-8.949-15.939-13.569-23.828   c-3.98-6.787-12.159-9.648-19.233-7.031c-5.263,1.945-7.935,8.015-7.027,15.791c0.982,8.493,4.74,15.961,8.609,23.345   c2.126,4.066,4.567,4.765,8.919,3.118c1.962-0.749,3.747-2.013,5.729-2.676c1.331-0.446,2.877-0.248,4.333-0.334   c-0.601,1.277-0.868,3.001-1.861,3.764c-2.573,1.977-5.47,3.547-8.497,5.429c2.337,4.337,3.178,4.377,6.03,0.659   c0.676-0.889,2.009-1.282,3.041-1.9c-0.094,1.25-0.137,2.514-0.301,3.764c-0.362,2.649-1.371,5.379-1.032,7.933   c0.414,3.083,1.946,6.011,2.991,9.012c4.115,11.923,11.592,20.994,22.801,26.811c3.848,1.991,7.553,1.977,10.929-1.318   c1.393-1.354,3.135-2.378,4.809-3.402c0.441-0.271,1.565-0.217,1.76,0.094c0.355,0.546,0.577,1.634,0.261,2.076   c-1.128,1.588-2.407,3.109-3.816,4.458c-2.418,2.329-3.978,4.815-1.616,7.965c7.438,9.915,14.7,19.983,22.549,29.564   c4.1,4.995,8.352,5.365,13.453,2.879C108.677,241.339,111.185,235.897,110.81,230.536z"/>
	<path style="fill-rule:evenodd;clip-rule:evenodd;fill:#D2DF64;" d="M311.232,278.99c-1.618-2.491-3.479-1.9-5.201-0.059   c-2.998,3.223-6.927,3.885-11.007,4.752c-2.939,0.604-5.579,2.612-8.378,3.948c-3.106,1.472-6.221,2.961-9.394,4.297   c-0.917,0.384-2.136,0.045-3.049,0.442c-0.88,0.374-1.536,1.263-2.301,1.932c0.737,0.829,1.452,2.351,2.207,2.368   c3.057,0.068,6.193-0.026,9.183-0.646c3.182-0.653,6.202-2.09,9.349-2.974c4.148-1.159,8.352-2.12,12.535-3.177   c-0.076-0.267-0.156-0.537-0.229-0.809c2.014-0.992,4.226-1.723,6-3.041C313.694,283.977,312.77,281.35,311.232,278.99z"/>
</g>
</svg>
