<?xml version="1.0" encoding="UTF-8"?><!-- Generator: Adobe Illustrator 18.0.0, SVG Export Plug-In . SVG Version: 6.00 Build 0)  --><svg xmlns="http://www.w3.org/2000/svg" enable-background="new 341.4 1.9 615.5 595.4" id="Layer_1" version="1.1" viewBox="341.4 1.9 615.5 595.4" x="0px" xml:space="preserve" y="0px">
<g id="change1">
	<g>
		<path d="m611.2 214.4c3.1-52.5 24.8-99.1 56.5-139.2 32.5-41 101.3-71.6 157-73.2 70.4-3 126.1 54.6 131.4 122 10.9 136.9-97.1 197.8-152.3 311.7-24.8 51-16.2 151.6-18.5 161.6-26.3-64.2-55.7-104.5-115.2-141.5-51.8-32.4-122.3-44.8-177-69.5-55.7-25.5-105.2-58.8-130.6-116-20.9-44.8-35.6-112.8 2.3-151.6 27.9-28.6 89-44.8 121.4-35.6 57.4 16.3 110.3 74.9 125 131.3" fill="#EA60A9"/>
	</g>
</g>
</svg>