<?xml version="1.0" encoding="UTF-8"?>
<svg width="55px" height="55px" viewBox="0 0 55 55" version="1.1" xmlns="http://www.w3.org/2000/svg" xmlns:xlink="http://www.w3.org/1999/xlink">
    <!-- Generator: Sketch 62 (91390) - https://sketch.com -->
    <title>Group 3</title>
    <desc>Created with Sketch.</desc>
    <g id="Page-1" stroke="none" stroke-width="1" fill="none" fill-rule="evenodd">
        <g id="Group-3" transform="translate(-5.000000, -2.000000)" fill-rule="nonzero">
            <g id="Group-2" transform="translate(31.403916, 30.430401) rotate(-174.000000) translate(-31.403916, -30.430401) translate(3.403916, 2.930401)" fill="#74A1E6">
                <g id="Group" transform="translate(0.592994, 0.687859)">
                    <g id="blob" transform="translate(27.146027, 27.334005) scale(1, -1) translate(-27.146027, -27.334005) translate(0.146027, 0.834005)">
                        <path d="M41.6985293,1.47750039 C45.2118585,3.86027218 46.5157745,9.74274004 48.6165281,15.029515 C50.7172816,20.3535207 53.5786528,25.1190643 52.9266948,29.3261457 C52.2747368,33.5332271 48.1094496,37.1446156 44.2701414,40.3464652 C40.4308332,43.511084 36.9537239,46.2661639 32.6797771,48.6117049 C28.4058302,50.9944767 23.3712657,52.9304787 19.1697586,51.7763237 C14.9682515,50.5849378 11.5998019,46.2661639 9.42660858,41.9101592 C7.25341526,37.5169237 6.23925838,33.0864574 4.21094462,27.9858366 C2.21885075,22.8479849 -0.787400009,17.0027478 0.190536984,12.3116659 C1.16847398,7.58335311 6.13059872,4.00919542 11.2013831,2.37103981 C16.3083874,0.732884208 21.5240514,1.03073068 26.9932546,0.62119178 C32.4624577,0.211652879 38.1852001,-0.905271398 41.6985293,1.47750039 Z" id="Path"></path>
                    </g>
                </g>
            </g>
            <path d="M49.9966262,15.7744807 L49.9966262,15.7744807 C51.7296446,16.3916914 52.5961538,17.214639 52.5961538,18.2433234 L52.5961538,18.2433234 C52.5961538,18.5776459 52.4409582,19.2077151 52.1305668,20.1335312 L52.1305668,20.1335312 L44.6811741,41.5430267 C44.6294422,41.7230465 44.5389114,41.9416419 44.4095816,42.1988131 C44.2802519,42.4559842 43.9375281,42.7967359 43.3814103,43.2210682 C42.8252924,43.6454006 42.1657108,43.8575668 41.4026653,43.8575668 C40.6396199,43.8575668 39.9800382,43.6454006 39.4239204,43.2210682 C38.8678025,42.7967359 38.4992128,42.3788328 38.3181511,41.9673591 L38.3181511,41.9673591 L33.7786775,28.6587537 C30.9075574,37.0939664 29.4461314,41.388724 29.3943995,41.5430267 C29.3426676,41.6973294 29.2262708,41.9159248 29.0452092,42.1988131 C28.8641475,42.4817013 28.65722,42.7388724 28.4244265,42.9703264 L28.4244265,42.9703264 C27.8295097,43.56182 27.1181961,43.8575668 26.2904858,43.8575668 C25.4627755,43.8575668 24.7837944,43.6646884 24.2535425,43.2789318 C23.7232906,42.8931751 23.3676338,42.5074184 23.1865722,42.1216617 L23.1865722,42.1216617 L22.9149798,41.5430267 L15.4267881,20.1335312 C15.1422627,19.2848665 15,18.6547972 15,18.2433234 L15,18.2433234 C15,17.214639 15.8665092,16.40455 17.5995277,15.8130564 L17.5995277,15.8130564 C18.3496401,15.5558853 19.0286212,15.4272997 19.636471,15.4272997 C20.2443207,15.4272997 20.7099078,15.6330366 21.0332321,16.0445104 C21.3565565,16.4559842 21.6475484,17.0860534 21.9062078,17.9347181 L21.9062078,17.9347181 L26.1740891,30.8189911 L30.4031714,18.1275964 C30.7652946,17.0474777 31.4248763,16.3016815 32.3819163,15.8902077 L32.3819163,15.8902077 C32.7957715,15.7101879 33.3324899,15.620178 33.9920715,15.620178 C34.6516532,15.620178 35.2659694,15.8323442 35.8350202,16.2566766 C36.4040711,16.6810089 36.7661943,17.098912 36.92139,17.5103858 L36.92139,17.5103858 L41.3832659,30.8961424 L45.6511471,17.9347181 C45.8580747,17.3432245 46.0262033,16.9060336 46.1555331,16.6231454 C46.2848628,16.3402572 46.5241228,16.0637982 46.8733131,15.7937685 C47.2225034,15.5237389 47.655758,15.388724 48.1730769,15.388724 C48.6903959,15.388724 49.2982456,15.5173096 49.9966262,15.7744807 Z" id="Shape" fill="#FFFFFF"></path>
            <path d="M49.9966262,15.7744807 L49.9966262,15.7744807 C51.7296446,16.3916914 52.5961538,17.214639 52.5961538,18.2433234 L52.5961538,18.2433234 C52.5961538,18.5776459 52.4409582,19.2077151 52.1305668,20.1335312 L52.1305668,20.1335312 L44.6811741,41.5430267 C44.6294422,41.7230465 44.5389114,41.9416419 44.4095816,42.1988131 C44.2802519,42.4559842 43.9375281,42.7967359 43.3814103,43.2210682 C42.8252924,43.6454006 42.1657108,43.8575668 41.4026653,43.8575668 C40.6396199,43.8575668 39.9800382,43.6454006 39.4239204,43.2210682 C38.8678025,42.7967359 38.4992128,42.3788328 38.3181511,41.9673591 L38.3181511,41.9673591 L33.7786775,28.6587537 C30.9075574,37.0939664 29.4461314,41.388724 29.3943995,41.5430267 C29.3426676,41.6973294 29.2262708,41.9159248 29.0452092,42.1988131 C28.8641475,42.4817013 28.65722,42.7388724 28.4244265,42.9703264 L28.4244265,42.9703264 C27.8295097,43.56182 27.1181961,43.8575668 26.2904858,43.8575668 C25.4627755,43.8575668 24.7837944,43.6646884 24.2535425,43.2789318 C23.7232906,42.8931751 23.3676338,42.5074184 23.1865722,42.1216617 L23.1865722,42.1216617 L22.9149798,41.5430267 L15.4267881,20.1335312 C15.1422627,19.2848665 15,18.6547972 15,18.2433234 L15,18.2433234 C15,17.214639 15.8665092,16.40455 17.5995277,15.8130564 L17.5995277,15.8130564 C18.3496401,15.5558853 19.0286212,15.4272997 19.636471,15.4272997 C20.2443207,15.4272997 20.7099078,15.6330366 21.0332321,16.0445104 C21.3565565,16.4559842 21.6475484,17.0860534 21.9062078,17.9347181 L21.9062078,17.9347181 L26.1740891,30.8189911 L30.4031714,18.1275964 C30.7652946,17.0474777 31.4248763,16.3016815 32.3819163,15.8902077 L32.3819163,15.8902077 C32.7957715,15.7101879 33.3324899,15.620178 33.9920715,15.620178 C34.6516532,15.620178 35.2659694,15.8323442 35.8350202,16.2566766 C36.4040711,16.6810089 36.7661943,17.098912 36.92139,17.5103858 L36.92139,17.5103858 L41.3832659,30.8961424 L45.6511471,17.9347181 C45.8580747,17.3432245 46.0262033,16.9060336 46.1555331,16.6231454 C46.2848628,16.3402572 46.5241228,16.0637982 46.8733131,15.7937685 C47.2225034,15.5237389 47.655758,15.388724 48.1730769,15.388724 C48.6903959,15.388724 49.2982456,15.5173096 49.9966262,15.7744807 Z" id="Shape" fill="#FFFFFF"></path>
        </g>
    </g>
</svg>