<?xml version="1.0" encoding="UTF-8"?>
<svg width="240px" height="55px" viewBox="0 0 240 55" version="1.1" xmlns="http://www.w3.org/2000/svg" xmlns:xlink="http://www.w3.org/1999/xlink">
    <!-- Generator: Sketch 62 (91390) - https://sketch.com -->
    <title>Group 3</title>
    <desc>Created with Sketch.</desc>
    <g id="Page-1" stroke="none" stroke-width="1" fill="none" fill-rule="evenodd">
        <g id="Group-3" transform="translate(-13.000000, -13.000000)">
            <g id="Group-2" transform="translate(82.481943, 42.941559) rotate(-174.000000) translate(-82.481943, -42.941559) translate(3.481943, 8.441559)" fill="#74A1E6" fill-rule="nonzero">
                <g id="Group" transform="translate(0.592994, 0.687859)">
                    <g id="blob" transform="translate(121.146027, 31.334005) scale(1, -1) translate(-121.146027, -31.334005) translate(94.146027, 4.834005)">
                        <path d="M41.6985293,1.47750039 C45.2118585,3.86027218 46.5157745,9.74274004 48.6165281,15.029515 C50.7172816,20.3535207 53.5786528,25.1190643 52.9266948,29.3261457 C52.2747368,33.5332271 48.1094496,37.1446156 44.2701414,40.3464652 C40.4308332,43.511084 36.9537239,46.2661639 32.6797771,48.6117049 C28.4058302,50.9944767 23.3712657,52.9304787 19.1697586,51.7763237 C14.9682515,50.5849378 11.5998019,46.2661639 9.42660858,41.9101592 C7.25341526,37.5169237 6.23925838,33.0864574 4.21094462,27.9858366 C2.21885075,22.8479849 -0.787400009,17.0027478 0.190536984,12.3116659 C1.16847398,7.58335311 6.13059872,4.00919542 11.2013831,2.37103981 C16.3083874,0.732884208 21.5240514,1.03073068 26.9932546,0.62119178 C32.4624577,0.211652879 38.1852001,-0.905271398 41.6985293,1.47750039 Z" id="Path"></path>
                    </g>
                </g>
            </g>
            <g id="Group" transform="translate(22.500000, 25.000000)">
                <g transform="translate(84.500000, 0.000000)">
                    <g></g>
                </g>
                <path d="M35.4966262,1.77448071 L35.4966262,1.77448071 C37.2296446,2.39169139 38.0961538,3.21463897 38.0961538,4.24332344 L38.0961538,4.24332344 C38.0961538,4.5776459 37.9409582,5.20771513 37.6305668,6.13353116 L37.6305668,6.13353116 L30.1811741,27.5430267 C30.1294422,27.7230465 30.0389114,27.9416419 29.9095816,28.1988131 C29.7802519,28.4559842 29.4375281,28.7967359 28.8814103,29.2210682 C28.3252924,29.6454006 27.6657108,29.8575668 26.9026653,29.8575668 C26.1396199,29.8575668 25.4800382,29.6454006 24.9239204,29.2210682 C24.3678025,28.7967359 23.9992128,28.3788328 23.8181511,27.9673591 L23.8181511,27.9673591 L19.2786775,14.6587537 C16.4075574,23.0939664 14.9461314,27.388724 14.8943995,27.5430267 C14.8426676,27.6973294 14.7262708,27.9159248 14.5452092,28.1988131 C14.3641475,28.4817013 14.15722,28.7388724 13.9244265,28.9703264 L13.9244265,28.9703264 C13.3295097,29.56182 12.6181961,29.8575668 11.7904858,29.8575668 C10.9627755,29.8575668 10.2837944,29.6646884 9.75354251,29.2789318 C9.2232906,28.8931751 8.86763383,28.5074184 8.6865722,28.1216617 L8.6865722,28.1216617 L8.41497976,27.5430267 L0.926788124,6.13353116 C0.642262708,5.28486647 0.5,4.65479723 0.5,4.24332344 L0.5,4.24332344 C0.5,3.21463897 1.36650922,2.40454995 3.09952767,1.81305638 L3.09952767,1.81305638 C3.84964013,1.55588526 4.52862123,1.4272997 5.13647099,1.4272997 C5.74432074,1.4272997 6.20990778,1.6330366 6.53323212,2.04451039 C6.85655646,2.45598417 7.14754836,3.08605341 7.40620783,3.9347181 L7.40620783,3.9347181 L11.6740891,16.8189911 L15.9031714,4.12759644 C16.2652946,3.04747774 16.9248763,2.3016815 17.8819163,1.89020772 L17.8819163,1.89020772 C18.2957715,1.71018793 18.8324899,1.62017804 19.4920715,1.62017804 C20.1516532,1.62017804 20.7659694,1.83234421 21.3350202,2.25667656 C21.9040711,2.6810089 22.2661943,3.09891197 22.42139,3.51038576 L22.42139,3.51038576 L26.8832659,16.8961424 L31.1511471,3.9347181 C31.3580747,3.34322453 31.5262033,2.90603363 31.6555331,2.6231454 C31.7848628,2.34025717 32.0241228,2.06379822 32.3733131,1.79376855 C32.7225034,1.52373887 33.155758,1.38872404 33.6730769,1.38872404 C34.1903959,1.38872404 34.7982456,1.51730959 35.4966262,1.77448071 Z M36.9321862,19.7507418 C36.9321862,16.6646884 38.018556,14.1186944 40.1912955,12.1127596 C42.3640351,10.1068249 44.847166,9.10385757 47.6406883,9.10385757 C50.4342105,9.10385757 52.9044085,10.1003956 55.0512821,12.0934718 C57.1981556,14.086548 58.2715924,16.6261128 58.2715924,19.7121662 L58.2715924,19.7121662 C58.2715924,21.8466864 57.7154746,23.7433234 56.6032389,25.4020772 C55.4910031,27.0608309 54.1395074,28.2823937 52.5487517,29.0667656 C50.957996,29.8511375 49.3090418,30.2433234 47.6018893,30.2433234 C45.8947368,30.2433234 44.2393162,29.8254204 42.6356275,28.9896142 C41.0319388,28.1538081 39.6804431,26.9193867 38.5811404,25.2863501 C37.4818376,23.6533136 36.9321862,21.8081108 36.9321862,19.7507418 L36.9321862,19.7507418 Z M45.0411606,22.5089021 C45.8688709,23.1389713 46.7095142,23.4540059 47.5630904,23.4540059 C48.4166667,23.4540059 49.2702429,23.132542 50.1238192,22.4896142 C50.9773954,21.8466864 51.4041835,20.8951533 51.4041835,19.6350148 C51.4041835,18.3748764 51.0032614,17.4362018 50.201417,16.8189911 C49.3995726,16.2017804 48.5330634,15.8931751 47.6018893,15.8931751 C46.6707152,15.8931751 45.804206,16.214639 45.0023617,16.8575668 C44.2005173,17.5004946 43.7995951,18.4455984 43.7995951,19.6928783 C43.7995951,20.9401583 44.2134503,21.8788328 45.0411606,22.5089021 Z M74.6835358,9.79821958 C75.1749888,9.95252226 75.5823774,10.2161227 75.9057018,10.5890208 C76.2290261,10.9619189 76.3906883,11.5598417 76.3906883,12.3827893 C76.3906883,13.2057369 76.1449618,14.1058358 75.6535088,15.0830861 C75.1620558,16.0603363 74.4507422,16.5489614 73.5195682,16.5489614 L73.5195682,16.5489614 C73.0539811,16.5489614 72.6077935,16.446093 72.1810054,16.2403561 C71.7542173,16.0346192 71.1916329,15.9317507 70.4932524,15.9317507 C69.7948718,15.9317507 69.1417566,16.1760633 68.5339069,16.6646884 C67.9260571,17.1533136 67.6221323,17.7448071 67.6221323,18.4391691 L67.6221323,18.4391691 L67.6221323,26.5400593 C67.6221323,27.1315529 67.6027328,27.5751731 67.5639339,27.8709199 C67.525135,28.1666667 67.4022717,28.5074184 67.1953441,28.8931751 L67.1953441,28.8931751 C66.8073549,29.56182 65.798583,29.8961424 64.1690283,29.8961424 L64.1690283,29.8961424 C62.9274629,29.8961424 62.0350877,29.677547 61.4919028,29.2403561 L61.4919028,29.2403561 C61.0780477,28.8803165 60.8452542,28.3273986 60.7935223,27.5816024 L60.7935223,27.5816024 C60.7935223,27.3244313 60.7935223,26.9515331 60.7935223,26.462908 L60.7935223,26.462908 L60.7935223,12.9228487 C60.7935223,12.3313551 60.8129217,11.8877349 60.8517206,11.5919881 C60.8905196,11.2962413 61.0004498,10.9683482 61.1815115,10.6083086 L61.1815115,10.6083086 C61.5436347,9.91394659 62.5524067,9.56676558 64.2078273,9.56676558 L64.2078273,9.56676558 C65.7597841,9.56676558 66.7297571,9.86251236 67.1177463,10.4540059 L67.1177463,10.4540059 C67.4022717,10.8654797 67.5445344,11.2898121 67.5445344,11.727003 L67.5445344,11.727003 C67.6738641,11.5469832 67.8613923,11.3283877 68.1071188,11.0712166 C68.3528453,10.8140455 68.8766307,10.4668645 69.678475,10.0296736 C70.4803194,9.59248269 71.1851664,9.37388724 71.7930162,9.37388724 C72.4008659,9.37388724 72.9117184,9.40603363 73.3255735,9.47032641 C73.7394287,9.53461919 74.1920828,9.64391691 74.6835358,9.79821958 Z M91.0760796,1.09940653 C91.2700742,0.726508408 91.612798,0.462908012 92.104251,0.308605341 C92.595704,0.154302671 93.2488192,0.0771513353 94.0635965,0.0771513353 C94.8783738,0.0771513353 95.531489,0.154302671 96.022942,0.308605341 C96.514395,0.462908012 96.8571188,0.732937685 97.0511134,1.11869436 C97.245108,1.50445104 97.3615047,1.84520277 97.4003036,2.14094955 C97.4391026,2.43669634 97.458502,2.88031652 97.458502,3.47181009 L97.458502,3.47181009 L97.458502,26.5014837 C97.458502,27.0929773 97.4391026,27.5365974 97.4003036,27.8323442 C97.3615047,28.128091 97.2386415,28.4559842 97.0317139,28.8160237 L97.0317139,28.8160237 C96.6437247,29.5103858 95.5508884,29.8575668 93.7532051,29.8575668 C91.9555218,29.8575668 90.9532164,29.2274975 90.7462888,27.9673591 L90.7462888,27.9673591 C89.659919,29.2017804 88.1467611,29.8189911 86.2068151,29.8189911 L86.2068151,29.8189911 C83.8788799,29.8189911 81.7578722,28.8095945 79.8437922,26.7908012 C77.9297121,24.7720079 76.9726721,22.4188922 76.9726721,19.731454 C76.9726721,17.0440158 77.9361786,14.6844708 79.8631916,12.652819 C81.7902047,10.6211672 83.9047458,9.60534125 86.2068151,9.60534125 L86.2068151,9.60534125 C88.1208952,9.60534125 89.6081871,10.248269 90.668691,11.5341246 L90.668691,11.5341246 L90.668691,3.43323442 C90.668691,2.84174085 90.6880904,2.39812067 90.7268893,2.10237389 C90.7656883,1.8066271 90.882085,1.47230465 91.0760796,1.09940653 Z M84.7712551,22.0652819 C85.4437697,22.7596439 86.258547,23.1068249 87.215587,23.1068249 C88.1726271,23.1068249 88.9680049,22.7596439 89.6017206,22.0652819 C90.2354363,21.3709199 90.5522942,20.6058358 90.5522942,19.7700297 C90.5522942,18.9342235 90.2483693,18.1562809 89.6405196,17.4362018 C89.0326698,16.7161227 88.211426,16.3560831 87.1767881,16.3560831 C86.1421502,16.3560831 85.3144399,16.7096934 84.6936572,17.4169139 C84.0728745,18.1241345 83.7624831,18.9020772 83.7624831,19.7507418 C83.7624831,20.5994065 84.0987404,21.3709199 84.7712551,22.0652819 Z M118.332321,22.4896142 L118.332321,22.4896142 L119.030702,21.9881306 C119.910144,21.4737883 120.530927,21.2166172 120.89305,21.2166172 L120.89305,21.2166172 C121.694894,21.2166172 122.561404,21.9366963 123.492578,23.3768546 L123.492578,23.3768546 C124.061628,24.2769535 124.346154,24.9970326 124.346154,25.537092 C124.346154,26.0771513 124.171559,26.5272008 123.822368,26.8872404 C123.473178,27.2472799 123.065789,27.5687438 122.600202,27.851632 C122.134615,28.1345203 121.688428,28.40455 121.26164,28.6617211 C120.834852,28.9188922 119.961876,29.2532146 118.642713,29.6646884 C117.323549,30.0761622 116.049651,30.2818991 114.821019,30.2818991 C113.592386,30.2818991 112.350821,30.1211672 111.096323,29.7997033 C109.841824,29.4782394 108.548527,28.93818 107.21643,28.1795252 C105.884334,27.4208704 104.688034,26.4950544 103.62753,25.4020772 C102.567027,24.3090999 101.694051,22.9075173 101.008603,21.1973294 C100.323156,19.4871414 99.9804318,17.6290801 99.9804318,15.6231454 C99.9804318,13.6172107 100.316689,11.797725 100.989204,10.1646884 C101.661718,8.53165183 102.521761,7.18150346 103.569332,6.11424332 C104.616903,5.04698318 105.813203,4.15331355 107.158232,3.43323442 L107.158232,3.43323442 C109.693095,2.04451039 112.240891,1.35014837 114.801619,1.35014837 L114.801619,1.35014837 C116.017319,1.35014837 117.252418,1.53659743 118.506916,1.90949555 C119.761415,2.28239367 120.711988,2.66172107 121.358637,3.04747774 L121.358637,3.04747774 L122.289811,3.58753709 C122.755398,3.87042532 123.117521,4.10187933 123.376181,4.28189911 L123.376181,4.28189911 C124.048695,4.82195846 124.384953,5.43273986 124.384953,6.11424332 C124.384953,6.79574679 124.11336,7.50939664 123.570175,8.25519288 L123.570175,8.25519288 C122.561404,9.64391691 121.656095,10.3382789 120.854251,10.3382789 L120.854251,10.3382789 C120.388664,10.3382789 119.729082,10.0553907 118.875506,9.48961424 L118.875506,9.48961424 C117.789136,8.61523244 116.340643,8.17804154 114.530027,8.17804154 L114.530027,8.17804154 C112.84874,8.17804154 111.19332,8.75667656 109.563765,9.91394659 L109.563765,9.91394659 C108.787787,10.479723 108.141138,11.2769535 107.623819,12.305638 C107.1065,13.3343225 106.847841,14.4980218 106.847841,15.7967359 C106.847841,17.09545 107.1065,18.2591494 107.623819,19.2878338 C108.141138,20.3165183 108.80072,21.1266073 109.602564,21.7181009 L109.602564,21.7181009 C111.180387,22.8496538 112.822874,23.4154303 114.530027,23.4154303 L114.530027,23.4154303 C115.331871,23.4154303 116.08845,23.3125618 116.799764,23.1068249 C117.511077,22.901088 118.02193,22.6953511 118.332321,22.4896142 Z M126.906883,21.7566766 L126.906883,3.39465875 C126.906883,2.80316518 126.926282,2.359545 126.965081,2.06379822 C127.00388,1.76805143 127.11381,1.4272997 127.294872,1.04154303 L127.294872,1.04154303 C127.656995,0.347181009 128.665767,0 130.321188,0 L130.321188,0 C131.89901,0 132.881916,0.347181009 133.269906,1.04154303 L133.269906,1.04154303 C133.476833,1.4272997 133.599696,1.77448071 133.638495,2.08308605 C133.677294,2.39169139 133.696694,2.84174085 133.696694,3.43323442 L133.696694,3.43323442 L133.696694,21.2937685 C133.696694,22.2195846 133.774291,22.8046489 133.929487,23.0489614 C134.084683,23.293274 134.427407,23.4154303 134.957659,23.4154303 C135.48791,23.4154303 135.843567,23.4347181 136.024629,23.4732938 C136.205691,23.5118694 136.425551,23.6211672 136.684211,23.8011869 L136.684211,23.8011869 C137.201529,24.1355094 137.460189,25.0484669 137.460189,26.5400593 L137.460189,26.5400593 C137.460189,28.1602374 137.201529,29.1503462 136.684211,29.5103858 L136.684211,29.5103858 C136.011696,29.9732938 134.408007,30.0504451 131.873144,29.7418398 L131.873144,29.7418398 C129.881466,29.4846686 128.588169,28.8288823 127.993252,27.7744807 L127.993252,27.7744807 C127.269006,26.5143422 126.906883,24.5084075 126.906883,21.7566766 L126.906883,21.7566766 Z M139.012146,19.7507418 C139.012146,16.6646884 140.098516,14.1186944 142.271255,12.1127596 C144.443995,10.1068249 146.927126,9.10385757 149.720648,9.10385757 C152.51417,9.10385757 154.984368,10.1003956 157.131242,12.0934718 C159.278115,14.086548 160.351552,16.6261128 160.351552,19.7121662 L160.351552,19.7121662 C160.351552,21.8466864 159.795434,23.7433234 158.683198,25.4020772 C157.570963,27.0608309 156.219467,28.2823937 154.628711,29.0667656 C153.037955,29.8511375 151.389001,30.2433234 149.681849,30.2433234 C147.974696,30.2433234 146.319276,29.8254204 144.715587,28.9896142 C143.111898,28.1538081 141.760403,26.9193867 140.6611,25.2863501 C139.561797,23.6533136 139.012146,21.8081108 139.012146,19.7507418 L139.012146,19.7507418 Z M147.12112,22.5089021 C147.94883,23.1389713 148.789474,23.4540059 149.64305,23.4540059 C150.496626,23.4540059 151.350202,23.132542 152.203779,22.4896142 C153.057355,21.8466864 153.484143,20.8951533 153.484143,19.6350148 C153.484143,18.3748764 153.083221,17.4362018 152.281377,16.8189911 C151.479532,16.2017804 150.613023,15.8931751 149.681849,15.8931751 C148.750675,15.8931751 147.884166,16.214639 147.082321,16.8575668 C146.280477,17.5004946 145.879555,18.4455984 145.879555,19.6928783 C145.879555,20.9401583 146.29341,21.8788328 147.12112,22.5089021 Z M171.952429,29.8189911 L171.952429,29.8189911 C169.339969,29.8189911 167.173695,28.8353116 165.45361,26.8679525 C163.733525,24.9005935 162.873482,22.5024728 162.873482,19.6735905 L162.873482,19.6735905 L162.873482,12.9228487 C162.873482,12.305638 162.892881,11.8555885 162.93168,11.5727003 C162.970479,11.2898121 163.080409,10.9554896 163.261471,10.5697329 L163.261471,10.5697329 C163.623594,9.87537092 164.632366,9.52818991 166.287787,9.52818991 L166.287787,9.52818991 C168.098403,9.52818991 169.158907,10.016815 169.469298,10.9940653 L169.469298,10.9940653 C169.624494,11.4055391 169.702092,12.0613254 169.702092,12.9614243 L169.702092,12.9614243 L169.702092,19.7121662 C169.702092,20.7665678 170.006017,21.5895153 170.613866,22.1810089 C171.221716,22.7725025 172.036493,23.0682493 173.058198,23.0682493 C174.079903,23.0682493 174.907614,22.7596439 175.541329,22.1424332 C176.175045,21.5252226 176.491903,20.7151335 176.491903,19.7121662 L176.491903,19.7121662 L176.491903,12.884273 C176.491903,12.2927794 176.511302,11.8491592 176.550101,11.5534125 C176.5889,11.2576657 176.711763,10.9169139 176.918691,10.5311573 L176.918691,10.5311573 C177.254948,9.86251236 178.250787,9.52818991 179.906208,9.52818991 L179.906208,9.52818991 C181.535762,9.52818991 182.531601,9.87537092 182.893725,10.5697329 L182.893725,10.5697329 C183.074786,10.9554896 183.184717,11.2962413 183.223516,11.5919881 C183.262314,11.8877349 183.281714,12.3313551 183.281714,12.9228487 L183.281714,12.9228487 L183.281714,26.578635 C183.281714,27.1444115 183.262314,27.5751731 183.223516,27.8709199 C183.184717,28.1666667 183.061853,28.4945598 182.854926,28.8545994 L182.854926,28.8545994 C182.466937,29.5232443 181.471098,29.8575668 179.867409,29.8575668 L179.867409,29.8575668 C178.289586,29.8575668 177.319613,29.5489614 176.95749,28.9317507 L176.95749,28.9317507 C176.69883,28.4945598 176.569501,27.9673591 176.569501,27.3501484 L176.569501,27.3501484 C176.466037,27.5301682 176.233243,27.7873393 175.87112,28.1216617 C175.508997,28.4559842 175.159807,28.7388724 174.823549,28.9703264 L174.823549,28.9703264 C173.944107,29.5361029 172.987067,29.8189911 171.952429,29.8189911 Z M200.101046,1.09940653 C200.29504,0.726508408 200.637764,0.462908012 201.129217,0.308605341 C201.62067,0.154302671 202.273785,0.0771513353 203.088563,0.0771513353 C203.90334,0.0771513353 204.556455,0.154302671 205.047908,0.308605341 C205.539361,0.462908012 205.882085,0.732937685 206.07608,1.11869436 C206.270074,1.50445104 206.386471,1.84520277 206.42527,2.14094955 C206.464069,2.43669634 206.483468,2.88031652 206.483468,3.47181009 L206.483468,3.47181009 L206.483468,26.5014837 C206.483468,27.0929773 206.464069,27.5365974 206.42527,27.8323442 C206.386471,28.128091 206.263608,28.4559842 206.05668,28.8160237 L206.05668,28.8160237 C205.668691,29.5103858 204.575855,29.8575668 202.778171,29.8575668 C200.980488,29.8575668 199.978183,29.2274975 199.771255,27.9673591 L199.771255,27.9673591 C198.684885,29.2017804 197.171727,29.8189911 195.231781,29.8189911 L195.231781,29.8189911 C192.903846,29.8189911 190.782839,28.8095945 188.868758,26.7908012 C186.954678,24.7720079 185.997638,22.4188922 185.997638,19.731454 C185.997638,17.0440158 186.961145,14.6844708 188.888158,12.652819 C190.815171,10.6211672 192.929712,9.60534125 195.231781,9.60534125 L195.231781,9.60534125 C197.145861,9.60534125 198.633153,10.248269 199.693657,11.5341246 L199.693657,11.5341246 L199.693657,3.43323442 C199.693657,2.84174085 199.713057,2.39812067 199.751856,2.10237389 C199.790655,1.8066271 199.907051,1.47230465 200.101046,1.09940653 Z M193.796221,22.0652819 C194.468736,22.7596439 195.283513,23.1068249 196.240553,23.1068249 C197.197593,23.1068249 197.992971,22.7596439 198.626687,22.0652819 C199.260403,21.3709199 199.57726,20.6058358 199.57726,19.7700297 C199.57726,18.9342235 199.273336,18.1562809 198.665486,17.4362018 C198.057636,16.7161227 197.236392,16.3560831 196.201754,16.3560831 C195.167117,16.3560831 194.339406,16.7096934 193.718623,17.4169139 C193.097841,18.1241345 192.787449,18.9020772 192.787449,19.7507418 C192.787449,20.5994065 193.123707,21.3709199 193.796221,22.0652819 Z M228.210864,9.79821958 L228.210864,9.79821958 C229.736955,10.4668645 230.5,11.2769535 230.5,12.2284866 L230.5,12.2284866 C230.5,12.6913947 230.396536,13.1285856 230.189609,13.5400593 C229.982681,13.9515331 229.879217,14.1701286 229.879217,14.1958457 L229.879217,14.1958457 L219.7139,36.8011869 C219.506973,37.2898121 219.332377,37.6627102 219.190115,37.9198813 C219.047852,38.1770524 218.821525,38.421365 218.511134,38.652819 C218.200742,38.884273 217.812753,39 217.347166,39 C216.881579,39 216.196131,38.8071217 215.290823,38.421365 L215.290823,38.421365 C213.764732,37.7527201 213.001687,36.9554896 213.001687,36.0296736 L213.001687,36.0296736 C213.001687,35.4124629 214.243252,32.4678536 216.726383,27.1958457 L216.726383,27.1958457 L209.005398,14.272997 C208.488079,13.4243323 208.22942,12.7942631 208.22942,12.3827893 L208.22942,12.3827893 C208.22942,11.5598417 208.9278,10.7368942 210.324561,9.91394659 L210.324561,9.91394659 C211.204004,9.39960435 211.889451,9.14243323 212.380904,9.14243323 C212.872357,9.14243323 213.273279,9.24530168 213.583671,9.45103858 C213.894062,9.65677547 214.120389,9.86894164 214.262652,10.0875371 C214.404915,10.3061325 215.116228,11.5019782 216.396592,13.6750742 C217.676957,15.8481701 218.899123,17.8733927 220.06309,19.7507418 L220.06309,19.7507418 C220.19242,19.3392681 220.890801,17.7512364 222.158232,14.9866469 C223.425664,12.2220574 224.104645,10.7497527 224.195175,10.5697329 C224.285706,10.3897132 224.434435,10.1711177 224.641363,9.91394659 L224.641363,9.91394659 C224.97762,9.47675569 225.449674,9.25816024 226.057524,9.25816024 C226.665373,9.25816024 227.383153,9.43818002 228.210864,9.79821958 Z" id="Shape" fill="#FFFFFF" fill-rule="nonzero"></path>
            </g>
        </g>
    </g>
</svg>