<?xml version="1.0" encoding="UTF-8"?><svg xmlns="http://www.w3.org/2000/svg" xmlns:xlink="http://www.w3.org/1999/xlink" height="135.7" preserveAspectRatio="xMidYMid meet" version="1.1" viewBox="112.3 144.7 200.6 135.7" width="200.6" zoomAndPan="magnify">
 <g id="surface1">
  <g id="change1_1"><path d="m1143.8 1467.3l670.1 1160.7 670.1-1160.7zm0 0" fill="#fff" stroke="#040200" stroke-linecap="round" stroke-linejoin="round" stroke-miterlimit="10" stroke-width="40" transform="matrix(.1 0 0 -.1 0 425.2)"/></g>
  <g id="change1_2"><path d="m163.59 193.24l17.8-30.84 17.8 30.84s-1.17-0.76-1.6 0c0 0-1.05 2.1-5.62-0.68 0 0-4.45-3.36-7.27 0.08 0 0-1.5 2.32-6.18 2.02 0 0-1.97 0.05-4.33-1.49 0 0-1.89-1.49-4.86 0.37 0 0-0.59 0.76-1.83-0.17 0 0-1.5-1.42-3.91-0.13" fill="#fff"/></g>
  <path d="m1635.9 2319.6l178 308.4 178-308.4s-11.7 7.6-16 0c0 0-10.5-21-56.2 6.8 0 0-44.5 33.6-72.7-0.8 0 0-15-23.2-61.8-20.2 0 0-19.7-0.5-43.3 14.9 0 0-18.9 14.9-48.6-3.7 0 0-5.9-7.6-18.3 1.7 0 0-15 14.2-39.1 1.3zm0 0" fill="none" stroke="#040200" stroke-linecap="round" stroke-linejoin="round" stroke-miterlimit="10" stroke-width="40" transform="matrix(.1 0 0 -.1 0 425.2)"/>
  <g id="change1_3"><path d="m1587 1467.3l760.6 1317.4 760.6-1317.4zm0 0" fill="#fff" stroke="#040200" stroke-linecap="round" stroke-linejoin="round" stroke-miterlimit="10" stroke-width="40" transform="matrix(.1 0 0 -.1 0 425.2)"/></g>
  <g id="change1_4"><path d="m214.55 181.73l20.21-35 20.2 35s-1.32-0.86-1.82 0c0 0-1.19 2.38-6.37-0.77 0 0-5.06-3.82-8.25 0.09 0 0-1.7 2.63-7.02 2.29 0 0-2.24 0.07-4.92-1.69 0 0-2.13-1.69-5.51 0.42 0 0-0.67 0.86-2.07-0.19 0 0-1.71-1.62-4.45-0.15" fill="#fff"/></g>
  <path d="m2145.5 2434.7l202.1 350 202-350s-13.2 8.6-18.2 0c0 0-11.9-23.8-63.7 7.7 0 0-50.6 38.2-82.5-0.9 0 0-17-26.3-70.2-22.9 0 0-22.4-0.7-49.2 16.9 0 0-21.3 16.9-55.1-4.2 0 0-6.7-8.6-20.7 1.9 0 0-17.1 16.2-44.5 1.5zm0 0" fill="none" stroke="#040200" stroke-linecap="round" stroke-linejoin="round" stroke-miterlimit="10" stroke-width="40" transform="matrix(.1 0 0 -.1 0 425.2)"/>
 </g>
</svg>