<?xml version="1.0" encoding="UTF-8"?><svg xmlns="http://www.w3.org/2000/svg" viewBox="0 0 36 36">
 <g id="change1_1"><path d="m3 19.5c0-9.112 7.387-16.5 16.499-16.5 9.113 0 16.5 7.387 16.5 16.5s-7.387 16.5-16.5 16.5c-9.112 0-16.499-7.387-16.499-16.5z" fill="#F4900C"/></g>
 <g id="change2_1"><path d="m11.414 7.585c-0.267-0.267-0.797-0.197-1.355 0.12-3.3-2.732-8.653-3.652-8.895-3.692-0.546-0.089-1.059 0.277-1.15 0.821s0.276 1.06 0.821 1.151c0.053 0.009 4.934 0.854 7.821 3.16-0.275 0.525-0.324 1.015-0.07 1.268 0.39 0.391 1.34 0.074 2.121-0.707 0.781-0.78 1.097-1.73 0.707-2.121z" fill="#662113"/></g>
 <g id="change3_1"><path d="m21 1s-3.106 4.318-7.021 5.273c-2.979 0.727-6.938 0.797-7.333-0.123-0.394-0.919 1.572-3.937 4.969-5.393 3.397-1.455 9.385 0.243 9.385 0.243z" fill="#5C913B"/></g>
</svg>