<?xml version="1.0" encoding="UTF-8"?><svg xmlns="http://www.w3.org/2000/svg" xmlns:xlink="http://www.w3.org/1999/xlink" height="226.8" preserveAspectRatio="xMidYMid meet" version="1.1" viewBox="106.8 99.2 211.6 226.8" width="211.6" zoomAndPan="magnify">
 <g fill="#1b1618" id="change1_1">
  <path d="m176.42 209.55c0 19.22-15.58 34.81-34.8 34.81s-34.8-15.59-34.8-34.81c0-19.21 15.58-34.8 34.8-34.8s34.8 15.59 34.8 34.8" fill="inherit"/>
  <path d="m193.7 150.55c0 12.34-10 22.34-22.34 22.34-12.35 0-22.35-10-22.35-22.34s10-22.35 22.35-22.35c12.34 0 22.34 10.01 22.34 22.35" fill="inherit"/>
  <path d="m283.58 150.55c0 12.34-10.01 22.34-22.35 22.34s-22.34-10-22.34-22.34 10-22.35 22.34-22.35 22.35 10.01 22.35 22.35" fill="inherit"/>
  <path d="m238.48 121.56c0 12.34-10 22.35-22.35 22.35-12.34 0-22.34-10.01-22.34-22.35s10-22.345 22.34-22.345c12.35 0 22.35 10.005 22.35 22.345" fill="inherit"/>
  <path d="m318.38 209.55c0 19.22-15.58 34.81-34.8 34.81s-34.8-15.59-34.8-34.81c0-19.21 15.58-34.8 34.8-34.8s34.8 15.59 34.8 34.8" fill="inherit"/>
  <path d="m218.53 135.52h-4.8s-5.94 158.59-21.5 190.46h47.81c-15.57-31.87-21.51-190.46-21.51-190.46" fill="inherit"/>
  <path d="m223.5 269.59s12.55-9.57 26.9-16.74c6.9-3.45 14.59-7.66 21.05-11.96 6.96-4.62 12.5-9.33 14.1-13.28 0 0 3.7-1.94 3.7 0 0 0-15.54 18.26-19.72 20.55-4.19 2.3-22.12 16.64-26.9 21.43-4.78 4.78-11.95 20.44-15.54 21.87s-3.59-21.87-3.59-21.87" fill="inherit"/>
  <path d="m207.37 268.29s-12.55-9.56-26.9-16.73c-6.91-3.45-14.59-7.67-21.05-11.96-6.96-4.62-12.5-9.33-14.1-13.29 0 0-3.7-1.93-3.7 0 0 0 15.54 18.27 19.72 20.56 4.19 2.3 22.12 16.64 26.9 21.42s11.96 20.44 15.54 21.88c3.59 1.44 3.59-21.88 3.59-21.88" fill="inherit"/>
  <path d="m171.9 165.21s2.49 7.2 14.4 14.27c5.93 3.53 26.65 14.44 27.44 17.41 0 0-1.15 7.93-2.79 11.65 0 0-8.2-10.53-18.72-18.25-14.75-10.81-19.28-19.77-20.87-23.36l0.54-1.72" fill="inherit"/>
  <path d="m260.69 166.22s-2.49 7.2-14.4 14.28c-5.93 3.52-26.65 14.43-27.44 17.4 0 0 1.15 7.93 2.79 11.65 0 0 8.2-10.53 18.72-18.25 14.75-10.8 19.28-19.77 20.87-23.36l-0.54-1.72" fill="inherit"/>
 </g>
</svg>