<?xml version="1.0" encoding="UTF-8"?><svg xmlns="http://www.w3.org/2000/svg" xmlns:xlink="http://www.w3.org/1999/xlink" height="211.0" preserveAspectRatio="xMidYMid meet" version="1.1" viewBox="122.8 107.1 179.7 211.0" width="179.7" zoomAndPan="magnify">
 <g id="surface1">
  <g id="change1_1"><path d="m272.23 163.06c1.06-2.98 1.64-6.18 1.64-9.51v-17.71c0-15.81-12.94-28.75-28.75-28.75h-19.41c-12.7 0-23.55 8.36-27.32 19.85-3.32-1.35-6.94-2.1-10.73-2.1h-6.45c-15.81 0-28.74 12.93-28.74 28.75v5.03c0 1.44 0.1 2.86 0.32 4.24h-1.3c-15.81 0-28.74 12.94-28.74 28.75v21.94c0 15.81 12.93 28.75 28.74 28.75h39.69c7.28 0 13.95-2.75 19.03-7.25 5.08 4.5 11.75 7.25 19.03 7.25h39.69c15.81 0 28.74-12.94 28.74-28.75v-21.94c0-14.69-11.17-26.89-25.44-28.55" fill="#6ac23f"/></g>
  <g id="change2_1"><path d="m212.76 164.48c-7.73 95.33-36.27 113.33-36.27 113.33h72.54s-28.54-18-36.27-113.33" fill="#75472e"/></g>
  <g id="change2_2"><path d="m174.84 173c12.75 28.41 27.85 57.6 27.85 57.6l7.52-4.29s-17.41-27.86-35.37-53.31" fill="#75472e"/></g>
  <g id="change2_3"><path d="m251.21 173c-12.74 28.41-27.85 57.6-27.85 57.6l-3.75-2.14-3.77-2.15s17.41-27.86 35.37-53.31" fill="#75472e"/></g>
  <g id="change3_1"><path d="m123.07 274.09c20.74 26.78 53.2 44.02 89.69 44.02s68.95-17.24 89.69-44.02h-179.38" fill="#9fd54d"/></g>
 </g>
</svg>