<?xml version="1.0" encoding="UTF-8"?><svg xmlns="http://www.w3.org/2000/svg" xmlns:xlink="http://www.w3.org/1999/xlink" height="226.8" preserveAspectRatio="xMidYMid meet" version="1.1" viewBox="126.8 99.2 171.7 226.8" width="171.7" zoomAndPan="magnify">
 <g fill="#1b1618" id="change1_1">
  <path d="m126.75 202.39c0 12 15.73 21.73 35.14 21.73s35.15-9.73 35.15-21.73c0-11.99-15.74-21.72-35.15-21.72s-35.14 9.73-35.14 21.72" fill="inherit"/>
  <path d="m228.16 202.39c0 12 15.74 21.73 35.15 21.73s35.14-9.73 35.14-21.73c0-11.99-15.73-21.72-35.14-21.72s-35.15 9.73-35.15 21.72" fill="inherit"/>
  <path d="m176.89 194.38c0 11.99 15.73 21.71 35.14 21.71s35.15-9.72 35.15-21.71c0-12-15.74-21.73-35.15-21.73s-35.14 9.73-35.14 21.73" fill="inherit"/>
  <path d="m200.53 170.88c0 17.41-14.11 31.51-31.51 31.51-17.41 0-31.52-14.1-31.52-31.51 0-17.4 14.11-31.51 31.52-31.51 17.4 0 31.51 14.11 31.51 31.51" fill="inherit"/>
  <path d="m286.88 168.36c0 17.4-14.11 31.51-31.52 31.51-17.4 0-31.51-14.11-31.51-31.51 0-17.41 14.11-31.52 31.51-31.52 17.41 0 31.52 14.11 31.52 31.52" fill="inherit"/>
  <path d="m167.94 153.82c0-30.16 19.74-54.605 44.09-54.605s44.09 24.445 44.09 54.605c0 30.15-19.74 54.6-44.09 54.6s-44.09-24.45-44.09-54.6" fill="inherit"/>
  <path d="m243.4 234.46c8.2-6.48 11.29-19.19 11.29-19.19h-2.46c-1.42 3.64-11.35 14.15-16.55 15.23s-15.13 7.55-15.13 7.55c-3.32-2.16-6.15-26.97-6.15-26.97h-4.73s-2.84 24.81-6.15 26.97c0 0-9.93-6.47-15.13-7.55s-15.13-11.59-16.55-15.23h-2.46s3.09 12.71 11.28 19.19c8.2 6.47 10.61 7.91 16.34 13.66 0 0 0.11 48.2-3.78 58.44-3.88 10.25-12.87 19.42-12.87 19.42h63.36s-8.98-9.17-12.86-19.42c-3.89-10.24-3.79-58.44-3.79-58.44 5.73-5.75 8.14-7.19 16.34-13.66" fill="inherit"/>
 </g>
</svg>