<?xml version="1.0" encoding="utf-8"?>
<!-- Generator: Adobe Illustrator 15.1.0, SVG Export Plug-In . SVG Version: 6.00 Build 0)  -->
<!DOCTYPE svg PUBLIC "-//W3C//DTD SVG 1.1//EN" "http://www.w3.org/Graphics/SVG/1.1/DTD/svg11.dtd">
<svg version="1.1" id="Layer_1" xmlns="http://www.w3.org/2000/svg" xmlns:xlink="http://www.w3.org/1999/xlink" x="0px" y="0px"
	 width="480.581px" height="500px" viewBox="0 0 480.581 500" enable-background="new 0 0 480.581 500" xml:space="preserve">
<g id="change2">
	<path fill="#7C4D25" d="M413.476,246.967c-3.315-0.239-6.769-0.349-9.437,0.075c-0.572,0.086-1.138,0.216-1.694,0.345l-3.665,0.812
		l-0.012,3.217c-0.07,16.427-5.293,32.906-14.332,45.213c-11.845,16.149-23.086,25.153-33.412,26.758
		c-0.714,0.114-1.393,0.168-2.032,0.168c-1.396,0-3.252-0.274-4.171-1.589c-1-1.432-0.934-3.986,0.181-7.015
		c6.827-18.609,9.746-38.623,9.46-64.89l-0.047-4.359l-4.34,0.4c-2.189,0.204-4.363,0.475-6.517,0.781
		c-0.97,0.138-1.954,0.287-2.935,0.451l-3.782,0.62l0.443,3.806c3.3,28.464-4.14,53.586-22.744,76.793
		c-7.568,9.443-17.408,18.961-30.108,20.056c-9.577,0.828-21.721-7.125-24.368-16.353c-2.429-8.466,3.771-19.472,10.06-24.949
		c9.793-8.526,20.711-15.38,28.017-26.448c10.123-15.376,16.086-32.05,20.587-46.328l1.514-4.818l-5.033-0.396
		c-1.989-0.157-3.979-0.361-5.968-0.565c-3.269-0.333-6.65-0.679-10.028-0.816l-3.516-0.146l-0.607,3.464
		c1.204,42.812-37.391,67.718-73.93,67.718c-1.51,0-3.033-0.043-4.574-0.133c-36.033-2.115-50.671-40.749-49.883-76.181
		l-0.565-3.013l-3.052-0.251c-4.292-0.361-8.07-0.392-11.962-0.071l-4.183,0.35l0.53,4.159c0.373,2.931,0.714,5.885,1.051,8.851
		c2.527,22.014,5.14,44.782,21.74,62.187c5.253,5.516,10.888,10.644,16.455,15.831c12.602,11.738,24.188,24.788,11.225,41.415
		c-9.306,11.936-26.495,5.775-37.712,0.396c-8.557-4.1-16.58-10.028-21.536-18.268c-18.485-30.732-15.872-63.61-10.879-91.718
		l1.004-5.646l-5.65,0.984c-4.473,0.781-11.105,2.417-17.302,5.787l-1.644,0.895l-0.375,1.836
		c-1.911,9.373-4.059,23.411-0.667,37.001c0.822,3.312,1.999,6.678,3.137,9.938c1.872,5.355,3.806,10.895,4.071,15.976
		c0.284,5.477-0.697,9.561-2.837,11.817c-1.493,1.573-3.653,2.338-6.599,2.338l-0.441-0.008c-7.917-0.2-15.725-13.077-17.124-21.657
		c-2.08-12.704-0.742-25.475,0.939-38.524l0.908-7.046l-6.507,2.853c-4.808,2.111-8.877,5.967-11.866,9.075
		c-0.248,0.251-0.473,0.514-0.932,1.056l-1.144,1.283l0.135,1.71c1.253,15.804,2.813,35.472,11.568,49.729
		c12.665,20.668,27.401,30.606,50.163,41.714c8.871,4.332,17.958,7.325,26.746,10.221c18.338,6.042,35.66,11.75,47.991,28.715
		c10.621,14.603,9.667,34.377,8.153,44.864c-1.542,10.715-4.323,24.047-12.17,32.121c-2.177,2.236-5.1,5.046-8.416,6.914
		l2.044,7.517l1.377-0.012l2.727,0.012c3.437,0,7.141-0.138,11.315-1.777c3.319-1.299,7.686-3.339,11.982-6.309
		c0.161,0.573,0.314,1.146,0.471,1.723l0.702,2.021c1.154,4.512,2.727,10.35,7.486,10.35h0.232c3.7,0,5.94-3.327,8.486-8.42
		l0.435-0.572c0.428-0.809,0.903-1.452,1.377-2.24c0.62-1.04,1.24-2.005,1.789-3.076c0.168-0.334,0.365-0.64,0.573-0.984
		c0.707,0.796,1.389,1.545,2.064,2.087c3.056,2.456,6.474,4.269,9.887,5.222l0.557,0.161c2.656,0.749,7.105,2.009,11.045,2.009
		c2.849,0,5.159-0.663,6.87-1.97l3.958-3.021l-3.785-3.229c-5.45-4.649-9.888-9.898-12.171-14.406
		c-15.191-29.995-2.53-64.686,16.753-85.759c13.536-14.787,30.085-21.1,47.607-27.781c12.304-4.692,25.031-9.55,37.028-17.581
		c17.53-11.727,47.968-35.487,54.909-62.889c1.957-7.717,3.57-16.18,4.928-25.867l0.607-4.331L413.476,246.967z"/>
</g>
<g id="change1">
	<path fill="#C9D439" d="M479.288,127.562c-3.41-17.02-21.913-30.783-38.952-30.108c-0.612-10.511-7.772-20.029-20.559-24.984
		c-18.386-7.129-36.562,0.067-51.153,11.794c1.82-8.33,0.902-16.396-5.532-21.665c-7.851-6.403-16.926-12.744-27.146-14.136
		c-1.522-0.22-3.08-0.173-4.634-0.027c1.425-13.968-4.362-28.488-18.196-35.229c-10.303-5.014-25.385-7.349-36.492-2.747
		c-3.327-5.807-9.062-9.883-17.902-10.405c-10.386-0.588-20.049,3.665-26.836,10.691c-8.694-4.045-19.115-5.238-27.813-3.119
		c-19.774,4.791-31.795,19.837-35.77,37.512c-10.762-2.126-21.705-0.954-29.842,5.583c-10.756,8.655-22.189,19.091-24.308,33.538
		c-1.62,11.087-1.974,22.062-1.695,33.07c-28.774-20.523-60.658-4.163-74.07,5.171c-20.882,14.537-25.02,43.354-16.566,66.683
		C6.385,197.904-4.722,223.658,2.005,237.86c5.22,11.025,16.213,16.251,27.66,16.596c-2.058,14.097,6.119,26.875,23.888,27.955
		c13.506,0.812,26.979-5.622,37.388-13.666c3.188-2.476,5.507-5.811,7.231-9.526c8.025,4.182,19.766,4.324,26.591,2.154
		c10.648-3.397,18.279-14.383,21.555-26.338c5.478,3.484,12.889,4.896,19.963,5.045c7.093,0.153,14.434-1.71,20.994-5.073
		c-1.048,15.054,6.576,28.617,24.91,33.557c17.824,4.791,43.303-2.731,54.03-18.813c8.105,5.101,18.153,6.093,29.924,4.826
		c8.714-0.949,21.104-4.751,30.536-11.091c-0.04,5.426,1.142,10.676,3.417,13.905c5.814,8.243,20.516,7.721,28.825,5.179
		c1.005-0.298,1.95-0.812,2.849-1.405c1.099,5.517,4.107,10.06,10.903,12.077c7.285,2.169,14.826-0.436,20.994-5.312
		c5.391,3.013,12.217,4.053,21.171,2.55c18.099-3.041,25.753-16.365,27.456-31.654c10.169,1.177,20.86-2.107,27.017-10.452
		c9.196-12.465,4.829-33.192-4.398-48.513C478.691,168.023,483.053,146.382,479.288,127.562z"/>
</g>
</svg>
