<?xml version="1.0" encoding="utf-8"?>
<!-- Generator: Adobe Illustrator 15.1.0, SVG Export Plug-In . SVG Version: 6.00 Build 0)  -->
<!DOCTYPE svg PUBLIC "-//W3C//DTD SVG 1.1//EN" "http://www.w3.org/Graphics/SVG/1.1/DTD/svg11.dtd">
<svg version="1.1" id="Layer_1" xmlns="http://www.w3.org/2000/svg" xmlns:xlink="http://www.w3.org/1999/xlink" x="0px" y="0px"
	 width="463.014px" height="500px" viewBox="0 0 463.014 500" enable-background="new 0 0 463.014 500" xml:space="preserve">
<g id="change4">
	<path fill="#A19A2F" d="M4.582,129.781c0,0,55.382,102.651,138.906,62.263C143.488,192.044,126.261,108.855,4.582,129.781z"/>
	<path fill="#A19A2F" d="M403.007,189.976c0,0-89.426-47.636-114.021,33.676C288.985,223.652,345.747,278.695,403.007,189.976z"/>
	<path fill="#A19A2F" d="M334.271,370.613c0,0-17.598-99.793-96.794-69.043C237.478,301.57,229.12,380.198,334.271,370.613z"/>
	<path fill="#A19A2F" d="M254.495,123.96c0,0-54.676,1.981-44.438,62.396C210.058,186.357,263.79,180.753,254.495,123.96z"/>
	<g>
		<path fill="#A19A2F" d="M95.995,362.836c0,0,89.875,41.337,123.616-48.513C219.611,314.324,141.264,273.977,95.995,362.836z"/>
		<path fill="#A19A2F" d="M0,224.691c0,0,37.709,34.429,74.877-5.071C74.877,219.62,36.938,182.601,0,224.691z"/>
		<path fill="#A19A2F" d="M331.722,10.476c0,0-80.016,16.891-69.459,100.792C262.263,111.268,350.818,99.55,331.722,10.476z"/>
	</g>
</g>
<g id="change1">
	<path fill="#905E36" d="M406.391,289.827c0,0-64.498-78.15-118.259-12.359C288.132,277.467,319.623,349.996,406.391,289.827z"/>
	<path fill="#905E36" d="M188.382,0c0,0-45.999,90.284,35.752,113.398C224.134,113.398,278.134,55.634,188.382,0z"/>
	<path fill="#905E36" d="M153.594,269.202c0,0,54.129,53.598,123.476-2.413C277.069,266.789,213.855,200.879,153.594,269.202z"/>
	<polygon fill="#905E36" points="228.862,327.118 193.718,500 264.489,500 	"/>
</g>
<g id="change3">
	<path fill="#FC7138" d="M401.262,97.062c0,0-101.141-32.169-126.995,60.263C274.267,157.325,364.503,192.048,401.262,97.062z"/>
	<path fill="#FC7138" d="M29.38,279.891c0,0,43.371,58.858,106.362,15.489C135.742,295.379,99.599,234.453,29.38,279.891z"/>
	<path fill="#FC7138" d="M157.637,192.725c0,0,15.689,48.52,65.191,25.49C222.828,218.215,204.282,170.108,157.637,192.725z"/>
</g>
<g id="change2">
	<path fill="#FFD73D" d="M93.996,68.819c0,0,3.707,97.898,99.574,93.349C193.569,162.168,201.83,76.458,93.996,68.819z"/>
	<path fill="#FFD73D" d="M81.218,234.029c0,0,37.139,45.018,82.33,0.511C163.548,234.54,124.81,188.711,81.218,234.029z"/>
	<path fill="#FFD73D" d="M380.688,241.259c0,0,37.136,45.019,82.326,0.511C463.014,241.77,424.277,195.941,380.688,241.259z"/>
	<path fill="#FFD73D" d="M258.097,169.575c0,0-36.843,39.903,3.451,70.04C261.548,239.615,294.901,202.277,258.097,169.575z"/>
</g>
</svg>
