<?xml version="1.0" encoding="UTF-8"?><svg xmlns="http://www.w3.org/2000/svg" xmlns:xlink="http://www.w3.org/1999/xlink" height="256.3" preserveAspectRatio="xMidYMid meet" version="1.1" viewBox="94.4 84.5 237.2 256.3" width="237.2" zoomAndPan="magnify">
 <g id="surface1">
  <g id="change1_1"><path d="m319.5 217.3c-9.75 58.25-38.52 123.45-106.93 123.45-68.42 0-97.82-65.1-106.94-123.45-11.259-72.05 39.75-108.65 111.97-86.35 57.01-17.15 113.95 14.3 101.9 86.35" fill="#ef2f4e"/></g>
  <g id="change2_1"><path d="m242.02 145.25c0 3.16-10.11 5.72-22.59 5.72-12.47 0-22.58-2.56-22.58-5.72 0-3.15 10.11-5.72 22.58-5.72 12.48 0 22.59 2.57 22.59 5.72" fill="#bb1a34"/></g>
  <g id="change3_1"><path d="m224.06 138.17c0 3.99-1.21 6.09-5.2 6.09-3.98 0-3.38-4.14-3.38-8.12l-7.5-45.82c0-3.984 5.49-5.867 9.48-5.867s8.58 0.75 8.58 4.738l-1.98 48.979" fill="#a6726e"/></g>
  <g id="change4_1"><path d="m125.4 238.75s-2.75-5.61-4.83-14.75c-0.54-2.28-1.03-4.77-1.45-7.44-0.43-2.67-0.7-5.51-0.89-8.47-0.16-2.96-0.23-6.05-0.04-9.19 0.15-3.14 0.52-6.33 1.02-9.51 0.24-1.6 0.61-3.18 0.91-4.76 0.4-1.57 0.77-3.15 1.21-4.68 0.9-3.08 1.99-6.06 3.26-8.87 1.3-2.79 2.69-5.42 4.21-7.8 0.79-1.18 1.52-2.34 2.28-3.42 0.81-1.06 1.59-2.07 2.34-3.05 1.57-1.9 3.1-3.56 4.48-4.97 1.43-1.38 2.63-2.64 3.75-3.51 2.19-1.83 3.47-2.81 3.47-2.81 2.22-1.7 5.4-1.28 7.1 0.94 1.51 1.97 1.36 4.69-0.24 6.47l-0.24 0.27s-0.97 1.07-2.72 2.85c-0.87 0.9-1.82 2.08-3 3.33-1.16 1.28-2.32 2.85-3.64 4.49-1.27 1.69-2.62 3.54-3.93 5.57-1.29 2.04-2.65 4.2-3.85 6.55-1.29 2.31-2.44 4.8-3.58 7.37-0.56 1.28-1.03 2.61-1.56 3.94-0.43 1.36-0.94 2.71-1.32 4.1-0.81 2.76-1.52 5.58-2 8.41-0.51 2.82-0.91 5.64-1.18 8.39-0.5 5.5-0.6 10.73-0.35 15.23 0.2 4.5 0.74 8.23 1.12 10.86 0.39 2.62 0.75 4.08 0.75 4.08 0.07 0.31-0.12 0.62-0.43 0.7-0.26 0.07-0.53-0.07-0.65-0.31v-0.01" fill="#f15164"/></g>
 </g>
</svg>