<?xml version="1.0" encoding="UTF-8"?><svg xmlns="http://www.w3.org/2000/svg" xmlns:xlink="http://www.w3.org/1999/xlink" height="312.8" preserveAspectRatio="xMidYMid meet" version="1.0" viewBox="75.2 55.1 277.5 312.8" width="277.5" zoomAndPan="magnify"><g><g id="change1_1"><path d="M 184.363281 57.796875 C 184.363281 57.796875 184.75 57.941406 185.476562 58.21875 C 196.054688 62.246094 202.695312 72.535156 206.296875 82.660156 C 210.816406 95.40625 213.746094 109.050781 214.753906 122.53125 C 215.558594 133.339844 215.796875 145.039062 213.777344 155.738281 C 213.496094 157.238281 212.867188 162.171875 210.574219 161.871094 C 207.1875 161.433594 209.636719 153.769531 209.796875 152.066406 C 210.300781 146.835938 210.050781 141.425781 209.363281 136.226562 C 207.890625 124.992188 204.460938 114.148438 200.710938 103.5 C 197.574219 94.605469 193.808594 84.957031 186.375 78.734375 C 181.890625 74.980469 180.003906 74.859375 180.003906 74.859375 C 180.222656 74.136719 184.535156 57.859375 184.363281 57.796875" fill="#4f090b"/></g><g id="change2_1"><path d="M 188.351562 68.140625 C 189.6875 63.464844 188.359375 58.988281 185.386719 58.136719 C 182.414062 57.285156 178.914062 60.382812 177.578125 65.054688 C 176.242188 69.726562 177.566406 74.207031 180.539062 75.058594 C 183.515625 75.910156 187.011719 72.8125 188.351562 68.140625" fill="#320404"/></g><g id="change3_1"><path d="M 345.785156 192.304688 C 352.617188 256.105469 332.941406 365.039062 248.496094 367.382812 C 231.859375 367.847656 225.839844 360.148438 212.488281 360.148438 C 199.632812 360.148438 193.882812 367.847656 177.523438 366.695312 C 101.113281 361.3125 75.164062 253.972656 78.441406 193.0625 C 82.234375 122.429688 173.378906 130.78125 212.488281 151.617188 C 262.234375 126.988281 338.355469 122.988281 345.785156 192.304688" fill="#cf1e2b"/></g><g id="change4_1"><path d="M 295.617188 72.410156 C 298.253906 80.265625 282.503906 99.050781 258.046875 107.265625 C 233.597656 115.480469 209.695312 110.015625 207.058594 102.160156 C 204.417969 94.308594 218.816406 71.488281 243.269531 63.277344 C 267.726562 55.0625 292.976562 64.5625 295.617188 72.410156" fill="#80cd3b"/></g></g></svg>