<?xml version="1.0" encoding="UTF-8"?><svg xmlns="http://www.w3.org/2000/svg" xmlns:xlink="http://www.w3.org/1999/xlink" height="240.5" preserveAspectRatio="xMidYMid meet" version="1.0" viewBox="67.7 92.5 290.0 240.5" width="290.0" zoomAndPan="magnify"><g id="change1_1"><path d="M266.472,110.699c-0.064-3.499,0.014-7.15-2.661-9.812c-2.331-2.319-6.008-2.913-9.121-3.464 c-3.001-0.531-6.04-0.882-9.077-1.133c-5.499-0.455-11.018-0.72-16.526-1.049c-11.277-0.674-22.558-1.293-33.848-1.682 c-5.633-0.194-11.271-0.348-16.908-0.386c-5.514-0.037-11.141,0.19-16.503,1.589c-3.46,0.903-7.095,2.303-9.01,5.541 c-1.808,3.058-1.773,6.897-1.963,10.346c-0.349,6.333-0.216,12.683,0.365,18.998c0.284,3.092,2.534,6.105,5.952,5.952 c2.98-0.133,6.257-2.632,5.952-5.952c-0.477-5.181-0.656-10.386-0.508-15.587c0.069-2.416,0.219-4.827,0.419-7.235 c0.216-0.072,0.431-0.146,0.648-0.213c1.083-0.334,2.184-0.605,3.295-0.827c0.489-0.098,0.98-0.174,1.471-0.258 c0.331-0.026,1.15-0.144,1.211-0.15c2.425-0.237,4.864-0.301,7.299-0.305c5.104-0.008,10.212,0.137,15.313,0.294 c10.55,0.324,21.092,0.863,31.629,1.473c5.187,0.3,10.372,0.618,15.558,0.937c2.524,0.155,5.049,0.305,7.567,0.543 c0.627,0.059,1.254,0.124,1.88,0.195c0.095,0.011,0.223,0.017,0.356,0.024c0.076,0.014,0.19,0.033,0.402,0.065 c1.243,0.19,2.481,0.396,3.711,0.658c0.392,0.083,0.781,0.183,1.17,0.276c0.06,2.929,0.097,5.858,0.112,8.787 c0.029,5.903-0.038,11.807-0.193,17.708c-0.082,3.115,2.796,6.093,5.952,5.952c3.294-0.148,5.865-2.615,5.952-5.952 c0.148-5.656,0.216-11.313,0.196-16.97C266.554,116.274,266.523,113.486,266.472,110.699z" fill="#7d5766"/></g><g id="change2_1"><path d="M354.413,229.781c-0.977-18.729-2.563-37.436-5.193-56.009c-1.304-9.21-2.858-18.386-4.714-27.501 c-1.42-6.975-2.289-17.24-11.063-18.486c-2.081-0.296-4.197-0.238-6.292-0.254c-2.395-0.018-4.791-0.036-7.186-0.054 c-4.791-0.036-9.582-0.072-14.373-0.108c-9.665-0.073-19.329-0.146-28.994-0.219c-38.493-0.29-76.986-0.581-115.479-0.871 c-18.421-0.139-38.129,2.029-56.766,4.744c-6.193,0.902-12.775,1.507-18.492,4.23c-4.56,2.172-8.078,5.907-10.327,10.397 c-4.864,9.71-4.612,21.307-5.055,31.886c-0.591,14.115-1.025,28.238-1.301,42.363c-0.55,28.086-0.483,56.185,0.219,84.267 c0.07,2.819,0.156,5.754,1.562,8.281c1.291,2.321,3.627,3.829,6.029,4.809c5.727,2.337,11.982,3.736,17.987,5.158 c12.798,3.031,25.829,4.977,38.917,6.202c31.392,2.938,62.739,3.729,94.233,3.311c19.154-0.254,38.308-0.505,57.461-0.762 c18.652-0.25,37.693-0.362,56.035-4.167c3.316-0.688,6.775-1.712,9.502-3.801c3.046-2.335,4.513-5.599,4.862-9.374 c0.407-4.408,0.1-8.938,0.072-13.36c-0.03-4.68-0.064-9.36-0.109-14.04C355.763,267.535,355.397,248.645,354.413,229.781z" fill="#8c6674"/></g><g id="change3_1"><path d="M93.826,316.367c0.447-2.862,0.604-5.777,0.393-8.667c-0.172-2.357-0.606-4.706-1.1-7.015 c-0.928-4.337-2.262-8.656-4.449-12.536c-2.18-3.867-5.216-7.023-9.261-8.923c-3.227-1.516-6.864-2.52-10.496-2.894 c0.094,9.279,0.25,18.558,0.481,27.835c0.07,2.819,0.156,5.754,1.562,8.281c1.291,2.321,3.627,3.829,6.029,4.809 c4.988,2.035,10.375,3.359,15.65,4.606C93.125,320.053,93.536,318.223,93.826,316.367z" fill="#ed9ec4"/></g><g id="change3_2"><path d="M77.925,163.83c8.75-0.557,17.609-5.337,21.495-13.434c2.72-5.669,2.305-12.398,2.042-18.51 c-0.007-0.152-0.009-0.304-0.015-0.456c-5.309,0.733-10.755,1.521-15.586,3.822c-4.56,2.172-8.078,5.907-10.327,10.397 c-2.747,5.484-3.861,11.569-4.392,17.734C73.366,163.822,75.651,163.975,77.925,163.83z" fill="#ed9ec4"/></g><g id="change3_3"><path d="M356.016,295.381c-2.396-0.194-4.827-0.045-7.238,0.489c-8.757,1.939-16.559,8.095-19.078,16.882 c-1.217,4.249-1.292,8.791-0.262,13.085c0.243,1.015,0.554,2.042,0.935,3.047c3.771-0.5,7.524-1.114,11.247-1.886 c3.316-0.688,6.775-1.712,9.501-3.802c3.046-2.335,4.513-5.599,4.862-9.374c0.407-4.408,0.1-8.938,0.072-13.36 C356.045,298.768,356.028,297.074,356.016,295.381z" fill="#ed9ec4"/></g><g id="change3_4"><path d="M319.661,127.474c-0.03,0.142-0.064,0.286-0.091,0.427c-0.545,2.82-0.668,5.8-0.362,8.655 c0.631,5.882,3.363,11.341,6.974,15.955c1.763,2.253,3.74,4.355,5.855,6.279c1.642,1.494,3.557,2.674,5.545,3.65 c3.261,1.601,6.812,2.683,10.422,3.26c-1.029-6.5-2.184-12.981-3.497-19.429c-1.42-6.975-2.289-17.24-11.063-18.486 c-2.081-0.296-4.197-0.238-6.292-0.254c-2.395-0.018-4.791-0.036-7.186-0.054C319.864,127.476,319.762,127.475,319.661,127.474z" fill="#ed9ec4"/></g><g id="change4_1"><path d="M135.703,328.77c-1.205-12.538-2.303-25.087-3.204-37.651c-1.148-16.007-1.983-32.039-2.331-48.085 c-0.348-16.061-0.208-32.137,0.61-48.182c0.407-7.99,0.982-15.972,1.748-23.935c0.379-3.937,0.804-7.869,1.28-11.795 c0.121-1,0.245-2,0.373-3c0.059-0.461,0.118-0.922,0.179-1.383c0.03-0.23,0.06-0.461,0.091-0.691 c0.01-0.074,0.047-0.354,0.07-0.53c-0.006,0.047-0.012,0.093-0.022,0.169c-0.106,0.809,0.083-0.599,0.114-0.821 c0.064-0.461,0.128-0.921,0.193-1.381c0.152-1.074,0.308-2.147,0.468-3.22c1.056-7.09,2.296-14.153,3.711-21.18 c-4.099,0.301-8.212,0.675-12.321,1.108c-0.708,3.713-1.368,7.435-1.975,11.167c-2.637,16.218-4.415,32.576-5.442,48.974 c-1.004,16.023-1.306,32.086-1.094,48.138c0.213,16.2,0.949,32.39,2.024,48.555c0.943,14.177,2.158,28.335,3.508,42.479 c3.397,0.423,6.801,0.794,10.209,1.113C134.495,328.672,135.099,328.715,135.703,328.77z" fill="#f6b1b3"/></g><g id="change4_2"><path d="M306.053,252.35c0.64-31.115,0.641-62.243,0.003-93.358c-0.216-10.544-0.515-21.087-0.878-31.627 c-3.968-0.03-7.935-0.06-11.903-0.09c0.829,24.065,1.282,48.142,1.347,72.221c0.042,15.561-0.076,31.122-0.354,46.68 c-0.269,15.069-0.615,30.149-1.763,45.18c-0.314,4.109-0.688,8.213-1.14,12.309c-0.225,2.045-0.47,4.089-0.735,6.129 c-0.034,0.263-0.22,1.866-0.038,0.3c-0.073,0.628-0.173,1.254-0.263,1.88c-0.157,1.096-0.321,2.191-0.491,3.284 c-0.83,5.33-1.846,10.629-3.03,15.89c4.061-0.053,8.138-0.106,12.222-0.193C304.435,305.176,305.512,278.627,306.053,252.35z" fill="#f6b1b3"/></g><g id="change4_3"><path d="M96.657,132.15c0.129,1.425,0.205,2.856,0.183,4.288c-0.011,0.677-0.041,1.354-0.091,2.029 c-0.028,0.375-0.063,0.748-0.102,1.122c-0.095,0.92-0.048,0.35-0.017,0.152c-0.246,1.573-0.611,3.13-1.131,4.637 c-0.081,0.234-0.573,1.392-0.488,1.243c-0.186,0.396-0.37,0.793-0.575,1.181c-0.595,1.128-1.288,2.181-2.017,3.226 c-0.024,0.034-0.03,0.045-0.05,0.073c-0.012,0.013-0.013,0.013-0.027,0.029c-0.199,0.227-0.384,0.468-0.582,0.696 c-0.397,0.457-0.808,0.901-1.235,1.33c-0.384,0.386-0.78,0.76-1.186,1.123c-0.226,0.201-0.455,0.399-0.687,0.592 c-0.09,0.075-0.656,0.477-0.57,0.424c-0.887,0.61-1.77,1.211-2.719,1.73c-0.531,0.29-1.077,0.545-1.62,0.811 c-0.022,0.011-0.05,0.023-0.081,0.037c-0.289,0.111-0.576,0.226-0.868,0.33c-1.181,0.419-2.396,0.746-3.628,0.976 c-0.252,0.047-0.505,0.087-0.758,0.13c1.079-0.185-0.173,0.015-0.339,0.031c-0.638,0.06-1.278,0.095-1.919,0.107 c-0.769,0.014-1.539-0.006-2.307-0.059c-0.319-0.022-0.639-0.068-0.958-0.085c-0.045-0.005-0.063-0.007-0.093-0.01 c-0.145-0.023-0.291-0.044-0.436-0.069c-0.194-0.034-0.385-0.086-0.579-0.124c-0.456,2.906-0.714,5.861-0.879,8.815 c6.811,1.093,13.938-0.065,20.071-3.817c4.988-3.052,9.271-7.603,11.742-12.927c2.842-6.123,3.418-12.696,2.733-19.302 c-0.362,0.052-0.729,0.101-1.09,0.153C101.823,131.391,99.23,131.716,96.657,132.15z M83.651,156.878 C83.446,156.965,83.148,157.071,83.651,156.878L83.651,156.878z" fill="#f6b1b3"/></g><g id="change4_4"><path d="M100.249,304.582c-1.25-14.778-11.01-28.022-25.538-32.063c-1.924-0.535-3.88-0.894-5.844-1.091 c0.022,2.987,0.055,5.974,0.091,8.961c0.005,0.001,0.014,0.002,0.018,0.003c0.441,0.071,0.879,0.151,1.317,0.242 c1.498,0.309,2.974,0.729,4.409,1.257c0.245,0.09,0.488,0.188,0.731,0.284c0.131,0.061,0.594,0.263,0.67,0.298 c0.691,0.326,1.369,0.679,2.033,1.058c0.664,0.379,1.312,0.784,1.944,1.215c0.211,0.144,0.417,0.295,0.624,0.445 c0.016,0.018,0.52,0.395,0.595,0.457c1.16,0.962,2.246,2.014,3.248,3.139c0.25,0.281,0.496,0.567,0.736,0.857 c0.046,0.056,0.269,0.349,0.389,0.505c0.39,0.536,0.775,1.075,1.134,1.633c0.817,1.27,1.545,2.597,2.179,3.967 c0.039,0.084,0.247,0.579,0.294,0.682c0.091,0.231,0.184,0.462,0.27,0.695c0.262,0.709,0.5,1.428,0.713,2.153 c0.4,1.363,0.691,2.747,0.925,4.147c0.028,0.2,0.074,0.513,0.082,0.593c0.038,0.376,0.07,0.753,0.096,1.13 c0.05,0.754,0.074,1.51,0.07,2.266c-0.003,0.63-0.025,1.26-0.066,1.888c-0.025,0.376-0.056,0.751-0.095,1.126 c-0.014,0.133-0.03,0.265-0.046,0.398c-0.01,0.062-0.022,0.145-0.04,0.265c-0.258,1.346-0.524,2.677-0.912,3.993 c-0.211,0.715-0.446,1.422-0.703,2.122c-0.09,0.243-0.186,0.483-0.28,0.724c0.073-0.203-0.353,0.816-0.421,0.96 c-0.291,0.62-0.611,1.226-0.938,1.828c2.354,0.599,4.716,1.148,7.04,1.698c0.621,0.147,1.244,0.28,1.866,0.421 C99.489,317.173,100.784,310.904,100.249,304.582z" fill="#f6b1b3"/></g><g id="change4_5"><path d="M337.588,296.048c-6.069,2.961-10.796,7.785-13.001,14.218c-2.103,6.137-1.432,12.845,1.233,18.678 c0.071,0.155,0.151,0.306,0.225,0.46c3.215-0.351,6.418-0.779,9.604-1.305c-0.347-0.506-0.692-1.008-1.006-1.537 c-0.283-0.476-0.549-0.962-0.796-1.457c-0.137-0.276-0.266-0.557-0.392-0.838c-0.014-0.041-0.025-0.072-0.044-0.126 c-0.423-1.195-0.722-2.382-0.994-3.618c-0.011-0.049-0.019-0.085-0.028-0.124c0,0,0,0,0,0c-0.024-0.315-0.064-0.628-0.084-0.943 c-0.04-0.63-0.053-1.261-0.037-1.892c0.013-0.505,0.061-1.007,0.093-1.511c0.004-0.062,0.006-0.109,0.009-0.154 c0.01-0.046,0.021-0.094,0.034-0.157c0.077-0.37,0.138-0.742,0.223-1.11c0.127-0.551,0.277-1.096,0.45-1.634 c0.096-0.299,0.205-0.592,0.308-0.888c0.01-0.028,0.015-0.042,0.023-0.066c0.537-1.171,1.184-2.252,1.922-3.308 c0.039-0.041,0.068-0.07,0.126-0.132c0.179-0.192,0.348-0.394,0.529-0.585c0.469-0.497,0.968-0.968,1.487-1.412 c0.133-0.114,0.27-0.223,0.406-0.334c0.09-0.056,0.608-0.432,0.65-0.461c0.567-0.387,1.151-0.749,1.746-1.09 c0.595-0.341,1.203-0.663,1.819-0.963c0.213-0.104,0.43-0.199,0.642-0.304c0.063-0.031,0.113-0.057,0.156-0.079 c0.029-0.011,0.053-0.02,0.089-0.033c1.121-0.428,2.248-0.821,3.408-1.128c0.924-0.244,1.857-0.427,2.797-0.589 c-0.06,0.024,1.092-0.133,1.334-0.151c0.655-0.049,1.311-0.075,1.967-0.077c0.652-0.002,1.305,0.018,1.956,0.064 c0.235,0.017,0.47,0.045,0.706,0.06c0.067,0.004,0.117,0.006,0.159,0.008c0.061,0.011,0.132,0.023,0.227,0.039 c0.18,0.03,0.357,0.077,0.536,0.111c-0.006-0.405-0.013-0.811-0.016-1.215c-0.016-2.582-0.04-5.163-0.06-7.745 C349.768,292.024,343.219,293.301,337.588,296.048z" fill="#f6b1b3"/></g><g id="change4_6"><path d="M348.353,167.932c-0.458-2.98-0.943-5.957-1.458-8.928c-0.236-0.005-0.473,0.008-0.708-0.004 c-0.37-0.019-0.738-0.048-1.107-0.083c-0.108-0.01-0.433-0.058-0.582-0.079c-0.743-0.127-1.481-0.276-2.21-0.464 c-1.046-0.269-2.063-0.621-3.071-1.004c0.025-0.007-1.009-0.449-1.215-0.552c-0.641-0.319-1.269-0.664-1.884-1.03 c-0.513-0.306-1.015-0.628-1.508-0.965c-0.294-0.201-0.581-0.411-0.87-0.619c-1.003-0.823-1.966-1.682-2.864-2.62 c-0.455-0.475-0.893-0.965-1.314-1.469c-0.113-0.135-0.222-0.272-0.332-0.409c-0.074-0.1-0.221-0.293-0.287-0.386 c-0.801-1.115-1.522-2.285-2.153-3.504c-0.256-0.495-0.491-1-0.72-1.509c-0.005-0.012-0.007-0.018-0.012-0.031 c-0.125-0.336-0.254-0.669-0.371-1.008c-0.442-1.282-0.786-2.597-1.026-3.932c-0.044-0.247-0.082-0.494-0.123-0.741 c0.183,1.107-0.008-0.127-0.025-0.305c-0.06-0.623-0.099-1.249-0.116-1.875c-0.038-1.343,0.042-2.676,0.172-4.011 c0.011-0.09,0.022-0.178,0.031-0.235c0.07-0.434,0.149-0.865,0.239-1.295c0.153-0.737,0.334-1.469,0.544-2.192 c0.114-0.393,0.256-0.776,0.385-1.164c-1.933-0.015-3.867-0.029-5.8-0.044c-1.145-0.009-2.291-0.017-3.436-0.026 c-1.744,7.096-1.179,14.74,1.926,21.585C323.544,160.255,335.91,168.492,348.353,167.932z M324.538,132.663 C324.525,132.781,324.527,132.758,324.538,132.663L324.538,132.663z M333.609,154.11 C333.303,153.888,333.448,153.991,333.609,154.11L333.609,154.11z" fill="#f6b1b3"/></g><g id="change3_5"><path d="M137.836,224.414c-0.017-2.14-0.033-4.281-0.05-6.421c-0.035-4.445-0.069-8.89-0.103-13.336 c-0.017-2.14-0.033-4.281-0.05-6.421c-0.016-2.089,0.361-4.681-0.731-6.557c-1.278-2.196-3.762-2.408-6.024-2.697 c-2.128-0.272-4.268-0.43-6.413-0.464c-2.065-0.033-4.131,0.045-6.187,0.234c-1.123,0.103-2.288,0.187-3.395,0.406 c-1.459,0.289-2.218,1.225-2.841,2.517c-1.724,3.572-1.998,7.519-2.1,11.425c-0.255,9.825-0.343,19.686,1.507,29.381 c0.301,1.58,2.2,2.48,3.661,2.079c0.087-0.024,0.16-0.063,0.242-0.094c3.831,0.567,7.694,0.877,11.57,0.801 c2.076-0.041,4.157-0.168,6.219-0.418c2.385-0.289,4.321-1.386,4.661-3.964C138.079,228.777,137.853,226.538,137.836,224.414z M132.132,195.147c0.027-0.003,0.062-0.004,0.069-0.013C132.18,195.16,132.156,195.16,132.132,195.147z M116.813,228.714 c-0.917-5.839-1.099-11.768-1.063-17.674c0.019-3.2,0.062-6.408,0.197-9.606c0.096-2.266,0.327-4.541,1.217-6.615 c4.229-0.502,8.545-0.474,12.768,0.001c0.228,0.026,1.128,0.209,1.726,0.293c0.008,0.712,0.011,1.424,0.017,2.136 c0.019,2.387,0.037,4.775,0.056,7.162c0.038,4.939,0.077,9.878,0.115,14.818c0.019,2.387,0.037,4.775,0.056,7.162 c0.006,0.785-0.106,1.73-0.085,2.598c-0.234,0.047-0.447,0.09-0.584,0.101C126.434,229.5,121.582,229.391,116.813,228.714z M131.83,229.266c0.016,0.252,0.04,0.499,0.094,0.726C131.473,229.745,131.555,229.478,131.83,229.266z M131.93,230.026 C132.017,230.398,131.915,230.105,131.93,230.026L131.93,230.026z M133.048,228.871c0.037,0.005,0.068,0.013,0.091,0.026 C133.116,228.884,133.08,228.879,133.048,228.871z" fill="#ed9ec4"/></g><g id="change3_6"><path d="M314.154,224.414c-0.017-2.14-0.033-4.281-0.05-6.421c-0.035-4.445-0.069-8.891-0.104-13.336 c-0.017-2.14-0.033-4.281-0.05-6.421c-0.016-2.089,0.361-4.681-0.731-6.557c-1.278-2.196-3.762-2.408-6.024-2.697 c-2.128-0.272-4.268-0.43-6.413-0.464c-2.065-0.033-4.131,0.044-6.187,0.234c-1.123,0.103-2.288,0.187-3.395,0.406 c-1.459,0.289-2.218,1.225-2.841,2.517c-1.724,3.572-1.999,7.519-2.1,11.425c-0.255,9.825-0.343,19.686,1.507,29.381 c0.301,1.58,2.2,2.48,3.661,2.079c0.087-0.024,0.16-0.063,0.242-0.094c3.831,0.567,7.694,0.877,11.57,0.801 c2.076-0.041,4.157-0.168,6.219-0.418c2.385-0.289,4.321-1.386,4.661-3.964C314.396,228.777,314.171,226.538,314.154,224.414z M293.131,228.714c-0.917-5.839-1.099-11.768-1.063-17.674c0.019-3.2,0.062-6.408,0.197-9.606 c0.096-2.266,0.327-4.541,1.217-6.615c4.229-0.502,8.545-0.474,12.768,0.001c0.228,0.026,1.128,0.209,1.726,0.293 c0.008,0.712,0.011,1.424,0.017,2.136c0.018,2.387,0.037,4.775,0.055,7.162c0.038,4.939,0.077,9.878,0.115,14.818 c0.019,2.387,0.037,4.774,0.056,7.162c0.006,0.785-0.106,1.73-0.085,2.598c-0.234,0.047-0.447,0.09-0.584,0.101 C302.752,229.5,297.899,229.391,293.131,228.714z" fill="#ed9ec4"/></g><g id="change5_3"><path d="M112.469,232.077c-0.992-7.412-1.921-14.867-1.856-22.359c0.032-3.718,0.308-7.441,0.969-11.102 c0.309-1.711,0.685-3.417,1.183-5.083c0.271-0.908,0.535-1.972,1.04-2.781c0.669-1.071,1.706-1.309,2.884-1.444 c3.766-0.432,7.803-0.022,11.573,0.222c1.748,0.113,3.531,0.181,5.263,0.453c1.593,0.25,3.322,0.804,3.484,2.672 c0.146,1.68-0.144,3.494-0.217,5.177c-0.086,1.974-0.153,3.949-0.202,5.924c-0.094,3.786-0.121,7.574-0.081,11.361 c0.045,4.272,0.296,8.537,0.372,12.807c0.037,2.103,0.226,4.797-2.144,5.572c-2.076,0.678-4.267,0.975-6.443,1.04 c-1.007,0.03-1.011,1.598,0,1.568c2.031-0.06,4.051-0.326,6.016-0.853c1.504-0.403,2.897-0.913,3.551-2.438 c0.7-1.631,0.627-3.638,0.575-5.375c-0.066-2.214-0.186-4.426-0.248-6.641c-0.249-8.807-0.128-17.622,0.341-26.42 c0.084-1.577,0.138-3.178-1.058-4.378c-1.013-1.015-2.496-1.386-3.87-1.579c-4.204-0.592-8.54-0.693-12.78-0.757 c-1.866-0.028-3.81-0.13-5.639,0.319c-1.739,0.427-2.591,1.504-3.233,3.116c-1.533,3.85-2.184,8.125-2.58,12.23 c-0.924,9.597,0.261,19.239,1.534,28.747C111.033,233.062,112.603,233.075,112.469,232.077L112.469,232.077z" fill="#603b8f"/></g><g id="change5_4"><path d="M125.33,230.16c2.089,0.562,4.243,0.752,6.397,0.543c0.451-0.044,0.745-0.326,0.784-0.784 c0.445-5.199,0.88-10.408,0.75-15.631c-0.025-1.007-1.593-1.011-1.568,0c0.131,5.223-0.304,10.432-0.75,15.631 c0.261-0.261,0.523-0.523,0.784-0.784c-2.023,0.196-4.017,0.041-5.98-0.487C124.771,228.386,124.355,229.898,125.33,230.16 L125.33,230.16z" fill="#603b8f"/></g><g id="change5_5"><path d="M71.506,183.44c0.902-14.019-1.847-30.869,8.845-42.011c9.511-9.911,24.849-9.928,37.573-11.07 c8.758-0.786,17.516-1.572,26.274-2.358c0.997-0.089,1.006-1.658,0-1.568c-8.262,0.742-16.525,1.483-24.787,2.225 c-7.058,0.634-14.211,1.019-21.18,2.374c-6.451,1.254-12.824,3.582-17.746,8.075c-5.162,4.713-7.956,11.236-9.186,18.015 c-1.577,8.687-0.797,17.552-1.361,26.318C69.873,184.448,71.442,184.444,71.506,183.44L71.506,183.44z" fill="#603b8f"/></g><g id="change5_6"><path d="M72.582,159.219c6.247-0.381,12.49-2.18,17.501-6.04c4.411-3.398,7.67-8.303,8.615-13.829 c0.169-0.987-1.342-1.411-1.512-0.417c-2.015,11.776-13.536,18.042-24.604,18.718C71.58,157.713,71.573,159.281,72.582,159.219 L72.582,159.219z" fill="#603b8f"/></g><g id="change5_7"><path d="M91.857,164.181c11.418-6.611,15.568-20.236,14.238-32.758c-0.105-0.993-1.674-1.004-1.568,0 c1.271,11.975-2.499,25.057-13.462,31.404C90.193,163.333,90.981,164.688,91.857,164.181L91.857,164.181z" fill="#603b8f"/></g><g id="change5_8"><path d="M67.767,241.149c0.323,18.246,0.645,36.492,0.968,54.738c0.041,2.333,0.083,4.666,0.124,6.999 c0.035,1.97-0.037,3.985,0.309,5.933c0.6,3.376,2.972,5.897,5.777,7.689c3.234,2.066,6.991,3.401,10.635,4.537 c3.937,1.227,7.961,2.145,11.979,3.061c9.674,2.206,19.373,4.386,29.258,5.404c1.003,0.103,0.995-1.465,0-1.568 c-8.535-0.879-16.936-2.653-25.296-4.542c-7.842-1.772-16.001-3.303-23.279-6.854c-2.994-1.461-6.174-3.549-7.256-6.88 c-0.624-1.921-0.511-4.035-0.546-6.03c-0.04-2.25-0.08-4.499-0.119-6.749c-0.155-8.748-0.309-17.496-0.464-26.244 c-0.174-9.831-0.348-19.662-0.522-29.494C69.317,240.142,67.749,240.138,67.767,241.149L67.767,241.149z" fill="#603b8f"/></g><g id="change5_9"><path d="M88.9,321.283c6.328-11.95,3.638-26.878-6.563-35.78c-0.757-0.661-1.871,0.444-1.109,1.109 c9.663,8.432,12.334,22.519,6.318,33.88C87.074,321.383,88.427,322.176,88.9,321.283L88.9,321.283z" fill="#603b8f"/></g><g id="change5_10"><path d="M69.533,272.003c8.098-0.138,15.528,5.474,20.852,11.093c5.776,6.096,9.618,14.097,9.098,22.629 c-0.062,1.008,1.507,1.004,1.568,0c0.545-8.935-3.512-17.358-9.557-23.738c-5.612-5.923-13.442-11.698-21.96-11.552 C68.526,270.453,68.522,272.021,69.533,272.003L69.533,272.003z" fill="#603b8f"/></g><g id="change5_11"><path d="M135.354,313.334c-0.886-17.457-2.069-34.899-3.55-52.316c-0.085-0.998-1.653-1.007-1.568,0 c1.481,17.417,2.664,34.858,3.55,52.316C133.837,314.338,135.405,314.344,135.354,313.334L135.354,313.334z" fill="#603b8f"/></g><g id="change5_12"><path d="M120.41,273.752c-0.255-3.208-0.51-6.417-0.764-9.626c-0.079-0.999-1.648-1.008-1.568,0 c0.255,3.209,0.51,6.417,0.764,9.626C118.921,274.751,120.49,274.76,120.41,273.752L120.41,273.752z" fill="#603b8f"/></g><g id="change5_13"><path d="M133.704,167.764c1.292-9.411,2.583-18.822,3.875-28.232c0.135-0.987-1.375-1.414-1.512-0.417 c-1.292,9.411-2.583,18.822-3.875,28.232C132.056,168.334,133.567,168.761,133.704,167.764L133.704,167.764z" fill="#603b8f"/></g><g id="change5_14"><path d="M187.635,126.827c23.07-0.321,46.056,2.008,69.102,2.593c6.58,0.167,13.164,0.184,19.743-0.034 c1.006-0.033,1.011-1.601,0-1.568c-23.064,0.765-46.066-1.463-69.095-2.295c-6.581-0.238-13.165-0.355-19.75-0.263 C186.627,125.273,186.624,126.841,187.635,126.827L187.635,126.827z" fill="#603b8f"/></g><g id="change5_15"><path d="M290.33,127.696c12.446-0.08,24.892-0.16,37.338-0.24c2.663-0.017,6.152-0.61,8.451,1.041 c1.987,1.427,2.914,3.996,3.716,6.2c2.015,5.539,3.703,11.198,5.058,16.935c1.557,6.589,2.665,13.275,3.331,20.012 c0.098,0.995,1.667,1.005,1.568,0c-1.229-12.435-3.931-24.703-8.126-36.476c-0.8-2.245-1.601-4.587-3.114-6.468 c-1.566-1.945-3.675-2.747-6.131-2.827c-6.544-0.212-13.14,0.069-19.687,0.111c-7.468,0.048-14.935,0.096-22.403,0.144 C289.322,126.134,289.32,127.702,290.33,127.696L290.33,127.696z" fill="#603b8f"/></g><g id="change5_16"><path d="M325.91,126.983c-2.576,6.025-2.838,12.951-0.059,18.963c2.403,5.201,7.023,9.272,12.513,10.914 c0.969,0.29,1.383-1.223,0.417-1.512c-5.013-1.5-9.136-5.175-11.419-9.862c-2.682-5.507-2.479-12.144-0.098-17.712 C327.656,126.857,326.306,126.057,325.91,126.983L325.91,126.983z" fill="#603b8f"/></g><g id="change5_17"><path d="M316.222,143.597c1.02,3.892,2.226,7.68,4.367,11.118c1.83,2.939,4.171,5.52,6.914,7.632 c2.659,2.048,5.658,3.638,8.849,4.683c3.775,1.235,7.68,1.452,11.623,1.548c1.009,0.025,1.009-1.543,0-1.568 c-3.673-0.089-7.304-0.272-10.835-1.373c-3.131-0.977-6.087-2.523-8.686-4.523c-2.641-2.032-4.892-4.54-6.629-7.382 c-2.003-3.278-3.124-6.859-4.092-10.551C317.478,142.205,315.965,142.618,316.222,143.597L316.222,143.597z" fill="#603b8f"/></g><g id="change5_18"><path d="M293.975,228.476c-0.649-7.752-1.141-15.537-0.803-23.318c0.084-1.939,0.22-3.876,0.418-5.806 c0.105-1.026,0.136-2.164,0.384-3.165c0.158-0.64,0.237-0.778,0.881-1.033c0.402-0.159,0.922-0.188,1.343-0.256 c3.777-0.615,7.64-0.349,11.323,0.662c0.974,0.268,1.39-1.245,0.417-1.512c-3.816-1.048-7.789-1.315-11.706-0.732 c-0.887,0.132-1.975,0.2-2.788,0.614c-0.75,0.383-0.866,1.074-0.982,1.841c-0.313,2.067-0.519,4.156-0.673,6.24 c-0.653,8.819-0.118,17.67,0.619,26.467C292.49,229.474,294.059,229.483,293.975,228.476L293.975,228.476z" fill="#603b8f"/></g><g id="change5_19"><path d="M288.314,234.758c6.368,1.41,12.926,1.702,19.389,0.804c2.443-0.339,6.138-0.439,7.407-2.972 c0.482-0.963,0.583-2.092,0.595-3.153c0.02-1.722-0.07-3.451-0.11-5.173c-0.161-6.942-0.323-13.884-0.484-20.826 c-0.076-3.264,0.046-6.603-0.27-9.853c-0.233-2.404-1.256-4.348-3.708-5.032c-1.61-0.449-3.386-0.525-5.045-0.65 c-1.889-0.143-3.784-0.198-5.678-0.163c-3.703,0.068-7.389,0.484-11.022,1.197c-0.989,0.194-0.57,1.706,0.417,1.512 c5.825-1.143,11.791-1.441,17.699-0.854c1.32,0.131,2.906,0.154,4.103,0.805c1.24,0.675,1.569,2.062,1.681,3.364 c0.248,2.871,0.165,5.801,0.232,8.682c0.14,6.033,0.28,12.066,0.421,18.099c0.069,2.958,0.233,5.933,0.197,8.892 c-0.015,1.195-0.121,2.657-1.241,3.363c-1.093,0.689-2.731,0.788-3.98,1c-6.687,1.136-13.57,0.912-20.186-0.553 C287.747,233.029,287.327,234.54,288.314,234.758L288.314,234.758z" fill="#603b8f"/></g><g id="change5_20"><path d="M271.66,332.32c17.288,0.696,34.706,0.551,51.952-0.938c7.737-0.668,15.952-1.606,23.155-4.683 c3.046-1.301,5.812-3.237,7.527-6.13c1.749-2.95,2.315-6.419,2.617-9.786c0.85-9.459,0.672-19.06-0.169-28.512 c-0.089-0.997-1.657-1.006-1.568,0c0.724,8.132,0.884,16.309,0.444,24.462c-0.191,3.534-0.354,7.176-1.527,10.549 c-1.193,3.431-3.626,5.88-6.845,7.481c-3.297,1.639-7.019,2.508-10.605,3.249c-4.064,0.84-8.184,1.364-12.314,1.737 c-8.16,0.737-16.37,1.076-24.56,1.259c-9.369,0.21-18.743,0.119-28.107-0.258C270.651,330.712,270.653,332.28,271.66,332.32 L271.66,332.32z" fill="#603b8f"/></g><g id="change5_21"><path d="M287.472,331.947c4.043-15.302,5.035-31.153,5.983-46.886c0.061-1.008-1.507-1.004-1.568,0 c-0.94,15.598-1.919,31.3-5.927,46.469C285.702,332.507,287.214,332.923,287.472,331.947L287.472,331.947z" fill="#603b8f"/></g><g id="change5_22"><path d="M302.708,315.852c1.521-9.394,2.739-18.776,3.266-28.283c0.536-9.666,0.582-19.349,0.628-29.027 c0.005-1.009-1.563-1.01-1.568,0c-0.045,9.514-0.09,19.033-0.601,28.536c-0.512,9.533-1.711,18.939-3.236,28.358 C301.036,316.422,302.547,316.847,302.708,315.852L302.708,315.852z" fill="#603b8f"/></g><g id="change5_23"><path d="M337.004,327.905c-4.846-7.026-3.433-16.522,3.22-21.848c0.788-0.631-0.328-1.734-1.109-1.109 c-7.165,5.737-8.675,16.197-3.466,23.748C336.22,329.521,337.579,328.738,337.004,327.905L337.004,327.905z" fill="#603b8f"/></g><g id="change5_24"><path d="M324.565,313.144c0.98-6.456,5.93-11.887,11.358-15.153c2.931-1.764,6.15-2.989,9.472-3.781 c1.748-0.416,3.523-0.716,5.31-0.901c1.746-0.181,3.707-0.473,5.43-0.053c0.98,0.238,1.398-1.273,0.417-1.512 c-1.753-0.427-3.623-0.214-5.401-0.047c-1.853,0.174-3.701,0.45-5.519,0.851c-3.677,0.811-7.269,2.145-10.501,4.089 c-5.742,3.455-11.041,9.256-12.079,16.09C322.903,313.715,324.413,314.14,324.565,313.144L324.565,313.144z" fill="#603b8f"/></g><g id="change5_25"><path d="M151.162,122.49c-0.527-5.632-0.411-11.326,0.452-16.92c0.422-2.734,0.961-5.246,3.377-6.912 c2.088-1.44,4.655-2.218,7.101-2.789c11.016-2.571,22.746-1.835,33.924-0.985c6.499,0.494,12.99,1.108,19.501,1.424 c1.009,0.049,1.006-1.519,0-1.568c-12.184-0.592-24.322-2.26-36.537-2.134c-5.769,0.059-11.672,0.433-17.305,1.751 c-2.571,0.602-5.272,1.448-7.475,2.947c-2.047,1.393-3.201,3.309-3.722,5.71c-1.372,6.327-1.485,13.054-0.883,19.476 C149.687,123.486,151.256,123.495,151.162,122.49L151.162,122.49z" fill="#603b8f"/></g><g id="change5_26"><path d="M222.959,107.194c3.919-0.185,7.749,0.149,11.631,0.653c3.897,0.506,7.808,0.481,11.727,0.628 c2.012,0.075,4.029,0.201,6.019,0.523c0.238,0.039,1.078,0.079,1.286,0.247c0.347,0.28,0.266,1.068,0.284,1.446 c0.049,0.988,0.087,1.976,0.115,2.965c0.118,4.12,0.055,8.243-0.169,12.359c-0.055,1.008,1.513,1.005,1.568,0 c0.241-4.445,0.295-8.898,0.137-13.347c-0.046-1.303,0.363-3.91-1.015-4.727c-0.771-0.457-1.883-0.477-2.741-0.595 c-0.943-0.13-1.89-0.226-2.839-0.296c-4.328-0.321-8.681-0.13-12.999-0.603c-4.363-0.477-8.599-1.027-13.004-0.82 C221.955,105.674,221.949,107.242,222.959,107.194L222.959,107.194z" fill="#603b8f"/></g><g id="change5_27"><path d="M243.139,97.478c3.808,0.154,7.595,0.575,11.337,1.302c3.18,0.618,7.328,1.036,9.234,3.999 c1.942,3.019,1.648,6.979,1.758,10.417c0.123,3.827,0.245,7.654,0.368,11.481c0.032,1.006,1.6,1.011,1.568,0 c-0.139-4.326-0.277-8.652-0.416-12.979c-0.112-3.503-0.106-7.327-2.309-10.263c-2.155-2.873-6.01-3.41-9.311-4.073 c-4.031-0.81-8.122-1.286-12.23-1.452C242.13,95.87,242.132,97.438,243.139,97.478L243.139,97.478z" fill="#603b8f"/></g><g id="change5_28"><path d="M295.325,182.623c0.328-14.593,0.286-29.191-0.126-43.782c-0.028-1.007-1.596-1.011-1.568,0 c0.412,14.59,0.454,29.189,0.126,43.782C293.734,183.632,295.302,183.632,295.325,182.623L295.325,182.623z" fill="#603b8f"/></g><g id="change5_29"><path d="M307.449,188.832c0.347-11.642,0.212-23.294-0.404-34.925c-0.053-1.004-1.621-1.01-1.568,0 c0.616,11.631,0.751,23.283,0.404,34.925C305.851,189.841,307.419,189.84,307.449,188.832L307.449,188.832z" fill="#603b8f"/></g><g id="change5_30"><path d="M146.89,182.623c-0.327-9.447,0.134-18.9,1.379-28.27c0.132-0.997-1.437-0.987-1.568,0 c-1.244,9.37-1.706,18.823-1.379,28.27C145.357,183.629,146.925,183.634,146.89,182.623L146.89,182.623z" fill="#603b8f"/></g><g id="change5_31"><path d="M150.373,143.202c-0.077-2.342,0.244-4.656,0.955-6.889c0.307-0.964-1.206-1.376-1.512-0.417 c-0.749,2.354-1.092,4.837-1.011,7.306C148.838,144.208,150.406,144.213,150.373,143.202L150.373,143.202z" fill="#603b8f"/></g><g id="change5_32"><path d="M154.588,152.201c-0.112-1.138-0.224-2.275-0.336-3.413c-0.04-0.407-0.332-0.804-0.784-0.784 c-0.39,0.017-0.827,0.347-0.784,0.784c0.112,1.138,0.224,2.275,0.336,3.413c0.04,0.407,0.332,0.804,0.784,0.784 C154.194,152.967,154.631,152.638,154.588,152.201L154.588,152.201z" fill="#603b8f"/></g><g id="change5_33"><path d="M235.877,323.218c13.747,2.057,27.685,2.499,41.532,1.274c0.997-0.088,1.007-1.657,0-1.568 c-13.698,1.212-27.513,0.817-41.115-1.218C235.307,321.558,234.881,323.069,235.877,323.218L235.877,323.218z" fill="#603b8f"/></g><g id="change5_2"><path d="M273.051,319.706c0.931,0,1.863,0,2.794,0c0.41,0,0.803-0.361,0.784-0.784 c-0.019-0.425-0.344-0.784-0.784-0.784c-0.931,0-1.863,0-2.794,0c-0.41,0-0.803,0.361-0.784,0.784 C272.286,319.346,272.611,319.706,273.051,319.706L273.051,319.706z" fill="#603b8f"/></g><g id="change5_39"><path d="M258.148,319.085c1.138,0,2.277,0,3.415,0c0.41,0,0.803-0.361,0.784-0.784 c-0.019-0.425-0.344-0.784-0.784-0.784c-1.138,0-2.277,0-3.415,0c-0.41,0-0.803,0.361-0.784,0.784 C257.383,318.725,257.708,319.085,258.148,319.085L258.148,319.085z" fill="#603b8f"/></g><g id="change5_37"><path d="M323.275,298.048c5.336-5.637,12.279-9.52,19.871-11.13c0.987-0.209,0.569-1.721-0.417-1.512 c-7.837,1.661-15.057,5.716-20.563,11.533C321.473,297.672,322.58,298.783,323.275,298.048L323.275,298.048z" fill="#603b8f"/></g><g id="change5_34"><path d="M324.944,288.467c1.879-0.897,3.759-1.793,5.638-2.69c0.382-0.182,0.482-0.729,0.281-1.073 c-0.229-0.391-0.689-0.464-1.073-0.281c-1.879,0.897-3.759,1.793-5.638,2.69c-0.382,0.182-0.482,0.729-0.281,1.073 C324.1,288.576,324.561,288.65,324.944,288.467L324.944,288.467z" fill="#603b8f"/></g><g id="change5_42"><path d="M324.672,282.027c0.738-0.389,1.476-0.777,2.213-1.166c0.363-0.191,0.504-0.728,0.281-1.073 c-0.238-0.37-0.684-0.486-1.073-0.281c-0.738,0.389-1.476,0.777-2.213,1.166c-0.363,0.191-0.504,0.728-0.281,1.073 C323.837,282.115,324.283,282.232,324.672,282.027L324.672,282.027z" fill="#603b8f"/></g><g id="change5_36"><path d="M309.501,142.88c-0.108,5.529,2.417,11.109,4.959,15.915c2.23,4.218,5.286,8.176,9.75,10.153 c0.914,0.405,1.713-0.945,0.791-1.354c-4.244-1.88-7.068-5.583-9.187-9.591c-2.411-4.559-4.847-9.877-4.744-15.124 C311.089,141.871,309.521,141.871,309.501,142.88L309.501,142.88z" fill="#603b8f"/></g><g id="change5_43"><path d="M309.509,156.197c-0.445,4.369,2.623,8.047,5.353,11.084c0.676,0.752,1.782-0.36,1.109-1.109 c-2.466-2.743-5.296-6.025-4.894-9.976c0.043-0.425-0.391-0.78-0.784-0.784C309.833,155.409,309.551,155.778,309.509,156.197 L309.509,156.197z" fill="#603b8f"/></g><g id="change5_35"><path d="M308.518,164.533c0.302,1.667,1.208,3.241,2.496,4.342c0.311,0.266,0.807,0.329,1.109,0 c0.269-0.293,0.333-0.824,0-1.109c-0.29-0.248-0.56-0.517-0.805-0.81c-0.027-0.032-0.054-0.066-0.081-0.098 c-0.095-0.114,0.041,0.059-0.014-0.017c-0.056-0.077-0.113-0.153-0.167-0.232c-0.108-0.157-0.21-0.318-0.305-0.483 c-0.09-0.156-0.173-0.316-0.25-0.478c-0.023-0.048-0.044-0.096-0.066-0.144c-0.036-0.077-0.021-0.049,0.004,0.012 c-0.036-0.088-0.071-0.177-0.104-0.266c-0.135-0.368-0.235-0.747-0.305-1.133c-0.073-0.404-0.587-0.67-0.964-0.548 C308.632,163.709,308.44,164.1,308.518,164.533L308.518,164.533z" fill="#603b8f"/></g><g id="change5_44"><path d="M75.13,263.968c-0.426-11.073-0.852-22.146-1.278-33.219c-0.039-1.006-1.607-1.011-1.568,0 c0.426,11.073,0.852,22.146,1.278,33.219C73.601,264.974,75.169,264.979,75.13,263.968L75.13,263.968z" fill="#603b8f"/></g><g id="change5_40"><path d="M78.858,259.001c0-4.243,0-8.486,0-12.729c0-1.009-1.568-1.011-1.568,0c0,4.243,0,8.486,0,12.729 C77.291,260.009,78.858,260.011,78.858,259.001L78.858,259.001z" fill="#603b8f"/></g><g id="change5_41"><path d="M82.892,257.857c-0.013-0.091-0.012-0.085,0.002,0.018c-0.004-0.032-0.008-0.064-0.011-0.096 c-0.008-0.074-0.016-0.149-0.022-0.223c-0.011-0.128-0.018-0.256-0.023-0.384c-0.01-0.278-0.006-0.556,0.011-0.833 c0.008-0.128,0.019-0.256,0.033-0.383c0.005-0.042,0.01-0.085,0.015-0.127c-0.013,0.092-0.015,0.108-0.006,0.05 c0.012-0.074,0.022-0.148,0.035-0.222c0.047-0.274,0.11-0.545,0.184-0.813c0.109-0.395-0.135-0.87-0.548-0.964 c-0.414-0.094-0.848,0.124-0.964,0.548c-0.348,1.262-0.403,2.556-0.219,3.847c0.026,0.18,0.211,0.381,0.36,0.469 c0.168,0.098,0.416,0.14,0.604,0.079c0.19-0.061,0.373-0.179,0.469-0.36C82.918,258.262,82.923,258.078,82.892,257.857 L82.892,257.857z" fill="#603b8f"/></g><g id="change5_38"><path d="M92.735,172.098c3.785-2.444,6.996-5.696,9.386-9.516c0.537-0.858-0.819-1.646-1.354-0.791 c-2.246,3.589-5.267,6.657-8.824,8.954C91.099,171.289,91.884,172.647,92.735,172.098L92.735,172.098z" fill="#603b8f"/></g><g id="change5_1"><path d="M98.075,172.227c1.005-0.451,1.866-1.288,2.36-2.27c0.095-0.189,0.137-0.395,0.079-0.604 c-0.05-0.182-0.191-0.379-0.36-0.469c-0.356-0.188-0.876-0.11-1.073,0.281c-0.121,0.241-0.264,0.468-0.427,0.682 c0.041-0.053,0.082-0.106,0.123-0.159c-0.231,0.298-0.497,0.565-0.796,0.796c0.053-0.041,0.106-0.082,0.159-0.123 c-0.266,0.203-0.552,0.374-0.857,0.511c-0.168,0.076-0.313,0.299-0.36,0.469c-0.052,0.188-0.028,0.438,0.079,0.604 c0.108,0.167,0.269,0.315,0.469,0.36c0.069,0.009,0.139,0.019,0.208,0.028C97.821,172.333,97.953,172.297,98.075,172.227 L98.075,172.227z" fill="#603b8f"/></g></svg>