<?xml version="1.0" encoding="UTF-8"?><svg xmlns="http://www.w3.org/2000/svg" xmlns:xlink="http://www.w3.org/1999/xlink" height="468.6" preserveAspectRatio="xMidYMid meet" version="1.1" viewBox="33.0 20.4 433.0 468.6" width="433.0" zoomAndPan="magnify">
 <g id="surface1">
  <g id="change1_1"><path d="m298.24 166.69c-4.56 16.56-9.38 35.49-20.02 49.32-1.29 3.13-2.49 6.29-3.47 9.55-2.72 9.06-5.46 20.35-12.44 27.17-0.89 0.86-1.91 1.6-3 2.2 2.43 2.34 5.15 5.15 5.73 8.5 1.53 8.82-9.56 8.31-15.1 7.72-2.18-0.24-4.26-0.45-6.42-0.29-2.06 0.15-4.04 0.39-5.91-0.74-3.16-1.91-3.05-5.76-1.39-8.61 1.55-2.68 3.24-5.3 4.77-8.01 0.51-0.91 0.95-1.87 1.37-2.83-4.81-3.35-6.43-8.57-8.58-14.05-1.36-3.47-3.28-6.79-5.35-10.05-3.97-4.72-7.08-10.37-9.92-15.57-0.54-0.98-1.09-1.95-1.63-2.92-1.02-1.78-2.03-3.55-3-5.34-2.67-4.7-5.34-9.4-7.83-14.2-8.55-16.47-15.35-34-19.84-52.01-4.26-17.07-7.39-35.58-3.5-52.983 3.75-16.785 14.96-30.582 29.73-39.113 9.35-5.403 19.68-7.911 30.13-7.817 0.36-0.297 0.75-0.582 1.18-0.84 18.99-11.343 38.59 4.684 49.02 19.953 11.27 16.512 15.67 36.586 15.3 56.37-0.34 18.64-4.91 36.72-9.83 54.59" fill="#c6e67c"/></g>
  <g id="change2_1"><path d="m386.5 253.38c-1.9 0-3.79-0.08-5.66-0.23 1.21 3.35 3.79 6.17 5.44 9.43 0.88 1.76-0.83 3.92-2.89 4.43-4.37 1.09-9.3 0.15-13.83 0.32-3.76 0.13-8.83 0.05-10.75-3.13-1.93-3.18 1.05-6.34 3.43-8.72 1.57-1.58 3.03-3.23 4.45-4.91-34.32-9.94-59.69-45.09-59.69-86.93 0-49.57 35.59-89.745 79.5-89.745 17.14 0 33.02 6.128 46 16.546 8.72 3.715 15.61 9.819 19.26 18.089 1.19 2.7 2.03 5.49 2.6 8.34 7.38 13.62 11.64 29.63 11.64 46.77 0 49.56-35.59 89.74-79.5 89.74" fill="#f58992"/></g>
  <g id="change3_1"><path d="m126.35 199.95c-0.88 1.45-2.8 2.96-2.58 4.76 0.16 1.38-0.49 2.34-1.49 2.9 1.67 1.41 3.35 2.86 4.47 4.55 1.11 1.68 0.86 3.52-0.64 4.58-0.19 0.16-0.39 0.31-0.63 0.44-3.82 2.09-10.31 1.81-14.92 1.29-3.36-0.38-7.32-0.19-10-2.44-3.165-2.64-1.716-5.81 0.31-8.19 1.63-1.92 3.08-3.93 4.66-5.87-0.03-0.41 0.03-0.83 0.15-1.23-40.727-3.89-72.703-42.44-72.703-89.41 0-19.502 5.511-37.545 14.867-52.264 0.414-1.195 0.847-2.39 1.308-3.593 2.34-6.114 4.832-12.012 10.43-16.453 0.711-0.563 1.504-0.793 2.277-0.797 4.668-5.231 10.422-9.707 16.946-12.778 9.148-4.3 20.257-5.004 31.295-3.816 0.79-0.024 1.58-0.043 2.38-0.043 43.9 0 79.5 40.18 79.5 89.744 0 44.16-28.26 80.87-65.48 88.35-0.05 0.09-0.09 0.18-0.15 0.27" fill="#f8db7e"/></g>
  <g id="change4_1"><path d="m371.8 246.62c-0.18-0.01-0.34-0.04-0.51-0.05-1.13-1.28-1.99-2.54-2.29-4.26 1.78 0.74 2.67 2.38 2.8 4.31zm8.3-1.67c-0.62 1.25-1.94 1.87-3.46 1.74 1.14-0.6 2.3-1.17 3.46-1.74zm-16.06 4.08c2.18-0.05 4.21 0.03 6.15 0.26 0.56 0.35 1.17 0.64 1.84 0.81 0.38 0.1 0.75-0.08 1-0.36 2.95 0.63 5.77 1.72 8.71 3.48 1.1 0.66 2.02-0.93 1.2-1.69-1.26-1.18-2.76-2.18-4.39-2.97 2.37-0.61 4.18-2.85 4.09-5.55-0.02-0.85-1.01-1.14-1.69-0.79-2.17 1.12-4.33 2.33-6.57 3.36-0.24-3.15-3.13-5.94-6.56-6.17-0.93-0.07-1.56 0.43-1.6 1.32-0.08 1.89 0.43 4.1 1.5 5.91-1.37 0.17-2.71 0.5-3.97 1.02-0.76 0.32-0.56 1.39 0.29 1.37zm-251.56-51.75c-0.18-0.02-0.34-0.04-0.51-0.06-1.13-1.27-1.99-2.53-2.29-4.26 1.77 0.74 2.67 2.39 2.8 4.32zm8.3-1.67c-0.62 1.25-1.94 1.86-3.47 1.74 1.15-0.6 2.31-1.17 3.47-1.74zm-16.06 4.08c2.18-0.05 4.21 0.02 6.15 0.25 0.56 0.36 1.17 0.65 1.84 0.81 0.38 0.1 0.75-0.07 1-0.35 2.95 0.63 5.77 1.72 8.71 3.48 1.1 0.66 2.02-0.93 1.2-1.7-1.26-1.17-2.76-2.17-4.39-2.97 2.37-0.6 4.18-2.84 4.09-5.55-0.02-0.84-1.01-1.13-1.69-0.78-2.17 1.12-4.33 2.32-6.57 3.36-0.24-3.15-3.13-5.94-6.56-6.18-0.93-0.06-1.56 0.43-1.6 1.33-0.08 1.89 0.43 4.09 1.5 5.91-1.37 0.17-2.71 0.5-3.97 1.02-0.77 0.32-0.56 1.39 0.29 1.37zm3.51 13.67c-0.92 0.38-1.55-1.11-0.7-1.56 3.2-1.7 9-2.18 11.24 1.36 0.3 0.48-0.17 1.13-0.72 0.99-1.55-0.39-2.91-1.24-4.52-1.49-0.12-0.02-0.24-0.02-0.37-0.04-0.3 10.3-11.5 16.93-14.074 27.09-3.047 12.05-0.391 24.22 4.574 35.35 8.23 18.47 22.16 33.9 28.97 53.08 3.17 8.95 4.38 18.25 2.78 27.65-1.66 9.71-5.65 18.82-8.05 28.35-5.63 22.38-0.24 43.77 11.21 63.26 0.51 0.87-0.82 1.82-1.44 1.03-10.72-13.75-15.27-32.36-14.26-49.59 1.02-17.44 10.86-32.97 11.38-50.36 0.57-19.41-11.04-36.39-20.92-52.14-8.47-13.5-17.74-28.42-17.377-44.81 0.57-25.62 14.137-24.6 15.967-38.96-1.26 0.03-2.53 0.31-3.69 0.79zm144.06 51.05c3.48 18.13 3.86 37.77-2.52 52.66-7.09 16.54-20.43 25.56-33.1 33.21-14.78 8.91-31.51 17.81-39.09 38.12-6.79 18.2-5.03 41.31-11.42 59.92-6.32 18.4-17.83 34.14-32.48 40.39-0.84 0.36-1.57-1.59-0.78-2.1 17.64-11.61 31.02-29.58 35.62-56.63 1.95-11.51 2.41-23.77 5.06-34.93 2.56-10.8 7.43-19.46 13.79-26.3 13.64-14.68 31.67-20.3 46.2-33.2 8.76-7.78 16.03-18.31 18.5-32.89 2.07-12.28 0.64-25.25-0.93-38.21-0.1 0.01-0.22 0-0.33 0.02-1.45 0.28-2.6 1.3-3.99 1.75-0.49 0.16-1-0.68-0.78-1.27 1.62-4.38 7.03-3.61 10.21-1.37 0.84 0.59 0.43 2.44-0.45 1.94-1.14-0.64-2.34-1.03-3.51-1.11zm123.28-1.83c0.25 14.47-3.16 29.83-12.96 40.86-10.9 12.25-27.09 18.04-42.31 22.82-17.73 5.57-37.58 10.95-49.74 26.09-10.9 13.57-13.49 31.77-24.03 45.7-10.42 13.77-25.94 24.97-43.03 28.48-0.98 0.2-1.38-1.39-0.43-1.72 21.36-7.4 39.34-20.18 49.58-40.86 4.36-8.8 7.24-18.32 12.28-26.79 4.88-8.18 11.83-14.48 20.05-19.23 17.63-10.18 38.24-12.88 56.5-21.58 10.99-5.25 20.91-12.79 26.41-23.94 4.64-9.39 5.61-19.64 6.44-29.91-0.12 0-0.24-0.02-0.37-0.01-1.62 0.08-3.07 0.77-4.66 0.99-0.56 0.08-0.95-0.62-0.6-1.06 2.61-3.27 8.32-2.16 11.32-0.12 0.8 0.54 0 1.95-0.86 1.48-1.11-0.61-2.34-1.03-3.59-1.2zm-126.05-13.28c-0.17-0.01-0.34-0.04-0.51-0.05-1.13-1.27-1.99-2.54-2.29-4.26 1.78 0.74 2.67 2.39 2.8 4.31zm8.3-1.67c-0.62 1.25-1.93 1.87-3.46 1.75 1.14-0.6 2.3-1.18 3.46-1.75zm-16.06 4.08c2.18-0.05 4.2 0.03 6.15 0.26 0.56 0.35 1.16 0.64 1.84 0.81 0.38 0.1 0.75-0.08 1-0.36 2.95 0.63 5.78 1.72 8.71 3.49 1.1 0.65 2.02-0.93 1.2-1.7-1.26-1.18-2.76-2.17-4.39-2.97 2.37-0.61 4.18-2.85 4.1-5.55-0.03-0.85-1.02-1.14-1.69-0.78-2.18 1.11-4.34 2.32-6.57 3.35-0.25-3.15-3.13-5.94-6.57-6.17-0.93-0.06-1.56 0.43-1.6 1.33-0.08 1.88 0.43 4.09 1.5 5.9-1.37 0.17-2.71 0.5-3.98 1.03-0.75 0.31-0.55 1.38 0.3 1.36" fill="#0f0e0c"/></g>
  <g id="change5_1"><path d="m318.99 171.23c-0.16-1.28-2.07-1.37-2.06 0 0 5.93 1.3 12.3 4.68 17.28 0.69 1.01 2.64 0.41 2.13-0.9-2.11-5.46-4.04-10.52-4.75-16.38zm28.08-74.582c-9.38 7.682-17.02 17.732-22.25 28.652-4.88 10.19-8.97 22.81-8.04 34.25 0.11 1.39 2.36 1.95 2.63 0.36 2.02-11.76 3.51-22.69 8.61-33.65 4.99-10.75 11.99-19.97 20.53-28.135 0.99-0.945-0.46-2.313-1.48-1.477zm-54.6 51.902c-0.5 6.62-2.21 12.68-3.88 19.04-0.32 1.22 1.57 2.13 2.11 0.89 2.69-6.22 3.68-13.19 4.04-19.93 0.08-1.46-2.16-1.44-2.27 0zm-11.58-88.304c6.82 11.645 11.47 24.738 13.73 38.024 2.41 14.15 1.57 27.59-0.82 41.63-0.22 1.31 1.63 1.88 2.04 0.56 8.4-27.12 2.14-57.933-13.19-81.237-0.72-1.086-2.42-0.114-1.76 1.023zm-215.64 98.644c-2.348-1.52-4.684-2.73-6.68-4.76-1.957-1.99-3.336-4.33-4.601-6.79-0.543-1.05-2.293-0.33-1.922 0.8 1.777 5.4 6.734 11.2 12.328 12.83 1.27 0.37 1.93-1.39 0.875-2.08zm-13.875-18.62c0.356 1.24-1.5 1.72-1.914 0.52-9.57-27.59-6.336-57.763 8.09-83.028 0.625-1.098 2.258-0.125 1.683 0.984-12.933 24.949-15.511 54.554-7.859 81.524" fill="#fff"/></g>
 </g>
</svg>