<?xml version="1.0" encoding="utf-8"?>
<!DOCTYPE svg PUBLIC "-//W3C//DTD SVG 1.1//EN" "http://www.w3.org/Graphics/SVG/1.1/DTD/svg11.dtd">
<!-- Generator: Adobe Illustrator 19.1.0, SVG Export Plug-In . SVG Version: 6.00 Build 0)  -->
<svg version="1.1" id="Layer_1" xmlns="http://www.w3.org/2000/svg" xmlns:xlink="http://www.w3.org/1999/xlink" x="0px" y="0px"
	 viewBox="0 0 203 203" enable-background="new 0 0 203 203" xml:space="preserve">
<g id="change2">
	<g>
		<path fill="#E2DBDA" d="M198.8,78.5c1.7,7.4,2.7,15.1,2.7,23c0,20.3-6,39.1-16.4,54.9c0,0-55.3-5.7-137.7-54.9
			c-0.4-0.3-0.9-0.6-1.4-0.8c0.7-1.4,1.4-2.8,2.2-4.1c5.4-9.7,10.9-18.3,16.4-25.8c0,0,28.7,19.9,71.4,8.3
			C157,73.2,172.6,72.8,198.8,78.5z"/>
	</g>
	<g>
		<path fill="#E2DBDA" d="M150.6,14.3c24,13.5,41.8,36.6,48.3,64.1c-26.2-5.6-41.8-5.3-62.8,0.5c-42.7,11.7-71.4-8.3-71.4-8.3
			C108.3,10.5,150.6,14.3,150.6,14.3z"/>
	</g>
	<g>
		<path fill="#E2DBDA" d="M185.1,156.4c-15.5,23.6-40.8,40.3-70.2,44.2c-0.6-0.3-21.2-8.8-35.9-29.2c-20.4-28.3-36.8-42.5-42.2-46.8
			c1.9-7.5,4.9-15.5,9.2-23.9c0.4,0.3,0.9,0.6,1.4,0.8C129.8,150.7,185.1,156.4,185.1,156.4z"/>
	</g>
	<g>
		<path fill="#E2DBDA" d="M150.6,14.3c0,0-42.2-3.8-85.8,56.4c0,0-32.5-23.3-8.4-58.4C69.9,5.4,85.2,1.5,101.5,1.5
			C119.3,1.5,136.1,6.2,150.6,14.3z"/>
	</g>
	<g>
		<path fill="#E2DBDA" d="M114.9,200.6c-4.4,0.6-8.9,0.9-13.4,0.9c-24.1,0-46.3-8.5-63.6-22.8c0,0,0,0,0,0c-0.3-0.7-9.1-23.1-1-54.1
			c5.3,4.3,21.8,18.5,42.2,46.8C93.8,191.8,114.3,200.3,114.9,200.6z"/>
	</g>
	<g>
		<path fill="#E2DBDA" d="M64.7,70.7c-5.5,7.6-11,16.1-16.4,25.8c-0.8,1.4-1.5,2.8-2.2,4.1C27.3,88.7,9.8,61.5,9.8,61.5
			c9.3-21.3,25.8-38.8,46.5-49.2C32.2,47.4,64.7,70.7,64.7,70.7z"/>
	</g>
	<g>
		<path fill="#E2DBDA" d="M46.1,100.7c-4.3,8.3-7.2,16.4-9.2,23.9c-1.2-1-1.8-1.4-1.8-1.4c-21.8-11.9-32.3-5.3-32.3-5.3
			c-0.9-5.3-1.3-10.8-1.3-16.3c0-14.2,3-27.8,8.3-40C9.8,61.5,27.3,88.7,46.1,100.7z"/>
	</g>
	<g>
		<path fill="#E2DBDA" d="M35.1,123.2c0,0,0.6,0.4,1.8,1.4c-8,31,0.7,53.5,1,54.1c-18.3-15.1-31.1-36.5-35.1-60.9
			C2.8,117.8,13.3,111.3,35.1,123.2z"/>
	</g>
</g>
<g id="change1">
	<g>
		<path fill="#594B4A" d="M101.5,203c-23.5,0-46.4-8.2-64.5-23.1l1.9-2.3C56.4,192,78.7,200,101.5,200c4.4,0,8.9-0.3,13.2-0.9
			c28.2-3.8,53.4-19.6,69.1-43.5c10.6-16.1,16.2-34.8,16.2-54.1c0-7.7-0.9-15.3-2.6-22.7c-6.3-26.7-23.6-49.7-47.6-63.2
			C135.2,7.4,118.5,3,101.5,3C85.8,3,70.9,6.6,57,13.6C36.6,23.9,20.3,41.2,11.2,62.1C5.8,74.5,3,87.8,3,101.5
			c0,5.4,0.4,10.8,1.3,16.1c3.8,23.5,16.1,44.8,34.6,60l-1.9,2.3c-19-15.7-31.7-37.6-35.6-61.8C0.5,112.7,0,107.1,0,101.5
			c0-14.1,2.8-27.8,8.5-40.6c9.4-21.6,26.2-39.3,47.2-50C69.9,3.7,85.4,0,101.5,0c17.5,0,34.7,4.5,49.8,13
			c24.7,13.9,42.5,37.6,49,65.1c1.8,7.6,2.7,15.5,2.7,23.4c0,19.9-5.8,39.2-16.7,55.7c-16.2,24.6-42.1,41-71.2,44.9
			C110.6,202.7,106,203,101.5,203z"/>
	</g>
	<g>
		<path fill="#594B4A" d="M36.5,179.3c-0.4-1-9.2-23.7-1.1-55.1c2.1-8.2,5.2-16.3,9.3-24.2c0.7-1.4,1.5-2.8,2.2-4.2
			c5.2-9.3,10.8-18,16.5-26C76,52.5,96.6,29.6,123.4,18.6c16.2-6.6,26.8-5.8,27.3-5.7l-0.3,3c-0.4,0-42-2.9-84.5,55.7
			c-5.7,7.8-11.2,16.5-16.3,25.7c-0.7,1.3-1.5,2.7-2.2,4.1c-3.9,7.7-7,15.6-9,23.6c-7.9,30.5,0.6,52.3,1,53.2l0.1,0.3v0.3l-1.5,0
			L36.5,179.3z"/>
	</g>
	<g>
		<path fill="#594B4A" d="M109.4,84.1c-10.3,0-19-1.6-25.4-3.5c-12.6-3.6-19.8-8.5-20.1-8.7c-0.4-0.3-33.4-24.5-8.8-60.5
			c0.5-0.7,1.4-0.9,2.1-0.4c0.7,0.5,0.9,1.4,0.4,2.1C47.9,27.2,46.3,41,52.8,54c4.9,9.8,12.7,15.4,12.8,15.5
			c0.3,0.2,28.7,19.4,70.1,8c21.7-5.9,37.7-6.1,63.5-0.5c0.8,0.2,1.3,1,1.2,1.8c-0.2,0.8-1,1.3-1.8,1.2c-25.3-5.4-40.9-5.3-62,0.5
			C126.6,83.1,117.5,84.1,109.4,84.1z"/>
	</g>
	<g>
		<path fill="#594B4A" d="M185.1,157.9c-0.1,0-0.1,0-0.2,0c-0.6-0.1-56.6-6.3-138.3-55.1l-0.4-0.2c-0.3-0.2-0.7-0.4-1-0.6
			c-18.8-12-36-38.5-36.7-39.6c-0.4-0.7-0.2-1.6,0.5-2.1s1.6-0.2,2.1,0.5c0.2,0.3,17.5,27,35.8,38.7c0.3,0.2,0.6,0.4,1,0.6l0.4,0.2
			c42.3,25.3,77.3,38.8,99.3,45.7c23.7,7.5,37.6,9,37.8,9c0.8,0.1,1.4,0.8,1.3,1.6C186.5,157.3,185.8,157.9,185.1,157.9z"/>
	</g>
	<g>
		<path fill="#594B4A" d="M114.9,202.1c-0.2,0-0.5-0.1-0.7-0.2c-1.9-0.8-22-9.7-36.4-29.7c-19.9-27.7-35.9-41.7-41.9-46.5
			c-0.9-0.7-1.5-1.2-1.7-1.3c-10.8-5.8-18.6-7-23.2-6.9c-5,0.1-7.5,1.5-7.5,1.6c-0.7,0.4-1.6,0.2-2.1-0.5c-0.4-0.7-0.2-1.6,0.5-2.1
			c0.5-0.3,11.5-6.8,33.8,5.3l0.2,0.1c0,0,0.7,0.5,1.9,1.5c6.1,4.8,22.3,19.1,42.4,47.1c14.6,20.2,35,28.6,35.2,28.7l0.3,0.1
			l0.2,0.3c0.6,0.6,0.5,1.6-0.1,2.1C115.7,202,115.3,202.1,114.9,202.1z"/>
	</g>
</g>
</svg>
