<?xml version="1.0" encoding="UTF-8"?><svg xmlns="http://www.w3.org/2000/svg" xmlns:xlink="http://www.w3.org/1999/xlink" height="291.0" preserveAspectRatio="xMidYMid meet" version="1.0" viewBox="0.0 0.0 353.8 291.0" width="353.8" zoomAndPan="magnify"><defs><clipPath id="a"><path d="M 0 0 L 353.761719 0 L 353.761719 290.96875 L 0 290.96875 Z M 0 0"/></clipPath><clipPath id="b"><path d="M 0 150 L 298 150 L 298 290.96875 L 0 290.96875 Z M 0 150"/></clipPath><clipPath id="c"><path d="M 72.683594 153.324219 C 67.675781 114.679688 84.519531 69.171875 112.207031 43.015625 C 140.195312 16.574219 178.933594 -1.121094 217.78125 0.0546875 C 353.945312 4.164062 348.179688 109.730469 353.703125 135.039062 C 355.992188 145.519531 280.53125 198.550781 278.792969 198.875 C 241.226562 231.222656 193.996094 285.554688 150.667969 290.445312 C 127.835938 293.023438 104.070312 285.585938 82.382812 279.375 C 57.914062 272.367188 29.898438 265.214844 8.6875 250.519531 C -22.199219 229.125 38.007812 183.660156 53.316406 170.234375 C 59.496094 164.816406 65.765625 159.503906 71.894531 154.03125 C 72.15625 153.796875 72.421875 153.5625 72.683594 153.324219 Z M 72.683594 153.324219"/></clipPath><clipPath id="d"><path d="M 70 2 L 302 2 L 302 206 L 70 206 Z M 70 2"/></clipPath><clipPath id="e"><path d="M 72.683594 153.324219 C 67.675781 114.679688 84.519531 69.171875 112.207031 43.015625 C 140.195312 16.574219 178.933594 -1.121094 217.78125 0.0546875 C 353.945312 4.164062 348.179688 109.730469 353.703125 135.039062 C 355.992188 145.519531 280.53125 198.550781 278.792969 198.875 C 241.226562 231.222656 193.996094 285.554688 150.667969 290.445312 C 127.835938 293.023438 104.070312 285.585938 82.382812 279.375 C 57.914062 272.367188 29.898438 265.214844 8.6875 250.519531 C -22.199219 229.125 38.007812 183.660156 53.316406 170.234375 C 59.496094 164.816406 65.765625 159.503906 71.894531 154.03125 C 72.15625 153.796875 72.421875 153.5625 72.683594 153.324219 Z M 72.683594 153.324219"/></clipPath></defs><g><g clip-path="url(#a)" id="change1_1"><path d="M 72.683594 153.324219 C 67.675781 114.679688 84.519531 69.171875 112.207031 43.015625 C 140.195312 16.574219 178.933594 -1.121094 217.78125 0.0546875 C 353.945312 4.164062 348.179688 109.730469 353.703125 135.039062 C 355.992188 145.519531 280.53125 198.550781 278.792969 198.875 C 241.226562 231.222656 193.996094 285.554688 150.667969 290.445312 C 127.835938 293.023438 104.070312 285.585938 82.382812 279.375 C 57.914062 272.367188 29.898438 265.214844 8.6875 250.519531 C -22.199219 229.125 38.007812 183.660156 53.316406 170.234375 C 59.496094 164.816406 65.765625 159.503906 71.894531 154.03125 C 72.15625 153.796875 72.421875 153.5625 72.683594 153.324219" fill="#edaf36" fill-rule="evenodd"/></g><g clip-path="url(#b)"><g clip-path="url(#c)" clip-rule="evenodd" id="change2_1"><path d="M 68 152.496094 C 68 152.496094 72.5 201.5 182 202.5 C 291.5 203.5 297.5 193 297.5 193 L 265.5 257 L 150.5 293 C 150.5 293 80.5 289.5 72.5 287 C 64.5 284.5 20.5 274 16.5 267 C 12.5 260 -1 261.5 0 247.5 C 1 233.5 -5.5 204 3 198 C 11.5 192 16.5 169.496094 25.5 167.996094 C 34.5 166.496094 68.5 150.496094 68.5 150.496094" fill="#dd0a74"/></g></g><g clip-path="url(#d)"><g clip-path="url(#e)" clip-rule="evenodd"><path d="M 2255.742188 2735.79375 C 2359.84375 2797.864062 2483.90625 2870.090625 2608.359375 2866.301562 M 1898.867188 2660.325 C 1781.5625 2669.309375 1683.90625 2644.621875 1652.265625 2635.676562 C 1375.976562 2557.5125 1113.945312 2430.207812 926.09375 2207.317187 M 2263.789062 2550.16875 C 2261.5625 2551.340625 2266.328125 2547.66875 2266.445312 2547.590625 C 2282.617188 2536.2625 2298.984375 2525.48125 2314.492188 2513.176562 C 2344.648438 2489.309375 2373.515625 2463.645312 2401.054688 2436.770312 C 2479.375 2360.325 2546.523438 2271.457812 2607.773438 2181.028125 C 2803.046875 1892.864062 2915.039062 1587.160937 2995.15625 1250.754687 M 2111.132812 2711.184375 C 2020.9375 2700.910937 1935.078125 2638.879687 2014.84375 2602.317187 C 2077.03125 2573.801562 2218.945312 2628.410937 2225.390625 2665.95 C 2231.132812 2699.426562 2147.539062 2715.325 2111.132812 2711.184375 Z M 2870.9375 944.582812 C 2322.851562 835.95 1115.546875 764.85625 723.945312 1274.075" fill="none" stroke="#725bb3" stroke-linecap="round" stroke-linejoin="round" stroke-miterlimit="10" stroke-width="30.49" transform="matrix(.1 0 0 -.1 0 290.97)"/></g></g></g></svg>