<?xml version="1.0" encoding="UTF-8"?><svg xmlns="http://www.w3.org/2000/svg" xmlns:xlink="http://www.w3.org/1999/xlink" height="114.3" preserveAspectRatio="xMidYMid meet" version="1.0" viewBox="0.0 -2.9 227.0 114.3" width="227.0" zoomAndPan="magnify"><g id="change1_1"><path d="M217.3,43.7c-2.6-0.7-5.6-1.3-8.5-0.6c-4.9,1-8.3,9.6-10.3,17.5c0,0.1,0,0.1,0,0.2c0,0,0,0,0,0 c-0.2,0.7-0.3,1.3-0.5,2c-0.4,1.9-0.7,4.7-1.1,7.1l-1,9.3l-5.3-5.3c-6-5.5-26.2-22.3-29.5-9.9l-1.3,8l-1,13.2l-5.2-8.1 c-0.4-0.5-0.8-1.2-1.3-1.9c-3.4-5.9-9.1-9.7-15.7-5.4c-0.6,0.5-6.8,6-11,19.4c-0.3,0.9-0.6,1.9-0.9,2.9c0,0,0,0,0,0 c-0.2,0.7-0.4,1.3-0.6,1.9c-2.1,6.4-5,13.3-8.3,15.4c-2.5,2-5.3-0.1-8.9-10.7c-0.9-2.7-1.7-5.5-2.5-8.2c0,0,0,0,0,0 c-3.5-13.3-11.1-20.1-11.8-20.6c-6-4-11.2-1.2-14.7,3.7L71,85.2l-1.3-13.2l-1.3-8c-2.8-10.6-18.1,0.2-26.2,7L33,80.2 c0,0-0.1-7.8-0.6-13c-0.2-1.6-0.5-3.2-0.7-4.4c-0.1-0.7-0.3-1.3-0.5-2c0,0,0,0,0,0c0-0.1,0-0.1,0-0.2c-2-7.9-5.3-16.5-10.3-17.5 c-3.1-0.6-6.2,0-8.8,0.7C6.1,45.9,0,49.2,0,49.2L10.6,37l0,0C19.5,26.8,40,10.4,55.8,11c18.1,0.7,41,34.7,42.5,37 c-0.1-2.7-0.2-13.6,3.2-18.6c-13.7-7.2-5.7-18-3.4-22.3c2.3-4.3,7.9-9.6,8.6-4.8c0.7,4.6,3.4,22,4.2,23.5c3.8-0.5,8.2-0.7,12-0.2 c0.8-1.4,2.9-19.1,3.5-23.7c0.6-4.8,6.3,0.3,8.8,4.5c2.4,4.2,11,15-3.2,22.7c-0.2,0.1-0.3,0.2-0.4,0.2c0.3,0.4,0.6,0.8,0.8,1.3 c1,2.3,1.1,7.9,0.6,15c5.8-8.2,25.2-34,40.9-34.6c16.1-0.6,36.9,16.3,45.6,26.4c0,0,0,0,0,0s0.1,0.1,0.3,0.4 c0.1,0.1,0.2,0.3,0.3,0.4c1.7,2,6.1,7.4,6.9,9C227,47.2,220.6,44.7,217.3,43.7z" fill="#230B19"/></g><g id="change2_1"><path d="M126.5,37.3c0,0.1,0,0.2,0.1,0.4c0.3,2-0.8,3.8-2.4,4.3l0,0c0,0,0,0,0,0c-0.2,0.1-0.5,0.1-0.8,0.1 c-0.7,0.1-1.6,0.1-2.3-0.3c0,0,0,0,0,0c-0.4-0.2-0.7-0.4-0.9-0.8c0,0,0,0,0,0c-0.3-0.3-0.4-0.7-0.5-1.2c0-0.1,0-0.2-0.1-0.3 c0,0,0,0,0,0c0,0,0,0,0,0c0-0.1,0-0.2,0.1-0.2c1.4-0.3,4.7-1.2,6.6-2.2C126.4,37.1,126.5,37.2,126.5,37.3z M105.3,37.2 c-0.1-0.1-0.2,0-0.2,0.1c0,0.2-0.1,0.4-0.1,0.6c-0.2,2,1,3.7,2.6,4.1l0,0c0,0,0,0,0,0c0.2,0.1,0.5,0.1,0.8,0.1c0.7,0,1.6,0,2.3-0.4 c0,0,0,0,0,0c0.4-0.2,0.6-0.5,0.9-0.9c0,0,0,0,0,0c0.3-0.3,0.4-0.8,0.5-1.2c0-0.1,0-0.2,0-0.3c0,0,0,0,0,0c0,0,0,0,0,0 c0-0.1-0.1-0.2-0.1-0.2C110.8,38.9,107,38.3,105.3,37.2z" fill="#F29A30"/></g></svg>