<?xml version="1.0" encoding="UTF-8"?><svg xmlns="http://www.w3.org/2000/svg" xmlns:xlink="http://www.w3.org/1999/xlink" height="110.7" preserveAspectRatio="xMidYMid meet" version="1.0" viewBox="-0.1 -0.2 216.5 110.7" width="216.5" zoomAndPan="magnify"><g id="change1_1"><path d="M215.7,27.2L166.9,0.1c-0.5-0.3-1.1-0.1-1.4,0.4c-11,19-29.5,29.5-43.6,34.9l3-20.8c0.1-0.4-0.2-0.9-0.6-1 c-0.4-0.2-0.9-0.1-1.2,0.2l-14.8,15.5L93.6,13.8c-0.3-0.3-0.8-0.4-1.2-0.2c-0.4,0.2-0.6,0.6-0.6,1l3,21C82.8,31,62.3,20.6,50.7,0.5 c-0.3-0.5-0.9-0.6-1.4-0.4L0.5,27.2c-0.4,0.2-0.6,0.6-0.5,1c0,0.4,0.3,0.7,0.7,0.9l5.9,1.8c19.7,6.1,36.5,20.1,46.1,38.4 c0.2,0.3,0.5,0.5,0.9,0.5c40.7,0,53.5,39.6,53.6,40c0.1,0.4,0.5,0.7,1,0.7c0.4,0,0.8-0.3,1-0.7c0.1-0.4,12.9-40,53.6-40 c0.4,0,0.7-0.2,0.9-0.5c9.5-18.3,26.3-32.3,46.1-38.4l5.9-1.8c0.4-0.1,0.7-0.5,0.7-0.9C216.3,27.8,216.1,27.4,215.7,27.2z" fill="#D6D6D6"/></g></svg>