<?xml version="1.0" encoding="utf-8"?>
<!-- Generator: Adobe Illustrator 16.0.0, SVG Export Plug-In . SVG Version: 6.00 Build 0)  -->
<!DOCTYPE svg PUBLIC "-//W3C//DTD SVG 1.1//EN" "http://www.w3.org/Graphics/SVG/1.1/DTD/svg11.dtd">
<svg version="1.1" id="Layer_1" xmlns="http://www.w3.org/2000/svg" xmlns:xlink="http://www.w3.org/1999/xlink" x="0px" y="0px"
	 width="101.417px" height="382.602px" viewBox="0 0 101.417 382.602" enable-background="new 0 0 101.417 382.602"
	 xml:space="preserve">
<g id="change2">
	<path fill="#744C28" d="M30.69,32.695l-9.097,92.631c0,0-22.331,13.234-21.504,44.659c0.829,31.433-0.025,205.116-0.025,205.116
		s-2.457,8.269,23.182,7.441c25.639-0.826,66.795,0.059,66.795,0.059s11.376-2.537,11.376-14.942c0-12.404,0-196.842,0-196.842
		s0.203-20.678-22.955-44.662c-4.137-31.431-11.895-93.46-11.895-93.46s6.874,0,4.395-6.616c-2.482-6.618-6.077-14.889-6.077-14.889
		s9.786-3.308,4.82-7.442c-4.963-4.137-42.251-5.792-42.251,0c0,5.787,4.925,5.787,4.925,5.787S19.111,27.732,30.69,32.695z"/>
</g>
<g id="change1">
	<polygon fill="#EE4238" points="101.417,221.266 0.417,241.116 0.417,297.356 101.417,277.51 	"/>
	<polygon fill="#EE4238" points="70.036,56.667 27.447,65.703 23.245,100.182 74.044,90.083 	"/>
</g>
</svg>
