<?xml version="1.0" encoding="UTF-8"?><svg xmlns="http://www.w3.org/2000/svg" xmlns:xlink="http://www.w3.org/1999/xlink" height="334.1" preserveAspectRatio="xMidYMid meet" version="1.0" viewBox="73.7 56.3 275.3 334.1" width="275.3" zoomAndPan="magnify"><g><g id="change1_1"><path d="M 248.417969 146.660156 C 248.417969 146.660156 272.757812 134.382812 285.179688 128.117188 C 299.074219 121.113281 305.191406 128.003906 311.640625 143.894531 C 318.089844 159.789062 334.714844 205.222656 340.3125 220.773438 C 345.914062 236.328125 337.027344 246.816406 330.097656 251.1875 C 323.171875 255.558594 296.40625 262.089844 296.40625 262.089844 L 282.738281 233.445312 C 282.738281 233.445312 295.273438 229.839844 303.515625 227.71875 C 311.675781 225.621094 313.675781 220.207031 310.449219 211.027344 C 307.230469 201.851562 300.785156 180.210938 299.003906 176.050781 C 295.4375 167.71875 289.804688 160.316406 281.890625 164.015625 C 273.089844 168.132812 261.234375 174.964844 261.234375 174.964844 L 248.417969 146.660156" fill="#f9a72b"/></g><g id="change2_1"><path d="M 298.074219 258.539062 C 303.722656 257.101562 317.984375 253.324219 325.464844 250.125 C 326.773438 249.5625 327.789062 249.058594 328.480469 248.621094 C 331.019531 247.023438 343.371094 238.214844 337.464844 221.804688 C 332.03125 206.730469 315.511719 161.492188 308.832031 145.039062 C 304.902344 135.359375 301.617188 130.566406 297.839844 129.011719 C 294.976562 127.832031 291.269531 128.445312 286.542969 130.824219 L 252.378906 148.058594 L 262.628906 170.6875 C 266.71875 168.390625 274.359375 164.191406 280.605469 161.265625 C 280.757812 161.195312 280.910156 161.128906 281.0625 161.0625 C 285.742188 159.058594 294.660156 158.1875 301.789062 174.855469 C 303.695312 179.3125 310.292969 201.425781 313.3125 210.023438 C 317.195312 221.078125 314.195312 228.101562 304.269531 230.65625 C 298.792969 232.066406 291.324219 234.15625 287.019531 235.378906 Z M 327.851562 255.699219 C 317.972656 259.925781 297.972656 264.824219 297.125 265.03125 L 294.730469 265.617188 L 278.460938 231.523438 L 281.902344 230.53125 C 282.027344 230.496094 294.570312 226.890625 302.757812 224.785156 C 303.5625 224.574219 304.292969 224.335938 304.933594 224.058594 C 308.039062 222.730469 310.515625 220.351562 307.589844 212.035156 C 304.222656 202.4375 297.902344 181.1875 296.214844 177.242188 C 292.359375 168.230469 288.0625 164.664062 283.445312 166.640625 L 283.171875 166.761719 C 274.597656 170.773438 262.867188 177.523438 262.746094 177.59375 L 259.851562 179.265625 L 244.460938 145.261719 L 283.8125 125.410156 C 284.570312 125.027344 285.308594 124.6875 286.023438 124.378906 C 291.464844 122.050781 296.085938 121.730469 300.148438 123.402344 C 306.953125 126.203125 311.042969 134.359375 314.449219 142.757812 C 321.144531 159.246094 337.726562 204.632812 343.167969 219.75 C 348.96875 235.859375 340.625 248.136719 331.714844 253.753906 C 330.738281 254.363281 329.476562 255.003906 327.851562 255.699219" fill="#231f20"/></g><g id="change2_2"><path d="M 318.539062 333.5625 C 307.433594 338.316406 200.089844 385.183594 191.816406 387.785156 C 183.546875 390.390625 176.984375 389.453125 171.289062 378.273438 C 165.601562 367.097656 84.953125 180.246094 84.953125 180.246094 L 242.578125 113.265625 C 242.578125 113.265625 324.496094 302.363281 326.820312 311.703125 C 329.140625 321.046875 329.644531 328.804688 318.539062 333.5625" fill="#231f20"/></g><g id="change1_2"><path d="M 312.429688 329.816406 C 302 334.28125 201.136719 378.332031 193.355469 380.769531 C 185.578125 383.203125 179.390625 382.273438 173.96875 371.601562 C 168.546875 360.921875 92.011719 183.597656 92.011719 183.597656 L 240.132812 120.667969 C 240.132812 120.667969 317.871094 300.140625 320.109375 309.050781 C 322.347656 317.960938 322.867188 325.351562 312.429688 329.816406" fill="#f9a72b"/></g><g id="change2_3"><path d="M 244.574219 108.894531 C 245.558594 111.1875 244.535156 113.835938 242.28125 114.800781 L 86.230469 181.574219 C 83.980469 182.535156 81.355469 181.453125 80.375 179.152344 C 79.390625 176.855469 80.414062 174.207031 82.667969 173.242188 L 238.71875 106.46875 C 240.96875 105.507812 243.589844 106.59375 244.574219 108.894531" fill="#231f20"/></g><g id="change2_4"><path d="M 213.324219 341.996094 C 206.414062 344.957031 197.585938 339.785156 193.589844 330.449219 L 146.148438 219.582031 C 144.050781 214.675781 143.726562 209.605469 144.875 205.460938 C 140.964844 209.847656 140.121094 217.625 143.285156 225.019531 L 190.726562 335.886719 C 194.71875 345.21875 203.550781 350.386719 210.464844 347.429688 C 213.730469 346.03125 215.96875 343.042969 217.007812 339.308594 C 215.980469 340.457031 214.757812 341.386719 213.324219 341.996094" fill="#231f20"/></g><g id="change2_5"><path d="M 249.78125 326.394531 C 242.878906 329.351562 234.046875 324.183594 230.050781 314.847656 L 182.613281 203.980469 C 180.511719 199.074219 180.179688 194.007812 181.328125 189.863281 C 177.417969 194.25 176.582031 202.023438 179.746094 209.414062 L 227.1875 320.28125 C 231.179688 329.617188 240.011719 334.785156 246.917969 331.832031 C 250.191406 330.429688 252.429688 327.4375 253.464844 323.703125 C 252.4375 324.855469 251.214844 325.785156 249.78125 326.394531" fill="#231f20"/></g><g id="change2_6"><path d="M 286.238281 310.796875 C 279.335938 313.753906 270.5 308.585938 266.507812 299.246094 L 219.066406 188.382812 C 216.96875 183.476562 216.644531 178.40625 217.785156 174.261719 C 213.878906 178.644531 213.039062 186.421875 216.203125 193.816406 L 263.644531 304.683594 C 267.636719 314.015625 276.46875 319.1875 283.378906 316.230469 C 286.652344 314.828125 288.886719 311.839844 289.925781 308.105469 C 288.898438 309.253906 287.675781 310.183594 286.238281 310.796875" fill="#231f20"/></g><g id="change3_1"><path d="M 240.992188 96.550781 C 236.105469 87.339844 228.445312 86.527344 226.699219 87.414062 C 227.191406 80.742188 221.710938 72.898438 214.503906 71.886719 C 205.394531 70.597656 201.085938 77.730469 196.191406 82.925781 C 195.875 62.316406 168.640625 56.308594 157.675781 73.386719 C 152.855469 67.121094 147.082031 62.210938 138.535156 65.34375 C 131.484375 67.925781 125.34375 73.671875 123.027344 80.398438 C 116.449219 74.851562 105.214844 82.632812 101.90625 88.800781 C 98.554688 95.042969 100.320312 101.363281 102.714844 107.277344 C 85.039062 115.875 78.992188 131.6875 89.117188 147.617188 C 82.859375 150.207031 79.023438 154.460938 77.800781 160.886719 C 76.617188 167.113281 79.488281 170.195312 81.976562 175.523438 L 82.027344 175.503906 C 83.335938 178.316406 84.960938 181.269531 85.710938 184.171875 C 86.507812 187.25 85.957031 190.910156 86.632812 194.082031 C 88.117188 201.042969 92.050781 210.269531 98.878906 213.597656 C 107.539062 217.8125 115.265625 212.402344 115.046875 203.136719 C 114.871094 195.871094 109.539062 186.011719 105.757812 179.789062 C 103.058594 175.34375 100.628906 170.707031 102.242188 167.023438 L 116.566406 161.015625 C 120.058594 160.855469 123.570312 160.875 126.945312 159.953125 C 134.035156 158.027344 138.597656 152.078125 145.519531 149.636719 C 149.132812 148.359375 151.902344 148.851562 155.488281 147.714844 C 160.15625 146.234375 160.441406 146.09375 164.945312 147.074219 C 172.289062 148.675781 178.933594 146.539062 184.972656 142.039062 C 189.335938 138.792969 195.441406 129.773438 201.6875 133.125 C 212.953125 139.167969 201.433594 170.441406 217.554688 170.78125 C 235.988281 171.171875 211.820312 140.746094 211.046875 134.742188 C 210.539062 130.8125 212.546875 127.921875 215.71875 126.164062 C 216.753906 125.59375 219.703125 125.230469 220.269531 124.738281 C 221.605469 123.574219 221.222656 121.871094 222.140625 120.578125 C 226.605469 114.277344 234.414062 120.835938 237.679688 113.609375 C 238.089844 112.710938 238.570312 110.730469 238.820312 109.730469 C 242.199219 107.789062 243.421875 101.109375 240.992188 96.550781" fill="#e9e6bf"/></g><g id="change2_7"><path d="M 83.40625 171.613281 L 83.484375 171.582031 L 84.773438 174.226562 C 85.0625 174.84375 85.367188 175.472656 85.671875 176.105469 C 86.8125 178.449219 87.992188 180.871094 88.644531 183.410156 C 89.148438 185.355469 89.203125 187.335938 89.253906 189.246094 C 89.292969 190.769531 89.332031 192.210938 89.597656 193.449219 C 90.945312 199.757812 94.53125 208.105469 100.207031 210.875 C 102.84375 212.15625 105.457031 212.367188 107.570312 211.464844 C 110.445312 210.230469 112.109375 207.144531 112.015625 203.203125 C 111.933594 199.75 110.332031 193.15625 103.167969 181.363281 C 100.210938 176.492188 97.246094 170.871094 99.46875 165.808594 L 99.953125 164.695312 L 115.894531 158.011719 L 118.105469 157.921875 C 120.949219 157.8125 123.640625 157.714844 126.144531 157.027344 C 126.851562 156.835938 127.539062 156.597656 128.253906 156.289062 C 130.621094 155.277344 132.769531 153.761719 135.046875 152.160156 C 137.894531 150.152344 140.886719 148.054688 144.511719 146.777344 C 146.722656 145.996094 148.667969 145.777344 150.386719 145.585938 C 151.804688 145.425781 153.140625 145.277344 154.570312 144.824219 L 154.882812 144.726562 C 159.613281 143.226562 160.542969 143.011719 165.589844 144.113281 C 171.609375 145.425781 177.34375 143.945312 183.164062 139.609375 C 184.074219 138.933594 185.1875 137.847656 186.367188 136.699219 C 188.816406 134.3125 191.59375 131.609375 194.78125 130.242188 C 197.714844 128.988281 200.519531 129.0625 203.121094 130.453125 C 205.796875 131.890625 207.472656 134.210938 208.542969 137.03125 C 208.28125 136.324219 208.113281 135.699219 208.039062 135.132812 C 207.414062 130.277344 209.675781 126.042969 214.25 123.515625 C 215.050781 123.074219 216.265625 122.761719 217.402344 122.488281 C 217.683594 122.421875 218.054688 122.332031 218.347656 122.253906 C 218.394531 122.089844 218.449219 121.859375 218.492188 121.683594 C 218.679688 120.914062 218.933594 119.855469 219.664062 118.828125 C 220.773438 117.257812 222.179688 116.101562 223.84375 115.390625 C 225.972656 114.480469 228.113281 114.445312 230.003906 114.414062 C 231.347656 114.390625 232.617188 114.371094 233.453125 114.015625 C 233.894531 113.828125 234.410156 113.480469 234.914062 112.359375 C 235.203125 111.726562 235.699219 109.710938 235.863281 109.050781 L 236.175781 107.792969 L 237.3125 107.101562 C 238.996094 106.132812 240.113281 101.351562 238.316406 97.976562 C 234.449219 90.691406 228.988281 90.019531 227.929688 90.1875 L 223.28125 92.539062 L 223.675781 87.191406 C 224.035156 82.28125 219.839844 75.695312 214.082031 74.886719 C 212.066406 74.605469 210.273438 74.8125 208.589844 75.53125 C 205.613281 76.808594 203.261719 79.503906 200.769531 82.355469 C 199.980469 83.257812 199.195312 84.15625 198.398438 85.003906 L 193.273438 90.441406 L 193.15625 82.972656 C 193.070312 77.1875 190.484375 72.355469 185.875 69.367188 C 180.800781 66.074219 174.136719 65.53125 168.480469 67.953125 C 165.128906 69.386719 162.277344 71.832031 160.226562 75.019531 L 157.898438 78.644531 L 155.269531 75.234375 C 149.746094 68.050781 145.347656 66.074219 139.578125 68.191406 C 133.179688 70.535156 127.847656 75.707031 125.894531 81.386719 L 124.453125 85.566406 L 121.070312 82.714844 C 118.824219 80.820312 115.707031 81.554688 113.488281 82.503906 C 109.429688 84.238281 105.933594 87.703125 104.582031 90.230469 C 101.980469 95.070312 103.078125 100.089844 105.523438 106.144531 L 106.585938 108.765625 L 104.042969 110.007812 C 95.601562 114.109375 89.902344 120.089844 87.988281 126.851562 C 86.277344 132.886719 87.554688 139.507812 91.679688 145.988281 L 93.617188 149.035156 L 90.007812 150.53125 C 84.699219 152.804688 81.765625 156.273438 80.78125 161.449219 C 80.050781 165.285156 81.238281 167.523438 83.03125 170.90625 C 83.15625 171.140625 83.28125 171.375 83.40625 171.613281 Z M 208.589844 137.148438 C 210.113281 141.246094 210.402344 146.382812 210.679688 151.414062 C 211.296875 162.433594 212.179688 167.636719 217.617188 167.753906 C 219.109375 167.78125 219.953125 167.5625 220.402344 167.371094 C 220.960938 167.132812 221.152344 166.851562 221.277344 166.476562 C 222.601562 162.546875 216.585938 151.933594 212.992188 145.59375 C 210.785156 141.703125 209.332031 139.101562 208.589844 137.148438 Z M 222.789062 172.945312 C 221.320312 173.574219 219.585938 173.859375 217.488281 173.8125 C 205.84375 173.566406 205.167969 161.472656 204.625 151.753906 C 204.242188 144.855469 203.84375 137.722656 200.253906 135.796875 C 199.585938 135.441406 198.699219 135.164062 197.167969 135.820312 C 195.015625 136.738281 192.664062 139.027344 190.59375 141.042969 C 189.269531 142.335938 188.019531 143.554688 186.785156 144.476562 C 179.585938 149.839844 171.988281 151.714844 164.300781 150.039062 C 160.6875 149.246094 160.6875 149.246094 156.714844 150.507812 L 156.402344 150.605469 C 154.40625 151.238281 152.628906 151.4375 151.058594 151.609375 C 149.464844 151.789062 148.089844 151.941406 146.53125 152.496094 C 143.609375 153.519531 141.179688 155.257812 138.539062 157.113281 C 136.109375 158.828125 133.589844 160.601562 130.640625 161.863281 C 129.679688 162.273438 128.703125 162.613281 127.738281 162.878906 C 124.5625 163.746094 121.398438 163.863281 118.332031 163.980469 L 117.238281 164.023438 L 104.769531 169.25 C 104.5625 171.574219 106.339844 174.90625 108.351562 178.21875 C 114.660156 188.601562 117.929688 196.960938 118.078125 203.0625 C 118.230469 209.476562 115.117188 214.828125 109.953125 217.035156 C 106.199219 218.644531 101.792969 218.390625 97.550781 216.324219 C 87.953125 211.640625 84.496094 198.601562 83.664062 194.714844 C 83.285156 192.929688 83.238281 191.140625 83.191406 189.410156 C 83.144531 187.761719 83.105469 186.210938 82.773438 184.929688 C 82.324219 183.1875 81.449219 181.296875 80.546875 179.433594 L 80.519531 179.445312 L 79.226562 176.808594 C 78.714844 175.703125 78.179688 174.699219 77.671875 173.746094 C 75.628906 169.890625 73.695312 166.242188 74.824219 160.316406 C 75.996094 154.148438 79.371094 149.453125 84.867188 146.320312 C 81.171875 139.246094 80.226562 132.007812 82.15625 125.199219 C 84.34375 117.46875 90.253906 110.667969 98.921875 105.839844 C 96.914062 100.144531 95.820312 93.726562 99.238281 87.363281 C 101.464844 83.203125 106.234375 79.011719 111.105469 76.929688 C 114.929688 75.289062 118.535156 75.03125 121.59375 76.125 C 124.765625 70.140625 130.679688 64.988281 137.496094 62.496094 C 146.566406 59.164062 153.070312 63.605469 157.570312 68.523438 C 159.949219 65.863281 162.84375 63.769531 166.09375 62.378906 C 173.585938 59.175781 182.429688 59.902344 189.175781 64.28125 C 193.617188 67.160156 196.691406 71.25 198.1875 76.132812 C 200.414062 73.714844 202.960938 71.347656 206.203125 69.957031 C 208.894531 68.804688 211.832031 68.445312 214.929688 68.882812 C 222.777344 69.984375 228.453125 77.242188 229.5625 84.195312 C 233.808594 84.6875 239.679688 87.613281 243.671875 95.132812 C 246.554688 100.542969 245.410156 108.148438 241.492188 111.53125 C 241.167969 112.800781 240.8125 114.039062 240.441406 114.863281 C 239.414062 117.132812 237.867188 118.722656 235.839844 119.589844 C 233.90625 120.414062 231.886719 120.445312 230.101562 120.480469 C 228.644531 120.5 227.265625 120.519531 226.226562 120.964844 C 225.597656 121.234375 225.082031 121.671875 224.613281 122.335938 C 224.550781 122.433594 224.449219 122.847656 224.382812 123.117188 C 224.128906 124.15625 223.75 125.726562 222.265625 127.023438 C 221.460938 127.71875 220.242188 128.042969 218.8125 128.386719 C 218.238281 128.523438 217.445312 128.714844 217.144531 128.839844 C 213.59375 130.808594 213.9375 133.476562 214.054688 134.355469 C 214.222656 135.476562 216.464844 139.425781 218.265625 142.605469 C 224.472656 153.546875 229.054688 162.394531 227.023438 168.414062 C 226.320312 170.492188 224.859375 172.0625 222.789062 172.945312" fill="#231f20"/></g><g id="change4_1"><path d="M 98.402344 132.730469 C 98.585938 133.164062 98.382812 133.675781 97.949219 133.859375 C 97.507812 134.050781 97 133.84375 96.8125 133.410156 C 96.625 132.96875 96.832031 132.464844 97.269531 132.273438 C 97.703125 132.089844 98.210938 132.289062 98.402344 132.730469" fill="#fff"/></g><g id="change4_2"><path d="M 113.953125 132.875 C 114.75 134.738281 113.882812 136.894531 112.019531 137.691406 C 110.15625 138.492188 108.003906 137.625 107.207031 135.761719 C 106.414062 133.902344 107.269531 131.746094 109.136719 130.949219 C 110.996094 130.152344 113.15625 131.015625 113.953125 132.875" fill="#fff"/></g><g id="change4_3"><path d="M 111.351562 121.320312 C 111.585938 121.867188 111.332031 122.503906 110.785156 122.734375 C 110.234375 122.972656 109.605469 122.714844 109.371094 122.167969 C 109.136719 121.617188 109.386719 120.988281 109.933594 120.753906 C 110.480469 120.519531 111.113281 120.769531 111.351562 121.320312" fill="#fff"/></g><g id="change4_4"><path d="M 124.527344 109.347656 C 125.464844 111.535156 124.449219 114.070312 122.257812 115.007812 C 120.070312 115.945312 117.53125 114.929688 116.59375 112.742188 C 115.65625 110.550781 116.675781 108.015625 118.863281 107.078125 C 121.054688 106.140625 123.589844 107.15625 124.527344 109.347656" fill="#fff"/></g><g id="change4_5"><path d="M 140.238281 126.320312 C 140.660156 127.304688 140.199219 128.449219 139.214844 128.867188 C 138.230469 129.289062 137.089844 128.832031 136.667969 127.851562 C 136.246094 126.863281 136.703125 125.722656 137.6875 125.300781 C 138.671875 124.882812 139.816406 125.339844 140.238281 126.320312" fill="#fff"/></g><g id="change4_6"><path d="M 147.125 122.671875 C 147.5 123.546875 147.089844 124.558594 146.210938 124.9375 C 145.339844 125.308594 144.324219 124.902344 143.949219 124.03125 C 143.574219 123.148438 143.980469 122.136719 144.855469 121.761719 C 145.730469 121.386719 146.75 121.792969 147.125 122.671875" fill="#fff"/></g><g id="change4_7"><path d="M 129.636719 94.960938 C 130.289062 96.492188 129.578125 98.269531 128.042969 98.925781 C 126.511719 99.578125 124.738281 98.867188 124.085938 97.335938 C 123.429688 95.800781 124.136719 94.027344 125.667969 93.371094 C 127.203125 92.71875 128.976562 93.425781 129.636719 94.960938" fill="#fff"/></g><g id="change4_8"><path d="M 111.640625 205.894531 C 111.640625 205.894531 105.402344 212.777344 99.886719 210.21875 C 93.304688 207.171875 89.171875 196.976562 88.597656 187.132812 C 88.027344 177.3125 83.269531 170.292969 83.269531 170.292969 C 83.269531 170.292969 89.011719 179.328125 90.1875 184.808594 C 92.113281 193.820312 91.84375 200.757812 101.191406 208.605469 C 105.382812 212.128906 111.640625 205.894531 111.640625 205.894531" fill="#fff"/></g><g id="change4_9"><path d="M 214.023438 166.898438 C 214.023438 166.898438 217.761719 169.382812 220.554688 167.617188 C 225.167969 164.703125 216.835938 152.082031 216.835938 152.082031 C 216.835938 152.082031 222.042969 162.871094 219.394531 165.183594 C 217.433594 166.886719 214.023438 166.898438 214.023438 166.898438" fill="#fff"/></g><g id="change5_1"><path d="M 260.996094 144.800781 C 260.996094 144.800781 288.109375 127.566406 296.011719 131.222656 C 303.910156 134.882812 315.832031 164.382812 315.832031 164.382812 C 315.832031 164.382812 302.378906 136.242188 293.71875 135.730469 C 285.050781 135.210938 260.996094 144.800781 260.996094 144.800781" fill="#cc7e24"/></g><g id="change5_2"><path d="M 183.980469 376.15625 C 176.164062 371.050781 128.730469 256.914062 128.730469 256.914062 C 128.730469 256.914062 172.621094 349.757812 193.0625 362.757812 C 207.878906 372.179688 274.601562 342.304688 274.601562 342.304688 C 274.601562 342.304688 191.792969 381.261719 183.980469 376.15625" fill="#cc7e24"/></g></g></svg>