<?xml version="1.0" encoding="UTF-8"?><svg xmlns="http://www.w3.org/2000/svg" xmlns:xlink="http://www.w3.org/1999/xlink" height="133.0" preserveAspectRatio="xMidYMid meet" version="1.0" viewBox="-0.8 -0.1 142.5 133.0" width="142.5" zoomAndPan="magnify"><g><g id="change1_4"><path d="M60.3,122.7L6.8,91.8l15.4-26.7c8.5-14.8,27.4-19.8,42.2-11.3l0,0C79.2,62.3,84.2,81.2,75.7,96L60.3,122.7z" fill="#FFCD50"/></g><g id="change2_1"><path d="M25.5,122.8L25.5,122.8c-4-2.3-5.4-7.4-3.1-11.4l1.6-2.7l14.5,8.4l-1.6,2.7 C34.6,123.7,29.5,125.1,25.5,122.8z" fill="#FBCC33"/></g><g id="change3_1"><path d="M4.7 99.6H66.4V107.8H4.7z" fill="inherit" opacity=".1" transform="rotate(-150 35.61 103.717)"/></g><g id="change3_2"><path d="M36.9,119.7l1.6-2.7L24,108.6l-1.6,2.7c-0.7,1.2-1,2.4-1.1,3.7l13,7.5C35.3,121.8,36.2,120.9,36.9,119.7z" fill="inherit" opacity=".1"/></g><g id="change1_2"><path d="M57.3,130.8L2.9,99.4c-2.8-1.6-3.7-5.1-2.1-7.9l0,0c1.6-2.8,5.1-3.7,7.9-2.1l54.4,31.4 c2.8,1.6,3.7,5.1,2.1,7.9C63.6,131.5,60.1,132.4,57.3,130.8z" fill="#FFCD50"/></g><g id="change4_1"><path d="M28.7,69.9c-0.3,0-0.6-0.1-0.8-0.2c-0.8-0.5-1.1-1.5-0.6-2.3c6.9-12.1,20-16.6,31.8-10.9 c0.8,0.4,1.2,1.4,0.8,2.2c-0.4,0.8-1.4,1.2-2.2,0.8c-10.4-5-21.4-1.1-27.5,9.5C29.9,69.6,29.3,69.9,28.7,69.9z" fill="#FFF" opacity=".25"/></g><g id="change3_3"><path d="M68.1,56.3c-13.5,8.9-17.8,26.9-9.6,41.1l8.2,14.2l9-15.6C83.5,82.5,80,65.6,68.1,56.3z" fill="inherit" opacity=".1"/></g><g id="change1_3"><path d="M132.4,93.3l-53.5,30.9L63.5,97.4C55,82.7,60,63.8,74.8,55.3l0,0c14.8-8.5,33.6-3.5,42.2,11.3L132.4,93.3z" fill="#FFCD50"/></g><g id="change2_2"><path d="M115,123.5L115,123.5c-4,2.3-9.1,0.9-11.4-3.1l-1.6-2.7l14.5-8.4l1.6,2.7C120.4,116.1,119,121.2,115,123.5z" fill="#FBCC33"/></g><g id="change3_4"><path d="M72.8 101.1H134.5V109.3H72.8z" fill="inherit" opacity=".1" transform="rotate(150 103.618 105.175)"/></g><g id="change3_5"><path d="M118.1,112.1l-1.6-2.7l-14.5,8.4l1.6,2.7c0.7,1.2,1.6,2.1,2.6,2.8l13-7.5 C119.1,114.5,118.8,113.2,118.1,112.1z" fill="inherit" opacity=".1"/></g><g id="change1_1"><path d="M138,99.9l-54.4,31.4c-2.8,1.6-6.3,0.6-7.9-2.1s-0.6-6.3,2.1-7.9L132.2,90c2.8-1.6,6.3-0.6,7.9,2.1 S140.7,98.4,138,99.9z" fill="#FFCD50"/></g><g id="change4_2"><path d="M69.4,95c-0.6,0-1.1-0.3-1.4-0.8c-7-12-4.4-25.6,6.5-33c0.8-0.5,1.8-0.3,2.3,0.4 c0.5,0.8,0.3,1.8-0.4,2.3c-9.5,6.5-11.7,18-5.5,28.6c0.5,0.8,0.2,1.8-0.6,2.3C70,95,69.7,95,69.4,95z" fill="#FFF" opacity=".25"/></g><g id="change5_1"><path d="M72.2,50.8c-0.4,0.4-1.7-5.3-1.7-5.8c0.3-3.7,1.8-7.3,2.7-10.9c0.6-2.4,2.3-8.4,0-10.3 c2.6,0.2,5.1,0.3,7.5-0.9c5.6-2.8,6.2-9.8,5.8-15.3c0,0,13.5,11.2,19.7-6.8c0,0,7.7,11.7,24.2,5.6c0,0-17.4,13.9-9.3,26.7 c0,0-20.8-7.7-21.1,13.3C100.1,46.5,86.1,37.5,72.2,50.8z" fill="#588F33"/></g><g id="change5_2"><path d="M66.8,49.9c0,0,2-1.9,1-4.7c-2.1-5.8-7.4-15.7-2.2-22.3c0,0-14.7,3.4-13.2-16.2c0,0-13.5,11.2-19.7-6.8 c0,0-7.7,11.7-24.2,5.6c0,0,17.4,13.9,9.3,26.7c0,0,20.8-7.7,21.1,13.3C38.9,45.6,52.9,36.6,66.8,49.9z" fill="#588F33"/></g><g id="change3_6"><path d="M63.3,45.6c0.3,0.6,2.1,0,1.7-0.7c-7.4-13.1-18.8-23.1-32-30C26.7,11.6,20.2,9.3,13.7,7 c-1.6-0.3-3.3-0.7-5.1-1.4c0,0,0.8,0.6,1.9,1.7c7.1,2.6,14.3,4.9,21,8.5C44.6,22.7,55.9,32.6,63.3,45.6z" fill="inherit" opacity=".15"/></g><g id="change3_7"><path d="M125.9,7.8c-7.3,2.6-14.5,5-21.5,8.7C91.5,23.5,80.3,33.2,73,46.1c-0.5,0.8,1.3,0.8,1.7,0.1 c7.6-13.5,19.7-23.5,33.4-30.3c6.7-3.3,13.6-5.5,20.6-7.9c1-1,1.7-1.5,1.7-1.5C128.9,7.1,127.3,7.5,125.9,7.8z" fill="inherit" opacity=".1"/></g><g id="change6_1"><circle cx="70.2" cy="50.6" fill="#FC1F3F" r="11.3"/></g><g id="change3_8"><path d="M81.5,50.6c0,6.2-5.1,11.3-11.3,11.3c-6.2,0-11.3-5.1-11.3-11.3c0,0,5,4.1,11.3,4.1S81.5,50.6,81.5,50.6z" fill="inherit" opacity=".1"/></g></g></svg>