<?xml version="1.0" encoding="UTF-8"?><svg xmlns="http://www.w3.org/2000/svg" xmlns:xlink="http://www.w3.org/1999/xlink" height="325.8" preserveAspectRatio="xMidYMid meet" version="1.0" viewBox="-0.0 0.0 500.0 325.8" width="500.0" zoomAndPan="magnify"><g id="change1_1"><path d="M245.5,294.7l-17.9,31L0,194.3l17.9-31l7.5,4.3c8.9,5.2,20.3,2.1,25.5-6.8l43.5-75.3 c28.5-49.4,91.6-68.8,141.6-41.2c25.9,14.3,43.3,37.9,50.3,64.3c6.9,25.8,4,54.1-10.4,79l-44.6,77.3c-5.2,8.9-2.1,20.3,6.8,25.5 L245.5,294.7z" fill="#66C9D5"/></g><g id="change2_2"><circle cx="113.6" cy="260.4" fill="#EA7235" r="26.6"/></g><g id="change2_1"><path d="M482.1,163.3l17.9,31L272.5,325.7l-17.9-31l7.5-4.3c8.9-5.2,12-16.6,6.8-25.5l-43.5-75.3 c-28.5-49.4-13.8-113.7,35.1-143.2c25.3-15.3,54.5-18.5,80.8-11.5c25.8,6.9,48.9,23.6,63.2,48.5l44.6,77.3 c5.2,8.9,16.6,12,25.5,6.8L482.1,163.3z" fill="#EA7235"/></g><g id="change1_2"><circle cx="386.4" cy="260.4" fill="#66C9D5" r="26.6"/></g><g fill="#FFF" id="change3_1"><circle cx="249.9" cy="24.3" fill="inherit" r="24.3"/><path d="M104.8 113.1H140.7V375.79999999999995H104.8z" fill="inherit" transform="rotate(-60 122.734 244.496)"/><path d="M359.3 113.1H395.2V375.79999999999995H359.3z" fill="inherit" transform="rotate(-120 377.266 244.496)"/></g><g id="change1_3"><circle cx="250.1" cy="24.3" fill="#66C9D5" r="12.5"/></g></svg>