<?xml version="1.0" encoding="UTF-8"?><svg xmlns="http://www.w3.org/2000/svg" xmlns:xlink="http://www.w3.org/1999/xlink" height="253.8" preserveAspectRatio="xMidYMid meet" version="1.0" viewBox="136.2 85.3 152.9 253.8" width="152.9" zoomAndPan="magnify"><g id="change1_1"><path d="M244.09,139.26c6.48-3.54,14.04-5.65,18.96-6.76c1.87-0.42,2.22-2.92,0.55-3.86 c-13.12-7.35-22.26-6.68-26.73-5.52c-1.55,0.4-2.96-1.02-2.53-2.57c1.72-6.3,6.69-14.06,9.85-18.6c1.06-1.52-0.25-3.54-2.09-3.24 c-9.71,1.62-16.76,5.91-21.65,10.29c-1.1-6.39-0.07-15.26,0.76-20.61c0.29-1.84-1.78-3.07-3.29-1.99 c-9.82,7-14.29,15.85-16.32,22.71c-4.4-4.57-10.74-9.1-19.65-11.54c-1.79-0.49-3.31,1.38-2.4,3.01 c2.69,4.83,6.84,13.06,7.91,19.5c0.26,1.58-1.28,2.86-2.78,2.3c-4.33-1.61-13.35-3.2-27.15,2.77c-1.75,0.76-1.66,3.28,0.15,3.89 c5.61,1.88,14.71,5.51,21.23,10.96c-25.33,9.32-42.76,30.84-42.76,67.61c0,51.53,43.24,131.55,74.21,131.55 c30.35,0,78.69-80.02,78.69-131.55C289.05,169.81,270.6,148.13,244.09,139.26z M153.93,195.35c-1.35-2.07-2.4-4.44-2.45-6.95 c-0.08-3.92,2.39-8.87,6.84-8.87c3.79,0,6.87,3.87,6.87,9.13c0,5.26-6.86,11.84-6.87,11.85 C158.1,200.72,154.27,195.86,153.93,195.35z M165.18,256.45c-0.23,0.22-4.06-4.64-4.39-5.15c-1.35-2.07-2.4-4.44-2.45-6.95 c-0.08-3.92,2.39-8.87,6.84-8.87c3.79,0,6.87,3.87,6.87,9.13C172.04,249.86,165.18,256.44,165.18,256.45z M178.78,221.19 c-1.35-2.07-2.4-4.44-2.45-6.95c-0.08-3.92,2.39-8.87,6.84-8.87c3.79,0,6.87,3.87,6.87,9.13c0,5.26-6.86,11.84-6.87,11.85 C182.94,226.56,179.11,221.7,178.78,221.19z M190.02,287.33c-0.23,0.22-4.06-4.64-4.39-5.15c-1.35-2.07-2.4-4.44-2.45-6.95 c-0.08-3.92,2.39-8.87,6.84-8.87c3.79,0,6.87,3.87,6.87,9.13C196.89,280.75,190.03,287.32,190.02,287.33z M212.59,316.58 c-0.23,0.22-4.06-4.64-4.39-5.15c-1.35-2.07-2.4-4.44-2.45-6.95c-0.08-3.92,2.39-8.87,6.84-8.87c3.79,0,6.87,3.87,6.87,9.13 C219.46,310,212.6,316.58,212.59,316.58z M204.99,244.34c-0.08-3.92,2.39-8.87,6.84-8.87c3.79,0,6.87,3.87,6.87,9.13 c0,5.26-6.86,11.84-6.87,11.85c-0.23,0.22-4.06-4.64-4.39-5.15C206.1,249.22,205.05,246.85,204.99,244.34z M212.59,200.5 c-0.23,0.22-4.06-4.64-4.39-5.15c-1.35-2.07-2.4-4.44-2.45-6.95c-0.08-3.92,2.39-8.87,6.84-8.87c3.79,0,6.87,3.87,6.87,9.13 C219.46,193.91,212.6,200.49,212.59,200.5z M233.02,287.33c-0.23,0.22-4.06-4.64-4.39-5.15c-1.35-2.07-2.4-4.44-2.45-6.95 c-0.08-3.92,2.39-8.87,6.84-8.87c3.79,0,6.87,3.87,6.87,9.13C239.89,280.75,233.03,287.32,233.02,287.33z M239.88,226.34 c-0.23,0.22-4.06-4.64-4.39-5.15c-1.35-2.07-2.4-4.44-2.45-6.95c-0.08-3.92,2.39-8.87,6.84-8.87c3.79,0,6.87,3.87,6.87,9.13 C246.74,219.76,239.89,226.33,239.88,226.34z M258.5,255.17c-0.23,0.22-4.06-4.64-4.39-5.15c-1.35-2.07-2.4-4.44-2.45-6.95 c-0.08-3.92,2.39-8.87,6.84-8.87c3.79,0,6.87,3.87,6.87,9.13C265.36,248.58,258.5,255.16,258.5,255.17z M265.35,202.2 c-0.23,0.22-4.06-4.64-4.39-5.15c-1.35-2.07-2.4-4.44-2.45-6.95c-0.08-3.92,2.39-8.87,6.84-8.87c3.79,0,6.87,3.87,6.87,9.13 C272.22,195.62,265.36,202.2,265.35,202.2z" fill="#c5d300"/></g></svg>