<?xml version="1.0" encoding="UTF-8"?><svg xmlns="http://www.w3.org/2000/svg" xmlns:xlink="http://www.w3.org/1999/xlink" height="260.0" preserveAspectRatio="xMidYMid meet" version="1.0" viewBox="0.0 -0.0 280.5 260.0" width="280.5" zoomAndPan="magnify"><g id="change1_1"><path d="m579.53 725.4c-0.477 0.204-0.805 0.28-1.324 0.28-0.918 0-1.75 0.31-2.632 0.562-1.081 0.309-2.069 0.614-3.07 1.121-0.94 0.477-1.88 0.955-2.82 1.432-0.875 0.875-1.796 1.673-2.746 2.465-1.938 1.939-3.664 4.082-5.049 6.451-1.183 2.489-1.992 5.284-1.992 8.051 0 1.394 0.433 2.598 0.996 3.841 0.739 1.629 0.256 3.349-0.155 4.992-0.281 0.448-0.561 0.896-0.841 1.344-0.192 0.435-0.36 0.553-0.788 0.805-1.369 0.81-3.197 0.548-4.711 0.346-3.518-0.468-7.032-0.3-10.517 0.281-1.403 0.373-2.805 0.748-4.208 1.121-0.831 0.23-1.595 0.568-2.355 0.982-0.677 0.369-2.192 1.064-3.365 1.542-1.221 0.499-2.407 1.035-3.535 1.712-0.449 0.448-0.897 0.896-1.345 1.344l-0.42 0.28c-0.404 0.27-0.853 0.31-1.32 0.339l-0.672 0.547c-0.496 0.402-0.979 0.65-1.572 0.856l-1.344 1.344c-0.567 0.053-0.728 0.166-1.152 0.589-0.827 0.828-1.857 1.484-2.775 2.215-0.706 0.565-1.413 1.13-2.118 1.697-4.624 3.717-8.946 7.74-12.806 12.243-1.801 2.101-3.372 4.345-5.018 6.561-0.28 0.403-0.516 0.76-0.688 1.221-0.284 0.763-0.956 1.263-1.527 1.835-0.481 0.72-0.705 1.464-0.9 2.301-0.841 1.683-1.683 3.366-2.524 5.048l-0.547 0.982c-1.121 2.014-1.688 4.428-2.246 6.66-1.095 4.374-1.267 8.905-1.386 13.392 0 2.34 0.238 4.906 0.967 7.122 0.232 0.703 0.432 1.375 0.561 2.103 0.086 0.479 0.31 1.212 0.498 1.629 0.313 0.691 0.29 0.763-0.266 0.827-1.396 0.157-3.206 0.907-4.106 1.987-1.812 2.174-0.872 5.366 0.086 7.738 0.538 1.33 1.855 2.351 2.931 3.243 0.651 0.54 1.341 0.875 2.103 1.248 1.21 0.592 1.608 0.668 2.304 0.435 1.55-0.516 3.145-0.852 4.749-1.158 1.267-0.241 1.736-0.238 1.964 0.015 0.5 0.553 0.955 1.151 1.421 1.733l0.511 0.616c0.865 1.043 1.393 2.378 1.999 3.576 0.584 1.158 1.292 2.134 2.2 3.042l0.28 0.42c0.218 0.329 0.304 0.658 0.338 1.04 0.45 0.448 0.898 0.896 1.346 1.344l0.154 0.421c0.124 0.337 0.259 0.667 0.399 0.999-0.225 0.264-0.439 0.536-0.652 0.81-0.208 0.271-0.46 0.712-0.56 0.983-0.143 0.381-0.307 0.641-0.729 1.163-0.426 0.522-0.582 0.772-0.702 1.121-0.121 0.351-0.276 0.599-0.701 1.123-0.403 0.494-0.652 0.977-0.856 1.57l-1.344 1.344-0.28 0.422c-0.269 0.404-0.309 0.853-0.34 1.32l-0.545 0.672c-0.426 0.522-0.582 0.772-0.702 1.121-0.121 0.351-0.276 0.599-0.701 1.123-0.425 0.522-0.581 0.77-0.701 1.121-0.122 0.351-0.276 0.599-0.702 1.121-0.425 0.524-0.581 0.772-0.701 1.123-0.12 0.349-0.276 0.599-0.701 1.121-0.403 0.496-0.651 0.978-0.856 1.572l-0.672 0.672c-0.352 0.352-0.676 0.679-0.952 1.092-0.27 0.404-0.308 0.854-0.339 1.32l-0.547 0.672c-0.388 0.479-0.61 0.814-0.769 1.163-0.179 0.393-0.312 0.425-0.675 0.161-1.305-0.95-3.1-1.453-4.601-2.053-0.895-0.359-1.779-0.743-2.664-1.123-1.513-0.814-3.085-1.117-4.768-1.401-1.672-0.807-3.48-1.153-5.3-1.499-4.149-0.788-8.311-0.716-12.511-0.716-3.518 0-7.009 0.68-10.409 1.54-1.575 0.398-3.085 0.956-4.596 1.544-1.107 0.334-2.175 0.707-3.196 1.263-1.575 0.857-3.273 1.476-4.937 2.132l-0.827 0.547c-0.916 0.605-1.799 1.241-2.651 1.933-0.506 0.413-1.033 0.796-1.57 1.167-0.604 0.452-1.204 0.905-1.795 1.372-0.591 0.468-1.191 0.921-1.793 1.373-3.616 2.892-6.334 6.456-9.132 10.084-0.344 0.447-0.55 0.951-0.743 1.473-0.448 0.447-0.897 0.895-1.345 1.343-0.474 0.904-1.075 1.707-1.683 2.524-0.193 0.993-0.435 1.944-0.872 2.867-0.428 0.901-0.675 1.829-0.869 2.801l-0.546 0.841c-0.57 0.879-0.881 1.786-1.233 2.775-1.168 3.289-1.585 6.816-2.119 10.251 0 0.406-0.28 1.248-0.28 1.808v8.133c0.204 0.477 0.28 0.805 0.28 1.324 0 2.061 0.534 4.181 0.842 6.219 0.68 2.789 1.517 5.616 2.805 8.19 0.715 1.43 1.179 2.976 1.683 4.488l0.294 0.702c0.363 0.858 0.984 1.388 1.64 2.044l0.155 0.296c0.417 0.796 0.992 1.508 1.528 2.228 0.064 0.994 0.728 1.569 1.403 2.244l0.137 0.402c0.231 0.671 0.847 1.206 1.293 1.73 1.479 1.733 3.018 3.437 4.628 5.048 2.147 2.145 4.67 4.076 7.182 5.778 0.7 0.54 1.425 0.979 2.214 1.374 1.076 0.71 2.175 1.314 3.366 1.822 1.434 0.612 2.81 1.328 4.178 2.074 1.446 0.389 2.852 0.85 4.236 1.432 1.203 0.505 2.475 0.822 3.366 0.841 2.528 0.052 5.109 0.797 7.558 1.403 0.295 0 0.856 0.28 1.136 0.28h7.854c0.478-0.204 0.805-0.28 1.324-0.28 1.264 0 2.513-0.336 3.754-0.562 2.472-0.449 4.854-1.146 7.234-1.933l1.15-0.296c1.458-0.373 2.843-0.888 4.238-1.445 1.641-0.914 3.31-1.711 5.018-2.495 0.468-0.281 0.935-0.561 1.403-0.841 0.645-0.331 1.256-0.676 1.823-1.138 0.369-0.3 0.874-0.672 1.122-0.826 0.942-0.587 1.784-1.364 2.635-2.074 2.623-2.185 4.937-4.796 7.351-7.209l0.672-0.813c0.369-0.446 0.812-1.014 0.981-1.262 0.475-0.688 1.033-1.32 1.567-1.962l-0.067 0.069c-0.14 0.145 0.471 0.291 0.619 0.351 2.217 0.905 4.317 2.14 6.448 3.23l5.761 2.951c0.449 0.921 0.9 1.843 1.351 2.764 0.329 0.743 0.658 1.485 0.988 2.228 3.793 0.951 7.586 1.901 11.38 2.852l1.052-2.104c0.992-1.983 1.106-2.105 1.978-2.105 1.714 0 3.467-0.518 5.139-0.859l0.784-0.392c0.84-0.42 1.508-0.987 1.793-1.94 0.251-0.832-0.426-1.924-1.064-2.393-0.333-0.246-0.668-0.494-1.001-0.742-1.071-0.796-2.157-1.492-3.351-2.088-2.308-1.182-3.842-3.481-5.47-5.441l1.878-0.631c1.283-0.429 2.571-0.745 3.902-0.968 0.63-0.345 1.26-0.69 1.889-1.034 0.296-0.207 0.591-0.414 0.887-0.619 2.053-1.369 3.972-3.079 5.477-5.036 2.468-3.212 2.656-7.392 2.656-11.26-0.38-2.411-0.972-4.708-1.963-6.952-0.056-0.081-0.113-0.164-0.169-0.245 3.271-3.448 6.492-6.939 9.705-10.442 2.227-2.426 4.462-4.846 6.702-7.261 2.157-2.351 4.317-4.697 6.48-7.04 1.633-1.78 3.266-3.559 4.909-5.329 1.641-1.771 3.275-3.548 4.908-5.328 1.632-1.78 3.265-3.558 4.908-5.328 1.643-1.771 3.276-3.55 4.908-5.33 3.755-4.09 7.515-8.177 11.307-12.232 0.261 1.003 0.522 2.006 0.784 3.007 0.914 2.319 1.83 4.636 2.745 6.953l0.449 1.395c0.431 1.34 0.427 1.411-0.112 1.823-0.476 0.365-0.964 0.706-1.458 1.048-0.603 0.452-1.203 0.905-1.795 1.372-0.591 0.468-1.191 0.921-1.793 1.373-3.351 2.68-6.339 6.033-8.754 9.593-0.865 1.124-1.485 2.403-2.214 3.618-0.451 0.75-0.904 1.497-1.388 2.228-0.666 1.008-1.002 2.158-1.446 3.269-0.358 0.895-0.742 1.779-1.122 2.664-0.859 1.484-1.11 3.097-1.402 4.768-1.241 2.819-1.633 5.903-2.185 8.916-0.589 6.505-0.376 13.08 1.649 19.345 0.546 1.688 0.976 3.391 1.407 5.111 0.572 1.145 1.136 2.288 1.543 3.505 0.773 2.322 2.116 4.34 3.365 6.422 0.363 0.605 0.688 1.224 1.011 1.852l1.344 1.344 0.138 0.402c0.231 0.671 0.846 1.206 1.294 1.73 1.477 1.733 3.016 3.437 4.626 5.048 2.147 2.145 4.67 4.076 7.182 5.778 1.766 1.363 3.833 2.294 5.861 3.196 1.251 0.556 2.701 1.25 3.225 1.543 0.939 0.523 1.954 0.837 2.975 1.151l1.933 0.812c1.204 0.505 2.476 0.822 3.367 0.841 2.527 0.052 5.108 0.797 7.557 1.403 0.296 0 0.856 0.28 1.138 0.28h7.853c0.687-0.295 1.251-0.28 1.992-0.28 2.057-0.375 4.113-0.748 6.171-1.123 0.866-0.159 1.721-0.328 2.524-0.715 1.232-0.594 2.612-0.889 3.926-1.248 1.259-0.441 2.424-1.004 3.588-1.653l4.236-1.992c0.468-0.281 0.935-0.561 1.403-0.841 0.645-0.331 1.256-0.676 1.823-1.138 0.496-0.402 0.977-0.65 1.572-0.854l0.532-0.532c0.521-0.522 0.54-0.538 0.981-0.842 1.581-1.089 3.131-2.429 4.488-3.786 1.92-1.92 3.927-3.928 5.469-6.17 0.171-0.248 0.54-0.726 0.82-1.066 0.398-0.479 0.555-0.73 0.702-1.122 0.148-0.393 0.312-0.654 0.737-1.177 0.424-0.523 0.58-0.772 0.7-1.121 0.1-0.288 0.399-0.795 0.828-1.403 1.264-1.792 2.457-4.056 2.959-6.199 0.162-0.694 0.55-1.676 0.862-2.181 0.748-1.211 0.882-2.753 1.116-4.129 1.251-2.591 1.61-5.555 2.186-8.355 0.104-0.675 0.309-1.309 0.309-1.992v-7.852c-0.327-0.763-0.28-1.448-0.28-2.273-0.375-2.056-0.748-4.114-1.123-6.17-0.16-0.866-0.328-1.721-0.716-2.524-0.594-1.232-0.888-2.612-1.246-3.926-0.443-1.259-1.004-2.423-1.655-3.587l-1.992-4.236c-0.28-0.468-0.561-0.935-0.841-1.403-0.331-0.645-0.676-1.256-1.136-1.822-0.391-0.48-0.618-0.823-0.794-1.202-0.541-1.157-1.612-2.17-2.417-3.145-2.171-2.623-4.449-5.131-7.181-7.18-0.646-0.484-1.274-0.985-1.906-1.484-0.485-0.329-0.962-0.66-1.432-1.011-0.468-0.352-0.946-0.682-1.43-1.01-0.7-0.54-1.426-0.979-2.215-1.374-0.752-0.45-1.499-0.904-2.229-1.388-1.008-0.665-2.16-1.002-3.27-1.445-0.896-0.359-1.778-0.743-2.665-1.123-1.483-0.858-3.097-1.109-4.768-1.401-5.083-2.236-10.815-2.193-16.267-2.215-4.118 0-8.142 0.468-12.098 1.68-1.064 0.327-2.084 0.542-2.267 0.479-0.183-0.064-0.433-0.456-0.557-0.872-0.338-1.137-1.003-2.184-1.568-3.221l-0.566-1.256c-0.752-1.671-2.493-3.076-4.33-3.356-0.504-0.078-0.754-0.471-1.234-1.95-0.834-2.57-1.562-5.173-2.313-7.769-1.343-4.217-2.736-8.408-4.179-12.591-0.277-0.945-0.556-1.889-0.834-2.834h4.801c2.929 0 4.951 0.116 5.185 0.296 0.456 0.349 0.911 0.7 1.366 1.05 0.512 0.322 1.018 0.647 1.486 1.032 1.582 1.306 3.732 1.282 5.667 1.548 1.435 0 2.76-0.204 4.148-0.561l-0.049-0.069c-0.118-0.17 0.193 0.118 0.25 0.164 0.44 0.346 0.556 0.869 0.767 1.385 0.725 1.784 1.145 3.887 0.729 5.8-0.422 1.947-2.152 2.96-3.629 4.095-2.907 2.23-6.911 2.286-10.379 2.732v2.621c0 2.459 0.036 2.623 0.575 2.623 1.031 0 2.059 0.089 3.088 0.152 1.38 0.082 3.211 0.076 4.067-0.015 1.86-0.199 3.398-1.053 5.061-1.835 1.215-0.57 1.916-0.949 2.103-1.136 0.188-0.186 0.505-0.457 0.953-0.812 0.829-0.656 1.541-1.396 2.232-2.193 0.739-0.852 1.169-1.792 1.668-2.805 1.049-2.124 1.569-4.144 1.569-6.515v-1.948c-0.276-1.237 0.778-1.723 1.791-2.027 1.153-0.345 2.032-0.234 2.397 1.026 0.502 1.726 0.871 3.433 1 5.237 0.123 1.72 0.603 3.259 1.235 4.837 0.511 1.275 1.679 1.864 3.055 1.864 1.188 0 2.302-0.393 2.302-1.774 0-0.411-0.04-0.755-0.31-1.059-0.831-0.893-1.663-1.785-2.495-2.677 0-3.534-0.331-6.952-1.263-10.364-0.506-1.862-1.072-3.691-1.946-5.42-0.376-0.746-0.762-1.44-0.856-1.543-0.875-0.96-1.275-2.011-1.508-3.311-0.211-1.173-0.46-2.218-0.892-3.328-0.299-0.764-0.6-1.509-0.967-2.242-0.252-0.506-0.488-1.007-0.701-1.528-0.19-0.462-0.395-0.872-0.656-1.298-0.775-1.258-2.114-2.304-3.278-3.197-1.162-0.892-2.402-1.265-3.809-1.52-1.697-0.309-3.071-0.309-4.768 0-1.815 0.329-3.493 1.001-5.189 1.697-2.183 0.895-3.731 2.871-5.307 4.57-1.391-0.678-2.78-1.355-4.171-2.032-0.766-0.299-1.534-0.599-2.302-0.899-0.9-0.901-1.894-1.672-2.887-2.467-1.672-1.337-3.235-2.765-4.796-4.234-3.284-3.094-6.592-6.174-9.987-9.144-3.161-2.766-5.88-6.039-7.549-9.911-0.493-1.147-0.999-2.277-1.552-3.396-0.412-0.833-0.789-1.656-1.121-2.524-0.368-0.959-0.795-1.868-1.248-2.789-0.396-1.474-1.015-2.835-1.683-4.207-0.292-0.601-0.544-1.295-0.561-1.543-0.075-1.166-0.898-2.468-1.402-3.505-0.958-1.969-1.88-3.957-2.812-5.94l-0.277-1.111c-0.341-1.373-0.391-2.41 0.407-3.642 1.024-0.804 2.476-0.747 3.728-0.875 0.582 0.087 1.07 0.349 1.573 0.66 0.497 0.309 1.773 0.681 2.833 0.828 1.367 0.188 2.562 0.095 3.871-0.259 0.361-0.302 0.723-0.605 1.084-0.908 0.648-0.521 0.9-1.172 1.077-1.997 0.19-0.877 0.458-1.692 0.856-2.491 0.024-0.202 0.048-0.405 0.072-0.608 0.552-0.433 0.864-0.897 1.02-1.609 0.119-0.539 0.447-1.103 0.73-1.253 0.642-0.346 0.812-1.22 1.013-1.858 0.399-0.845 1.028-1.085 1.961-1.274 1.254-0.254 1.936-0.671 1.936-1.998 0-0.906-0.333-1.714-0.604-2.578-0.332-1.059-0.666-2.399-0.744-2.979-0.102-0.783-0.024-1.112 0.307-1.277 0.247-0.123 0.707-1.055 1.024-2.07 0.319-1.016 0.657-2.585 0.755-3.489 0.113-1.057 0.293-1.912 1.24-2.408 0.934-0.491 1.786-1.375 2.198-2.323 0.512-1.18-0.353-2.728-0.81-3.848-0.826-2.018-2.484-3.522-3.898-5.144-0.261-0.369-0.677-0.493-1.081-0.694-0.589-0.295-1.179-0.592-1.767-0.891-0.55-0.281-0.953-0.533-1.388-0.968-1.445-1.444-3.298-1.667-5.064-2.539-1.494-0.737-2.986-1.344-4.64-1.658-0.393-0.01-1.234-0.29-1.514-0.29zm62.798 156.91l-2.526-0.14h-2.494c-0.808 0.347-1.555 0.28-2.446 0.28-2.309 0-4.793 0.623-6.928 1.508-0.741 0.308-1.462 0.513-2.244 0.701-1.426 0.343-2.748 0.944-4.125 1.426-0.629 0.22-1.207 0.481-1.801 0.782-0.714 0.363-0.967 0.758-0.967 1.502l0.435 1.542c0.717 2.54 2.028 5.003 3.181 7.374 0.189 0.702 0.395 1.322 0.716 1.977 0.224 0.455 0.483 1.156 0.576 1.557 0.195 0.842 0.603 1.615 0.981 2.384 1.316 3.29 2.978 6.45 4.474 9.66 0.954 2.05 2.078 3.97 3.24 5.904 0.362 0.607 0.688 1.224 1.01 1.852l1.344 1.344 0.139 0.403c0.191 0.556 0.655 0.997 1.012 1.449 0.468 0.591 0.921 1.192 1.373 1.795 0.536 0.613 1.191 0.455 1.968 0.307 1.458-0.279 3.172-0.147 4.372 0.829 0.438 0.356 0.731 0.556 0.842 0.575 0.565 0.098 1.148 1.05 1.469 1.472 0.851 1.113 0.933 2.961 0.641 4.266-0.15 0.674-0.346 1.304-0.436 1.403-0.645 0.72-1.345 1.415-2.112 2.003-1.801 1.38-4.742 1.614-6.574 0.125-0.438-0.356-0.731-0.556-0.842-0.575-0.565-0.097-1.148-1.05-1.469-1.472-0.735-0.964-0.983-2.714-0.743-3.877 0.267-1.299-1.37-2.664-2.134-3.625-0.326-0.479-0.652-0.952-0.998-1.416-0.537-0.724-1.028-1.48-1.528-2.23-0.436-0.63-0.778-1.276-1.121-1.964-0.331-0.645-0.676-1.256-1.136-1.822-0.425-0.523-0.581-0.771-0.701-1.122-0.122-0.35-0.276-0.598-0.702-1.121-0.425-0.524-0.581-0.772-0.701-1.123-0.121-0.349-0.276-0.598-0.701-1.121-0.426-0.523-0.582-0.772-0.702-1.121-0.085-0.248-0.709-1.384-1.388-2.524-2.044-3.44-3.641-7.148-5.217-10.827-0.577-1.035-1.123-2.072-1.513-3.196-0.248-0.709-0.69-1.72-0.982-2.243-0.524-0.938-0.838-1.953-1.152-2.974-0.216-0.455-0.43-0.91-0.646-1.364l-0.63 0.541c-0.345 0.299-0.817 0.668-1.049 0.823-0.328 0.218-0.657 0.302-1.04 0.338-0.893 0.894-1.815 1.752-2.747 2.607-0.962 0.881-1.91 1.769-2.833 2.693-1.985 1.984-3.676 4.31-5.273 6.618-0.336 0.901-0.855 1.585-1.459 2.326-0.384 0.955-0.767 1.91-1.151 2.863-0.52 1.212-1.064 2.381-1.681 3.547-1.319 2.486-1.669 5.504-2.245 8.232-1.176 4.38-1.094 9.085-1.094 13.601 0 4.164 1.487 8.179 2.511 12.171 0.812 3.168 2.411 6.008 3.689 9.002l0.547 0.672c0.403 0.496 0.651 0.978 0.856 1.572l1.344 1.344c0.097 0.562 0.609 0.947 0.979 1.352l0.92 1.015c1.422 2.845 4.217 4.745 6.573 6.807 0.944 0.824 1.935 1.577 2.916 2.353 0.369 0.293 0.812 0.608 0.981 0.701 0.598 0.327 1.123 0.812 1.655 1.234 1.761 1.262 3.975 1.981 5.948 2.862 0.856 0.343 1.693 0.699 2.527 1.095 2.193 1.041 4.476 1.655 6.84 2.227 2.298 0.556 4.548 0.856 6.901 0.856 1.683 0.093 3.365 0.186 5.048 0.28 3.403 0 6.671-0.398 10.011-1.151 2.142-0.483 4.218-1.053 6.228-1.933 0.664-0.198 1.328-0.394 1.992-0.591 1.253-0.813 2.558-1.481 3.926-2.088 1.496-0.664 2.338-1.091 2.524-1.277 0.558-0.558 1.242-1.134 1.935-1.514 1.372-0.75 2.736-2.04 3.897-3.054 1.887-1.651 3.615-3.475 5.388-5.247 0.546-0.687 1.092-1.373 1.639-2.06 0.411-0.516 0.792-1.043 1.165-1.587 0.624-0.83 1.26-1.65 1.906-2.465 0.813-1.121 1.345-2.411 1.962-3.645 0.374-0.747 0.671-1.503 0.9-2.303 0.498-1.241 1.056-2.443 1.63-3.651 0.941-2.453 1.569-4.965 2.238-7.508 0.654-3.921 0.591-8.006 0.591-11.977 0-2.849-0.527-5.699-1.151-8.467-0.462-2.053-1.032-4.237-1.262-4.854-0.262-0.696-0.676-1.536-1.094-2.214-1.201-1.954-1.974-4.174-2.913-6.262-0.308-0.684-0.636-1.328-0.731-1.432-0.505-0.555-1.044-1.184-1.404-1.842-0.54-0.986-1.396-1.872-2.074-2.774-2.042-2.552-4.48-4.762-6.79-7.07l-0.686-0.546c-0.368-0.292-0.734-0.578-1.122-0.842-0.334-0.226-0.658-0.46-0.982-0.701-0.69-0.512-1.41-0.981-2.116-1.472-0.618-0.229-1.138-0.491-1.655-0.912-1.097-0.891-2.551-1.345-3.816-1.977-1.357-0.679-2.725-1.331-4.099-1.976-1.765-0.264-3.372-0.663-5.017-1.375-3.433-1.487-7.132-1.324-10.797-1.528zm-165.92 0.38c-0.708-0.176-3.667-0.365-6.578-0.42l-5.29-0.1c-0.219 0.093-0.438 0.187-0.655 0.28-2.085 0-4.077 0.139-6.107 0.701-1.388 0.386-2.776 0.828-3.085 0.982-1.191 0.596-2.639 0.8-3.927 1.122-2.294 0.806-4.546 1.856-6.716 2.959-0.616 0.313-1.04 0.619-1.528 1.108-0.352 0.351-0.68 0.676-1.093 0.952-0.328 0.219-0.657 0.303-1.04 0.339l-1.344 1.344-0.42 0.28c-0.329 0.218-0.659 0.302-1.04 0.338-0.893 0.894-1.815 1.752-2.747 2.607-0.962 0.881-1.91 1.769-2.834 2.693-1.984 1.984-3.675 4.31-5.272 6.618-0.336 0.901-0.856 1.585-1.459 2.326-0.627 1.552-1.38 3.03-2.119 4.532-0.358 0.731-0.664 1.472-0.966 2.228-0.924 2.035-1.246 4.307-1.712 6.48-0.84 1.78-1.047 3.712-1.25 5.664-0.429 4.106-0.542 8.184 0.016 12.284 0.303 2.22 0.838 4.335 1.543 6.451l0.421 1.823c0.698 3.022 1.991 5.789 3.38 8.538 0.38 0.752 0.732 1.436 1.263 2.088 0.403 0.496 0.651 0.978 0.856 1.572l1.344 1.344c0.096 0.562 0.609 0.947 0.979 1.352l0.92 1.015c1.422 2.845 4.217 4.745 6.573 6.807 1.779 1.556 3.652 3.02 5.609 4.346 1.479 1.134 3.148 1.844 4.879 2.495 1.323 0.496 2.561 1.1 3.844 1.683 2.363 1.076 5.003 1.546 7.545 1.992 1.382 0.444 2.736 0.812 4.207 0.812 2.248 0 4.488 0.156 6.732 0.28h3.365c2.451-0.327 4.88-0.718 7.292-1.276 1.928-0.447 3.774-1.018 5.58-1.808l0.998-0.296c1.581-0.468 3.024-1.32 4.472-2.088 0.986-0.524 1.933-0.966 2.104-0.982 0.644-0.061 1.204-0.924 1.653-1.373 0.567-0.053 0.728-0.167 1.152-0.591 1.135-1.133 2.515-2.069 3.771-3.069 3.456-2.749 6.29-6.027 8.977-9.508 0.208-0.271 0.46-0.712 0.56-0.981 0.143-0.383 0.307-0.643 0.729-1.164 0.419-0.515 0.583-0.774 0.702-1.107 0.121-0.341-0.064-0.436-0.856-0.436h-1.011l-9.647-1.247c-5.306-0.686-10.67-1.261-11.92-1.277-2.573-0.033-5.094-0.607-7.602-1.121-1.496-0.187-2.992-0.375-4.488-0.562-1.148-0.158-2.279-0.326-3.336-0.841-0.602-0.292-1.315-0.579-1.587-0.637-0.271-0.059-0.836-0.479-1.255-0.934-1.045-1.133-1.416-2.697-2.081-4.052-0.943-1.918-1.683-3.89-2.061-6.002-0.114-0.627-0.414-1.231-0.676-1.358-1.131-0.542-2.26-1.973-2.747-3.094-0.568-1.308-0.627-2.734-0.812-4.143 0-1.584 0.352-2.96 0.876-4.447 0.667-0.781 1.401-1.509 2.108-2.256h3.512c3.139 0 3.56-0.057 3.963-0.545l0.45-0.547c0.019-0.3 0.039-0.6 0.059-0.9l0.545-0.672c0.426-0.522 0.582-0.77 0.702-1.121 0.121-0.351 0.276-0.599 0.701-1.121 0.425-0.524 0.581-0.772 0.701-1.123 0.122-0.349 0.276-0.599 0.702-1.121 0.425-0.523 0.58-0.772 0.701-1.122 0.12-0.35 0.276-0.598 0.701-1.122 0.403-0.495 0.651-0.978 0.856-1.571l1.344-1.344 0.28-0.421c0.27-0.404 0.308-0.854 0.339-1.32l0.547-0.672c0.425-0.523 0.58-0.771 0.701-1.122 0.12-0.35 0.276-0.598 0.701-1.122 0.426-0.523 0.58-0.771 0.702-1.122 0.12-0.35 0.276-0.598 0.7-1.121 0.404-0.496 0.652-0.977 0.856-1.572l1.344-1.344 0.281-0.42c0.269-0.404 0.308-0.855 0.339-1.321l0.546-0.672c0.426-0.523 0.58-0.771 0.702-1.122 0.12-0.35 0.276-0.598 0.7-1.121 0.425-0.523 0.581-0.772 0.701-1.121 0.121-0.351 0.276-0.599 0.701-1.123 0.426-0.523 0.582-0.771 0.702-1.121 0.121-0.351 0.276-0.599 0.701-1.122 0.403-0.496 0.652-0.978 0.856-1.572l1.344-1.344c0.104-0.28 0.207-0.561 0.309-0.841l-0.05-0.256c-0.028-0.141-1.107-0.721-2.399-1.292-1.597-0.704-3.183-1.427-4.763-2.169-1.288-0.432-2.53-0.816-3.866-1.08-1.311-0.258-2.563-0.668-3.815-1.122zm128.1-21.399l-0.294-0.714h-27.487l-4.923 4.921c-2.708 2.708-6.312 6.311-8.008 8.008-4.508 4.507-8.844 9.225-13.042 14.021-1.15 1.315-2.247 2.663-3.248 4.092-0.836 1.192-0.854 3.082-0.398 4.412 0.28 0.819 0.572 1.628 0.886 2.434 0.385 0.993 1.042 1.729 1.778 2.465l0.28 0.421c0.22 0.328 0.304 0.658 0.34 1.04l0.546 0.672c0.404 0.495 0.652 0.978 0.856 1.571 0.577 0.577 1.124 1.172 1.654 1.795 2.54 2.977 5.324 5.756 8.038 8.577 1.673-1.873 3.346-3.747 5.004-5.633 1.978-2.252 3.996-4.472 6.001-6.702 1.905-2.169 3.833-4.317 5.764-6.464 0.757-0.842 1.511-1.688 2.259-2.538 1.978-2.254 3.996-4.472 6.001-6.702 1.905-2.169 3.833-4.317 5.764-6.465 1.099-1.221 2.184-2.455 3.269-3.689 1.248-1.388 2.495-2.775 3.743-4.163 1.099-1.223 2.184-2.455 3.269-3.689 0.748-0.842 1.496-1.683 2.244-2.524 0.462-0.532 0.923-1.064 1.383-1.596-0.46-0.944-0.921-1.888-1.383-2.834zm-42.12-64.544c-1.142-0.952-2.832-0.638-4.017 0.014-1.967 1.082-4.017 1.998-6.045 2.96-1.114 0.668-2.238 1.318-3.366 1.962-0.645 0.331-1.257 0.676-1.822 1.136-0.496 0.404-0.979 0.652-1.572 0.856l-1.344 1.344-0.422 0.282c-0.23 0.153-0.622 0.293-0.87 0.309-0.9 0.059-1.763 0.781-2.384 1.401-0.355 0.356-0.692 0.624-1.122 0.871l-0.633 1.433c-0.771 1.744-1.231 3.847 0.183 5.351 0.494 0.527 0.99 1.031 1.565 1.472 0.601 0.463 1.257 0.697 1.963 0.981 0.792 0.319 1.994 0.882 2.672 1.251 1.296 0.707 2.669 1.245 4.037 1.793 1.048 0.478 2.096 0.955 3.144 1.432 1.576 0.568 3.151 1.134 4.739 1.668 1.546 0.519 3.004 1.22 4.458 1.948 2.16 1.039 4.32 2.076 6.48 3.115 0.946 0.476 1.89 0.953 2.835 1.431l1.344 1.344 0.42 0.28c0.328 0.218 0.657 0.302 1.04 0.338l1.344 1.344c0.28 0.188 0.561 0.375 0.841 0.562 0.224 0.069 0.447 0.14 0.671 0.209 0.917 0.979 1.836 1.956 2.753 2.933 0.364 0.459 0.73 0.916 1.094 1.374l0.385 0.49c0.216 0.275 0.469 0.714 0.576 0.996 0.265 0.708 0.812 1.271 1.283 1.85l0.981 1.992c1.296 2.63 1.639 5.728 0.295 8.413-0.368 0.736-0.683 1.484-0.996 2.244h18.737c-0.328-1.732-0.705-3.389-1.223-5.077-0.416-1.362-0.75-2.66-0.966-4.067-0.184-1.192-0.187-2.244-8e-3 -3.04 0.213-0.949 0.682-1.541 1.41-2.119 1.711-1.36 4.042-1.218 6.142-1.402-0.244-0.366-0.738-0.591-1.094-0.842-0.561-0.373-1.121-0.746-1.682-1.121-0.403-0.279-0.76-0.516-1.22-0.688-0.764-0.283-1.264-0.955-1.836-1.527-0.991-0.52-1.922-1.169-2.82-1.837-0.372-0.277-0.714-0.421-1.166-0.464l-1.344-1.344c-1.676-0.88-3.222-2.064-4.797-3.113-1.761-0.926-3.295-2.503-4.783-3.802-3.922-3.425-7.549-7.128-11.233-10.812l-0.701-0.841c-1.151-1.38-2.299-2.764-3.447-4.148-0.624-0.771-1.248-1.54-1.883-2.301-1.896-2.276-3.696-4.714-5.384-7.151-0.349-0.699-0.605-1.177-1.212-1.683zm-64.1 95.714c-0.272-0.218-0.657-0.476-0.856-0.575-0.197-0.1-0.422-0.048-0.5 0.115-0.286 0.602-0.813 1.122-1.233 1.638l-0.029 0.31c-0.06 0.644-0.924 1.204-1.374 1.653-0.821 1.567-1.904 3.083-2.958 4.501-0.278 0.374-0.423 0.715-0.466 1.167-0.448 0.447-0.896 0.895-1.344 1.343-0.821 1.566-1.904 3.082-2.958 4.502-0.278 0.372-0.423 0.714-0.466 1.166l-1.344 1.344c-0.67 1.278-1.537 2.501-2.398 3.66-0.278 0.373-0.422 0.714-0.464 1.165l-1.344 1.344c-0.823 1.565-1.906 3.083-2.96 4.501-0.278 0.374-0.422 0.715-0.464 1.166l-1.344 1.344c-0.174 0.47-0.338 0.936-0.478 1.417-0.149 0.515-0.044 0.575 0.996 0.575 1.234 0 2.458 0.072 3.688 0.141 2.806 0.156 5.614-7e-3 8.415-0.141 3.003 0 5.977-0.114 8.975-0.28 3.002 0 5.977-0.114 8.976-0.28 2.612 0 5.186-0.104 7.794-0.282 0.432-0.084 0.59-0.289 0.59-0.773 0-1.087 0.177-2.163 0.304-3.24 0.254-2.164 0.232-2.848-0.14-4.207-0.264-0.965-0.544-1.822-0.991-2.716-0.619-1.24-1.152-2.512-1.697-3.786-0.643-1.506-1.34-2.883-2.495-4.038l-0.28-0.42c-0.155-0.232-0.295-0.624-0.311-0.87-0.016-0.248-0.33-0.752-0.701-1.123-0.679-0.679-1.16-1.283-1.448-2.193-2.728-2.898-5.579-5.643-8.695-8.128zm-18.73 39.362l-3.492-0.826-0.435-0.015c-0.379-0.013-0.436 0.665-0.436 5.188 0 4.647 0.06 5.321 0.561 6.309 0.922 1.82 1.988 3.554 3.015 5.315 0.445 0.763 0.989 0.841 1.783 0.841l15.961 1.571c8.777 0.865 16.035 1.489 16.127 1.388 0.672-0.743 1.04-1.972 1.481-2.873 1.1-0.703 1.185-2.595 1.04-3.762-0.231-1.841-0.303-3.697-0.421-5.549l-0.059-0.137-0.059-0.138-2.62-0.578c-4.074-0.9-8.145-1.798-12.253-2.527-6.761-1.201-13.511-2.624-20.193-4.207zm35.353-64.782c-0.109-0.443-0.32-0.575-0.729-0.575-0.22 0.46-0.504 0.864-0.827 1.261-1.051 1.291-1.895 2.819-2.82 4.207-0.22 0.329-0.449 0.649-0.687 0.967-0.277 0.373-0.421 0.714-0.464 1.165l-1.344 1.344-0.154 0.296c-0.616 1.171-1.455 2.304-2.244 3.365-0.278 0.372-0.423 0.714-0.466 1.166l-1.344 1.344c-0.821 1.565-1.904 3.081-2.958 4.501-0.378 0.507-0.551 1.069-0.716 1.668-0.056 0.105-0.112 0.211-0.168 0.316 0.42 0.363 0.84 0.724 1.26 1.087 0.206 0.018 0.413 0.038 0.62 0.057 0.81 0.811 1.644 1.587 2.494 2.355 0.823 0.742 1.631 1.489 2.414 2.273 1.797 1.797 3.241 3.855 4.858 5.804 0.419 0.504 0.666 1.024 0.891 1.628 0.448 0.447 0.896 0.895 1.345 1.343 0.52 0.992 1.17 1.921 1.838 2.82 0.488 0.657 0.625 1.358 0.838 2.145h0.336c0.51-2.604 1.028-5.192 1.659-7.769 0.576-2.352 1.3-4.655 2.06-6.952 0.337-1.836 0.76-3.706 1.601-5.387 0.539-1.08 1.047-2.175 1.56-3.267 0.331-1.33-0.316-2.538-0.888-3.716-0.293-0.601-0.545-1.232-0.561-1.402-0.061-0.644-0.924-1.204-1.373-1.654-0.304-0.853-0.715-1.613-1.151-2.412-0.788-1.444-1.532-2.908-2.273-4.376l-1.344-1.344c-0.214-0.406-0.44-0.766-0.716-1.136-0.263-0.353-0.456-0.75-0.547-1.122zm32.927 72.044v-1.107c-0.431 0-0.562 0.353-0.827 0.687-1.417 1.781-3.032 3.452-4.641 5.062-0.931 0.93-1.874 1.83-3.196 2.159-1.123 0.28-2.639 0.113-3.574-0.608-0.269-0.208-0.54-0.405-0.818-0.599-0.39-0.269-0.49-0.485-0.667-0.928-0.207-0.512-0.616-0.717-1.964-0.98-1.647-0.321-1.703-0.313-1.703 0.256 0 1.408 0.356 2.983 0.983 4.235 0.252 0.504 0.488 1.007 0.701 1.528 0.582 1.424 1.452 2.733 2.243 4.052 0.476 0.715 0.803 0.785 1.699 0.563 0.889-0.222 1.777-0.4 2.678-0.563 2.27-0.413 4.348-1.433 5.972-3.056 1.043-0.373 1.494-1.556 1.959-2.5 0.977-1.988 1.076-2.403 1.115-4.639l0.04-2.454zm84.326-111.62l-1.896-0.263c-0.48 0-0.914 0.051-1.358 0.267-0.3 0.145-1.002 0.335-1.558 0.42-1.269 0.195-2.585 0.636-3.505 1.557-0.513 0.514-1.063 0.978-1.619 1.443 1.484 0.173 2.968 0.347 4.452 0.52 0.74 0 1.448 0.023 2.127 0.369 0.951 0.484 1.589 1.254 2.336 2.016 0.909 0.928 1.817 2.18 2.081 2.871 0.258 0.673 0.651 1.539 0.875 1.925 0.625 1.079 0.619 2.55 0.759 3.764 1.381 0.352 2.764 0.704 4.146 1.058 0.36-1.28 0.72-2.56 1.082-3.84 0.574-2.366-0.148-5.151-1.212-7.279-0.72-1.439-1.684-2.564-2.838-3.649-1.25-0.58-2.492-0.988-3.872-1.179zm-91.086 22.173c-1.396 0-2.787-0.164-4.178-0.281 0.316 1.589 0.634 3.179 0.95 4.768h7.776c7.44 0 7.794-0.024 8.218-0.561 0.295-0.371 0.583-0.743 0.866-1.122 0.265-0.353 0.533-0.704 0.806-1.052 0.294-0.372 0.526-0.769 0.736-1.192-2.541 0-5.064-0.138-7.601-0.28-2.249 0-4.487-0.156-6.732-0.28zm-26.616 81.172v-2.368h-7.854c-0.217 0.094-0.436 0.187-0.654 0.28h-15.023c2.535 1.003 5.404 1.312 8.105 1.543 1.262 0.107 2.431 0.276 3.66 0.576 3.678 0.895 7.444 1.461 11.176 2.088 0.196 0.083 0.394 0.165 0.59 0.248zm24.549-2.929c-0.893 0-1.787-0.168-2.672-0.28-0.996 0.427-2.057 0.28-3.135 0.28-0.441 1.673-0.882 3.347-1.324 5.019-0.186 0.841-0.373 1.682-0.561 2.524l-0.028 0.436c-0.033 0.494 0.541 0.434 0.869 0.434l1.52 0.299c0.862 0.171 1.556 0.273 2.266-0.243l0.422-0.21c0.232-0.116 1.026-2.022 1.762-4.235l1.338-4.024zm8.995-66.76l0.418-0.545h-9.281c0.644 3.254 1.287 6.51 1.929 9.765l0.564-0.661c0.468-0.551 0.587-0.73 0.702-1.064 0.076-0.222 0.216-0.487 0.309-0.591 1.005-1.1 1.913-2.332 2.807-3.524 0.492-0.655 1.004-1.293 1.514-1.933 0.336-0.491 0.676-0.974 1.038-1.447zm-9.003 55.388c-0.677-0.224-1.428-0.533-1.668-0.687-0.356-0.229-0.487-0.08-0.716 0.827-0.153 0.608-0.419 1.357-0.589 1.663s-0.564 1.574-0.875 2.82l-0.565 2.262c2.07 0 4.102-0.144 6.166-0.313 0.119-0.032 0.236-0.064 0.354-0.096 0.601-1.832 1.202-3.665 1.804-5.499-0.892-0.19-1.786-0.381-2.678-0.572zm11.68 3.787c-0.532-0.156-1.055-0.296-1.597-0.407-1.026-0.209-1.415 1.337-1.779 2.073-0.281 0.748-0.561 1.496-0.841 2.244-0.138 0.399-0.275 0.802 0.128 1.116 0.492 0.386 0.994 0.755 1.496 1.128 0.729 0.364 1.309 0.911 1.918 1.443 0.818-0.94 1.636-1.88 2.458-2.816 0.996-1.135 2.012-2.249 3.028-3.365h-1.234c-0.541-0.271-1.082-0.542-1.625-0.812-0.648-0.21-1.297-0.412-1.952-0.604zm-5.323 11.396c-0.522-0.63-0.62-0.739-1.013-1.132-0.393-0.394-0.451-0.354-0.591 0.421-0.244 1.351-1.02 2.581-1.668 3.771-0.424 0.778-0.753 1.558-0.966 2.414l0.288-0.156c0.558-0.301 0.966-0.842 1.409-1.292 1.071-1.084 2.095-2.204 3.12-3.329zm71.096-51.191c-0.234-0.171-0.454-0.295-0.742-0.295 0.27 0.551 0.541 1.103 0.812 1.654l0.232 0.589c0.338 0.86 1.304 0.124 1.913-0.14 0.032-0.047 0.065-0.093 0.099-0.14-0.836-0.461-1.543-1.111-2.314-1.668z" fill="#010000" fill-rule="evenodd" transform="translate(-414.33 -725.4)"/></g></svg>