<?xml version="1.0" encoding="UTF-8"?><svg xmlns="http://www.w3.org/2000/svg" xmlns:xlink="http://www.w3.org/1999/xlink" height="246.9" preserveAspectRatio="xMidYMid meet" version="1.0" viewBox="126.9 296.9 203.8 246.9" width="203.8" zoomAndPan="magnify"><g><g id="change1_1"><path d="M251.91634,296.85437C251.68816,296.85437,251.3986,297.04053,251.2741,297.3587C251.15813,297.66022,250.99576,298.35614,250.90298,298.93597C250.81021,299.51587,250.53185,300.39728,250.2999,300.88434C250.04477,301.39465,249.85918,302.02094,249.85918,302.27606C249.85918,302.55438,249.53445,303.43585,249.16333,304.2245C248.76903,305.03632,248.4675,305.84814,248.46751,306.0105C248.46751,306.14966,248.21234,306.65997,247.91081,307.12384C247.4237,307.8429,246.24077,309.93048,244.96503,312.34277C244.73308,312.7603,244.45474,313.38654,244.31555,313.7345C244.17639,314.0824,243.96764,314.52313,243.82848,314.70868C243.52695,315.1958,242.7847,316.9818,242.43675,318.07196C242.2744,318.58228,241.83368,319.53326,241.46257,320.20596C240.69713,321.5745,240.16364,323.7084,239.8621,326.53824C239.65335,328.62576,239.491,329.1593,238.56317,331.13086C237.75987,332.77762,237.25218,333.22464,235.77551,333.22464C235.54663,333.22464,235.29448,333.2139,235.01433,333.19522C233.06595,333.05606,232.02214,332.68494,230.42168,331.54837C228.49649,330.15665,227.05838,329.5536,225.66667,329.5536C224.71532,329.5536,224.41403,329.61862,223.75613,330.14316L223.7539,330.14316Q223.55212,330.2085,223.53107,330.2221Q223.35054,330.29865,223.2511,330.38174L222.77791,330.76553Q222.72552,330.80844,222.68153,330.85834Q222.50279,331.04156,222.20987,331.5472Q221.99727,331.91223,221.7808,332.61926Q221.7672,332.65167,221.74017,332.82126Q221.69795,333.26733,221.68498,333.29974Q221.67241,333.3672,221.65195,333.43314Q221.46054,333.94882,221.46553,333.97635Q221.44557,334.0225,221.38779,334.54202L221.28462,334.90143Q221.26173,334.9858,221.21094,335.32437L221.16121,335.49506Q221.14964,335.55093,221.1763,335.5924Q221.19795,335.62375,221.22989,335.62375Q221.24199,335.62375,221.25555,335.61926Q221.37315,335.52487,222.25787,335.2249Q222.63283,335.09006,222.90427,335.04877Q223.65111,334.9558,224.35648,334.9558Q224.69397,334.9558,225.02196,334.97708L225.01971,334.97708C225.47403,335.5273,225.8367,336.0272,225.96823,336.30338C226.22336,336.79047,226.87283,337.7415,227.42952,338.41412C230.88559,342.65884,231.18712,343.4939,229.865,345.18713C228.96037,346.32367,227.40633,347.83136,226.82645,348.15607C226.5945,348.2721,226.01462,348.7128,225.5507,349.1303C225.06361,349.5478,224.04301,350.26688,223.23117,350.73077C221.14362,351.93692,220.37817,352.60956,215.99426,357.0398C209.43005,363.6504,206.55386,366.66577,204.44312,369.194C203.32976,370.53934,202.1236,371.90787,201.77568,372.25577C201.40454,372.60376,200.98705,373.02124,200.84789,373.1604C200.6855,373.32278,200.26799,373.71707,199.87367,374.04184C199.50255,374.38977,198.8299,375.0392,198.366,375.5031C197.92528,375.96704,197.18304,376.5469,196.74234,376.80203C196.25523,377.08038,195.93051,377.42834,195.93051,377.70667C195.93051,378.0057,196.01056,378.10464,196.56522,378.10464C196.74193,378.10464,196.96681,378.0946,197.25262,378.0778C197.51556,378.06137,197.77269,378.05365,198.00026,378.05365C198.41512,378.05365,198.73181,378.07925,198.8067,378.12418C199.20103,378.3793,198.62114,379.5391,197.55417,380.65247C196.46399,381.7658,196.25523,382.3457,196.90471,382.60083C196.94666,382.6161,196.99112,382.6238,197.0381,382.6238C197.27678,382.6238,197.58023,382.42413,197.94849,381.99774C198.4356,381.44107,198.89948,381.18594,199.57214,381.09317L200.49994,380.97717L200.40717,382.3457C200.33759,383.69098,200.33759,383.71417,201.01024,383.7838C201.08769,383.7935,201.16615,383.79813,201.24309,383.79813C201.53484,383.79813,201.80473,383.73157,201.91486,383.6214C202.09117,383.44507,202.38745,383.36392,202.68315,383.36392C203.08766,383.36392,203.4911,383.5158,203.5849,383.7838C203.70819,384.23593,204.37764,384.61514,204.93199,384.61514C205.00336,384.61514,205.07283,384.60886,205.13898,384.59564C205.34772,384.54926,205.64928,384.17813,205.78844,383.807C206.1029,383.055,206.75589,382.65762,207.47658,382.65762C207.97849,382.65762,208.51324,382.85034,208.98936,383.25027C209.38368,383.575,209.8244,383.8302,210.00995,383.8302C210.45067,383.8302,211.28569,383.04153,211.47125,382.46167C211.58376,382.05984,212.01924,381.84735,212.60793,381.84735C212.86879,381.84735,213.15976,381.88907,213.46602,381.97455C213.88524,382.09433,214.15613,382.16995,214.39162,382.16995C214.79459,382.16995,215.09386,381.94855,215.85512,381.3483L216.94531,380.5133L216.8988,378.7621L216.90097,378.7621Q217.12402,378.9436,217.54053,379.25577Q218.10081,379.78976,218.2338,379.85803Q218.48674,380.0339,218.83261,380.03662Q219.26924,380.01984,219.53307,379.83786L219.9668,379.485Q220.03812,379.42416,220.09851,379.3184Q220.16595,379.2183,220.27579,378.95572L220.58354,378.07565Q220.64339,377.86438,220.64099,377.76883L220.6416,377.76883Q220.6567,377.76883,220.62344,376.17145Q220.62376,376.10657,220.65137,376.08878Q220.65782,376.08295,220.66592,376.08295Q220.68173,376.08295,220.70378,376.1052Q220.9706,376.39938,221.07977,376.54083L221.5745,377.29156Q221.69505,377.4573,221.82584,377.58267Q222.02824,377.76013,222.14484,377.76013Q222.25,377.76013,222.28537,377.61578L222.31401,377.44238Q222.51419,376.80905,222.57558,376.4593Q222.64397,376.05835,222.6241,375.76425L222.62633,375.76425C222.66458,375.83566,222.70374,375.91095,222.74408,375.99023C223.092,376.66287,223.32394,376.8716,223.78786,376.8716C224.34454,376.8716,224.76205,376.5469,226.0146,375.0392C226.4483,374.5413,226.59277,374.37704,227.09512,374.37704C227.31816,374.37704,227.61177,374.40942,228.03256,374.45935L229.40108,374.5985L230.12013,373.6243C230.51443,373.06763,230.83919,372.51096,230.83919,372.37177C230.86238,371.7687,231.90616,371.14246,233.08913,371.0265C234.06331,370.9337,234.4808,370.74808,235.36223,369.95947C235.9653,369.44922,236.96269,368.8461,237.56575,368.63736C238.49356,368.33582,238.93427,367.96472,239.90846,366.78174C240.58113,365.9467,241.48573,365.01892,241.94965,364.7174C243.82845,363.3953,247.63246,358.52432,248.14273,356.73828C248.44287,355.7045,248.82689,355.2221,249.39821,355.2221C249.62166,355.2221,249.87378,355.2959,250.16072,355.43936C250.50864,355.6249,250.78699,355.85684,250.78699,355.9728C250.78699,356.0656,251.08852,356.6223,251.48282,357.179C251.85396,357.73566,252.17868,358.38513,252.17868,358.5939C252.17868,358.80264,252.31786,359.12738,252.48024,359.28973C252.6426,359.4521,253.0137,360.0784,253.31526,360.68143C253.5936,361.26135,253.9879,361.8876,254.17348,362.02676C254.33583,362.18912,254.49821,362.49066,254.49821,362.7226C254.49821,362.9314,254.70695,363.30252,254.9853,363.55765C255.26366,363.78958,255.68117,364.3927,255.9131,364.8566C256.16824,365.34366,256.4466,365.73798,256.56256,365.73798C256.67853,365.73798,256.84088,365.92352,256.9105,366.13232C257.16562,366.85135,258.60373,369.03168,259.55472,370.14508C260.15332,370.82626,260.2927,370.938,261.29694,370.938C261.42117,370.938,261.55865,370.93628,261.71188,370.93372C263.0572,370.91052,264.56488,370.4466,264.936,369.91312C265.00558,369.84354,265.63187,369.33325,266.32773,368.82294C267.55704,367.89517,269.38947,366.01636,271.10593,363.8824C272.05692,362.6994,273.4254,359.9392,273.9125,358.1996C274.09805,357.55008,274.39963,356.50635,274.58517,355.88004C276.1161,350.754,275.39703,349.52463,270.29413,348.68964C269.73743,348.59686,268.9256,348.36493,268.50806,348.2025C268.09058,348.01694,267.23236,347.87778,266.62927,347.87778C266.02618,347.87778,265.21436,347.71542,264.84326,347.52988C263.79947,346.9732,261.61914,346.48605,260.22742,346.48605C258.9053,346.48605,258.395,346.3237,257.18884,345.60468C256.23785,345.0248,255.91313,344.44492,256.35382,344.097C256.5394,343.93463,257.4672,342.96042,258.3718,341.89346C259.67075,340.43216,260.08826,339.7595,260.20422,339.06366C260.297,338.55338,260.45935,338.06622,260.55215,337.99664C260.66812,337.92706,260.7609,337.64874,260.7609,337.3472C260.7609,337.06888,260.8537,336.7441,260.96967,336.60495C261.57272,336.0019,262.15262,333.3576,262.1758,331.1541C262.199,329.18253,262.12943,328.78818,261.7119,328.18512C261.43356,327.814,261.2248,327.2805,261.2248,327.0021C261.2248,326.42227,261.8047,325.86557,262.40778,325.84238C262.89487,325.84238,263.5443,325.10013,263.5443,324.58987C263.5443,324.35788,263.28918,323.7316,262.96445,323.19815C262.40778,322.2471,262.40778,322.17752,262.75568,321.48172C263.38196,320.18277,263.1268,319.55646,261.7351,318.8606C261.19147,318.60693,260.67615,318.2966,260.42142,318.08447L260.4188,318.08447Q260.48322,318.03433,260.5421,317.99902L260.7264,317.89398Q261.2935,317.62195,261.35522,317.57916L261.8524,317.291L262.11774,317.1454Q262.20142,317.09732,262.27795,317.03366Q262.31726,317.00327,262.38806,316.9207Q262.47833,316.79367,262.7636,316.47473Q262.81033,316.42026,262.87714,316.32465Q263.00403,316.14072,262.9617,316.04938Q262.89197,315.83786,262.63437,315.6431Q262.3085,315.3943,262.27914,315.39078Q262.06836,315.27087,261.84183,315.1977Q261.36563,315.0563,260.4367,314.86438L260.4341,314.86438L261.1784,314.47675C262.75568,313.64172,263.7067,312.89948,263.84586,312.38916C263.91544,312.13403,263.75308,311.53094,263.52112,311.06702C263.1964,310.464,263.0804,309.76813,263.1036,308.84027C263.15,307.61096,263.0804,307.4254,262.43097,306.75275C261.59595,305.89453,261.45676,304.92035,262.03662,304.08527C262.31497,303.71417,262.33817,303.45905,262.1758,303.13434C262.05087,302.89835,261.95087,302.7953,261.7416,302.7953C261.60114,302.7953,261.41147,302.8417,261.13202,302.92554C260.83463,303.01917,260.59344,303.07095,260.40073,303.07095C259.78186,303.07095,259.66287,302.53683,259.7867,301.13953C259.8795,299.84064,259.8331,299.63184,259.50836,299.63184C259.29962,299.63184,258.85892,299.91022,258.55737,300.23492C258.2446,300.56854,257.89432,300.7522,257.57397,300.7522C257.53796,300.7522,257.50235,300.74988,257.4672,300.74518C256.9801,300.6756,256.93372,300.55963,256.93372,299.30707C256.93372,298.24017,256.8409,297.89215,256.5162,297.6834C256.39984,297.61795,256.30402,297.57986,256.20938,297.57986C256.00223,297.57986,255.8009,297.76245,255.40285,298.24017C255.03172,298.68085,254.73018,299.1911,254.73018,299.37665C254.73018,299.56226,254.45183,300.11896,254.10393,300.60602C253.66667,301.25146,253.41632,301.4484,253.0341,301.4484C252.99052,301.4484,252.94524,301.44586,252.89775,301.4411C252.29468,301.37146,252.29468,301.34827,252.29468,299.39984C252.27147,298.30975,252.24828,297.28912,252.22508,297.12677C252.197,296.93958,252.07071,296.85437,251.91634,296.85437 Z M318.21878,354.49112C318.04727,354.49112,317.8364,354.6207,317.58896,354.8827C316.9627,355.53214,316.22046,357.0862,316.19727,357.73566C316.19727,357.99084,316.0581,358.40833,315.8957,358.66348C315.71014,358.9186,315.33905,359.73047,315.06067,360.4495C314.75916,361.19177,314.38803,361.8876,314.20245,362.04996C314.0169,362.18912,313.87775,362.49066,313.87775,362.6994C313.87775,362.9314,313.5994,363.46487,313.27466,363.90558C312.94995,364.34625,312.5324,364.99576,312.34686,365.39008C312.16132,365.76117,311.53503,366.75858,310.97833,367.59363C310.39847,368.42862,309.93457,369.28687,309.93457,369.49564C309.93457,369.70438,309.8418,369.9363,309.72583,370.0059C309.40106,370.21466,306.52487,374.57535,306.26974,375.248C306.13055,375.57272,305.78265,376.199,305.45792,376.6629C305.13318,377.15,304.80844,377.77628,304.71567,378.05463C304.62286,378.35614,304.0894,379.35355,303.5559,380.25815C303.0224,381.16278,302.48892,382.1602,302.39615,382.4617C302.30338,382.76324,302.141,383.11115,302.04822,383.2503C301.95544,383.3663,301.53793,384.10858,301.12042,384.87402C300.7261,385.63947,300.21582,386.54407,300.00705,386.89197C297.8963,390.20892,296.94528,392.11093,296.94528,392.96912C296.94528,393.22424,296.78293,393.7346,296.59738,394.10568C296.4118,394.4536,296.15665,395.28867,296.04068,395.9613C295.9247,396.61075,295.5536,397.97925,295.22885,398.97668C294.9041,399.9741,294.6258,400.97144,294.6258,401.20337C294.6258,401.41214,294.2547,402.13123,293.81396,402.75745C293.3733,403.38376,293.00214,404.0332,293.00214,404.19556C293.00214,404.79868,291.61044,406.4919,290.8682,406.81665C290.4043,407.0254,289.26773,407.14136,287.89923,407.14136C285.88123,407.14136,285.55652,407.07178,284.1416,406.37595C283.2834,405.9816,282.51794,405.63367,282.40198,405.63367C282.3092,405.63367,281.86847,405.37854,281.4278,405.077C280.96387,404.7523,279.9433,404.33472,279.17786,404.14917C278.6172,404.00214,278.1767,403.92426,277.7626,403.92426C277.13168,403.92426,276.562,404.105,275.72177,404.4971C275.4666,404.61307,274.79395,404.79868,274.21408,404.89145C273.35587,405.0306,273.1471,405.16977,273.1007,405.61047C273.00793,406.16714,273.84296,407.25732,274.35327,407.25732C274.67798,407.25732,274.9099,407.4893,276.00012,408.7882C276.3944,409.2985,277.18304,410.17993,277.76294,410.7598C278.62115,411.68762,280.03607,414.16946,280.8943,416.34985C281.03345,416.69775,281.219,417.67197,281.3118,418.507C281.451,419.8523,281.4046,420.08426,280.91748,420.8265C280.61597,421.2672,280.17523,421.70792,279.9433,421.7775C279.73453,421.84708,279.3866,422.19498,279.22424,422.54294C278.7603,423.42435,277.15985,424.79288,275.00272,426.16138C273.98212,426.78763,272.86877,427.5299,272.5208,427.83145C272.1729,428.10977,271.40747,428.57367,270.82758,428.82883C269.2735,429.5015,267.62665,430.77722,265.39993,433.00394C264.30975,434.09415,262.94125,435.36984,262.33817,435.85696C261.7583,436.34402,260.13464,437.8749,258.7661,439.28983C257.3976,440.68155,255.86674,442.09647,255.37965,442.42117C254.89256,442.7691,254.49825,443.18658,254.49825,443.34897C254.49825,443.53455,254.2199,443.8361,253.87196,444.04483C253.50084,444.2768,252.43388,445.22778,251.48285,446.20197C250.53186,447.17618,248.95459,448.63748,248.0036,449.47247C247.0526,450.28433,245.6377,451.53687,244.87225,452.25592C242.45996,454.4826,241.41618,455.29446,240.58116,455.66556C240.14044,455.85114,239.491,456.26865,239.14305,456.547C238.79514,456.84854,238.14566,457.19644,237.70496,457.3588C236.86992,457.63715,236.522,458.17065,236.77715,458.8433C236.86386,459.07092,237.00632,459.18713,237.31104,459.18713C237.65834,459.18713,238.21643,459.0362,239.14305,458.72733C239.834,458.4907,240.31639,458.36606,240.64537,458.36606C241.12259,458.36606,241.27701,458.6283,241.27701,459.19122C241.27701,459.88712,240.04765,461.99783,239.63016,461.99783C239.51419,461.99783,239.21263,462.43854,238.9343,462.97205C238.47038,463.89984,238.47038,463.94623,238.86472,464.24777C239.09666,464.41013,239.51419,464.54932,239.79253,464.54932C240.11725,464.54932,240.3724,464.7349,240.46518,465.0132C240.60187,465.4357,240.94493,465.64517,241.42305,465.64517C241.83739,465.64517,242.35313,465.48785,242.92387,465.17557C243.61823,464.7788,244.00768,464.58752,244.24815,464.58752C244.45752,464.58752,244.55394,464.73254,244.6403,465.01324C244.70988,465.2684,245.01141,465.52353,245.31297,465.6163C245.35873,465.62735,245.41147,465.6326,245.47008,465.6326C246.27304,465.6326,248.17857,464.64752,248.35152,464.08542C248.45354,463.76917,248.67671,463.61893,248.9342,463.61893C249.26215,463.61893,249.64574,463.8626,249.9056,464.31738C250.17233,464.7929,250.54346,465.03064,250.96967,465.03064C251.39587,465.03064,251.87717,464.7929,252.36427,464.31738C252.7586,463.94626,253.36168,463.57513,253.6864,463.48236C253.851,463.44247,253.99307,463.3779,254.11469,463.2838L254.11723,463.2838Q254.20026,463.63605,254.25969,463.80475Q254.3168,463.95673,254.33043,463.97263Q254.35541,464.01935,254.38248,464.04926Q254.41553,464.08917,254.4568,464.08917Q254.47417,464.08917,254.493,464.0821Q254.73343,463.91336,254.96892,463.5943L254.97147,463.5943Q254.98718,463.67035,255.03123,463.8296L255.08107,464.08133Q255.10268,464.17645,255.14136,464.21527Q255.15749,464.23126,255.19011,464.23126Q255.19756,464.23126,255.20587,464.23044Q255.54514,464.06015,255.72319,463.89227Q256.0095,463.64117,256.202,463.3334Q256.34592,463.10623,256.56134,462.59665L256.6168,462.45554L256.61935,462.45554C256.60107,462.53967,256.58206,462.61215,256.5626,462.67053C256.35382,463.25043,256.377,463.50555,256.67856,463.96945C256.922,464.33948,257.18588,464.52966,257.50452,464.52966C257.9449,464.52966,258.48987,464.1664,259.23004,463.41278C260.34338,462.2762,260.36658,462.2762,262.03662,462.18344C263.68347,462.11386,263.77628,462.06744,265.0984,460.95407C265.93365,460.23627,266.5119,459.88562,266.9323,459.88562C267.25906,459.88562,267.49045,460.09747,267.67303,460.51337C267.84564,460.87006,268.12665,461.0498,268.49063,461.0498C268.86044,461.0498,269.31586,460.86426,269.8302,460.49017C271.10596,459.56238,272.31207,458.9825,272.89197,458.9825C274.12128,458.9825,274.9099,458.47223,275.72177,457.21967C276.74237,455.6192,277.8557,455.03934,279.80414,455.03934C281.93805,455.03934,285.69565,453.83313,286.62344,452.83572C287.041,452.39502,287.62085,452.04712,288.13113,451.9543C289.17493,451.79196,291.5176,450.26108,293.72116,448.2895C294.74176,447.3617,295.73914,446.68903,296.17984,446.57306C296.80612,446.45706,296.99167,446.27148,297.22363,445.48288C297.4092,444.8798,297.8267,444.29993,298.45297,443.78964C299.58954,442.86182,300.54053,441.099,300.3318,440.33356C300.30365,440.2116,300.2148,440.04416,300.08984,439.86185L300.09283,439.86185Q300.1648,439.8672,300.32843,439.89026Q300.46667,439.91324,300.78708,439.9803Q300.87888,439.9982,300.9715,440.01154Q301.17258,440.0363,301.29977,440.0363Q301.30298,440.0363,301.30615,440.03625Q301.3356,440.03748,301.36328,440.03748Q301.62488,440.03748,301.7285,439.92715Q301.76678,439.88037,301.7328,439.79153Q301.66974,439.64084,301.571,439.52823L301.2743,439.19177L300.4812,438.26306L300.48422,438.26306Q300.5539,438.27277,300.64508,438.2846Q300.7705,438.30777,300.81802,438.32288L301.40665,438.52295Q301.5535,438.56543,301.64386,438.57828Q301.7835,438.60193,301.90393,438.60193Q302.27875,438.60193,302.46756,438.3727Q302.6369,438.14154,302.58554,437.85852Q302.57605,437.7867,302.52155,437.6237L302.1664,436.6473Q302.05225,436.37988,301.94858,436.151L301.9516,436.151Q302.0731,436.1767,302.1684,436.19354Q302.4714,436.24918,302.77982,436.27213Q302.90527,436.2813,303.01273,436.2813Q303.1735,436.2813,303.294,436.26074Q303.52228,436.22623,303.57126,436.14487Q303.65982,436.00613,303.4873,435.76578L302.92252,434.9738Q302.89627,434.94595,302.59103,434.4561L302.59406,434.4561C302.61267,434.45898,302.63174,434.46204,302.6513,434.46518C303.34714,434.58115,306.78003,436.6455,307.63824,437.45737C307.8238,437.61972,308.4037,438.06042,308.9372,438.43155C309.49387,438.8027,310.7,439.84644,311.6046,440.75107C312.5324,441.65567,313.83136,442.81543,314.45764,443.30252C315.10706,443.81284,315.9421,444.50867,316.31323,444.8566C319.36304,447.6412,320.18512,448.27545,321.93805,448.27545C322.33154,448.27545,322.77194,448.2435,323.29498,448.19672C324.66348,448.05753,325.22015,447.87195,326.14795,447.2689C328.3283,445.8308,329.4185,444.787,329.4185,444.13754C329.4185,443.88242,329.58084,443.39532,329.8128,443.07056C330.36948,442.21237,330.67102,440.37994,330.6942,437.99084C330.6942,436.2048,330.62463,435.81052,330.18393,435.18423C329.55765,434.30283,326.77423,432.37762,324.89545,431.4962C324.13,431.1251,323.2022,430.61478,322.80786,430.31323C322.43677,430.03488,321.60175,429.52463,320.95227,429.1999C320.326,428.85196,319.63013,428.4808,319.44458,428.34164C319.25903,428.22568,318.8415,428.04013,318.51678,427.90097C318.19202,427.78497,317.77454,427.57623,317.58896,427.46024C317.40338,427.34427,316.4292,426.85715,315.45502,426.39328C314.0633,425.7438,313.39063,425.25668,312.5556,424.28253C310.93195,422.40372,310.88556,422.19492,312.2077,422.03256C313.39063,421.8934,313.87775,421.4527,313.87775,420.4785C313.87775,419.6667,314.27206,419.31882,315.1767,419.31882C315.68698,419.31882,316.1509,419.08685,316.66116,418.62296C317.0787,418.22864,317.705,417.71835,318.0297,417.46317C318.9111,416.8601,320.9987,413.42725,321.4626,411.89636C321.67136,411.20053,322.06564,410.2495,322.344,409.8088C322.62234,409.36807,322.92386,408.4867,323.01663,407.86038C323.10944,407.23413,323.3646,406.39914,323.55014,405.9816C323.8285,405.40173,323.85168,405.0538,323.6661,404.5203C323.43417,403.82446,323.59653,402.73425,324.2228,400.87866C324.66348,399.6261,324.6403,398.8607,324.1532,398.00244C323.75885,397.3298,323.75885,397.28342,324.38513,396.07727C324.73306,395.38144,325.1042,394.15207,325.24335,393.22424C325.3825,392.31967,325.59128,391.0671,325.70728,390.44086C325.84644,389.79138,326.03198,388.72443,326.12476,388.07495C326.24075,387.4023,326.5191,386.63684,326.77423,386.3585C327.35413,385.70905,327.33093,383.9694,326.75104,382.9488C326.35672,382.32254,326.33353,382.1138,326.58868,381.51068C326.75104,381.1164,326.98297,380.51334,327.14536,380.14215C327.37732,379.53912,327.35413,379.37674,326.98297,378.98245C326.75104,378.70407,326.3799,378.4953,326.17114,378.4953C325.4753,378.4953,325.22015,377.1732,325.80005,376.57013C326.4031,375.99026,327.07578,374.50577,326.93658,374.11148C326.8438,373.90265,326.65826,373.53156,326.47272,373.27643C326.07837,372.69656,326.07837,371.53677,326.4959,370.9569C327.33093,369.72757,328.05,368.1735,327.98038,367.7328C327.934,367.33844,327.70203,367.22247,326.75104,367.1297C325.70728,367.01373,325.59128,366.96735,325.5217,366.38748C325.4753,366.03955,325.6609,365.27408,325.91602,364.67102C326.5423,363.27933,326.5423,361.70206,325.9392,360.93658C325.56808,360.4727,325.4753,359.9856,325.4753,358.73306C325.4753,357.1558,325.4753,357.1326,324.80264,357.01663C324.43152,356.94705,323.92123,356.57593,323.64288,356.20477C323.36456,355.83365,322.94702,355.53214,322.7151,355.53214C322.27438,355.53214,320.6507,357.1558,320.16364,358.06042C319.97964,358.3793,319.60114,358.549,319.27838,358.549C318.99075,358.549,318.74738,358.41418,318.72552,358.13C318.70233,357.92126,318.72552,357.1094,318.74872,356.3208C318.78055,355.11102,318.5939,354.49112,318.21878,354.49112 Z M226.25076,407.7257C226.06657,407.7257,225.84155,407.8642,225.57388,408.13873C225.0404,408.64902,224.5533,409.64642,223.6255,412.0587C223.02693,413.6299,222.65462,414.19052,222.04634,414.19052C221.90033,414.19052,221.74072,414.15823,221.56113,414.09985C221.16681,413.9607,221.09723,413.70554,221.05084,411.36285C220.98126,408.90414,220.95807,408.76498,220.47096,408.6954C220.4254,408.68738,220.38231,408.68304,220.34117,408.68304C220.02623,408.68304,219.825,408.9364,219.49677,409.716C219.21841,410.29587,219.00966,411.2469,219.00966,411.78036C219.00966,412.31384,218.63855,413.8911,218.19783,415.2828C217.75714,416.67453,217.386,418.01987,217.386,418.275C217.386,418.53015,217.17725,419.11002,216.92212,419.55075C216.66695,419.99142,216.11028,421.08163,215.66956,421.9862C215.22885,422.86765,214.6026,423.95782,214.27785,424.39853C213.95313,424.83923,213.67479,425.3263,213.67479,425.4887C213.67479,425.65106,213.39644,426.09177,213.07172,426.48608C212.74696,426.88037,212.2367,427.66904,211.91194,428.2489C211.61041,428.852,210.98415,429.80298,210.54344,430.38287C210.10272,430.96277,209.73161,431.589,209.73163,431.77457C209.73163,431.96014,209.45328,432.47043,209.12856,432.91113C208.4095,433.83893,204.32716,440.58875,203.6545,441.93405C203.39935,442.44434,202.95863,443.16336,202.6571,443.5577C202.37878,443.92883,201.86847,444.76382,201.52054,445.41333C200.63911,447.06018,199.27063,449.2637,198.66754,450.02914C198.36601,450.40027,198.13405,450.84097,198.13405,451.00333C198.13405,451.1889,197.83252,451.83838,197.43819,452.44144C197.06708,453.06772,196.74236,453.80997,196.74236,454.0883C196.74236,454.36664,196.53358,454.99292,196.30164,455.45682C195.79134,456.431,194.72437,459.9103,194.42284,461.58035C194.30687,462.1834,193.95892,463.01846,193.65741,463.43594C193.33266,463.85345,193.00793,464.54932,192.91516,464.99002C192.82237,465.43073,192.28888,466.42813,191.75537,467.23993C191.1987,468.0286,190.6884,468.90997,190.59563,469.18835C190.50285,469.4667,190.08533,470.04657,189.66782,470.48724C189.17348,470.9917,188.69669,471.2592,187.95119,471.2592C186.98265,471.2592,185.56058,470.8077,183.05722,469.8378C181.59592,469.28113,179.71709,468.07498,178.78929,467.12396C178.30222,466.59048,177.2584,465.84824,176.46977,465.45392C175.52718,464.96518,175.11002,464.80484,174.4571,464.80484C174.24243,464.80484,174.00227,464.82217,173.70956,464.85086C172.96732,464.92044,172.17868,465.12918,171.96994,465.33795C171.73799,465.5235,171.01894,465.70905,170.29988,465.75543C169.11691,465.82504,169.02414,465.87143,168.95456,466.40494C168.90817,466.86884,169.09372,467.17035,169.83597,467.75024C171.32047,468.97955,175.17087,474.2913,175.17087,475.14948C175.17087,475.40463,175.26364,475.68298,175.37961,475.79895C175.61156,476.0309,176.56258,478.74475,176.56258,479.16226C176.56258,479.27823,177.02646,480.3684,177.60635,481.55133C178.18623,482.7575,178.65013,483.87085,178.65013,484.05646C178.65012,485.2857,174.01108,490.2263,170.48543,492.75455C169.00093,493.82153,167.58604,494.7725,167.3541,494.88852C166.70462,495.14365,164.77943,496.58176,163.68927,497.60233C163.15578,498.11264,162.52951,498.6925,162.27437,498.90128C161.69449,499.41153,160.11722,501.22076,158.91107,502.82123C158.37758,503.51712,157.70491,504.32892,157.42659,504.63046C157.14824,504.90878,156.61476,505.58145,156.24362,506.13812C155.87251,506.67166,154.66635,508.04013,153.553,509.1999C151.53502,511.31067,149.6562,513.56055,149.6562,513.8853C149.6562,514.0013,149.42426,514.32605,149.12273,514.65076C148.42688,515.4162,146.80322,517.2486,145.36511,518.9418C144.73883,519.6841,143.9734,520.49585,143.69507,520.7743C143.41672,521.0526,142.88324,521.702,142.5353,522.2587C142.16418,522.79224,141.39874,523.7664,140.84206,524.4391C140.26218,525.0885,139.33437,526.1555,138.7777,526.805C135.66954,530.40027,133.0253,532.7661,130.1027,534.50574C128.711,535.3408,126.924965,536.8485,126.924965,537.1732C126.924965,537.38776,127.16137,537.4924,127.556564,537.4924C127.9731,537.4924,128.56604,537.37616,129.24449,537.15C129.88942,536.93506,130.5179,536.78595,130.78304,536.78595C130.83258,536.78595,130.86943,536.7912,130.89134,536.8021C131.00732,536.8949,131.1001,537.266,131.1001,537.6603C131.1001,538.2402,130.79857,538.6577,129.47644,539.9334C128.27031,541.0932,127.852776,541.6499,127.852776,542.0906C127.852776,542.48376,127.911354,542.6752,128.21121,542.6752C128.47745,542.6752,128.93388,542.5243,129.70839,542.22974C130.73183,541.83777,131.24931,541.6298,131.50555,541.6298C131.7952,541.6298,131.75099,541.89557,131.72636,542.46173C131.70317,542.972,131.81915,543.5287,131.95831,543.66785C132.02672,543.73627,132.12642,543.7689,132.25264,543.7689C132.93964,543.7689,134.4123,542.80194,135.90149,541.3715C137.24681,540.0958,137.50195,539.9334,138.33698,539.9334L139.28798,539.9334L139.1488,540.76843C139.07922,541.23236,138.84727,541.78906,138.63852,542.021C138.31023,542.393,138.14716,543.6118,138.42206,543.6118C138.4385,543.6118,138.45651,543.6074,138.47615,543.59827C139.03284,543.31995,139.89105,542.9488,140.54053,542.71686C140.95804,542.5545,141.35236,542.2529,141.42194,542.021C141.61101,541.4538,143.09383,540.69635,143.92326,540.69635C144.00964,540.69635,144.08894,540.7045,144.15895,540.72205C144.5069,540.7916,144.78523,541.0004,144.78523,541.1628C144.78523,541.32513,144.9244,541.6499,145.08676,541.88184C145.21997,542.05945,145.30536,542.15204,145.46751,542.15204C145.64418,542.15204,145.912,542.04205,146.43208,541.81226C147.03516,541.53394,147.89337,540.8845,148.38048,540.2814C149.1923,539.33044,149.37787,539.2376,150.30568,539.2376C150.86237,539.2376,151.76697,539.35364,152.34685,539.4928C152.73218,539.5942,152.98895,539.64685,153.185,539.64685C153.4374,539.64685,153.58913,539.5596,153.78494,539.37683C154.01689,539.1912,154.55037,538.88965,154.9447,538.7505C155.36221,538.6113,155.80292,538.2866,155.9421,538.0547C156.12764,537.68353,156.42918,537.61395,157.82089,537.61395C159.35178,537.61395,159.51414,537.56757,160.41875,536.77893C160.92905,536.33826,161.48573,535.8743,161.64809,535.75836C161.78726,535.64233,162.01921,535.364,162.13521,535.1321C162.32076,534.8074,162.71506,534.7378,164.01399,534.7146L165.66086,534.6914L166.867,533.4852C167.51645,532.81256,168.2355,532.27905,168.42107,532.27905C168.62984,532.25586,169.11691,532.0703,169.53444,531.8616C170.57822,531.3049,174.45181,527.872,174.61417,527.3617C174.68376,527.12976,174.93892,526.9442,175.19406,526.9442C175.44919,526.9442,175.75075,526.689,175.88991,526.3875C176.16824,525.8076,176.58577,525.66846,178.99806,525.34375C179.76349,525.251,180.71451,524.9958,181.08562,524.78705C181.47995,524.5783,181.96703,524.3927,182.17578,524.3927C182.38455,524.3927,182.6397,524.27673,182.70927,524.16077C182.80205,524.0216,183.24277,523.7201,183.70665,523.4417C184.17058,523.1866,184.9824,522.6763,185.4927,522.3052C186.00298,521.934,186.838,521.4006,187.34831,521.1454C187.85861,520.89026,189.01836,520.05524,189.89977,519.2666C190.80437,518.50116,191.80176,517.7125,192.1497,517.527C192.47443,517.36456,192.98473,516.8543,193.26306,516.3904C193.54141,515.9497,194.37643,514.97546,195.14188,514.2565C195.90729,513.53735,196.71913,512.5168,196.99748,511.9833C197.25262,511.47305,197.87889,510.5916,198.3892,510.05814C198.87628,509.50143,199.45616,508.7592,199.64172,508.3881C199.82727,508.01694,200.2216,507.46027,200.52313,507.13553C200.82469,506.834,201.24219,505.99896,201.45094,505.30313C201.6829,504.60727,202.00763,503.981,202.16998,503.9114C202.19301,503.90155,202.22305,503.8968,202.25896,503.8968C202.4762,503.8968,202.90846,504.07016,203.30656,504.32892C203.74725,504.63046,204.37354,504.9552,204.67506,505.02478C205.32452,505.18716,206.69305,506.50925,207.34251,507.59943C207.57446,507.99374,207.96877,508.62003,208.20073,508.99115C210.19551,511.9833,212.0511,515.04504,212.0511,515.3698C212.0511,515.6713,212.93254,517.179,213.37325,517.61975C213.5356,517.7821,213.67479,518.1764,213.67479,518.4548C213.67479,518.7563,213.81396,519.12744,213.99951,519.2666C214.18507,519.42896,214.417,519.8697,214.50981,520.264C214.5794,520.6815,214.95052,521.49335,215.32164,522.0732C215.69276,522.6763,215.99428,523.233,215.99428,523.32574C215.99428,523.60406,217.0149,524.9494,217.80353,525.69165C218.42722,526.29974,219.14523,526.6144,219.88715,526.6144C220.24889,526.6144,220.61632,526.53955,220.98126,526.3875C221.86267,526.01636,225.0404,523.62726,225.34193,523.0938C225.43471,522.9082,225.66666,522.76904,225.85223,522.76904C226.0378,522.76904,227.24393,522.2356,228.51967,521.5629C230.51443,520.56555,231.02473,520.1712,231.83658,519.10425C232.37007,518.4084,233.1819,517.411,233.62259,516.9007L234.43442,515.9729L234.4808,513.3982L234.5504,510.84674L235.29263,510.24368C235.71016,509.91898,236.19725,509.50143,236.35963,509.31586C236.52199,509.1303,237.00908,508.55045,237.4498,508.04013C238.09926,507.29788,238.26163,506.9268,238.26163,506.11493C238.26163,505.58145,238.07607,504.8624,237.8673,504.53766C237.49619,503.9346,235.19986,502.1254,234.85194,502.1254C234.75917,502.1254,234.15608,501.75427,233.52982,501.31354C232.90353,500.87283,232.20769,500.50174,232.02213,500.50174C231.81337,500.50174,231.39586,500.36258,231.07114,500.2002C230.74641,500.0378,229.67941,499.6203,228.68204,499.24918C227.70784,498.90128,226.82643,498.50696,226.75685,498.39096C226.68726,498.275,226.33932,498.18222,225.99141,498.18222C225.62027,498.18222,225.20277,498.04303,225.0636,497.88065C224.92441,497.6951,224.36775,497.3704,223.83424,497.16162C223.27756,496.9297,222.41934,496.55856,221.90906,496.32657C219.82149,495.35242,217.66434,494.63333,216.57417,494.51736C215.53038,494.4246,215.34483,494.30862,214.57939,493.33444C214.11548,492.75455,213.65157,492.0123,213.55878,491.68756C213.466,491.36282,213.23405,490.89893,213.0717,490.6438C212.88614,490.38864,212.74695,489.9943,212.74695,489.73917C212.74695,489.46085,213.9995,488.04593,215.8783,486.1671C217.59473,484.45068,219.00967,482.94305,219.00967,482.7807C219.00967,482.64154,219.54317,481.94565,220.19264,481.24982C220.8189,480.55396,221.60753,479.4406,221.93227,478.81433C222.2338,478.16486,222.99924,477.1211,223.62552,476.47162C224.50693,475.56702,224.78526,475.0799,224.92442,474.26807C225.01723,473.71136,225.34195,472.69083,225.64348,471.99493C225.94502,471.3223,226.20016,470.48724,226.20016,470.16254C226.20016,469.55948,227.15117,466.38174,227.73105,465.0596C228.26454,463.80707,228.14854,461.48758,227.4759,460.14224C227.15117,459.51596,226.89603,458.68094,226.89603,458.30984C226.89603,458.12946,226.86316,457.9272,226.80807,457.74826L226.81035,457.74826Q227.66324,457.83102,227.81316,457.83102Q227.81618,457.83102,227.81892,457.831L228.32481,457.84793Q228.46329,457.84586,228.51389,457.83322Q228.69963,457.7948,228.7387,457.66815Q228.79465,457.4731,228.64732,457.2578Q227.91689,456.15265,227.39893,455.5164Q227.3065,455.40457,227.21913,455.29868L227.21686,455.29868C227.22589,455.2972,227.23492,455.2958,227.24394,455.29446C227.73105,455.22488,228.19496,454.99292,228.28773,454.80734C228.38052,454.6218,228.63565,454.13467,228.8444,453.7172C229.05318,453.32288,229.21555,452.7198,229.21555,452.37186C229.21555,452.02396,229.51707,451.1889,229.9114,450.53946C230.37529,449.70444,230.63045,448.8926,230.70004,447.98795C230.76962,447.26892,231.04796,446.08597,231.32628,445.39014L231.85979,444.11438L231.30309,443.0474C230.74643,442.02686,230.74643,441.98044,231.14073,440.89026C231.34947,440.2872,231.53506,439.66092,231.53506,439.49857C231.53506,439.33618,231.69742,438.8723,231.90617,438.43158C232.2541,437.71252,232.2541,437.59656,231.90617,437.06305C231.39587,436.2976,231.39587,434.0013,231.90617,433.4446C232.11491,433.21268,232.3237,432.6328,232.39328,432.1225C232.50923,431.31067,232.43965,431.12512,231.79018,430.54523C231.00154,429.84937,230.49124,428.41125,230.74641,427.59946C230.83919,427.3211,231.2103,426.71802,231.55824,426.25412C232.30049,425.3031,232.41646,424.63046,231.85977,424.16656C231.67421,424.0042,231.55824,423.67944,231.60463,423.4707C231.67421,423.23877,231.46545,422.7053,231.16391,422.31094C230.53763,421.42953,230.49124,421.10483,230.88557,418.85486C231.16391,417.2544,231.16391,417.2312,230.53763,416.58176C230.05055,416.07147,229.91139,415.70032,229.91139,414.84213C229.91139,414.2622,230.02736,413.4968,230.18971,413.1721C230.37527,412.73132,230.37527,412.453,230.16652,411.9891C230.00047,411.60718,229.88194,411.463,229.58969,411.463C229.47372,411.463,229.33043,411.4857,229.14595,411.52524C228.72842,411.618,228.05576,411.75717,227.66145,411.82675L226.89601,411.9659L226.89601,410.11032C226.89601,408.5098,226.68903,407.7257,226.25076,407.7257 Z" fill="inherit"/></g></g></svg>