<?xml version="1.0" encoding="UTF-8"?><!-- Generator: Adobe Illustrator 23.0.3, SVG Export Plug-In . SVG Version: 6.00 Build 0)  --><svg xmlns="http://www.w3.org/2000/svg" enable-background="new 0 0 216.28 214.58" id="Layer_1" version="1.1" viewBox="0 0 216.28 214.58" x="0px" xml:space="preserve" y="0px">
<g>
	<g id="change1_1"><path d="m16.97 137.19c8.4-15.06 19.9-35.68 40.73-42.47 42.62-13.9 104.82 36.4 99.1 70.73-5.25 31.45-66.42 42.95-77.61 45.06-15.55 2.92-60.9 11.45-75.06-10.7-11.8-18.45 4.62-47.9 12.84-62.62z" fill="#F38E64"/></g>
	<g id="change2_1"><path d="m59.93 44.84c8.4-15.06 19.9-35.68 40.73-42.47 42.62-13.9 104.82 36.4 99.1 70.73-5.25 31.45-66.42 42.95-77.61 45.06-15.55 2.92-38.23-5.48-52.38-27.63-11.79-18.45-18.05-30.96-9.84-45.69z" fill="#E5AEAC"/></g>
	<g id="change3_1"><path d="m153.57 89.95c1.82-9.22 10.85-19.46 22.22-23.17 23.24-7.58 43.3 13.44 40.18 32.16-2.86 17.16-22.36 29.85-28.46 30.99-8.48 1.6-20.85-2.99-28.57-15.07-6.44-10.05-7.25-15.4-5.37-24.91z" fill="#B7DBE7"/></g>
</g>
</svg>