<?xml version="1.0" encoding="UTF-8"?><!-- Generator: Adobe Illustrator 23.0.3, SVG Export Plug-In . SVG Version: 6.00 Build 0)  --><svg xmlns="http://www.w3.org/2000/svg" enable-background="new 0 0 180.11 135.39" id="Layer_1" version="1.1" viewBox="0 0 180.11 135.39" x="0px" xml:space="preserve" y="0px">
<g>
	<g id="change1_1"><path d="m3.73 48.04c8.4-15.06 19.9-35.68 40.73-42.47 42.62-13.9 104.82 36.4 99.1 70.73-5.25 31.45-66.42 42.95-77.61 45.06-15.55 2.92-38.23-5.48-52.38-27.63-11.79-18.45-18.05-30.97-9.84-45.69z" fill="#3FA690"/></g>
	<g id="change2_1"><path d="m98.94 0.92c17.19-1.34 40.73-3.18 57.92 10.41 35.16 27.8 27.7 107.45-4.06 121.68-29.1 13.04-72.54-31.54-80.49-39.7-11.04-11.33-16.59-34.87-5.98-58.91 8.84-20.03 15.8-32.17 32.61-33.48z" fill="#024176"/></g>
</g>
</svg>