<?xml version="1.0" encoding="UTF-8"?><!-- Generator: Adobe Illustrator 23.0.3, SVG Export Plug-In . SVG Version: 6.00 Build 0)  --><svg xmlns="http://www.w3.org/2000/svg" enable-background="new 0 0 166.8 122.23" id="Layer_1" version="1.1" viewBox="0 0 166.8 122.23" x="0px" xml:space="preserve" y="0px">
<g>
	<g id="change1_1"><path d="m16.97 44.84c8.4-15.06 19.9-35.68 40.73-42.47 42.62-13.9 104.82 36.4 99.1 70.73-5.25 31.45-66.42 42.95-77.61 45.06-15.55 2.92-60.9 11.45-75.06-10.7-11.8-18.44 4.62-47.89 12.84-62.62z" fill="#E74E34"/></g>
	<g id="change2_1"><path d="m52.34 42.91c6.85-12.29 16.24-29.13 33.25-34.68 34.79-11.35 85.58 29.72 80.9 57.75-4.28 25.68-54.23 35.07-63.36 36.79-12.7 2.39-49.72 9.35-61.28-8.73-9.62-15.06 3.79-39.1 10.49-51.13z" fill="#F38E64"/></g>
	<g id="change3_1"><path d="m51.52 35.51c8.11-7.23 19.22-17.14 33.04-16.89 28.26 0.52 54.92 43.34 44.42 62.61-9.62 17.65-48.44 11.87-55.54 10.81-9.87-1.47-38.65-5.76-42.5-21.88-3.22-13.43 12.65-27.58 20.58-34.65z" fill="#E5AEAC"/></g>
</g>
</svg>