<?xml version="1.0" encoding="UTF-8"?><svg xmlns="http://www.w3.org/2000/svg" xmlns:xlink="http://www.w3.org/1999/xlink" height="215.5" preserveAspectRatio="xMidYMid meet" version="1.0" viewBox="84.7 104.5 255.8 215.5" width="255.8" zoomAndPan="magnify"><g fill="#ec6408" id="change1_1"><path d="M300.87,320.04H125.61c-22.58,0-40.88-18.3-40.88-40.88v-0.8l251.57-20.5c2.25-0.18,4.18,1.59,4.18,3.85 v18.72C340.48,302.31,322.74,320.04,300.87,320.04z" fill="inherit"/><path d="M210.07,255.89V117.13c0-1.35-0.49-2.64-1.39-3.65l-6.88-7.73c-1.08-1.22-3.09-0.45-3.09,1.18v150.09 C202.51,256.73,206.29,256.33,210.07,255.89z" fill="inherit"/><path d="M219.33,119.94c14.78,8.6,81.26,50.54,107.57,122.74l-106.09,11.68c0,0,10.12-50.5-3.8-132.78 C216.78,120.26,218.17,119.27,219.33,119.94z" fill="inherit"/><path d="M191.38,124.1c-3.62,21.79-12.99,86.75,1.01,132.93c0,0-27.79,0.82-85.25,9.02c0,0,12.17-65.1,81.29-143.34 C189.56,121.44,191.66,122.42,191.38,124.1z" fill="inherit"/></g></svg>