<?xml version="1.0" encoding="UTF-8"?><svg xmlns="http://www.w3.org/2000/svg" xmlns:xlink="http://www.w3.org/1999/xlink" height="155.0" preserveAspectRatio="xMidYMid meet" version="1.0" viewBox="45.8 113.1 314.6 155.0" width="314.6" zoomAndPan="magnify"><g><g id="change1_1"><path d="M 358.621094 224.910156 C 358.621094 257.554688 287.089844 262.542969 201.210938 262.542969 C 115.347656 262.542969 47.65625 268.035156 47.65625 224.910156 C 47.65625 193.785156 93.839844 132.804688 118.6875 141.820312 C 129.300781 137.019531 140.855469 132.980469 153.039062 130.011719 C 163.027344 116.753906 193.019531 113.074219 200.648438 123.953125 C 201.46875 123.886719 202.351562 123.886719 203.171875 123.886719 C 212.394531 123.886719 221.421875 124.519531 230.132812 125.65625 C 238.535156 113.597656 261.160156 122.277344 263.339844 132.664062 C 272.125 135.382812 280.519531 138.535156 288.347656 142.195312 C 298.519531 133.855469 318.511719 146.484375 315.753906 157.984375 C 322.445312 162.71875 328.441406 167.828125 333.6875 173.199219 C 351.664062 172.527344 358.621094 207.234375 358.621094 224.910156" fill="#f57635"/></g><g id="change2_1"><path d="M 358.621094 224.910156 L 356.78125 224.910156 C 356.777344 228.65625 355.777344 231.914062 353.839844 234.898438 C 352.140625 237.507812 349.699219 239.902344 346.527344 242.085938 C 340.980469 245.90625 333.214844 249.050781 323.664062 251.539062 C 309.34375 255.28125 291.03125 257.585938 270.160156 258.9375 C 249.285156 260.292969 225.847656 260.703125 201.210938 260.703125 C 183.769531 260.703125 167.085938 260.933594 151.585938 260.929688 C 136.371094 260.933594 122.296875 260.714844 109.769531 259.855469 C 90.976562 258.574219 75.667969 255.804688 65.328125 250.367188 C 60.152344 247.648438 56.226562 244.308594 53.574219 240.175781 C 50.925781 236.039062 49.5 231.074219 49.496094 224.910156 C 49.484375 218.074219 51.902344 209.378906 56.003906 200.300781 C 62.144531 186.671875 72.023438 172.140625 82.664062 161.121094 C 87.980469 155.609375 93.492188 150.972656 98.769531 147.753906 C 104.046875 144.527344 109.078125 142.75 113.371094 142.757812 C 115.035156 142.757812 116.59375 143.015625 118.0625 143.550781 L 118.765625 143.804688 L 119.445312 143.496094 C 129.953125 138.742188 141.402344 134.738281 153.476562 131.800781 L 154.113281 131.644531 L 154.507812 131.117188 C 157.199219 127.53125 161.703125 124.550781 166.921875 122.527344 C 172.132812 120.492188 178.035156 119.402344 183.40625 119.40625 C 187 119.402344 190.355469 119.894531 193.089844 120.859375 C 195.832031 121.820312 197.90625 123.238281 199.144531 125.011719 L 199.746094 125.871094 L 200.800781 125.785156 C 201.511719 125.726562 202.351562 125.726562 203.171875 125.726562 C 212.3125 125.726562 221.257812 126.351562 229.894531 127.480469 L 231.003906 127.625 L 231.640625 126.707031 C 232.902344 124.90625 234.484375 123.667969 236.328125 122.84375 C 238.171875 122.023438 240.285156 121.636719 242.507812 121.636719 C 246.714844 121.628906 251.296875 123.050781 254.890625 125.25 C 256.6875 126.347656 258.234375 127.632812 259.382812 128.976562 C 260.53125 130.324219 261.265625 131.722656 261.539062 133.039062 L 261.765625 134.101562 L 262.796875 134.417969 C 271.511719 137.117188 279.832031 140.242188 287.566406 143.863281 L 288.617188 144.351562 L 289.511719 143.617188 C 291.4375 142.042969 293.773438 141.34375 296.363281 141.339844 C 300.425781 141.324219 305.019531 143.179688 308.480469 145.992188 C 310.214844 147.394531 311.660156 149.019531 312.652344 150.707031 C 313.644531 152.398438 314.175781 154.128906 314.175781 155.785156 C 314.175781 156.378906 314.105469 156.96875 313.96875 157.554688 L 313.675781 158.765625 L 314.691406 159.484375 C 321.296875 164.15625 327.210938 169.199219 332.371094 174.484375 L 332.941406 175.066406 L 333.753906 175.035156 C 333.902344 175.03125 334.050781 175.027344 334.199219 175.027344 C 336.097656 175.03125 337.820312 175.480469 339.453125 176.324219 C 342.308594 177.796875 344.898438 180.554688 347.117188 184.207031 C 350.449219 189.667969 352.902344 197.054688 354.480469 204.464844 C 356.0625 211.871094 356.78125 219.320312 356.78125 224.910156 L 360.460938 224.910156 C 360.453125 215.929688 358.738281 202.882812 354.738281 191.855469 C 352.730469 186.34375 350.15625 181.332031 346.808594 177.582031 C 345.136719 175.710938 343.257812 174.15625 341.148438 173.0625 C 339.039062 171.96875 336.699219 171.347656 334.199219 171.351562 C 334.007812 171.351562 333.8125 171.355469 333.617188 171.363281 L 333.6875 173.199219 L 335 171.914062 C 329.675781 166.460938 323.59375 161.277344 316.816406 156.480469 L 315.753906 157.984375 L 317.542969 158.410156 C 317.753906 157.539062 317.851562 156.65625 317.851562 155.785156 C 317.851562 153.339844 317.074219 150.980469 315.820312 148.84375 C 313.933594 145.644531 310.972656 142.894531 307.546875 140.898438 C 304.121094 138.910156 300.21875 137.664062 296.363281 137.660156 C 293.105469 137.65625 289.847656 138.582031 287.179688 140.773438 L 288.347656 142.195312 L 289.125 140.53125 C 281.210938 136.828125 272.734375 133.644531 263.886719 130.90625 L 263.339844 132.664062 L 265.140625 132.285156 C 264.699219 130.207031 263.628906 128.292969 262.179688 126.59375 C 260 124.039062 256.949219 121.917969 253.519531 120.394531 C 250.089844 118.878906 246.269531 117.960938 242.507812 117.960938 C 239.859375 117.960938 237.238281 118.417969 234.835938 119.484375 C 232.4375 120.546875 230.269531 122.238281 228.625 124.605469 L 230.132812 125.65625 L 230.371094 123.832031 C 221.585938 122.6875 212.480469 122.046875 203.171875 122.046875 C 202.347656 122.050781 201.421875 122.046875 200.496094 122.121094 L 200.648438 123.953125 L 202.152344 122.898438 C 200.328125 120.304688 197.546875 118.527344 194.308594 117.390625 C 191.066406 116.25 187.332031 115.730469 183.40625 115.730469 C 177.546875 115.730469 171.253906 116.894531 165.585938 119.097656 C 159.925781 121.3125 154.859375 124.554688 151.570312 128.90625 L 153.039062 130.011719 L 152.605469 128.226562 C 140.304688 131.21875 128.648438 135.296875 117.929688 140.144531 L 118.6875 141.820312 L 119.316406 140.09375 C 117.417969 139.402344 115.417969 139.082031 113.371094 139.082031 C 109.84375 139.082031 106.179688 140.023438 102.464844 141.65625 C 95.964844 144.519531 89.257812 149.523438 82.777344 155.800781 C 73.0625 165.21875 63.878906 177.523438 57.078125 189.9375 C 53.675781 196.144531 50.875 202.382812 48.910156 208.3125 C 46.949219 214.246094 45.820312 219.871094 45.816406 224.910156 C 45.816406 229.398438 46.519531 233.445312 47.90625 237.0625 C 50.324219 243.40625 54.835938 248.351562 60.917969 252.085938 C 70.050781 257.695312 82.703125 260.761719 98.078125 262.503906 C 113.453125 264.234375 131.570312 264.609375 151.585938 264.609375 C 167.121094 264.609375 183.800781 264.382812 201.210938 264.382812 C 244.191406 264.378906 283.601562 263.144531 312.457031 257.777344 C 326.890625 255.082031 338.695312 251.378906 347.078125 246.121094 C 351.269531 243.488281 354.613281 240.445312 356.921875 236.90625 C 359.230469 233.367188 360.464844 229.328125 360.460938 224.910156 L 358.621094 224.910156" fill="#0f0a0a"/></g><g id="change3_1"><path d="M 333.6875 173.199219 C 315.433594 191.761719 294.09375 209.757812 289.992188 206.289062 C 285.949219 202.8125 300.347656 178.882812 315.753906 157.984375 C 322.445312 162.71875 328.441406 167.828125 333.6875 173.199219" fill="#f78e34"/></g><g id="change2_2"><path d="M 333.6875 173.199219 L 332.375 171.910156 C 324.058594 180.367188 315.089844 188.714844 307.464844 194.90625 C 303.65625 198.003906 300.179688 200.558594 297.332031 202.308594 C 295.910156 203.179688 294.648438 203.851562 293.613281 204.28125 C 292.582031 204.71875 291.769531 204.890625 291.382812 204.882812 C 291.242188 204.882812 291.164062 204.863281 291.140625 204.855469 L 291.140625 204.859375 L 291.035156 205.058594 L 291.179688 204.886719 L 291.140625 204.859375 L 291.035156 205.058594 L 291.179688 204.886719 L 291.191406 204.894531 L 291.050781 205.058594 L 291.234375 204.941406 L 291.191406 204.894531 L 291.050781 205.058594 L 291.234375 204.941406 L 291.222656 204.914062 C 291.195312 204.855469 291.140625 204.640625 291.140625 204.289062 C 291.136719 203.695312 291.292969 202.742188 291.644531 201.574219 C 292.25 199.519531 293.414062 196.792969 295.003906 193.660156 C 299.769531 184.246094 308.339844 171.132812 317.234375 159.074219 L 315.753906 157.984375 L 314.691406 159.484375 C 321.296875 164.15625 327.210938 169.199219 332.371094 174.484375 L 333.6875 173.199219 L 332.375 171.910156 L 333.6875 173.199219 L 335 171.914062 C 329.675781 166.460938 323.59375 161.277344 316.816406 156.480469 L 315.34375 155.441406 L 314.273438 156.890625 C 307.429688 166.175781 300.789062 176.042969 295.835938 184.515625 C 293.355469 188.753906 291.296875 192.640625 289.835938 195.964844 C 289.105469 197.628906 288.527344 199.152344 288.117188 200.527344 C 287.710938 201.910156 287.46875 203.136719 287.464844 204.289062 C 287.464844 204.894531 287.53125 205.488281 287.730469 206.074219 C 287.925781 206.65625 288.277344 207.242188 288.792969 207.683594 L 288.808594 207.695312 L 288.804688 207.691406 C 289.179688 208.011719 289.617188 208.238281 290.058594 208.371094 C 290.503906 208.507812 290.945312 208.558594 291.382812 208.558594 C 292.570312 208.550781 293.734375 208.207031 295.027344 207.675781 C 297.277344 206.730469 299.910156 205.128906 302.90625 203.015625 C 311.859375 196.683594 323.96875 185.699219 334.996094 174.488281 L 336.261719 173.203125 L 335 171.914062 L 333.6875 173.199219" fill="#0f0a0a"/></g><g id="change3_2"><path d="M 153.039062 130.011719 C 138.261719 155.144531 110.921875 191.257812 104.984375 187.84375 C 100.757812 185.386719 108.648438 163.414062 118.6875 141.820312 C 129.300781 137.019531 140.855469 132.980469 153.039062 130.011719" fill="#f78e34"/></g><g id="change2_3"><path d="M 153.039062 130.011719 L 151.453125 129.082031 C 144.449219 141 134.546875 155.472656 125.515625 166.90625 C 121.003906 172.621094 116.703125 177.582031 113.132812 181.054688 C 111.351562 182.792969 109.746094 184.15625 108.445312 185.039062 C 107.796875 185.480469 107.226562 185.796875 106.777344 185.988281 C 106.328125 186.183594 106.011719 186.234375 105.902344 186.230469 L 105.847656 186.226562 L 105.800781 186.421875 L 105.902344 186.246094 L 105.847656 186.226562 L 105.800781 186.421875 L 105.902344 186.246094 L 105.910156 186.253906 L 105.789062 186.457031 L 105.949219 186.28125 L 105.910156 186.253906 L 105.789062 186.457031 L 105.949219 186.28125 L 105.882812 186.355469 L 105.957031 186.289062 L 105.949219 186.28125 L 105.882812 186.355469 L 105.957031 186.289062 L 105.90625 186.203125 C 105.800781 186.007812 105.652344 185.394531 105.65625 184.488281 C 105.652344 182.910156 106.039062 180.507812 106.78125 177.617188 C 108.992188 168.898438 114.277344 155.65625 120.355469 142.59375 L 118.6875 141.820312 L 119.445312 143.496094 C 129.953125 138.742188 141.402344 134.738281 153.476562 131.800781 L 153.039062 130.011719 L 151.453125 129.082031 L 153.039062 130.011719 L 152.605469 128.226562 C 140.304688 131.21875 128.648438 135.296875 117.929688 140.144531 L 117.308594 140.425781 L 117.019531 141.046875 C 112.933594 149.839844 109.195312 158.699219 106.46875 166.328125 C 105.105469 170.140625 103.996094 173.648438 103.214844 176.710938 C 102.441406 179.773438 101.984375 182.367188 101.980469 184.488281 C 101.984375 185.484375 102.078125 186.382812 102.363281 187.230469 C 102.503906 187.652344 102.699219 188.066406 102.980469 188.449219 C 103.257812 188.832031 103.625 189.179688 104.0625 189.433594 L 104.074219 189.441406 L 104.070312 189.4375 C 104.644531 189.769531 105.296875 189.910156 105.902344 189.90625 C 106.71875 189.902344 107.46875 189.6875 108.21875 189.371094 C 109.621094 188.769531 111.0625 187.769531 112.667969 186.441406 C 115.464844 184.113281 118.710938 180.742188 122.242188 176.660156 C 132.820312 164.429688 145.867188 145.828125 154.625 130.945312 L 156.828125 127.199219 L 152.605469 128.226562 L 153.039062 130.011719" fill="#0f0a0a"/></g><g id="change3_3"><path d="M 230.132812 125.65625 C 227.105469 130.390625 223.695312 135.382812 219.84375 140.371094 C 202.226562 163.476562 169.390625 197.191406 163.835938 192.960938 C 158.34375 188.730469 182.148438 148.199219 199.765625 125.085938 C 200.078125 124.710938 200.332031 124.328125 200.648438 123.953125 C 201.46875 123.886719 202.351562 123.886719 203.171875 123.886719 C 212.394531 123.886719 221.421875 124.519531 230.132812 125.65625" fill="#f78e34"/></g><g id="change2_4"><path d="M 230.132812 125.65625 L 228.585938 124.664062 C 225.578125 129.363281 222.199219 134.3125 218.386719 139.246094 L 218.382812 139.253906 C 210.148438 150.050781 198.503906 163.253906 187.964844 173.703125 C 182.695312 178.929688 177.695312 183.46875 173.570312 186.65625 C 171.511719 188.25 169.671875 189.507812 168.171875 190.328125 C 167.421875 190.742188 166.757812 191.046875 166.222656 191.234375 C 165.683594 191.421875 165.273438 191.488281 165.066406 191.484375 C 164.960938 191.484375 164.910156 191.472656 164.898438 191.46875 L 164.824219 191.660156 L 164.949219 191.5 L 164.898438 191.46875 L 164.824219 191.660156 L 164.949219 191.5 L 164.957031 191.503906 L 164.835938 191.660156 L 165.003906 191.550781 L 164.957031 191.503906 L 164.835938 191.660156 L 165.003906 191.550781 C 165 191.550781 164.964844 191.496094 164.933594 191.347656 C 164.898438 191.199219 164.867188 190.964844 164.867188 190.664062 C 164.863281 189.753906 165.140625 188.253906 165.714844 186.417969 C 166.714844 183.191406 168.578125 178.894531 171.019531 174.039062 C 178.355469 159.449219 190.902344 139.742188 201.226562 126.199219 L 199.765625 125.085938 L 201.175781 126.265625 C 201.570312 125.785156 201.820312 125.410156 202.054688 125.140625 L 200.648438 123.953125 L 200.800781 125.785156 C 201.511719 125.726562 202.351562 125.726562 203.171875 125.726562 C 212.3125 125.726562 221.257812 126.351562 229.894531 127.480469 L 230.132812 125.65625 L 228.585938 124.664062 L 230.132812 125.65625 L 230.371094 123.832031 C 221.585938 122.6875 212.480469 122.046875 203.171875 122.046875 C 202.347656 122.050781 201.421875 122.046875 200.496094 122.121094 L 199.734375 122.183594 L 199.242188 122.769531 C 198.84375 123.25 198.589844 123.632812 198.355469 123.90625 L 198.328125 123.9375 L 198.304688 123.96875 C 190.3125 134.457031 181.101562 148.429688 173.855469 161.070312 C 170.234375 167.390625 167.101562 173.371094 164.859375 178.445312 C 163.734375 180.984375 162.835938 183.292969 162.203125 185.328125 C 161.574219 187.367188 161.199219 189.113281 161.191406 190.664062 C 161.191406 191.355469 161.265625 192.015625 161.488281 192.664062 C 161.707031 193.304688 162.105469 193.953125 162.710938 194.417969 L 162.722656 194.425781 C 163.070312 194.691406 163.46875 194.882812 163.867188 195 C 164.269531 195.117188 164.671875 195.164062 165.066406 195.164062 C 165.867188 195.160156 166.636719 194.980469 167.4375 194.703125 C 168.929688 194.179688 170.546875 193.277344 172.363281 192.070312 C 175.535156 189.953125 179.285156 186.871094 183.382812 183.144531 C 195.660156 171.96875 211.007812 154.984375 221.304688 141.484375 L 221.296875 141.492188 C 225.191406 136.449219 228.632812 131.414062 231.683594 126.648438 L 233.242188 124.207031 L 230.371094 123.832031 L 230.132812 125.65625" fill="#0f0a0a"/></g><g id="change3_4"><path d="M 288.347656 142.195312 C 287.84375 142.769531 287.34375 143.398438 286.835938 143.96875 C 267.765625 165.871094 232.910156 197.441406 227.605469 192.898438 C 222.746094 188.605469 244.90625 155.015625 263.339844 132.664062 C 272.125 135.382812 280.519531 138.535156 288.347656 142.195312" fill="#f78e34"/></g><g id="change2_5"><path d="M 288.347656 142.195312 L 286.96875 140.976562 C 286.417969 141.601562 285.921875 142.234375 285.464844 142.742188 L 285.457031 142.75 L 285.449219 142.761719 C 276.609375 152.914062 264.289062 165.226562 253.183594 174.945312 C 247.632812 179.808594 242.378906 184.023438 238.050781 186.988281 C 235.890625 188.46875 233.960938 189.636719 232.378906 190.40625 C 231.589844 190.792969 230.890625 191.074219 230.3125 191.257812 C 229.734375 191.4375 229.28125 191.503906 229.019531 191.503906 C 228.871094 191.503906 228.789062 191.484375 228.765625 191.476562 L 228.753906 191.472656 L 228.6875 191.636719 L 228.800781 191.503906 L 228.753906 191.472656 L 228.6875 191.636719 L 228.800781 191.503906 L 227.605469 192.898438 L 228.824219 191.523438 L 228.703125 191.65625 L 228.855469 191.558594 L 228.824219 191.523438 L 228.703125 191.65625 L 228.855469 191.558594 L 228.84375 191.53125 C 228.816406 191.46875 228.761719 191.257812 228.765625 190.914062 C 228.757812 190.1875 229.003906 188.925781 229.546875 187.371094 C 230.480469 184.636719 232.25 180.964844 234.597656 176.785156 C 241.644531 164.226562 253.882812 147.019531 264.757812 133.832031 L 263.339844 132.664062 L 262.796875 134.417969 C 271.511719 137.117188 279.832031 140.242188 287.566406 143.863281 L 288.347656 142.195312 L 286.96875 140.976562 L 288.347656 142.195312 L 289.125 140.53125 C 281.210938 136.828125 272.734375 133.644531 263.886719 130.90625 L 262.707031 130.542969 L 261.921875 131.492188 C 253.53125 141.671875 244.398438 154.121094 237.328125 165.160156 C 233.796875 170.679688 230.777344 175.839844 228.621094 180.21875 C 227.539062 182.410156 226.675781 184.40625 226.066406 186.179688 C 225.460938 187.957031 225.09375 189.496094 225.085938 190.914062 C 225.085938 191.515625 225.15625 192.101562 225.351562 192.683594 C 225.542969 193.257812 225.882812 193.835938 226.386719 194.277344 L 226.398438 194.285156 L 226.410156 194.296875 C 226.789062 194.621094 227.234375 194.851562 227.679688 194.988281 C 228.128906 195.128906 228.574219 195.179688 229.019531 195.179688 C 229.808594 195.175781 230.585938 195.019531 231.402344 194.765625 C 232.929688 194.289062 234.617188 193.460938 236.515625 192.339844 C 239.828125 190.382812 243.757812 187.523438 248.0625 184.0625 C 260.964844 173.679688 277.171875 157.867188 288.222656 145.175781 L 286.835938 143.96875 L 288.207031 145.191406 C 288.765625 144.566406 289.265625 143.933594 289.722656 143.414062 L 291.351562 141.574219 L 289.125 140.53125 L 288.347656 142.195312" fill="#0f0a0a"/></g><g id="change2_6"><path d="M 294.25 221.511719 C 291.667969 221.511719 291.667969 225.507812 294.25 225.507812 C 296.824219 225.507812 296.824219 221.511719 294.25 221.511719" fill="#0f0a0a"/></g><g id="change2_7"><path d="M 316.347656 228.433594 C 313.195312 228.433594 313.195312 233.320312 316.347656 233.320312 C 319.496094 233.320312 319.496094 228.433594 316.347656 228.433594" fill="#0f0a0a"/></g><g id="change2_8"><path d="M 321.082031 210.613281 C 318.027344 210.613281 318.027344 215.351562 321.082031 215.351562 C 324.132812 215.351562 324.132812 210.613281 321.082031 210.613281" fill="#0f0a0a"/></g><g id="change2_9"><path d="M 331.4375 221.269531 L 331.179688 221.222656 C 327.359375 220.5625 327.359375 226.457031 331.179688 225.796875 L 331.4375 225.746094 C 333.660156 225.359375 333.660156 221.65625 331.4375 221.269531" fill="#0f0a0a"/></g><g id="change2_10"><path d="M 335.8125 195.21875 C 331.898438 195.21875 331.898438 201.285156 335.8125 201.285156 C 339.730469 201.285156 339.730469 195.21875 335.8125 195.21875" fill="#0f0a0a"/></g><g id="change2_11"><path d="M 308.558594 218.136719 C 304.644531 218.136719 304.644531 224.203125 308.558594 224.203125 C 312.476562 224.203125 312.476562 218.136719 308.558594 218.136719" fill="#0f0a0a"/></g><g id="change2_12"><path d="M 342.125 211.21875 C 339.167969 211.21875 339.167969 215.808594 342.125 215.808594 C 345.085938 215.808594 345.085938 211.21875 342.125 211.21875" fill="#0f0a0a"/></g><g id="change2_13"><path d="M 345.285156 202.117188 C 342.796875 202.117188 342.796875 205.964844 345.285156 205.964844 C 347.769531 205.964844 347.769531 202.117188 345.285156 202.117188" fill="#0f0a0a"/></g><g id="change2_14"><path d="M 330.550781 212.859375 C 328.359375 212.859375 328.359375 216.265625 330.550781 216.265625 C 332.75 216.265625 332.75 212.859375 330.550781 212.859375" fill="#0f0a0a"/></g><g id="change2_15"><path d="M 301.085938 237.191406 C 298.890625 237.191406 298.890625 240.597656 301.085938 240.597656 C 303.28125 240.597656 303.28125 237.191406 301.085938 237.191406" fill="#0f0a0a"/></g></g></svg>