<?xml version="1.0" encoding="UTF-8"?><svg xmlns="http://www.w3.org/2000/svg" xmlns:xlink="http://www.w3.org/1999/xlink" height="195.3" preserveAspectRatio="xMidYMid meet" version="1.0" viewBox="62.2 119.8 300.3 195.3" width="300.3" zoomAndPan="magnify"><g><g id="change1_1"><path d="M 346.152344 279.667969 C 329.832031 315.117188 270.0625 287.207031 196.148438 253.179688 C 122.238281 219.152344 62.167969 191.894531 78.488281 156.445312 C 94.808594 120.992188 167.957031 119.835938 241.871094 153.863281 C 315.785156 187.890625 362.472656 244.214844 346.152344 279.667969" fill="#ebbe4c"/></g><g id="change2_1"><path d="M 120.042969 159.0625 C 120.042969 159.0625 154.246094 139.917969 189.277344 135.367188 C 178.363281 132.714844 167.796875 130.902344 157.785156 129.929688 C 143.488281 132.882812 123.71875 140.328125 120.042969 159.0625" fill="#e9a44b"/></g><g id="change2_2"><path d="M 254.746094 214.101562 C 254.746094 214.101562 277.941406 201.117188 305.691406 193.992188 C 302 190.839844 298.113281 187.726562 294.035156 184.667969 C 279.660156 187.394531 258.558594 194.683594 254.746094 214.101562" fill="#e9a44b"/></g><g id="change2_3"><path d="M 205.851562 188.210938 C 205.851562 188.210938 225.019531 171.351562 251.703125 158.605469 C 248.480469 156.980469 245.203125 155.398438 241.871094 153.863281 C 239.640625 152.839844 237.410156 151.84375 235.183594 150.882812 C 220.496094 156.835938 202.019531 168.402344 205.851562 188.210938" fill="#e9a44b"/></g><g id="change3_1"><path d="M 346.152344 279.667969 L 344.789062 279.039062 C 342.21875 284.609375 338.617188 288.433594 334.007812 290.941406 C 329.398438 293.445312 323.722656 294.621094 317.042969 294.621094 C 303.394531 294.632812 285.6875 289.675781 265.246094 281.820312 C 244.796875 273.96875 221.59375 263.242188 196.777344 251.816406 C 163.960938 236.710938 133.898438 222.941406 112.152344 209.277344 C 101.28125 202.449219 92.496094 195.644531 86.496094 188.789062 C 83.492188 185.363281 81.1875 181.929688 79.636719 178.484375 C 78.089844 175.039062 77.292969 171.585938 77.289062 168.0625 C 77.292969 164.511719 78.101562 160.871094 79.847656 157.070312 C 83.855469 148.378906 91.445312 141.785156 101.929688 137.316406 C 112.410156 132.855469 125.753906 130.578125 140.980469 130.582031 C 169.847656 130.578125 205.453125 138.746094 241.242188 155.226562 C 273.070312 169.878906 299.816406 188.6875 318.542969 208.101562 C 327.910156 217.804688 335.269531 227.65625 340.269531 237.1875 C 345.273438 246.71875 347.90625 255.914062 347.90625 264.316406 C 347.90625 269.546875 346.890625 274.472656 344.789062 279.039062 L 347.515625 280.296875 C 349.808594 275.3125 350.90625 269.933594 350.90625 264.316406 C 350.902344 255.285156 348.09375 245.640625 342.925781 235.792969 C 335.171875 221.023438 322.109375 205.769531 304.96875 191.410156 C 287.824219 177.050781 266.597656 163.597656 242.496094 152.503906 C 206.359375 135.867188 170.402344 127.585938 140.980469 127.582031 C 125.457031 127.582031 111.742188 129.886719 100.757812 134.558594 C 89.78125 139.21875 81.5 146.308594 77.125 155.816406 C 75.21875 159.957031 74.289062 164.046875 74.289062 168.0625 C 74.289062 172.046875 75.203125 175.9375 76.902344 179.714844 C 79.882812 186.332031 85.238281 192.609375 92.433594 198.765625 C 103.238281 207.992188 118.234375 216.957031 135.921875 226.121094 C 153.609375 235.28125 173.984375 244.628906 195.523438 254.542969 C 220.339844 265.964844 243.582031 276.710938 264.171875 284.617188 C 284.765625 292.519531 302.6875 297.609375 317.042969 297.621094 C 324.0625 297.621094 330.261719 296.390625 335.441406 293.578125 C 340.621094 290.773438 344.726562 286.371094 347.515625 280.296875 L 346.152344 279.667969" fill="#332519"/></g><g id="change3_2"><path d="M 120.042969 159.0625 L 120.773438 160.371094 L 120.867188 160.320312 C 121.847656 159.777344 130.601562 154.992188 143.316406 149.804688 C 156.023438 144.617188 172.699219 139.03125 189.472656 136.855469 C 190.191406 136.761719 190.734375 136.175781 190.777344 135.449219 C 190.816406 134.726562 190.335938 134.082031 189.632812 133.910156 C 178.65625 131.242188 168.019531 129.417969 157.929688 128.4375 C 157.777344 128.421875 157.632812 128.429688 157.480469 128.460938 C 150.222656 129.964844 141.550781 132.59375 134.125 137.3125 C 130.414062 139.675781 127.011719 142.5625 124.289062 146.109375 C 121.566406 149.652344 119.53125 153.855469 118.570312 158.773438 C 118.457031 159.34375 118.6875 159.933594 119.160156 160.277344 C 119.632812 160.617188 120.265625 160.65625 120.773438 160.371094 L 120.042969 159.0625 L 121.515625 159.351562 C 122.390625 154.898438 124.203125 151.148438 126.671875 147.9375 C 130.363281 143.121094 135.554688 139.519531 141.171875 136.863281 C 146.785156 134.203125 152.808594 132.488281 158.085938 131.398438 L 157.785156 129.929688 L 157.640625 131.425781 C 167.574219 132.386719 178.074219 134.1875 188.925781 136.828125 L 189.277344 135.367188 L 189.085938 133.882812 C 171.367188 136.183594 153.957031 142.148438 140.949219 147.535156 C 127.945312 152.921875 119.347656 157.730469 119.308594 157.753906 L 120.042969 159.0625 L 121.515625 159.351562 L 120.042969 159.0625" fill="#332519"/></g><g id="change3_3"><path d="M 254.746094 214.101562 L 255.480469 215.410156 C 255.480469 215.410156 255.5625 215.363281 255.734375 215.269531 C 258.320312 213.847656 280.257812 202.066406 306.0625 195.445312 C 306.605469 195.308594 307.027344 194.878906 307.152344 194.332031 C 307.277344 193.789062 307.089844 193.21875 306.664062 192.855469 C 302.949219 189.679688 299.039062 186.542969 294.9375 183.46875 C 294.597656 183.214844 294.171875 183.113281 293.757812 183.191406 C 286.460938 184.578125 277.441406 187.113281 269.648438 191.84375 C 265.757812 194.210938 262.171875 197.136719 259.296875 200.761719 C 256.421875 204.386719 254.273438 208.71875 253.273438 213.8125 C 253.160156 214.386719 253.394531 214.972656 253.867188 215.316406 C 254.339844 215.660156 254.96875 215.695312 255.480469 215.410156 L 254.746094 214.101562 L 256.21875 214.390625 C 257.125 209.777344 259.042969 205.914062 261.648438 202.625 C 265.550781 197.695312 271.035156 194.0625 276.90625 191.425781 C 282.773438 188.789062 289.007812 187.148438 294.316406 186.140625 L 294.035156 184.667969 L 293.136719 185.867188 C 297.1875 188.90625 301.050781 192.003906 304.71875 195.136719 L 305.691406 193.992188 L 305.316406 192.539062 C 277.34375 199.726562 254.078125 212.761719 254.011719 212.792969 L 254.746094 214.101562 L 256.21875 214.390625 L 254.746094 214.101562" fill="#332519"/></g><g id="change3_4"><path d="M 205.851562 188.210938 L 206.84375 189.335938 L 206.894531 189.292969 C 207.980469 188.34375 226.699219 172.207031 252.347656 159.957031 C 252.867188 159.710938 253.195312 159.191406 253.203125 158.617188 C 253.207031 158.046875 252.890625 157.523438 252.378906 157.265625 C 249.140625 155.632812 245.847656 154.046875 242.496094 152.503906 C 240.257812 151.46875 238.015625 150.472656 235.777344 149.503906 C 235.410156 149.347656 234.992188 149.34375 234.621094 149.492188 C 227.84375 152.242188 220.242188 156.164062 214.242188 161.621094 C 211.246094 164.351562 208.648438 167.472656 206.796875 171.035156 C 204.9375 174.597656 203.839844 178.605469 203.839844 183.019531 C 203.839844 184.78125 204.015625 186.609375 204.378906 188.496094 C 204.480469 189.023438 204.859375 189.457031 205.367188 189.632812 C 205.875 189.804688 206.441406 189.691406 206.84375 189.335938 L 205.851562 188.210938 L 207.324219 187.925781 C 206.996094 186.21875 206.839844 184.585938 206.839844 183.019531 C 206.84375 179.101562 207.800781 175.601562 209.457031 172.421875 C 211.933594 167.652344 216.011719 163.605469 220.738281 160.257812 C 225.460938 156.910156 230.8125 154.269531 235.746094 152.273438 L 235.183594 150.882812 L 234.589844 152.257812 C 236.804688 153.21875 239.023438 154.207031 241.242188 155.226562 C 244.5625 156.753906 247.824219 158.328125 251.027344 159.941406 L 251.703125 158.605469 L 251.054688 157.25 C 224.164062 170.101562 204.925781 187.03125 204.863281 187.085938 L 205.851562 188.210938 L 207.324219 187.925781 L 205.851562 188.210938" fill="#332519"/></g></g></svg>