<?xml version="1.0" encoding="UTF-8"?><svg xmlns="http://www.w3.org/2000/svg" xmlns:xlink="http://www.w3.org/1999/xlink" height="255.1" preserveAspectRatio="xMidYMid meet" version="1.0" viewBox="101.4 85.1 222.4 255.1" width="222.4" zoomAndPan="magnify"><g><g id="change1_1"><path d="M255.59,195.42c-22.66,5.29-34.53,36.78-40.76,51.42c-6.22-14.64-27.29-45.51-49.95-50.8 c-30.19-7.04-3.56,12.05-3.56,12.05s39.73,38.64,37.49,79l-2.5,51.07c0,1.11,0.9,2,2,2h9.67h13.72h9.67c1.11,0,2-0.9,2-2 l-2.13-51.05c-4.14-45.66,28.37-74.51,28.37-74.51S285.79,188.37,255.59,195.42z" fill="#b2cc17"/></g><g id="change2_1"><path d="M303.93,166.56c2.54-4.47,4-9.64,4-15.15c0-16.94-13.73-30.67-30.67-30.67c-1.28,0-2.54,0.09-3.77,0.24 c0-0.08,0.01-0.16,0.01-0.24c0-16.94-13.73-30.67-30.67-30.67c-6.41,0-12.36,1.97-17.28,5.33c-5.62-6.35-13.82-10.35-22.97-10.35 c-14.86,0-27.24,10.56-30.07,24.59c-3.64-1.52-7.64-2.37-11.83-2.37c-16.94,0-30.67,13.73-30.67,30.67 c0,0.65,0.03,1.29,0.07,1.92c-16.62,5.28-28.67,20.83-28.67,39.2c0,22.71,18.41,41.12,41.12,41.12 c17.63,0,32.66-11.1,38.51-26.69c3.23,1.15,6.7,1.79,10.32,1.79c4.5,0,8.78-0.98,12.63-2.72c5.59,16.08,20.86,27.63,38.84,27.63 c9.23,0,17.75-3.04,24.61-8.17c5.47,8.39,14.94,13.94,25.7,13.94c16.94,0,30.67-13.73,30.67-30.67 C323.8,182.13,315.54,170.93,303.93,166.56z" fill="#68a52c"/></g></g></svg>