<?xml version="1.0" encoding="UTF-8"?><svg xmlns="http://www.w3.org/2000/svg" xmlns:xlink="http://www.w3.org/1999/xlink" height="205.4" preserveAspectRatio="xMidYMid meet" version="1.0" viewBox="84.5 109.9 255.4 205.4" width="255.4" zoomAndPan="magnify"><g><g id="change1_1"><path d="M312.83,315.28H112.37c-12.24,0-22.26-10.02-22.26-22.26v-6.72c0-12.24,10.02-22.26,22.26-22.26h200.46 c12.24,0,22.26,10.02,22.26,22.26v6.72C335.09,305.26,325.07,315.28,312.83,315.28z" fill="#fbb91c"/></g><g id="change2_1"><path d="M89.66,277.49c3.23,3.18,7.96,4.84,12.47,4.24c7.03-0.93,12.97-6.78,20.05-6.52 c5.13,0.19,9.5,3.55,14.02,5.98c10.69,5.75,23.94,6.52,35.22,2.04c3.78-1.5,7.4-3.57,11.41-4.23c8.02-1.33,15.69,3.11,23.4,5.69 c12.66,4.24,26.94,3.41,39.03-2.26c3.89-1.82,7.7-4.17,11.98-4.52c5.45-0.45,10.55,2.39,15.76,4.04 c6.5,2.06,13.82,3.17,20.63,2.41c7.14-0.79,8.29-6.73,14.88-8.21c3.88-0.87,7.89,0.1,11.84,0.58c8.35,1.02,19.5-3.29,19.51-13.18 c0-6.65-4.84-12.54-10.7-15.7c-5.86-3.15-12.62-4.07-19.22-4.87c-48.53-5.9-97.5-8.24-146.37-7c-16.96,0.43-33,2.26-49.46,6.36 c-10,2.49-22.95,8.49-27.48,18.52c-2.17,4.8-1.53,10.76,1.61,14.99C88.67,276.44,89.14,276.98,89.66,277.49z" fill="#78bd76"/></g><g id="change3_1"><path d="M320.36,258.46H104.84c-7.37,0-13.4-6.03-13.4-13.4v-2.91c0-7.37,6.03-13.4,13.4-13.4h215.51 c7.37,0,13.4,6.03,13.4,13.4v2.91C333.76,252.43,327.73,258.46,320.36,258.46z" fill="#ed6923"/></g><g id="change2_2"><path d="M89.66,230.8c3.23,3.18,7.96,4.84,12.47,4.24c7.03-0.93,12.97-6.78,20.05-6.52 c5.13,0.19,9.5,3.55,14.02,5.98c10.69,5.75,23.94,6.52,35.22,2.04c3.78-1.5,7.4-3.57,11.41-4.23c8.02-1.33,15.69,3.11,23.4,5.69 c12.66,4.24,26.94,3.41,39.03-2.26c3.89-1.82,7.7-4.17,11.98-4.52c5.45-0.45,10.55,2.39,15.76,4.04 c6.5,2.06,13.82,3.17,20.63,2.41c7.14-0.79,8.29-6.73,14.88-8.21c3.88-0.87,7.89,0.1,11.84,0.58c8.35,1.02,19.5-3.29,19.51-13.18 c0-6.65-4.84-12.54-10.7-15.7c-5.86-3.15-12.62-4.07-19.22-4.87c-48.53-5.9-97.5-8.24-146.37-7c-16.96,0.43-33,2.26-49.46,6.36 c-10,2.49-22.95,8.49-27.48,18.52c-2.17,4.8-1.53,10.76,1.61,14.99C88.67,229.75,89.14,230.29,89.66,230.8z" fill="#78bd76"/></g><g id="change1_2"><path d="M322.61,220.58c8.75,0,15.51-7.87,14-16.49c-9.33-53.34-61.3-94.17-124.01-94.17S97.92,150.75,88.59,204.1 c-1.51,8.62,5.25,16.49,14,16.49H322.61z" fill="#fbb91c"/></g><g id="change4_1"><path d="M108.22,258.46c0,0,35.72,17.82,58,31.19l49.76-31.19H108.22z" fill="#ffe104"/></g><g id="change4_2"><path d="M209.22,258.46c0,0,35.72,17.82,58,31.19l49.76-31.19H209.22z" fill="#ffe104"/></g><g id="change5_2"><path d="M121.92,168.73c-1.5,2.95-4.81,4.29-4.81,4.29s-0.87-3.46,0.63-6.41s4.81-4.29,4.81-4.29 S123.43,165.78,121.92,168.73z" fill="#fff"/></g><g id="change5_3"><path d="M218.06,148.17c-1.5,2.95-4.81,4.29-4.81,4.29s-0.87-3.46,0.63-6.41c1.5-2.95,4.81-4.29,4.81-4.29 S219.57,145.22,218.06,148.17z" fill="#fff"/></g><g id="change5_4"><path d="M150.81,144.22c1.47,2.97,0.55,6.42,0.55,6.42s-3.29-1.37-4.75-4.35c-1.47-2.97-0.55-6.42-0.55-6.42 S149.34,141.24,150.81,144.22z" fill="#fff"/></g><g id="change5_5"><path d="M278.91,146.07c1.47,2.97,0.55,6.42,0.55,6.42s-3.29-1.37-4.75-4.35c-1.47-2.97-0.55-6.42-0.55-6.42 S277.44,143.1,278.91,146.07z" fill="#fff"/></g><g id="change5_6"><path d="M293.26,185.2c1.47,2.97,0.55,6.42,0.55,6.42s-3.29-1.37-4.75-4.35c-1.47-2.97-0.55-6.42-0.55-6.42 S291.8,182.22,293.26,185.2z" fill="#fff"/></g><g id="change5_7"><path d="M177.9,161.29c1.47,2.97,0.55,6.42,0.55,6.42s-3.29-1.37-4.75-4.35c-1.47-2.97-0.55-6.42-0.55-6.42 S176.44,158.31,177.9,161.29z" fill="#fff"/></g><g id="change5_8"><path d="M305.76,166.6c1.47,2.97,0.55,6.42,0.55,6.42s-3.29-1.37-4.75-4.35c-1.47-2.97-0.55-6.42-0.55-6.42 S304.29,163.63,305.76,166.6z" fill="#fff"/></g><g id="change5_9"><path d="M249.94,171.98c1.47,2.97,0.55,6.42,0.55,6.42s-3.29-1.37-4.75-4.35s-0.55-6.42-0.55-6.42 S248.48,169.01,249.94,171.98z" fill="#fff"/></g><g id="change5_10"><path d="M145.16,175.24c-0.46,3.28-3.16,5.61-3.16,5.61s-1.94-2.99-1.48-6.27s3.16-5.61,3.16-5.61 S145.62,171.95,145.16,175.24z" fill="#fff"/></g><g id="change5_11"><path d="M190.16,131.46c-0.46,3.28-3.16,5.61-3.16,5.61s-1.94-2.99-1.48-6.27c0.46-3.28,3.16-5.61,3.16-5.61 S190.62,128.18,190.16,131.46z" fill="#fff"/></g><g id="change5_1"><path d="M250.16,134.26c-0.46,3.28-3.16,5.61-3.16,5.61s-1.94-2.99-1.48-6.27c0.46-3.28,3.16-5.61,3.16-5.61 S250.62,130.97,250.16,134.26z" fill="#fff"/></g></g></svg>