<?xml version="1.0" encoding="UTF-8"?><svg xmlns="http://www.w3.org/2000/svg" xmlns:xlink="http://www.w3.org/1999/xlink" height="238.5" preserveAspectRatio="xMidYMid meet" version="1.0" viewBox="85.0 93.4 255.1 238.5" width="255.1" zoomAndPan="magnify"><g id="change1_2"><path d="M132.434,307.46v13.781c0,5.854,4.746,10.6,10.6,10.6h10.6c5.855,0,10.6-4.746,10.6-10.6V307.46H132.434 z" fill="#F59A2E"/></g><g id="change1_3"><path d="M260.965,307.46v13.781c0,5.854,4.746,10.6,10.6,10.6h10.6c5.855,0,10.6-4.746,10.6-10.6V307.46H260.965 z" fill="#F59A2E"/></g><g id="change1_4"><path d="M278.376,93.359H146.824c-20.755,0-37.578,16.823-37.578,37.579v154.999 c0,7.59,6.159,13.749,13.749,13.749h179.211c7.59,0,13.749-6.159,13.749-13.749V130.938 C315.955,110.182,299.132,93.359,278.376,93.359z M142.813,273.891c-8.001,0-14.487-6.486-14.487-14.487 s6.486-14.487,14.487-14.487s14.487,6.486,14.487,14.487S150.814,273.891,142.813,273.891z M257.589,273.238h-84.805 c-2.762,0-5-2.238-5-5s2.238-5,5-5h84.805c2.762,0,5,2.238,5,5S260.351,273.238,257.589,273.238z M257.589,255.571h-84.805 c-2.762,0-5-2.238-5-5s2.238-5,5-5h84.805c2.762,0,5,2.238,5,5S260.351,255.571,257.589,255.571z M282.387,273.891 c-8.001,0-14.487-6.486-14.487-14.487s6.486-14.487,14.487-14.487c8.001,0,14.487,6.486,14.487,14.487 S290.388,273.891,282.387,273.891z M296.874,192.54c0,14.091-11.423,25.514-25.514,25.514H153.84 c-14.091,0-25.514-11.423-25.514-25.514v-55.667c0-14.091,11.423-25.514,25.514-25.514h117.52 c14.091,0,25.514,11.423,25.514,25.514V192.54z" fill="#F59A2E"/></g><g id="change1_5"><path d="M235.009,210.289c0.281-7.847,6.714-14.127,14.629-14.127s14.348,6.28,14.629,14.127h10.622 c-0.283-13.708-11.476-24.734-25.251-24.734c-13.775,0-24.968,11.027-25.251,24.734H235.009z" fill="#F59A2E"/></g><g fill="#F59A2E" id="change1_1"><path d="M102.355,201.632c0,4.781-3.876,8.657-8.657,8.657l0,0c-4.781,0-8.657-3.876-8.657-8.657V162.41 c0-4.781,3.876-8.657,8.657-8.657l0,0c4.781,0,8.657,3.876,8.657,8.657V201.632z" fill="inherit"/><path d="M340.159,201.632c0,4.781-3.876,8.657-8.657,8.657l0,0c-4.781,0-8.657-3.876-8.657-8.657V162.41 c0-4.781,3.876-8.657,8.657-8.657l0,0c4.781,0,8.657,3.876,8.657,8.657V201.632z" fill="inherit"/></g></svg>