<?xml version="1.0" encoding="UTF-8"?><svg xmlns="http://www.w3.org/2000/svg" xmlns:xlink="http://www.w3.org/1999/xlink" height="225.9" preserveAspectRatio="xMidYMid meet" version="1.0" viewBox="0.0 0.0 500.3 225.9" width="500.3" zoomAndPan="magnify"><defs><clipPath id="a"><path d="M 0 12 L 500.328125 12 L 500.328125 173 L 0 173 Z M 0 12"/></clipPath><clipPath id="b"><path d="M 0 144 L 500.328125 144 L 500.328125 190 L 0 190 Z M 0 144"/></clipPath><clipPath id="c"><path d="M 52 0 L 479 0 L 479 225.941406 L 52 225.941406 Z M 52 0"/></clipPath><clipPath id="d"><path d="M 0 101 L 500.328125 101 L 500.328125 213 L 0 213 Z M 0 101"/></clipPath></defs><g><g clip-path="url(#a)" id="change1_1"><path d="M 95.6875 101.738281 L 95.6875 39.765625 C 95.6875 24.566406 108.007812 12.246094 123.203125 12.246094 L 468.433594 12.246094 C 486.046875 12.246094 500.328125 26.527344 500.328125 44.144531 L 500.328125 172.351562 L 0 172.351562 L 0 155.183594 C 0 125.664062 23.925781 101.738281 53.445312 101.738281 L 95.6875 101.738281" fill="#fabd0b"/></g><g clip-path="url(#b)" id="change2_1"><path d="M 500.328125 172.351562 L 500.328125 189.203125 L 0 189.203125 L 0 172.351562 L 48.152344 172.351562 C 54.8125 155.929688 70.910156 144.34375 89.722656 144.34375 C 108.535156 144.34375 124.632812 155.929688 131.296875 172.351562 L 369.03125 172.351562 C 375.695312 155.929688 391.789062 144.34375 410.605469 144.34375 C 429.414062 144.34375 445.515625 155.929688 452.175781 172.351562 L 500.328125 172.351562" fill="#86d7dd"/></g><g clip-path="url(#c)" id="change3_1"><path d="M 466.628906 6.214844 L 453.234375 6.214844 L 453.234375 12.246094 L 466.628906 12.246094 Z M 443.382812 6.214844 L 429.984375 6.214844 L 429.984375 12.246094 L 443.382812 12.246094 Z M 367.558594 6.214844 L 354.160156 6.214844 L 354.160156 12.246094 L 367.558594 12.246094 Z M 344.308594 6.214844 L 330.914062 6.214844 L 330.914062 12.246094 L 344.308594 12.246094 Z M 268.484375 6.214844 L 255.089844 6.214844 L 255.089844 12.246094 L 268.484375 12.246094 Z M 245.238281 6.214844 L 231.84375 6.214844 L 231.84375 12.246094 L 245.238281 12.246094 Z M 169.414062 6.214844 L 156.019531 6.214844 L 156.019531 12.246094 L 169.414062 12.246094 Z M 146.164062 6.214844 L 132.769531 6.214844 L 132.769531 12.246094 L 146.164062 12.246094 Z M 476.507812 -0.00390625 L 124.425781 -0.00390625 C 123.132812 -0.00390625 122.082031 1.046875 122.082031 2.339844 L 122.082031 3.871094 C 122.082031 5.167969 123.132812 6.214844 124.425781 6.214844 L 476.507812 6.214844 C 477.800781 6.214844 478.847656 5.167969 478.847656 3.871094 L 478.847656 2.339844 C 478.847656 1.046875 477.800781 -0.00390625 476.507812 -0.00390625 Z M 447.339844 189.203125 C 447.339844 168.914062 430.894531 152.46875 410.605469 152.46875 C 390.316406 152.46875 373.867188 168.914062 373.867188 189.203125 C 373.867188 209.492188 390.316406 225.941406 410.605469 225.941406 C 430.894531 225.941406 447.339844 209.492188 447.339844 189.203125 Z M 126.460938 189.203125 C 126.460938 168.914062 110.011719 152.46875 89.722656 152.46875 C 69.433594 152.46875 52.988281 168.914062 52.988281 189.203125 C 52.988281 209.492188 69.433594 225.941406 89.722656 225.941406 C 110.011719 225.941406 126.460938 209.492188 126.460938 189.203125 Z M 464.109375 98.023438 L 464.109375 48.375 C 464.109375 46.324219 462.445312 44.660156 460.390625 44.660156 L 414.800781 44.660156 C 412.746094 44.660156 411.082031 46.324219 411.082031 48.375 L 411.082031 98.023438 C 411.082031 100.074219 412.746094 101.738281 414.800781 101.738281 L 460.390625 101.738281 C 462.445312 101.738281 464.109375 100.074219 464.109375 98.023438 Z M 378.628906 98.023438 L 378.628906 48.375 C 378.628906 46.324219 376.96875 44.660156 374.914062 44.660156 L 329.324219 44.660156 C 327.269531 44.660156 325.605469 46.324219 325.605469 48.375 L 325.605469 98.023438 C 325.605469 100.074219 327.269531 101.738281 329.324219 101.738281 L 374.914062 101.738281 C 376.96875 101.738281 378.628906 100.074219 378.628906 98.023438 Z M 293.152344 98.023438 L 293.152344 48.375 C 293.152344 46.324219 291.488281 44.660156 289.4375 44.660156 L 243.84375 44.660156 C 241.792969 44.660156 240.128906 46.324219 240.128906 48.375 L 240.128906 98.023438 C 240.128906 100.074219 241.792969 101.738281 243.84375 101.738281 L 289.4375 101.738281 C 291.488281 101.738281 293.152344 100.074219 293.152344 98.023438 Z M 207.675781 98.023438 L 207.675781 48.375 C 207.675781 46.324219 206.011719 44.660156 203.960938 44.660156 L 158.367188 44.660156 C 156.316406 44.660156 154.652344 46.324219 154.652344 48.375 L 154.652344 98.023438 C 154.652344 100.074219 156.316406 101.738281 158.367188 101.738281 L 203.960938 101.738281 C 206.011719 101.738281 207.675781 100.074219 207.675781 98.023438 Z M 122.082031 48.375 L 122.082031 98.023438 C 122.082031 100.074219 120.421875 101.738281 118.367188 101.738281 L 95.6875 101.738281 L 95.6875 44.660156 L 118.367188 44.660156 C 120.421875 44.660156 122.082031 46.324219 122.082031 48.375" fill="#3e3b39"/></g><g id="change4_1"><path d="M 449.40625 48.242188 L 432.804688 48.242188 L 414.714844 97.105469 C 415.085938 97.730469 415.761719 98.15625 416.542969 98.15625 L 430.921875 98.15625 Z M 452.019531 98.15625 L 460.78125 74.492188 L 460.78125 57.046875 L 445.558594 98.15625 Z M 335.832031 98.15625 L 352.371094 98.15625 L 370.855469 48.242188 L 354.316406 48.242188 Z M 255.257812 98.15625 L 265.152344 98.15625 L 283.636719 48.242188 L 273.742188 48.242188 Z M 197.773438 98.15625 L 204.351562 80.398438 L 204.351562 53.675781 L 187.878906 98.15625 Z M 193.59375 48.242188 L 173.804688 48.242188 L 157.980469 90.980469 L 157.980469 96.023438 C 157.980469 97.203125 158.933594 98.15625 160.109375 98.15625 L 175.109375 98.15625 Z M 439.699219 189.203125 C 439.699219 173.132812 426.671875 160.109375 410.605469 160.109375 C 394.535156 160.109375 381.507812 173.132812 381.507812 189.203125 C 381.507812 205.273438 394.535156 218.300781 410.605469 218.300781 C 426.671875 218.300781 439.699219 205.273438 439.699219 189.203125 Z M 89.722656 218.300781 C 73.65625 218.300781 60.628906 205.273438 60.628906 189.203125 C 60.628906 173.132812 73.65625 160.109375 89.722656 160.109375 C 105.792969 160.109375 118.820312 173.132812 118.820312 189.203125 C 118.820312 205.273438 105.792969 218.300781 89.722656 218.300781" fill="#838585"/></g><g clip-path="url(#d)" id="change5_1"><path d="M 17.667969 115.484375 C 27.144531 106.941406 39.683594 101.738281 53.445312 101.738281 L 500.328125 101.738281 L 500.328125 115.484375 Z M 500.328125 163.269531 L 489.53125 163.269531 C 487.492188 163.269531 485.839844 161.613281 485.839844 159.574219 L 485.839844 150.792969 C 485.839844 148.753906 487.492188 147.097656 489.53125 147.097656 L 500.328125 147.097656 Z M 0 163.269531 L 0 155.183594 C 0 152.433594 0.207031 149.734375 0.609375 147.097656 L 13.15625 147.097656 C 15.195312 147.097656 16.847656 148.753906 16.847656 150.792969 L 16.847656 159.574219 C 16.847656 161.613281 15.195312 163.269531 13.15625 163.269531 Z M 410.605469 195.179688 C 407.316406 195.179688 404.652344 192.511719 404.652344 189.226562 C 404.652344 185.9375 407.316406 183.273438 410.605469 183.273438 C 413.890625 183.273438 416.558594 185.9375 416.558594 189.226562 C 416.558594 192.511719 413.890625 195.179688 410.605469 195.179688 Z M 425.554688 189.203125 C 425.554688 184.210938 429.085938 180.046875 433.789062 179.0625 C 431.25 173.273438 426.613281 168.621094 420.832031 166.0625 C 420.074219 171.035156 415.789062 174.847656 410.605469 174.847656 C 405.417969 174.847656 401.136719 171.035156 400.375 166.0625 C 394.59375 168.621094 389.957031 173.273438 387.417969 179.0625 C 392.121094 180.046875 395.652344 184.210938 395.652344 189.203125 C 395.652344 194.195312 392.121094 198.359375 387.417969 199.34375 C 389.96875 205.164062 394.640625 209.839844 400.464844 212.386719 C 401.445312 207.6875 405.613281 204.152344 410.605469 204.152344 C 415.597656 204.152344 419.761719 207.6875 420.742188 212.386719 C 426.566406 209.839844 431.238281 205.164062 433.789062 199.34375 C 429.085938 198.359375 425.554688 194.195312 425.554688 189.203125 Z M 89.722656 195.179688 C 86.4375 195.179688 83.769531 192.511719 83.769531 189.226562 C 83.769531 185.9375 86.4375 183.273438 89.722656 183.273438 C 93.011719 183.273438 95.675781 185.9375 95.675781 189.226562 C 95.675781 192.511719 93.011719 195.179688 89.722656 195.179688 Z M 104.675781 189.203125 C 104.675781 184.210938 108.207031 180.046875 112.90625 179.0625 C 110.371094 173.273438 105.730469 168.621094 99.953125 166.0625 C 99.191406 171.035156 94.910156 174.847656 89.722656 174.847656 C 84.539062 174.847656 80.253906 171.035156 79.496094 166.0625 C 73.714844 168.621094 69.078125 173.273438 66.539062 179.0625 C 71.242188 180.046875 74.773438 184.210938 74.773438 189.203125 C 74.773438 194.195312 71.242188 198.359375 66.539062 199.34375 C 69.089844 205.164062 73.761719 209.839844 79.585938 212.386719 C 80.566406 207.6875 84.730469 204.152344 89.722656 204.152344 C 94.714844 204.152344 98.882812 207.6875 99.863281 212.386719 C 105.683594 209.839844 110.359375 205.164062 112.90625 199.34375 C 108.207031 198.359375 104.675781 194.195312 104.675781 189.203125" fill="#fcd35f"/></g></g></svg>