<?xml version="1.0" encoding="UTF-8"?><svg xmlns="http://www.w3.org/2000/svg" height="478.76pt" version="1.1" viewBox="0 0 398.67 478.76" width="398.67pt">
 <g id="surface1">
  <g id="change1_1"><path d="m351.12 275.22h-31.95c15.09 0 27.31-13.31 27.31-29.72s-12.22-29.72-27.31-29.72h-37.02c10.81-4.13 18.49-14.53 18.49-26.72v-1.65c0-15.8-12.91-28.62-28.85-28.62h-159.61c-15.934 0-28.852 12.82-28.852 28.62v1.65c0 12.19 7.68 22.59 18.492 26.72h-37.019c-15.082 0-27.313 13.31-27.313 29.72s12.231 29.72 27.313 29.72h-31.946c-15.41 0-27.906 13.59-27.906 30.36 0.0002 16.77 12.496 30.37 27.906 30.37h318.26c15.41 0 27.9-13.6 27.9-30.37s-12.49-30.36-27.9-30.36" fill="#87d6c8"/></g>
  <g id="change2_1"><path d="m44.824 335.95l19.231 112.71c0 13.81 12.687 25 25.961 25h206.86c13.28 0 25.96-11.19 25.96-25l19.23-112.71h-56.34l-11.62 88.37-1.37-88.37h-68.49l-0.32 99.38-16.38-99.38h-64.78l10.05 88.37-23.68-88.37h-64.316" fill="#c0935b"/></g>
  <g id="change2_2"><path d="m212.7 146.29v-67.036c0-2.762-2.24-5-5-5h-16.62c-2.76 0-5 2.238-5 5v67.036h26.62" fill="#c0935b"/></g>
  <g id="change3_1"><path d="m199.99 4.7734s33.94 49.309 0 55.911c-36.62-3.219 0-55.911 0-55.911" fill="#f5a30d"/></g>
  <g id="change4_1"><path d="m40.004 337.28c4.141 23.33 8.281 46.66 12.422 69.99 2.226 12.56 4.453 25.11 6.679 37.66 0.555 3.13 0.801 6.08 1.282 9.12 1.785 11.25 11.781 19.65 22 23.16 6.152 2.11 13.425 1.45 19.863 1.45h32.81 95.4 71.28c11.09 0 21.25-2.24 29.35-10.68 7.69-8.02 7.99-19.66 9.84-30.09 5.95-33.54 11.9-67.08 17.85-100.61 0.56-3.16-1.34-6.33-4.82-6.33h-122.79-170.32-16.026c-6.449 0-6.449 10 0 10h122.8 170.32 16.02c-1.61-2.11-3.21-4.22-4.82-6.33-4.14 23.33-8.28 46.66-12.42 70-2.23 12.55-4.45 25.1-6.68 37.65-0.54 3.05-0.8 6.08-1.29 9.12-1.59 10.1-12.02 17.27-21.84 17.27h-148.07-64.641c-3.14 0-6.074-0.2-9.156-1.09-5.285-1.53-9.789-5.34-12.68-9.94-2.125-3.39-2.097-6.81-2.765-10.58-1.594-8.97-3.188-17.95-4.778-26.92-5.058-28.51-10.117-57.01-15.172-85.51-1.125-6.34-10.761-3.65-9.644 2.66" fill="#45271d"/></g>
  <g id="change4_2"><path d="m179.64 277.31h149.63 30.3 5.19c9.91 0 18.31 6.8 21.97 15.76 6.72 16.39-3.5 37.88-22.48 37.88h-13.59-164.73-147.28c-2.443 0-4.888 0.05-7.33-0.13-18.273-1.36-25.347-24.51-18.703-39.03 3.34-7.29 9.68-12.4 17.457-14.15 3.582-0.8 7.817-0.33 11.453-0.33h28.235c6.449 0 6.449-10 0-10h-35.242c-22.165 0-37.168 21.42-34.129 42.46 2.4801 17.16 16.379 31.18 34.14 31.18h13.59 164.74 147.27c8.19 0 15.85-0.97 22.92-5.74 19.63-13.24 20.53-43 4-58.96-8.07-7.79-18.12-8.94-28.62-8.94h-31.61-147.18c-6.45 0-6.45 10 0 10" fill="#45271d"/></g>
  <g id="change4_3"><path d="m274.45 215.02h35.5c12.71 0 27.96-2.67 37.76 7.18 15.06 15.13 5.48 45.11-16.83 45.11h-39.54-21.58c-6.45 0-6.45 10 0 10h34.42 21.38c5.15 0 10.11 0.07 15.14-1.36 23.35-6.63 30.29-36.68 18.15-55.7-5.97-9.35-16.23-14.95-27.23-15.23-3.89-0.1-7.8 0-11.69 0h-45.48c-6.45 0-6.45 10 0 10" fill="#45271d"/></g>
  <g id="change4_4"><path d="m85.812 267.31h-18.046c-10.344 0-18.735-6.79-22.293-16.32-4.055-10.85-0.836-24.28 8.476-31.43 4.77-3.66 10.192-4.54 15.973-4.54h80.578 4.45c6.44 0 6.44-10 0-10h-74.805c-12.586 0-23.86-0.45-34.27 8.31-18.355 15.44-14.691 45.71 4.082 58.81 10.203 7.12 24.102 5.17 35.855 5.17 6.45 0 6.45-10 0-10" fill="#45271d"/></g>
  <g id="change4_5"><path d="m156.92 205.02h-37.01c-7.54 0-14.35-1.25-20.234-6.43-7.942-7-9.914-18.38-6.977-28.2 3.039-10.17 13.331-17.1 23.741-17.1h5.04 31.89 94.56 30.44c2.24 0 4.48-0.02 6.72 0.12 11.29 0.77 19.8 10.26 21.96 20.82 3.22 15.75-8.87 30.43-24.69 30.79-6.44 0.14-6.46 10.14 0 10 23.35-0.52 37.85-21.25 34.34-43.45-2.73-17.17-19.07-28.28-35.65-28.28h-70.19-85.03c-9.52 0-18.33-0.09-27.064 4.78-19.688 10.97-22.258 38.17-8.817 54.82 9.129 11.3 22.561 12.13 35.821 12.13h31.15c6.45 0 6.45-10 0-10" fill="#45271d"/></g>
  <g id="change4_6"><path d="m190.91 215.02h38.11c6.45 0 6.45-10 0-10h-38.11c-6.45 0-6.45 10 0 10" fill="#45271d"/></g>
  <g id="change4_7"><path d="m217.7 146.29v-67.017c0-10.332-10.49-10.019-17.81-10.019-8.38 0-17.37-0.68-18.81 10-0.44 3.301 0 6.969 0 10.289v22.737 34.01c0 2.73 2.28 5 5 5h26.62c6.45 0 6.45-10 0-10h-26.62l5 5v-67.017c0-0.039 14.98-0.019 16.54-0.019 0.17 0 0.08 8.957 0.08 9.558v45.668 11.81c0 6.45 10 6.45 10 0" fill="#45271d"/></g>
  <g id="change4_8"><path d="m195.67 7.2969c4.76 6.9411 8.79 14.621 11.63 22.539 1.88 5.238 3.57 11.277 2.47 16.871-1.13 5.703-6.9 9.723-12.62 8.512-20.52-4.34 0.76-38.68 7.15-47.922 3.68-5.3165-4.99-10.309-8.63-5.047-10.92 15.777-31.23 55.023-1.18 62.613 8.46 2.133 17.02-1.82 22.05-8.707 4.35-5.957 3.91-14.242 2.62-21.078-2.18-11.558-8.22-22.961-14.75-32.668-0.03-0.0506-0.07-0.1053-0.11-0.16-3.62-5.2812-12.29-0.2891-8.63 5.0469" fill="#45271d"/></g>
  <g id="change4_9"><path d="m198.93 335.95v99.38c0 6.45 10 6.45 10 0v-99.38c0-6.45-10-6.45-10 0" fill="#45271d"/></g>
  <g id="change4_10"><path d="m119.32 336.18c2.84 29.38 5.67 58.76 8.5 88.14 0.62 6.36 10.63 6.42 10 0-2.83-29.38-5.66-58.76-8.5-88.14-0.61-6.36-10.61-6.42-10 0" fill="#45271d"/></g>
  <g id="change4_11"><path d="m279.61 336.18c-2.84 29.38-5.67 58.76-8.5 88.14-0.63 6.42 9.38 6.36 10 0 2.83-29.38 5.66-58.76 8.5-88.14 0.62-6.42-9.39-6.36-10 0" fill="#45271d"/></g>
 </g>
</svg>