<?xml version="1.0" encoding="UTF-8"?><svg xmlns="http://www.w3.org/2000/svg" xmlns:xlink="http://www.w3.org/1999/xlink" height="250.9" preserveAspectRatio="xMidYMid meet" version="1.0" viewBox="84.5 87.1 256.2 250.9" width="256.2" zoomAndPan="magnify"><g id="change1_1"><path d="M319.439,187.941c-3.644-7.168-9.373-12.783-15.773-17.518c-6.513-4.817-13.65-8.806-21.062-12.06 c-33.748-14.816-74.715-17.705-110.797-11.009c-7.923,1.47-15.713,3.649-23.249,6.503c-7.663,2.902-15.091,6.433-22.125,10.639 c-6.867,4.106-13.73,8.79-18.971,14.906c-10.557,12.318-12.247,28.674-12.552,44.273c-0.358,18.315,0.118,36.657,1.317,54.935 c0.603,9.19,1.398,18.367,2.384,27.523c0.483,4.485,0.825,9.065,1.663,13.501c0.558,2.953,1.822,6.701,4.569,8.334 c2.705,1.608,6.285,1.859,9.325,2.254c4.75,0.618,9.537,0.955,14.318,1.23c13.006,0.749,26.004,0.774,39.023,0.774 c15.701,0,31.402,0,47.103,0c14.188,0,28.377,0,42.565,0c0.782,0,1.565,0,2.347,0c8.702,0.234,17.444-0.061,26.138-0.424 c5.189-0.216,10.379-0.497,15.552-0.958c3.964-0.353,8.039-0.684,11.906-1.67c1.162-0.296,2.353-0.683,3.355-1.35 c3.021-2.012,4.099-6.23,4.594-9.594c1.354-9.196,2.159-18.512,2.934-27.771c1.518-18.158,2.288-36.377,2.304-54.598 C326.323,219.898,326.869,202.558,319.439,187.941z" fill="#b0b1d9"/></g><g id="change1_2"><path d="M319.439,187.941c-3.644-7.168-9.373-12.783-15.773-17.518c-6.513-4.817-13.65-8.806-21.062-12.06 c-33.748-14.816-74.715-17.705-110.797-11.009c-7.923,1.47-15.713,3.649-23.249,6.503c-7.663,2.902-15.091,6.433-22.125,10.639 c-6.867,4.106-13.73,8.79-18.971,14.906c-10.557,12.318-12.247,28.674-12.552,44.273c-0.358,18.315,0.118,36.657,1.317,54.935 c0.603,9.19,1.398,18.367,2.384,27.523c0.483,4.485,0.825,9.065,1.663,13.501c0.558,2.953,1.822,6.701,4.569,8.334 c2.705,1.608,6.285,1.859,9.325,2.254c4.75,0.618,9.537,0.955,14.318,1.23c13.006,0.749,26.004,0.774,39.023,0.774 c15.701,0,31.402,0,47.103,0c14.188,0,28.377,0,42.565,0c0.782,0,1.565,0,2.347,0c8.702,0.234,17.444-0.061,26.138-0.424 c5.189-0.216,10.379-0.497,15.552-0.958c3.964-0.353,8.039-0.684,11.906-1.67c1.162-0.296,2.353-0.683,3.355-1.35 c3.021-2.012,4.099-6.23,4.594-9.594c1.354-9.196,2.159-18.512,2.934-27.771c1.518-18.158,2.288-36.377,2.304-54.598 C326.323,219.898,326.869,202.558,319.439,187.941z" fill="#b0b1d9"/></g><g id="change2_1"><path d="M332.018,192.302c-5.047-16.603-21.71-29.487-37.611-37.4c-24.867-12.376-52.503-18.684-80.191-19.779 c-26.488-1.047-56.241,1.363-80.652,12.245c-22.684,10.112-43.098,28.499-45.843,54.428c-0.442,4.176-0.067,8.624,2.397,12.166 c2.306,3.315,5.603,5.641,9.293,7.195c7.227,3.044,15.448,2.729,22.561-0.47c3.979-1.79,7.366-4.647,9.975-8.107 c2.393,4.947,6.36,9.144,11.497,11.543c6.274,2.931,13.419,3.407,20.098,1.634c6.855-1.819,12.703-6.031,16.993-11.621 c0.97-1.264,1.826-2.597,2.612-3.966c2.215,5.226,5.971,9.792,10.929,12.689c10.344,6.042,24.736,3.958,32.936-4.787 c1.644-1.753,3.015-3.692,4.17-5.753c2.62,6.096,7.506,11.238,13.77,13.855c6.01,2.511,12.919,2.737,19.152,0.892 c6.434-1.904,11.806-5.952,15.742-11.339c1.443-1.974,2.625-4.133,3.577-6.392c5.292,10.666,15.407,18.998,27.53,20.177 c4.729,0.46,9.496-0.72,13.248-3.672c3.412-2.684,5.618-6.558,7.061-10.595C334.21,206.996,334.151,199.317,332.018,192.302z" fill="#fff0a6"/></g><g id="change3_1"><path d="M113.498,201.6l0.696,1.41c0.38,0.769,1.114,1.302,1.963,1.426l1.556,0.226 c2.138,0.311,2.992,2.938,1.445,4.446l-1.126,1.097c-0.614,0.599-0.895,1.462-0.75,2.307l0.266,1.549 c0.365,2.129-1.87,3.753-3.782,2.748l-1.391-0.731c-0.759-0.399-1.666-0.399-2.426,0l-1.391,0.731 c-1.912,1.005-4.147-0.618-3.782-2.748l0.266-1.549c0.145-0.846-0.135-1.708-0.75-2.307l-1.126-1.097 c-1.547-1.508-0.693-4.135,1.445-4.446l1.556-0.226c0.849-0.123,1.583-0.657,1.963-1.426l0.696-1.41 C109.78,199.663,112.542,199.663,113.498,201.6z" fill="#f7bfd5"/></g><g id="change3_2"><path d="M158.457,201.6l0.696,1.41c0.38,0.769,1.114,1.302,1.963,1.426l1.556,0.226 c2.138,0.311,2.992,2.938,1.445,4.446l-1.126,1.097c-0.614,0.599-0.895,1.462-0.75,2.307l0.266,1.549 c0.365,2.129-1.87,3.753-3.782,2.748l-1.391-0.731c-0.759-0.399-1.666-0.399-2.426,0l-1.391,0.731 c-1.912,1.005-4.147-0.618-3.782-2.748l0.266-1.549c0.145-0.846-0.135-1.708-0.75-2.307l-1.126-1.097 c-1.547-1.508-0.693-4.135,1.445-4.446l1.556-0.226c0.849-0.123,1.583-0.657,1.963-1.426l0.696-1.41 C154.739,199.663,157.501,199.663,158.457,201.6z" fill="#f7bfd5"/></g><g id="change3_3"><path d="M210.845,201.6l0.696,1.41c0.38,0.769,1.114,1.302,1.963,1.426l1.556,0.226 c2.138,0.311,2.992,2.938,1.445,4.446l-1.126,1.097c-0.614,0.599-0.895,1.462-0.75,2.307l0.266,1.549 c0.365,2.129-1.87,3.753-3.782,2.748l-1.391-0.731c-0.759-0.399-1.666-0.399-2.426,0l-1.391,0.731 c-1.912,1.005-4.147-0.618-3.782-2.748l0.266-1.549c0.145-0.846-0.135-1.708-0.75-2.307l-1.126-1.097 c-1.547-1.508-0.693-4.135,1.445-4.446l1.556-0.226c0.849-0.123,1.583-0.657,1.962-1.426l0.696-1.41 C207.126,199.663,209.889,199.663,210.845,201.6z" fill="#f7bfd5"/></g><g id="change3_4"><path d="M255.804,201.6l0.696,1.41c0.38,0.769,1.114,1.302,1.963,1.426l1.556,0.226 c2.138,0.311,2.992,2.938,1.445,4.446l-1.126,1.097c-0.614,0.599-0.895,1.462-0.75,2.307l0.266,1.549 c0.365,2.129-1.87,3.753-3.782,2.748l-1.391-0.731c-0.759-0.399-1.666-0.399-2.426,0l-1.391,0.731 c-1.912,1.005-4.147-0.618-3.782-2.748l0.266-1.549c0.145-0.846-0.135-1.708-0.75-2.307l-1.126-1.097 c-1.547-1.508-0.693-4.135,1.445-4.446l1.556-0.226c0.849-0.123,1.583-0.657,1.963-1.426l0.696-1.41 C252.086,199.663,254.848,199.663,255.804,201.6z" fill="#f7bfd5"/></g><g id="change3_5"><path d="M312.101,201.6l0.696,1.41c0.38,0.769,1.114,1.302,1.963,1.426l1.556,0.226 c2.138,0.311,2.992,2.938,1.445,4.446l-1.126,1.097c-0.614,0.599-0.895,1.462-0.75,2.307l0.266,1.549 c0.365,2.129-1.87,3.753-3.782,2.748l-1.391-0.731c-0.759-0.399-1.666-0.399-2.426,0l-1.391,0.731 c-1.912,1.005-4.147-0.618-3.782-2.748l0.266-1.549c0.145-0.846-0.135-1.708-0.75-2.307l-1.126-1.097 c-1.547-1.508-0.693-4.135,1.445-4.446l1.556-0.226c0.849-0.123,1.583-0.657,1.962-1.426l0.696-1.41 C308.383,199.663,311.145,199.663,312.101,201.6z" fill="#f7bfd5"/></g><g id="change4_1"><path d="M337.688,336.242c2.033-2.793,2.94-6.249,2.026-9.65c-1.071-3.983-4.439-7.261-8.281-8.914 c-4.525-1.947-9.491-2.196-14.381-2.338c-10.213-0.297-20.425,0.318-30.624,0.744c-10.222,0.427-20.448,0.779-30.675,1.057 c-20.55,0.558-41.109,0.814-61.667,0.77c-20.558-0.045-41.116-0.39-61.663-1.037c-5.113-0.161-10.226-0.341-15.337-0.539 c-4.574-0.177-9.18-0.556-13.759-0.497c-7.047,0.09-15.808,2.029-17.838,9.576c-1.031,3.835,0.27,7.736,2.657,10.829H337.688z" fill="#d9eef6"/></g><g id="change5_1"><path d="M217.86,163.127c0.035-9.493-0.215-18.988-0.749-28.467c-0.305-5.416-0.707-10.827-1.195-16.23 c-0.081-0.902-0.688-1.623-1.645-1.645c-2.716-0.062-5.431-0.124-8.147-0.186c-0.923-0.021-1.599,0.772-1.645,1.645 c-0.841,16.029-1.263,32.078-1.266,48.129c0,0.605,0.273,1.032,0.657,1.291c0.153,0.121,0.332,0.225,0.551,0.295 c3.201,1.019,6.722,0.837,9.992,0.267c0.833-0.145,1.899-0.267,2.591-0.798C218.202,166.507,217.855,164.45,217.86,163.127z" fill="#96cfc2"/></g><g id="change2_2"><path d="M210.839,88.758c-0.342-0.242-0.896-0.138-1.176,0.152c-3.495,3.625-4.482,9.105-5.123,13.921 c-0.361,2.71-0.29,5.427,0.918,7.928c1.186,2.454,2.943,4.71,4.662,6.81c0.343,0.419,0.793,0.396,1.13,0.159 c0.286,0,0.562-0.147,0.725-0.503c2.311-5.041,4.672-10.262,4.74-15.913C216.773,96.45,214.888,91.619,210.839,88.758z" fill="#fff0a6"/></g><g id="change6_7"><path d="M199.851,166.291c0.338,1.381,2.545,1.697,3.7,2.015c1.71,0.471,3.467,0.774,5.234,0.93 c3.513,0.31,7.07-0.048,10.462-1.005c1.113-0.314,0.64-2.051-0.479-1.736c-2.879,0.812-5.849,1.163-8.839,1.019 c-1.45-0.07-2.888-0.254-4.308-0.555c-0.748-0.159-1.49-0.349-2.222-0.57c-0.314-0.095-0.626-0.195-0.936-0.3 c-0.207-0.07-0.413-0.143-0.618-0.219c-0.281-0.174-0.368-0.194-0.258-0.057C201.311,164.688,199.575,165.165,199.851,166.291 L199.851,166.291z" fill="#644394"/></g><g id="change6_8"><path d="M128.805,147.519c-15.18,10.937-30.366,23.462-37.477,41.328c-2.974,7.474-5.028,16.761-1.873,24.513 c3.282,8.065,11.941,10.505,19.951,10.689c7.962,0.183,17.126-2.187,21.157-9.714c0.547-1.021-1.007-1.931-1.554-0.908 c-3.408,6.363-10.897,8.613-17.681,8.817c-7.468,0.225-16.476-1.435-19.937-8.91c-3.307-7.143-1.34-16.016,1.298-23.038 c3.004-7.996,7.92-15.191,13.681-21.451c6.93-7.531,15.065-13.806,23.343-19.77C130.645,148.403,129.748,146.841,128.805,147.519 L128.805,147.519z" fill="#644394"/></g><g id="change6_9"><path d="M129.278,214.191c4.925,7.303,12.749,12.473,21.399,14.161c8.634,1.685,17.653-0.333,24.873-5.332 c4.05-2.804,7.459-6.439,9.928-10.706c0.581-1.004-0.974-1.912-1.554-0.908c-4.135,7.146-11.098,12.45-19.048,14.655 c-8.009,2.221-16.6,0.936-23.765-3.222c-4.093-2.376-7.631-5.63-10.279-9.557C130.188,212.328,128.628,213.227,129.278,214.191 L129.278,214.191z" fill="#644394"/></g><g id="change6_10"><path d="M186.922,217.256c3.878,6.223,11.159,9.381,18.255,9.998c7.593,0.66,15.198-1.728,21.082-6.553 c3.084-2.529,5.62-5.693,7.455-9.231c0.533-1.027-1.02-1.938-1.554-0.908c-3.977,7.669-11.326,13.16-19.864,14.621 c-8.511,1.456-19.008-1.115-23.819-8.834C187.864,215.367,186.307,216.269,186.922,217.256L186.922,217.256z" fill="#644394"/></g><g id="change6_11"><path d="M231.814,214.773c0.93,1.803,1.873,3.608,3.125,5.215c1.326,1.703,3.001,3.037,4.814,4.192 c3.559,2.268,7.62,3.742,11.795,4.333c8.109,1.147,16.433-1.215,22.795-6.358c3.924-3.172,6.858-7.351,9.739-11.443 c0.668-0.949-0.892-1.85-1.554-0.908c-2.39,3.395-4.802,6.815-7.843,9.669c-2.812,2.64-6.179,4.683-9.82,5.958 c-7.405,2.593-15.681,1.927-22.571-1.84c-1.917-1.048-3.802-2.292-5.281-3.916c-1.546-1.697-2.598-3.785-3.643-5.81 C232.837,212.835,231.284,213.744,231.814,214.773L231.814,214.773z" fill="#644394"/></g><g id="change6_12"><path d="M283.053,211.376c2.913,5.795,7.628,10.52,13.214,13.775c2.858,1.666,5.951,2.962,9.141,3.836 c3.569,0.978,7.352,1.582,11.015,0.792c6.344-1.369,11.687-5.886,14.989-11.354c3.55-5.879,4.735-12.796,3.815-19.566 c-0.546-4.019-1.795-7.907-3.547-11.559c-0.922-1.921-1.989-3.772-3.183-5.537c-1.14-1.685-2.331-3.385-4.106-4.45 c-0.996-0.597-1.902,0.958-0.909,1.554c1.561,0.936,2.586,2.496,3.579,3.98c0.948,1.417,1.815,2.888,2.591,4.406 c1.576,3.083,2.759,6.369,3.449,9.765c1.283,6.317,0.67,12.969-2.272,18.749c-2.628,5.164-6.979,9.592-12.497,11.585 c-6.369,2.299-13.718,0.144-19.523-2.857c-6.045-3.124-11.133-7.921-14.203-14.027 C284.087,209.432,282.534,210.342,283.053,211.376L283.053,211.376z" fill="#644394"/></g><g id="change6_13"><path d="M321.158,173.412c-8.586-10.532-21.669-16.133-33.681-21.744c-13.244-6.187-26.827-11.916-41.081-15.33 c-7.908-1.894-15.997-3.034-24.133-3.149c-1.159-0.016-1.159,1.784,0,1.8c14.441,0.204,28.544,3.758,42.026,8.755 c6.851,2.539,13.558,5.447,20.19,8.508c6.159,2.843,12.352,5.692,18.293,8.972c6.402,3.535,12.46,7.753,17.114,13.461 C320.617,175.583,321.884,174.303,321.158,173.412L321.158,173.412z" fill="#644394"/></g><g id="change6_14"><path d="M135.162,147.183c14.291-6.659,29.849-10.555,45.594-11.408c4.446-0.241,8.901-0.235,13.348-0.001 c1.158,0.061,1.154-1.739,0-1.8c-15.983-0.84-32.11,1.392-47.256,6.57c-4.287,1.465-8.488,3.171-12.594,5.085 C133.204,146.118,134.117,147.67,135.162,147.183L135.162,147.183z" fill="#644394"/></g><g id="change6_15"><path d="M204.73,165.096c-0.453-10.26-0.906-20.531-0.672-30.803c0.116-5.084,0.4-10.167,0.936-15.225 c0.058-0.545,0.051-1.18,0.191-1.713c-0.057-0.064-0.113-0.128-0.17-0.192c0.166,0,0.331,0,0.497,0 c0.29-0.051,0.688,0.001,0.994,0.001c1.325,0.001,2.651,0.002,3.976,0.003c0.663,0.001,1.325,0.001,1.988,0.002 c0.33,0,1.341-0.135,1.547,0.062c0.207,0.198,0.141,1.222,0.165,1.547c0.054,0.743,0.108,1.486,0.161,2.23 c0.418,5.864,0.798,11.73,1.143,17.599c0.068,1.151,1.868,1.159,1.8,0c-0.34-5.786-0.714-11.57-1.125-17.351 c-0.097-1.367-0.115-2.77-0.307-4.128c-0.135-0.956-0.541-1.568-1.534-1.738c-1.209-0.206-2.614-0.022-3.838-0.023 c-1.491-0.001-2.982-0.002-4.473-0.003c-0.832-0.001-1.826-0.148-2.324,0.67c-0.584,0.961-0.458,2.679-0.568,3.769 c-0.281,2.775-0.487,5.557-0.633,8.342c-0.3,5.739-0.341,11.489-0.245,17.235c0.11,6.576,0.399,13.147,0.689,19.716 C202.981,166.249,204.781,166.256,204.73,165.096L204.73,165.096z" fill="#644394"/></g><g id="change6_16"><path d="M218.587,164.149c0.034-3.289-0.052-6.578-0.257-9.86c-0.072-1.151-1.872-1.159-1.8,0 c0.205,3.283,0.291,6.571,0.257,9.86C216.775,165.308,218.575,165.309,218.587,164.149L218.587,164.149z" fill="#644394"/></g><g id="change6_17"><path d="M210.61,114.199c-3.255-2.988-4.802-7.34-4.774-11.707c0.032-4.98,2.022-9.694,4.578-13.881 c-0.518,0-1.036,0-1.554,0c1.121,1.707,3.059,2.563,4.127,4.332c1.248,2.066,1.666,4.599,1.73,6.977 c0.139,5.153-1.533,10.15-3.261,14.936c-0.394,1.091,1.345,1.561,1.736,0.479c1.832-5.073,3.572-10.408,3.309-15.873 c-0.111-2.31-0.54-4.669-1.586-6.749c-0.465-0.925-1.076-1.796-1.82-2.518c-0.877-0.852-1.996-1.452-2.679-2.491 c-0.371-0.565-1.19-0.597-1.554,0c-2.782,4.557-4.898,9.752-4.822,15.173c0.065,4.694,1.803,9.387,5.3,12.597 C210.189,116.254,211.466,114.984,210.61,114.199L210.61,114.199z" fill="#644394"/></g><g id="change6_18"><path d="M102.318,317.923c-3.646-17.348-5.347-35.06-5.087-52.784c0.017-1.159-1.783-1.159-1.8,0 c-0.262,17.882,1.473,35.762,5.151,53.263C100.821,319.534,102.556,319.055,102.318,317.923L102.318,317.923z" fill="#644394"/></g><g id="change6_19"><path d="M97.08,258.005c-1.679-12.601-2.477-25.304-2.388-38.016c0.008-1.159-1.792-1.16-1.8,0 c-0.089,12.712,0.709,25.415,2.388,38.016C95.431,259.137,97.233,259.152,97.08,258.005L97.08,258.005z" fill="#644394"/></g><g id="change6_20"><path d="M321.334,318.485c0.366-8.408,2.176-16.655,3.251-24.983c1.082-8.38,1.601-16.824,1.582-25.273 c-0.003-1.158-1.803-1.16-1.8,0c0.018,8.448-0.497,16.894-1.582,25.273c-1.079,8.329-2.885,16.573-3.251,24.983 C319.483,319.643,321.283,319.641,321.334,318.485L321.334,318.485z" fill="#644394"/></g><g id="change6_21"><path d="M326.118,245.06c0.011-6.185,0.217-12.368,0.618-18.54c0.075-1.157-1.725-1.152-1.8,0 c-0.401,6.172-0.608,12.355-0.618,18.54C324.316,246.218,326.116,246.22,326.118,245.06L326.118,245.06z" fill="#644394"/></g><g id="change6_22"><path d="M88.524,335.049c-2.115-4.379-0.998-9.92,2.305-13.412c4.426-4.679,11.511-3.802,17.352-3.657 c14.291,0.357,28.587,0.544,42.883,0.561c8.145,0.01,16.291-0.037,24.435-0.137c1.157-0.014,1.161-1.814,0-1.8 c-15.458,0.189-30.919,0.184-46.377-0.023c-7.646-0.102-15.291-0.253-22.935-0.453c-5.983-0.156-12.663-0.314-16.955,4.59 c-3.624,4.14-4.674,10.246-2.262,15.238C87.473,337.001,89.026,336.089,88.524,335.049L88.524,335.049z" fill="#644394"/></g><g id="change6_23"><path d="M184.295,319.087c19.015-0.977,38.03-1.954,57.045-2.931c5.457-0.28,10.913-0.561,16.37-0.841 c1.153-0.059,1.16-1.86,0-1.8c-19.015,0.977-38.03,1.954-57.045,2.931c-5.457,0.28-10.913,0.561-16.37,0.841 C183.143,317.346,183.136,319.146,184.295,319.087L184.295,319.087z" fill="#644394"/></g><g id="change6_24"><path d="M264.829,318.057c11.892-0.887,23.801-1.528,35.719-1.913c5.918-0.191,11.844-0.362,17.766-0.382 c5.175-0.017,10.716,0.333,15.009,3.559c2.189,1.645,3.72,3.931,4.241,6.632c0.6,3.11-0.029,6.334-0.7,9.377 c-0.249,1.129,1.486,1.611,1.736,0.479c1.118-5.071,1.883-10.732-1.442-15.176c-3.012-4.025-7.941-5.827-12.775-6.398 c-6.119-0.722-12.476-0.205-18.619-0.044c-6.374,0.166-12.746,0.405-19.115,0.716c-7.279,0.355-14.552,0.807-21.819,1.349 C263.681,316.343,263.671,318.143,264.829,318.057L264.829,318.057z" fill="#644394"/></g><g id="change6_25"><path d="M92.342,336.643c16.89,0.716,33.793,1.139,50.698,1.262c16.988,0.123,33.978-0.054,50.96-0.533 c9.526-0.268,19.05-0.633,28.569-1.089c1.153-0.055,1.16-1.856,0-1.8c-16.886,0.809-33.786,1.326-50.69,1.542 c-16.987,0.217-33.978,0.134-50.962-0.251c-9.528-0.216-19.053-0.528-28.575-0.931C91.184,334.794,91.186,336.594,92.342,336.643 L92.342,336.643z" fill="#644394"/></g><g id="change6_26"><path d="M230.808,337.133c6.465-0.839,12.983-0.995,19.495-1.049c6.479-0.053,12.958-0.061,19.437-0.034 c13.146,0.055,26.291,0.267,39.432,0.636c7.485,0.21,14.969,0.473,22.451,0.784c1.158,0.048,1.156-1.752,0-1.8 c-26.27-1.092-52.565-1.564-78.857-1.403c-7.332,0.045-14.677,0.121-21.959,1.066 C229.675,335.48,229.661,337.281,230.808,337.133L230.808,337.133z" fill="#644394"/></g><g id="change6_27"><path d="M104.996,209.438c-0.65-0.39-1.424-0.828-1.755-1.549c-0.359-0.78,0.016-1.322,0.78-1.513 c1.419-0.355,2.625-0.411,3.619-1.626c0.803-0.982,1.161-2.232,1.932-3.228c0.866-1.118,2.356-1.11,3.281-0.022 c0.471,0.554,0.577,1.308,0.919,1.936c0.41,0.754,1.058,1.246,1.841,1.569c1.286,0.53,3.629,0.72,3.892,2.456 c0.129,0.852-0.509,1.188-1.162,1.523c-0.691,0.355-1.362,0.736-1.797,1.405c-0.902,1.385-0.337,2.95-0.507,4.462 c-0.098,0.87-0.471,1.532-1.458,1.283c-0.946-0.239-1.714-0.933-2.68-1.148c-0.999-0.222-1.95,0.068-2.877,0.429 c-0.459,0.179-0.927,0.383-1.42,0.447c-0.296,0.038-1.215,0.005-1.138-0.534c0.162-1.133-1.572-1.622-1.736-0.479 c-0.347,2.43,2.168,3.195,4.084,2.562c1.248-0.412,2.177-0.995,3.47-0.367c1.005,0.487,1.983,1.098,3.151,0.928 c2.088-0.304,2.495-2.52,2.392-4.281c-0.056-0.965-0.23-2.108,0.663-2.741c0.801-0.568,1.761-0.793,2.348-1.646 c1.26-1.83-0.07-4.066-1.793-4.969c-0.907-0.475-1.923-0.609-2.846-1.026c-1.097-0.496-1.104-1.729-1.721-2.632 c-1.028-1.505-3.123-2.293-4.828-1.505c-1.543,0.713-2.127,2.346-2.921,3.721c-0.558,0.967-1.149,1.396-2.255,1.584 c-0.995,0.169-1.997,0.345-2.647,1.2c-1.599,2.103,0.52,4.274,2.256,5.317C105.083,211.59,105.989,210.035,104.996,209.438 L104.996,209.438z" fill="#644394"/></g><g id="change6_28"><path d="M154.365,199.756c-1.409,0.811-1.546,2.716-2.98,3.413c-1.287,0.626-2.842,0.704-3.742,1.964 c-1.137,1.592-0.221,3.504,0.924,4.789c0.421,0.472,0.65,0.689,0.508,1.345c-0.097,0.45-0.252,0.884-0.336,1.339 c-0.178,0.967-0.221,1.976,0.132,2.91c0.553,1.462,2.257,2.56,3.81,1.987c0.841-0.31,1.297-1.359,2.224-1.386 c1-0.029,1.873,0.698,2.714,1.14c1.495,0.785,3.609,1.118,4.717-0.491c0.505-0.734,0.576-1.663,0.485-2.523 c-0.094-0.886-0.558-1.999-0.137-2.849c0.416-0.839,1.598-1.22,2.219-1.895c0.634-0.689,0.939-1.614,0.855-2.544 c-0.187-2.071-2.247-3.327-4.2-2.796c-1.117,0.304-0.643,2.04,0.479,1.736c1.544-0.42,2.575,1.372,1.435,2.493 c-0.962,0.946-2.242,1.344-2.619,2.791c-0.186,0.715-0.103,1.449,0.011,2.167c0.107,0.679,0.423,1.668,0.042,2.318 c-0.796,1.359-2.969-0.345-3.825-0.765c-1.349-0.662-2.956-0.887-4.171,0.17c-0.439,0.382-0.757,0.944-1.412,0.737 c-0.697-0.22-1.027-0.907-1.093-1.585c-0.152-1.575,1.093-3.144,0.206-4.639c-0.542-0.913-2.465-2.279-1.438-3.493 c0.379-0.448,1.072-0.611,1.602-0.784c0.63-0.206,1.29-0.408,1.855-0.765c0.614-0.388,1.056-0.922,1.42-1.544 c0.349-0.597,0.596-1.322,1.222-1.682C156.277,200.733,155.372,199.177,154.365,199.756L154.365,199.756z" fill="#644394"/></g><g id="change6_29"><path d="M202.065,211.443c-0.286,1.765-0.437,3.899,1.238,5.055c1.607,1.109,3.188-0.019,4.78-0.465 c1.636-0.458,2.928,1.027,4.407,1.472c1.476,0.444,2.997-0.144,3.703-1.532c0.312-0.614,0.461-1.331,0.42-2.019 c-0.051-0.863-0.514-1.419-0.735-2.213c-0.232-0.83,0.779-1.423,1.307-1.885c0.63-0.551,1.144-1.198,1.336-2.028 c0.333-1.435-0.229-3.05-1.428-3.918c-0.671-0.486-1.501-0.677-2.321-0.684c-0.442-0.004-0.918,0.162-1.35,0.137 c-0.435-0.025-0.033,0.133-0.15-0.053c-0.106-0.169-0.082-0.491-0.101-0.682c-0.186-1.818-1.345-3.277-3.21-3.604 c-1.984-0.348-3.809,0.854-4.837,2.476c-0.622,0.981,0.935,1.885,1.554,0.908c0.693-1.093,2.029-2.012,3.361-1.507 c1.473,0.557,1.136,1.768,1.523,2.982c0.168,0.529,0.515,0.975,1.04,1.176c0.626,0.24,1.249,0.006,1.89-0.025 c1.281-0.063,2.404,0.661,2.321,2.057c-0.079,1.318-1.648,1.897-2.313,2.909c-0.362,0.551-0.546,1.205-0.443,1.861 c0.1,0.635,0.511,1.132,0.685,1.737c0.264,0.92-0.15,2.297-1.286,2.265c-1.171-0.033-2.264-1.093-3.341-1.49 c-1.499-0.553-2.745,0.033-4.143,0.552c-0.718,0.266-1.5,0.475-1.995-0.275c-0.52-0.787-0.318-1.857-0.177-2.725 C203.985,210.788,202.251,210.301,202.065,211.443L202.065,211.443z" fill="#644394"/></g><g id="change6_30"><path d="M252.894,199.449c-0.856-0.047-1.566,0.446-2.013,1.149c-0.418,0.656-0.433,1.932-1.081,2.392 c-0.302,0.214-0.787,0.239-1.144,0.305c-0.541,0.1-1.086,0.189-1.614,0.346c-0.887,0.264-1.742,0.683-2.363,1.385 c-1.212,1.369-1.148,3.185,0.138,4.46c0.487,0.482,1.096,0.841,1.551,1.355c0.617,0.698,0.131,1.459,0.001,2.268 c-0.295,1.845,0.599,4.062,2.686,4.271c0.81,0.081,1.553-0.229,2.244-0.626c0.749-0.429,1.406-0.921,2.283-0.565 c0.765,0.31,1.409,0.858,2.186,1.153c0.868,0.33,1.82,0.326,2.649-0.128c0.71-0.389,1.272-1.044,1.516-1.818 c0.317-1.006-0.074-1.921-0.173-2.915c-0.11-1.107,0.74-1.709,1.386-2.475c0.624-0.741,1.054-1.561,1.121-2.542 c0.149-2.196-1.56-3.867-3.653-4.089c-1.151-0.122-1.142,1.679,0,1.8c1.55,0.164,2.332,1.906,1.522,3.202 c-0.731,1.171-1.958,1.869-2.154,3.348c-0.162,1.221,1.032,3.358-0.579,3.975c-1.177,0.451-2.532-1.046-3.632-1.342 c-1.451-0.39-2.45,0.403-3.677,1.008c-0.68,0.335-1.344,0.284-1.759-0.432c-0.449-0.774-0.161-1.634,0.033-2.429 c0.331-1.355-0.093-2.413-1.125-3.313c-0.765-0.668-2.121-1.393-1.488-2.588c0.871-1.645,3.183-1.268,4.645-1.91 c0.722-0.317,1.17-0.892,1.453-1.613c0.191-0.487,0.344-1.87,1.042-1.832C254.051,201.312,254.048,199.512,252.894,199.449 L252.894,199.449z" fill="#644394"/></g><g id="change6_31"><path d="M307.737,200.942c-0.642,0.094-1.068,0.562-1.385,1.095c-0.124,0.209-0.209,0.455-0.358,0.648 c-0.299,0.388-0.693,0.365-1.16,0.447c-1.509,0.265-3.539,0.649-4.514,1.962c-1.104,1.486-0.411,3.423,0.769,4.625 c0.267,0.272,0.565,0.511,0.865,0.746c0.26,0.205,0.899,0.511,1.049,0.825c0.184,0.385-0.178,1.28-0.237,1.661 c-0.079,0.505-0.133,1.013-0.096,1.524c0.108,1.473,1.101,3.043,2.697,3.157c1.644,0.118,2.799-1.73,4.407-1.178 c1.686,0.579,3.179,2.132,5.095,1.299c1.349-0.586,1.873-2.055,1.891-3.438c0.013-0.946-0.454-1.931,0.11-2.779 c0.574-0.862,1.307-1.51,1.697-2.5c0.801-2.03-0.333-3.608-1.86-4.857c-0.889-0.728-2.17,0.539-1.273,1.273 c0.496,0.406,1.05,0.826,1.378,1.387c0.425,0.725,0.193,1.454-0.219,2.127c-0.764,1.247-1.919,2.045-1.809,3.656 c0.068,0.993,0.559,2.581-0.39,3.345c-1.069,0.86-2.996-0.824-4.008-1.199c-1.366-0.506-2.485-0.114-3.673,0.594 c-0.454,0.271-0.979,0.651-1.513,0.38c-0.615-0.312-0.754-1.139-0.741-1.749c0.032-1.457,0.948-2.979-0.358-4.137 c-0.925-0.82-2.838-1.753-2.515-3.282c0.17-0.807,1.167-1.058,1.848-1.263c0.799-0.241,1.605-0.361,2.418-0.531 c0.677-0.141,1.203-0.461,1.597-1.034c0.212-0.309,0.392-1.013,0.767-1.068C309.357,202.511,308.872,200.776,307.737,200.942 L307.737,200.942z" fill="#644394"/></g><g id="change6_32"><path d="M104.432,188.04c5.352-15.386,18.492-26.481,32.483-33.944c1.022-0.545,0.114-2.1-0.908-1.554 c-11.27,6.012-21.842,14.219-28.639,25.197c-1.915,3.092-3.477,6.388-4.671,9.823 C102.315,188.658,104.054,189.129,104.432,188.04L104.432,188.04z" fill="#644394"/></g><g id="change6_33"><path d="M146.982,150.375c0.953-0.389,1.907-0.778,2.86-1.166c0.226-0.092,0.41-0.195,0.538-0.414 c0.113-0.193,0.161-0.477,0.091-0.693c-0.07-0.218-0.205-0.428-0.414-0.538c-0.199-0.105-0.474-0.18-0.694-0.091 c-0.953,0.389-1.907,0.778-2.86,1.166c-0.226,0.092-0.41,0.195-0.538,0.414c-0.113,0.193-0.161,0.477-0.091,0.694 c0.07,0.218,0.205,0.428,0.414,0.538C146.488,150.39,146.763,150.464,146.982,150.375L146.982,150.375z" fill="#644394"/></g><g id="change6_34"><path d="M131.221,167.033c0.219-0.235,0.448-0.46,0.688-0.673c0.12-0.107,0.242-0.21,0.367-0.311 c0.028-0.022,0.056-0.044,0.084-0.067c0.124-0.099-0.123,0.092-0.034,0.026c0.064-0.048,0.128-0.096,0.193-0.143 c0.52-0.377,1.076-0.702,1.657-0.975c0.194-0.091,0.359-0.339,0.414-0.538c0.059-0.215,0.033-0.502-0.091-0.693 c-0.284-0.44-0.774-0.538-1.231-0.323c-1.244,0.584-2.382,1.421-3.32,2.425c-0.322,0.344-0.366,0.936,0,1.273 C130.298,167.354,130.878,167.4,131.221,167.033L131.221,167.033z" fill="#644394"/></g><g id="change6_35"><path d="M121.854,180.634c0.392-0.558,0.783-1.115,1.175-1.673c0.128-0.182,0.148-0.487,0.091-0.693 c-0.057-0.209-0.219-0.435-0.414-0.538c-0.209-0.11-0.462-0.166-0.693-0.091c-0.072,0.03-0.143,0.06-0.215,0.091 c-0.135,0.08-0.243,0.188-0.323,0.323c-0.392,0.558-0.783,1.115-1.175,1.673c-0.128,0.182-0.148,0.487-0.091,0.694 c0.057,0.209,0.219,0.435,0.414,0.538c0.209,0.11,0.462,0.166,0.694,0.091c0.072-0.03,0.143-0.06,0.215-0.091 C121.667,180.876,121.774,180.769,121.854,180.634L121.854,180.634z" fill="#644394"/></g><g id="change6_36"><path d="M279.115,159.88c15.744,3.25,29.698,13.373,37.645,27.352c0.572,1.007,2.128,0.101,1.554-0.909 c-6.331-11.137-16.407-19.968-28.211-24.922c-3.392-1.423-6.907-2.514-10.509-3.257 C278.462,157.911,277.979,159.646,279.115,159.88L279.115,159.88z" fill="#644394"/></g><g id="change6_37"><path d="M322.062,197.036c0.104,0.186,0.197,0.376,0.28,0.571c-0.03-0.072-0.06-0.143-0.091-0.215 c0.197,0.471,0.331,0.964,0.4,1.47c-0.011-0.08-0.021-0.16-0.032-0.239c0.014,0.112,0.026,0.225,0.034,0.338 c0.018,0.241,0.088,0.461,0.264,0.636c0.156,0.156,0.412,0.274,0.636,0.264c0.233-0.01,0.474-0.087,0.636-0.264 c0.155-0.168,0.281-0.4,0.264-0.636c-0.074-0.999-0.348-1.957-0.837-2.833c-0.23-0.411-0.828-0.583-1.231-0.323 C321.969,196.073,321.817,196.595,322.062,197.036L322.062,197.036z" fill="#644394"/></g><g id="change6_38"><path d="M304.246,181.109c0.309,0.402,0.618,0.804,0.926,1.207c0.057,0.105,0.134,0.189,0.232,0.253 c0.087,0.08,0.189,0.133,0.306,0.161c0.12,0.038,0.239,0.043,0.359,0.016c0.12-0.005,0.231-0.041,0.335-0.107 c0.192-0.124,0.361-0.308,0.414-0.538c0.011-0.08,0.021-0.16,0.032-0.239c-0.001-0.162-0.041-0.314-0.123-0.454 c-0.309-0.402-0.618-0.804-0.926-1.207c-0.057-0.105-0.134-0.189-0.232-0.253c-0.087-0.08-0.189-0.133-0.306-0.161 c-0.12-0.038-0.239-0.043-0.359-0.016c-0.12,0.005-0.231,0.041-0.335,0.107c-0.192,0.124-0.361,0.308-0.414,0.538 c-0.011,0.08-0.021,0.16-0.032,0.239C304.124,180.818,304.165,180.969,304.246,181.109L304.246,181.109z" fill="#644394"/></g><g id="change6_39"><path d="M108.946,307.068c-1.826-10.334-3.365-20.717-4.61-31.137c-0.136-1.136-1.937-1.15-1.8,0 c1.264,10.58,2.821,21.123,4.675,31.615C107.411,308.685,109.146,308.203,108.946,307.068L108.946,307.068z" fill="#644394"/></g><g id="change6_40"><path d="M103.451,264.783c-0.169-1.583-0.338-3.166-0.506-4.749c-0.05-0.467-0.378-0.923-0.9-0.9 c-0.445,0.02-0.953,0.399-0.9,0.9c0.169,1.583,0.338,3.166,0.506,4.749c0.05,0.467,0.378,0.923,0.9,0.9 C102.995,265.664,103.504,265.285,103.451,264.783L103.451,264.783z" fill="#644394"/></g><g id="change6_41"><path d="M102.507,245.765c-0.085-0.474-0.17-0.948-0.255-1.423c-0.028-0.117-0.082-0.219-0.161-0.306 c-0.063-0.098-0.148-0.175-0.253-0.232c-0.193-0.113-0.477-0.161-0.694-0.091c-0.218,0.07-0.428,0.205-0.538,0.414 c-0.03,0.072-0.06,0.143-0.091,0.215c-0.043,0.16-0.043,0.319,0,0.479c0.085,0.474,0.17,0.948,0.255,1.423 c0.028,0.117,0.082,0.219,0.161,0.306c0.063,0.098,0.148,0.175,0.253,0.232c0.193,0.113,0.477,0.161,0.694,0.091 c0.218-0.07,0.428-0.205,0.538-0.414c0.03-0.072,0.06-0.143,0.091-0.215C102.549,246.084,102.549,245.925,102.507,245.765 L102.507,245.765z" fill="#644394"/></g><g id="change6_42"><path d="M111.098,272.62c-0.096-0.79-0.192-1.58-0.288-2.37c-0.03-0.247-0.081-0.453-0.264-0.636 c-0.156-0.156-0.412-0.274-0.636-0.264c-0.233,0.01-0.474,0.087-0.636,0.264c-0.15,0.164-0.292,0.405-0.264,0.636 c0.096,0.79,0.192,1.58,0.288,2.37c0.03,0.247,0.081,0.453,0.264,0.636c0.156,0.156,0.412,0.274,0.636,0.264 c0.233-0.01,0.474-0.087,0.636-0.264C110.984,273.093,111.126,272.851,111.098,272.62L111.098,272.62z" fill="#644394"/></g><g id="change6_43"><path d="M309.731,295.685c2.245-11.506,4.155-23.075,5.729-34.693c0.154-1.133-1.581-1.623-1.736-0.478 c-1.574,11.617-3.485,23.186-5.729,34.692C307.775,296.339,309.509,296.823,309.731,295.685L309.731,295.685z" fill="#644394"/></g><g id="change6_44"><path d="M317.029,249.099c0.179-1.185,0.359-2.37,0.538-3.555c0.038-0.248,0.041-0.468-0.091-0.694 c-0.109-0.187-0.323-0.365-0.538-0.414c-0.429-0.098-1.032,0.131-1.107,0.629c-0.179,1.185-0.359,2.37-0.538,3.555 c-0.038,0.248-0.041,0.468,0.091,0.694c0.109,0.187,0.323,0.365,0.538,0.414C316.351,249.825,316.954,249.596,317.029,249.099 L317.029,249.099z" fill="#644394"/></g><g id="change6_45"><path d="M308.763,240.07c0-0.554,0-1.109,0-1.663c0-0.231-0.1-0.473-0.264-0.636 c-0.156-0.156-0.412-0.274-0.636-0.264c-0.233,0.01-0.474,0.087-0.636,0.264c-0.162,0.176-0.264,0.393-0.264,0.636 c0,0.554,0,1.109,0,1.663c0,0.231,0.1,0.473,0.264,0.636c0.156,0.156,0.412,0.274,0.636,0.264 c0.233-0.01,0.474-0.087,0.636-0.264C308.661,240.53,308.763,240.314,308.763,240.07L308.763,240.07z" fill="#644394"/></g><g id="change6_46"><path d="M283.022,221.092c1.104,7.379,7.247,12.99,14.625,13.685c1.153,0.109,1.145-1.692,0-1.8 c-6.637-0.626-11.91-5.823-12.889-12.364c-0.072-0.484-0.678-0.742-1.107-0.629C283.134,220.121,282.95,220.613,283.022,221.092 L283.022,221.092z" fill="#644394"/></g><g id="change6_47"><path d="M184.274,222.497c0.57,2.386,2.333,4.416,4.066,6.08c1.779,1.708,3.835,3.142,6.05,4.223 c4.404,2.15,9.301,2.937,14.15,2.239c1.142-0.164,0.656-1.899-0.479-1.736c-4.33,0.623-8.837-0.142-12.763-2.058 c-1.925-0.94-3.723-2.135-5.303-3.583c-1.659-1.521-3.45-3.4-3.986-5.644C185.74,220.892,184.004,221.369,184.274,222.497 L184.274,222.497z" fill="#644394"/></g><g id="change6_48"><path d="M173.161,145.986c3.239-0.943,6.579-1.37,9.95-1.275c1.159,0.033,1.158-1.767,0-1.8 c-3.52-0.099-7.048,0.355-10.429,1.339C171.572,144.574,172.044,146.311,173.161,145.986L173.161,145.986z" fill="#644394"/></g><g id="change6_49"><path d="M208.01,158.327c0-1.743,0-3.485,0-5.228c0-0.471-0.414-0.922-0.9-0.9c-0.488,0.022-0.9,0.395-0.9,0.9 c0,1.743,0,3.485,0,5.228c0,0.471,0.414,0.922,0.9,0.9C207.598,159.206,208.01,158.832,208.01,158.327L208.01,158.327z" fill="#644394"/></g><g id="change6_50"><path d="M210.862,139.793c0-0.792,0-1.584,0-2.376c0-0.471-0.414-0.922-0.9-0.9c-0.488,0.022-0.9,0.395-0.9,0.9 c0,0.792,0,1.584,0,2.376c0,0.471,0.414,0.922,0.9,0.9C210.45,140.671,210.862,140.297,210.862,139.793L210.862,139.793z" fill="#644394"/></g><g id="change6_1"><path d="M208.298,308.092c11.248,0.062,22.495,0.125,33.743,0.187c1.158,0.006,1.16-1.794,0-1.8 c-11.248-0.062-22.495-0.124-33.743-0.187C207.139,306.286,207.138,308.086,208.298,308.092L208.298,308.092z" fill="#644394"/></g><g id="change6_54"><path d="M278.162,308.406c1.865,0.434,3.788,0.617,5.7,0.521c0.469-0.024,0.923-0.397,0.9-0.9 c-0.021-0.467-0.396-0.925-0.9-0.9c-1.813,0.091-3.5-0.056-5.222-0.457c-0.458-0.107-0.996,0.142-1.107,0.629 C277.429,307.759,277.672,308.292,278.162,308.406L278.162,308.406z" fill="#644394"/></g><g id="change6_55"><path d="M300.488,307.984c0.396,0.081,0.792,0.161,1.187,0.242c0.12,0.038,0.239,0.043,0.359,0.016 c0.12-0.005,0.231-0.041,0.335-0.107c0.105-0.057,0.189-0.134,0.253-0.232c0.08-0.087,0.133-0.189,0.161-0.306 c0.052-0.23,0.041-0.489-0.091-0.694c-0.122-0.189-0.309-0.367-0.538-0.414c-0.396-0.081-0.792-0.161-1.187-0.242 c-0.12-0.038-0.239-0.043-0.359-0.016c-0.12,0.005-0.231,0.041-0.335,0.107c-0.105,0.057-0.189,0.134-0.253,0.232 c-0.08,0.087-0.133,0.189-0.161,0.306c-0.052,0.23-0.041,0.489,0.091,0.694C300.072,307.76,300.259,307.937,300.488,307.984 L300.488,307.984z" fill="#644394"/></g><g id="change6_4"><path d="M127.983,306.736c3.722,0.107,7.444,0.215,11.166,0.322c1.159,0.033,1.158-1.767,0-1.8 c-3.722-0.107-7.444-0.215-11.166-0.322C126.825,304.903,126.826,306.703,127.983,306.736L127.983,306.736z" fill="#644394"/></g><g id="change6_5"><path d="M157.209,308.455c0.475,0,0.951,0,1.426,0c0.231,0,0.473-0.1,0.636-0.264 c0.156-0.156,0.274-0.412,0.264-0.636c-0.01-0.233-0.087-0.474-0.264-0.636c-0.176-0.162-0.393-0.264-0.636-0.264 c-0.475,0-0.951,0-1.426,0c-0.231,0-0.473,0.1-0.636,0.264c-0.156,0.156-0.274,0.412-0.264,0.636 c0.01,0.233,0.087,0.474,0.264,0.636C156.749,308.353,156.966,308.455,157.209,308.455L157.209,308.455z" fill="#644394"/></g><g id="change6_3"><path d="M141.526,299.188c0.951,0,1.901,0,2.851,0c0.471,0,0.922-0.414,0.9-0.9c-0.022-0.488-0.395-0.9-0.9-0.9 c-0.95,0-1.901,0-2.851,0c-0.471,0-0.922,0.414-0.9,0.9C140.648,298.775,141.022,299.188,141.526,299.188L141.526,299.188z" fill="#644394"/></g><g id="change6_51"><path d="M99.706,330.298c10.594,0.779,21.224,0.89,31.832,0.333c1.152-0.06,1.16-1.861,0-1.8 c-10.607,0.557-21.238,0.446-31.832-0.333C98.55,328.413,98.556,330.214,99.706,330.298L99.706,330.298z" fill="#644394"/></g><g id="change6_6"><path d="M142.712,331c0.379,0.154,0.769,0.227,1.174,0.275c0.406,0.048,0.802,0.012,1.205-0.048 c0.208-0.031,0.437-0.241,0.538-0.414c0.113-0.193,0.161-0.477,0.091-0.694c-0.07-0.218-0.205-0.428-0.414-0.538 c-0.072-0.03-0.143-0.06-0.215-0.091c-0.16-0.043-0.319-0.043-0.479,0c-0.023,0.004-0.046,0.007-0.068,0.01 c0.08-0.011,0.16-0.021,0.239-0.032c-0.321,0.042-0.645,0.04-0.966-0.002c0.08,0.011,0.16,0.021,0.239,0.032 c-0.298-0.043-0.588-0.121-0.866-0.234c-0.202-0.082-0.514-0.014-0.693,0.091c-0.187,0.109-0.365,0.323-0.414,0.538 c-0.052,0.23-0.041,0.489,0.091,0.694c0.047,0.061,0.094,0.121,0.141,0.182C142.427,330.88,142.559,330.957,142.712,331 L142.712,331z" fill="#644394"/></g><g id="change6_52"><path d="M153.17,331.505c0.079,0,0.158,0,0.238,0c0.124,0.005,0.24-0.021,0.347-0.078 c0.112-0.036,0.208-0.098,0.29-0.186c0.088-0.082,0.15-0.178,0.186-0.29c0.056-0.107,0.082-0.223,0.078-0.347 c-0.011-0.08-0.021-0.159-0.032-0.239c-0.043-0.152-0.12-0.285-0.231-0.397c-0.061-0.047-0.121-0.094-0.182-0.141 c-0.14-0.081-0.292-0.122-0.454-0.123c-0.079,0-0.158,0-0.238,0c-0.124-0.005-0.24,0.021-0.347,0.078 c-0.112,0.036-0.208,0.098-0.29,0.186c-0.088,0.082-0.15,0.178-0.186,0.29c-0.056,0.107-0.082,0.223-0.077,0.347 c0.011,0.08,0.021,0.16,0.032,0.239c0.043,0.152,0.12,0.285,0.231,0.397c0.061,0.047,0.121,0.094,0.182,0.141 C152.856,331.463,153.007,331.504,153.17,331.505L153.17,331.505z" fill="#644394"/></g><g id="change6_2"><path d="M299.31,322.681c5.035-0.742,10.117-1.121,15.206-1.159c1.158-0.009,1.16-1.809,0-1.8 c-5.253,0.039-10.488,0.457-15.685,1.223C297.69,321.114,298.175,322.849,299.31,322.681L299.31,322.681z" fill="#644394"/></g><g id="change6_53"><path d="M324.958,325.091c1.039,0.371,2.077,0.743,3.116,1.114c0.444,0.159,1.005-0.179,1.107-0.629 c0.115-0.505-0.153-0.937-0.629-1.107c-1.039-0.371-2.077-0.743-3.116-1.114c-0.444-0.159-1.005,0.179-1.107,0.629 C324.214,324.49,324.483,324.921,324.958,325.091L324.958,325.091z" fill="#644394"/></g></svg>