<?xml version="1.0" encoding="UTF-8"?><svg xmlns="http://www.w3.org/2000/svg" xmlns:xlink="http://www.w3.org/1999/xlink" height="332.8" preserveAspectRatio="xMidYMid meet" version="1.0" viewBox="23.8 115.6 454.9 332.8" width="454.9" zoomAndPan="magnify"><g><g id="change1_1"><path d="M 281.683594 165.230469 C 284.183594 165.230469 286.21875 163.199219 286.21875 160.699219 C 286.21875 158.199219 284.183594 156.164062 281.683594 156.164062 C 279.1875 156.164062 277.152344 158.199219 277.152344 160.699219 C 277.152344 163.199219 279.1875 165.230469 281.683594 165.230469 Z M 429.011719 180.265625 L 412.421875 180.265625 C 412.417969 179.585938 412.28125 178.90625 411.90625 178.328125 C 411.5 177.695312 410.890625 177.039062 410.167969 176.703125 C 410.019531 176.46875 409.855469 176.246094 409.65625 176.046875 C 410.128906 175.328125 410.410156 174.472656 410.410156 173.550781 C 410.410156 171.050781 408.378906 169.015625 405.878906 169.015625 C 403.378906 169.015625 401.34375 171.050781 401.34375 173.550781 C 401.34375 174.027344 401.4375 174.480469 401.578125 174.914062 C 398.144531 174.875 394.714844 174.832031 391.28125 174.800781 C 391.285156 174.75 391.296875 174.699219 391.296875 174.648438 C 391.296875 172.148438 389.265625 170.117188 386.765625 170.117188 C 384.265625 170.117188 382.230469 172.148438 382.230469 174.648438 C 382.230469 174.679688 382.238281 174.707031 382.238281 174.738281 C 379.4375 174.71875 376.636719 174.695312 373.835938 174.683594 C 363.191406 174.640625 354.09375 175.808594 344.09375 179.613281 C 343.652344 179.777344 343.292969 180.007812 342.964844 180.265625 L 292.5625 180.265625 C 292.546875 179.609375 292.316406 178.914062 291.777344 178.210938 C 291 177.195312 290.152344 176.320312 289.253906 175.558594 C 289.558594 174.949219 289.742188 174.273438 289.742188 173.550781 C 289.742188 171.050781 287.710938 169.015625 285.210938 169.015625 C 283.371094 169.015625 281.792969 170.121094 281.082031 171.699219 C 277.238281 170.859375 273.054688 170.894531 268.9375 171.144531 C 268.160156 170.511719 267.179688 170.117188 266.097656 170.117188 C 264.773438 170.117188 263.589844 170.695312 262.761719 171.605469 C 262.507812 171.625 262.25 171.644531 261.996094 171.660156 C 249.574219 172.542969 236.40625 174.367188 224.835938 179.164062 C 224.191406 179.429688 223.683594 179.816406 223.285156 180.265625 L 171.640625 180.265625 C 171.476562 178.851562 170.648438 177.511719 168.949219 176.921875 C 168.601562 176.800781 168.257812 176.679688 167.910156 176.558594 C 168.628906 175.753906 169.078125 174.707031 169.078125 173.550781 C 169.078125 171.050781 167.042969 169.015625 164.542969 169.015625 C 162.042969 169.015625 160.011719 171.050781 160.011719 173.550781 C 160.011719 173.710938 160.039062 173.859375 160.058594 174.015625 C 157.96875 173.476562 155.839844 173.089844 153.617188 173.011719 C 152.285156 172.960938 150.953125 172.941406 149.621094 172.929688 C 148.941406 171.28125 147.320312 170.117188 145.429688 170.117188 C 143.53125 170.117188 141.902344 171.296875 141.230469 172.957031 C 139.25 172.980469 137.269531 173.003906 135.296875 173.003906 C 124.140625 173.003906 113.6875 172.59375 103.855469 178.628906 C 103.128906 179.078125 102.648438 179.648438 102.351562 180.265625 L 67.1875 180.265625 C 53.148438 180.265625 41.765625 191.648438 41.765625 205.6875 L 41.765625 448.363281 L 454.433594 448.363281 L 454.433594 205.6875 C 454.433594 191.648438 443.054688 180.265625 429.011719 180.265625 Z M 271.164062 153.300781 C 273.664062 153.300781 275.699219 151.265625 275.699219 148.765625 C 275.699219 146.265625 273.664062 144.234375 271.164062 144.234375 C 268.664062 144.234375 266.632812 146.265625 266.632812 148.765625 C 266.632812 151.265625 268.664062 153.300781 271.164062 153.300781 Z M 402.351562 165.230469 C 404.851562 165.230469 406.886719 163.199219 406.886719 160.699219 C 406.886719 158.199219 404.851562 156.164062 402.351562 156.164062 C 399.851562 156.164062 397.820312 158.199219 397.820312 160.699219 C 397.820312 163.199219 399.851562 165.230469 402.351562 165.230469 Z M 367.832031 170.316406 C 370.332031 170.316406 372.363281 168.28125 372.363281 165.78125 C 372.363281 163.28125 370.332031 161.25 367.832031 161.25 C 365.332031 161.25 363.296875 163.28125 363.296875 165.78125 C 363.296875 168.28125 365.332031 170.316406 367.832031 170.316406 Z M 391.832031 153.300781 C 394.332031 153.300781 396.363281 151.265625 396.363281 148.765625 C 396.363281 146.265625 394.332031 144.234375 391.832031 144.234375 C 389.332031 144.234375 387.296875 146.265625 387.296875 148.765625 C 387.296875 151.265625 389.332031 153.300781 391.832031 153.300781 Z M 257.71875 163.230469 C 257.71875 165.730469 259.753906 167.765625 262.253906 167.765625 C 264.75 167.765625 266.785156 165.730469 266.785156 163.230469 C 266.785156 160.730469 264.75 158.699219 262.253906 158.699219 C 259.753906 158.699219 257.71875 160.730469 257.71875 163.230469 Z M 378.386719 163.230469 C 378.386719 165.730469 380.417969 167.765625 382.917969 167.765625 C 385.417969 167.765625 387.453125 165.730469 387.453125 163.230469 C 387.453125 160.730469 385.417969 158.699219 382.917969 158.699219 C 380.417969 158.699219 378.386719 160.730469 378.386719 163.230469 Z M 377.851562 153.300781 C 380.351562 153.300781 382.386719 151.265625 382.386719 148.765625 C 382.386719 146.265625 380.351562 144.234375 377.851562 144.234375 C 375.351562 144.234375 373.320312 146.265625 373.320312 148.765625 C 373.320312 151.265625 375.351562 153.300781 377.851562 153.300781 Z M 136.519531 153.300781 C 139.019531 153.300781 141.050781 151.265625 141.050781 148.765625 C 141.050781 146.265625 139.019531 144.234375 136.519531 144.234375 C 134.019531 144.234375 131.984375 146.265625 131.984375 148.765625 C 131.984375 151.265625 134.019531 153.300781 136.519531 153.300781 Z M 137.050781 163.230469 C 137.050781 165.730469 139.085938 167.765625 141.585938 167.765625 C 144.085938 167.765625 146.117188 165.730469 146.117188 163.230469 C 146.117188 160.730469 144.085938 158.699219 141.585938 158.699219 C 139.085938 158.699219 137.050781 160.730469 137.050781 163.230469 Z M 126.496094 170.316406 C 128.996094 170.316406 131.03125 168.28125 131.03125 165.78125 C 131.03125 163.28125 128.996094 161.25 126.496094 161.25 C 123.996094 161.25 121.964844 163.28125 121.964844 165.78125 C 121.964844 168.28125 123.996094 170.316406 126.496094 170.316406 Z M 247.164062 170.316406 C 249.664062 170.316406 251.699219 168.28125 251.699219 165.78125 C 251.699219 163.28125 249.664062 161.25 247.164062 161.25 C 244.664062 161.25 242.632812 163.28125 242.632812 165.78125 C 242.632812 168.28125 244.664062 170.316406 247.164062 170.316406 Z M 150.496094 153.300781 C 152.996094 153.300781 155.03125 151.265625 155.03125 148.765625 C 155.03125 146.265625 152.996094 144.234375 150.496094 144.234375 C 147.996094 144.234375 145.964844 146.265625 145.964844 148.765625 C 145.964844 151.265625 147.996094 153.300781 150.496094 153.300781 Z M 257.183594 153.300781 C 259.683594 153.300781 261.71875 151.265625 261.71875 148.765625 C 261.71875 146.265625 259.683594 144.234375 257.183594 144.234375 C 254.6875 144.234375 252.652344 146.265625 252.652344 148.765625 C 252.652344 151.265625 254.6875 153.300781 257.183594 153.300781 Z M 156.484375 160.699219 C 156.484375 158.199219 158.519531 156.164062 161.019531 156.164062 C 163.519531 156.164062 165.550781 158.199219 165.550781 160.699219 C 165.550781 163.199219 163.519531 165.230469 161.019531 165.230469 C 158.519531 165.230469 156.484375 163.199219 156.484375 160.699219" fill="#f68c89"/></g><g id="change2_1"><path d="M 41.765625 405.527344 L 454.433594 405.527344 L 454.433594 364.152344 L 41.765625 364.152344 Z M 454.433594 286.996094 L 454.433594 328.375 L 41.765625 328.375 L 41.765625 286.996094 L 454.433594 286.996094" fill="#f9b4c7"/></g><g id="change3_1"><path d="M 450.46875 440.421875 C 433.933594 442.289062 431.882812 445.550781 422.640625 440.1875 C 413.398438 434.824219 406.734375 439.355469 391.265625 442.023438 C 375.800781 444.691406 385.023438 427.355469 361.34375 427.355469 C 337.667969 427.355469 338.734375 446.023438 325.933594 443.089844 C 313.132812 440.15625 323.53125 431.890625 309.398438 431.890625 C 295.265625 431.890625 301.125 441.222656 290.996094 441.222656 C 280.867188 441.222656 278.539062 431.890625 266.808594 431.890625 C 255.074219 431.890625 256.332031 442.023438 242.199219 442.023438 C 228.066406 442.023438 229.871094 423.625 214.835938 423.625 C 199.800781 423.625 197.933594 442.558594 185.132812 442.558594 C 172.332031 442.558594 168.804688 436.527344 157.429688 435.992188 C 146.050781 435.460938 144.867188 447.355469 131.53125 442.558594 C 118.199219 437.757812 114.527344 430.289062 104.765625 432.15625 C 95 434.023438 94.164062 447.089844 78.714844 443.890625 C 63.265625 440.691406 64.984375 429.488281 53.375 434.289062 C 41.765625 439.089844 38.46875 446.023438 34.46875 445.488281 C 30.46875 444.957031 23.800781 448.363281 23.800781 448.363281 L 478.734375 448.363281 C 478.734375 448.363281 467 438.558594 450.46875 440.421875 Z M 41.765625 230.15625 L 41.765625 205.6875 C 41.765625 191.648438 53.148438 180.265625 67.1875 180.265625 L 429.011719 180.265625 C 443.054688 180.265625 454.433594 191.648438 454.433594 205.6875 C 433.472656 205.6875 449.398438 244.15625 427.398438 244.15625 C 405.398438 244.15625 421.800781 206.554688 405 206.554688 C 388.199219 206.554688 403.800781 271.757812 379 271.757812 C 354.199219 271.757812 365.800781 211.355469 352.199219 211.355469 C 338.601562 211.355469 345.398438 259.757812 329 259.757812 C 312.601562 259.757812 319.398438 206.554688 298.601562 206.554688 C 277.800781 206.554688 295.398438 246.558594 268.199219 246.558594 C 241 246.558594 249.800781 217.355469 237.800781 217.355469 C 225.800781 217.355469 230.199219 262.15625 209.800781 262.15625 C 189.398438 262.15625 189 206.554688 177 206.554688 C 165 206.554688 171.398438 233.757812 152.199219 233.757812 C 133 233.757812 146.601562 206.15625 133 206.558594 C 119.398438 206.957031 124.199219 278.109375 109.398438 278.109375 C 94.601562 278.109375 110.199219 211.355469 90.601562 211.355469 C 71 211.355469 75.800781 249.757812 61.398438 249.757812 C 47 249.757812 41.765625 230.15625 41.765625 230.15625" fill="#fbccb2"/></g><g id="change4_1"><path d="M 426.695312 144.933594 C 426.21875 144.804688 425.742188 144.71875 425.273438 144.664062 C 426.515625 142.878906 427.421875 140.804688 427.703125 138.40625 C 429.019531 127.269531 424.132812 115.578125 424.132812 115.578125 C 424.132812 115.578125 413.296875 122.144531 407.796875 131.921875 C 402.296875 141.699219 411.675781 153.800781 411.675781 153.800781 C 411.675781 153.800781 412.035156 153.695312 412.648438 153.480469 C 414.730469 156.253906 419.507812 161.425781 425.660156 160.613281 C 434.007812 159.507812 441.605469 153.789062 441.605469 153.789062 C 441.605469 153.789062 434.824219 147.125 426.695312 144.933594 Z M 304.605469 144.664062 C 305.847656 142.878906 306.753906 140.804688 307.035156 138.40625 C 308.355469 127.269531 303.464844 115.578125 303.464844 115.578125 C 303.464844 115.578125 292.628906 122.144531 287.128906 131.921875 C 281.628906 141.699219 291.011719 153.800781 291.011719 153.800781 C 291.011719 153.800781 291.367188 153.695312 291.980469 153.480469 C 294.0625 156.253906 298.839844 161.425781 304.996094 160.613281 C 313.339844 159.507812 320.9375 153.789062 320.9375 153.789062 C 320.9375 153.789062 314.15625 147.125 306.027344 144.933594 C 305.550781 144.804688 305.074219 144.71875 304.605469 144.664062 Z M 185.359375 144.933594 C 193.488281 147.125 200.269531 153.789062 200.269531 153.789062 C 200.269531 153.789062 192.671875 159.507812 184.328125 160.613281 C 178.171875 161.425781 173.398438 156.253906 171.3125 153.480469 C 170.703125 153.695312 170.34375 153.800781 170.34375 153.800781 C 170.34375 153.800781 160.960938 141.699219 166.460938 131.921875 C 171.960938 122.144531 182.800781 115.578125 182.800781 115.578125 C 182.800781 115.578125 187.6875 127.269531 186.371094 138.40625 C 186.085938 140.804688 185.183594 142.878906 183.941406 144.664062 C 184.410156 144.71875 184.882812 144.804688 185.359375 144.933594" fill="#7cd2b7"/></g><g id="change5_1"><path d="M 405.878906 176.082031 C 404.480469 176.082031 403.34375 174.949219 403.34375 173.550781 C 403.34375 172.148438 404.480469 171.015625 405.878906 171.015625 C 407.277344 171.015625 408.410156 172.148438 408.410156 173.550781 C 408.410156 174.949219 407.277344 176.082031 405.878906 176.082031 Z M 399.820312 160.699219 C 399.820312 159.300781 400.953125 158.164062 402.351562 158.164062 C 403.75 158.164062 404.886719 159.300781 404.886719 160.699219 C 404.886719 162.097656 403.75 163.230469 402.351562 163.230469 C 400.953125 163.230469 399.820312 162.097656 399.820312 160.699219 Z M 391.832031 151.300781 C 390.433594 151.300781 389.296875 150.164062 389.296875 148.765625 C 389.296875 147.367188 390.433594 146.234375 391.832031 146.234375 C 393.230469 146.234375 394.363281 147.367188 394.363281 148.765625 C 394.363281 150.164062 393.230469 151.300781 391.832031 151.300781 Z M 386.765625 177.183594 C 385.367188 177.183594 384.230469 176.046875 384.230469 174.648438 C 384.230469 173.25 385.367188 172.117188 386.765625 172.117188 C 388.164062 172.117188 389.296875 173.25 389.296875 174.648438 C 389.296875 176.046875 388.164062 177.183594 386.765625 177.183594 Z M 380.386719 163.230469 C 380.386719 161.832031 381.519531 160.699219 382.917969 160.699219 C 384.316406 160.699219 385.453125 161.832031 385.453125 163.230469 C 385.453125 164.632812 384.316406 165.765625 382.917969 165.765625 C 381.519531 165.765625 380.386719 164.632812 380.386719 163.230469 Z M 377.851562 151.300781 C 376.453125 151.300781 375.320312 150.164062 375.320312 148.765625 C 375.320312 147.367188 376.453125 146.234375 377.851562 146.234375 C 379.25 146.234375 380.386719 147.367188 380.386719 148.765625 C 380.386719 150.164062 379.25 151.300781 377.851562 151.300781 Z M 367.832031 168.316406 C 366.433594 168.316406 365.296875 167.183594 365.296875 165.78125 C 365.296875 164.382812 366.433594 163.25 367.832031 163.25 C 369.230469 163.25 370.363281 164.382812 370.363281 165.78125 C 370.363281 167.183594 369.230469 168.316406 367.832031 168.316406 Z M 419.710938 165.398438 C 417.609375 154.199219 405.882812 135.398438 385.808594 135.398438 C 365.734375 135.398438 343.546875 180.265625 343.546875 180.265625 L 412.855469 180.265625 C 412.855469 180.265625 421.808594 176.601562 419.710938 165.398438 Z M 164.542969 176.082031 C 163.144531 176.082031 162.011719 174.949219 162.011719 173.550781 C 162.011719 172.148438 163.144531 171.015625 164.542969 171.015625 C 165.941406 171.015625 167.078125 172.148438 167.078125 173.550781 C 167.078125 174.949219 165.941406 176.082031 164.542969 176.082031 Z M 158.484375 160.699219 C 158.484375 159.300781 159.617188 158.164062 161.019531 158.164062 C 162.417969 158.164062 163.550781 159.300781 163.550781 160.699219 C 163.550781 162.097656 162.417969 163.230469 161.019531 163.230469 C 159.617188 163.230469 158.484375 162.097656 158.484375 160.699219 Z M 150.496094 151.300781 C 149.097656 151.300781 147.964844 150.164062 147.964844 148.765625 C 147.964844 147.367188 149.097656 146.234375 150.496094 146.234375 C 151.894531 146.234375 153.03125 147.367188 153.03125 148.765625 C 153.03125 150.164062 151.894531 151.300781 150.496094 151.300781 Z M 145.429688 177.183594 C 144.03125 177.183594 142.898438 176.046875 142.898438 174.648438 C 142.898438 173.25 144.03125 172.117188 145.429688 172.117188 C 146.828125 172.117188 147.964844 173.25 147.964844 174.648438 C 147.964844 176.046875 146.828125 177.183594 145.429688 177.183594 Z M 139.050781 163.230469 C 139.050781 161.832031 140.1875 160.699219 141.585938 160.699219 C 142.984375 160.699219 144.117188 161.832031 144.117188 163.230469 C 144.117188 164.632812 142.984375 165.765625 141.585938 165.765625 C 140.1875 165.765625 139.050781 164.632812 139.050781 163.230469 Z M 136.519531 151.300781 C 135.117188 151.300781 133.984375 150.164062 133.984375 148.765625 C 133.984375 147.367188 135.117188 146.234375 136.519531 146.234375 C 137.917969 146.234375 139.050781 147.367188 139.050781 148.765625 C 139.050781 150.164062 137.917969 151.300781 136.519531 151.300781 Z M 126.496094 168.316406 C 125.097656 168.316406 123.964844 167.183594 123.964844 165.78125 C 123.964844 164.382812 125.097656 163.25 126.496094 163.25 C 127.894531 163.25 129.03125 164.382812 129.03125 165.78125 C 129.03125 167.183594 127.894531 168.316406 126.496094 168.316406 Z M 144.476562 135.398438 C 124.402344 135.398438 102.214844 180.265625 102.214844 180.265625 L 171.519531 180.265625 C 171.519531 180.265625 180.476562 176.601562 178.375 165.398438 C 176.273438 154.199219 164.546875 135.398438 144.476562 135.398438 Z M 285.210938 176.082031 C 283.8125 176.082031 282.675781 174.949219 282.675781 173.550781 C 282.675781 172.148438 283.8125 171.015625 285.210938 171.015625 C 286.609375 171.015625 287.742188 172.148438 287.742188 173.550781 C 287.742188 174.949219 286.609375 176.082031 285.210938 176.082031 Z M 279.152344 160.699219 C 279.152344 159.300781 280.285156 158.164062 281.683594 158.164062 C 283.085938 158.164062 284.21875 159.300781 284.21875 160.699219 C 284.21875 162.097656 283.085938 163.230469 281.683594 163.230469 C 280.285156 163.230469 279.152344 162.097656 279.152344 160.699219 Z M 271.164062 151.300781 C 269.765625 151.300781 268.632812 150.164062 268.632812 148.765625 C 268.632812 147.367188 269.765625 146.234375 271.164062 146.234375 C 272.5625 146.234375 273.699219 147.367188 273.699219 148.765625 C 273.699219 150.164062 272.5625 151.300781 271.164062 151.300781 Z M 266.097656 177.183594 C 264.699219 177.183594 263.5625 176.046875 263.5625 174.648438 C 263.5625 173.25 264.699219 172.117188 266.097656 172.117188 C 267.496094 172.117188 268.632812 173.25 268.632812 174.648438 C 268.632812 176.046875 267.496094 177.183594 266.097656 177.183594 Z M 259.71875 163.230469 C 259.71875 161.832031 260.851562 160.699219 262.253906 160.699219 C 263.652344 160.699219 264.785156 161.832031 264.785156 163.230469 C 264.785156 164.632812 263.652344 165.765625 262.253906 165.765625 C 260.851562 165.765625 259.71875 164.632812 259.71875 163.230469 Z M 257.183594 151.300781 C 255.785156 151.300781 254.652344 150.164062 254.652344 148.765625 C 254.652344 147.367188 255.785156 146.234375 257.183594 146.234375 C 258.585938 146.234375 259.71875 147.367188 259.71875 148.765625 C 259.71875 150.164062 258.585938 151.300781 257.183594 151.300781 Z M 247.164062 168.316406 C 245.765625 168.316406 244.632812 167.183594 244.632812 165.78125 C 244.632812 164.382812 245.765625 163.25 247.164062 163.25 C 248.5625 163.25 249.699219 164.382812 249.699219 165.78125 C 249.699219 167.183594 248.5625 168.316406 247.164062 168.316406 Z M 265.140625 135.398438 C 245.066406 135.398438 222.878906 180.265625 222.878906 180.265625 L 292.1875 180.265625 C 292.1875 180.265625 301.140625 176.601562 299.042969 165.398438 C 296.941406 154.199219 285.214844 135.398438 265.140625 135.398438" fill="#dc5a78"/></g></g></svg>