<?xml version="1.0" encoding="UTF-8"?><!-- Generator: Adobe Illustrator 23.0.1, SVG Export Plug-In . SVG Version: 6.00 Build 0)  --><svg xmlns="http://www.w3.org/2000/svg" enable-background="new 0 0 347.9 372.8" id="Layer_1" version="1.1" viewBox="0 0 347.9 372.8" x="0px" xml:space="preserve" y="0px">
<g id="change1_1"><path d="m77.1 159.3c8.4-8.9 20.2-14.1 32.5-14.1 12.1 0 23.5 4.8 31.9 13.4 8.4-8.6 19.7-13.4 31.9-13.4 12.3 0 24.1 5.2 32.5 14.1 8.4-8.9 20.2-14.1 32.5-14.1s24.1 5.2 32.5 14.1c8.4-8.9 20.2-14.1 32.5-14.1 7.2 0 14 1.7 20 4.8-9.7-48.1-52.7-87.8-109.5-100.7-2 2.9-4.3 5.5-7 7.9l-29.4 25.7c-0.8 0.7-1.8 1.1-2.8 1.1s-2-0.4-2.8-1.1l-28.9-25.7c-2.8-2.5-5.2-5.2-7.1-8.2-57.1 12.5-100.7 52.4-110.6 100.6 5.8-2.8 12.4-4.4 19.3-4.4 12.3 0 24.1 5.2 32.5 14.1zm186-40.5c0.7-2.3 3-3.6 5.3-2.9l18.1 5.3c2.3 0.7 3.6 3 2.9 5.3-0.5 1.9-2.2 3.1-4.1 3.1-0.4 0-0.8-0.1-1.2-0.2l-18.1-5.3c-2.3-0.7-3.5-3-2.9-5.3zm-36.6-28.9l13.4-13.4c1.7-1.7 4.3-1.7 6 0s1.7 4.4 0 6l-13.4 13.4c-0.8 0.8-1.9 1.2-3 1.2s-2.2-0.4-3-1.2c-1.7-1.7-1.7-4.4 0-6zm-34.6 22.9c1.3-2 3.9-2.5 5.9-1.2l15.8 10.3c2 1.3 2.5 3.9 1.2 5.9-0.8 1.3-2.2 1.9-3.6 1.9-0.8 0-1.6-0.2-2.3-0.7l-15.8-10.3c-1.9-1.3-2.5-4-1.2-5.9zm-52.8 11.1l13.4-13.4c1.7-1.7 4.3-1.7 6 0s1.7 4.4 0 6l-13.4 13.4c-0.8 0.8-1.9 1.2-3 1.2s-2.2-0.4-3-1.2c-1.7-1.7-1.7-4.4 0-6zm-32.6-45.1c0.7-2.3 3-3.6 5.3-2.9l18.1 5.3c2.3 0.7 3.6 3 2.9 5.3-0.5 1.9-2.2 3.1-4.1 3.1-0.4 0-0.8-0.1-1.2-0.2l-18.1-5.4c-2.3-0.6-3.6-3-2.9-5.2zm-42.1 29.1c1.3-2 3.9-2.5 5.9-1.2l15.8 10.3c2 1.3 2.5 3.9 1.2 5.9-0.8 1.3-2.2 1.9-3.6 1.9-0.8 0-1.6-0.2-2.3-0.7l-15.8-10.3c-1.9-1.3-2.5-3.9-1.2-5.9z" fill="#F29EB0"/></g>
<g id="change2_1"><path d="m303.3 153.7c-11.4 0-22.3 5.5-29.1 14.7-0.8 1.1-2.1 1.7-3.4 1.7s-2.6-0.6-3.4-1.7c-6.8-9.2-17.7-14.7-29.1-14.7s-22.3 5.5-29.1 14.7c-0.8 1.1-2.1 1.7-3.4 1.7-1.4 0-2.6-0.6-3.4-1.7-6.8-9.2-17.7-14.7-29.1-14.7-11.2 0-21.6 5.1-28.5 14-0.8 1-2 1.6-3.4 1.6-1.3 0-2.6-0.6-3.4-1.6-6.9-8.9-17.3-14-28.5-14-11.4 0-22.3 5.5-29.1 14.7-0.8 1.1-2.1 1.7-3.4 1.7-1.4 0-2.6-0.6-3.4-1.7-6.8-9.2-17.7-14.7-29.1-14.7-19.9 0-36.1 16.2-36.1 36.1s16.2 36.1 36.1 36.1c11.4 0 22.3-5.5 29.1-14.7 0.8-1.1 2.1-1.7 3.4-1.7 1.4 0 2.6 0.6 3.4 1.7 6.8 9.2 17.7 14.7 29.1 14.7 11.2 0 21.6-5.1 28.5-14 0.8-1 2-1.6 3.4-1.6 1.3 0 2.6 0.6 3.4 1.6 6.9 8.9 17.3 14 28.5 14 11.4 0 22.3-5.5 29.1-14.7 0.8-1.1 2.1-1.7 3.4-1.7 1.4 0 2.6 0.6 3.4 1.7 6.8 9.2 17.7 14.7 29.1 14.7s22.3-5.5 29.1-14.7c0.8-1.1 2.1-1.7 3.4-1.7s2.6 0.6 3.4 1.7c6.8 9.2 17.7 14.7 29.1 14.7 19.9 0 36.1-16.2 36.1-36.1s-16.2-36.1-36.1-36.1z" fill="#F9E2C7"/></g>
<g id="change3_1"><path d="m148.9 227.1l5.8 137.2h40.4l5.9-139.6c-7.8 6.2-17.5 9.6-27.6 9.6-8.9 0.1-17.4-2.5-24.5-7.2zm-69.2-4.3c-0.9-0.8-1.8-1.7-2.6-2.6-8.4 8.9-20.2 14.1-32.5 14.1-6.3 0-12.4-1.3-17.8-3.7l29.5 133.7h38.6l-15.1-137.9-0.1-1.3-0.1-0.6c-0.1-0.6 0-1.1 0.1-1.7zm61.8-1.8c-8.4 8.5-19.8 13.3-31.9 13.3-7.4 0-14.6-1.9-21-5.3l14.8 135.2h42.8l-5.9-140.1c-0.1-1.1 0.4-2.3 1.2-3.1zm161.8 13.4c-12.3 0-24.1-5.2-32.5-14.1-0.7 0.8-1.4 1.5-2.2 2.2 0.3 0.6 0.4 1.3 0.3 2.1l-15.3 139.8h39.8l29.7-134.6c-5.9 2.9-12.6 4.6-19.8 4.6zm-65 0c-10.6 0-20.9-3.9-28.9-10.7v0.5l-5.9 140.1h41.5l14.8-135.6c-6.4 3.7-13.8 5.7-21.5 5.7zm-8.8-137.3c1.1 0 2.2-0.4 3-1.2l13.4-13.4c1.7-1.7 1.7-4.4 0-6-1.7-1.7-4.3-1.7-6 0l-13.4 13.4c-1.7 1.7-1.7 4.4 0 6 0.8 0.8 1.9 1.2 3 1.2zm-87.4 34c1.1 0 2.2-0.4 3-1.2l13.4-13.4c1.7-1.7 1.7-4.4 0-6-1.7-1.7-4.3-1.7-6 0l-13.4 13.4c-1.7 1.7-1.7 4.4 0 6 0.8 0.8 1.9 1.2 3 1.2zm-76.4-17.3l15.8 10.3c0.7 0.5 1.5 0.7 2.3 0.7 1.4 0 2.8-0.7 3.6-1.9 1.3-2 0.7-4.6-1.2-5.9l-15.8-10.3c-2-1.3-4.6-0.7-5.9 1.2-1.4 2-0.8 4.6 1.2 5.9z" fill="#89E0E0"/></g>
<g id="change4_1"><path d="m211.4 34.3c1-4.3 0.7-6.8 0.6-6.9v-0.3c-1-10.8-8.6-18.7-18.2-18.7-6.3 0-12.1 3.3-15.5 8.7-0.8 1.3-2.1 2-3.6 2s-2.9-0.8-3.6-2.1c-3.3-5.5-8.9-8.7-15-8.7-9.5 0-17.2 7.8-18.2 18.7v0.3c0 0.1-0.4 2.5 0.6 6.9 1.5 6.3 5 12 10.2 16.6l26.1 23.2 26.5-23.2c5.1-4.5 8.6-10.2 10.1-16.5zm2.2 87.5l-15.8-10.3c-2-1.3-4.6-0.7-5.9 1.2-1.3 2-0.7 4.6 1.2 5.9l15.8 10.3c0.7 0.5 1.5 0.7 2.3 0.7 1.4 0 2.8-0.7 3.6-1.9 1.4-2 0.8-4.6-1.2-5.9zm72.9-0.6l-18.1-5.3c-2.2-0.7-4.6 0.6-5.3 2.9s0.6 4.6 2.9 5.3l18.1 5.3c0.4 0.1 0.8 0.2 1.2 0.2 1.8 0 3.5-1.2 4.1-3.1 0.7-2.3-0.6-4.7-2.9-5.3zm-156.6-40.1l-18.1-5.3c-2.2-0.7-4.6 0.6-5.3 2.9s0.6 4.6 2.9 5.3l18.1 5.3c0.4 0.1 0.8 0.2 1.2 0.2 1.8 0 3.5-1.2 4.1-3.1 0.6-2.3-0.7-4.6-2.9-5.3z" fill="#fff"/></g>
<g id="change5_1"><path d="m332.9 156.5c0-0.4 0.1-0.7 0-1.1-7.4-53.9-53.2-99-114.9-113.8 0.7-1.7 1.3-3.5 1.7-5.2 1.3-5.3 1-8.9 0.8-10.1-1.5-15.3-12.7-26.3-26.6-26.3-7.2 0-14.1 3-19 8.1-4.9-5.2-11.6-8.1-18.8-8.1-14 0-25.2 11-26.6 26.2-0.2 1.2-0.5 4.7 0.8 10.1 0.4 1.7 0.9 3.3 1.6 4.9-29.6 6.8-56.1 20.7-76.7 40.1-21.7 20.5-35.3 45.6-39.3 72.8-0.1 0.6 0 1.1 0.1 1.6-9.8 8.2-16 20.4-16 34.1 0 14 6.5 26.5 16.7 34.7l32 144.9c0.4 1.9 2.2 3.3 4.2 3.3h244.1c2 0 3.7-1.4 4.2-3.3l32.2-145.7c0.1-0.3 0.1-0.7 0.1-1 9-8.2 14.6-19.9 14.6-32.9-0.2-13.3-6-25.2-15.2-33.3zm-195-129v-0.3c1-10.8 8.6-18.7 18.2-18.7 6.1 0 11.7 3.3 15 8.7 0.8 1.3 2.1 2.1 3.6 2.1s2.9-0.8 3.6-2c3.3-5.5 9.1-8.7 15.5-8.7 9.5 0 17.2 7.8 18.2 18.7v0.3c0 0.1 0.4 2.6-0.6 6.9-1.5 6.3-5 12-10.1 16.6l-26.5 23.2-26.1-23.2c-5.1-4.6-8.6-10.3-10.2-16.6-1-4.5-0.6-6.9-0.6-7zm-2 21.5c2 3 4.4 5.7 7.1 8.2l28.9 25.7c0.8 0.7 1.8 1.1 2.8 1.1s2-0.3 2.8-1.1l29.4-25.7c2.7-2.4 5-5.1 7-7.9 56.8 12.8 99.7 52.6 109.5 100.7-6-3-12.8-4.8-20-4.8-12.3 0-24.1 5.2-32.5 14.1-8.4-8.9-20.2-14.1-32.5-14.1s-24.1 5.2-32.5 14.1c-8.4-8.9-20.2-14.1-32.5-14.1-12.1 0-23.5 4.8-31.9 13.4-8.4-8.6-19.7-13.4-31.9-13.4-12.3 0-24.1 5.2-32.5 14.1-8.4-8.9-20.2-14.1-32.5-14.1-6.9 0-13.5 1.6-19.3 4.4 9.9-48.2 53.5-88.1 110.6-100.6zm-79.7 315.3l-29.5-133.7c5.5 2.4 11.5 3.7 17.8 3.7 12.3 0 24.1-5.2 32.5-14.1l2.1 2.1 0.5 3.4 15.1 138.6h-38.5zm47.2 0l-14.8-135.2c6.4 3.4 13.6 5.3 21 5.3 11.5 0 22.3-4.3 30.5-12l0.3 4.1 5.8 137.9h-42.8zm91.7 0h-40.4l-5.8-137.2c7.2 4.7 15.6 7.3 24.4 7.3 10.1 0 19.8-3.5 27.6-9.6l-5.8 139.5zm8.5 0l5.9-140.1v-0.5c8 6.8 18.2 10.7 28.9 10.7 7.6 0 15.1-2 21.6-5.6l-14.8 135.6h-41.6zm89.9 0h-39.8l15.1-138 0.5-4.5c0.5-0.5 1.1-1 1.6-1.5 8.4 8.9 20.2 14.1 32.5 14.1 7.1 0 13.9-1.7 19.9-4.7l-29.8 134.6zm9.8-138.4c-11.4 0-22.3-5.5-29.1-14.7-0.8-1.1-2.1-1.7-3.4-1.7s-2.6 0.6-3.4 1.7c-6.8 9.2-17.7 14.7-29.1 14.7s-22.3-5.5-29.1-14.7c-0.8-1.1-2.1-1.7-3.4-1.7-1.4 0-2.6 0.6-3.4 1.7-6.8 9.2-17.7 14.7-29.1 14.7-11.2 0-21.6-5.1-28.5-14-0.8-1-2-1.6-3.4-1.6-1.3 0-2.6 0.6-3.4 1.6-6.9 8.9-17.3 14-28.5 14-11.4 0-22.3-5.5-29.1-14.7-0.8-1.1-2.1-1.7-3.4-1.7-1.4 0-2.6 0.6-3.4 1.7-6.8 9.2-17.7 14.7-29.1 14.7-19.9 0-36.1-16.2-36.1-36.1s16.2-36.1 36.1-36.1c11.4 0 22.3 5.5 29.1 14.7 0.8 1.1 2.1 1.7 3.4 1.7 1.4 0 2.6-0.6 3.4-1.7 6.8-9.2 17.7-14.7 29.1-14.7 11.2 0 21.6 5.1 28.5 14 0.8 1 2 1.6 3.4 1.6 1.3 0 2.6-0.6 3.4-1.6 6.9-8.9 17.3-14 28.5-14 11.4 0 22.3 5.5 29.1 14.7 0.8 1.1 2.1 1.7 3.4 1.7 1.4 0 2.6-0.6 3.4-1.7 6.8-9.2 17.7-14.7 29.1-14.7s22.3 5.5 29.1 14.7c0.8 1.1 2.1 1.7 3.4 1.7s2.6-0.6 3.4-1.7c6.8-9.2 17.7-14.7 29.1-14.7 19.9 0 36.1 16.2 36.1 36.1s-16.2 36.1-36.1 36.1z" fill="#513724"/></g>
</svg>