<?xml version="1.0" encoding="utf-8"?>
<!-- Generator: Adobe Illustrator 16.0.0, SVG Export Plug-In . SVG Version: 6.00 Build 0)  -->
<!DOCTYPE svg PUBLIC "-//W3C//DTD SVG 1.1//EN" "http://www.w3.org/Graphics/SVG/1.1/DTD/svg11.dtd">
<svg version="1.1" id="Layer_1" xmlns="http://www.w3.org/2000/svg" xmlns:xlink="http://www.w3.org/1999/xlink" x="0px" y="0px"
	 width="288.538px" height="308.126px" viewBox="0 0 288.538 308.126" enable-background="new 0 0 288.538 308.126"
	 xml:space="preserve">
<g id="change4">
	<g>
		<path fill-rule="evenodd" clip-rule="evenodd" fill="#FFFFFF" d="M234.608,151.815c-29.779,0-53.927,3.815-53.927,8.523v121.644
			c0,4.706,24.147,8.521,53.927,8.521c29.788,0,53.93-3.814,53.93-8.521V160.338C288.538,155.63,264.396,151.815,234.608,151.815z"
			/>
	</g>
	<g>
		<path fill-rule="evenodd" clip-rule="evenodd" fill="#FFFFFF" d="M53.927,151.815C24.148,151.815,0,155.63,0,160.338v121.644
			c0,4.706,24.148,8.521,53.927,8.521c29.788,0,53.93-3.814,53.93-8.521V160.338C107.857,155.63,83.715,151.815,53.927,151.815z"/>
	</g>
</g>
<g>
	<path opacity="0.3" fill-rule="evenodd" clip-rule="evenodd" fill="#231F20" d="M180.682,160.338
		c0-4.708,24.147-8.523,53.927-8.523c29.788,0,53.93,3.815,53.93,8.523c0,4.707-24.142,8.522-53.93,8.522
		C204.829,168.86,180.682,165.045,180.682,160.338z"/>
	<path opacity="0.3" fill-rule="evenodd" clip-rule="evenodd" fill="#231F20" d="M0,160.338c0-4.708,24.148-8.523,53.927-8.523
		c29.788,0,53.93,3.815,53.93,8.523c0,4.707-24.142,8.522-53.93,8.522C24.148,168.86,0,165.045,0,160.338z"/>
</g>
<g>
	
		<line fill="none" stroke="#B7A780" stroke-width="3.409" stroke-miterlimit="10" x1="234.611" y1="144.305" x2="234.611" y2="160.338"/>
</g>
<g>
	
		<line fill="none" stroke="#B7A780" stroke-width="3.409" stroke-miterlimit="10" x1="53.93" y1="144.305" x2="53.93" y2="160.338"/>
</g>
<g id="change3">
	<path fill-rule="evenodd" clip-rule="evenodd" fill="#E05B47" d="M141.856,69.143c-29.899,0-54.142,6.575-54.142,14.687V293.44
		c0,8.11,24.243,14.686,54.142,14.686c29.905,0,54.146-6.575,54.146-14.686V83.829C196.002,75.717,171.761,69.143,141.856,69.143z"
		/>
</g>
<g>
	<path opacity="0.3" fill-rule="evenodd" clip-rule="evenodd" fill="#231F20" d="M87.714,83.829
		c0-8.112,24.243-14.687,54.142-14.687c29.905,0,54.146,6.575,54.146,14.687c0,8.111-24.241,14.686-54.146,14.686
		C111.957,98.515,87.714,91.94,87.714,83.829z"/>
</g>
<g id="change1">
	<g id="pOb1IH_3_">
		<g>
			<path fill-rule="evenodd" clip-rule="evenodd" fill="#FF931E" d="M245.917,132.23c-0.073,0.528-0.124,1.061-0.219,1.585
				c-0.534,2.957-1.978,5.438-4.014,7.605c-0.944,1.005-1.999,1.889-3.106,2.699c-0.217,0.16-0.574,0.121-0.935,0.186
				c0.296-0.739,0.562-1.392,0.816-2.051c0.826-2.138,1.521-4.316,1.87-6.589c0.485-3.097-0.315-5.871-2.274-8.282
				c-0.809-0.997-1.791-1.855-2.699-2.777c-0.028-0.031-0.067-0.051-0.089-0.062c-0.378,0.942-0.731,1.884-1.133,2.805
				c-0.84,1.928-1.99,3.671-3.244,5.35c-0.415,0.552-0.825,1.113-1.172,1.709c-0.872,1.489-0.953,3.056-0.383,4.672
				c0.569,1.618,1.5,3.021,2.568,4.344c0.203,0.255,0.401,0.515,0.643,0.819c-0.646-0.029-1.24,0.098-1.822-0.192
				c-1.308-0.651-2.46-1.518-3.512-2.522c-1.419-1.363-2.562-2.921-3.266-4.779c-0.311-0.818-0.513-1.663-0.593-2.537
				c-0.011-0.08-0.036-0.156-0.05-0.235c0-0.511,0-1.02,0-1.529c0.014-0.07,0.043-0.138,0.05-0.208
				c0.145-1.678,0.676-3.232,1.582-4.643c0.605-0.939,1.237-1.866,1.913-2.753c2.969-3.892,4.377-8.369,4.975-13.155
				c0.255,0,0.513,0,0.765,0c0.063,0.06,0.124,0.127,0.19,0.18c1.36,1.077,2.768,2.104,4.081,3.237
				c2.609,2.246,4.873,4.799,6.594,7.802c1.139,1.984,1.965,4.089,2.3,6.366c0.058,0.385,0.11,0.769,0.163,1.151
				C245.917,131.028,245.917,131.627,245.917,132.23z"/>
		</g>
	</g>
	<g id="pOb1IH_4_">
		<g>
			<path fill-rule="evenodd" clip-rule="evenodd" fill="#FF931E" d="M65.237,132.23c-0.074,0.528-0.126,1.061-0.221,1.585
				c-0.533,2.957-1.976,5.438-4.013,7.605c-0.943,1.005-1.999,1.889-3.106,2.699c-0.218,0.159-0.574,0.12-0.935,0.185
				c0.296-0.739,0.562-1.392,0.817-2.051c0.827-2.139,1.52-4.316,1.87-6.589c0.485-3.098-0.315-5.872-2.274-8.282
				c-0.809-0.997-1.792-1.855-2.699-2.776c-0.029-0.032-0.069-0.052-0.089-0.063c-0.378,0.942-0.731,1.884-1.133,2.805
				c-0.841,1.928-1.99,3.671-3.244,5.35c-0.417,0.553-0.826,1.113-1.173,1.709c-0.873,1.489-0.953,3.056-0.382,4.672
				c0.568,1.618,1.5,3.021,2.568,4.344c0.203,0.255,0.401,0.515,0.642,0.819c-0.646-0.029-1.239,0.098-1.821-0.192
				c-1.309-0.651-2.461-1.518-3.511-2.522c-1.42-1.363-2.564-2.921-3.268-4.779c-0.309-0.818-0.513-1.663-0.594-2.537
				c-0.008-0.08-0.034-0.156-0.048-0.234c0-0.511,0-1.021,0-1.529c0.014-0.07,0.042-0.138,0.048-0.208
				c0.146-1.678,0.678-3.232,1.584-4.643c0.605-0.939,1.236-1.866,1.913-2.753c2.969-3.892,4.377-8.369,4.974-13.156
				c0.255,0,0.514,0,0.766,0c0.062,0.06,0.124,0.127,0.19,0.181c1.361,1.077,2.767,2.104,4.081,3.237
				c2.61,2.246,4.874,4.799,6.594,7.802c1.139,1.984,1.965,4.089,2.301,6.366c0.058,0.385,0.109,0.769,0.163,1.151
				C65.237,131.028,65.237,131.627,65.237,132.23z"/>
		</g>
	</g>
	<g id="pOb1IH_2_">
		<g>
			<path fill-rule="evenodd" clip-rule="evenodd" fill="#FF931E" d="M161.343,35.394c-0.126,0.91-0.218,1.828-0.381,2.731
				c-0.921,5.097-3.405,9.371-6.915,13.105c-1.627,1.732-3.443,3.255-5.354,4.652c-0.373,0.272-0.989,0.207-1.612,0.319
				c0.51-1.274,0.973-2.398,1.411-3.534c1.423-3.686,2.619-7.438,3.224-11.353c0.833-5.338-0.544-10.119-3.921-14.273
				c-1.396-1.718-3.088-3.198-4.649-4.784c-0.051-0.055-0.12-0.089-0.155-0.109c-0.65,1.623-1.262,3.247-1.95,4.833
				c-1.449,3.321-3.431,6.327-5.594,9.218c-0.714,0.953-1.422,1.919-2.019,2.945c-1.502,2.565-1.641,5.267-0.66,8.052
				c0.981,2.788,2.587,5.206,4.423,7.487c0.353,0.439,0.694,0.886,1.11,1.411c-1.113-0.048-2.137,0.167-3.141-0.333
				c-2.254-1.121-4.239-2.616-6.046-4.345c-2.45-2.349-4.423-5.031-5.63-8.235c-0.534-1.411-0.887-2.865-1.024-4.372
				c-0.015-0.138-0.058-0.27-0.086-0.404c0-0.881,0-1.758,0-2.636c0.028-0.121,0.074-0.238,0.086-0.359
				c0.252-2.891,1.165-5.567,2.73-8c1.039-1.618,2.129-3.215,3.293-4.744c5.118-6.707,7.543-14.419,8.574-22.668
				c0.439,0,0.881,0,1.317,0c0.108,0.103,0.212,0.218,0.327,0.309c2.349,1.856,4.77,3.626,7.035,5.579
				c4.496,3.87,8.396,8.269,11.361,13.444c1.962,3.419,3.385,7.044,3.964,10.968c0.099,0.663,0.189,1.325,0.281,1.985
				C161.343,33.323,161.343,34.356,161.343,35.394z"/>
		</g>
	</g>
</g>
<g>
	
		<line fill="none" stroke="#B7A780" stroke-width="5.8743" stroke-miterlimit="10" x1="141.859" y1="56.202" x2="141.859" y2="83.829"/>
</g>
</svg>
