<?xml version="1.0" encoding="UTF-8"?><svg xmlns="http://www.w3.org/2000/svg" xmlns:xlink="http://www.w3.org/1999/xlink" height="21.0" preserveAspectRatio="xMidYMid meet" version="1.0" viewBox="0.0 14.0 36.0 21.0" width="36.0" zoomAndPan="magnify"><g id="change1_1"><path d="M13 32h20s3 0 3-4c0-2 0-6-1-7s-8-7-11-7h-6c-3 0-10 7-10 7l-4 1s-3 1-3 3v3s-1 .338-1 1.957C0 32 2 32 2 32h11z" fill="#DD2E44"/></g><g id="change2_1"><path d="M20 16h-2c-2 0-8 6-8 6s4.997-.263 10-.519V16zm10 3c-1-1-5-3-7-3h-1v5.379c4.011-.204 7.582-.379 8-.379 1 0 1-1 0-2z" fill="#BBDDF5"/></g><g id="change3_1"><circle cx="10" cy="31" fill="#292F33" r="4"/></g><g id="change4_1"><circle cx="10" cy="31" fill="#CCD6DD" r="2"/></g><g id="change3_2"><circle cx="27" cy="31" fill="#292F33" r="4"/></g><g id="change4_2"><circle cx="27" cy="31" fill="#CCD6DD" r="2"/></g></svg>