<?xml version="1.0" encoding="iso-8859-1"?>
<!-- Generator: Adobe Illustrator 16.0.0, SVG Export Plug-In . SVG Version: 6.00 Build 0)  -->
<!DOCTYPE svg PUBLIC "-//W3C//DTD SVG 1.1//EN" "http://www.w3.org/Graphics/SVG/1.1/DTD/svg11.dtd">
<svg version="1.1" id="Layer_1" xmlns="http://www.w3.org/2000/svg" xmlns:xlink="http://www.w3.org/1999/xlink" x="0px" y="0px"
	 width="483.815px" height="399.452px" viewBox="7.25 50.606 483.815 399.452"
	 style="enable-background:new 7.25 50.606 483.815 399.452;" xml:space="preserve">
<g id="change1">
	<path style="fill:#E05A47;" d="M465.534,183.756h-16.379L401.857,61.699c-2.591-6.688-9.026-11.093-16.196-11.093H121.012
		c-6.987,0-13.293,4.188-16.006,10.628L53.417,183.756H41.268c-16.443,0-34.018,13.815-34.018,30.856v126.853
		c0,17.042,13.331,30.852,29.774,30.852h11.464c-0.761,2.633-1.189,5.4-1.189,8.272v39.696c0,16.445,13.331,29.772,29.774,29.772
		h9.924c16.443,0,29.772-13.327,29.772-29.772v-39.696c0-2.872-0.429-5.641-1.188-8.272h267.026c-0.759,2.633-1.189,5.4-1.189,8.272
		v39.696c0,16.445,13.329,29.772,29.774,29.772h9.926c16.44,0,29.771-13.327,29.771-29.772v-39.696c0-2.872-0.427-5.641-1.186-8.272
		h11.588c16.445,0,29.774-13.81,29.774-30.852V214.612C491.064,197.572,481.979,183.756,465.534,183.756z M132.544,85.341h241.223
		l38.139,98.416H91.107L132.544,85.341z M84.163,292.1c-18.271,0-33.083-14.809-33.083-33.086c0-18.269,14.812-33.079,33.083-33.079
		s33.083,14.811,33.083,33.079C117.247,277.291,102.434,292.1,84.163,292.1z M414.15,292.1c-18.273,0-33.086-14.809-33.086-33.086
		c0-18.269,14.812-33.079,33.086-33.079c18.27,0,33.081,14.811,33.081,33.079C447.231,277.291,432.42,292.1,414.15,292.1z"/>
</g>
</svg>
