<?xml version="1.0" encoding="utf-8"?><!DOCTYPE svg PUBLIC "-//W3C//DTD SVG 1.1//EN" "http://www.w3.org/Graphics/SVG/1.1/DTD/svg11.dtd">
<svg version="1.1" id="Layer_1" xmlns="http://www.w3.org/2000/svg" xmlns:xlink="http://www.w3.org/1999/xlink" x="0px" y="0px" viewBox="0 0 98.4 102.1" enable-background="new 0 0 98.4 102.1" xml:space="preserve">
<g>
	<g id="change1_1"><path fill="#FFE1B0" d="M42.4,0.2C20.6,2-3.2,22.5,0.4,58.6s38,48.6,60.8,41.6c22.3-6.9,41.9-29,36.3-61.5
		C93.7,16.6,71.8-2.2,42.4,0.2z"></path></g>
	<g>
		<g id="change2_1"><path fill="#F6A2B0" d="M6.5,35.2c16.9-8.1,40,13.5,42.4,15.8c0-0.2,0-0.3,0.1-0.3c-0.4-3.6-4.6-34-36.2-35.8
			C7.3,20.9,3,28.7,0.9,38.2C2.6,37.2,4.4,36.2,6.5,35.2z"></path></g>
		<g id="change2_2"><path fill="#F6A2B0" d="M49.1,51.2C49.1,51.2,49.1,51.2,49.1,51.2C49.1,51.2,49.1,51.2,49.1,51.2c1,4.3,8.4,31.6,37.5,31.4
			c2.9-3.6,5.4-7.7,7.3-12.3c-1.3,0.6-2.7,1.1-4.2,1.6C71,78.4,49.1,51.2,49.1,51.2c0,0,28.6,15.7,48.4-8.5c-0.1-1.3-0.3-2.7-0.6-4
			c-1.4-7.9-5.1-15.4-10.6-21.6c-0.1,2.1-0.2,4.5-0.6,7c-2.6,19.6-36.7,27-36.7,27S49.1,51.1,49.1,51.2
			C49.1,51.1,49.1,51.1,49.1,51.2z"></path></g>
		<g id="change2_3"><path fill="#F6A2B0" d="M44.3,5.7c15,11.7,5.5,43,4.8,45.2c0,0,0,0.1,0,0.1c0,0,0.1,0,0.1,0S77,31.7,62.3,2.1
			c-6.2-1.8-13.1-2.5-20.4-1.9c-1.6,0.1-3.2,0.4-4.7,0.7C39.4,2.2,41.7,3.7,44.3,5.7z"></path></g>
		<g id="change2_4"><path fill="#F6A2B0" d="M13.7,79.6C15.3,60.9,46,51.9,48.9,51.1c0,0,0,0,0,0C46.1,50,17.2,39.9,1.2,66.5
			c2.2,9.1,6.7,16.4,12.3,21.9C13.4,85.8,13.4,82.9,13.7,79.6z"></path></g>
		<g id="change2_5"><path fill="#F6A2B0" d="M58.7,95.1C43.2,85.6,48,55.9,48.9,51.2c-2.7,2.2-26.2,22.3-10.3,50c7.7,1.4,15.4,1.1,22.1-1
			c1.5-0.5,3-1,4.5-1.6C63.1,97.6,61,96.5,58.7,95.1z"></path></g>
	</g>
</g>
</svg>