<?xml version="1.0" encoding="iso-8859-1"?>
<!-- Generator: Adobe Illustrator 16.0.0, SVG Export Plug-In . SVG Version: 6.00 Build 0)  -->
<!DOCTYPE svg PUBLIC "-//W3C//DTD SVG 1.1//EN" "http://www.w3.org/Graphics/SVG/1.1/DTD/svg11.dtd">
<svg version="1.1" id="Layer_1" xmlns="http://www.w3.org/2000/svg" xmlns:xlink="http://www.w3.org/1999/xlink" x="0px" y="0px"
	 width="500px" height="500px" viewBox="0 0 500 500" style="enable-background:new 0 0 500 500;" xml:space="preserve">
<g id="change1">
	<path style="fill:#EC6433;" d="M474.019,138.939c-2.789-5.613-5.79-11.102-8.978-16.467C421.469,49.15,341.485,0,250.001,0
		C158.263,0,78.082,49.421,34.589,123.083c-2.095,3.549-4.106,7.151-6.028,10.81C10.331,168.588,0,208.085,0,250
		c0,137.717,111.357,249.415,248.942,249.987V335.92c-46.979-0.57-84.891-38.807-84.891-85.92c0-14.474,3.593-28.102,9.913-40.067
		c0.633-1.2,1.304-2.378,1.992-3.543h-0.001c14.952-25.331,42.501-42.337,74.044-42.337c31.288,0,58.646,16.732,73.677,41.725
		c1.158,1.922,2.249,3.889,3.257,5.908c5.758,11.538,9.014,24.543,9.014,38.314c0,47.469-38.479,85.948-85.945,85.948
		c-0.116,0-0.23-0.009-0.348-0.009c-0.237,0-0.473-0.018-0.711-0.02v164.066c0.237,0,0.475,0.01,0.711,0.01
		c0.116,0,0.23,0.004,0.348,0.004C388.073,500,500,388.073,500,250C500,210.104,490.638,172.4,474.019,138.939z"/>
</g>
<path style="opacity:0.2;fill:#FFFFFF;enable-background:new    ;" d="M465.04,122.472l-141.362,83.306
	c1.158,1.922,2.249,3.889,3.257,5.908c5.758,11.538,9.014,24.543,9.014,38.314c0,47.469-38.479,85.948-85.945,85.948
	c-0.116,0-0.23-0.009-0.348-0.009c-0.237,0-0.473-0.018-0.711-0.02v164.066c0.237,0,0.475,0.01,0.711,0.01
	c0.116,0,0.23,0.004,0.348,0.004C388.073,500,500,388.073,500,250c0-39.896-9.362-77.6-25.981-111.061
	C471.23,133.326,468.229,127.837,465.04,122.472z"/>
<path style="opacity:0.5;fill:#FFFFFF;enable-background:new    ;" d="M164.053,250c0-14.474,3.593-28.102,9.913-40.067
	c0.633-1.2,1.304-2.378,1.992-3.543L34.589,123.083c-2.095,3.549-4.106,7.151-6.028,10.81C10.331,168.588,0,208.085,0,250
	c0,137.717,111.357,249.415,248.942,249.987V335.92C201.964,335.35,164.053,297.114,164.053,250z"/>
<path style="fill:#FFFFFF;fill-opacity:0;" d="M250.001,164.053c31.288,0,58.646,16.732,73.677,41.725l141.363-83.306
	C421.469,49.15,341.485,0,250.001,0C158.263,0,78.082,49.421,34.589,123.083l141.368,83.307
	C190.908,181.059,218.458,164.053,250.001,164.053z"/>
</svg>
