<?xml version="1.0" encoding="iso-8859-1"?>
<!-- Generator: Adobe Illustrator 16.0.0, SVG Export Plug-In . SVG Version: 6.00 Build 0)  -->
<!DOCTYPE svg PUBLIC "-//W3C//DTD SVG 1.1//EN" "http://www.w3.org/Graphics/SVG/1.1/DTD/svg11.dtd">
<svg version="1.1" id="Layer_1" xmlns="http://www.w3.org/2000/svg" xmlns:xlink="http://www.w3.org/1999/xlink" x="0px" y="0px"
	 width="487.232px" height="352.24px" viewBox="0 0 487.232 352.24" style="enable-background:new 0 0 487.232 352.24;"
	 xml:space="preserve">
<g id="change1">
	<path style="fill:#8CCDB0;" d="M265.764,352.24c-4.923,0-9.842,0-14.765,0c-11.771-2.928-24.031-4.619-35.196-9.065
		c-16.836-6.706-30.055-18.59-39.298-34.977c-20.351,8.506-40.92,11.489-62.306,7.559c-35.867-6.596-62.33-29.779-69.07-61.26
		c-3.309-15.445-0.503-30.36,6.281-44.415C16.242,190.391,10.751,183.66,0,147.383c0-4.923,0-9.844,0-14.765
		c0.423-0.406,1.144-0.758,1.226-1.223c6.043-34.257,28.45-53.108,60.119-62.108c11.884-3.378,24.63-3.726,36.939-5.45
		c8.995-34.531,32.633-53.913,66.782-61.246c34.01-7.302,64.392,0.834,90.328,24.343c21.057-15.369,44.174-22.288,69.575-20.06
		c32.937,2.892,59.802,16.491,74.449,47.56c4.678,9.926,5.703,21.574,8.507,32.86c33.855,5.49,53.8,16.551,68.322,40.642
		c5.201,8.631,7.412,19.064,10.984,28.673c0,4.306,0,8.612,0,12.918c-3.514,19.512-12.371,36.106-27.579,48.624
		c26.195,43.596,3.444,87.37-34.69,104.617c-29.376,13.286-58.807,12.927-87.824-1.091c-5.021-2.431-7.796-1.633-11.836,1.918
		c-7.273,6.391-14.732,13.301-23.37,17.231C290.51,346.021,277.875,348.559,265.764,352.24z"/>
</g>
</svg>
