<?xml version="1.0" encoding="UTF-8"?><svg xmlns="http://www.w3.org/2000/svg" xmlns:xlink="http://www.w3.org/1999/xlink" height="245.4" preserveAspectRatio="xMidYMid meet" version="1.1" viewBox="70.7 89.0 282.0 245.4" width="282.0" zoomAndPan="magnify">
 <g id="surface1">
  <g id="change1_1"><path d="m182.8 239.77c-0.63 0-1.23-0.37-1.49-0.98l-56.11-130.22c-0.35-0.83 0.03-1.78 0.85-2.14 0.83-0.35 1.78 0.03 2.14 0.85l56.1 130.22c0.35 0.82-0.02 1.78-0.85 2.14-0.21 0.09-0.42 0.13-0.64 0.13" fill="#fbc32d"/></g>
  <g id="change1_2"><path d="m89.641 202.71c-0.629 0-1.231-0.37-1.493-0.98-0.355-0.82 0.024-1.78 0.848-2.13l130.21-56.11c0.83-0.35 1.78 0.03 2.14 0.85 0.35 0.82-0.03 1.78-0.85 2.13l-130.22 56.11c-0.21 0.09-0.428 0.13-0.639 0.13" fill="#fbc32d"/></g>
  <g id="change1_3"><path d="m220.62 200.86c-0.2 0-0.4-0.04-0.6-0.11l-131.75-52.41c-0.832-0.33-1.239-1.28-0.907-2.11s1.278-1.24 2.11-0.91l131.75 52.41c0.83 0.33 1.24 1.27 0.91 2.11-0.25 0.63-0.86 1.02-1.51 1.02" fill="#fbc32d"/></g>
  <g id="change1_4"><path d="m128.54 240.54c-0.2 0-0.4-0.04-0.59-0.12-0.84-0.33-1.25-1.28-0.91-2.11l52.4-131.75c0.33-0.83 1.28-1.24 2.11-0.91s1.24 1.28 0.91 2.11l-52.41 131.75c-0.25 0.64-0.86 1.03-1.51 1.03" fill="#fbc32d"/></g>
  <g id="change1_5"><path d="m212.86 233.03c-0.48 0-0.96-0.18-1.33-0.55l-116.23-116.23c-0.734-0.73-0.734-1.93 0.001-2.66 0.734-0.73 1.926-0.73 2.664 0l116.24 116.23c0.73 0.73 0.73 1.93 0 2.66-0.37 0.37-0.86 0.55-1.34 0.55" fill="#fbc32d"/></g>
  <g id="change1_6"><path d="m96.633 233.03c-0.485 0-0.965-0.18-1.332-0.55-0.735-0.73-0.735-1.93 0-2.66l116.23-116.23c0.74-0.74 1.93-0.74 2.67 0 0.73 0.73 0.73 1.93 0 2.66l-116.24 116.23c-0.366 0.37-0.847 0.55-1.327 0.55" fill="#fbc32d"/></g>
  <g id="change1_7"><path d="m236.94 174.92h-164.38c-1.04 0-1.884-0.85-1.884-1.88 0-1.04 0.844-1.89 1.883-1.89h164.38c1.04 0 1.88 0.85 1.88 1.89 0 1.03-0.84 1.88-1.88 1.88" fill="#fbc32d"/></g>
  <g id="change1_8"><path d="m154.75 257.11c-1.04 0-1.89-0.85-1.89-1.89v-164.37c0-1.041 0.85-1.885 1.89-1.885s1.88 0.844 1.88 1.883v164.37c0 1.04-0.84 1.89-1.88 1.89" fill="#fbc32d"/></g>
  <g id="change1_9"><path d="m212.21 172.78c0 31.74-25.72 57.47-57.46 57.47s-57.473-25.73-57.473-57.47c0-31.73 25.733-57.46 57.473-57.46s57.46 25.73 57.46 57.46" fill="#fbc32d"/></g>
  <g id="change2_1"><path d="m97.301 171.15v-0.01 0.01m0-0.03c0-0.01 0.004-0.02 0.004-0.03 0 0.01-0.004 0.02-0.004 0.03m0.004-0.04v-0.03 0.02 0.01m0-0.05v-0.03 0.03m0-0.05s0.004-0.01 0.004-0.02c0 0.01-0.004 0.02-0.004 0.02m0.004-0.04v-0.03 0.03m0-0.05v-0.02 0.02m0.003-0.04v-0.03 0.03m0-0.05v-0.02 0.02m0-0.04c0.004-0.01 0.004-0.02 0.004-0.03 0 0.01 0 0.02-0.004 0.03m0.004-0.05v-0.03 0.01 0.02m0-0.04c0-0.01 0-0.02 0.004-0.03h-0.004v0.03m0.004-0.05v-0.03 0.01 0.02m0-0.04v-0.03 0.03m0.004-0.04v-0.04 0.01 0.02 0.01m0-0.05v-0.03 0.03m0-0.04c0.004-0.01 0.004-0.02 0.004-0.04 0 0.01 0 0.03-0.004 0.04m0.004-0.05v-0.03 0.03m0-0.04c0-0.01 0.004-0.02 0.004-0.04 0 0.02-0.004 0.02-0.004 0.03v0.01m0.004-0.04c0.012-0.28 0.023-0.56 0.039-0.84v0.04 0.01c-0.004 0.01-0.004 0.02-0.004 0.03v0.01c0 0.02 0 0.02-0.004 0.04v0.01 0.03 0.01c0 0.02-0.004 0.03-0.004 0.04v0.01 0.03c0 0.01 0 0.01-0.004 0.01v0.04 0.01c0 0.01 0 0.02-0.003 0.03v0.01 0.04c-0.004 0.08-0.008 0.17-0.012 0.26 0 0.02-0.004 0.02-0.004 0.04v0.01 0.03 0.01c0 0.02-0.004 0.03-0.004 0.04v0.01 0.03 0.01m0.039-0.84c0.004-0.02 0.004-0.03 0.004-0.05v0.01c0 0.01 0 0.02-0.004 0.03v0.01m0.004-0.05c0.324-5.64 1.465-11.07 3.305-16.16-1.688 4.67-2.785 9.61-3.207 14.75 0 0.01 0 0.03-0.004 0.04v0.05h-0.004c0 0.03-0.004 0.05-0.004 0.09-0.02 0.23-0.039 0.47-0.055 0.7v0.04 0.01c0 0.01-0.004 0.02-0.004 0.03v0.01c0 0.01 0 0.03-0.004 0.04v0.01 0.03 0.01c-0.003 0.01-0.003 0.02-0.003 0.03v0.01c0 0.02-0.004 0.03-0.004 0.04v0.01 0.03l-0.004 0.01v0.04 0.01c-0.004 0.01-0.004 0.02-0.004 0.03v0.01c0 0.02 0 0.02-0.004 0.04v0.01 0.03 0.01c-0.004 0.01-0.004 0.03-0.004 0.04m4.485-19.18c2.64-6.17 6.32-11.78 10.82-16.62-4.5 4.84-8.18 10.45-10.82 16.62m13.48-19.29c4.42-4.17 9.52-7.66 15.09-10.26-5.57 2.6-10.67 6.09-15.09 10.26m18.07-11.55c6.05-2.42 12.6-3.84 19.45-4.07-6.85 0.23-13.4 1.65-19.45 4.07" fill="#fcdf8e"/></g>
  <g id="change3_1"><path d="m130.43 120.7c0.98-0.46 1.97-0.89 2.98-1.29-1.01 0.4-2 0.83-2.98 1.29" fill="#f9b01f"/></g>
  <g id="change3_2"><path d="m100.68 153.27c0.36-1.02 0.76-2.03 1.18-3.02-0.42 0.99-0.82 2-1.18 3.02" fill="#f9b01f"/></g>
  <g id="change3_3"><path d="m112.68 133.63c0.86-0.92 1.74-1.81 2.66-2.67-0.92 0.86-1.8 1.75-2.66 2.67" fill="#f9b01f"/></g>
  <g id="change3_4"><path d="m97.277 172.74v-0.02 0.02m0-0.05c0.004 0 0.004-0.01 0.004-0.01s0 0.01-0.004 0.01m0.004-0.05v-0.02 0.02m0-0.04v-0.02 0.02m0-0.05v-0.02 0.02m0-0.04v-0.03 0.03m0-0.05v-0.02 0.02m0-0.04v-0.03 0.03m0-0.05v-0.02 0.02m0-0.04v-0.03 0.03m0-0.05v-0.02 0.02m0-0.05v-0.02 0.02m0-0.04v-0.03 0.03m0-0.05v-0.02 0.02m0-0.04v-0.03 0.03m0.004-0.05v-0.02 0.02m0-0.04v-0.03 0.03m0-0.05v-0.02 0.02m0-0.04v-0.03 0.03m0-0.05v-0.02 0.02m0-0.04v-0.03 0.02 0.01m0.004-0.05v-0.02 0.02m0-0.05v-0.02 0.02m0-0.04v-0.03 0.03m0-0.05v-0.02 0.02m0-0.04c0-0.01 0.004-0.02 0.004-0.03-0.004 0.02-0.004 0.02-0.004 0.03m0.004-0.04v-0.03 0.02 0.01m0-0.04v-0.04 0.03 0.01m0-0.05c0-0.05 0.004-0.1 0.004-0.16v0.01c0 0.04 0 0.07-0.004 0.11v0.01 0.02 0.01m0.004-0.17v-0.03 0.01 0.02m0-0.04c0.004-0.01 0.004-0.02 0.004-0.03 0 0.01 0 0.02-0.004 0.03m0.004-0.05v-0.03 0.01 0.02m0-0.04v-0.02 0.01 0.01" fill="#f9b01f"/></g>
  <g id="change3_5"><path d="m117.45 205.08c-2.13-3.37-3.85-7.03-5.1-10.9-6.01-18.72-3.65-41.7 8.15-57.71 7.72-10.47 18.83-18.25 31.19-21.08-28.73 1.51-51.878 24.12-54.217 52.63 0.422-5.14 1.519-10.08 3.207-14.75 0.36-1.02 0.76-2.03 1.18-3.02 2.64-6.17 6.32-11.78 10.82-16.62 0.86-0.92 1.74-1.81 2.66-2.67 4.42-4.17 9.52-7.66 15.09-10.26 0.98-0.46 1.97-0.89 2.98-1.29 6.05-2.42 12.6-3.84 19.45-4.07 0.48-0.01 0.95-0.02 1.42-0.02h0.47c0.97 0 1.95 0.02 2.91 0.07-2.26 1.02-4.44 2.18-6.52 3.36-7.34 4.17-13.38 10.08-18.36 16.84-5.33 7.23-9.14 15.27-10.4 24.2-1.27 8.87-0.17 17.94 2.44 26.48 0.09 0.3 0.18 0.6 0.28 0.9-3.6 5.35-6.24 11.4-7.65 17.91m-20.173-32.34v-0.02 0.02m0-0.05c0.004 0 0.004-0.01 0.004-0.01s0 0.01-0.004 0.01m0.004-0.05v-0.02 0.02m0-0.04v-0.02 0.02m0-0.05v-0.02 0.02m0-0.04v-0.03 0.03m0-0.05v-0.02 0.02m0-0.04v-0.03 0.03m0-0.05v-0.02 0.02m0-0.04v-0.03 0.03m0-0.05v-0.02 0.02m0-0.05v-0.02 0.02m0-0.04v-0.03 0.03m0-0.05v-0.02 0.02m0-0.04v-0.03 0.03m0.004-0.05v-0.02 0.02m0-0.04v-0.03 0.03m0-0.05v-0.02 0.02m0-0.04v-0.03 0.03m0-0.05v-0.02 0.02m0-0.05v-0.02 0.02m0.004-0.04v-0.02 0.02m0-0.05v-0.02 0.02m0-0.04v-0.03 0.03m0-0.05v-0.02 0.02m0-0.04c0-0.01 0-0.01 0.004-0.03-0.004 0.02-0.004 0.02-0.004 0.03m0.004-0.05v-0.02 0.02m0-0.04v-0.03 0.03m0-0.05v-0.02 0.02m0-0.03c0.004-0.04 0.004-0.07 0.004-0.11 0 0.04 0 0.07-0.004 0.11m0.004-0.13v-0.02 0.02m0-0.04c0.004-0.01 0.004-0.02 0.004-0.03 0 0.01 0 0.02-0.004 0.03m0.004-0.05v-0.02 0.02m0-0.05v-0.01-0.01 0.02m0-0.04c0-0.01 0.004-0.02 0.004-0.03 0 0.01-0.004 0.02-0.004 0.03m0.004-0.05v-0.02 0.02m0-0.04v-0.03 0.03m0-0.05s0.004-0.01 0.004-0.02c0 0.01-0.004 0.02-0.004 0.02m0.004-0.04v-0.03 0.03m0-0.05v-0.02 0.02m0.003-0.04v-0.03 0.03m0-0.05v-0.02 0.02m0-0.04c0.004-0.01 0.004-0.02 0.004-0.03 0 0.01 0 0.02-0.004 0.03m0.004-0.05v-0.02 0.02m0-0.04v-0.03 0.03m0.004-0.05v-0.02 0.02m0-0.04v-0.03 0.03m0.004-0.05v-0.02 0.02m0-0.04v-0.03 0.03m0-0.04c0.004-0.01 0.004-0.03 0.004-0.04 0 0.02 0 0.02-0.004 0.04m0.004-0.05v-0.03 0.03m0-0.05c0-0.01 0.004-0.01 0.004-0.03 0 0.02-0.004 0.02-0.004 0.03m0.004-0.04v-0.03 0.03m0-0.04c0-0.01 0.004-0.02 0.004-0.04 0 0.02-0.004 0.03-0.004 0.04m0.004-0.05v-0.03 0.03m0-0.04c0-0.02 0.004-0.02 0.004-0.04 0 0.02-0.004 0.02-0.004 0.04m0.004-0.04c0.004-0.09 0.008-0.18 0.012-0.26-0.004 0.08-0.008 0.17-0.012 0.26m0.012-0.26v-0.04 0.04m0-0.05c0.003-0.01 0.003-0.02 0.003-0.03 0 0.01 0 0.02-0.003 0.03m0.003-0.04v-0.04 0.04m0.004-0.05v-0.03 0.03m0-0.04c0-0.01 0.004-0.02 0.004-0.04 0 0.02-0.004 0.03-0.004 0.04m0.004-0.05v-0.03 0.03m0-0.04c0.004-0.02 0.004-0.02 0.004-0.04 0 0.02 0 0.02-0.004 0.04m0.004-0.05c0-0.01 0-0.02 0.004-0.03-0.004 0.01-0.004 0.02-0.004 0.03m0.004-0.04v-0.04 0.04m0-0.05c0.004-0.01 0.004-0.02 0.004-0.03 0 0.01 0 0.02-0.004 0.03m0.004-0.04c0-0.01 0-0.03 0.004-0.04-0.004 0.02-0.004 0.02-0.004 0.04m0.004-0.05v-0.03 0.03m0-0.04c0.004-0.02 0.004-0.02 0.004-0.04 0 0.02 0 0.03-0.004 0.04m0.004-0.05c0-0.01 0-0.02 0.004-0.03-0.004 0.01-0.004 0.02-0.004 0.03m0.004-0.04v-0.04 0.04m0.004-0.05v-0.03 0.03m0-0.04c0-0.01 0.004-0.02 0.004-0.04 0 0.02-0.004 0.03-0.004 0.04m0.004-0.05c0-0.01 0-0.02 0.003-0.03-0.003 0.01-0.003 0.03-0.003 0.03m0.003-0.04v-0.03 0.03m0-0.04c0.004-0.01 0.004-0.03 0.004-0.04 0 0.01 0 0.03-0.004 0.04m0.004-0.05c0-0.01 0.004-0.02 0.004-0.03 0 0.01-0.004 0.02-0.004 0.03m0.004-0.04v-0.04 0.04m0-0.04c0.016-0.23 0.035-0.47 0.055-0.7-0.02 0.23-0.039 0.46-0.055 0.7m0.055-0.7c0-0.04 0.004-0.06 0.004-0.09 0 0.03-0.004 0.05-0.004 0.09m0.008-0.09v-0.05 0.05m0-0.05c0.004-0.01 0.004-0.03 0.004-0.04 0 0.02 0 0.03-0.004 0.04" fill="#f9b01f"/></g>
  <g id="change2_2"><path d="m97.301 171.14v-0.02 0.02m0.004-0.05v-0.01 0.01m0-0.04v-0.02 0.02m0-0.05v-0.02 0.02m0.004-0.04v-0.02 0.02m0-0.05v-0.02 0.02m0-0.04c0-0.01 0-0.01 0.003-0.02-0.003 0.01-0.003 0.01-0.003 0.02m0.003-0.05v-0.02 0.02m0-0.04v-0.02 0.02m0.004-0.05v-0.02 0.02m0-0.05v-0.01 0.01m0.004-0.04v-0.02 0.02m0-0.05v-0.01 0.01m0-0.04c0-0.01 0-0.01 0.004-0.01-0.004 0-0.004 0-0.004 0.01m0.004-0.05v-0.01 0.01m0-0.04v-0.01 0.01m0.004-0.05v-0.01 0.01m0-0.04v-0.01 0.01m0.004-0.05m0.039-0.84m0.004-0.05" fill="#fcdf8e"/></g>
  <g id="change3_6"><path d="m97.277 172.78v-0.04 0.04m0-0.06v-0.03 0.03m0.004-0.04v-0.04 0.04m0-0.06v-0.02 0.02m0-0.04v-0.03 0.03m0-0.05v-0.02 0.02m0-0.05v-0.02 0.02m0-0.04v-0.02 0.02m0-0.05v-0.02 0.02m0-0.04v-0.02 0.02m0-0.05v-0.02 0.02m0-0.04v-0.03 0.03m0-0.05v-0.02 0.02m0-0.05v-0.02 0.02m0-0.04v-0.02 0.02m0-0.05s0.004-0.01 0.004-0.02c0 0.01 0 0.02-0.004 0.02m0.004-0.04v-0.02 0.02m0-0.05v-0.02 0.02m0-0.04v-0.02 0.02m0-0.05v-0.02 0.02m0-0.04v-0.02 0.02m0-0.05c0-0.01 0.004-0.01 0.004-0.02 0 0.01-0.004 0.01-0.004 0.02m0.004-0.04v-0.03 0.03m0-0.05v-0.02 0.02m0-0.05v-0.02 0.02m0-0.04v-0.02 0.02m0.004-0.05v-0.01 0.01m0-0.04v-0.01 0.01m0-0.05v-0.01 0.01m0.004-0.17v-0.01 0.01m0-0.04v-0.01 0.01m0.004-0.04v-0.02 0.02m0-0.05v-0.01 0.01" fill="#f9b01f"/></g>
  <g id="change4_1"><path d="m97.301 171.14v-0.02 0.02m0.004-0.05v-0.01-0.01 0.02m0-0.04v-0.02 0.02m0-0.05v-0.02 0.02m0.004-0.04v-0.02 0.02m0-0.05v-0.02 0.02m0-0.04c0-0.01 0-0.01 0.003-0.02-0.003 0.01-0.003 0.01-0.003 0.02m0.003-0.05v-0.02 0.02m0-0.04v-0.02 0.02m0.004-0.05v-0.02 0.02m0-0.04v-0.01-0.01 0.02m0-0.05h0.004v-0.02c0 0.01 0 0.02-0.004 0.02m0.004-0.04v-0.01-0.01 0.02m0-0.05c0-0.01 0-0.01 0.004-0.01v-0.01c-0.004 0.01-0.004 0.02-0.004 0.02m0.004-0.04v-0.01-0.01 0.02m0-0.05v-0.01 0.01m0.004-0.05v-0.01 0.01m0-0.04v-0.01-0.01 0.02m0.004-0.05v-0.01 0.01m0-0.04v-0.01 0.01m0.004-0.05v-0.01 0.01m0-0.04v-0.01 0.01m0.004-0.05m0.012-0.26m0-0.04v-0.01 0.01m0.003-0.04v-0.01 0.01m0-0.05c0.004 0 0.004 0 0.004-0.01 0 0.01 0 0.01-0.004 0.01m0.004-0.04v-0.01 0.01m0.004-0.05v-0.01 0.01m0-0.04v-0.01 0.01m0.004-0.05v-0.01 0.01m0.004-0.04v-0.01 0.01m0-0.05v-0.01 0.01m0.004-0.04v-0.01 0.01m0.004-0.05v-0.01 0.01m0-0.04v-0.01 0.01m0.004-0.05v-0.01 0.01m0.004-0.04v-0.01 0.01m0-0.05l0.004-0.01-0.004 0.01m0.004-0.04v-0.01 0.01m0.004-0.05v-0.01 0.01m0.003-0.04v-0.01 0.01m0-0.04v-0.01 0.01m0.004-0.05v-0.01 0.01m0.004-0.04v-0.01 0.01m0-0.05m0.055-0.7m0.004-0.09h0.004-0.004m0.004-0.05m0.004-0.04" fill="#fbc653"/></g>
  <g id="change5_1"><path d="m97.277 172.78v-0.04 0.04m0-0.06v-0.03 0.03m0.004-0.04v-0.04 0.04m0-0.06v-0.02 0.02m0-0.04v-0.03 0.03m0-0.05v-0.02 0.02m0-0.05v-0.02 0.02m0-0.04v-0.02 0.02m0-0.05v-0.02 0.02m0-0.04v-0.02 0.02m0-0.05v-0.02 0.02m0-0.04v-0.03 0.03m0-0.05v-0.02 0.02m0-0.05v-0.02 0.02m0-0.04v-0.02 0.02m0-0.05c0.004 0 0.004-0.01 0.004-0.02 0 0.01-0.004 0.02-0.004 0.02m0.004-0.04v-0.02 0.02m0-0.05v-0.02 0.02m0-0.04v-0.02 0.02m0-0.05v-0.02 0.02m0-0.04v-0.02-0.01 0.03m0-0.05c0-0.01 0.004-0.01 0.004-0.02 0 0.01-0.004 0.01-0.004 0.02m0.004-0.04v-0.03 0.03m0-0.05v-0.02 0.02m0-0.05v-0.02 0.02m0-0.04v-0.02 0.02m0.004-0.05v-0.01-0.01 0.02m0-0.04v-0.01-0.01 0.02m0-0.05v-0.01-0.01 0.02m0-0.04v-0.01 0.01m0.004-0.12v-0.01-0.01 0.02m0-0.04v-0.01-0.01 0.02m0.004-0.05v-0.02 0.02m0-0.04v-0.01-0.01-0.01 0.03" fill="#f89f18"/></g>
  <g id="change5_2"><path d="m116.27 215.47c-0.23-0.2-0.45-0.41-0.68-0.62-0.91-0.85-1.8-1.74-2.67-2.65-4.14-4.4-7.6-9.45-10.2-14.98-0.46-0.98-0.9-1.97-1.3-2.98-2.67-6.63-4.143-13.87-4.143-21.46v-0.04-0.02-0.03c0.004 0 0.004-0.01 0.004-0.01v-0.04-0.02-0.02-0.02-0.03-0.02-0.02-0.03-0.02-0.02-0.02-0.03-0.02-0.02-0.02-0.03-0.02-0.02-0.03-0.02-0.02-0.03-0.02-0.02-0.02-0.03s0.004-0.01 0.004-0.02v-0.02-0.02-0.03-0.02-0.02-0.02-0.03-0.02-0.02-0.03-0.02c0-0.01 0.004-0.01 0.004-0.02v-0.02-0.03-0.02-0.02-0.03-0.02-0.02-0.02c0-0.01 0-0.01 0.004-0.03v-0.02-0.02-0.02-0.03-0.02-0.02-0.01c0.004-0.04 0.004-0.07 0.004-0.11v-0.02-0.02-0.02c0.004-0.01 0.004-0.02 0.004-0.03v-0.02-0.02-0.03-0.02-0.02c0-0.01 0.004-0.02 0.004-0.03v-0.02-0.02-0.02-0.03-0.02s0.004-0.01 0.004-0.02v-0.02-0.03-0.02-0.02c0-0.01 0-0.01 0.003-0.02v-0.03-0.02-0.02-0.02c0.004-0.01 0.004-0.02 0.004-0.03v-0.02-0.02-0.02-0.03c0.004 0 0.004-0.01 0.004-0.02v-0.02-0.02-0.03s0-0.01 0.004-0.02v-0.02-0.02-0.03-0.01c0.004-0.02 0.004-0.02 0.004-0.04v-0.01-0.03-0.02c0-0.01 0.004-0.01 0.004-0.03v-0.01-0.03-0.01c0-0.01 0.004-0.02 0.004-0.04v-0.01-0.03-0.01c0-0.02 0.004-0.02 0.004-0.04 0.004-0.09 0.008-0.18 0.012-0.26v-0.04-0.01c0.003-0.01 0.003-0.02 0.003-0.03v-0.01-0.04c0.004 0 0.004 0 0.004-0.01v-0.03-0.01c0-0.01 0.004-0.02 0.004-0.04v-0.01-0.03-0.01c0.004-0.02 0.004-0.02 0.004-0.04v-0.01c0-0.01 0-0.02 0.004-0.03v-0.01-0.04-0.01c0.004-0.01 0.004-0.02 0.004-0.03v-0.01c0-0.02 0-0.02 0.004-0.04v-0.01-0.03-0.01c0.004-0.01 0.004-0.02 0.004-0.04v-0.01c0-0.01 0-0.02 0.004-0.03v-0.01-0.04l0.004-0.01v-0.03-0.01c0-0.01 0.004-0.02 0.004-0.04v-0.01s0-0.02 0.003-0.03v-0.01-0.03-0.01c0.004-0.01 0.004-0.03 0.004-0.04v-0.01c0-0.01 0.004-0.02 0.004-0.03v-0.01-0.04c0.016-0.24 0.035-0.47 0.055-0.7 0-0.04 0.004-0.06 0.004-0.09h0.004v-0.05c0.004-0.01 0.004-0.02 0.004-0.04 2.339-28.51 25.487-51.12 54.217-52.63-12.36 2.83-23.47 10.61-31.19 21.08-11.8 16.01-14.16 38.99-8.15 57.71 1.25 3.87 2.97 7.53 5.1 10.9-0.71 3.26-1.11 6.64-1.18 10.1v0.16 0.01 0.05 0.07" fill="#f89f18"/></g>
  <g id="change6_1"><path d="m325.39 215.87c-3.15-16.61-16.02-29.78-32.48-33.37-8.5-16.31-25.55-27.46-45.21-27.46-18.22 0-34.19 9.56-43.2 23.94-9.36-9.14-22.16-14.78-36.27-14.78-28.7 0-51.96 23.27-51.96 51.96 0 0.36 0.02 0.7 0.02 1.05-18.102 4.15-31.61 20.35-31.61 39.71 0 22.51 18.25 40.76 40.75 40.76 4.66 0 9.12-0.79 13.28-2.23 7.33 16.32 23.71 27.69 42.76 27.69 10.77 0 20.69-3.64 28.6-9.75 9.48 12.72 24.63 20.97 41.7 20.97 23.71 0 43.69-15.88 49.93-37.57 2.8 0.57 5.69 0.89 8.66 0.89 23.35 0 42.28-18.94 42.28-42.29 0-18.05-11.32-33.45-27.25-39.52" fill="#7bd3e2"/></g>
  <g id="change7_1"><path d="m116.27 216.12v-0.02 0.02m0-0.05v-0.02 0.02m0-0.06v-0.01 0.01m0-0.06v-0.01 0.01m0-0.05v-0.01 0.01m0-0.05v-0.01 0.01m0-0.06v-0.01 0.01m0-0.06v-0.01 0.01m0-0.05v-0.01 0.01m0-0.11v-0.01 0.01m0-0.05v-0.01 0.01" fill="#bce9ef"/></g>
  <g id="change8_1"><path d="m116.27 215.4m0-0.05v-0.01 0.01m0-0.17" fill="#bd9625"/></g>
  <g id="change9_1"><path d="m251.77 334.36c-17.07 0-32.22-8.25-41.7-20.97-7.91 6.11-17.83 9.75-28.6 9.75-19.05 0-35.43-11.37-42.76-27.69-4.1 1.41-8.49 2.2-13.06 2.23h-0.22c-22.5 0-40.75-18.25-40.75-40.76 0-19.36 13.508-35.56 31.61-39.71 0-0.35-0.02-0.69-0.02-1.05v-0.04-0.02-0.03-0.02-0.04-0.01-0.05-0.01-0.04-0.01-0.04-0.01-0.05-0.01-0.05-0.01-0.04-0.01-0.1-0.01-0.04-0.01-0.11-0.05-0.01-0.16c0.34-18.27 10.12-34.24 24.67-43.23-4.21 7.1-7.31 14.94-9.32 22.78-5.59 21.8-4.25 47 10.64 64.9 8.78 10.55 21.1 15.8 34.2 15.8 0.34 0 0.7-0.01 1.04-0.02 2.72 11.86 15.49 18.82 28.11 19.86 1.26 0.11 2.52 0.16 3.78 0.16 12.19 0 23.96-4.89 32.33-13.5 7.42 7.59 19.49 10.79 30.57 10.79 3.69 0 7.28-0.36 10.53-1.02 9.09-1.86 16.95-6.86 22.13-14.58 3.16-4.71 5.15-10.1 6.69-15.59 1.47 0.49 2.99 0.76 4.56 0.76 2.59 0 5.28-0.74 8.03-2.39 7.11-4.28 12.13-12.36 15.04-19.96 1.45-3.8 2.48-7.89 3.16-12.08 6.36 7.4 10.21 17.01 10.21 27.53 0 23.06-18.45 41.81-41.39 42.27-0.3 0.01-0.6 0.02-0.89 0.02-2.97 0-5.86-0.32-8.66-0.89-6.24 21.69-26.22 37.57-49.93 37.57" fill="#5bc8d8"/></g>
 </g>
</svg>