<?xml version="1.0" encoding="UTF-8"?><svg xmlns="http://www.w3.org/2000/svg" xmlns:xlink="http://www.w3.org/1999/xlink" height="139.7" preserveAspectRatio="xMidYMid meet" version="1.0" viewBox="-2.3 -0.5 206.8 139.7" width="206.8" zoomAndPan="magnify"><g id="change1_1"><path d="M108.8,26.2c3.6-3,7-5.9,10.5-8.6c1.7-1.3,3.5-2.5,5.4-3.6c5-3,10.9-4.1,16.6-2.8c6.9,1.3,13.3,4.3,18.7,8.7 c5.9,4.8,9.4,12,9.4,19.7c0.1,1.8,0,3.5,0,5.3c-0.2,2.6,1.3,4.9,3.7,5.9c10.1,4.4,17.6,12,24.6,20.3c5.1,6.1,6.8,16.9,0.8,25 c-4,5.9-10.7,9.3-17.8,9.3c-6.2,0.1-12.3-0.5-17.9-3.7c-0.5-0.3-1-0.5-1.6-0.7c-3.1-1.1-4.9-0.4-6.2,2.6 c-2.7,6.1-6.3,11.7-10.7,16.7c-5.1,5.6-11.2,9.3-18.8,10.1c-6.7,0.8-13.5-0.1-19.8-2.6c-4.6-1.8-9.1-4-13.3-6.6 c-1.3-0.8-2.6-1.6-3.9-2.4c-2.6-1.5-3.5-1.2-5.6,1c-7.1,7.7-15.4,13.6-25.4,17c-7.3,2.4-14.4,1.8-21.3-1.1 c-6.6-2.8-11.2-7.7-12.7-14.9c-0.6-3.3-0.6-6.7,0-10c0.2-1.7,0.5-3.5,0.7-5.2c0.4-2.7-0.7-4.5-3.2-5.7c-5.6-2.7-10.7-6.5-14.9-11.1 C-2.3,79.6-1.3,66.5,4.6,58c1.3-1.8,2.9-3.2,4.7-4.3c5.4-3.5,11.4-5.2,17.7-6.2c0.9-0.2,1.9-0.2,2.8-0.5c2.3-0.6,3-1.8,2.5-4.1 c-1.2-5.1-1.5-10.3-0.8-15.5c1-6.6,3.2-12.7,8.2-17.5c0.5-0.5,1-1,1.5-1.6C47.4,1.5,55.2-0.5,64,0.1c7.5,0.6,14.9,2.5,21.7,5.7 c7.1,3.1,13.4,7.9,18.4,13.9c1.2,1.5,2.2,3.1,3.3,4.7C107.9,24.9,108.3,25.5,108.8,26.2z" fill="#FFC60B"/></g></svg>