<?xml version="1.0" encoding="iso-8859-1"?>
<!-- Generator: Adobe Illustrator 16.0.0, SVG Export Plug-In . SVG Version: 6.00 Build 0)  -->
<!DOCTYPE svg PUBLIC "-//W3C//DTD SVG 1.1//EN" "http://www.w3.org/Graphics/SVG/1.1/DTD/svg11.dtd">
<svg version="1.1" id="Layer_1" xmlns="http://www.w3.org/2000/svg" xmlns:xlink="http://www.w3.org/1999/xlink" x="0px" y="0px"
	 width="360.727px" height="482.426px" viewBox="0 0 360.727 482.426" style="enable-background:new 0 0 360.727 482.426;"
	 xml:space="preserve">
<g id="change1">
	<path style="fill:#E05A47;" d="M360.54,5.745c-0.905-3.977-4.863-6.463-8.839-5.56l-97.26,22.151
		c-2.756,0.628-4.912,2.773-5.552,5.526l-15.526,66.736H11.076c-3.341,0-6.503,1.508-8.606,4.103
		c-2.103,2.596-2.922,6.002-2.229,9.27l77.531,365.675c1.085,5.118,5.604,8.779,10.835,8.779h147.674
		c5.231,0,9.75-3.661,10.835-8.779l77.529-365.675c0.692-3.268-0.126-6.674-2.229-9.27c-2.103-2.595-5.265-4.103-8.605-4.103
		h-65.285l13.7-58.89l92.755-21.125C358.957,13.679,361.446,9.721,360.54,5.745z M300.141,116.75l-72.833,343.523H97.581
		L24.747,116.75H228.21l-20.518,88.195h-45.248H68.809c-2.227,0-4.335,1.005-5.737,2.735c-1.402,1.73-1.948,4.001-1.486,6.18
		l47.963,226.203c0.723,3.412,3.735,5.853,7.223,5.853h45.673h45.67c3.487,0,6.5-2.44,7.224-5.853l47.915-225.965
		c0.14-0.567,0.214-1.159,0.214-1.769c0-4.078-3.304-7.384-7.382-7.384h-0.005h-33.228l20.519-88.195H300.141z"/>
</g>
</svg>
