<?xml version="1.0" encoding="UTF-8"?><svg xmlns="http://www.w3.org/2000/svg" xmlns:xlink="http://www.w3.org/1999/xlink" height="220.6" preserveAspectRatio="xMidYMid meet" version="1.0" viewBox="-1.5 -3.2 234.8 220.6" width="234.8" zoomAndPan="magnify"><g id="change1_1"><path d="M8.8,98.1c-2.1-1.8-5.3-1.5-7,0.5c-0.6,0.7-1,1.6-1.2,2.5c-2.1,13,0.4,32.6,22.7,56 c23.6,24.8,55,22.9,70.3,17.4c3.9-1.4,8.1-4.8,5.2-7.8c-7.3-7.5-23.3-21.7-34.5-28.3c-16.7-9.9-26.4-17.8-37.2-25.8 C20.9,108.1,13.8,102.3,8.8,98.1z M98.5,158.4c2.1,1.9,5.4,1.8,7.4-0.3c0.6-0.7,1-1.5,1.2-2.3c2.9-12.9,0.1-32.4-21.6-57 c-19.9-22.5-44.6-24-62.6-20.2c-7.7,1.6-18.3,6.3-12.9,12c6.5,6.9,23.6,21.2,33.6,27.6c16.6,10.8,26.2,16.1,36.9,24.7 C86.6,147.7,93.6,153.9,98.5,158.4z M184.5,24.4c2.8-0.7,4.4-3.5,3.7-6.3c-0.2-0.8-0.6-1.6-1.2-2.3C178,6.4,161-3.2,129.2,1 C95.4,5.6,78.3,32.2,73.5,47.9c-1.2,4-1,9.5,3.1,8.9c10.3-1.5,31-6.1,43-11.3c17.8-7.7,29.9-10.9,42.6-15 C169.4,28.3,178.3,26,184.5,24.4z M83.4,61.6c-2.9,0.6-4.7,3.5-4.1,6.4c0.2,0.8,0.5,1.6,1.1,2.2c8.4,10,25.6,19.4,57.9,16.3 c29.7-2.8,45.6-22,53.3-39c3.3-7.2,5.9-18.7-1.7-17.7c-9.4,1.2-30.8,6.6-41.8,10.9c-18.4,7.1-28.4,11.8-41.5,15.4 C99,58.3,89.8,60.3,83.4,61.6z M208,111.9c1.7-2.3,1.1-5.5-1.2-7.2c-0.7-0.5-1.5-0.8-2.4-0.9c-12.9-1.3-32,2.6-53.5,26.8 c-22.8,25.7-18.9,57.2-12.5,72.4c1.6,3.9,5.3,7.9,8,4.8c6.9-7.9,19.7-25.1,25.5-36.9c8.6-17.6,15.8-28,22.9-39.4 C199,124.9,204.2,117.2,208,111.9z M154.8,206.9c-1.8,2.3-1.4,5.7,0.9,7.5c0.7,0.5,1.4,0.9,2.3,1c12.8,2,31.8-2.1,54.5-25.7 c20.8-21.7,20.6-46.8,15.7-64.8c-2.1-7.7-7.4-18.1-12.6-12.3c-6.4,7.1-19.2,25.3-24.9,35.9c-9.5,17.6-14.1,27.7-21.8,39.1 C164.5,194.1,158.8,201.6,154.8,206.9z" fill="#966933"/></g></svg>