<?xml version="1.0" encoding="UTF-8"?><svg xmlns="http://www.w3.org/2000/svg" xmlns:xlink="http://www.w3.org/1999/xlink" height="359.0" preserveAspectRatio="xMidYMid meet" version="1.0" viewBox="-0.0 -0.0 325.6 359.0" width="325.6" zoomAndPan="magnify"><g id="change1_1"><path d="m125.51 134.52 0.5-5.5 2-2.5 8.5-5h1s1.6004-1.8865 1.5-3c-0.0748-0.82997-1.5-2-1.5-2l-1-1.5 0.5-3.5-2.5-1 2-2-1.5-2.5 3-1s-0.0513-1.7783-0.5-2.5c-1.4433-2.3214-6.5-5-6.5-5v-2.5l-5-10.5 1.5-2.5s-10.341-5.349-16-6c-3.8405-0.4418-7.9769-0.0914-11.5 1.5-3.2292 1.4586-5.8336 4.196-8 7-2.0506 2.6542-3.5397 5.7863-4.5 9-0.81682 2.7334-1.5245 5.6958-1 8.5 0.58938 3.1512 4.5 8.5 4.5 8.5l5.5 10z" fill="inherit" fill-rule="evenodd" stroke="#000"/></g><g id="change1_2"><path d="m96.01 120.52-5 9.5h1.5l-9.5 16.5-4.5 10.5-0.5 17.5 0.5 3-2 14.5 1 8-3 1.5-0.5 4.5-2 4.5 1.5 8.5-1.5 9-7.5 13.5-5 31.5 14 3 49 7 18.5-3.5 3.5-17.5 1-16.5v-16.5l7-9 1.5-16 9-9.5-2.5-8.5 11.5-7.5 1.5-4c7.2784-2.0971 10.599-7.1549 9.5-11l-1-3.5c-3 6.6667-4 10-7 10h-6.5l0.5-7.5s7.6269-4.2329 7.5-6c-0.11003-1.5326-5.1043 0.21153-7.5 1-6.6057 2.174-15 12.5-15 12.5l-7 5.5-18-33 2-8-30.5-15.5z" fill="inherit" fill-rule="evenodd" stroke="#000"/></g><g id="change1_3"><path d="m146.51 229.52 8-3.5 3 3 25.5 3 8 1.5 9 8.5 0.5 14v11l-3 11-3 42 1 8.5v5.5l-6 1 1 3 11 4 10 2.5 4.5 0.5 2.5 6-7 3-54.5-1.5-0.5-4v-7l4.5-9 2.5-21.5 3.5-5-2-10.5 3.5-21v-5.5l2-1.5-0.5-4-47.5 10-1.5 6.5 0.5 5-1 45.5-2.5 16.5-9 8.5-20.5 0.5-10.5-4.5-12-5-27.5-3-11-4.5h-2.5l0.5 4 3.5 2 1.5 3.5-8 3.5-9.5-3-6.5-5-4.5-7 2-8v-6.5l-2.5-3.5-1-13 2.5-4.5 4-2 7 2 6 5.5 5.5 1.5h7l10.5 5 10.5 0.5 8 3 10.5 2 10.5 6.5 4-1.5-11-47.5z" fill="inherit" fill-rule="evenodd" stroke="#000"/></g><g id="change1_4"><path d="m234.01 221.02 6 24.5 2 7.5 1.5 18 4 18.5 3.5 24 0.5 9-3.5 16-1.5 8-6.5 1.5-5 3-1.5 4.5 8.5 3 12.5-1 3-10 7.5-6 1.5-1 2.5 9.5-0.5 8h2.5l4-20 0.5-6-7-13.5-1-12-2-21.5 1-7 8 9.5 11.5 18 7 14 2 18.5v7.5l-6 4.5-2.5 4.5 1.5 3 10.5-0.5 6-3 3.5-4.5 1-8 5.5-10.5 3.5 6 5.5 10 1.5-0.5-3-16.5-1.5-9.5-10.5-8-7.5-9-7-20.5-9-18-15.5-17-3-11 2-14.5z" fill="inherit" fill-rule="evenodd" stroke="#000"/></g><g id="change1_5"><path d="m226.01 229.52 59-3s-1.4124-28.736 0-43c0.58619-5.9199 3.2514-11.556 3.5-17.5 0.24536-5.8662-0.65415-11.785-2-17.5-0.89434-3.7977-2.3108-7.4831-4-11-1.943-4.0452-7-11.5-7-11.5l2-12 3.5-9.5 0.5-12 3.5 10.5v-3l2.5 4v-4l2.5 4.5v-5.5l2 2.5-2-26-8.5-22-9-12.5-10-11.5s-6.5994-15.32-12-21.5c-2.7417-3.1375-10-7.5-10-7.5s-6.1228 0.92025-9 2c-1.9552 0.73372-3.7477 1.8639-5.5 3-3.692 2.3937-8.1493 4.2804-10.5 8-1.7288 2.7356-2 9.5-2 9.5l2 0.5v10l4.5 4 1 9 3.5-0.5v2h3l-1 2h2.5l2 3.5v7l2.5 10-4.5 5v11l1.5 6.5-2.5 6.5-3 1-3.5 2-6 13.5 1.5 6 5.5 2.5v33.5l4 4 1 51z" fill="inherit" fill-rule="evenodd" stroke="#000"/></g><g id="change1_6"><path d="m222.51 124.02-33.5 24-3 1-6 5.5c-6.0867 2.9876-10.647 6.1933-7.5 10.5v4.5l2.5 1.5 2.5-7.5 5-3.5 1.5 0.5 2 5.5-2.7199 2.7199c-0.94245 1.6912-1.6581 1.2689 2 0.6598 0 0 2.8953-1.1604 3.7199-2.3797 1.5813-2.3382 1.579-8.3196 1.579-8.3196l4.8797-2.5601 31.541-13.12z" fill="inherit" fill-rule="evenodd" stroke="#000"/></g></svg>