<?xml version="1.0" encoding="UTF-8"?><svg xmlns="http://www.w3.org/2000/svg" xmlns:xlink="http://www.w3.org/1999/xlink" height="1027.4" preserveAspectRatio="xMidYMid meet" version="1.0" viewBox="12.6 14.9 614.4 1027.4" width="614.4" zoomAndPan="magnify"><g stroke-width=".5"><g><path d="m232.71 23.67c6.34-4.4 14.07-5.87 21.38-7.85 2.62-0.94 4.94 0.96 7.31 1.77 3.79 0.44 7.63-0.4 11.43 0.11 4.14 0.51 8.3 1.05 12.47 0.67 0.04 0.46 0.11 1.39 0.15 1.85 1.37-0.52 2.75-1.06 4.12-1.61 0.12 0.54 0.38 1.62 0.5 2.17 2.67 0.31 5.32 0.76 7.99 1.04-4.8 3.39-10.08-0.53-15.22-0.33-4.5 0.07-9.09-1.74-13.47-0.12-1.4 0.44-2.76 0.98-4.13 1.51 1.03-1.21 2.04-2.44 3.04-3.68-3.42 0.92-6.79 2.01-10.05 3.37-0.18-1.11-0.36-2.22-0.53-3.33-3.66 0.52-7.33 1.15-10.75 2.61-3.45 1.49-7 2.75-10.71 3.37 0.92-1.08 1.84-2.15 2.77-3.23-2.11 0.52-4.23 1.03-6.3 1.68z" fill="#473C45" stroke="#473C45"/></g><g><path d="m246.95 21.85c3.42-1.46 7.09-2.09 10.75-2.61 0.17 1.11 0.35 2.22 0.53 3.33-1.67 0.65-3.31 1.43-5.08 1.73-1-0.56-1.85-1.34-2.73-2.05-1.16-0.16-2.31-0.29-3.47-0.4z" fill="#181419" stroke="#181419"/></g><g><path d="m258.23 22.57c3.26-1.36 6.63-2.45 10.05-3.37-1 1.24-2.01 2.47-3.04 3.68 1.37-0.53 2.73-1.07 4.13-1.51 4.38-1.62 8.97 0.19 13.47 0.12 5.14-0.2 10.42 3.72 15.22 0.33 3.17 2.08 6.94 1.93 10.51 1.21-0.13 1.11-0.26 2.22-0.37 3.34 2.93 0.17 5.85-0.23 8.69-0.95 0.09 0.51 0.27 1.54 0.36 2.06 1.34-0.48 2.68-0.95 4.03-1.42-1.07 1.92-2.15 3.83-3.21 5.76 4.64-1.34 9.16-3.11 13.91-4.06-2.24 3.04-4.37 6.16-6.2 9.46 1.34-0.05 2.68-0.1 4.03-0.16 1.02-3.03 2.25-6.17 5.2-7.84 0.43 1.53 0.78 3.08 1.16 4.63 0.1 0.34 0.28 1.03 0.38 1.37 0.86 0.17 1.72 0.34 2.59 0.48-0.67 0.96-1.34 1.92-2 2.88 0.97-0.08 1.95-0.15 2.93-0.22-0.47 1.35-0.94 2.7-1.41 4.06 1.34-1.72 2.67-3.45 3.98-5.19 1.43 1.87 2.87 3.73 4.33 5.59 1.07-1.93 2.15-3.87 3.21-5.81 0.75-0.24 1.5-0.47 2.27-0.7 1.5 2.18 3.02 4.34 4.61 6.46 1.61-0.23 3.26-0.84 4.91-0.55 1.99 0.7 1.63 3.24 1.99 4.9 0.2 2.42 0.37 4.84 0.64 7.26 1.19-2.01 2.22-4.11 3.33-6.17 0.28-0.27 0.86-0.8 1.15-1.07 0.01 1.24 0.03 2.47 0.05 3.71 0.75-0.91 1.51-1.82 2.26-2.73 0.21 2.71 0.55 5.4 1.04 8.07 1.07-2.94 1.67-6.03 1.67-9.16 0.35 0.4 1.06 1.2 1.42 1.6-0.72 1.57-0.21 3.61 1.46 4.31l-0.24 1.64c-1.85 6.68 0.81 13.31 2.78 19.62 0.56-1.16 1.1-2.32 1.59-3.51 0.5-1.27 1.01-2.54 1.54-3.8 0.19 1.72 0.47 3.43 0.74 5.14 0.9-1.05 1.78-2.1 2.68-3.14 0.33 1.65 0.6 3.31 0.7 5-0.28 3.61-0.5 7.23-0.5 10.86 0.57-0.01 1.7-0.03 2.27-0.04 0.13-1.26 0.27-2.51 0.42-3.77l3.66 2.52c-0.93 3.45-1.58 6.97-1.78 10.54-0.33 7.34-1.86 15.01 1.14 22.04l0.21 0.84c-0.13 6.84-1.43 13.61-0.93 20.47v1.75c-1.38 0.28-1.93 1.18-1.67 2.68-0.78 2.5-1.68 4.97-2.19 7.55-1.19 15.09-5.09 29.99-11.18 43.85-2.52 6.08-7.2 10.8-11.02 16.04-2.89 3.94-3.21 9.05-3.21 13.76 0.08 9.36 0.7 18.73 0.09 28.07-0.37 3.74-1.46 8.07-4.95 10.08-5.54 2.72-12.02-1.1-17.5 1.44-3.67 3.34-3.59 8.78-4.87 13.25-3.13 0.42-6.29 0.57-9.45 0.6-0.56 2-0.96 4.09-1.96 5.93-3.3 2.84-8.33 3.41-10.79 7.27-1.34 2.67-1.63 5.69-2.55 8.5-1.99 6.3-7.31 12.01-14.1 12.84-4.71 0.87-9.35-0.77-13.88-1.84 4.02 7.43 8.34 14.71 13.11 21.69 2.61 4.32 5.69 8.32 9.1 12.04 1.29 2.66 2.59 5.32 3.86 8 2.48 9.46 5.88 18.67 7.75 28.29 2.47 13.87 4.41 27.82 7.25 41.62 2.23 12.28 10.14 22.44 13.72 34.26 2.31 8.21 4.87 16.37 6.28 24.8 1.69 9.96 4.49 19.68 6.63 29.55 0.84 3.57 2.5 6.85 3.95 10.2 2.38 6.42 3.91 13.13 6.54 19.47 3.61-2.93 6.63-6.47 9.72-9.92 3.98-3.31 4.06-8.76 5.89-13.23 0.94-1.01 1.93-1.99 2.96-2.92 1.65-1.31 3.37-2.52 5.06-3.78-1.12 2.22-2.18 4.47-3.16 6.76 4.75-2.47 8.27-6.58 11.59-10.66 4.48-5.06 2.57-12.35 4.64-18.35 1.67-4.19 2.41-8.65 3.01-13.09 0.36-1.76 0.72-3.51 1.2-5.24 0.19-0.61 0.58-1.83 0.77-2.44 1.63-3.84-0.51-7.72-1.35-11.47-2.06-8.48-4.66-16.82-7.1-25.19-1.91-6.59-5.55-12.63-6.48-19.5-0.61-3.45-0.43-7.07-1.63-10.39-1.28-1.4-2.86-2.44-4.36-3.57-1.78 2.22-3.49 4.49-5.14 6.8 1.57-6.81 4.88-13.11 6.1-19.99 0.73-2.1-1.31-3.42-2.63-4.64-0.5-0.38-1.51-1.13-2.02-1.51-1.04-0.78-2.07-1.56-3.09-2.35-2.35-1.88-4.69-3.79-7.08-5.63-3.26-2.71-7.03-4.78-10.04-7.78-3.27-3.83-4.55-9.05-4.49-14 0.24-5.42 4.87-9.1 6.38-14.03-0.18-3.85-3.04-7.02-3.22-10.85 0.68-2.74 2.37-5.08 3.89-7.41-2.45-4.24-5-9.39-2.07-14.08 1.29 0.46 2.23 0.04 2.82-1.27 0.76-1.38 1.86-2.7 1.95-4.33-0.46-6.89-7.39-12.29-5.76-19.47 2.34-6.01 9.35-7.58 14.41-10.56 6.89-4.01 14.96-7.87 18.21-15.68 1.39-2.61 2.24-5.45 2.97-8.31 3.04-5.85 4.91-12.41 9.25-17.51 4.86-5.79 9.9-11.44 15.45-16.58 6.42-5.77 13.46-10.98 18.77-17.85 2.49-1.66 4.7-3.68 6.51-6.06 5.72-2.61 11.81-4.47 17.95-5.83 12.88-1.74 25.96-1.92 38.9-0.8 11.17 1.01 21.87 4.57 32.42 8.2 5.69 2.06 11.61 3.87 16.53 7.54 13.96 9 25.28 21.38 36.48 33.5 8.3 9.26 12.89 21.13 15.93 33.02 1.66 6.4 1.43 13.06 2.6 19.53-0.25 2.21-0.31 4.43-0.19 6.66-0.82 6.35-0.75 12.77-1.56 19.12-0.51 1.68-0.52 3.45-0.05 5.14-0.04 0.65-0.12 1.94-0.16 2.59-0.73 2.5-1.49 5-2.15 7.52-2.24 7.8-2.97 15.92-4.91 23.79-2.94 12.23-4.9 24.67-6.86 37.09-1.04 9.61-2.69 19.27-1.68 28.96 0.28 5.21 1.95 10.19 3.02 15.27-3.65 8.75 2.91 16.97 4.88 25.26-0.63-0.08-1.89-0.25-2.52-0.33-0.54-1.08-1.11-2.15-1.67-3.21 1.16 7.02 3.31 13.81 5.28 20.63 1.4 4.86 4.22 9.1 6.38 13.63 7.2 20.89 8.67 43.09 10.88 64.91 0.15 1.55 0.39 3.09 0.64 4.64 2.73 27.47 5.66 55.12 3.84 82.75-0.93-5.64-0.64-11.47-2.4-16.96-2.24 3.61-2.19 7.94-2.53 12.03-0.68 5.86-2.35 11.56-2.77 17.45-0.17 3.12-1.05 6.13-2.13 9.05-0.9 0.3-1.79 0.62-2.66 0.94 0.36-3.53-0.15-7.03-1.09-10.42-1.29-4.39 0-8.88 1.04-13.16 1.34-5.15 0.56-10.5 1.0699-15.74 0.55-6.35 0.61-12.75-0.17-19.08-0.22-2.1801-1.12-4.1801-2.18-6.06-1.35 7.0099 0.6 14.26-1.52 21.15-1.46 5.19 0.52 10.53-0.35 15.77-0.86 3.51-2.91 6.58-4.11 9.98-1.41 3.45-1.76 7.18-2.14 10.85-0.92 3.12-1.71 6.28-2.43 9.46-1.83 8.24-5.08 16.08-6.93 24.32-2.73 8.79-4.94 17.75-6.8 26.76-1.8101 3.33-3.9901 6.58-4.7 10.38-0.88 4.39-1.68 8.81-2.75 13.17-1.88 7.74-1.37 15.77-2.66 23.6-0.62 3.4-0.22 6.84 0.31 10.22-0.19 2.22-0.4 4.44-0.6 6.67-0.65 9.03-3.05 17.92-2.72 27.01 0.4901 6.09 0.07 12.18-0.54 18.24-0.45 11.73 3.38 23.12 7.91 33.79-1.14 1.18-2.29 2.36-3.38 3.6-0.71-3.26-1.88-6.37-3-9.49-1.12-7.43-2.12-14.87-3.29-22.28-1.79 0.7401-3.69 1.33-5.2 2.59-0.47 2.24-0.39 4.54-0.49 6.83-0.21 2.93-0.41 5.88-0.89 8.79-3.11 7.29 3.17 14.6 0.06 21.98-0.69 1.62-1.83 2.99-3.03 4.27-4.02 2.21-8.17-0.56-11.82-2.21 2.98 8.52 3.54 17.52 5.28 26.31l-0.5 0.56c-0.98 1.01-1.98 2.02-2.97 3.04 1.02 1.4 2.05 2.81 3.05 4.25 0.72 1.07 1.41 2.17 2.11 3.28 1.03 2.37 2.44 4.54 4.21 6.44 0.62 0.87 1.24 1.76 1.86 2.66-0.01 1.87 0.75 4.14 2.98 4.24 1.2 2.83 2.94 5.4 4.64 7.96-0.01 1.5099 0.97 2.79 2.47 3.14 7.55 12.02 15.87 23.57 22.4 36.2 10.1 18.24 16.48 38.21 21.8 58.29 1.62 6.45 4.08 12.83 4.01 19.59h-289.03c-0.52-14.02 2.68-27.88 2.58-41.9 1.28-1.48 1.44-3.49 0.67-5.22 1.22-17.02 3.4-33.94 5.26-50.89 1.39-11.95 0.99-24 0.9-36-0.77-22.32 0.77-44.69-1.14-66.97 0.77-2.37 0.67-4.91-0.65-7.04 0.29-11.41-1.99-22.63-2.32-34 0.2-10.96-2.01-21.77-2.09-32.72 0.38-6.84-0.12-13.67-0.34-20.5 0.2-5.18 0.1-10.36 0.17-15.54-0.74-0.06-2.21-0.18-2.95-0.24 0.27 9.34 0.67 18.67 0.5 28.01-0.29 12.79 0.72 25.72-2.04 38.32-1.87 0.33-4.18 1.43-4 3.69 0.52 27.93-4.75 55.49-7.86 83.15-3.84 23.15-7.35 46.37-11.82 69.42-1.79 7.97-2.91 16.16-6.05 23.76-3.09 8.3-6.11 16.62-9.23 24.91-3.37 8.42-1.57 17.65-2.34 26.46-0.28 2.8601-0.47 5.7201-0.61 8.6001-0.17 1.5599-0.37 3.12-0.56 4.7h-222.25l-0.56-0.8101c0.36-1.7599 0.43-3.5499 0.14-5.2999-0.03-0.49-0.1-1.47-0.14-1.96 1.29-0.53 1.76-1.4901 1.39-2.89-0.06-0.4701-0.17-1.42-0.23-1.9 1.33-1.0701 1.6-2.86 0.81-4.3101 0.33-2.5599 0.72-5.11 1.19-7.6299 0.89-3.36 1.08-6.83 0.98-10.27l0.09-0.81c1.64-6.69 0.84-13.57 0.72-20.35 0.2-3.81 0.24-7.62-0.01-11.42 0.38-3.92 0.27-7.86-0.59-11.7-0.15-1.77-0.31-3.52-0.47-5.27 0.5-3.92 0.4-7.88-0.54-11.71-0.14-2.46-0.28-4.91-0.46-7.34 0.56-4.56 0.53-9.18-0.53-13.66-0.12-2.11-0.26-4.22-0.45-6.32-0.01-2.91 0-5.81 0.01-8.71 0.17-1.77 0.31-3.55 0.44-5.31 1.22-5.46 0.98-11.05 0.68-16.58 0.1-2.26 0.18-4.52 0.09-6.76 1.34-0.61 1.68-1.64 1.02-3.07 0.34-1.96 0.72-3.91 1.12-5.84 1.16-0.86 1.44-1.93 0.83-3.23 1.13-5.78 2.45-11.53 3.85-17.26 1.8-7.7 6.44-14.26 9.28-21.56 4.26-11.18 12.44-20.16 19.29-29.77 0.95-1.62 2.26-3.26 2.26-5.21-0.84-2.45-2.9-4.18-4.46-6.15-0.07-0.38-0.23-1.14-0.31-1.52 0.72-4.55 1.13-9.13 1.88-13.66 3.12-8.17 2.87-17.07 4.41-25.57 2.19-12.03-0.15-24.14-1.23-36.14-0.6-7.67-2.32-15.18-4.44-22.55-2.83-9.43-4.93-19.05-7.54-28.53-7.91-23.96-15.89-47.91-25.6-71.21-8.14-21.48-17.48-42.51-24.68-64.33-3.63-10.52-7.76-20.91-10.25-31.78-2.56-10.67-5.51-21.25-7.85-31.97-1.57-12.7-2.94-25.44-4.19-38.18-0.59-5.16 0.24-10.31 0.59-15.45 0.6-8.66 1.46-17.29 2.16-25.94 0.3-3.66 1.09-7.26 2.18-10.76 3.87-12.16 7.7-24.33 11.52-36.5 1.79-0.55 2.62-2.31 3.25-3.92 0.51-1 1.06-1.99 1.61-2.97 1.49-0.38 2.42-1.71 2.35-3.23 3.42-4.77 6.9-9.52 9.91-14.56 1.44-2.08 2.79-4.22 4.1-6.39 2.46-2.4 4.79-4.93 6.96-7.59 1.46-0.64 2.61-1.82 3.05-3.37 0.63-0.89 1.3-1.75 2.02-2.57 1.5-0.52 2.21-2.08 1.86-3.58 1.6-2.88 3.34-5.68 5.01-8.52 1.91-2.26 3.6-4.68 5.08-7.24 0.25-0.18 0.74-0.55 0.98-0.74 1.33-0.23 2.03-1.03 2.1-2.37 0.96-1.2 1.9-2.41 2.82-3.63 2.24-2.27 4.28-4.71 6.13-7.31 0.97-1.21 1.92-2.44 2.85-3.68 2.19-1.99 4.18-4.17 5.99-6.51 5.64-4.27 11.83-7.92 16.79-13.02 8.85-10.02 15.13-21.97 23.8-32.14 4.17-5.19 7.91-10.72 12.18-15.83 3.76-4.95 8.05-9.61 10.57-15.37 2.07-0.72 3.01-3.83 0.54-4.72 1.3-9.49 2.43-19.03 2.32-28.62 0.93-17.18 5.92-33.78 10.76-50.18 2-8.73 7.08-16.35 12.71-23.16 6.21-7.19 14.13-12.56 21.39-18.58 6.01-3.93 11.75-8.45 15.97-14.33 3.21-2.42 6.51-4.73 9.83-7.01 2.07-0.65 4.19-1.16 6.3-1.68-0.93 1.08-1.85 2.15-2.77 3.23 3.71-0.62 7.26-1.88 10.71-3.37 1.16 0.11 2.31 0.24 3.47 0.4 0.88 0.71 1.73 1.49 2.73 2.05 1.77-0.3003 3.41-1.0803 5.08-1.7303m299.09 630.09c-0.67 6.35-0.97 12.74-1.81 19.08-1.48-0.51-2.95-1-4.42-1.48-1.92 5.25-3.85 10.5-6.53 15.43l0.2 0.64 0.11 0.84c-2.29 3.59-3.53 7.69-5.18 11.59-5.01 11.99-9.72 24.12-13.58 36.53-0.54 1.93-1.15 3.91-1.03 5.95-1.74-0.74-2.03 2.94-0.2 2.36 4.52 3.85 8.81 7.97 13.58 11.51l-0.13 0.67c0.54 0.43 1.63 1.3 2.17 1.73 1.6 2.01 3.39 3.86 5.36 5.53 1.34 3.15 4.13 5.31 6.64 7.5l-0.12 0.97c2.33-2.27 1.84-5.79 2.34-8.73 0.45-7.66 1.48-15.6-0.92-23.05 0.42-2.84 0.7-5.71 0.54-8.57 1.09-6.52 1.93-13.18 1.91-19.78 2.19-6.72 0.01-13.93 1.56-20.78 1.12-4.45 1.49-9.08 0.32-13.56-2.05-8.04 2.31-16.52-0.81-24.38z" fill="inherit" stroke="#000"/></g><g><path d="m298.06 21.82c4.5-0.22 9.23-0.11 13.37 1.87 3.06 1.44 6.56 1.02 9.81 1.68 0.35 1.3 0.7 2.6 1.06 3.9 3.97-1.84 9.07-3.48 12.71-0.05-2.95 1.67-4.18 4.81-5.2 7.84-1.35 0.06-2.69 0.11-4.03 0.16 1.83-3.3 3.96-6.42 6.2-9.46-4.75 0.95-9.27 2.72-13.91 4.06 1.06-1.93 2.14-3.84 3.21-5.76-1.35 0.47-2.69 0.94-4.03 1.42-0.09-0.52-0.27-1.55-0.36-2.06-2.84 0.72-5.76 1.12-8.69 0.95 0.11-1.12 0.24-2.23 0.37-3.34-3.57 0.72-7.34 0.87-10.51-1.21z" fill="#524E53" stroke="#524E53"/></g><g><path d="m206.91 45.01c4.38-5.76 9.83-10.51 15.97-14.33-4.22 5.88-9.96 10.4-15.97 14.33z" fill="#322630" stroke="#322630"/></g><g><path d="m336.17 33.85c3.44-1.19 6.45 0.48 9.12 2.51 0 0.52-0.01 1.57-0.02 2.09 1.64-0.47 3.28-0.94 4.91-1.44-1.06 1.94-2.14 3.88-3.21 5.81-1.46-1.86-2.9-3.72-4.33-5.59-1.31 1.74-2.64 3.47-3.98 5.19 0.47-1.36 0.94-2.71 1.41-4.06-0.98 0.07-1.96 0.14-2.93 0.22 0.66-0.96 1.33-1.92 2-2.88-0.87-0.14-1.73-0.31-2.59-0.48-0.1-0.34-0.28-1.03-0.38-1.37z" fill="#4C434A" stroke="#4C434A"/></g><g><path d="m369.08 47.14c1.47-0.32 2.96-0.58 4.46-0.75l0.56 0.64c0 3.13-0.6 6.22-1.67 9.16-0.49-2.67-0.83-5.36-1.04-8.07-0.75 0.91-1.51 1.82-2.26 2.73-0.02-1.24-0.04-2.47-0.05-3.71z" fill="#4C434A" stroke="#4C434A"/></g><g><path d="m363.96 47.12c1.32 0.38 2.64 0.74 3.97 1.09-1.11 2.06-2.14 4.16-3.33 6.17-0.27-2.42-0.44-4.84-0.64-7.26z" fill="#503E4A" stroke="#503E4A"/></g><g><path d="m375.52 48.63c1.27 1.04 1.98 2.69 1.46 4.31-1.67-0.7-2.18-2.74-1.46-4.31z" fill="#241D22" opacity=".56" stroke="#241D22"/></g><g><path d="m379.52 74.2c-1.97-6.31-4.63-12.94-2.78-19.62 0.74 3.51 1.39 7.03 1.87 10.58 0.35 2.03 0.24 4.6 2.5 5.53-0.49 1.19-1.03 2.35-1.59 3.51z" fill="#40323C" stroke="#40323C"/></g><g><path d="m382.65 66.89c0.52-1.15 1.28-2.17 2-3.2 0.52 1.71 1.02 3.44 1.42 5.2-0.9 1.04-1.78 2.09-2.68 3.14-0.27-1.71-0.55-3.42-0.74-5.14z" fill="#443640" stroke="#443640"/></g><g><path d="m389.73 73.72c1.25-0.16 2.5-0.34 3.76-0.49 0.06 0.74 0.17 2.22 0.22 2.96-0.26-0.53-0.8-1.59-1.06-2.12-1.17 2.03-1.04 4.55-1.64 6.78 0.98-0.26 1.97-0.51 2.97-0.76 0.06 2.63 0.05 5.27 0.04 7.9 0.15 9.41-2.51 18.62-2.04 28.05-3-7.03-1.47-14.7-1.14-22.04 0.2-3.57 0.85-7.09 1.78-10.54l-3.66-2.52c0.27-2.4 0.53-4.81 0.77-7.22z" fill="#171016" stroke="#171016"/></g><g><path d="m386.27 84.75c0-3.63 0.22-7.25 0.5-10.86 0.74-0.05 2.22-0.13 2.96-0.17-0.24 2.41-0.5 4.82-0.77 7.22-0.15 1.26-0.29 2.51-0.42 3.77-0.57 0.01-1.7 0.03-2.27 0.04z" fill="#443640" stroke="#443640"/></g><g><path d="m391.01 80.85c0.6-2.23 0.47-4.75 1.64-6.78 0.26 0.53 0.8 1.59 1.06 2.12 0.11 1.3 0.2 2.6 0.27 3.9-1 0.25-1.99 0.5-2.97 0.76z" fill="#42353E" opacity=".94" stroke="#42353E"/></g><g><path d="m392.19 116.88c2.12 6.74-1.14 13.61-0.93 20.47-0.5-6.86 0.8-13.63 0.93-20.47z" fill="#1A1418" opacity=".5" stroke="#1A1418"/></g><g><path d="m389.59 141.78c-0.26-1.5 0.29-2.4 1.67-2.68 0.17 1.33-0.38 2.23-1.67 2.68z" fill="#241D22" opacity=".53" stroke="#241D22"/></g><g><path d="m159.19 170.27c-0.33-1.6-0.22-3.26 0.54-4.72 2.47 0.89 1.53 4-0.54 4.72z" fill="#291F26" opacity=".86" stroke="#291F26"/></g><g><path d="m435.64 189.02c1.37-2.77 3.55-5.02 6.51-6.06-1.81 2.38-4.02 4.4-6.51 6.06z" fill="#1E1A1D" opacity=".7" stroke="#1E1A1D"/></g><g><path d="m389.2 249.27c0.37-2.96 1.4-5.77 2.97-8.31-0.73 2.86-1.58 5.7-2.97 8.31z" fill="#2C282C" opacity=".65" stroke="#2C282C"/></g><g><path d="m89.86 253.14c1.3-2.75 3.39-4.95 5.99-6.51-1.81 2.34-3.8 4.52-5.99 6.51z" fill="#1A1319" opacity=".66" stroke="#1A1319"/></g><g><path d="m80.88 264.13c0.59-3.48 3.32-5.57 6.13-7.31-1.85 2.6-3.89 5.04-6.13 7.31z" fill="#2E252B" opacity=".67" stroke="#2E252B"/></g><g><path d="m75.96 270.13c-0.06-1.46 0.64-2.25 2.1-2.37-0.07 1.34-0.77 2.14-2.1 2.37z" fill="#271F26" opacity=".6" stroke="#271F26"/></g><g><path d="m69.9 278.11c0.67-3.04 2.2-5.82 5.08-7.24-1.48 2.56-3.17 4.98-5.08 7.24z" fill="#362C35" opacity=".65" stroke="#362C35"/></g><g><path d="m602.96 278.12c1.82 1.95 1.83 4.84-0.19 6.66-0.12-2.23-0.06-4.45 0.19-6.66z" fill="#30252D" opacity=".53" stroke="#30252D"/></g><g><path d="m63.03 290.21c-1.08-1.51 0.34-3.22 1.86-3.58 0.35 1.5-0.36 3.06-1.86 3.58z" fill="#2E272D" opacity=".67" stroke="#2E272D"/></g><g><path d="m57.96 296.15c-0.06-1.73 1.03-3.82 3.05-3.37-0.44 1.55-1.59 2.73-3.05 3.37z" fill="#1E181C" opacity=".63" stroke="#1E181C"/></g><g><path d="m357.57 300.58c0.48-1.28 1.42-1.7 2.82-1.27-0.59 1.31-1.53 1.73-2.82 1.27z" fill="#241B22" opacity=".53" stroke="#241B22"/></g><g><path d="m46.9 310.13c0.54-2.61 1.9-4.86 4.1-6.39-1.31 2.17-2.66 4.31-4.1 6.39z" fill="#2C2329" opacity=".63" stroke="#2C2329"/></g><g><path d="m601.21 303.9c1.46 1.45 1.43 3.71-0.05 5.14-0.47-1.69-0.46-3.46 0.05-5.14z" fill="#2C242B" opacity=".6" stroke="#2C242B"/></g><g><path d="m598.85 319.15c0.66-2.52 1.42-5.02 2.15-7.52 0 2.69 0.11 5.62-2.15 7.52z" fill="#322930" opacity=".67" stroke="#322930"/></g><g><path d="m34.64 327.92c-0.14-1.56 0.8-2.93 2.35-3.23 0.07 1.52-0.86 2.85-2.35 3.23z" fill="#1F191F" opacity=".61" stroke="#1F191F"/></g><g><path d="m29.78 334.81c0.01-1.91 0.96-4.19 3.25-3.92-0.63 1.61-1.46 3.37-3.25 3.92z" fill="#262023" opacity=".58" stroke="#262023"/></g><g><path d="m295.14 330.81c3.61 3.53 7.4 7.13 9.1 12.04-3.41-3.72-6.49-7.72-9.1-12.04z" fill="#574352" opacity=".96" stroke="#574352"/></g><g><path d="m308.1 350.85c4.38 8.77 7.48 18.44 7.75 28.29-1.87-9.62-5.27-18.83-7.75-28.29z" fill="#665060" stroke="#665060"/></g><g><path d="m367.12 368.73c2.39 1.84 4.73 3.75 7.08 5.63-2.57 3.15-5.05 6.39-7.06 9.94-0.14-5.19-0.24-10.38-0.02-15.57z" fill="#806578" stroke="#806578"/></g><g><path d="m367.14 384.3c2.01-3.55 4.49-6.79 7.06-9.94 1.02 0.79 2.05 1.57 3.09 2.35-8.42 9.04-12.08 22.54-8.44 34.46 1.94 6.73 5.27 13.08 6 20.14-4.7-10.1-8.53-20.75-10.32-31.77-1.09-5.29 1.76-10.16 2.61-15.24z" fill="#564351" stroke="#564351"/></g><g><path d="m377.29 376.71c0.51 0.38 1.52 1.13 2.02 1.51-1.03 4.52-3.15 8.65-5.39 12.67-1.78 3.26-4.03 6.43-4.51 10.2-0.48 3.33-0.59 6.71-0.56 10.08-3.64-11.92 0.02-25.42 8.44-34.46z" fill="#3F2F3A" stroke="#3F2F3A"/></g><g><path d="m379.31 378.22c1.32 1.22 3.36 2.54 2.63 4.64-1.22 6.88-4.53 13.18-6.1 19.99 1.65-2.31 3.36-4.58 5.14-6.8 1.5 1.13 3.08 2.17 4.36 3.57 1.2 3.32 1.02 6.94 1.63 10.39 0.93 6.87 4.57 12.91 6.48 19.5 2.44 8.37 5.04 16.71 7.1 25.19 0.84 3.75 2.98 7.63 1.35 11.47-1.44-5.31-2.62-10.68-4.02-16-1.05-4.19-4.48-7.27-5.4-11.51-1.61-6.18-2.6-12.74-6.35-18.09-1.62 2.82-1.78 6.06-1.33 9.22-0.95-1.24-1.9-2.47-2.86-3.69 0.28 2.97 0.56 5.94 0.8 8.92-3.19-6.13-6.05-12.56-7.23-19.4-1.33-8.17-1.9-16.46-1.59-24.73 2.24-4.02 4.36-8.15 5.39-12.67z" fill="#100A0F" stroke="#100A0F"/></g><g><path d="m369.41 401.09c0.48-3.77 2.73-6.94 4.51-10.2-0.31 8.27 0.26 16.56 1.59 24.73 1.18 6.84 4.04 13.27 7.23 19.4-0.24-2.98-0.52-5.95-0.8-8.92 0.96 1.22 1.91 2.45 2.86 3.69-0.45-3.16-0.29-6.4 1.33-9.22 3.75 5.35 4.74 11.91 6.35 18.09 0.92 4.24 4.35 7.32 5.4 11.51 1.4 5.32 2.58 10.69 4.02 16-0.19 0.61-0.58 1.83-0.77 2.44-3.79-3.85-3.76-9.49-5.64-14.25-0.7-2.04-2.73-3.06-4.37-4.22 0.65 4.1 1.72 8.12 2.78 12.13 2.15 7.83 0.37 16.09-2.39 23.52 0.41-2.77 0.66-5.6 0.2-8.38-1.8-12.52-8.03-23.73-12.79-35.28 0.52-1.95 0.14-4.59-2.26-4.9-0.53-2-1.19-3.96-1.81-5.92-0.73-7.06-4.06-13.41-6-20.14-0.03-3.37 0.08-6.75 0.56-10.08z" fill="#231921" stroke="#231921"/></g><g><path d="m593.3 449.52c-1.97-8.29-8.53-16.51-4.88-25.26 3.72 9.89 5.43 20.41 9.45 30.19-0.42 4.94 0.15 9.87 0.68 14.78-3.33-6.39-4.67-13.56-7.77-20.04 0.63 0.08 1.89 0.25 2.52 0.33z" fill="#110B0F" stroke="#110B0F"/></g><g><path d="m376.66 437.23c2.4 0.31 2.78 2.95 2.26 4.9-1.23-1.39-2.04-3.07-2.26-4.9z" fill="#43363F" opacity=".71" stroke="#43363F"/></g><g><path d="m589.11 445.98c0.56 1.06 1.13 2.13 1.67 3.21 3.1 6.48 4.4399 13.65 7.77 20.04-0.53-4.91-1.1-9.84-0.68-14.78 4.35 5.89 8.7 12.25 9.95 19.61-1.07-1.41-2.22-2.76-3.35-4.1-0.24 2.02-0.45 4.04-0.66 6.07-1.02-1.67-2.05-3.34-3.07-5-0.07 3.07-0.12 6.14 0.03 9.21-2.16-4.53-4.98-8.77-6.38-13.63-1.97-6.82-4.12-13.61-5.28-20.63z" fill="#322630" stroke="#322630"/></g><g><path d="m391.12 450.14c1.64 1.16 3.67 2.18 4.37 4.22 1.88 4.76 1.85 10.4 5.64 14.25-0.48 1.73-0.84 3.48-1.2 5.24-1.49 3.73-3.07 7.49-5.38 10.81-0.75 1.13-2.15 1.45-3.31 1.97l0.27-0.84c2.76-7.43 4.54-15.69 2.39-23.52-1.06-4.01-2.13-8.03-2.78-12.13z" fill="#503E4A" stroke="#503E4A"/></g><g><path d="m604.47 469.96c1.13 1.34 2.28 2.69 3.35 4.1 0.42 3.46 0.88 6.95 0.59 10.44-0.86 7.54 1.73 14.93 1.58 22.47-0.15 8.51 0.91 16.98 2.6 25.31 0.98 4.33-0.89 8.55-0.94 12.87-2.21-21.82-3.6801-44.02-10.88-64.91-0.15-3.07-0.1-6.14-0.03-9.21 1.02 1.66 2.05 3.33 3.07 5 0.21-2.03 0.42-4.05 0.66-6.07z" fill="#503D4B" stroke="#503D4B"/></g><g><path d="m394.55 484.66c2.31-3.32 3.89-7.08 5.38-10.81-0.6 4.44-1.34 8.9-3.01 13.09-3.23 4.64-4.74 10.25-8.25 14.71-1.7 2.25-3.62 4.32-5.55 6.38 0.04-2.07 0.09-4.12 0.14-6.18 3.64-4.26 6.4-9.21 7.78-14.66l0.2-0.56c1.16-0.52 2.56-0.84 3.31-1.97z" fill="#2B1E27" stroke="#2B1E27"/></g><g><path d="m379.44 501.45c4.73-3.99 7.76-9.49 11.6-14.26-1.38 5.45-4.14 10.4-7.78 14.66-2.59 3.16-5.41 6.74-4.47 11.12-1.03 0.9301-2.02 1.91-2.96 2.92-3.96 3.28-5.9 8.15-5.89 13.23-3.09 3.45-6.11 6.99-9.72 9.92-2.63-6.34-4.16-13.05-6.54-19.47 9.34-4.82 17.97-11.06 25.76-18.12z" fill="#665060" stroke="#665060"/></g><g><path d="m388.67 501.65c3.51-4.46 5.02-10.07 8.25-14.71-2.07 6-0.16 13.29-4.64 18.35-3.32 4.08-6.84 8.19-11.59 10.66 0.98-2.29 2.04-4.54 3.16-6.76-1.69 1.26-3.41 2.47-5.06 3.78-0.94-4.38 1.88-7.96 4.47-11.12-0.05 2.06-0.1 4.11-0.14 6.18 1.93-2.06 3.85-4.13 5.55-6.38z" fill="#0F0A0F" stroke="#0F0A0F"/></g><g><path d="m369.94 529.12c-0.01-5.08 1.93-9.95 5.89-13.23-1.83 4.47-1.91 9.92-5.89 13.23z" fill="#32262F" stroke="#32262F"/></g><g><path d="m612.29 549.79c2.13 7.43 2.79 15.24 5.52 22.51 0.89 2.02 0.39 4.24 0.63 6.37 0.63 2.62 2.75 4.64 3.24 7.31 0.89 6.15 0.99 12.43 2.56 18.47 1.72 10.14 2.56 20.55 0.99 30.77-0.87 9.97-2.43 19.93-5.7 29.42-3.01 8.07-5.96 16.18-8.59 24.38-2 11.05-3.67 22.17-5.72 33.22-0.33 5.55-2.9399 10.55-4.03 15.94-0.21-2.09-0.51-4.16-0.81-6.23-1.78 0.04-3.56 0.02-5.32-0.09 0.58-1.11 1.16-2.21 1.76-3.3-0.98-0.59-1.96-1.18-2.92-1.75-1.25 2.88-2.19 5.88-3.54 8.71-1.48 3.07-4.63 4.71-7.35 6.51-3.86 2.42-7.08 6.5699-12.16 5.98 2.38-12.02 4.9901-24.01 6.84-36.12 1.13 0.3 2.26 0.61 3.4 0.92 1.06-2.41 2.21-4.79 3.55-7.07 0.6 8.65-2.43 16.98-2.49 25.59 2.39-2.83 3.24-6.46 3.49-10.06 3.92-11.46 6.76-23.29 11.93-34.3 0.46 2.7 0.95 5.41 1.44 8.11 1.6-5.84 5.15-10.89 6.78-16.71 1.75-5.54 3.33-11.13 4.82-16.74 1.66-6.48 3.98-12.81 4.7-19.5 0.4-3.19 0.68-6.39 0.82-9.59 1.82-27.63-1.11-55.28-3.84-82.75z" fill="#685163" stroke="#685163"/></g><g><path d="m602.31 590.59c1.06 1.8799 1.96 3.8799 2.18 6.06 0.78 6.33 0.72 12.73 0.17 19.08-0.5099 5.24 0.27 10.59-1.0699 15.74-1.04 4.28-2.33 8.77-1.04 13.16 0.94 3.39 1.45 6.89 1.09 10.42 0.87-0.32 1.76-0.64 2.66-0.94-1.32 3.88-2.14 7.9-3.3 11.83l-0.27 0.74c-1.49 2.13-3.12 4.16-4.74 6.2 0.55-3.93 1.43-7.81 2.16-11.7 0.88-4.83-0.2-9.73 0.44-14.58 0.4-3.13 0.56-6.33-0.48-9.36-2.31 3.52-3.83 7.46-5.92 11.1 0.38-3.67 0.73-7.4 2.14-10.85 1.2-3.4 3.25-6.47 4.11-9.98 0.87-5.24-1.11-10.58 0.35-15.77 2.1199-6.89 0.1699-14.14 1.5199-21.15z" fill="#130D12" stroke="#130D12"/></g><g><path d="m611.2 627.61c0.34-4.09 0.29-8.42 2.53-12.03 1.76 5.49 1.47 11.32 2.4 16.96-0.14 3.2-0.42 6.4-0.82 9.59-0.73 0.52-1.45 1.05-2.16 1.59 0.14-5.38 1.51-11.44-1.95-16.11z" fill="#191317" stroke="#191317"/></g><g><path d="m611.2 627.61c3.46 4.67 2.09 10.73 1.95 16.11 0.71-0.54 1.43-1.0699 2.16-1.59-0.72 6.69-3.04 13.02-4.7 19.5-1.49 5.61-3.07 11.2-4.82 16.74-1.94-5.02 0.07-10.31 0.16-15.45-1.01 0.98-2.01 1.97-2.95 3.02 1.16-3.93 1.98-7.95 3.3-11.83 1.08-2.92 1.96-5.93 2.13-9.05 0.42-5.89 2.09-11.59 2.77-17.45z" fill="#2E222B" stroke="#2E222B"/></g><g><path d="m594.19 648.34c2.09-3.64 3.61-7.58 5.92-11.1 1.04 3.03 0.88 6.23 0.48 9.36-0.64 4.85 0.44 9.75-0.44 14.58-0.73 3.89-1.61 7.77-2.16 11.7 1.62-2.04 3.25-4.07 4.74-6.2-0.85 8.14-4.06 16.15-10.55 21.41-0.08-0.54-0.23-1.63-0.31-2.17 1.36-5.19 2.46-10.45 3.46-15.72 2.22-6.22 3.85-13.47 0.46-19.6-0.38 2.37-0.69 4.75-0.98 7.14-0.76 0.01-2.29 0.04-3.05 0.06 0.72-3.18 1.51-6.34 2.43-9.46z" fill="#2D2229" stroke="#2D2229"/></g><g><path d="m595.79 650.6c3.39 6.13 1.76 13.38-0.46 19.6-0.15-1.44-0.3-2.86-0.46-4.28-2.75 5.68-4.22 12.74-10.04 16.2 1.85-8.24 5.1-16.08 6.93-24.32 0.76-0.02 2.29-0.05 3.05-0.06 0.29-2.39 0.6-4.77 0.98-7.14z" fill="#44343E" stroke="#44343E"/></g><g><path d="m557.32 652.66c3.12 7.86-1.24 16.34 0.81 24.38 1.17 4.48 0.8 9.11-0.32 13.56-1.55 6.85 0.63 14.06-1.56 20.78-0.56-2.24-1.11-4.5-2.11-6.58-1.12-0.58-2.4-0.61-3.6-0.8-1.57 9.25-2.15 18.65-2.5 28.02-0.03 10.38-1.29 20.69-2.18 31.02-1.97-1.67-3.76-3.52-5.36-5.53 0.7-3.14 1.13-6.34 1.15-9.56 0.06-10.14 2.74-20.02 3.0099-30.14 0.48-10.43 2.92-21.23 0.1-31.48l-0.2-0.64c2.68-4.93 4.61-10.18 6.53-15.43 1.47 0.48 2.94 0.97 4.42 1.48 0.8401-6.34 1.1401-12.73 1.8101-19.08z" fill="#1F151D" stroke="#1F151D"/></g><g><path d="m603 665.94c0.94-1.05 1.94-2.04 2.95-3.02-0.09 5.14-2.1 10.43-0.16 15.45-1.63 5.82-5.18 10.87-6.78 16.71-0.49-2.7-0.98-5.41-1.44-8.11-5.17 11.01-8.01 22.84-11.93 34.3-1.06-6.4 1.84-12.49 1.87-18.85 0.14-5.79 2.42-11.16 4.36-16.5 0.08 0.54 0.23 1.63 0.31 2.17 6.49-5.26 9.7-13.27 10.55-21.41l0.27-0.74z" fill="#443440" stroke="#443440"/></g><g><path d="m584.83 682.12c5.82-3.46 7.29-10.52 10.04-16.2 0.16 1.42 0.31 2.84 0.46 4.28-1 5.27-2.1 10.53-3.46 15.72-1.94 5.34-4.22 10.71-4.36 16.5-0.03 6.36-2.93 12.45-1.87 18.85-0.25 3.6-1.1 7.23-3.49 10.06 0.06-8.61 3.09-16.94 2.49-25.59-1.34 2.28-2.49 4.66-3.55 7.07-1.14-0.31-2.27-0.62-3.4-0.92 0.09-0.75 0.26-2.26 0.34-3.01 1.86-9.01 4.07-17.97 6.8-26.76z" fill="#584452" stroke="#584452"/></g><g><path d="m544.76 686.33c2.82 10.25 0.38 21.05-0.1 31.48-0.27 10.12-2.95 20-3.0099 30.14-0.02 3.22-0.45 6.42-1.15 9.56-0.54-0.43-1.63-1.3-2.17-1.73l0.13-0.67c1.72-8.26 2.36-16.7 2.78-25.12 2.46-14.1 4.66-28.49 3.63-42.82l-0.1101-0.84z" fill="#584452" stroke="#584452"/></g><g><path d="m550.54 704c1.2 0.19 2.48 0.22 3.6 0.8 1 2.08 1.55 4.34 2.11 6.58 0.02 6.6-0.82 13.26-1.91 19.78-0.23-2.16-0.55-4.29-0.85-6.42-1.21 3.01-2.24 6.1-3.2 9.2-0.2-1.25-0.4-2.49-0.59-3.73-0.56 0.6-1.11 1.2-1.66 1.81 0.35-9.37 0.93-18.77 2.5-28.02z" fill="#291E26" stroke="#291E26"/></g><g><path d="m573.33 719.26c0.71-3.8 2.89-7.05 4.7-10.38-0.08 0.75-0.25 2.26-0.34 3.01-1.85 12.11-4.46 24.1-6.84 36.12-1.21 6.03-1.56 12.18-2.62 18.24-0.53-3.38-0.93-6.82-0.31-10.22 1.29-7.83 0.78-15.86 2.66-23.6 1.07-4.36 1.87-8.78 2.75-13.17z" fill="#1B1218" stroke="#1B1218"/></g><g><path d="m550.29 733.94c0.96-3.1 1.9901-6.19 3.2-9.2 0.3 2.13 0.62 4.26 0.85 6.42 0.16 2.86-0.1201 5.73-0.54 8.57-1.06 6.13-2.16 12.4-1.1 18.61 0.79 4.05 0.46 8.16-0.2 12.2-2.51-2.19-5.3-4.35-6.64-7.5 0.89-10.33 2.15-20.64 2.18-31.02 0.55-0.61 1.1-1.21 1.66-1.81 0.19 1.24 0.39 2.48 0.59 3.73z" fill="#463842" stroke="#463842"/></g><g><path d="m593.9 726.81c0.96 0.57 1.94 1.16 2.92 1.75-0.6 1.09-1.18 2.19-1.76 3.3 1.76 0.11 3.54 0.13 5.32 0.09 0.3 2.07 0.6 4.14 0.81 6.23-1.71 8.51-4.96 16.59-6.86 25.05-4.53 11.43-7.04 23.51-11.14 35.09-1.69 5.31-4.06 10.51-4.42 16.15-3.89-2.54-5.92-6.85-9.14-10.05-1.51-1.57-3.13-3.02-4.72-4.49-0.33-9.09 2.07-17.98 2.72-27.01 0.55 0.18 1.65 0.56 2.2 0.74 0.95-2.81 2.06-5.58 3.4-8.23 0.17 2.85 0.11 5.72-0.03 8.58 2.52-4.08 4.18-8.64 4.56-13.44 0.6-6.45 2.48-12.7 5.25-18.54 2.72-1.8 5.87-3.44 7.35-6.51 1.35-2.83 2.29-5.83 3.54-8.71z" fill="#7C6C78" stroke="#7C6C78"/></g><g><path d="m552.7 758.34c-1.06-6.21 0.04-12.48 1.1-18.61 2.4 7.45 1.37 15.39 0.92 23.05-0.5 2.9399-0.0099 6.46-2.34 8.73l0.12-0.97c0.66-4.04 0.99-8.15 0.2-12.2z" fill="#221920" stroke="#221920"/></g><g><path d="m524.88 743.6c-1.83 0.58-1.54-3.1 0.2-2.36l-0.2 2.36z" fill="#5A5058" stroke="#5A5058"/></g><g><path d="m570.85 748.01c5.08 0.59 8.3-3.56 12.16-5.98-2.77 5.84-4.65 12.09-5.25 18.54-0.38 4.8-2.04 9.36-4.56 13.44 0.14-2.86 0.2-5.73 0.03-8.58-1.34 2.65-2.45 5.42-3.4 8.23-0.55-0.18-1.65-0.56-2.2-0.74 0.2-2.23 0.41-4.45 0.6-6.67 1.06-6.06 1.41-12.21 2.62-18.24z" fill="#6F616B" stroke="#6F616B"/></g><g><path d="m326.76 767.26c-0.8-6.81-0.92-13.67-0.34-20.5 0.22 6.83 0.72 13.66 0.34 20.5z" fill="#0F0E10" opacity=".62" stroke="#0F0E10"/></g><g><path d="m92.82 787.38c-0.79-4.6 0.15-9.38 1.88-13.66-0.75 4.53-1.16 9.11-1.88 13.66z" fill="#7C6C78" stroke="#7C6C78"/></g><g><path d="m93.13 788.9c1.56 1.97 3.62 3.7 4.46 6.15 0 1.95-1.31 3.59-2.26 5.21 0.04-3.93-1.14-7.64-2.2-11.36z" fill="#524E53" stroke="#524E53"/></g><g><path d="m318.1 801c-0.18-2.26 2.13-3.36 4-3.69-0.23 2.05-2.13 3.28-4 3.69z" fill="#1A1318" opacity=".68" stroke="#1A1318"/></g><g><path d="m564.91 799.93c1.59 1.47 3.21 2.92 4.72 4.49 3.22 3.2 5.25 7.51 9.14 10.05-0.75 5.32-0.5 10.75-1.53 16.04-1.17 4.15-0.94 8.77 0.75 12.75 3.14 5.05 3.41 11.22 6.31 16.39 3.19 5.72 4.81 12.56 2.82 18.97-1.68-2.02-3.33-4.04-5.06-6-3.11-6.96-6.61-13.73-9.78-20.66-4.53-10.67-8.36-22.06-7.91-33.79 0.61-6.06 1.03-12.15 0.54-18.24z" fill="#735A6C" stroke="#735A6C"/></g><g><path d="m557.41 826.38c1.51-1.26 3.41-1.85 5.2-2.59 1.17 7.41 2.17 14.85 3.29 22.28-2.17-4-2.21-9.58-6.4-12.15-0.37-1.27-0.72-2.55-1.06-3.8-0.52 1.02-1.04 2.03-1.52 3.09 0.1-2.29 0.02-4.59 0.49-6.83z" fill="#20191F" stroke="#20191F"/></g><g><path d="m556.92 833.21c0.48-1.06 1-2.07 1.52-3.09 0.34 1.25 0.69 2.53 1.06 3.8 4.19 2.57 4.23 8.15 6.4 12.15 1.12 3.12 2.29 6.23 3 9.49-0.04 0.45-0.1 1.36-0.14 1.81-4.56-5.58-7.65-12.12-10.99-18.46-0.59 1.02-1.19 2.04-1.74 3.09 0.48-2.91 0.68-5.86 0.89-8.79z" fill="#40323C" stroke="#40323C"/></g><g><path d="m331.17 833.98c1.32 2.13 1.42 4.67 0.65 7.04-1.24-2.17-1.35-4.69-0.65-7.04z" fill="#181116" opacity=".57" stroke="#181116"/></g><g><path d="m556.03 842c0.55-1.05 1.15-2.07 1.74-3.09 3.34 6.34 6.43 12.88 10.99 18.46l0.42 0.61c-0.25 0.52-0.73 1.56-0.97 2.08-0.2-0.6-0.61-1.8-0.81-2.41-2.79-0.62-5.57-1.2401-8.36-1.83-1.0099 2.71-1.83 5.49-2.95 8.16 3.11-7.38-3.17-14.69-0.06-21.98z" fill="#70596A" stroke="#70596A"/></g><g><path d="m572.28 851.96c3.17 6.93 6.67 13.7 9.78 20.66-5.43-3.75-9.07-9.39-12.88-14.64l-0.42-0.61c0.04-0.45 0.1-1.36 0.14-1.81 1.09-1.24 2.24-2.42 3.38-3.6z" fill="#241920" stroke="#241920"/></g><g><path d="m569.18 857.98c3.81 5.25 7.45 10.89 12.88 14.64 1.73 1.96 3.38 3.98 5.06 6-0.3 1.08-0.59 2.17-0.88 3.27-3.98-3.69-8.53-6.91-11.63-11.44-2.32-3.35-5.27-6.38-6.4-10.39 0.24-0.52 0.72-1.56 0.97-2.08z" fill="#574352" opacity=".96" stroke="#574352"/></g><g><path d="m541.24 866.04c3.65 1.65 7.8 4.42 11.82 2.21-5.65 4.49-5.28 12.39-4.59 18.88 0.44 2.03-0.53 3.83-1.95 5.22-1.74-8.79-2.3-17.79-5.28-26.31z" fill="#7C6476" stroke="#7C6476"/></g><g><path d="m62.08 872.08c-0.57-1.31-0.29-2.38 0.83-3.23 0.61 1.3 0.33 2.37-0.83 3.23z" fill="#272327" opacity=".62" stroke="#272327"/></g><g><path d="m59.94 880.99c-0.36-1.27-0.02-2.29 1.02-3.07 0.66 1.43 0.32 2.46-1.02 3.07z" fill="#251F22" opacity=".57" stroke="#251F22"/></g><g><path d="m59.17 904.33c-0.39-5.54-0.3-11.11 0.68-16.58 0.3 5.53 0.54 11.12-0.68 16.58z" fill="#2F2A2D" opacity=".78" stroke="#2F2A2D"/></g><g><path d="m543.05 895.95c0.99-1.02 1.99-2.03 2.97-3.04 0.06 2.42 0.11 4.85 0.08 7.29-1-1.44-2.03-2.85-3.05-4.25z" fill="#7C6C78" stroke="#7C6C78"/></g><g><path d="m548.21 903.48c1.8 1.86 3.2599 4.01 4.21 6.44-1.77-1.9-3.18-4.07-4.21-6.44z" fill="#352A33" opacity=".72" stroke="#352A33"/></g><g><path d="m58.72 918.35c-0.58-2.89-0.58-5.83 0.01-8.71-0.01 2.9-0.02 5.8-0.01 8.71z" fill="#231F21" opacity=".38" stroke="#231F21"/></g><g><path d="m554.28 912.58c1.72 0.78 2.73 2.38 2.98 4.24-2.23-0.1-2.99-2.37-2.98-4.24z" fill="#372D33" opacity=".73" stroke="#372D33"/></g><g><path d="m59.17 924.67c1.06 4.48 1.09 9.1 0.53 13.66-0.86-4.51-0.83-9.11-0.53-13.66z" fill="#332D31" opacity=".88" stroke="#332D31"/></g><g><path d="m561.9 924.78c1.56 0.23 2.56 1.56 2.47 3.14-1.5-0.35-2.48-1.63-2.47-3.14z" fill="#40323C" stroke="#40323C"/></g><g><path d="m60.16 945.67c0.94 3.83 1.04 7.79 0.54 11.71-0.76-3.87-0.82-7.81-0.54-11.71z" fill="#312D32" opacity=".88" stroke="#312D32"/></g><g><path d="m61.17 962.65c0.86 3.84 0.97 7.78 0.59 11.7-0.85-3.85-0.88-7.79-0.59-11.7z" fill="#32262F" opacity=".88" stroke="#32262F"/></g><g><path d="m61.05 1006.1c-0.22-6.8 0.04-13.59 0.72-20.35 0.12 6.78 0.92 13.66-0.72 20.35z" fill="#2D252B" opacity=".62" stroke="#2D252B"/></g><g><path d="m326.13 1000.1c-0.66-1.77-0.47-3.72 0.67-5.22 0.77 1.73 0.61 3.74-0.67 5.22z" fill="#191618" opacity=".56" stroke="#191618"/></g><g><path d="m59.98 1017.2c-0.08-3.46 0.22-6.91 0.98-10.27 0.1 3.44-0.09 6.91-0.98 10.27z" fill="#282327" opacity=".67" stroke="#282327"/></g><g><path d="m57.98 1029.1c-0.49-1.51-0.22-3.12 0.81-4.3101 0.79 1.4501 0.52 3.24-0.81 4.3101z" fill="#2D272B" opacity=".75" stroke="#2D272B"/></g><g><path d="m280.19 1037.3c0.14-2.88 0.33-5.74 0.61-8.6001-0.06 2.87-0.23 5.74-0.61 8.6001z" fill="#161013" opacity=".56" stroke="#161013"/></g><g><path d="m56.82 1033.9c-0.34-1.4301 0.13-2.39 1.39-2.89 0.37 1.3998-0.1 2.3599-1.39 2.89z" fill="#2D262B" opacity=".65" stroke="#2D262B"/></g><g><path d="m56.82 1041.2c-1.63-1.48-1.37-3.86 0.14-5.2999 0.29 1.75 0.22 3.5401-0.14 5.2999z" fill="#1C191B" opacity=".39" stroke="#1C191B"/></g></g></svg>