<?xml version="1.0" encoding="UTF-8"?><svg xmlns="http://www.w3.org/2000/svg" xmlns:xlink="http://www.w3.org/1999/xlink" height="1882.0" preserveAspectRatio="xMidYMid meet" version="1.0" viewBox="114.0 5.7 1462.6 1882.0" width="1462.6" zoomAndPan="magnify"><g id="change1_1"><path d="m1573.1 1735.2c-0.5699-4.59-4.97-7.37-6.89-11.33-4.12-8.5-8.36-17.25-15.38-23.76-6.7401-6.36-13.58-12.73-21.39-17.77-6.75-7.35-11.32-16.35-15.45-25.35-1.9099-3.5701-2-7.75-3.8099-11.33-2.1901 0.27-4.35 0.54-6.4701 1.0801-0.5199-3.38-1.73-6.5801-2.6799-9.8201-2.08-6.74-3.13-13.74-5.11-20.49-0.24-3.0699-0.79-6.12-1.9601-8.96-0.9099-5.89-2.7599-11.58-4.1599-17.35-5.73-20.52-11.49-41.05-16.88-61.67-0.24-3.09-0.78-6.16-1.99-9-3.17-16.27-4.98-32.98-11.33-48.43-7.0599-17.49-15.95-34.28-26.86-49.68-11.1-16.7-24.4-31.74-36.22-47.9-4.9399-6.49-10.96-12.01-16.31-18.13-0.7699-2.78-2.9099-4.75-5.6-5.59-4.63-4.54-7.39-10.63-7.89-17.09 0.37-3.9301-0.3899-7.8-0.6499-11.69-0.3401-4.5 0.74-8.9399 0.7-13.42 1.97-9.67 4.9-19.15 8.9399-28.14 8.01-18.22 13.7-37.32 19.56-56.29 7.77-26.32 13.2-53.26 18.1-80.24 1.9-10.68 4.28-21.3 5.5701-32.07 4.3999-2.8899 9.9099-0.9099 14.6-2.88 0.4-0.09 1.1799-0.2599 1.5699-0.35 1.0601 1.3401 4.65 1.26 4.5901-0.83l1.45-0.22c0.96 1.4299 4.58 1.3199 4.49-0.75l0.78-0.0601c2.96 0.27 6.08 0.4401 8.88-0.83l0.2899-0.03c4.1101 0.22 8.2301-0.13 12.35-0.14 1.48-0.0699 3.14 0.13 4.4299-0.84 4.25-2.55 9.09-3.66 13.61-5.5601 1.79 0.99 4.4401 0.37 5.9601-0.9399 3.2899 1.6 6.76 2.8099 10.3 3.77l-0.0699 0.49c-4.28-0.03-8.88-0.1801-12.75 1.9-3.0801 1.6699-3.1901 5.6-5.12 8.2 4.7 2.9 10.38 1.72 15.6 2.24l-0.03 0.87c9.17 0.35 18.31-0.34 27.46-0.96l-0.05-0.91c0.29-0.04 0.87-0.12 1.16-0.17 1.95-0.0299 3.9199-0.09 5.8999-0.1599-0.7999 1.3199-1.5699 2.6599-2.2799 4.0399-3.8201 6.5701-12.84 7.2101-16.57 13.89-2.1599 2.64 0.1901 5.9-0.6799 8.86 6.1699-0.23 11.26-3.86 16.82-6.0399 4.37-1.9601 7.8-5.41 11.39-8.48 4.64-4.28 9.79-8.3 12.8-13.98 3.62-7.4299 6.51-15.18 8.88-23.08 3.8899-6.59 10.63-11.94 11.87-19.88-0.1101-6.34-2.67-12.34-3.6101-18.57 0.0701-2.99-0.0499-6-1.0599-8.8201-0.13-2.65-0.14-5.2899-0.3101-7.9199 0.78-10.66 0.92-21.62-1.34-32.11-3.7999-20.9-13.96-39.9-18.83-60.51-3.5601-11.86-5.05-24.18-7.84-36.21 1.34-1.0699 1.2799-4.62-0.78-4.61l-0.22-1.36c1.1699-1.12 1.2999-4.53-0.6201-4.7l0.16-1.21-0.46-1.1c1.23-1.11 1.13-4.53-0.86-4.54l-0.24-1.42c1.3099-1.08 1.38-4.59-0.63-4.71-0.0701-0.61-0.2001-1.83-0.27-2.45 1.03-1.71 1.4299-5.65-0.73-6.38-0.01-0.45-0.02-1.35-0.02-1.8 0.2999-4.96-0.6801-9.86-1.1-14.77l-0.73-0.02c-0.8-4.5-2.01-8.91-3.1801-13.32-0.1901-3.07-0.8199-6.1-2.01-8.93-1.8199-7.95-4-15.82-6.47-23.59-5.91-19.81-15.29-38.58-18.77-59.09 1.17-1.16 1.16-4.61-0.8-4.72-0.0699-0.59-0.2-1.79-0.2699-2.39 1.3099-1.32 1.4199-5.19-0.78-5.4l-0.2101-1.52c1.27-1.3301 1.41-5.1301-0.72-5.4401 0.01-3.23-0.41-6.4601-1.27-9.5699 1.14-1.41 1.4301-5.1101-0.64-5.5701-0.0199-0.71-0.0499-2.13-0.0699-2.84-0.23-8.05-1.13-16.18-2.99-24.02-0.08-0.37-0.24-1.13-0.3199-1.51 1.34-1.0399 1.2599-4.59-0.78-4.52-0.3-4.5599-1.15-9.08-2.2101-13.51 1.4301-1.01 1.28-4.5601-0.7799-4.4901l-0.24-1.48c1.3999-1.0299 1.3099-4.66-0.78-4.5599l-0.22-1.42c1.35-1.09 1.2999-4.66-0.76-4.6901l-0.2001-1.3699c1.28-1.3701 1.38-5.1901-0.8099-5.49l-0.2001-1.5c1.24-1.3401 1.4-5.1401-0.7-5.4901-0.0601-0.62-0.2-1.85-0.27-2.47 1.13-1.41 1.39-5.1-0.64-5.59 0.0701-1.39 0.02-2.77-0.1599-4.14 0.36-11.73-0.3101-23.49 0.6499-35.2 0.9701-14.02 0.63-28.08-0.0599-42.1 8.88-9.08 14.47-20.86 17.38-33.12-2.3301-8.87-6.8-17.11-12-24.62-3.3301-5.36-5.9601-11.18-9.87-16.16-5.66-7.36-13.17-13.07-21.06-17.84-5.16-2.77-10.45-5.75-16.26-6.8099-0.3199-2.16-4.02-2.77-5.63-1.6301-3.4399-1.6299-7.35-1.3699-10.92-2.46-3.36-1.08-5.92-3.7-9.17-5.01-4.3-1.73-9.1-1.79-13.31-3.74-11.11-5.35-22.71-9.6699-33.54-15.59-6.23-3.7001-9.91-10.24-13.8-16.11-5.0599-7.8301-7.8099-16.82-9.62-25.88 1.29-1.1 1.22-4.59-0.7999-4.6-0.03-0.5-0.0701-1.48-0.1001-1.98 0.0601-0.77 0.16-2.3101 0.2101-3.0801 1.24-0.84 2.5-1.6899 3.76-2.54 2.13-2 4.6-3.77 6.08-6.35 6.73-6.2699 13.96-12.61 17.97-21.06 2.74-3.02 4.22-6.8701 6.41-10.26 1.62-3.15 4.37-5.97 4.27-9.75 3.0499 0.97 6.25 1.9099 9.51 1.45 0.74 0.0901 2.24 0.27 2.99 0.37 0.76 8.5-3.2001 17.08-0.64 25.4 0.6799 4.3 3.98 7.63 6.58 10.95 1.04 1.3701 3.39 3.3401 4.74 1.22-0.6-3.3599-3.34-6.0798-3.2699-9.6099 0-6.5 3.1799-12.41 5.25-18.37 1.9099-2.4099 4.62-4.9399 3.9199-8.34 0.38 0.35 1.13 1.0601 1.5 1.42l-0.09-1.0901c1.38-1.76 2.08-3.8799 2.65-6.01 0.62 2.4202 1.71 4.79 1.71 7.3301-1.53 4.51-3.17 9.0601-3.05 13.9 0.39-0.4701 1.1901-1.4 1.5801-1.87 0.21 0.47 0.62 1.4099 0.8199 1.8899-0.1899-3.1199 0.1-6.24 1.02-9.23 1.5601 3.6301 0.1901 7.6501-0.4 11.36-1.08 6.23-5.7899 10.92-7.6 16.88-1.48 3.6901-1.64 7.78-0.96 11.67 0.1799 1.7301 1.7 2.66 3.02 3.54-0.26-3.91-0.4-7.85-1.26-11.68 1.95-7.28 6.1799-13.69 10.81-19.53 1.37 3.9801 1.89 9.17 6.4 10.88 0.25-0.78 0.51-1.54 0.79-2.3101-2.16-3.3301-3.66-7.02-5.05-10.72l-0.79 0.78c0.54-1.3501 1.05-2.7101 1.53-4.0901 1.72 1.51 3.54 2.95 5.7001 3.8101-0.2101-2.0901-0.3701-4.2-0.9501-6.22-2.11-5.3901-1.03-11.32-0.4299-16.91-0.3501-0.42-1.05-1.28-1.41-1.7101-0.37 0.8-1.12 2.3901-1.49 3.1901-0.02-1.4301 0.13-2.85 0.2899-4.26 0.53 0.13 1.5901 0.4 2.1101 0.54 0.1499-0.53 0.45-1.59 0.59-2.12l1.6799-0.13-0.6899 1.48c-0.36 0.6-1.0701 1.7999-1.42 2.4 1.49 0 2.99-0.02 4.52-0.03 0.05 0.55 0.16 1.65 0.21 2.21-0.5499-0.28-1.6499-0.8199-2.2-1.09-0.41 5.59-0.23 11.24 0.71 16.78-0.23 2.88 0.5 5.7 1.2201 8.48 1.1-6.17 3.6899-12.23 3.1499-18.58 1.8-5.92 1.3301-12.16 1.42-18.25-0.0699-1.3701-0.17-2.73-0.28-4.0801 0.7101-0.63 1.4401-1.26 2.1901-1.8899 0.6799 6.1299 2.1599 12.14 4.5399 17.84-0.1499-6.5699 2.04-13 1.2001-19.58 1.04-7.7799 1.35-15.87-0.5701-23.54-0.4199-2.3401-1.3099-4.5701-2.1599-6.77-4.36-9.49-6.5701-19.84-11.58-29.06l-0.4399 0.14c-3.0701-6.0699-8.55-11.08-15.28-12.59-1.4399-2.16-3.01-4.22-4.48-6.3501-4.0701-5.0199-10.94-7.0299-17.15-5.47l-0.54 0.3601c-2.98 0.1399-5.9299 1.03-8.1699 3.0399-1.13 0.4-2.0801 1.17-2.9501 1.9301-0.38-0.2-1.1499-0.6201-1.5299-0.8301-0.1801-2.6099-1.62-4.9299-2.9701-7.09-3.12-10.09-10.67-18.54-19.55-24.05-8.36-6.3-18.01-10.84-27.97-13.98-7.6901-2.25-15.57-3.8501-23.55-4.5601-3.33-0.17-6.5699-1.51-9.92-0.99-4.6499 0.26-9.3099-0.0901-13.94-0.22-3.73 0.6499-7.52 0.98-11.23 1.72l-0.9301 0.3c-1.11-1.2001-4.47-1.1702-4.5699 0.74l-1.12-0.04c-6.77 1.11-13.35 3.1-19.96 4.8799-5.85 1.9001-10.99 5.29-15.09 9.8701-4.59-0.3401-9.13 0.48-13.58 1.46l-0.63-0.25c1 3.8501 2.25 7.7 4.6699 10.93-1.13 1.99-2.99 3.4401-4.33 5.29-4.6801 3.3301-10.66 2.3801-15.7 4.71l-0.01 1.26v-1.139c-1.9601 1.8699-4.1001 3.71-5.1901 6.25-4.1 10.07-3.83 21.13-3.71 31.79 0.22 8.0999-1.8201 16.08-1.35 24.19-4.7001 5.6799-11.03 9.77-16.01 15.09-1.66-0.41-2.35 0.2001-2.0601 1.85l-0.78 0.1101c-1.0399 2.5-2.4199 5.3599-0.74 7.9399 2.7001 4.08 7.4501 6.3999 9.9301 10.69 0.4 4.16-3.72 6.98-3.5 11.06-0.09 3.5601 1.0599 6.96 2.33 10.24-0.48 2.79-1.2799 5.77-0.13 8.52 1.0601 2.61 2.7201 4.9199 4.13 7.36-1.2799 1.52-1.22 4.13-0.02 5.6901-2.1399 8.3499 2.51 17.74 10.24 21.44 7.22 3.48 15.15 5.22 23.02 6.53 1.3601 2.9199 3.12 5.6299 5.04 8.22-0.5-1.72-0.98-3.4399-1.4399-5.16-0.5601-0.66-1.1101-1.3199-1.63-1.98 4.24 0.5399 8.35 1.84 12.62 2.2999 5.86 2.5 10.2 7.4701 14.15 12.31 4.3601 5.36 6.1901 12.13 8.16 18.62-1.38 1.12-1.39 3.67-0.02 4.8199-0.71 2.77-0.35 5.6801-0.3999 8.52-2.1803 0.2902-2.0803 4.0702-0.6903 5.3502-0.84 5.6399-2.02 12.44-7.97 14.91-7.4501 4.42-16.4 0.26-24.14 3.3301-3.29 0.11-6.71-0.21-9.78 1.1599-2.61 0.24-5.1899 0.74-7.72 1.3201-1.05-1.41-4.59-1.39-4.6 0.6899-2.86 0.1201-5.66 0.8701-8.3201 1.9-14.38 6.09-26.74 17.21-33.48 31.38-5.59 10.36-8.1899 21.92-11.31 33.16-1.99 5.0299-2.61 10.47-3.2301 15.8-2.1499 7.6301 0.67 15.49 5.63 21.36-0.1799 1.52-0.2999 3.0599-0.36 4.61-2.1799 0.2699-2.0499 4.0599-0.7999 5.4301-3.03 12.55-7.6801 24.63-11.88 36.82-2.92 7.09-5.1801 14.44-8.4501 21.38-4.1499 9.22-8.2899 18.45-12.13 27.81-8.37 20.2-13.17 41.63-20.57 62.18-2.15 5.97-5.26 11.52-8.37 17.03-9.77 16.83-17.72 34.65-27.73 51.35-5.02 9.13-11.08 17.63-16.09 26.76-14.54 23.63-26.11 48.93-40.24 72.8-9.6 16.56-21.54 31.72-34.81 45.48-4.52 0.14-9-0.52-13.5-0.33-0.63-0.09-1.89-0.27-2.51-0.36-3.28-2.68-6.5399-5.4-9.4501-8.47-2.46-2.6-6.47-3.3701-9.5999-1.54-2.2301-6.25-8.77-9.26-12.12-14.74-2.6-4.76-3.72-10.14-6.1499-14.96-5.3701-8.98-11.55-17.8-19.46-24.62 0.9501-1.43-1.22-3.69-2.67-2.86-2.1099-4.24-7.08-5.86-10.57-8.74-6.91-5.46-14.5-10.16-22.85-13.06-5.5901-1.94-9.0601-7.05-12.19-11.75-4.3401-6.85-10.52-12.23-15.32-18.74-14.88-17.91-29.7-35.95-42.57-55.38-6.9399-10.6-12.72-21.89-19.51-32.57-8.0999-13.31-17.62-25.66-26.89-38.16-10.8-15-22.62-29.25-34.98-43-7.4401-8.8198-16.58-16.84-20.27-28.12 1.25-1.4301 1.05-2.3601-0.6101-2.8101-0.2-7.8-2.2999-15.43-4.1299-22.98 1.97-1.28 3.8899-2.6799 5.4099-4.49 1.55-1.14 1.77-5.65-0.27-6.4-0.97-4.3199-3.3099-8.12-5.33-11.99-1.14-3.14-0.38-6.75-2.23-9.67-2.4-4.1-2.2899-9.1299-4.89-13.14-3.1699-5.3601-3.1699-12.1-7.1-17.07-2.0599-2.72-2.92-6.38-5.92-8.3101-0.1599-0.5-0.49-1.5-0.6499-2 0.0699-3.22 0.84-6.7-0.8801-9.6499-0.6599-3.3101-2.1399-6.4501-4.3699-8.98-4.29-4.6401-3.17-11.56-6.2001-16.84-3.5499-6.1399-4.87-13.14-6.75-19.88 1.26-1.12 1.2201-4.6-0.7799-4.67-0.0701-0.5898-0.2101-1.7699-0.28-2.3699 1.26-1.3701 1.45-5.16-0.6901-5.55-0.0699-0.5901-0.22-1.79-0.2899-2.39 1.2999-1.0699 1.2999-4.5699-0.7201-4.62 0-1.73-0.1901-3.4399-0.48-5.13-3.11-19-8.22-37.61-13.71-56.04-2.8999-11.12-7.1199-21.89-12.56-32-4.47-6.1501-8.9-12.51-15.13-17.02-5.2599-5.1901-11.62-8.91-17.76-12.9-0.14-2.01 0.09-4.29-1.34-5.91-2.81-3.25-7.38-3.95-10.68-6.55-1.45-1.1899-2.32-3.23-4.27-3.6699-4.67-1.0901-9.08-3.0801-13.83-3.79-5.17-0.87-10.31-1.86-15.49-2.5601-2.04-4.33-3.92-8.75-6.37-12.88-4.68-8.5701-11.28-15.86-17.46-23.35 0.58-0.25 1.74-0.74 2.32-0.99 1.17 1.23 3.52 1.25 4.78 0.1401l0.92 0.3799c5.9901 1.1101 12.16 0.5801 18.22 1.0901 3.8-0.24 7.97 0.84 11.49-0.98 7.89-1.8901 14.28-8.5801 15.77-16.56 1.16-4.4299-0.73-9.38 1.82-13.46 1.9-4.42 6.5-7.78 5.92-13.03 2.22-2.54 3.97-5.47 5.02-8.6899 2.35-5.03-0.76-10.46 0.71-15.7 5.33-2.11 11.73-2.4701 15.67-7.17 3.14-2.99 2.2-7.77 0.35-11.19-3.46-6.45-5.52-13.5-8.44-20.19 4-5.6901 7.07-12.37 7.51-19.37 2.09-0.4099 1.94-4.1299 0.74-5.51v-3.3699c1.26-1.3501 1.35-5.1001-0.78-5.4401-0.0099-2.03-0.5099-4.02-0.88-6 0.03-3.42 0.03-6.86-0.66-10.22l-0.1499 1.1102c-0.08-1.96-0.33-3.9-0.61-5.8301 0.49-1.6399 0.82-3.3199 0.99-5.02 0.72 0.03 1.44 0.0601 2.17 0.0801-1.92-6.3401-3.04-12.95-5.7401-19.03 0.23-1.08 0.55-2.13 0.85-3.2 0.49-0.27 1.46-0.8201 1.94-1.0901-0.63-0.97-1.25-1.9399-1.86-2.9099 2.43-1.5701-0.38-3.04-1.46-4.39-0.88-0.92-1.75-1.83-2.55-2.79 0.29-0.5699 0.87-1.6901 1.16-2.25-1.52-1.61-3.1-3.1801-4.77-4.63-1.43-2.35-3.58-4.2-5.12-6.5-1.59-1.6699-3.44-3.1599-5.78-3.5601-1.61-1.5499-3.61-2.6599-5.45-3.8999-3.66-4.5701-8.96-7.52-14.1-10.09-0.61-0.25-1.84-0.74-2.45-0.99-1.79-1.7999-4.13-2.74-6.65-2.8099-0.06-0.22-0.17-0.64-0.23-0.86-4.33-0.6699-8.47-2.29-12.79-2.9299-2.59-0.8601-5.28-1.3101-7.9301-1.8901 0.94-0.0999 2.83-0.2899 3.77-0.3799-6-4.9001-14.11-4.67-21.41-4.78 3.94 0.85 7.9 1.59 11.9 2.1-2.07 0-4.16-0.11-6.17-0.6-5.47-1.6001-11.21-0.41-16.73 0.23l1.17 0.5c-1.34-0.14-2.67-0.27-3.99-0.39l-1.56 0.3099c2.15-0.97 4.46-1.48 6.81-1.76l0.06-1.2699-1.35 0.0399c-4.55-1.9399-9.63-1.76-14.4-0.84-0.66 0.2001-1.99 0.58-2.65 0.77-4.28-1.0599-8.69 0.34-13 0.62-1.64 0.23-3.2 0.8-4.4901 1.8401l-0.02 0.0299c-2.2 0.8199-4.28 2.09-6.68 2.17-4.71 0.1399-8.73 2.98-12.41 5.6299-1.67 0.6901-3.33 1.4202-5.02 2.05-6.71 1.21-12.51 4.99-18.41 8.16 0.47 0.26 1.43 0.7999 1.9 1.0599-1.16 0.53-2.4 0.75-3.71 0.67 0.07 1.0699 0.16 2.14 0.25 3.2101-1.69 0.83-3.29 1.8099-4.9 2.76-2.3 1.52-4.5 3.1699-6.6 4.9199-6.34 6.0701-10.83 13.63-15.08 21.23 0.63-0.11 1.89-0.3101 2.52-0.4199-0.82 0.8999-1.64 1.7999-2.45 2.7l0.04 0.1599c-4.79 5.05-8.3199 11.1-11.44 17.28 0.24 1.01 0.49 2.02 0.74 3.03l-0.73 1.1899c-1.98 2.5901-3 5.8401-1.33 8.8601-0.6 2.6899-1.19 5.3899-1.77 8.09-2.65 7.9701-1.87 16.45-0.94 24.63 0.43 0.3401 1.3 1.04 1.73 1.38 0.36 6.37-0.06 12.75 0.27 19.12 0.07 2.62 0.98 5.15 2.42 7.3301 0.22 4.0599 1.33 8.0399 1.43 12.13-0.81 3.02-0.56 6.2 1.02 8.9401l0.82-1.2001 0.46 0.52c0.37 2.75 1.1 5.48 2.5099 7.9 0.2401 2 0.6801 3.9701 1.19 5.9301 0.97 3.6499 0.04 7.5 0.91 11.18 0.51 2.3501 0.89 4.74 1.1 7.15 0.15-0.42 0.44-1.27 0.58-1.6901 0.46 0.1901 1.37 0.5601 1.82 0.75 0.1 0.6001 0.29 1.8 0.39 2.4001l-0.09 1.0898c-1.43-0.1799-2.15 0.5-2.18 2.04-4.05-1.53-8.33-2.35-12.53-3.3101-4.34-1.74-9.25-1.74-13.86-1.4299-4.21 3.87-10.78 5.15-13.07 10.89-7.1 10.68-8.81 23.77-15.24 34.77-1.08 2.1901-2.6 4.42-2.34 6.99-1.85 0.72-1.54 4.22-0.54 5.71l-0.83 0.6c-3.5-0.77-7.15-2.6899-10.73-1.1299-5.81 2.49-9.11 8.8999-15.38 10.6-4.6 0.54-9.47-0.9099-13.87 0.8901-0.27 0.03-0.81 0.0699-1.08 0.09-5.1 0.0299-10.24-0.27-15.29 0.62h0.98c-1.33 0.11-2.64 0.26-3.94 0.47-3.25-0.28-6.59-0.3101-9.66 0.9299l-0.34 0.04c-3.69-0.0699-7.54 0.15-10.82 2.04-7.98 2.3301-16.71 5.78-20.93 13.48-13.35 4.2-25.52 11.72-36.07 20.83l-0.2 0.76c-1.5-0.8201-3.63 1.51-2.8 2.96-2.65 1.6699-4.58 4.29-6.29 6.88-1.63-1-4 1.5599-2.74 3.0699-3.41 4.15-5.46 9.29-8.41 13.79-3.3199 4.89-3.9 10.91-5.5099 16.46-2.01 9.05-6.23 17.42-8.28 26.46-0.68 2.92-1.61 5.78-2.13 8.73-1.12 3.3401-0.56 6.8901-0.78 10.33-0.29 5.55-0.78 11.13 0.03 16.66-0.31 6.95 0.1 13.91-0.27 20.86-2.51 7.63-1.84 15.95-1.8 23.9-1.27 2.9202-3.01 5.5901-4.53 8.3801-2.05 3.5699-1.45 7.97-3.33 11.62-3.13 5.8501-4.5 12.45-5.35 18.97-1.94-0.08-1.97 4.23-0.09 4.2999 0.05 3.8901-4.64 5.6602-4.97 9.6101-1.55 2.3101-0.75 5.1699-0.9 7.77 0.25 5.48-3.17 10.73-1.26 16.21-0.07 2.09-0.66 4.11-1.1 6.1599-1.68 4.79 0.17 10.1-0.47 15.12-0.33 1.4299-0.74 2.86-1.05 4.3199-1.35 5.01 0.87 10 2.28 14.74 0.71 2.38 3.7 2.25 5.67 2.6801l-0.99 0.01c0.69 0.22 2.07 0.6599 2.75 0.8699-0.43 5.1201-1.25 10.23-0.79 15.38-0.0099 0.45-0.04 1.34-0.06 1.79-2.13 0.3699-1.95 4.1499-0.66 5.48l-0.24 1.48c-2.06 0-2.1 3.5-0.8 4.6-1.38 3.9401-1.56 8.1901-2.98 12.13-1.81 4.99-2.54 10.28-3.88 15.4-0.81 4.9701-2.58 9.8201-2.44 14.92-2.14 0.3599-1.93 4.0999-0.71 5.48-0.09 0.45-0.27 1.3499-0.35 1.7999-1.12 2.84-1.1 5.9301-0.9 8.9301-0.02 0.26-0.07 0.79-0.09 1.0499-1.4 4.17-0.97 8.63-0.93 12.95-0.02 0.28-0.08 0.84-0.1 1.1199-1.11 8.4701-1.16 17.14-0.85 25.7-0.01 0.4601-0.04 1.38-0.05 1.85-2.13 0.39-1.87 4.2-0.69 5.6201-0.08 0.6299-0.24 1.8899-0.32 2.5199-2.24 0.74-1.82 4.7301-0.67 6.4301-0.07 0.6299-0.2 1.8799-0.27 2.51-2.14 0.3999-2 4.1699-0.7 5.53-0.08 0.87-0.24 2.62-0.3199 3.49-2.09 0.41-1.96 4.12-0.75 5.53-0.11 0.41-0.3101 1.23-0.41 1.64-1.46 5.27-0.59 10.82-1.26 16.21-0.87 6.41-0.51 12.89-1.23 19.32-0.05 6.19-1.23 12.41-0.1 18.57-0.1201 2.7-0.23 5.4-0.3 8.11-0.47 2.05-0.61 4.16-0.54 6.27 0.24 9.02-0.42 18.02-0.57 27.04-0.13 6.04 0.3 12.09 0.07 18.14-0.65 7.04-2.95 13.72-5.13 20.4-1.94 4.22-0.37 8.91 1.16 12.99l0.23 0.67c-1.13 1.1-1.15 4.4 0.76 4.55l-0.19 1.31 0.48 1.07c-1.1 1.14-1.18 4.52 0.75 4.68 0.19 4.67 1.39 9.24 1.96 13.88-0.32 9.16 1.95 18.19 2 27.35 0.33 6.58 0.5 13.17 0.35 19.76l0.66 0.1-0.02 0.6801c-1.95 5.23-0.76 10.95-0.9 16.41 0.23 3.17-0.7 6.86 1.64 9.48 4.66 6.43 10.19 12.23 16.17 17.46 4.92 5.74 9.36 11.9 14.42 17.54 4.77 5.54 9.48 11.76 16.49 14.55 4.18 1.8099 8.44 3.4399 12.49 5.5399 4.08 2 8.19 4.5801 12.91 4.4801 0.89 1.88 5.56 1.9099 6.4-0.05 0.62-0.03 1.88-0.08 2.51-0.11-0.21 1.7999 2.88 1.98 3.66 0.6899 4.55 2.12 12.14-0.71 11.07-6.6 0.37-5.64-5.65-8.36-9.93-10.38 3.05-2.13 6.32-3.9399 9.88-5.08 2.76-1.2001 6.29-2 7.56-5.0701 1.18-2.0499 0.45-4.4299-0.39-6.4399-0.68-1-1.44-1.93-2.11-2.91 0.6-0.21 1.8-0.63 2.39-0.84 3.8-1.1 7.85-4.2 7.75-8.49 1.84-0.1 1.8-4.46-0.04-4.55 0.07-2.35-0.83-4.56-1.62-6.71-3.31-7.98-7.28-15.68-12.19-22.79-4.05-5.9-6.87-12.53-8.39-19.51-1.05-5.53-4.63-9.98-7.69-14.52-2.53-3.52-3.09-7.96-5.17-11.7-2.85-5.21-6.87-9.68-11.3-13.59-5.23-4.91-10.58-9.92-17.02-13.19 0.67-1.45-1.44-3.7-2.89-2.87-2.43-4.91 1.1-9.7 2.07-14.5 3.68-15.06 8.41-29.82 13.73-44.37 6.35-19.87 12.93-39.65 19.83-59.33 6.9-21.5 12.57-43.41 16.48-65.66 1.48-3.77 1.98-7.8101 2.09-11.83 0.6-2.9401 1.08-5.9301 0.94-8.9301 2.07-0.45 1.8-4.1499 0.71-5.5699 0.09-0.37 0.27-1.1 0.35-1.4701 1.14-2.96 0.96-6.1499 0.85-9.25 0.03-0.25 0.08-0.75 0.11-1 1.17-2.6099 0.98-5.49 0.97-8.27-0.11-9.5399 0.1-19.09-0.13-28.64 0.02-0.4399 0.06-1.3401 0.08-1.78 2.02-0.04 2.04-3.5801 0.72-4.63l0.22-1.39c2.06 0.02 2.13-3.5 0.8-4.55 1.92-6.95 3.3199-14.04 5.3799-20.96 3.69 0.39 6.6-1.72 9.08-4.1599 2.95 12.84 6.87 25.47 9.04 38.49-0.16 5.7 0.64 11.43 2.05 16.95 0.08 0.4299 0.24 1.28 0.32 1.71-1.32 1.3401-1.4901 5.15 0.71 5.49 0.03 0.4301 0.09 1.28 0.12 1.7101 0.01 5.21 1.09 10.36 0.85 15.58-0.33 6.55 0.13 13.11-0.32 19.65-0.13 4.9-0.74 9.88 0.27 14.73 0.03 0.29 0.08 0.87 0.11 1.16-0.19 4.37-0.35 8.84 0.8 13.11 0.1 0.37 0.29 1.11 0.38 1.48-1.35 1.05-1.21 4.52 0.82 4.55 0.05 2.02 0.62 3.96 1.06 5.9301-0.05 2.97-0.14 5.95-0.11 8.94l-0.14 0.9 0.02-0.9c-1.15 4.3799-1.26 8.95-0.56 13.41 1.28 8.09-0.6 16.43 1.62 24.41l0.03 0.38c-0.33 8.14-0.22 16.31 0.89 24.4 0.03 0.34 0.08 1.03 0.11 1.37-0.11 4.95-0.32 9.97 0.76 14.85 0.04 0.4901 0.1 1.4901 0.13 1.9901-2.11 0.81-1.75 4.69-0.61 6.3799l-0.21 1.55c-1.83-0.3-2.25 2.8-0.88 3.64l-0.36 0.9301c-1.62 7.72-0.94 15.72-0.73 23.55l-0.03 0.16c-1.87 4.05-2.61 8.5-3.12 12.91-0.4 1.45-0.81 2.93-0.99 4.45-1.09 8.52-1.89 17.15-1.55 25.75-0.27 2.54-0.31 5.11-0.3799 7.69-1.86 0.51-2.28 4.87-0.3701 5.48 0.25 0.51 0.7401 1.53 0.98 2.05 4.72 2.19 10.01 2.16 15.1 2.05 0.1 2.12 0.23 4.26 0.41 6.4-0.84 5.84-3.08 11.36-4.37 17.11-0.81 2.08-1.18 4.31-0.97 6.55 0.38 5.73 0.93 11.46 1.13 17.21-0.31 1.8-0.82 3.56-1.09 5.39-1.3 3.78-1.46 8.0099-0.1201 11.81 0.15 0.45 0.46 1.35 0.61 1.79-1.2 1.85-1.3 4.73 0.06 6.54-1.95 8.25 0.01 17.01 3.97 24.37-1.17 1.2101-1.31 2.51-0.4 3.9-1.79 0.1801-3.51 1.02-4.51 2.5601-2.28 3.22-4.75 6.5099-5.39 10.52-0.96 5.4501-3.34 10.63-3.37 16.24l-0.03-0.88c-0.9 4.1901-0.86 8.5-0.68 12.76-0.41 2.7001-0.86 5.41-1.3 8.1101-0.77-0.02-2.32-0.0801-3.09-0.1001 0.77 4.4401 1.92 8.88 1.1801 13.42-1.22 3.14-1.48 6.79 0.05 9.89 0.35 1.62 0.82 3.46 2.4 4.35 1.28-0.14 2.52-0.52 3.77-0.85 1.28 9.88 5.27 19.15 6.36 29.06 0.77 5.01 2.51 9.8 3.59 14.75-0.16 3.9-0.17 7.89 1.02 11.67 0.08 0.42 0.25 1.28 0.33 1.71-1.28 1.38-1.36 5.11 0.76 5.5701 0.07 0.61 0.2 1.8099 0.27 2.4199-1.29 1.3501-1.41 5.1101 0.71 5.55 0.04 0.5601 0.1299 1.6801 0.17 2.24-1.16 1.4401-0.89 2.36 0.82 2.77 0.56 5.83 2.69 11.39 3.43 17.21 0.5 5.61 4.68 9.77 6.58 14.89 1.35 2.51 2.28 6.11 5.35 6.98 0.6 0.36 1.79 1.0801 2.39 1.4301 0.06 3.03 0.09 6.15 1.28 9.02 0.92 3.6899 2.32 7.2799 3.02 11.05-0.32 4.12 0.58 8.2001 1.85 12.12 1.73 12.07 9.53 21.85 14.31 32.75-0.93 1.74-1.44 5.6001 0.74 6.41-0.06 3.73 1.26 7.28 2.1 10.87-0.09 3.39-0.44 7.13 1.68 10.06 1.63 4.73 2.58 9.6399 3.64 14.53-1.42 0.6901-1.28 3.9601 0.63 3.67 0.9 4.5601 1.06 9.12-0.14 13.66-2.1 0.65-1.99 5.4099 0.04 6.13 0.23 3.25 1.03 6.4299 1.18 9.7-1.8199-0.29-2.11 2.78-0.84 3.65l-0.42 1.4399c-1.98 0.42-1.92 4.9301 0.09 5.3 0.66 5.76 3.3 11.05 5.19 16.49-1.2 1.11-1.01 4.52 0.96 4.53 0.11 3.09 1.39 5.97 2 8.98 0.62 5.99 0.01 12.28 1.95 18.04 0.03 0.1799 0.0699 0.5399 0.1 0.71-0.65 11.61-0.24 23.3 0.75 34.87 0.68 7.03 3.32 13.7 4.43 20.66 0.62 4.2999 1.58 8.5399 2.68 12.75 0.48 10.24-1.18 20.78 2.03 30.72 0.08 0.4301 0.24 1.3 0.33 1.73-1.3 1.38-1.43 5.14 0.7401 5.6 0.21 3.5701 1.2599 7.02 2.18 10.47-1.42 1-1.24 4.5599 0.84 4.48l0.23 1.4399c-1.38 1.0601-1.34 4.63 0.74 4.74l0.22 1.3201c-1.33 1.0399-1.31 4.58 0.72 4.65 0.02 0.3999 0.06 1.2 0.08 1.59-0.27 3.03-0.34 6.1699 0.8 9.0699 0.09 0.4401 0.27 1.3201 0.36 1.75-1.03 1.7101-1.44 5.53 0.62 6.4301 0.1 0.9 0.28 2.6799 0.37 3.5699-1.06 1.42-1.37 5.01 0.62 5.5901l-0.18 1.2899 0.47 1.0701c-0.94 1.4199-1.22 5.01 0.73 5.51-0.19 2.6899 0.49 5.38 1.05 8.0199 0.16 3.9601 0.67 7.9401 2.13 11.67 0.32 2.24 0.67 4.5 1.29 6.72-1.4 0.74-1.23 3.9501 0.66 3.75 0.08 0.5701 0.24 1.7201 0.31 2.29-1.32 1.0599-1.35 4.62 0.69 4.73 0.07 0.5701 0.21 1.72 0.28 2.29-1.36 1.0399-1.3 4.64 0.79 4.61l0.18 1.36c-1.24 0.76-1.13 3.8101 0.66 3.67l-0.25 1.2799 0.54 1.05c-1.21 0.83-1 3.89 0.8 3.7 0.03 0.4601 0.08 1.38 0.11 1.8401-0.37 5.83-0.71 11.77 0.64 17.52v0.61c-0.89 4.45-1.74 9.27-0.09 13.67 1.69 4.52 3.34 9.0701 4.87 13.66 2.63 8.8199 8.38 16.38 10.57 25.38-0.37 4.3-0.35 8.7 0.74 12.92 0.31 1.62 0.84 3.21 1.23 4.84 0.64 5.39-0.05 11.04 1.74 16.23 1.31 3.2 2.86 6.33 3.76 9.7 2.1299 9.3701 5.37 18.55 9.81 27.09-2.16 2.53-4.66 4.74-7.23 6.88 0.34 0.33 1.03 0.99 1.37 1.3199-5.83 5.98-11.01 12.54-15.97 19.25-2.71 3.84-6.69 6.54-9.52 10.29-2.38 3.33-5.51 6.03-7.84 9.41-3.7 4.59-5.45 10.31-7.05 15.9-0.8 2.9-2.05 5.75-2.12 8.8201-1.85-0.23-2.14 2.89-0.78 3.74l-0.2 1.34c-2.04 0.03-2.06 3.53-0.71 4.61-0.21 0.6901-0.62 2.0601-0.83 2.74-1.02 0.54-2.08 1.0701-3.02 1.79-0.44 2.12-0.45 4.3101-0.6 6.5 2.68 0.01 5.36 0.03 8.05 0.04l0.09 0.73c5.93-0.11 11.87-0.1901 17.79 0.15 13.66 0.84 27.32-0.5901 40.98 0.02 4.49 0.0599 9.18 0.9399 13.5-0.7301 1.04-0.09 2.09-0.2 3.13-0.34 10.59 0.21 21.21 0.49 31.79 0.02 1.27 0.1799 2.53 0.1 3.77-0.24 1.02 1.35 4.78 1.22 4.42-0.9301 0.43-0.27 1.28-0.7899 1.71-1.0599 4.99 0.2 10.16 1.1699 15.04-0.27 5.51-3.02 11.25-5.88 15.63-10.49 0-0.3201 0.01-0.9401 0.01-1.25 1.98-2.77 0.89-6.38 1.15-9.52-0.29-4.16 0.8-8.6-1.06-12.48-0.07-4.65 1.2599-10.62-3.4-13.55 0.35-3.72 0.57-7.47-0.08-11.15 1.46-1.33 3.02-2.6399 3.88-4.4399 4.15-8.62 5.57-18.18 7.63-27.43 0.64-3.33 1.87-6.84 0.57-10.15 1.02-1.4601 1.28-5.03-0.69-5.54l0.19-1.34-0.47-1.14c0.95-1.48 1.16-4.9301-0.7-5.54l0.19-1.3199-0.47-1.11c0.97-1.4901 1.2-5.05-0.75-5.5701-0.02-0.72-0.05-2.15-0.07-2.87 0.18-2.98 0.09-6.01-1.09-8.77l-0.04-0.3199c-0.2599-6.26-0.37-12.69-1.94-18.77-0.03-0.25-0.1-0.73-0.1299-0.97 0.4399-4.03 0.55-8.0901-0.08-12.08 0.23-1.86 0.27-3.71 0.32-5.5399 0.84-10.18-4.77-19.4-5.15-29.48 0.31-3.1499 0.31-6.3099 0.14-9.45-0.41-6.73 0.59-13.56-0.94-20.2-0.03-0.3201-0.09-0.9601-0.13-1.29 0.25-3.08 0.34-6.24-0.87-9.12-0.08-0.4-0.25-1.1801-0.33-1.5699 1.01-1.75 1.42-5.5901-0.66-6.4401-0.09-0.92-0.28-2.75-0.37-3.67 1.04-1.72 1.5-5.61-0.66-6.36-0.02-0.74-0.06-2.23-0.08-2.97 0.23-3.3199 0.14-6.6899-1.0699-9.8099-0.03-0.2301-0.08-0.7001-0.1-0.9401 0.09-5.5699-0.99-11.08-0.78-16.65-0.52-5.7899 0.68-11.67-0.67-17.36-0.11-13.72 0.13-27.45-0.02-41.16 1.79-5.6799-0.3-11.55-0.22-17.32 0.03-4.45-0.02-8.9-0.73-13.29-0.68-3.77 0.48-7.87-1.4-11.35-0.03-0.22-0.07-0.65-0.1-0.87 0.18-3.03 0.41-6.1899-0.94-8.99l-0.21-0.9401c1.16-1.6699 1.44-5.62-0.82-6.2599l-0.24-1.55c1.25-1.41 1.38-5.17-0.71-5.6-0.07-0.5901-0.2-1.76-0.27-2.3401 1.34-0.8199 1.1-3.98-0.74-3.72-0.66-7.02-2.46-13.9-3.9-20.8-0.42-4.7301-1.26-9.4701-3.05-13.88-1.07-5.26-1.88-10.58-3.32-15.74 1.2-1.37 1.45-5.12-0.67-5.4401 0.04-1.3199-0.02-2.61-0.18-3.88 0.43-4.04 0.33-8.1-0.05-12.12 0.04-0.41 0.11-1.25 0.14-1.66 1.99-0.0199 2.13-3.45 0.89-4.5299l0.24-0.7101c2.35-3.46 0.51-7.99 0.66-11.87 3.09-6.1799 0.13-12.87-2.64-18.55-2.11-3.74-2.17-8.16-3.88-12.04-1.79-3.84-0.97-8.26-2.61-12.12 1.25-1.2 1.28-3.67-0.02-4.8 0.12-0.3999 0.36-1.1899 0.48-1.58 2.48-7.5699-0.41-15.32-0.23-23.01 0.11-0.47 0.31-1.41 0.42-1.89 1.32-3.58 1.39-7.7-0.19-11.2-0.75-1.9401-1.7-3.8101-2.18-5.8201-0.06-6.34 0.11-12.69 0.03-19.02 0.02-0.3301 0.08-0.9801 0.1-1.3101l0.74-0.08c0.02-4.5901 0.47-9.16 0.2-13.74 0.03-0.25 0.08-0.77 0.11-1.02 1.04-4.25 0.43-8.9401-1.11-12.99l-0.17-0.67c1.24-1.37 1.3-5.1-0.85-5.38l-0.05-0.91c0.3-4.3099 0.38-8.72-0.85-12.89-0.03-0.2599-0.11-0.7699-0.14-1.0299 0.3-3.3301 0.29-6.6801-0.02-10l0.03-0.1901c1.43-2.76 1.18-5.91 1.06-8.89 0.02-0.24 0.07-0.73 0.09-0.97 1.8199-7.37 0.99-15.06 0.93-22.57-0.76-6.51 0.34-13.03-0.14-19.54 0.05-0.48 0.15-1.45 0.2-1.9301 1.16-2.88 1.16-6.01 0.8-9.0399 0.03-0.4301 0.08-1.3 0.1-1.74 2.18-0.3301 2.04-4.1001 0.77-5.4301 1.35-3.85-0.29-7.79-0.95-11.59 0.41-6.12 0.64-12.29-0.04-18.39 0.2-2.09 0.28-4.1801 0.29-6.25l0.67 0.08c0.36-6.08 0.19-12.17 0.52-18.24 0.1-3.47 1.66-7.14-0.09-10.41-0.04-0.1899-0.1-0.58-0.14-0.7799 0.12-6.0801-3.39-11.57-3.06-17.66 0.1-3.8 0.8-7.78-0.84-11.36l-0.28-0.9c0.96-1.76 1.21-5.5-0.87-6.3199 0.08-1.4301 0.16-2.8501 0.25-4.26l0.89-0.04c-0.02-4.29-0.67-8.71 0.78-12.84 5.46 7.56 12.75 14.05 16.03 22.99 1.78 4.6799 4.57 8.88 6.31 13.58 2.66 5.3 4.05 11.08 6.09 16.62 0.36 3.0701 0.91 6.14 2.1 9.02l0.19 0.65c-1.41 0.73-1.1 3.88 0.7401 3.64 1.25 11.66 7.4 22.03 10.82 33.11 4.46 10.31 7.12 21.25 9.96 32.08 4.44 12.96 8.23 26.13 11.56 39.41 1.55 6.77 4.14 13.23 6.33 19.8 2.05 6.1699 5.16 11.97 6.5 18.37-0.33 4.47-0.3701 8.97-0.35 13.47 0.05 1.9-0.18 4.01 1.15 5.6 0.72 2.84 1.38 5.77 2.87 8.34 5.06 7.51 10.19 15.27 12.54 24.13-1.26 1.17-1.37 3.5901-0.13 4.85-3.65 6.6001 0.51 13.66 4.09 19.23-1.01 1.7-1.63 5.59 0.47 6.47-0.35 5.5599 3.12 10.04 5.52 14.71 1.9 2.98-0.06 6.5801 0.95 9.78-1.27 1.04-1.28 4.61 0.74 4.59-0.01 1.97 0.57 3.91 0.92 5.86 0.24 4-0.58 8.1901 0.91 12.04l0.23 0.51c-1.33 0.79-0.88 3.87 0.92 3.54l0.05 0.84c-0.4 4.28-0.48 8.7 0.89 12.84 1.06 6.9501 3.34 13.64 5.15 20.42 1.95 7.36 5.21 14.31 6.69 21.8 0.08 3.8501 0.72 7.66 1.41 11.45 0.79 4.12 0.4 8.4199 1.73 12.46 0.05 0.47 0.14 1.42 0.18 1.9-0.24 3.0599-0.43 6.27 0.85 9.1801 0.02 0.23 0.06 0.7 0.09 0.9299-0.2 3.05-0.31 6.21 0.89 9.11 0.02 0.2101 0.07 0.64 0.09 0.86-0.22 2.99-0.34 6.13 0.97 8.9401l0.22 0.76c-1.14 1.11-1.21 4.4299 0.7 4.6599l-0.19 1.2401 0.46 1.08c-1.24 1.0599-1.16 4.48 0.84 4.52l0.23 1.4199c-1.35 1.03-1.29 4.5801 0.74 4.62 0.1 3.7001 1.32 7.24 2.06 10.85 4.55 20.64 10.95 40.83 18.45 60.58 5.92 17.44 10.97 35.18 17.74 52.31 1.6001 4.29 2.4202 8.8401 4.03 13.14 0.27 2.6901 0.5701 5.4301 1.73 7.9301l0.03 0.13c-0.1499 2.8199-0.04 5.67 0.1801 8.51l0.6901 0.03c0.26 5.72 1.99 11.22 2.8398 16.87 0.77 6.85 4.27 12.92 6.2401 19.46 1.13 5.3 0.4401 10.84 1.9 16.07 0.03 0.2301 0.0699 0.6901 0.1 0.92-0.13 3.29-0.4501 6.78 1.0599 9.86 1 3.55 2.8501 6.8101 3.89 10.38-0.25 8.8201 0.85 17.61 1.9301 26.36 0.35 3.5701 1.54 7.16 0.8101 10.77-1.8101 10.29-1.1802 20.75-1.9102 31.13-0.0399 1.24 0.25 2.4399 0.8801 3.5699 2.2899 6.14 3.46 12.82 7.2999 18.28 1.4601 2.5601 3.66 4.7001 4.8199 7.4501-1.58 0.08-1.48 2.83-0.49 3.71-1.1599 0.63-2.3099 1.3-3.47 1.97v0.8101l-0.49 0.01c-0.6499 10.63-0.5601 21.29-0.45 31.94 0.52 0.3201 1.5699 0.98 2.09 1.3 2.65 0.72 5.2899 1.74 8.09 1.7899-0.25 1.8301 2.92 2.0701 3.72 0.7301l1.3501 0.1899c-0.04 2.0699 3.55 2.17 4.62 0.79 0.58 0.0699 1.73 0.21 2.2999 0.2799 0.0901 2 3.6101 2.04 4.6801 0.6901 0.58 0.08 1.76 0.23 2.34 0.3 0.0701 2.0299 3.6001 2.0399 4.6801 0.7 0.4 0.0699 1.1901 0.22 1.59 0.3 2.8501 1.11 5.9399 1.2699 8.97 1.0299 0.3101 0.05 0.9401 0.14 1.25 0.1801l0.03 0.74c3.11 0.29 6.1799 0.89 9.29 1.17 3.8799-0.03 7.71-0.9301 11.41-2.04 2.6001-0.35 5.1901-0.77 7.76-1.36 1.3301 1.2899 5.1401 1.4 5.49-0.75 0.6301-0.0601 1.8901-0.2001 2.52-0.26 1.65 1.26 5.6201 1.46 6.4301-0.6801 0.6901-0.02 2.0699-0.08 2.76-0.11 3.96 0.29 7.92-0.08 11.89-0.01 7.0599 3.26 14.17 7.1901 21.99 8.0701 0.0601 1.95 3.45 2.0599 4.6 0.88l0.87 0.2899c7 1.2101 14.15 0.99 21.23 1.04 5.54-0.11 11.1 0.3 16.63-0.3 3 0.25 6.03 0.2001 9.0499 0.25 6.3901 1.1801 12.95 0.79 19.42 1.12 12.03-0.5099 24.07-0.0299 36.11-0.22l-0.1299-0.9299c0.5999-0.04 1.7899-0.12 2.3799-0.16 3.6501 0.33 7.41 0.33 10.92-0.89l0.84-0.25c1.05 1.25 4.55 1.16 4.52-0.83 1.4399-0.0601 2.89-0.29 4.3301-0.51-0.41-2.9601-0.3301-6.73-3.96-7.42-0.1702-4.08 0.0898-8.24-1.0601-12.2-0.6101-3.5701-1.77-7.0701-3.49-10.24-1.64-3.11-5.1801-4.28-8.05-5.92-13.9-7.67-29.59-12.51-41.6-23.26-4.27-4.13-9.5-7.05-13.89-11.02-7.1-6.1-15.05-11.09-22.27-17.02-0.1499-3.36-3.3999-4.62-5.9399-5.9099-0.27-6.4301-6.3-10.55-10.98-14.08-7.1401-4.1599-13.01-11.77-22.04-11.37 2.0701-5.02 4.51-9.9199 5.61-15.26 0.7799-4.11 2.74-8.11 2.38-12.33 0.1799-3.5699 0.6799-7.33-0.88-10.66-0.64-2.5499-1.91-4.86-2.83-7.2799-1.3801-6.5901-1.5801-13.54-4.0901-19.81-1.85-3.9-4.27-7.5-5.97-11.46-0.1-6.6801 0.29-13.37-0.55-20-0.72-5.86-0.28-11.96-2.3799-17.56-3.1001-10.84-6.23-21.67-9.2101-32.54-1.84-7.62-5.1901-14.73-7.3099-22.25-3.17-10.21-3.4401-21.06-6.46-31.29-0.28-3-1.05-5.92-2.26-8.66-0.8201-4.11-1.6901-8.21-2.9501-12.19-0.22-2.75-0.9501-5.41-2.02-7.92-0.88-4.45-1.9401-8.85-2.92-13.26-0.24-2.92-0.6199-5.8099-1.0898-8.6801l-0.7301 0.0901c-0.5-3.3101-0.7899-6.66-1.6-9.9 1.35-1.0601 1.37-4.61-0.6699-4.62-0.0801-0.59-0.2301-1.76-0.3-2.35 1.33-1.0901 1.34-4.64-0.7-4.66-0.0801-0.59-0.2201-1.77-0.3-2.36 1.3899-1.08 1.34-4.65-0.75-4.64l-0.23-1.45c1.26-1.38 1.3899-5.14-0.7001-5.54-0.0599-0.59-0.2001-1.77-0.2699-2.36 1.3699-0.8301 1.0999-4.0601-0.79-3.72l-0.21-1.29c1.3499-1.0601 1.25-4.59-0.77-4.55-0.25-5.75-1.8-11.34-2.8401-16.97-0.3899-4.33-0.7-8.83-2.78-12.72-2.35-7.14-3.99-14.46-5.6599-21.77 1.35-0.76 1.25-3.92-0.6001-3.7-0.08-0.8501-0.25-2.55-0.33-3.4 1.01-1.75 1.5-5.6901-0.6801-6.4401-0.1499-7.5599-3.1499-14.77-3.2-22.34-0.08-3.26 0.29-6.51 0.1001-9.75 0.0898-5.87-0.5701-11.74 0.2699-17.58l-1.11 0.0399c-0.88-8.4099-9.8301-12.91-11.12-21.27-1.1901-6.2599-0.23-12.76-1.9401-18.9-0.3799-3.12-1.3999-6.1001-2.1799-9.12-0.0601-3.26 0-6.52 0.11-9.77 0.64-2.64 1.5599-5.2101 1.88-7.9 1.88 0.3 2.24-2.91 0.8-3.66 0.11-0.4299 0.33-1.2899 0.4399-1.72 2.5701-12.07-0.1799-24.5 0.89-36.71 1.0599-4.1 2.0499-8.2201 3.4501-12.21 0.9299-3.85 1.08-8.2699-0.4401-11.96-0.5499-2.11-1.41-4.1-1.9701-6.1799 0.1702-4.17-0.0199-8.3401 0.1802-12.49 0.0898-2.71 0.6099-5.46-0.1702-8.1-0.8999-3.0499-2.0599-6.1599-0.9199-9.3199 0.54-1.4401 0.8301-2.97 0.6899-4.49-0.1599-5.25 0.79-10.49-0.01-15.72l-0.02-0.3999c0.8-7.5901-0.1599-15.24 0.6802-22.83 0.2699-2.4299 0.3198-4.89-0.3301-7.25-1.46-10.23-3.97-20.23-7.29-30 0.96-1.76 1.3401-5.58-0.84-6.33-0.02-0.46-0.0599-1.37-0.08-1.83 0-3.4301 0.6699-7.1001-0.8701-10.29-0.71-3.33-2.0999-6.45-3.0599-9.6801 2.48-0.6699 4.85-2.23 5.26-4.97 1.86-0.89 1.91-5.63-0.1901-6.2999-0.5-3.2101-1.46-6.3201-2.3699-9.42 1.23-1.0701 1.3199-4.5701-0.67-4.58-0.2101-7.11-3.7201-13.6-5.4401-20.41-1.9299-7.6801-5.6699-14.7-8.22-22.16-1.1899-3.36-3.8301-6.33-7.3201-7.32-2.7799-0.78-5.6199-0.04-8.3699 0.46-2.4401-9.86-5.3701-19.63-9.3601-28.98-2.6599-6.2-3.8699-12.84-5.72-19.27-5.55-14.86-15.66-27.44-21.93-41.93 2.71-2.31 7.11-3.18 8.3899-6.8-0.6399-3.58-2.58-6.73-3.6899-10.14-5.5601-15.3-10.93-30.68-15.54-46.28-2.27-11.06-5.68-21.82-8.36-32.77-1.81-6.88-4.22-13.63-5.2401-20.69-1.34-9.3-4.58-18.14-6.88-27.21-2.27-8.6301-6.0699-16.77-8.37-25.37 0.06-3.6799 0.46-7.48-0.8199-11-0.88-7.6199-2.64-15.12-4.52-22.54 1.43-0.7401 1.19-3.9701-0.69-3.63l-0.08-0.8501c0.08-3.46-0.95-6.8599-0.61-10.31 0.41-4.5 1.15-9.13-0.21-13.54-0.03-0.25-0.08-0.74-0.11-0.99 0.16-3.7001 0.33-7.5-0.92-11.04-0.03-0.27-0.07-0.8101-0.1-1.0801-0.15-5.98 0.05-11.95 0-17.92 0.56-3.04 0.41-6.14-0.0099-9.17 0.52-3.2999-0.77-6.92 0.91-9.9601 1.42 3.8901 3.76 7.3501 6.68 10.26 3.18 3.26 4.88 7.6501 8.08 10.88 2.27 2.48 5.75 0.83 8.51 0.3699 5.33 10.36 9.92 21.12 13.64 32.16 4.9 12.65 12.04 24.43 21.2 34.46 0.9199 3.1799 3.46 5.6299 6.6 6.6299 7.99 7.8301 15.06 16.51 22.38 24.95 25.23 31.7 56.35 57.93 86.4 84.87-1.2999 1.62 1.3701 4.1 2.9102 2.7 9.3099 8.89 18.38 18.04 27.32 27.31-1.3298 2 1.4001 4.89 3.4901 3.71 4.7999 5.61 10.07 10.84 14.51 16.76 4.0901 5.4301 9.6501 10.2 11.23 17.09 1.58 7.47 2.5299 15.06 4.2999 22.49 2.25 9.18 7.9601 16.93 11.34 25.67 4.1299 10.43 13.33 17.3 20.85 25.14 2.4601 1.92 4.75 4.89 8.0499 5.13-0.3499 1.81 3.73 1.88 3.4301 0.1l1.2999 0.2c2.9001-1.43 5.3301-3.57 7.5901-5.85 0.6899-0.41 2.72-2.65 2.5601-0.36-1.24 4.33-2.8901 8.63-2.8701 13.22-2.0399-0.04-2.1499 3.44-0.8199 4.52l-0.26 0.9c-1.3099 4.07-1.87 8.6801-0.1 12.72 1.6 6.19 3.1499 12.63 7.14 17.81 1.61-1.36 3.22-2.72 4.85-4.05 0.24 1.86-0.12 4.81 2.25 5.5 3.8101 1.06 7.96 2.1 11.83 0.66 6.0798-1.67 10.29-6.64 15.53-9.81 4.13-2.54 7.9601-6.01 12.97-6.62 5.3298-0.33 10.79 0.46 16.02-0.87 7.79-1.05 14.85-4.77 22.31-7.03 7.79-3.13 15.7-6 23.11-9.97 2.54-1.46 5.77-2.14 7.63-4.54 1.48 1.04 3.92-1.31 2.98-2.83 5.2101-4.19 9.5399-9.48 14.04-14.44 2.1801-1.43 4.0601-3.3 5.3501-5.58 9.79-10.19 20.84-19.14 30.84-29.07 1.49 1.16 3.96-1.22 2.96-2.77 1.77-1.03 3.4501-2.26 4.87-3.74 3.4701-2.1201 6.15-5.23 8.6001-8.42 2.72-2.05 5.0699-4.53 7.35-7.05 2.99-3.35 6.59-6.08 9.5499-9.46 5.4501-6.25 12.22-11.46 16.6-18.57 1.4199 0.8 3.58-1.4301 2.87-2.86l0.73-0.19c8.29-9.74 16.44-19.61 23.93-29.98 10.1-13.62 18-28.68 27.46-42.72 6.97-10.13 7.27-23.06 13.48-33.58 4.27-7.22 8.98-14.19 13.52-21.24 0.12 0.6 0.34 1.8201 0.45 2.4299 0.1901 5.34 0.38 10.81 1.9 15.98 0.03 0.23 0.08 0.7 0.1 0.93-0.13 4.34-0.54 8.84 0.8201 13.05 0.0399 0.52 0.13 1.58 0.1799 2.11-0.53 7.94 0.49 15.89 0.01 23.85l-0.05 0.28c-1.87 3.56-1.6899 8.12 0.02 11.72l0.03 0.36c-0.5599 4.25-2.1799 8.33-2.09 12.68-1.9601 10.09-7.74 18.83-10.8 28.57 0.6 1.37 1.4501 2.63 2.25 3.93-4.88 11.22-11.46 21.57-17.4 32.23-5.1 9.18-7.25 19.54-10.35 29.47-6.27 25.15-17.98 48.82-21.68 74.61-1.88-0.34-2.13 2.8701-0.7301 3.65-0.1 0.37-0.2899 1.11-0.3899 1.48-2.4401 9.12-3.63 18.62-4.01 28.05 0 0.44 0.01 1.3199 0.01 1.7599-1.9501 0.16-1.88 3.58-0.67 4.72-0.09 0.85-0.26 2.57-0.35 3.42-1.99 0.0599-1.9 3.5499-0.62 4.6-0.0701 0.63-0.2201 1.88-0.3 2.5-2.21 0.74-1.7999 4.6799-0.74 6.4-0.08 0.46-0.26 1.37-0.35 1.8199-1.05 3.17-1.13 6.54-0.76 9.85-0.05 0.5801-0.14 1.75-0.1801 2.3301l-0.71-0.04c-0.2 2.92-0.3099 5.86-0.17 8.8099-0.0499 0.5-0.13 1.51-0.1799 2.02-1.23 3.85-1 7.9501-0.79 11.94l-0.0499 0.9199c-2.3401 0.62-1.9401 4.6001-0.8101 6.29l-0.1899 0.92c-1.4 3.4299-1.1801 7.1899-0.9601 10.81-0.02 0.27-0.0699 0.8-0.09 1.0701-1.22 3.49-1.22 7.24-0.84 10.88-0.2001 1.5299-0.38 3.0699-0.53 4.64 5.9299 5.2999 13.44 8.2799 20.62 11.47 9.78 3.75 19.42 7.86 28.9 12.33 0.14 0.55 0.4199 1.65 0.5699 2.2001 10.64 41.75 23.31 83.19 41.68 122.26 9.5 20.9 19.87 41.41 28.54 62.68 2.91 8.11 5.6901 16.28 8.3201 24.49 2.79 9.71 3.48 19.89 5.96 29.66-1.38 1.01-1.22 4.51 0.8201 4.46 0.85 9.9501 5.1499 19.2 8.95 28.32 2.98 7.24 8.6901 13.25 10.17 21.11 4.33 17.24 9.51 34.25 13.84 51.49 0.16 3.0499 0.79 6.0599 1.96 8.9 4.3101 21.12 9.24 42.14 15.97 62.63 7.1899 22.46 14.37 44.95 20 67.87 5.5699 20.44 10.82 40.97 16.67 61.34 2.1 8.33 3.5601 16.8 5.5 25.18 0.02 3.39 0.48 6.8201 1.9401 9.9401 0.5699 3.42 1.23 6.83 2.0399 10.22-0.0699 0.8201-0.21 2.4501-0.2799 3.26-0.6101 0.17-1.8401 0.52-2.4501 0.6901-0.2 1.1299-0.39 2.2899-0.5699 3.48-0.26 0.2999-0.77 0.9099-1.03 1.22v0.34c-0.98 3.01-1.01 6.1901-1.05 9.34-0.4299 0.38-1.2799 1.14-1.71 1.52-1.3099-0.88-3.48 1.29-2.86 2.63-1.0601 3.42-2.29 6.79-3.3 10.23-2.0599 0.3301-1.5299 4.9301 0.74 4.55l0.12 0.87c-1.4399 3.6901-2.1 8.55-6.6899 9.58-1.71 0.7201-2.91 2.15-4.04 3.5601-2.7999 4.63-7.33 7.77-11.97 10.34l-0.05 0.9401c-1.6699-0.29-2.2799 0.36-1.85 1.96-1.9399 0.97-3.12 3.01-5.08 4-2.0601 1.3199-4.83 1.83-6.1801 4.04-1.11-1.14-3.5399 0.5-2.7899 1.95-1.64 0.08-2.5801 1.5601-3.74 2.49-2.13 2.17-5.2201 2.77-7.7401 4.29-3.0599 0.7-6.0399 2.13-7.95 4.7-3.4299 2.04-7.15 3.4401-10.95 4.5901-1.48-0.54-3.76 0.5599-3.9701 2.2l-0.5299-0.3101c-4.79 5.17-12.41 6.14-17.33 11.14-9.9399 3.42-19.86 6.99-29.42 11.36-5.15 2.25-8.73 7.4501-8.5 13.15-0.8501 3.87-2.2201 7.73-1.6801 11.76 6.97 0.49 13.96 0.25 20.92-0.3099 10.43-0.79 21.04 0.8999 31.35-1.25 0.24-0.02 0.73-0.0701 0.97-0.1001 4.26 0.17 8.63 0.3401 12.77-0.8899 0.54-0.04 1.62-0.1101 2.16-0.14 5.25 0.24 10.6 0.33 15.78-0.74 0.72-0.12 2.1699-0.37 2.8899-0.5 1.6801 1.08 5.55 1.3899 6.4301-0.6101 0.88-0.09 2.65-0.2699 3.54-0.36 1.34 1.2001 5.1 1.4501 5.48-0.6899 0.61-0.0701 1.8199-0.23 2.4199-0.3 1.0901 1.2101 4.5801 1.24 4.6901-0.73 3.67 0.09 7.22-1 10.74-1.95 2.75-0.1801 5.55-0.51 8.0699-1.75 0.26-0.0601 0.78-0.16 1.04-0.2101 4.96-0.5399 10.06-0.58 14.86-2.11 0.23-0.02 0.6901-0.08 0.92-0.1 3.37 0.26 6.85 0.34 10.1-0.8 1.63-0.08 3.27-0.1499 4.9301-0.25 9.51 0.9501 19.05-0.3099 28.59-0.24 9.78-0.87 19.69 0.1001 29.42-1.45 0.5099-0.05 1.5199-0.15 2.0299-0.2 3.39 0.1699 6.92 0.37 10.16-0.9 0.35-0.02 1.05-0.0601 1.4-0.0801 1.51-0.61 1.6799-1.5599 0.52-2.83 0.1499-0.39 0.45-1.16 0.6-1.55 1.26-2.95 0.0599-6.0699-0.54-8.99 0.04-0.4199 0.1-1.25 0.14-1.6599 1.86 0.26 2.17-2.9301 0.8101-3.7101 0.1-0.4199 0.2999-1.26 0.3999-1.6799 0.78-2.72 1.14-5.54 1.0901-8.34-0.02-8.52 0.24-17.23-2.0901-25.5-1.3199-6.9501-3.0499-13.81-4.87-20.63-0.46-0.2001-1.36-0.5901-1.8099-0.79-0.8101-7.47-4.39-14.63-3.23-22.24-2.42-6.23-5.37-12.44-5.99-19.23 1.84-0.11 1.7699-4.38-0.1101-4.36-0.2599-2.2001-2.86-2.02-4.4299-2.2101 0.34-1.4199-1.33-3.6-2.75-3.5699-0.3101-3.97-1.03-7.91-2.13-11.72 1.13-1.4401 1.3199-5.1901-0.8-5.53-0.0699-0.61-0.21-1.8401-0.2799-2.4601 1.3099-1.3199 1.47-5.1799-0.75-5.38l-0.05-0.83c0.29-3.38 0.42-6.87-0.83-10.07-0.02-0.25-0.0701-0.75-0.0901-1 0.25-3.7001 0.25-7.4501-0.7999-11.02-0.04-1.1-0.0801-2.1801-0.13-3.24 0.4399-10.09-0.4-20.17-0.23-30.26 0.01-3.51 0.26-7.0601-0.55-10.49-0.03-1.72-0.17-3.41-0.28-5.0801 0.36-9.5199 0.48-19.14-0.74-28.59-0.0499-0.6899-0.15-2.0499-0.2-2.73 0.41-11.77-1.9601-23.41-2.0701-35.17 0.01-3.9099-1.24-8.1899 0.87-11.76 8.51 13.13 16.45 26.63 23.46 40.62 4.09 8.7301 8.7899 17.18 12.31 26.17 7.91 18.99 15.7 38.03 22.7 57.37-2.4 2.39-5.17 5.09-5.4301 8.6801 1.6901 4.48 3.6 8.9099 4.66 13.63-3.89 2.63-6.79 6.36-10.07 9.6499-2.2 2.2201-3.6699 5.9601-1.5 8.7101 1.7101 2.34 4.64 0.53 6.77-0.1 0.73-0.5 1.47-0.9701 2.22-1.4401 2.0901-1.4 3.9801-3.0699 5.87-4.72 0.63 3.03 1.3201 6.0599 1.9501 9.1 1.15 5.04 0.51 10.25 0.84 15.38l0.0801-0.5601c0.7599 6.7401 3.0399 13.2 5.33 19.55l0.13-0.52c0.78 5.99 4.41 11.06 5.99 16.83 1.21 7.58-0.42 15.17 0.1799 22.77-0.0299 0.78-0.0699 2.3201-0.09 3.1001-2.28 0.6-1.85 4.62-0.6899 6.2699-0.0701 0.65-0.2101 1.9701-0.28 2.63-2.01 0.02-2.0699 3.4601-0.76 4.54-1.63 4.87-2 10.07-3.5 14.98-1.52 4.92-6.86 8.05-6.91 13.51-2 0.75-1.98 5.4501 0.04 6.24 0.13 5.0801 2.86 9.8301 2.15 14.97 0.0599 0.83 0.1699 2.5 0.23 3.33 2.47-0.21 5-0.49 7.2-1.76 9.4501-2.33 19.06-4.0699 28.34-7.0601 15.13-4.1399 29.85-9.61 45.04-13.51 6.8501-1.77 10.86-8.41 12.8-14.75 1.8099-7.9801 4.39-15.87 5.0599-24.06 1.8401 0.23 2.1101-2.96 0.7001-3.6801l0.22-1.4199c2.09 0.0699 2.24-3.53 0.77-4.49 1.9399-8.77 2.36-18.03 6.39-26.21 3.2899-6.34 6.7999-13 7.15-20.26 1.8394-0.4702 1.8893-5.0302 0.0294-5.4502zm-1395-745.83c0.68-3.18 0.92-6.44 0.89-9.67 0.42-2.79-1.09-7.61 2.28-8.72 1.13 0.03 2.25 0.05 3.38 0.05 1.97 0.05 3.74 1.13 5.28 2.28 1.2 1.21 2.41 2.42 3.61 3.66 4.22 6.17 7.02 13.23 10.42 19.88-0.91-0.26-2.71-0.79-3.61-1.05-2.9-1.01-6-1.05-8.92-0.1-2.39 0.58-4.69 1.47-7.05 2.17-2.21 0.13-4.42 0.14-6.63 0.15-0.01-2.46-0.01-4.91 0.13-7.35 0.06-0.32 0.16-0.97 0.22-1.3zm230.56-945.97c0.27 0.4001 0.81 1.22 1.08 1.6301-1.35 1.0999-2.78 2.0999-4.11 3.23-0.97 0.8599-1.91 1.76-2.85 2.6399 1.89-2.5499 3.87-5.0399 5.88-7.5zm470.94 948.32c0.23-0.72 0.6901-2.16 0.92-2.88 0.8099-1.86 0.6799-3.92 0.03-5.79-0.74-3.02-1.51-6.04-1.9102-9.11 0.5-1.83 1.3301-3.58 2.4301-5.11l0.76-0.26c0.6 5.65 2.49 11.04 3.86 16.53-1.9799 2.26-3.9499 4.52-6.0899 6.62zm17.86-17.75c-0.52-2.63-2.03-5.45-0.7-8.06 1.33-3.46 1.79-7.16 2.1899-10.81 1.37 0.39 2.75 0.82 4.14 1.28 1.4401 0.54 3.01 0.93 4.59 0.67l1.01-0.1c1.46 2.26 2.96 4.5 4.49 6.73-4.5699 4.4-10.14 7.41-15.72 10.29zm636.58 108.58c-1 1.86-1.5699 5.3201-4.48 4.48-1.37-0.23-2.72-0.49-4.0499-0.6599 0.4299-1.2001 0.86-2.39 1.3199-3.5701 2.3901 0.02 4.8001-0.0299 7.21-0.25zm-127.79-376.07c5.09-17.29 9.7999-34.71 15.9-51.69 0.45 0.6399 0.9299 1.2899 1.4299 1.95 0.09 0.45 0.27 1.36 0.36 1.8199 0.2001 5.36 0.88 10.69 1.9601 15.95 0 0.46-0.01 1.3699-0.02 1.83-0.25 1.84 0.14 3.66 0.6899 5.4301l0.22 1.47c0.01 1.58 0.0601 3.23 0.87 4.6599l0.4901 1.05-0.2101 1.26c-0.4199 1.5601-0.09 3.22 0.6901 4.63l0.51 1.11-0.24 1.3101c-0.4501 1.5499 0.1899 3.1 0.6599 4.58l0.23 1.37c-0.0099 1.27 0.27 2.52 0.77 3.71 1.9701 7.96 3.24 16.1 4.86 24.14 0.6101 3.7201 1.7101 7.42 1.49 11.23-0.24 1.55 0.0701 3.11 0.7201 4.56 0.99 2.71 1.5399 5.62 1.2999 8.52-0.26 2.1201-0.37 4.39 0.73 6.34l0.4701 1.03-0.02 0.62c-0.3 3.69 0.17 7.37 0.66 11.03l0.0399 0.93c-0.0499 1.84 0 3.74 0.8201 5.45l0.46 1.17-0.1899 1.28c-0.4 1.56 0.1399 3.13 0.6699 4.61 2.11 8.13 2.9501 16.55 5.09 24.69 3.04 12.43 8.1801 24.18 12.76 36.08 6.39 16.79 14.34 32.91 21.41 49.42 8.99 19.55 19.42 38.38 30.28 56.95 4.2 7.53 8.65 14.96 12.09 22.89 2.14 4.96 4.71 9.72 7.11 14.57 1.3101 2.4901-0.0399 5.28-1.21 7.55-5.28 9.21-8.49 19.4-11.38 29.56-1.26 5.13-0.39 10.43-0.6899 15.65 0.34 9.51-5.05 17.64-8.7401 26-2.45 0.6-4.84 1.37-7.3099 1.76-5.85-10.65-9.6801-22.24-14.65-33.3-5.86-14.51-12.9-28.5-19.47-42.7-6.41-12.74-10.93-26.29-16.75-39.29-4.23-8.34-7.47-17.12-11.26-25.67-3.86-8.8-5.0699-18.57-9.8-27.02-6.36-16.29-16.52-30.63-25.13-45.73 1.0801-1.41 3.39-2.76 2.5701-4.83-2.6901-6.88-6.0701-13.47-8.6901-20.37-2.61-5.19-5.46-10.56-5.72-16.47 0.01-2.16 0.15-4.41-0.6899-6.44-0.9-2.57-2.02-5.08-2.62-7.73 0.1599-3.34 0.2899-6.72-0.6101-9.96l-0.11-0.5 0.05-0.5c1.12-7.87 0.52-15.87 1.79-23.73 2.3699-21.32 9.2199-41.77 15.36-62.23zm2.21-358.31c-2.01-4.8101-1.13-10.01 0.33-14.83 0.9301-3.14 1.8601-6.28 2.55-9.4801-0.53-1.1699-1-2.3398-1.4301-3.5199 0.4901-0.66 1.04-1.29 1.65-1.9 0.3 3.49 1.66 6.72 3.3201 9.77l-0.24 0.55c-3.3599 6.0101-4.68 12.78-6.18 19.41zm40.57 1359.6c-1.6532 1.6929-3.7927 2.74-6.1611 2.8966-0.0098-0.0032-0.0195-0.0065-0.0294-0.0096-0.0403-1.0337-0.1296-3.0909-0.1696-4.1169 0.6801-5.1001 5.3501-7.64 9.5801-9.51 0.4099 1.3899 0.84 2.8099 1.28 4.25-1.5401 2.13-3.0901 4.26-4.5 6.4899z" fill="inherit"/></g></svg>