<?xml version="1.0" encoding="UTF-8"?><svg xmlns="http://www.w3.org/2000/svg" xmlns:xlink="http://www.w3.org/1999/xlink" height="502.9" preserveAspectRatio="xMidYMid meet" version="1.0" viewBox="-15.5 -14.5 501.1 502.9" width="501.1" zoomAndPan="magnify"><defs><clipPath id="a"><path d="M 236 242 L 460 242 L 460 455.210938 L 236 455.210938 Z M 236 242"/></clipPath><clipPath id="b"><path d="M 338 330 L 485.601562 330 L 485.601562 411 L 338 411 Z M 338 330"/></clipPath></defs><g><g id="change1_1"><path d="M 256.488281 159.648438 C 259.46875 198.675781 285.621094 226.492188 336.066406 231.835938 C 378.941406 222.257812 406.164062 188.464844 407.292969 152.847656 L 405.8125 133.445312 C 402.835938 94.417969 364.148438 63.757812 323.394531 65.828125 C 282.652344 67.898438 252.03125 101.21875 255.007812 140.246094 L 256.488281 159.648438" fill="#dd9a97"/></g><g id="change1_2"><path d="M 379.460938 270.742188 C 377.113281 149.695312 374.59375 116.125 374.59375 116.125 L 284.023438 80.488281 C 284.023438 80.488281 257.414062 89.851562 256.117188 140.101562 C 256.117188 140.101562 256.730469 145.324219 246.996094 150.53125 C 237.257812 155.738281 250.933594 164.246094 250.933594 164.246094 C 254.21875 236.917969 308.453125 226.074219 305.378906 227.210938 C 302.300781 228.347656 316.933594 253.6875 298.421875 286.003906 L 379.460938 270.742188" fill="#dd9a97"/></g><g clip-path="url(#a)" id="change2_1"><path d="M 242.09375 342.722656 L 257.273438 297.699219 C 257.273438 297.699219 275.292969 262.039062 294.578125 255.78125 C 371.761719 230.746094 393.628906 248.816406 393.628906 248.816406 C 393.628906 248.816406 421.929688 264.195312 434.792969 295.742188 C 447.65625 327.285156 459.234375 434.054688 459.234375 434.054688 C 459.234375 434.054688 374.847656 481.652344 242.09375 434.054688 C 229.035156 394.164062 242.09375 342.722656 242.09375 342.722656" fill="#f35a71"/></g><g id="change2_2"><path d="M 282.578125 290.925781 C 282.578125 290.925781 305.734375 271.371094 303.371094 253.046875 C 301.007812 234.722656 311.480469 238.40625 311.480469 238.40625 L 357.214844 226.476562 L 373.800781 290.925781 C 373.800781 290.925781 300.085938 311.199219 282.578125 290.925781" fill="#f35a71"/></g><g id="change3_2"><path d="M 226.617188 128.34375 C 215.289062 169.058594 183.25 192.605469 131.789062 186.785156 C 91.078125 166.863281 71.164062 124.832031 77.660156 86.800781 L 83.292969 66.5625 C 94.617188 25.847656 139.769531 2.140625 179.96875 13.613281 C 220.167969 25.085938 243.574219 67.394531 232.246094 108.105469 L 226.617188 128.34375" fill="#735446"/></g><g id="change3_3"><path d="M 157.738281 252.808594 C 146.195312 214.3125 160.125 187.878906 163.386719 188.867188 C 208.277344 202.472656 215.25 175.257812 215.25 175.257812 C 215.25 175.257812 221.8125 148.691406 230.40625 146.59375 C 239 144.496094 239.164062 136.613281 239.164062 136.613281 C 232.925781 124.328125 231.171875 107.699219 231.171875 107.699219 C 240.640625 54.113281 216.101562 38.128906 216.101562 38.128906 L 118.140625 55.296875 C 118.140625 55.296875 104.011719 92.714844 75.75 220.554688 C 75.75 220.554688 75.828125 237.503906 125.996094 252.808594 C 154.265625 259.5 157.738281 252.808594 157.738281 252.808594" fill="#735446"/></g><g clip-path="url(#b)" id="change3_1"><path d="M 342.984375 369.746094 C 342.984375 369.746094 388.148438 362.277344 396.59375 358.539062 C 405.035156 354.800781 415.15625 342.683594 421.265625 340.882812 C 427.375 339.082031 455.628906 330.742188 455.628906 330.742188 C 455.628906 330.742188 464.84375 334.0625 457.882812 338.378906 C 450.921875 342.695312 446.367188 347.171875 446.367188 347.171875 C 446.367188 347.171875 468.996094 352.117188 471.308594 354.339844 C 473.625 356.5625 484.597656 367.019531 484.597656 367.019531 C 484.597656 367.019531 487.476562 371.152344 483.457031 374.414062 C 486.632812 380.949219 481.242188 383.785156 481.242188 383.785156 C 481.242188 383.785156 480.824219 392.207031 476.667969 392.191406 C 479.148438 400.589844 469.574219 400.507812 469.574219 400.507812 C 469.574219 400.507812 442.574219 401.835938 437.609375 403.300781 C 432.644531 404.765625 411.527344 403.527344 405.863281 399.800781 C 400.195312 396.078125 346.671875 410.210938 346.671875 410.210938 C 346.671875 410.210938 331.53125 385.945312 342.984375 369.746094" fill="#735446"/></g><g id="change4_1"><path d="M 225.402344 411.195312 C 225.402344 411.195312 104.128906 488.382812 8.9375 397.046875 C -15.507812 301.855469 17.941406 237.667969 17.941406 237.667969 C 17.941406 237.667969 47.765625 200.285156 65.535156 186.082031 C 83.308594 171.875 171.019531 222.097656 171.019531 222.097656 C 171.019531 222.097656 194.5625 242.683594 211.285156 292.851562 C 228.007812 343.019531 225.402344 411.195312 225.402344 411.195312" fill="#a32948"/></g><g id="change4_2"><path d="M 419.101562 404.46875 C 419.101562 404.46875 279.140625 448.207031 243.121094 449.496094 C 207.105469 450.78125 164.652344 410.902344 164.652344 410.902344 C 164.652344 410.902344 46.304688 328.574219 29.582031 280.976562 C 12.859375 233.378906 45.019531 215.371094 45.019531 215.371094 C 45.019531 215.371094 81.035156 204.863281 126.0625 255.78125 C 171.085938 306.703125 221.644531 366.863281 224.871094 368.453125 C 228.101562 370.039062 235.402344 359.445312 240.546875 368.453125 C 245.695312 377.457031 255.859375 376.167969 255.859375 376.167969 C 255.859375 376.167969 290.917969 362.019531 342.273438 362.019531 C 393.628906 362.019531 400.160156 355.585938 400.160156 355.585938 C 400.160156 355.585938 423.996094 371.023438 419.101562 404.46875" fill="#a32948"/></g><g id="change5_1"><path d="M 340.699219 296.921875 C 340.699219 296.921875 333.433594 352.253906 370.886719 365.726562 C 359.660156 347.40625 369.34375 338.175781 369.34375 338.175781 C 369.34375 338.175781 370.847656 372.09375 404.671875 370.414062 C 438.496094 368.738281 467.796875 352.839844 467.796875 352.839844 C 467.796875 352.839844 479.382812 330.617188 465.203125 292.894531 C 472.515625 302.128906 477.476562 312.765625 477.476562 312.765625 C 477.476562 312.765625 469.617188 275.734375 449.664062 252.488281 C 429.710938 229.246094 422.542969 185.894531 422.722656 171.136719 C 422.902344 156.378906 409.074219 67.085938 352.667969 62.570312 C 299.4375 43.070312 289.144531 65.519531 289.144531 65.519531 C 289.144531 65.519531 250.894531 81.96875 251.679688 113.746094 C 252.464844 145.527344 294.578125 160.058594 294.578125 160.058594 C 294.578125 160.058594 283 152.339844 290.71875 139.476562 C 290.71875 139.476562 312.273438 166.488281 328.507812 169.0625 C 344.746094 171.632812 328.507812 187.660156 328.507812 187.660156 C 328.507812 187.660156 344.375 248.542969 340.699219 296.921875" fill="#4d3236"/></g><g id="change5_2"><path d="M 112.246094 155.445312 C 112.246094 155.445312 99.804688 156.683594 90.980469 154.414062 C 82.152344 152.148438 47.398438 100.539062 86.570312 35.726562 C 86.570312 35.726562 111.722656 -14.523438 183.070312 4.160156 C 254.421875 22.84375 248.660156 72.859375 222 82.40625 L 223.808594 69.554688 C 223.808594 69.554688 187.621094 102.15625 167.953125 106.304688 C 166.875 106.53125 165.847656 106.671875 164.875 106.71875 C 164.875 106.71875 151.550781 94.597656 148.796875 107.675781 C 146.046875 120.75 143.480469 132.449219 155.773438 132.449219 C 168.066406 132.449219 129.707031 155.726562 112.246094 155.445312" fill="#4d3236"/></g><g id="change5_3"><path d="M 214.492188 115.992188 C 219.109375 118.183594 224.65625 117.03125 228.277344 113.476562 C 229.59375 112.1875 227.667969 110.242188 226.332031 111.550781 C 223.683594 114.152344 219.703125 115.398438 216.242188 113.753906 C 214.578125 112.964844 212.816406 115.195312 214.492188 115.992188" fill="#4d3236"/></g><g id="change5_4"><path d="M 259.792969 147.1875 C 262.621094 151.449219 267.964844 153.324219 272.902344 152.144531 C 274.695312 151.722656 274.046875 149.0625 272.230469 149.496094 C 268.617188 150.355469 264.566406 149.367188 262.449219 146.175781 C 261.433594 144.640625 258.773438 145.640625 259.792969 147.1875" fill="#4d3236"/></g></g></svg>