<?xml version="1.0" encoding="UTF-8"?><svg xmlns="http://www.w3.org/2000/svg" xmlns:xlink="http://www.w3.org/1999/xlink" height="1137.2" preserveAspectRatio="xMidYMid meet" version="1.0" viewBox="0.0 -0.0 871.0 1137.2" width="871.0" zoomAndPan="magnify"><g id="change1_1"><path d="m-3120.1-1878.6c-8.485 0.052-17.863 0.8203-21.84 2.0645-2.578 0.8068-6.6548 2.7155-9.0585 4.2402l-4.3692 2.7715-3.1308-2.373c-4.7076-3.5681-10.22-5.8755-14.094-5.8985-3.95-0.023-16.5 6.0485-20.578 9.9551-3.2237 3.0885-6.1806 9.9455-7.9766 18.494-1.5482 7.3693-1.1908 11.775 1.5332 18.875 0.9891 2.5781 2.5292 6.7448 3.4238 9.2597 2.2231 6.2504 7.7083 10.355 12.766 9.5547 1.9336-0.306 3.545-0.2347 3.584 0.1582 0.038 0.3928 0.1443 6.4102 0.2363 13.371 0.1937 14.749 0.5251 15.727 10.412 30.77 7.3547 11.19 9.906 18.639 10.172 29.699 0.2261 9.3997-1.6345 13.545-13.096 29.168-4.4275 6.0352-11.661 16.496-16.072 23.246-4.4118 6.7502-12.838 18.812-18.725 26.805-14.211 19.293-17.244 25.304-17.797 35.277-0.2963 5.3455 0.1583 10.665 1.5215 17.812 1.0691 5.605 2.4179 14.621 2.998 20.035 0.9658 9.0118 1.7341 12.016 5.8458 22.875 1.963 5.1844 0.8816 7.9165-4.877 12.316-5.7029 4.3574-7.2598 6.8911-8.5605 13.928-0.7983 4.3182-0.6534 5.7523 1.0039 9.9571 1.6352 4.1484 1.7686 5.4168 0.8652 8.1543-0.9733 2.9491-0.8544 3.4673 1.3184 5.7402 1.3135 1.3742 2.8138 4.3965 3.332 6.7168 1.8708 8.3776 8.2555 11.027 22.773 9.4473 5.1034-0.5552 9.6236-1.0098 10.045-1.0098s1.0488 3.0586 1.3946 6.7969c0.3458 3.7382 1.2589 13.336 2.0293 21.328 3.9433 40.909 0.3119 61.731-16.027 91.904-11.506 21.248-13.052 26.051-15.336 47.639-1.4024 13.255-2.4527 19.253-4.0391 23.084-4.1381 9.9918-20.251 27.345-86.455 93.1-35.16 34.921-65.331 65.268-67.045 67.439s-29.004 29.316-60.644 60.32c-31.641 31.004-57.529 56.752-57.529 57.217 0 1.1681 25.209 28.876 30.18 33.172 2.2214 1.9196 18.858 13.344 36.969 25.387s33.193 22.585 33.516 23.426c0.9717 2.5323 0.6951 4.54-1.8203 13.223-4.7625 16.438-11.827 30.754-19.471 39.459l-2.8066 3.1973 3.2559 3.2539 3.2539 3.2559 16.207-23.049c12.452-17.708 16.484-22.817 17.402-22.055 0.6576 0.5459 2.6185 3.8335 4.3575 7.3066 2.7346 5.4618 3.1501 7.2008 3.0761 12.877-0.047 3.6094-0.8711 10.781-1.83 15.938-0.9624 5.1747-1.7603 13.785-1.7813 19.219-0.033 8.441 0.2706 10.47 2.1289 14.242 5.9733 12.127 40.173 36.383 51.299 36.383 5.1865 0 7.0032-1.7846 6.9922-6.8633-0.01-4.2589-1.8888-7.8701-10.805-20.75-7.8321-11.314-7.7996-10.992-3.4394-33.17 2.4428-12.425 4.296-19.617 5.3535-20.785 2.881-3.1832 8.3074-3.2001 22.314-0.068 19.681 4.4005 31.646 3.8365 37.666-1.7754 1.0383-0.968 4.1127-2.6328 6.8301-3.6992 12.663-4.9699 22.907-11.506 32.558-20.774l6.5626-6.3007 9.375 0.9218c14.25 1.4033 42.875-0.4176 55.203-3.5117l2.332-0.5859-3.3125 10.635c-5.6797 18.234-9.536 27.728-20.502 50.477-11.052 22.926-13.569 29.616-13.559 36.029 0.01 4.1237-0.3414 3.7981 10.592 9.9199l4.5039 2.5215-3.0977 4.043c-4.1314 5.3908-10.809 9.8398-18.418 12.272-5.2533 1.6789-9.7305 2.1095-28.273 2.7226-22.048 0.7289-30.287 1.9045-36.727 5.2344-3.4611 1.7897-4.5234 4.035-4.5234 9.5683 0 8.2953 4.8904 11.384 26.385 16.662 23.848 5.8555 42.324 8.8672 68.322 11.139 16.409 1.4338 21.914 2.8071 46.856 11.695 5.9297 2.1131 11.608 3.7314 12.617 3.5957 1.6153-0.217 2.4247-3.1091 6.7676-24.152 3.2-15.505 4.7564-25.107 4.4277-27.324l-0.5078-3.4199 4.7519-0.6524c4.0746-0.5604 5.2728-1.2473 8.4161-4.8183 6.6465-7.5508 15.919-24.982 33.402-62.797 11.202-24.229 28.61-58.759 35.717-70.846l5.3359-9.0762 7.1661 10.959c3.9418 6.027 11.068 16.398 15.836 23.047 9.9141 13.827 16.128 25.873 18.861 36.562 2.225 8.7004 2.323 13.038 0.4707 20.709-1.7924 7.4231-1.7457 14.868 0.1153 18.467 0.8264 1.5981 4.165 5.7397 7.4179 9.2032 8.8954 9.4713 11.835 16.628 13.096 31.861 0.9026 10.91 1.1639 11.679 4.3535 12.883l2.8653 1.082-0.5996-5.3418c-0.9295-8.2652-2.1622-30.6-1.7168-31.109 0.2188-0.2501 1.2006 0.5937 2.1816 1.875 3.6104 4.7157 7.3185 12.869 9.7656 21.475 5.3458 18.8 10.121 23.712 27.32 28.102 19.358 4.9399 38.867 6.2104 45.953 2.9922 8.0646-3.6622 5.7921-9.9835-8.1758-22.748-9.3694-8.5622-21.357-22.836-25.883-30.818-1.5933-2.8101-5.7129-13.336-9.1543-23.391-8.2504-24.106-12.257-32.332-25.453-52.244-11.443-17.268-22.178-36.913-25.498-46.662-5.223-15.339-11.522-36.614-13.324-45-1.1084-5.1563-2.8444-11.313-3.8555-13.682l-1.8379-4.3066 12.15-20.211c6.6822-11.116 14.286-23.378 16.898-27.25 5.6194-8.3276 14.954-18.67 16.172-17.918 1.9163 1.1844 5.6703 10.342 9.8262 23.963 9.3356 30.598 17.051 45.239 35.455 67.287 4.4587 5.3415 11.61 15.631 15.938 22.934 4.3174 7.2853 10.053 16.199 12.744 19.808 9.0003 12.07 21.657 31.502 34.443 52.877 18.041 30.16 36.778 58.335 40.869 61.455 1.8771 1.4316 6.7307 3.5674 10.785 4.7461 10.719 3.1164 12.728 4.3773 14.439 9.0722 2.2169 6.0813 3.2982 10.013 4.4922 16.322 0.9222 4.8723 0.8596 6.1528-0.4179 8.6231-2.9908 5.7836-9.8863 9.5851-29.531 16.281-7.5287 2.5661-15.016 5.4866-16.637 6.4883-5.3932 3.3329-8.3715 13.868-5.582 19.746 2.8072 5.9158 2.7241 5.9011 35.717 6.4512 59.428 0.9907 57.282 1.0101 61.949-0.5743 2.3976-0.814 8.0027-3.7369 12.455-6.4961 4.4525-2.7594 9.2062-5.2907 10.562-5.625 2.2595-0.5569 2.5738-0.2686 3.75 3.4493l1.2833 4.0585 8.9062 0.754c18.291 1.5488 29.945-0.8149 33.594-6.8145 1.1078-1.822 1.9885-5.6078 2.3613-10.143 4.4407-54.024 3.2503-59.38-20.572-92.547-18.67-25.993-23.455-33.313-30.576-46.773-10.392-19.642-19.788-31.511-29.74-37.566-7.8841-4.7971-9.6742-7.2239-16.967-23.004-10.85-23.477-21.637-43.132-33.801-61.588-7.2427-10.989-9.1599-15.617-13.559-32.746-3.8809-15.113-6.2933-20.678-13.693-31.574-3.1735-4.6727-6.3384-10.385-7.0332-12.693-0.8922-2.9643-1.2637-10.194-1.2637-24.611 0-18.29-0.2942-22.203-2.8281-37.586-3.138-19.05-4.3256-32.935-3.3633-39.352 0.5947-3.9657 0.9288-4.3678 5.2578-6.3242 2.5422-1.1489 5.736-3.413 7.0977-5.0313 2.3876-2.8374 2.459-3.2615 2.0058-11.891-0.7245-13.797-5.9268-46.623-10.109-63.791-7.5851-31.134-12.214-45.583-23.877-74.531-15.848-39.335-18.61-52.2-14.816-68.998 1.4727-6.5214 1.4603-7.5274-0.2344-19.1-1.0316-7.0444-1.7796-17.176-1.7676-23.934 0.02-10.764 0.2668-12.409 3.0235-20.197 4.7654-13.463 5.1311-18.476 3.9629-54.334-0.59-18.107-1.6077-35.137-2.3555-39.426-3.0648-17.577-14.645-39.941-32.254-62.293-3.4528-4.3828-7.0821-9.2344-8.0645-10.781-0.9824-1.5468-4.0103-5.8006-6.7285-9.4531-15.995-21.493-23.298-42.715-24.332-70.703-0.4488-12.146-0.3517-13.025 2.3926-21.801 5.2025-16.635 6.0777-35.062 2.4785-52.172-1.7331-8.2386-6.6385-15.764-15.502-23.785-14.036-12.702-29.878-16.63-67.955-16.848-22.531-0.129-34.773 3.0171-41.127 10.568-3.2041 3.8077-3.3603 10.272-0.3945 16.377 1.8284 3.7632 1.9332 4.6222 0.8867 7.2911-0.6525 1.6639-1.5573 7.8769-2.0098 13.807-0.4526 5.9297-1.1129 13.138-1.4668 16.02-0.577 4.7-0.3481 5.7955 2.2149 10.662 2.1256 4.0373 2.6503 5.9339 2.0527 7.418-1.3169 3.2701-5.2648 12.84-7.873 19.084-3.8121 9.1264-3.469 10.819 2.9511 14.564l5.3906 3.1465 0.2774 5.211c0.2168 4.07 0.7713 5.6749 2.5312 7.3281 1.7279 1.6233 2.1271 2.7439 1.7149 4.8047-0.4089 2.0446 0.1084 3.5297 2.1582 6.209 2.4916 3.2573 2.6933 4.1353 2.6933 11.693 0 7.2452 0.2415 8.4145 2.129 10.307 1.6293 1.6334 3.1694 2.1246 6.5625 2.0996 3.6967-0.028 25.374-4.3762 32.793-6.5782 1.9856-0.5894 2.1088-0.3573 2.0938 3.9376-0.026 7.1927-2.4866 17.104-6.0352 24.316-2.5137 5.109-5.5795 8.9783-13.371 16.875-10.557 10.699-14.166 16.326-16.266 25.355-1.2168 5.2342-1.4613 21.784-0.4336 29.422l0.6953 5.1563-2.8144-3.8418c-3.3921-4.6304-8.083-8.491-19.885-16.363-4.8984-3.2674-10.906-7.8105-13.352-10.098-5.1888-4.8534-15.174-17.743-25.545-32.978-8.8073-12.938-12.312-16.818-19.613-21.711-3.0472-2.0422-7.7479-5.6002-10.447-7.9063-5.1521-4.4017-5.3096-4.7768-6.5821-15.715-0.6374-5.4773-0.6356-5.4859 1.4727-4.3575 4.9368 2.6421 15.681 5.627 20.256 5.627 6.7443 0 8.8105-2.5319 8.8105-10.795 0-5.6365 0.1051-5.8972 2.8477-7.0332 3.6923-1.5295 4.9865-4.0754 4.289-8.4375-0.402-2.5136-0.163-3.8471 0.8379-4.6778 0.9446-0.784 1.4004-2.9154 1.4004-6.5566 0-5.6528 0.6582-6.7711 4.6875-7.9648 3.4763-1.03 5.625-3.281 5.625-5.8926 0-1.2742-1.4482-5.9556-3.2187-10.402-4.823-12.113-4.8594-12.515-1.2969-14.178 1.6571-0.7734 3.1936-1.9927 3.416-2.709 0.2767-0.8907 0-1.061-0.8887-0.541-0.7114 0.4182-0.4491-0.2278 0.582-1.4336l1.875-2.1914-3.0175 1.748c-3.4084 1.9737-5.0505 1.2901-2.8711-1.1953 4.3298-4.9376 4.6364-6.9186 4.0039-25.859-0.6175-18.489-1.1644-21.58-4.6777-26.412-1.1247-1.5468-2.3064-4.4522-2.625-6.4551-0.7663-4.8174-6.6101-13.542-12.104-18.074-10.215-8.4271-24.406-15.262-35.797-17.242-3.0876-0.5367-7.8563-0.7638-12.947-0.7325zm82.604 404.98c3.2911 0.2294 26.174 5.6984 30.584 7.375 1.9629 0.7463 2.0326 1.3688 2.623 23.582 0.3336 12.548 1.0945 28.088 1.6914 34.533 1.6446 17.757 1.3874 48.832-0.5234 63.281-2.6162 19.783-6.8648 43.578-9.0391 50.625-2.3758 7.6993-4.9774 13.099-11.394 23.637-2.5789 4.235-5.6532 10.352-6.832 13.594l-2.1445 5.8946-0.5899-3.2813c-0.8247-4.5844-10.474-65.436-11.795-74.387-0.5972-4.0452-2.5696-13.116-4.3848-20.156-1.8151-7.0407-3.7274-14.91-4.25-17.488-1.9927-9.8316 0.7928-37.692 6.8906-68.906 3.5136-17.986 7.9845-37.482 8.7774-38.275 0.034-0.034 0.1673-0.043 0.3867-0.027z" fill="inherit" transform="translate(3492.1 1878.6)"/></g></svg>