<?xml version="1.0" encoding="UTF-8"?><svg xmlns="http://www.w3.org/2000/svg" xmlns:xlink="http://www.w3.org/1999/xlink" height="195.2" preserveAspectRatio="xMidYMid meet" version="1.0" viewBox="66.9 117.3 290.8 195.2" width="290.8" zoomAndPan="magnify"><g><g id="change1_1"><path d="M 282.144531 141.570312 C 244.480469 124.109375 199.839844 126.644531 161.332031 139.96875 C 122.804688 153.300781 88.667969 182.191406 75.441406 209.460938 C 66.878906 227.113281 83.449219 228.894531 92.605469 226.71875 C 117.003906 220.914062 141.023438 214.441406 166.339844 215.679688 C 188.285156 216.75 210.628906 219.933594 231.695312 226.292969 C 246.660156 230.808594 263.75 235.246094 276.542969 244.605469 C 283.691406 249.839844 288.367188 257.199219 288.992188 266.140625 C 289.40625 272.019531 288.3125 277.933594 286.667969 283.554688 C 285.140625 288.78125 280.949219 295.226562 283.902344 300.636719 C 290.347656 312.445312 309.664062 303.410156 316.9375 297.605469 C 327.933594 288.832031 336.015625 275.964844 340.621094 262.785156 C 357.683594 213.964844 326.65625 162.207031 282.144531 141.570312" fill="#eab14c"/></g><g id="change1_2"><path d="M 336.503906 189.585938 C 309.359375 139.601562 253.28125 121.207031 199.121094 128.375 C 182.273438 130.609375 165.742188 135.117188 150.023438 141.558594 C 137.542969 146.675781 121.476562 154.878906 114.679688 167.277344 C 107.625 180.148438 108.433594 196.203125 115.972656 208.71875 C 119.582031 214.714844 125.132812 218.851562 132.03125 220.210938 C 135.1875 220.824219 139.855469 219.15625 143.085938 218.796875 C 147.441406 218.316406 151.820312 218.019531 156.203125 217.953125 C 183.339844 217.550781 211.585938 222.335938 237.335938 230.753906 C 254.890625 236.492188 283.992188 242.683594 286.402344 265.195312 C 286.640625 267.417969 286.625 269.664062 286.433594 271.890625 C 286.214844 274.453125 289.710938 275.605469 291.054688 273.410156 C 294.769531 267.347656 303.5625 267.332031 309.710938 268.546875 C 316.757812 269.933594 323.191406 274.386719 326.9375 280.546875 C 327.976562 282.253906 329.019531 286.109375 331.832031 284.628906 C 334.328125 283.316406 336.304688 278.246094 337.59375 275.847656 C 352.0625 248.953125 350.609375 216.304688 336.503906 189.585938 C 314.511719 149.09375 351.96875 218.882812 336.503906 189.585938" fill="#eab14c"/></g><g id="change2_1"><path d="M 336.503906 189.585938 C 309.359375 139.601562 253.28125 121.207031 199.121094 128.375 C 182.273438 130.609375 165.742188 135.117188 150.023438 141.558594 C 137.542969 146.675781 121.476562 154.878906 114.679688 167.277344 C 107.625 180.148438 108.433594 196.203125 115.972656 208.71875 C 119.582031 214.714844 125.132812 218.851562 132.03125 220.210938 C 135.1875 220.824219 139.855469 219.15625 143.085938 218.796875 C 147.441406 218.316406 151.820312 218.019531 156.203125 217.953125 C 183.339844 217.550781 211.585938 222.335938 237.335938 230.753906 C 254.890625 236.492188 283.992188 242.683594 286.402344 265.195312 C 286.640625 267.417969 286.625 269.664062 286.433594 271.890625 C 286.214844 274.453125 289.710938 275.605469 291.054688 273.410156 C 294.769531 267.347656 303.5625 267.332031 309.710938 268.546875 C 316.757812 269.933594 323.191406 274.386719 326.9375 280.546875 C 327.976562 282.253906 329.019531 286.109375 331.832031 284.628906 C 334.328125 283.316406 336.304688 278.246094 337.59375 275.847656 C 352.0625 248.953125 350.609375 216.304688 336.503906 189.585938 C 314.511719 149.09375 351.96875 218.882812 336.503906 189.585938" fill="#e9a44b"/></g><g id="change3_1"><path d="M 352.042969 226.273438 C 347.089844 168.988281 295.976562 129.292969 241.613281 123.296875 C 225.601562 121.53125 209.339844 122.117188 193.445312 124.660156 C 184.898438 126.027344 176.445312 127.96875 168.148438 130.429688 C 162.683594 132.050781 159.210938 134.8125 155.511719 139.066406 C 139.378906 157.605469 139.855469 189.394531 151.417969 210.140625 C 153.347656 213.605469 155.816406 216.816406 158.957031 219.269531 C 163.617188 222.910156 168.25 222.730469 173.953125 223.179688 C 185.0625 224.058594 196.136719 225.539062 207.089844 227.609375 C 217.390625 229.5625 227.433594 232.210938 237.382812 235.503906 C 248.699219 239.199219 260.898438 242.527344 270.933594 249.164062 C 273.984375 251.179688 277.855469 256.730469 281.898438 254.117188 C 286.269531 251.292969 281.59375 244.714844 284.171875 240.460938 C 287.992188 234.160156 296.84375 231.527344 303.464844 229.796875 C 313.453125 227.1875 324.730469 224.753906 335.125 225.707031 C 338.074219 225.976562 341.625 226.621094 343.542969 229.136719 C 346.34375 232.8125 353.023438 231.757812 352.042969 226.273438 C 350.882812 212.871094 352.089844 226.535156 352.042969 226.273438" fill="#e8974a"/></g><g id="change4_1"><path d="M 304.664062 142.226562 C 280.113281 125.375 250.324219 118.410156 220.804688 118.808594 C 209.613281 118.960938 196.445312 127.703125 188.773438 135.21875 C 179.246094 144.558594 173.484375 156.910156 171.707031 170.078125 C 169.410156 187.101562 173.648438 204.160156 181.089844 219.441406 C 182.257812 221.835938 183.4375 225.515625 185.550781 227.28125 C 188.160156 229.464844 193.28125 230.273438 196.496094 231.269531 C 204.082031 233.613281 211.855469 235.359375 219.761719 236.140625 C 223.214844 236.484375 226.683594 236.648438 230.152344 236.648438 C 234.738281 236.648438 233.3125 231.886719 232.667969 229.238281 C 230.847656 221.777344 230.742188 213.628906 231.578125 206.027344 C 233.058594 192.59375 239.542969 178.554688 248.046875 168.113281 C 255.238281 159.285156 264.5625 154.019531 275.507812 151.148438 C 282.320312 149.359375 289.375 148.550781 296.414062 148.550781 C 298.75 148.550781 302.039062 149.433594 304.273438 148.503906 C 306.914062 147.40625 307.117188 143.636719 304.664062 142.226562 C 282.011719 126.675781 305.714844 142.832031 304.664062 142.226562" fill="#e88a4a"/></g><g id="change5_1"><path d="M 115.972656 208.71875 L 117.257812 207.945312 C 113.359375 201.476562 111.324219 194.015625 111.324219 186.585938 C 111.324219 180.144531 112.847656 173.738281 115.992188 168 C 116.816406 166.496094 117.792969 165.050781 118.894531 163.660156 C 119.355469 163.074219 119.316406 162.234375 118.800781 161.695312 C 118.285156 161.152344 117.449219 161.074219 116.84375 161.511719 C 97.515625 175.378906 82.113281 192.285156 74.089844 208.808594 C 72.355469 212.386719 71.558594 215.429688 71.558594 218.066406 C 71.554688 220.074219 72.039062 221.839844 72.914062 223.296875 C 73.566406 224.390625 74.429688 225.300781 75.414062 226.035156 C 76.894531 227.136719 78.636719 227.855469 80.480469 228.3125 C 82.320312 228.765625 84.269531 228.953125 86.183594 228.953125 C 88.574219 228.953125 90.917969 228.660156 92.953125 228.175781 C 104.636719 225.398438 116.199219 222.484375 127.816406 220.332031 C 128.472656 220.210938 128.96875 219.675781 129.035156 219.011719 C 129.105469 218.347656 128.730469 217.722656 128.117188 217.46875 C 123.59375 215.605469 119.898438 212.328125 117.257812 207.945312 L 114.6875 209.492188 C 117.621094 214.371094 121.828125 218.128906 126.972656 220.242188 L 127.542969 218.855469 L 127.269531 217.382812 C 115.527344 219.558594 103.917969 222.484375 92.261719 225.257812 C 90.464844 225.683594 88.324219 225.953125 86.183594 225.953125 C 83.128906 225.960938 80.078125 225.390625 77.960938 224.128906 C 76.898438 223.503906 76.066406 222.722656 75.488281 221.757812 C 74.910156 220.785156 74.558594 219.605469 74.558594 218.066406 C 74.554688 216.050781 75.1875 213.417969 76.789062 210.117188 C 84.492188 194.21875 99.585938 177.570312 118.589844 163.949219 L 117.714844 162.730469 L 116.539062 161.800781 C 115.347656 163.308594 114.277344 164.890625 113.363281 166.558594 C 109.960938 172.765625 108.324219 179.675781 108.324219 186.585938 C 108.324219 194.5625 110.503906 202.546875 114.6875 209.492188 L 115.972656 208.71875" fill="#332519"/></g><g id="change5_2"><path d="M 326.9375 280.546875 L 328.21875 279.769531 C 324.238281 273.234375 317.472656 268.554688 310.003906 267.074219 C 308.027344 266.683594 305.792969 266.414062 303.503906 266.414062 C 300.933594 266.417969 298.289062 266.753906 295.871094 267.691406 C 293.457031 268.625 291.253906 270.210938 289.777344 272.628906 C 289.664062 272.808594 289.554688 272.898438 289.433594 272.964844 C 289.3125 273.027344 289.167969 273.0625 289 273.066406 L 288.839844 273.054688 C 288.023438 272.949219 287.277344 273.519531 287.164062 274.335938 C 286.757812 277.300781 286.074219 280.25 285.226562 283.132812 C 284.699219 284.953125 283.761719 287.070312 282.933594 289.316406 C 282.109375 291.5625 281.378906 293.949219 281.371094 296.429688 C 281.371094 298.070312 281.714844 299.765625 282.585938 301.355469 C 283.867188 303.714844 285.679688 305.402344 287.765625 306.445312 C 289.855469 307.492188 292.191406 307.910156 294.585938 307.910156 C 298.90625 307.902344 303.480469 306.566406 307.609375 304.785156 C 311.734375 302.992188 315.402344 300.746094 317.871094 298.777344 C 322.675781 294.945312 326.910156 290.363281 330.5625 285.34375 C 331.027344 284.699219 330.914062 283.808594 330.304688 283.304688 C 330.035156 283.09375 329.648438 282.539062 329.304688 281.867188 C 328.949219 281.199219 328.628906 280.449219 328.21875 279.769531 L 326.9375 280.546875 L 325.65625 281.328125 C 325.902344 281.722656 326.238281 282.476562 326.648438 283.265625 C 327.074219 284.054688 327.5625 284.917969 328.394531 285.617188 L 329.351562 284.460938 L 328.136719 283.578125 C 324.625 288.410156 320.566406 292.792969 316.003906 296.433594 C 313.792969 298.199219 310.289062 300.355469 306.414062 302.03125 C 302.539062 303.714844 298.277344 304.914062 294.585938 304.910156 C 292.535156 304.910156 290.679688 304.546875 289.113281 303.761719 C 287.546875 302.972656 286.238281 301.773438 285.21875 299.917969 C 284.617188 298.808594 284.375 297.671875 284.375 296.429688 C 284.367188 294.5625 284.960938 292.476562 285.746094 290.351562 C 286.527344 288.226562 287.488281 286.078125 288.105469 283.976562 C 288.984375 280.984375 289.703125 277.890625 290.136719 274.746094 L 288.652344 274.542969 L 288.464844 276.03125 C 288.636719 276.050781 288.816406 276.066406 289 276.066406 C 289.613281 276.066406 290.25 275.925781 290.839844 275.613281 C 291.425781 275.304688 291.957031 274.816406 292.335938 274.195312 C 293.429688 272.414062 295.011719 271.25 296.960938 270.488281 C 298.902344 269.726562 301.199219 269.414062 303.503906 269.414062 C 305.554688 269.414062 307.609375 269.660156 309.421875 270.015625 C 316.042969 271.316406 322.144531 275.539062 325.65625 281.328125 L 326.9375 280.546875" fill="#332519"/></g><g id="change5_3"><path d="M 151.417969 210.140625 L 152.726562 209.410156 C 147.46875 199.980469 144.535156 188.113281 144.539062 176.332031 C 144.535156 163.101562 148.226562 150.027344 156.238281 140.539062 C 156.679688 140.015625 156.710938 139.265625 156.316406 138.707031 C 155.921875 138.148438 155.199219 137.929688 154.558594 138.171875 C 152.855469 138.816406 151.152344 139.476562 149.457031 140.171875 C 143.96875 142.421875 137.777344 145.269531 131.9375 148.824219 C 126.101562 152.386719 120.605469 156.652344 116.539062 161.800781 C 115.347656 163.308594 114.277344 164.890625 113.363281 166.558594 C 109.960938 172.765625 108.324219 179.675781 108.324219 186.585938 C 108.324219 194.5625 110.503906 202.546875 114.6875 209.492188 C 117.621094 214.371094 121.828125 218.128906 126.972656 220.242188 C 128.480469 220.863281 130.074219 221.355469 131.742188 221.683594 L 131.746094 221.683594 C 132.347656 221.800781 132.957031 221.847656 133.574219 221.847656 C 135.28125 221.84375 137.050781 221.503906 138.738281 221.152344 C 140.421875 220.796875 142.023438 220.421875 143.25 220.289062 C 147.5625 219.8125 151.894531 219.515625 156.226562 219.453125 C 156.371094 219.449219 156.523438 219.449219 156.675781 219.449219 C 156.804688 219.449219 156.933594 219.449219 157.058594 219.449219 C 157.183594 219.449219 157.304688 219.449219 157.429688 219.449219 C 158.042969 219.445312 158.597656 219.066406 158.820312 218.492188 C 159.042969 217.917969 158.894531 217.265625 158.441406 216.847656 C 156.160156 214.738281 154.269531 212.175781 152.726562 209.410156 L 151.417969 210.140625 L 150.105469 210.871094 C 151.773438 213.855469 153.84375 216.679688 156.402344 219.050781 L 157.421875 217.949219 L 157.414062 216.449219 C 157.296875 216.449219 157.179688 216.449219 157.058594 216.449219 C 156.933594 216.449219 156.804688 216.449219 156.675781 216.449219 C 156.511719 216.449219 156.347656 216.449219 156.179688 216.453125 C 151.742188 216.519531 147.316406 216.820312 142.921875 217.308594 C 141.40625 217.476562 139.761719 217.875 138.121094 218.21875 C 136.488281 218.5625 134.871094 218.847656 133.574219 218.847656 C 133.105469 218.847656 132.683594 218.808594 132.320312 218.738281 L 132.324219 218.738281 C 130.851562 218.449219 129.453125 218.019531 128.117188 217.46875 C 123.59375 215.605469 119.898438 212.328125 117.257812 207.945312 C 113.359375 201.476562 111.324219 194.015625 111.324219 186.585938 C 111.324219 180.148438 112.847656 173.738281 115.992188 168 C 116.816406 166.496094 117.792969 165.050781 118.894531 163.660156 C 122.636719 158.910156 127.855469 154.824219 133.496094 151.386719 C 139.140625 147.949219 145.195312 145.160156 150.59375 142.945312 C 152.253906 142.269531 153.933594 141.617188 155.625 140.976562 L 155.09375 139.574219 L 153.945312 138.605469 C 145.355469 148.800781 141.539062 162.5625 141.539062 176.332031 C 141.539062 188.605469 144.566406 200.921875 150.105469 210.871094 L 151.417969 210.140625" fill="#332519"/></g><g id="change5_4"><path d="M 343.542969 229.136719 L 344.734375 228.230469 C 343.535156 226.65625 341.875 225.726562 340.203125 225.160156 C 338.523438 224.589844 336.789062 224.355469 335.261719 224.214844 C 333.632812 224.066406 331.988281 223.996094 330.339844 223.996094 C 321.105469 224 311.601562 226.125 303.085938 228.347656 C 299.753906 229.21875 295.800781 230.324219 292.128906 232.058594 C 288.464844 233.792969 285.03125 236.167969 282.890625 239.683594 C 282.058594 241.058594 281.839844 242.554688 281.839844 243.945312 C 281.839844 245.066406 281.976562 246.148438 282.101562 247.164062 C 282.230469 248.175781 282.34375 249.121094 282.34375 249.925781 C 282.34375 250.585938 282.265625 251.136719 282.109375 251.566406 C 281.945312 252 281.730469 252.328125 281.320312 252.660156 C 280.710938 253.148438 280.578125 254.019531 281.015625 254.671875 C 283.085938 257.742188 284.464844 261.234375 284.910156 265.355469 C 285.023438 266.429688 285.078125 267.519531 285.078125 268.609375 C 285.078125 269.65625 285.027344 270.710938 284.9375 271.765625 C 284.929688 271.878906 284.921875 272 284.921875 272.121094 C 284.917969 273.199219 285.371094 274.175781 286.035156 274.835938 C 286.699219 275.507812 287.554688 275.90625 288.453125 276.027344 L 288.457031 276.027344 C 288.640625 276.054688 288.820312 276.0625 289 276.0625 C 289.613281 276.066406 290.25 275.925781 290.839844 275.613281 C 291.425781 275.304688 291.957031 274.816406 292.335938 274.195312 C 293.429688 272.414062 295.011719 271.25 296.960938 270.488281 C 298.902344 269.726562 301.199219 269.414062 303.503906 269.414062 C 305.554688 269.414062 307.609375 269.660156 309.421875 270.015625 C 316.042969 271.316406 322.144531 275.539062 325.65625 281.328125 C 325.902344 281.722656 326.238281 282.476562 326.648438 283.265625 C 327.074219 284.054688 327.5625 284.917969 328.394531 285.617188 C 328.953125 286.085938 329.75 286.464844 330.640625 286.460938 C 331.285156 286.460938 331.925781 286.273438 332.527344 285.957031 C 333.433594 285.476562 334.140625 284.769531 334.777344 283.976562 C 335.722656 282.785156 336.511719 281.363281 337.199219 280.015625 C 337.882812 278.671875 338.46875 277.382812 338.914062 276.558594 C 345.953125 263.480469 349.273438 249.070312 349.273438 234.640625 C 349.273438 233.503906 349.253906 232.371094 349.214844 231.238281 C 349.183594 230.457031 348.558594 229.824219 347.777344 229.792969 C 346.65625 229.746094 345.480469 229.214844 344.734375 228.230469 L 343.542969 229.136719 L 342.347656 230.046875 C 343.699219 231.8125 345.710938 232.707031 347.652344 232.789062 L 347.714844 231.292969 L 346.214844 231.347656 C 346.253906 232.441406 346.273438 233.542969 346.273438 234.640625 C 346.273438 248.609375 343.058594 262.523438 336.273438 275.136719 C 335.578125 276.433594 334.78125 278.261719 333.855469 279.914062 C 333.398438 280.734375 332.910156 281.503906 332.433594 282.105469 C 331.953125 282.707031 331.480469 283.125 331.132812 283.300781 C 330.859375 283.441406 330.714844 283.460938 330.640625 283.460938 C 330.550781 283.453125 330.496094 283.449219 330.304688 283.304688 C 330.035156 283.09375 329.648438 282.539062 329.304688 281.867188 C 328.949219 281.199219 328.628906 280.449219 328.21875 279.769531 C 324.238281 273.234375 317.472656 268.554688 310.003906 267.074219 C 308.027344 266.683594 305.792969 266.414062 303.503906 266.414062 C 300.933594 266.414062 298.289062 266.753906 295.871094 267.691406 C 293.457031 268.625 291.253906 270.210938 289.777344 272.628906 C 289.664062 272.808594 289.554688 272.898438 289.433594 272.964844 C 289.3125 273.027344 289.167969 273.0625 289 273.0625 L 288.847656 273.054688 C 288.589844 273.023438 288.324219 272.890625 288.167969 272.726562 C 288.007812 272.558594 287.929688 272.398438 287.921875 272.121094 L 287.925781 272.019531 C 288.023438 270.890625 288.078125 269.75 288.078125 268.609375 C 288.078125 267.421875 288.019531 266.226562 287.894531 265.035156 C 287.402344 260.425781 285.824219 256.425781 283.503906 252.992188 L 282.257812 253.832031 L 283.195312 255.003906 C 284.03125 254.339844 284.609375 253.484375 284.925781 252.59375 C 285.25 251.707031 285.34375 250.800781 285.34375 249.925781 C 285.34375 248.855469 285.203125 247.804688 285.078125 246.792969 C 284.953125 245.78125 284.839844 244.8125 284.839844 243.945312 C 284.839844 242.851562 285.011719 241.96875 285.453125 241.238281 C 287.136719 238.457031 290.035156 236.363281 293.410156 234.773438 C 296.773438 233.179688 300.558594 232.105469 303.84375 231.25 C 312.277344 229.042969 321.566406 226.992188 330.339844 226.996094 C 331.90625 226.996094 333.460938 227.0625 334.988281 227.203125 C 336.40625 227.328125 337.925781 227.550781 339.238281 228 C 340.554688 228.449219 341.632812 229.101562 342.347656 230.046875 L 343.542969 229.136719" fill="#332519"/></g><g id="change5_5"><path d="M 352.042969 226.273438 L 352.042969 227.773438 C 352.691406 227.773438 353.261719 227.363281 353.464844 226.75 L 353.496094 226.636719 C 353.511719 226.574219 353.539062 226.511719 353.542969 226.273438 L 353.539062 226.152344 C 353.527344 225.984375 353.496094 225.574219 353.445312 224.992188 C 353.371094 224.128906 353.269531 222.941406 353.183594 221.972656 C 353.144531 221.484375 353.105469 221.050781 353.078125 220.738281 C 353.0625 220.585938 353.050781 220.460938 353.042969 220.371094 L 353.035156 220.265625 L 353.03125 220.222656 L 353.023438 220.1875 L 353.015625 220.128906 L 352.992188 220.011719 C 352.980469 219.972656 352.972656 219.929688 352.925781 219.804688 C 352.894531 219.738281 352.867188 219.65625 352.746094 219.488281 C 352.363281 218.964844 351.6875 218.746094 351.070312 218.949219 C 350.453125 219.148438 350.035156 219.726562 350.035156 220.375 L 350.039062 220.453125 L 350.050781 220.597656 C 350.082031 221.003906 350.222656 222.628906 350.546875 226.402344 C 350.613281 227.179688 351.261719 227.773438 352.042969 227.773438 L 352.042969 226.273438 L 353.535156 226.144531 C 353.347656 223.957031 353.222656 222.488281 353.140625 221.566406 C 353.101562 221.105469 353.074219 220.777344 353.058594 220.570312 C 353.050781 220.464844 353.042969 220.386719 353.039062 220.335938 L 353.035156 220.285156 L 351.910156 220.355469 L 353.035156 220.300781 L 353.035156 220.285156 L 351.910156 220.355469 L 353.035156 220.300781 L 351.582031 220.375 L 353.035156 220.375 L 353.035156 220.300781 L 351.582031 220.375 L 353.035156 220.375 L 351.535156 220.375 L 350.316406 221.242188 L 351.535156 220.375 L 350.121094 220.875 C 350.152344 220.945312 350.164062 221.023438 350.316406 221.242188 L 351.535156 220.375 L 350.121094 220.875 L 351.535156 220.375 L 350.070312 220.683594 C 350.078125 220.71875 350.082031 220.753906 350.121094 220.875 L 351.535156 220.375 L 350.070312 220.683594 L 351.511719 220.378906 L 350.050781 220.566406 C 350.054688 220.585938 350.050781 220.578125 350.070312 220.683594 L 351.511719 220.378906 L 350.050781 220.566406 L 351.09375 220.433594 L 350.046875 220.539062 L 350.050781 220.566406 L 351.09375 220.433594 L 350.046875 220.539062 C 350.050781 220.578125 350.089844 220.992188 350.136719 221.539062 C 350.210938 222.367188 350.3125 223.550781 350.398438 224.542969 C 350.4375 225.039062 350.476562 225.488281 350.503906 225.816406 C 350.519531 225.980469 350.527344 226.117188 350.535156 226.210938 L 350.542969 226.316406 L 350.542969 226.335938 L 351.664062 226.273438 L 350.542969 226.273438 L 350.542969 226.335938 L 351.664062 226.273438 L 350.542969 226.273438 L 352.039062 226.273438 L 350.589844 225.910156 C 350.574219 225.972656 350.546875 226.035156 350.542969 226.273438 L 352.039062 226.273438 L 350.589844 225.910156 L 352.039062 226.273438 L 350.621094 225.800781 L 350.589844 225.910156 L 352.039062 226.273438 L 350.621094 225.800781 L 352.042969 226.273438 L 352.042969 224.773438 L 352.042969 226.273438 L 353.535156 226.144531 L 352.042969 226.273438" fill="#332519"/></g><g id="change5_6"><path d="M 171.707031 170.078125 L 173.195312 170.277344 C 174.933594 157.410156 180.554688 145.375 189.824219 136.289062 C 194.03125 132.164062 200.003906 127.617188 206.304688 124.449219 C 206.945312 124.128906 207.269531 123.386719 207.070312 122.695312 C 206.871094 122.003906 206.203125 121.550781 205.488281 121.617188 C 201.378906 122.007812 197.28125 122.527344 193.210938 123.179688 C 184.597656 124.558594 176.078125 126.515625 167.722656 128.992188 C 164.847656 129.84375 162.445312 131.015625 160.300781 132.535156 C 158.15625 134.054688 156.277344 135.902344 154.378906 138.082031 C 154.195312 138.292969 154.058594 138.472656 153.945312 138.605469 C 145.355469 148.800781 141.539062 162.5625 141.539062 176.332031 C 141.539062 188.605469 144.566406 200.921875 150.105469 210.871094 C 151.773438 213.855469 153.84375 216.679688 156.402344 219.050781 L 156.402344 219.046875 C 156.917969 219.527344 157.457031 220 158.035156 220.449219 C 160.5625 222.433594 163.167969 223.402344 165.785156 223.894531 C 168.402344 224.390625 171.03125 224.453125 173.835938 224.675781 C 176.90625 224.917969 179.976562 225.21875 183.046875 225.554688 C 183.59375 225.613281 184.132812 225.367188 184.445312 224.910156 C 184.757812 224.460938 184.792969 223.863281 184.542969 223.375 C 183.777344 221.898438 183.128906 220.207031 182.4375 218.785156 C 176.445312 206.476562 172.582031 193.046875 172.582031 179.488281 C 172.582031 176.421875 172.78125 173.347656 173.195312 170.277344 L 171.707031 170.078125 L 170.222656 169.875 C 169.789062 173.085938 169.582031 176.292969 169.582031 179.488281 C 169.585938 193.621094 173.597656 207.476562 179.742188 220.097656 C 180.347656 221.335938 181.015625 223.078125 181.875 224.753906 L 183.210938 224.0625 L 183.371094 222.570312 C 180.277344 222.234375 177.179688 221.929688 174.070312 221.683594 C 171.171875 221.460938 168.632812 221.386719 166.34375 220.949219 C 164.054688 220.507812 162.015625 219.746094 159.882812 218.085938 C 159.394531 217.703125 158.917969 217.289062 158.441406 216.847656 C 156.160156 214.738281 154.269531 212.175781 152.726562 209.410156 C 147.46875 199.980469 144.535156 188.113281 144.539062 176.332031 C 144.535156 163.101562 148.226562 150.027344 156.238281 140.539062 C 156.410156 140.335938 156.539062 140.167969 156.644531 140.046875 C 158.445312 137.976562 160.152344 136.316406 162.035156 134.984375 C 163.917969 133.65625 165.980469 132.640625 168.574219 131.867188 C 176.8125 129.425781 185.203125 127.5 193.683594 126.140625 C 197.691406 125.5 201.722656 124.988281 205.769531 124.605469 L 205.628906 123.109375 L 204.953125 121.769531 C 198.3125 125.117188 192.15625 129.808594 187.726562 134.148438 C 177.9375 143.738281 172.039062 156.410156 170.222656 169.875 L 171.707031 170.078125" fill="#332519"/></g><g id="change5_7"><path d="M 352.042969 226.273438 L 353.535156 226.144531 C 350.632812 192.535156 332.058594 164.902344 306.339844 146.453125 C 305.726562 146.011719 304.875 146.101562 304.363281 146.65625 C 304.179688 146.851562 303.96875 147.007812 303.695312 147.121094 C 303.203125 147.328125 302.496094 147.433594 301.667969 147.429688 C 300.878906 147.429688 299.996094 147.34375 299.101562 147.25 C 298.207031 147.15625 297.300781 147.054688 296.414062 147.050781 C 289.261719 147.050781 282.078125 147.871094 275.125 149.695312 C 263.953125 152.621094 254.289062 158.0625 246.886719 167.164062 C 238.207031 177.832031 231.613281 192.070312 230.085938 205.863281 C 229.761719 208.824219 229.574219 211.871094 229.574219 214.9375 C 229.574219 219.871094 230.054688 224.847656 231.210938 229.59375 C 231.359375 230.195312 231.53125 230.863281 231.664062 231.527344 C 231.796875 232.191406 231.886719 232.851562 231.886719 233.398438 C 231.886719 233.613281 231.875 233.8125 231.847656 233.984375 C 231.742188 234.714844 232.179688 235.410156 232.882812 235.632812 C 234.230469 236.054688 235.570312 236.484375 236.910156 236.925781 L 236.914062 236.929688 C 248.285156 240.632812 260.347656 243.953125 270.105469 250.414062 C 270.613281 250.75 271.230469 251.269531 271.902344 251.859375 C 272.910156 252.753906 274.035156 253.808594 275.296875 254.683594 C 275.929688 255.121094 276.597656 255.515625 277.328125 255.8125 C 278.054688 256.109375 278.84375 256.304688 279.683594 256.304688 C 280.695312 256.308594 281.753906 256.003906 282.710938 255.378906 L 282.703125 255.382812 C 283.007812 255.183594 283.15625 255.023438 283.191406 255.003906 L 283.195312 255.003906 C 284.03125 254.339844 284.609375 253.484375 284.925781 252.597656 C 285.25 251.707031 285.34375 250.804688 285.34375 249.925781 C 285.34375 248.855469 285.203125 247.804688 285.078125 246.792969 C 284.953125 245.78125 284.839844 244.8125 284.839844 243.945312 C 284.839844 242.851562 285.011719 241.964844 285.453125 241.238281 C 287.136719 238.457031 290.035156 236.363281 293.410156 234.773438 C 296.773438 233.179688 300.558594 232.105469 303.84375 231.25 C 312.277344 229.042969 321.566406 226.992188 330.339844 226.996094 C 331.90625 226.996094 333.460938 227.0625 334.984375 227.203125 C 336.40625 227.328125 337.925781 227.550781 339.238281 228 C 340.554688 228.449219 341.632812 229.101562 342.347656 230.046875 C 343.699219 231.8125 345.710938 232.707031 347.652344 232.789062 C 347.753906 232.796875 347.851562 232.796875 347.945312 232.796875 C 349.34375 232.796875 350.742188 232.375 351.839844 231.4375 C 352.386719 230.96875 352.847656 230.371094 353.160156 229.667969 C 353.476562 228.96875 353.640625 228.171875 353.640625 227.324219 C 353.640625 226.898438 353.597656 226.460938 353.519531 226.011719 L 352.042969 226.273438 L 353.535156 226.144531 L 352.042969 226.273438 L 350.566406 226.539062 C 350.617188 226.828125 350.640625 227.089844 350.640625 227.324219 C 350.640625 227.792969 350.554688 228.152344 350.421875 228.441406 C 350.226562 228.875 349.929688 229.183594 349.507812 229.421875 C 349.089844 229.65625 348.539062 229.796875 347.945312 229.796875 L 347.777344 229.792969 C 346.65625 229.746094 345.480469 229.214844 344.734375 228.230469 C 343.535156 226.65625 341.875 225.726562 340.203125 225.160156 C 338.523438 224.589844 336.789062 224.355469 335.261719 224.214844 C 333.632812 224.0625 331.988281 223.996094 330.339844 223.996094 C 321.105469 224 311.601562 226.125 303.085938 228.347656 C 299.753906 229.21875 295.800781 230.324219 292.128906 232.058594 C 288.464844 233.792969 285.03125 236.167969 282.890625 239.683594 C 282.058594 241.054688 281.839844 242.554688 281.839844 243.945312 C 281.839844 245.066406 281.976562 246.148438 282.101562 247.164062 C 282.230469 248.175781 282.34375 249.121094 282.34375 249.925781 C 282.34375 250.585938 282.265625 251.136719 282.109375 251.566406 C 281.945312 252 281.730469 252.328125 281.320312 252.660156 L 281.324219 252.65625 C 281.222656 252.738281 281.15625 252.800781 281.117188 252.828125 L 281.085938 252.855469 L 281.085938 252.859375 L 281.175781 252.992188 L 281.089844 252.855469 L 281.085938 252.859375 L 281.175781 252.992188 L 281.089844 252.855469 L 281.082031 252.859375 C 280.550781 253.195312 280.132812 253.296875 279.683594 253.304688 C 279.191406 253.304688 278.628906 253.148438 277.992188 252.820312 C 277.039062 252.332031 275.980469 251.472656 274.9375 250.546875 C 273.882812 249.621094 272.859375 248.644531 271.757812 247.910156 C 261.445312 241.101562 249.117188 237.765625 237.847656 234.078125 L 237.851562 234.078125 C 236.496094 233.628906 235.136719 233.195312 233.78125 232.769531 L 233.332031 234.203125 L 234.816406 234.417969 C 234.867188 234.074219 234.886719 233.734375 234.886719 233.398438 C 234.886719 232.542969 234.761719 231.710938 234.605469 230.9375 C 234.449219 230.164062 234.265625 229.453125 234.125 228.882812 C 233.035156 224.425781 232.574219 219.675781 232.574219 214.9375 C 232.574219 211.996094 232.753906 209.054688 233.070312 206.191406 C 234.5 193.117188 240.878906 179.28125 249.210938 169.058594 C 256.183594 160.507812 265.171875 155.414062 275.886719 152.597656 C 282.5625 150.847656 289.488281 150.050781 296.414062 150.050781 C 297.058594 150.050781 297.886719 150.136719 298.789062 150.234375 C 299.691406 150.328125 300.667969 150.429688 301.667969 150.429688 C 302.714844 150.429688 303.800781 150.320312 304.847656 149.890625 C 305.535156 149.605469 306.113281 149.183594 306.566406 148.691406 L 305.464844 147.671875 L 304.589844 148.890625 C 329.722656 166.9375 347.726562 193.777344 350.546875 226.402344 L 350.566406 226.539062 L 352.042969 226.273438" fill="#332519"/></g><g id="change5_8"><path d="M 304.664062 142.226562 L 303.910156 143.527344 L 304.019531 143.582031 L 304.144531 143.640625 L 304.292969 143.6875 C 304.371094 143.707031 304.460938 143.738281 304.695312 143.742188 C 304.945312 143.746094 305.230469 143.671875 305.453125 143.539062 C 305.792969 143.339844 305.976562 143.0625 306.070312 142.84375 C 306.167969 142.621094 306.195312 142.429688 306.195312 142.242188 C 306.195312 141.964844 306.132812 141.796875 306.089844 141.679688 C 305.992188 141.453125 305.925781 141.382812 305.878906 141.316406 C 305.785156 141.203125 305.75 141.175781 305.71875 141.144531 L 305.609375 141.050781 C 305.523438 140.980469 305.457031 140.933594 305.351562 140.855469 C 304.585938 140.304688 302.191406 138.660156 299.960938 137.128906 C 298.847656 136.367188 297.777344 135.636719 296.984375 135.09375 C 296.585938 134.824219 296.257812 134.601562 296.027344 134.445312 C 295.910156 134.367188 295.820312 134.304688 295.75 134.261719 L 295.660156 134.203125 L 295.609375 134.167969 L 295.539062 134.128906 L 295.4375 134.078125 L 295.296875 134.023438 C 295.214844 134.003906 295.136719 133.957031 294.824219 133.949219 C 294.429688 133.949219 294.042969 134.109375 293.765625 134.386719 C 293.484375 134.667969 293.324219 135.054688 293.324219 135.449219 C 293.324219 135.84375 293.484375 136.230469 293.765625 136.507812 C 294.042969 136.789062 294.429688 136.949219 294.824219 136.949219 L 294.824219 135.449219 L 293.324219 135.449219 C 293.332031 135.828125 293.429688 135.996094 293.480469 136.117188 C 293.601562 136.339844 293.660156 136.390625 293.703125 136.445312 C 293.785156 136.535156 293.8125 136.554688 293.839844 136.578125 L 293.945312 136.664062 C 294.003906 136.707031 294.0625 136.75 294.171875 136.824219 C 294.914062 137.347656 297.640625 139.226562 303.8125 143.464844 L 303.910156 143.527344 L 304.664062 142.226562 L 305.511719 140.992188 C 301.824219 138.460938 299.363281 136.765625 297.828125 135.707031 C 297.058594 135.179688 296.523438 134.808594 296.179688 134.570312 C 296.007812 134.449219 295.886719 134.363281 295.808594 134.308594 L 295.734375 134.257812 L 295.734375 134.253906 L 295.101562 135.105469 L 295.761719 134.277344 L 295.734375 134.253906 L 295.101562 135.105469 L 295.761719 134.277344 L 294.871094 135.398438 L 295.832031 134.335938 L 295.761719 134.277344 L 294.871094 135.398438 L 295.832031 134.335938 L 294.832031 135.441406 L 295.945312 134.453125 L 295.832031 134.335938 L 294.832031 135.441406 L 295.945312 134.453125 L 294.824219 135.445312 L 296.089844 134.640625 C 296.019531 134.535156 295.976562 134.488281 295.945312 134.453125 L 294.824219 135.445312 L 296.089844 134.640625 L 294.824219 135.449219 L 296.214844 134.878906 C 296.164062 134.765625 296.121094 134.695312 296.089844 134.640625 L 294.824219 135.449219 L 296.214844 134.878906 L 294.824219 135.449219 L 296.324219 135.449219 C 296.320312 135.164062 296.257812 134.996094 296.214844 134.878906 L 294.824219 135.449219 L 296.324219 135.449219 C 296.324219 135.054688 296.164062 134.667969 295.886719 134.386719 C 295.605469 134.109375 295.21875 133.949219 294.824219 133.949219 C 294.429688 133.949219 294.042969 134.109375 293.765625 134.386719 C 293.484375 134.667969 293.324219 135.054688 293.324219 135.449219 C 293.324219 135.84375 293.484375 136.230469 293.765625 136.507812 C 294.042969 136.789062 294.429688 136.949219 294.824219 136.949219 L 294.824219 135.449219 L 294.484375 136.910156 C 294.554688 136.925781 294.648438 136.945312 294.824219 136.949219 L 294.824219 135.449219 L 294.484375 136.910156 L 294.824219 135.449219 L 294.246094 136.832031 C 294.292969 136.851562 294.34375 136.875 294.484375 136.910156 L 294.824219 135.449219 L 294.246094 136.832031 L 294.816406 135.464844 L 294.117188 136.769531 L 294.246094 136.832031 L 294.816406 135.464844 L 294.117188 136.769531 L 294.714844 135.660156 L 294.039062 136.726562 L 294.117188 136.769531 L 294.714844 135.660156 L 294.039062 136.726562 L 294.050781 136.730469 C 294.117188 136.777344 294.34375 136.929688 294.65625 137.140625 C 295.761719 137.890625 298.0625 139.460938 300.082031 140.851562 C 301.089844 141.546875 302.03125 142.191406 302.714844 142.671875 C 303.058594 142.90625 303.335938 143.105469 303.523438 143.238281 C 303.613281 143.304688 303.683594 143.355469 303.71875 143.382812 L 303.738281 143.394531 L 304.164062 142.839844 L 303.710938 143.371094 L 303.738281 143.394531 L 304.164062 142.839844 L 303.710938 143.371094 L 304.605469 142.324219 L 303.613281 143.28125 L 303.710938 143.371094 L 304.605469 142.324219 L 303.613281 143.28125 L 304.679688 142.253906 L 303.476562 143.117188 C 303.546875 143.210938 303.585938 143.25 303.613281 143.28125 L 304.679688 142.253906 L 303.476562 143.117188 L 304.691406 142.246094 L 303.34375 142.886719 C 303.398438 143.003906 303.441406 143.066406 303.476562 143.117188 L 304.691406 142.246094 L 303.34375 142.886719 L 304.695312 142.242188 L 303.195312 142.242188 C 303.203125 142.59375 303.289062 142.765625 303.34375 142.886719 L 304.695312 142.242188 L 303.195312 142.242188 L 304.695312 142.242188 L 303.449219 141.410156 C 303.242188 141.738281 303.203125 141.996094 303.195312 142.242188 L 304.695312 142.242188 L 303.449219 141.410156 L 304.695312 142.242188 L 303.941406 140.949219 C 303.714844 141.078125 303.554688 141.253906 303.449219 141.410156 L 304.695312 142.242188 L 303.941406 140.949219 L 304.695312 142.242188 L 304.695312 140.742188 C 304.445312 140.742188 304.164062 140.816406 303.941406 140.949219 L 304.695312 142.242188 L 304.695312 140.742188 L 304.695312 142.238281 L 305.097656 140.800781 C 305.019531 140.78125 304.929688 140.746094 304.695312 140.742188 L 304.695312 142.238281 L 305.097656 140.800781 L 304.703125 142.210938 L 305.296875 140.871094 C 305.261719 140.855469 305.21875 140.835938 305.097656 140.800781 L 304.703125 142.210938 L 305.296875 140.871094 L 304.808594 141.976562 L 305.414062 140.929688 C 305.402344 140.921875 305.394531 140.914062 305.296875 140.871094 L 304.808594 141.976562 L 305.414062 140.929688 L 304.664062 142.226562 L 305.511719 140.992188 L 304.664062 142.226562" fill="#332519"/></g><g id="change5_9"><path d="M 232.667969 229.238281 L 234.125 228.882812 C 233.035156 224.425781 232.574219 219.675781 232.574219 214.9375 C 232.574219 211.992188 232.753906 209.054688 233.070312 206.191406 C 234.5 193.117188 240.878906 179.28125 249.210938 169.058594 C 256.183594 160.507812 265.171875 155.414062 275.886719 152.597656 C 282.5625 150.847656 289.488281 150.050781 296.414062 150.050781 C 297.058594 150.050781 297.886719 150.136719 298.789062 150.234375 C 299.691406 150.328125 300.667969 150.429688 301.667969 150.429688 C 302.714844 150.429688 303.800781 150.320312 304.847656 149.890625 C 305.535156 149.605469 306.113281 149.183594 306.566406 148.691406 C 307.453125 147.722656 307.882812 146.484375 307.882812 145.261719 C 307.882812 144.429688 307.6875 143.59375 307.273438 142.832031 C 306.867188 142.074219 306.230469 141.398438 305.410156 140.925781 L 304.664062 142.226562 L 305.511719 140.992188 C 281.316406 124.382812 252.164062 117.292969 223.1875 117.292969 C 222.386719 117.292969 221.585938 117.296875 220.78125 117.308594 C 215.558594 117.386719 210.109375 119.179688 204.953125 121.769531 C 198.3125 125.117188 192.15625 129.808594 187.726562 134.148438 C 177.9375 143.738281 172.039062 156.410156 170.222656 169.875 C 169.789062 173.085938 169.582031 176.292969 169.582031 179.488281 C 169.585938 193.621094 173.597656 207.476562 179.742188 220.097656 C 180.347656 221.335938 181.015625 223.078125 181.875 224.753906 C 182.574219 226.089844 183.390625 227.421875 184.585938 228.433594 C 186.199219 229.765625 188.285156 230.527344 190.367188 231.15625 C 192.445312 231.777344 194.546875 232.234375 196.054688 232.703125 C 203.714844 235.066406 211.585938 236.839844 219.613281 237.632812 C 223.117188 237.980469 226.636719 238.148438 230.152344 238.148438 C 230.8125 238.148438 231.421875 238.066406 231.980469 237.890625 C 232.816406 237.636719 233.539062 237.125 234.011719 236.480469 C 234.484375 235.835938 234.714844 235.113281 234.816406 234.421875 C 234.867188 234.078125 234.886719 233.734375 234.886719 233.398438 C 234.886719 232.542969 234.761719 231.710938 234.605469 230.9375 C 234.449219 230.164062 234.265625 229.453125 234.125 228.882812 L 231.210938 229.59375 C 231.359375 230.195312 231.53125 230.863281 231.664062 231.527344 C 231.796875 232.191406 231.886719 232.851562 231.886719 233.398438 C 231.886719 233.613281 231.875 233.8125 231.847656 233.984375 C 231.8125 234.214844 231.757812 234.398438 231.695312 234.527344 C 231.597656 234.726562 231.519531 234.816406 231.328125 234.925781 C 231.136719 235.03125 230.78125 235.148438 230.152344 235.148438 C 226.730469 235.148438 223.308594 234.984375 219.910156 234.648438 C 212.125 233.878906 204.449219 232.15625 196.941406 229.835938 C 195.234375 229.308594 193.164062 228.863281 191.226562 228.28125 C 189.289062 227.714844 187.511719 226.984375 186.511719 226.132812 C 185.828125 225.570312 185.148438 224.558594 184.542969 223.375 C 183.777344 221.898438 183.128906 220.207031 182.4375 218.785156 C 176.445312 206.476562 172.582031 193.046875 172.582031 179.488281 C 172.582031 176.421875 172.78125 173.347656 173.195312 170.277344 C 174.933594 157.410156 180.554688 145.375 189.824219 136.289062 C 194.03125 132.164062 200.003906 127.617188 206.304688 124.449219 C 211.1875 121.984375 216.269531 120.367188 220.824219 120.308594 C 221.609375 120.296875 222.398438 120.292969 223.1875 120.292969 C 251.6875 120.292969 280.230469 127.273438 303.8125 143.464844 L 303.917969 143.527344 C 304.25 143.722656 304.476562 143.96875 304.636719 144.261719 C 304.796875 144.558594 304.882812 144.90625 304.882812 145.261719 C 304.882812 145.785156 304.695312 146.296875 304.359375 146.65625 C 304.179688 146.851562 303.96875 147.007812 303.695312 147.121094 C 303.203125 147.328125 302.496094 147.433594 301.667969 147.429688 C 300.878906 147.429688 299.996094 147.34375 299.101562 147.25 C 298.207031 147.15625 297.300781 147.054688 296.414062 147.050781 C 289.261719 147.050781 282.078125 147.871094 275.125 149.695312 C 263.953125 152.621094 254.289062 158.0625 246.886719 167.164062 C 238.207031 177.832031 231.613281 192.070312 230.085938 205.863281 C 229.761719 208.824219 229.574219 211.871094 229.574219 214.9375 C 229.574219 219.871094 230.054688 224.851562 231.210938 229.59375 L 232.667969 229.238281" fill="#332519"/></g></g></svg>