<?xml version="1.0" encoding="UTF-8"?><svg xmlns="http://www.w3.org/2000/svg" xmlns:xlink="http://www.w3.org/1999/xlink" height="226.8" preserveAspectRatio="xMidYMid meet" version="1.1" viewBox="101.7 99.2 227.3 226.8" width="227.3" zoomAndPan="magnify">
 <g id="surface1">
  <g id="change1_1"><path d="m193.64 207.18h-82.51s0 62.88 43.12 99.06h86.56c43.12-36.18 43.12-99.06 43.12-99.06h-90.29" fill="#e1dbc9"/></g>
  <g id="change2_1"><path d="m240.81 306.24h-86.56c-42.94-36.03-43.12-98.54-43.12-99.05v-0.01h24.49c14.5 19.08 48.07 67.07 130.36 67.88-6.09 11.14-14.25 22.01-25.17 31.18" fill="#d9d1bb"/></g>
  <g id="change1_2"><path d="m101.65 303.17c0.57 12.69 22.99 22.81 34.4 22.81h122.96c11.41 0 33.83-10.12 34.4-22.81h-191.76" fill="#e1dbc9"/></g>
  <g id="change3_1"><path d="m110.5 316.51c7.69 5.76 18.64 9.47 25.55 9.47h122.96c6.92 0 17.87-3.71 25.55-9.47h-174.06" fill="#c5bc9f"/></g>
  <g id="change1_3"><path d="m283.35 216.7s32.13-16.12 39.47 8.46c6.13 20.55-27.25 48.09-58.94 53.58l2.81-5.52s52.15-30.72 41.45-45.13c-9.54-12.84-26.78 2.57-26.78 2.57l1.99-13.96" fill="#e1dbc9"/></g>
  <g id="change4_1"><path d="m202.85 202.43s24.95-18.59 20.54-45.49c-4.4-26.91-28.86-41.09-20.54-57.725 0 0-15.17 10.275-12.71 28.375 2.14 15.7 29.34 53.8 12.71 74.84" fill="#9d9070"/></g>
  <g id="change4_2"><path d="m179.88 202.43s16.79-12.51 13.82-30.62c-2.96-18.1-19.42-27.65-13.82-38.85 0 0-10.2 6.92-8.55 19.1 1.44 10.56 19.74 36.21 8.55 50.37" fill="#9d9070"/></g>
 </g>
</svg>