<?xml version="1.0" encoding="UTF-8"?><svg xmlns="http://www.w3.org/2000/svg" xmlns:xlink="http://www.w3.org/1999/xlink" height="235.8" preserveAspectRatio="xMidYMid meet" version="1.0" viewBox="73.5 72.3 282.8 235.8" width="282.8" zoomAndPan="magnify"><g><g id="change1_1"><path d="M 241.410156 293.574219 C 233.949219 299.835938 220.550781 306.234375 187.121094 306.234375 C 158.179688 306.234375 140.5625 299.09375 132.832031 292.90625 C 126.121094 287.535156 103.671875 255.589844 106.359375 216.753906 C 121.617188 216.753906 249.039062 216.753906 267.878906 216.753906 C 267.878906 256.351562 251.730469 284.914062 241.410156 293.574219" fill="#ee2a28"/></g><g id="change2_1"><path d="M 241.410156 293.574219 L 240.230469 292.164062 C 236.679688 295.136719 231.75 298.152344 223.503906 300.480469 C 215.265625 302.804688 203.71875 304.398438 187.121094 304.394531 C 172.800781 304.394531 161.328125 302.628906 152.523438 300.121094 C 143.722656 297.621094 137.585938 294.363281 133.980469 291.472656 C 133.324219 290.949219 132.367188 290.007812 131.253906 288.722656 C 127.339844 284.214844 121.472656 275.5 116.640625 264.101562 C 111.804688 252.699219 107.976562 238.601562 107.976562 223.214844 C 107.976562 221.125 108.046875 219.011719 108.195312 216.878906 L 106.359375 216.753906 L 106.359375 218.59375 C 121.617188 218.59375 249.039062 218.59375 267.878906 218.59375 L 267.878906 216.753906 L 266.039062 216.753906 C 266.042969 236.300781 262.054688 253.113281 256.8125 266.074219 C 254.191406 272.558594 251.257812 278.074219 248.363281 282.476562 C 245.476562 286.878906 242.613281 290.167969 240.226562 292.167969 L 241.410156 293.574219 L 242.59375 294.984375 C 245.367188 292.652344 248.394531 289.121094 251.4375 284.496094 C 255.992188 277.558594 260.554688 268.148438 263.988281 256.707031 C 267.417969 245.265625 269.71875 231.789062 269.71875 216.753906 C 269.71875 216.269531 269.523438 215.796875 269.179688 215.453125 C 268.839844 215.109375 268.363281 214.914062 267.878906 214.914062 C 249.039062 214.914062 121.617188 214.914062 106.359375 214.914062 C 105.394531 214.914062 104.59375 215.664062 104.527344 216.625 C 104.371094 218.847656 104.300781 221.042969 104.300781 223.214844 C 104.300781 241.503906 109.480469 257.910156 115.449219 270.40625 C 118.4375 276.652344 121.625 281.925781 124.484375 285.984375 C 125.914062 288.011719 127.265625 289.734375 128.476562 291.132812 C 129.691406 292.53125 130.753906 293.597656 131.683594 294.34375 C 135.808594 297.640625 142.34375 301.042969 151.519531 303.660156 C 160.691406 306.269531 172.5 308.074219 187.121094 308.074219 C 203.953125 308.070312 215.820312 306.464844 224.5 304.023438 C 233.179688 301.585938 238.679688 298.269531 242.59375 294.984375 L 241.410156 293.574219" fill="#0f0a0a"/></g><g id="change1_2"><path d="M 334.839844 205.398438 C 332.945312 218.484375 309.710938 263.230469 275.75 251.640625 C 283.878906 235.5625 291.707031 212.503906 295.46875 184.226562 C 300.414062 179.996094 307.042969 177.765625 314.003906 178.632812 C 327.152344 180.269531 337.273438 188.5625 334.839844 205.398438 Z M 323.679688 163.371094 C 313.539062 162.105469 303.902344 165.472656 296.835938 171.78125 C 297.449219 164.480469 297.792969 156.890625 297.792969 149.023438 C 272.046875 149.023438 97.988281 149.023438 77.152344 149.023438 C 73.476562 211.542969 104.144531 262.953125 113.3125 271.605469 C 123.871094 281.5625 147.9375 293.054688 187.472656 293.054688 C 233.132812 293.054688 251.441406 282.753906 261.632812 272.675781 C 263.421875 270.90625 265.339844 268.613281 267.320312 265.847656 C 267.871094 266.238281 268.464844 266.59375 269.160156 266.859375 C 314.359375 284.128906 342.804688 229.1875 349.175781 205.90625 C 356.269531 179.980469 342.328125 165.691406 323.679688 163.371094" fill="#ee2a28"/></g><g id="change2_2"><path d="M 334.839844 205.398438 L 333.019531 205.132812 C 332.832031 206.421875 332.390625 208.175781 331.695312 210.203125 C 329.269531 217.335938 323.785156 227.878906 316.011719 236.476562 C 312.128906 240.78125 307.679688 244.605469 302.78125 247.332031 C 297.882812 250.058594 292.558594 251.699219 286.816406 251.699219 C 283.480469 251.699219 279.992188 251.144531 276.34375 249.898438 L 275.75 251.640625 L 277.390625 252.46875 C 285.621094 236.1875 293.503906 212.949219 297.289062 184.46875 L 295.46875 184.226562 L 296.664062 185.621094 C 300.582031 182.273438 305.628906 180.285156 311.03125 180.285156 C 311.9375 180.285156 312.855469 180.34375 313.777344 180.457031 C 319.40625 181.15625 324.324219 183.132812 327.777344 186.386719 C 329.507812 188.019531 330.886719 189.96875 331.851562 192.304688 C 332.816406 194.640625 333.363281 197.371094 333.363281 200.5625 C 333.363281 201.996094 333.253906 203.515625 333.019531 205.132812 L 334.839844 205.398438 L 336.65625 205.660156 C 336.914062 203.882812 337.039062 202.183594 337.039062 200.5625 C 337.039062 196.953125 336.414062 193.722656 335.25 190.902344 C 333.507812 186.667969 330.550781 183.386719 326.890625 181.078125 C 323.226562 178.761719 318.878906 177.386719 314.230469 176.808594 C 313.15625 176.675781 312.089844 176.609375 311.03125 176.609375 C 304.722656 176.609375 298.828125 178.933594 294.273438 182.828125 C 293.929688 183.121094 293.707031 183.53125 293.644531 183.980469 C 289.914062 212.058594 282.136719 234.9375 274.109375 250.8125 C 273.867188 251.285156 273.84375 251.84375 274.046875 252.335938 C 274.246094 252.828125 274.652344 253.210938 275.15625 253.382812 C 279.167969 254.75 283.070312 255.378906 286.816406 255.378906 C 294.191406 255.378906 300.925781 252.953125 306.824219 249.199219 C 315.683594 243.566406 322.75 234.976562 327.820312 226.691406 C 330.355469 222.542969 332.386719 218.46875 333.871094 214.851562 C 335.355469 211.222656 336.304688 208.078125 336.65625 205.660156 Z M 323.679688 163.371094 L 323.90625 161.546875 C 322.410156 161.359375 320.925781 161.269531 319.457031 161.269531 C 310.421875 161.269531 302.011719 164.695312 295.613281 170.410156 L 296.835938 171.78125 L 298.667969 171.933594 C 299.285156 164.585938 299.632812 156.945312 299.632812 149.023438 C 299.632812 148.539062 299.433594 148.066406 299.09375 147.722656 C 298.75 147.382812 298.277344 147.183594 297.792969 147.183594 C 272.046875 147.183594 97.988281 147.183594 77.152344 147.183594 C 76.179688 147.183594 75.371094 147.945312 75.316406 148.914062 C 75.105469 152.457031 75.007812 155.960938 75.007812 159.425781 C 75.007812 188.59375 82.023438 214.816406 90.128906 234.800781 C 94.183594 244.789062 98.511719 253.222656 102.386719 259.695312 C 104.324219 262.933594 106.148438 265.683594 107.78125 267.898438 C 109.414062 270.117188 110.839844 271.796875 112.050781 272.941406 C 117.578125 278.152344 126.453125 283.613281 138.941406 287.808594 C 151.429688 291.996094 167.527344 294.894531 187.472656 294.894531 C 210.4375 294.890625 226.625 292.304688 238.433594 288.390625 C 250.238281 284.480469 257.660156 279.195312 262.925781 273.980469 C 264.808594 272.117188 266.785156 269.746094 268.816406 266.917969 L 267.320312 265.847656 L 266.246094 267.339844 C 266.882812 267.792969 267.621094 268.242188 268.503906 268.578125 C 274.667969 270.933594 280.578125 272.003906 286.1875 272 C 295.398438 272.003906 303.761719 269.117188 311.117188 264.523438 C 322.160156 257.628906 331.023438 246.941406 337.691406 236.078125 C 344.355469 225.210938 348.816406 214.167969 350.945312 206.394531 C 352.273438 201.550781 352.894531 197.066406 352.894531 192.945312 C 352.90625 183.652344 349.683594 176.183594 344.394531 170.910156 C 339.109375 165.628906 331.863281 162.535156 323.90625 161.546875 L 323.453125 165.195312 C 330.761719 166.105469 337.203125 168.921875 341.792969 173.511719 C 346.375 178.109375 349.203125 184.480469 349.21875 192.945312 C 349.21875 196.695312 348.648438 200.855469 347.398438 205.421875 C 344.714844 215.269531 337.851562 231.199219 327.402344 244.476562 C 322.179688 251.121094 316.066406 257.105469 309.171875 261.402344 C 302.273438 265.703125 294.625 268.320312 286.1875 268.324219 C 281.042969 268.324219 275.597656 267.351562 269.816406 265.144531 C 269.304688 264.945312 268.859375 264.6875 268.390625 264.351562 C 267.992188 264.066406 267.507812 263.953125 267.019531 264.03125 C 266.535156 264.109375 266.113281 264.375 265.824219 264.773438 C 263.890625 267.476562 262.03125 269.695312 260.339844 271.367188 C 255.410156 276.234375 248.585938 281.140625 237.273438 284.898438 C 225.964844 288.652344 210.164062 291.21875 187.472656 291.214844 C 167.882812 291.214844 152.179688 288.367188 140.113281 284.320312 C 128.042969 280.277344 119.605469 275.015625 114.574219 270.265625 C 113.625 269.371094 112.285156 267.820312 110.742188 265.71875 C 105.316406 258.347656 97.261719 244.246094 90.613281 225.773438 C 83.957031 207.296875 78.683594 184.429688 78.683594 159.425781 C 78.683594 156.03125 78.78125 152.597656 78.984375 149.132812 L 77.152344 149.023438 L 77.152344 150.863281 C 97.988281 150.863281 272.046875 150.863281 297.792969 150.863281 L 297.792969 149.023438 L 295.953125 149.023438 C 295.953125 156.839844 295.613281 164.375 295.003906 171.628906 C 294.941406 172.378906 295.339844 173.089844 296.015625 173.425781 C 296.691406 173.761719 297.496094 173.65625 298.0625 173.152344 C 303.816406 168.015625 311.359375 164.945312 319.457031 164.945312 C 320.773438 164.945312 322.109375 165.027344 323.453125 165.195312 L 323.679688 163.371094" fill="#0f0a0a"/></g><g id="change3_1"><path d="M 297.332031 149.332031 C 297.332031 159.148438 247.9375 167.109375 187.011719 167.109375 C 126.085938 167.109375 76.691406 159.148438 76.691406 149.332031 C 76.691406 139.519531 126.085938 131.5625 187.011719 131.5625 C 247.9375 131.5625 297.332031 139.519531 297.332031 149.332031" fill="#f03ba4"/></g><g id="change2_3"><path d="M 297.332031 149.332031 L 295.492188 149.332031 C 295.492188 149.554688 295.433594 149.800781 295.207031 150.171875 C 294.792969 150.855469 293.683594 151.835938 291.890625 152.792969 C 288.765625 154.492188 283.691406 156.191406 277.136719 157.699219 C 267.296875 159.972656 254.101562 161.871094 238.703125 163.195312 C 223.304688 164.519531 205.703125 165.269531 187.011719 165.269531 C 156.628906 165.269531 129.121094 163.28125 109.296875 160.085938 C 99.390625 158.492188 91.394531 156.585938 86.015625 154.535156 C 83.328125 153.515625 81.300781 152.445312 80.070312 151.472656 C 79.453125 150.988281 79.042969 150.53125 78.816406 150.171875 C 78.589844 149.800781 78.53125 149.554688 78.53125 149.332031 C 78.53125 149.109375 78.589844 148.863281 78.816406 148.496094 C 79.230469 147.8125 80.339844 146.832031 82.132812 145.875 C 85.257812 144.175781 90.332031 142.476562 96.886719 140.96875 C 106.726562 138.695312 119.921875 136.796875 135.316406 135.472656 C 150.714844 134.148438 168.316406 133.398438 187.011719 133.398438 C 217.390625 133.398438 244.902344 135.386719 264.726562 138.582031 C 274.632812 140.175781 282.628906 142.082031 288.007812 144.132812 C 290.695312 145.152344 292.722656 146.222656 293.953125 147.195312 C 294.570312 147.679688 294.980469 148.132812 295.207031 148.496094 C 295.433594 148.863281 295.492188 149.109375 295.492188 149.332031 L 299.171875 149.332031 C 299.171875 148.328125 298.84375 147.363281 298.316406 146.535156 C 297.320312 144.980469 295.726562 143.78125 293.644531 142.640625 C 289.988281 140.667969 284.703125 138.945312 277.964844 137.382812 C 267.867188 135.054688 254.539062 133.144531 239.019531 131.808594 C 223.503906 130.476562 205.804688 129.722656 187.011719 129.722656 C 156.464844 129.722656 128.816406 131.714844 108.710938 134.949219 C 98.652344 136.574219 90.492188 138.496094 84.707031 140.695312 C 81.808594 141.804688 79.503906 142.96875 77.796875 144.308594 C 76.941406 144.980469 76.230469 145.703125 75.707031 146.535156 C 75.179688 147.363281 74.851562 148.328125 74.851562 149.332031 C 74.851562 150.339844 75.179688 151.304688 75.707031 152.132812 C 76.703125 153.6875 78.296875 154.886719 80.378906 156.027344 C 84.035156 157.996094 89.320312 159.722656 96.058594 161.28125 C 106.15625 163.613281 119.484375 165.523438 135.003906 166.859375 C 150.519531 168.191406 168.21875 168.945312 187.011719 168.945312 C 217.558594 168.945312 245.207031 166.957031 265.3125 163.71875 C 275.371094 162.09375 283.53125 160.171875 289.316406 157.96875 C 292.214844 156.863281 294.519531 155.699219 296.226562 154.359375 C 297.082031 153.6875 297.789062 152.964844 298.316406 152.132812 C 298.84375 151.304688 299.171875 150.339844 299.171875 149.332031 L 297.332031 149.332031" fill="#0f0a0a"/></g><g id="change1_3"><path d="M 297.335938 149.347656 C 297.335938 152.582031 291.933594 155.636719 282.519531 158.210938 C 263.429688 163.539062 227.800781 167.109375 187.015625 167.109375 C 146.234375 167.109375 110.601562 163.539062 91.515625 158.210938 C 82.101562 155.636719 76.695312 152.582031 76.695312 149.347656 C 76.695312 139.527344 126.085938 131.550781 187.015625 131.550781 C 247.949219 131.550781 297.335938 139.527344 297.335938 149.347656" fill="#ee2a28"/></g><g id="change2_4"><path d="M 297.335938 149.347656 L 295.496094 149.347656 C 295.496094 149.492188 295.46875 149.644531 295.386719 149.84375 C 295.246094 150.183594 294.902344 150.671875 294.273438 151.21875 C 293.332031 152.039062 291.78125 152.957031 289.714844 153.84375 C 287.644531 154.734375 285.0625 155.609375 282.035156 156.4375 L 282.023438 156.4375 C 272.65625 159.058594 259.050781 161.277344 242.730469 162.828125 C 226.40625 164.378906 207.355469 165.269531 187.015625 165.269531 C 166.679688 165.269531 147.628906 164.378906 131.304688 162.828125 C 114.984375 161.277344 101.375 159.058594 92.011719 156.4375 L 92 156.4375 C 87.390625 155.179688 83.800781 153.796875 81.507812 152.441406 C 80.363281 151.769531 79.554688 151.105469 79.097656 150.554688 C 78.867188 150.28125 78.722656 150.039062 78.640625 149.84375 C 78.558594 149.644531 78.535156 149.492188 78.53125 149.347656 C 78.535156 149.125 78.589844 148.878906 78.820312 148.507812 C 79.234375 147.820312 80.34375 146.84375 82.136719 145.882812 C 85.261719 144.183594 90.335938 142.480469 96.886719 140.972656 C 106.726562 138.695312 119.925781 136.792969 135.320312 135.46875 C 150.71875 134.140625 168.320312 133.386719 187.015625 133.386719 C 217.398438 133.386719 244.910156 135.378906 264.734375 138.582031 C 274.636719 140.175781 282.632812 142.085938 288.011719 144.140625 C 290.695312 145.160156 292.726562 146.230469 293.957031 147.207031 C 294.574219 147.691406 294.984375 148.144531 295.210938 148.507812 C 295.4375 148.878906 295.492188 149.125 295.496094 149.347656 L 299.175781 149.347656 C 299.175781 148.34375 298.847656 147.375 298.320312 146.550781 C 297.324219 144.992188 295.730469 143.792969 293.648438 142.652344 C 289.996094 140.679688 284.707031 138.949219 277.972656 137.386719 C 267.875 135.054688 254.546875 133.140625 239.027344 131.804688 C 223.507812 130.46875 205.808594 129.710938 187.015625 129.710938 C 156.464844 129.710938 128.816406 131.707031 108.710938 134.949219 C 98.65625 136.574219 90.492188 138.503906 84.707031 140.707031 C 81.8125 141.8125 79.507812 142.980469 77.796875 144.320312 C 76.945312 144.992188 76.234375 145.714844 75.707031 146.550781 C 75.183594 147.375 74.851562 148.34375 74.855469 149.347656 C 74.855469 150.007812 74.996094 150.660156 75.25 151.257812 C 75.691406 152.3125 76.429688 153.195312 77.351562 153.996094 C 78.742188 155.195312 80.582031 156.234375 82.867188 157.21875 C 85.152344 158.203125 87.882812 159.121094 91.03125 159.984375 L 91.019531 159.980469 C 100.742188 162.691406 114.492188 164.921875 130.957031 166.488281 C 147.414062 168.054688 166.570312 168.945312 187.015625 168.945312 C 207.460938 168.945312 226.617188 168.054688 243.078125 166.488281 C 259.539062 164.921875 273.292969 162.691406 283.011719 159.980469 L 283.003906 159.984375 C 287.804688 158.667969 291.625 157.234375 294.390625 155.609375 C 295.773438 154.792969 296.902344 153.925781 297.753906 152.914062 C 298.179688 152.40625 298.53125 151.859375 298.78125 151.257812 C 299.03125 150.660156 299.175781 150.007812 299.175781 149.347656 L 297.335938 149.347656" fill="#0f0a0a"/></g><g id="change4_1"><path d="M 282.519531 158.210938 C 263.429688 163.539062 227.800781 167.109375 187.015625 167.109375 C 146.234375 167.109375 110.601562 163.539062 91.515625 158.210938 C 110.601562 152.910156 146.234375 149.347656 187.015625 149.347656 C 227.800781 149.347656 263.429688 152.910156 282.519531 158.210938" fill="#f79745"/></g><g id="change2_5"><path d="M 282.519531 158.210938 L 282.023438 156.4375 C 272.65625 159.058594 259.050781 161.277344 242.730469 162.828125 C 226.40625 164.378906 207.355469 165.269531 187.015625 165.269531 C 166.679688 165.269531 147.628906 164.378906 131.304688 162.828125 C 114.984375 161.277344 101.375 159.058594 92.011719 156.4375 L 91.515625 158.210938 L 92.007812 159.980469 C 101.375 157.378906 114.984375 155.167969 131.304688 153.621094 C 147.628906 152.074219 166.679688 151.183594 187.015625 151.183594 C 207.355469 151.183594 226.40625 152.074219 242.730469 153.621094 C 259.050781 155.167969 272.660156 157.378906 282.027344 159.980469 L 282.519531 158.210938 L 282.023438 156.4375 L 282.519531 158.210938 L 283.011719 156.4375 C 273.289062 153.742188 259.539062 151.523438 243.078125 149.960938 C 226.617188 148.402344 207.460938 147.507812 187.015625 147.507812 C 166.570312 147.507812 147.414062 148.402344 130.957031 149.960938 C 114.492188 151.523438 100.742188 153.742188 91.023438 156.4375 L 84.660156 158.203125 L 91.019531 159.980469 C 100.742188 162.691406 114.492188 164.921875 130.957031 166.488281 C 147.414062 168.054688 166.570312 168.945312 187.015625 168.945312 C 207.460938 168.945312 226.617188 168.054688 243.078125 166.488281 C 259.539062 164.921875 273.292969 162.691406 283.011719 159.980469 L 289.375 158.203125 L 283.011719 156.4375 L 282.519531 158.210938" fill="#0f0a0a"/></g><g id="change2_6"><path d="M 167.171875 157.765625 C 167.175781 152.777344 168.144531 149.175781 169.585938 146.136719 C 170.671875 143.859375 172.042969 141.890625 173.539062 139.941406 C 175.78125 137.019531 178.332031 134.15625 180.347656 130.421875 C 182.367188 126.6875 183.777344 122.085938 183.769531 115.933594 C 183.773438 110.464844 182.667969 106.222656 180.996094 102.722656 C 179.746094 100.097656 178.199219 97.902344 176.636719 95.867188 C 174.28125 92.8125 171.90625 90.117188 170.152344 86.84375 C 168.394531 83.570312 167.179688 79.714844 167.171875 74.101562 C 167.171875 73.085938 166.347656 72.261719 165.332031 72.261719 C 164.316406 72.261719 163.492188 73.085938 163.492188 74.101562 C 163.488281 79.570312 164.59375 83.8125 166.265625 87.308594 C 167.515625 89.933594 169.0625 92.132812 170.625 94.164062 C 172.980469 97.21875 175.355469 99.917969 177.109375 103.1875 C 178.867188 106.464844 180.085938 110.320312 180.09375 115.933594 C 180.085938 120.921875 179.117188 124.523438 177.675781 127.5625 C 176.59375 129.839844 175.222656 131.808594 173.722656 133.757812 C 171.480469 136.679688 168.929688 139.542969 166.914062 143.277344 C 164.894531 147.011719 163.484375 151.613281 163.492188 157.765625 C 163.492188 158.78125 164.316406 159.605469 165.332031 159.605469 C 166.347656 159.605469 167.171875 158.78125 167.171875 157.765625" fill="#0f0a0a"/></g><g id="change2_7"><path d="M 185.257812 143.355469 C 185.261719 140.109375 185.886719 137.816406 186.808594 135.867188 C 187.503906 134.40625 188.390625 133.132812 189.378906 131.847656 C 190.855469 129.921875 192.585938 127.988281 193.972656 125.417969 C 195.363281 122.851562 196.335938 119.660156 196.328125 115.472656 C 196.332031 111.746094 195.570312 108.808594 194.421875 106.402344 C 193.558594 104.59375 192.496094 103.089844 191.445312 101.722656 C 189.855469 99.664062 188.300781 97.890625 187.171875 95.789062 C 186.046875 93.683594 185.265625 91.234375 185.257812 87.582031 C 185.257812 86.566406 184.433594 85.746094 183.421875 85.746094 C 182.402344 85.746094 181.582031 86.566406 181.582031 87.582031 C 181.574219 91.308594 182.335938 94.246094 183.488281 96.652344 C 184.351562 98.460938 185.410156 99.964844 186.464844 101.335938 C 188.054688 103.394531 189.609375 105.164062 190.734375 107.265625 C 191.863281 109.375 192.640625 111.820312 192.652344 115.472656 C 192.644531 118.714844 192.023438 121.011719 191.101562 122.957031 C 190.402344 124.417969 189.519531 125.691406 188.53125 126.976562 C 187.054688 128.902344 185.324219 130.839844 183.933594 133.40625 C 182.542969 135.972656 181.574219 139.164062 181.582031 143.355469 C 181.582031 144.371094 182.402344 145.195312 183.421875 145.195312 C 184.433594 145.195312 185.257812 144.371094 185.257812 143.355469" fill="#0f0a0a"/></g><g id="change2_8"><path d="M 202.523438 157.765625 C 202.53125 153.429688 203.367188 150.3125 204.617188 147.683594 C 205.554688 145.710938 206.746094 144 208.054688 142.300781 C 210.007812 139.75 212.253906 137.234375 214.035156 133.933594 C 215.820312 130.636719 217.0625 126.5625 217.054688 121.144531 C 217.058594 116.324219 216.082031 112.570312 214.605469 109.480469 C 213.503906 107.160156 212.136719 105.222656 210.765625 103.4375 C 208.695312 100.753906 206.628906 98.402344 205.105469 95.566406 C 203.585938 92.730469 202.53125 89.398438 202.523438 84.519531 C 202.523438 83.503906 201.703125 82.679688 200.6875 82.679688 C 199.671875 82.679688 198.847656 83.503906 198.847656 84.519531 C 198.84375 89.335938 199.820312 93.089844 201.296875 96.183594 C 202.402344 98.503906 203.765625 100.441406 205.140625 102.226562 C 207.207031 104.90625 209.273438 107.257812 210.796875 110.09375 C 212.316406 112.933594 213.371094 116.261719 213.378906 121.144531 C 213.371094 125.480469 212.535156 128.59375 211.285156 131.222656 C 210.347656 133.195312 209.15625 134.90625 207.847656 136.605469 C 205.894531 139.15625 203.652344 141.671875 201.867188 144.972656 C 200.085938 148.269531 198.839844 152.34375 198.847656 157.765625 C 198.847656 158.78125 199.671875 159.605469 200.6875 159.605469 C 201.703125 159.605469 202.523438 158.78125 202.523438 157.765625" fill="#0f0a0a"/></g></g></svg>