<?xml version="1.0" encoding="UTF-8"?><svg xmlns="http://www.w3.org/2000/svg" height="2142pt" version="1.1" viewBox="0 0 3603.58 2142" width="3603.6pt">
 <g fill-rule="evenodd" id="surface1">
  <g id="change1_1"><path d="m731.45 1908.6c100.09 72.2 248.25 104.1 404.45 125.3 471 63.7 1082.3 48.4 1442.6-100.3 0-3.6 2.9-4.2 3.6-7.1 1.9 0 4-2.9 0-3.6-564.9 79.7-1300.5 72.3-1850.6-14.3zm1718.2-551.3c-181.5 181.5-421.5 315-783.9 315-363.4 0-593.4-138.8-776.76-322.1-22.32-22.3-54.44-68.6-78.74-71.6-32.5-4.1-72.53 11.6-107.39 17.9-186.57 33.3-351.79 66.3-497.56 139.6-45.41 22.8-128.85 71.1-128.85 125.3-0.002 50.9 74.6 95.6 125.28 121.7 167.84 86.3 385.15 126.9 587.04 157.5 585.68 88.5 1267.1 87.7 1847.1 0 196-29.7 428.3-76 587-157.5 47.9-24.7 127.8-69.8 125.3-125.3-2.5-55.3-91.7-104.7-143.2-128.9-190.8-89.5-456.5-132.2-669.4-161.1-28.8 27.6-57.9 61.5-85.9 89.5zm970.1-390.14c54.6-53.32 107.1-141.02 110.9-236.26 4.5-112.49-59.1-214.02-125.3-272.03-125.3-109.91-366.4-169.37-569.1-103.82-49.2 15.91-103.2 25.88-143.2 46.55-29.1 15.03-54.5 41.44-85.9 57.27-253.4 127.77-645 143.18-1002.3 143.18-184.5 0-364.3-16.39-529.7-42.96-142.04-22.81-285.44-55.13-386.61-114.55-10.23-6-23.48-24.47-39.37-17.89-40.38 301.64 49.54 550.68 178.97 737.35 128.94 186 323.61 324.9 551.21 393.8 276.3 83.6 573.2 27.1 776.8-82.4 209.6-112.6 362.3-269.6 458.2-486.77 214.7 159.37 609.7 169.57 805.4-21.47zm-2595.2-776.75c-50.69 19.25-159.94 56.51-164.66 103.79-6.62 66.47 114.49 105.69 178.98 128.87 80.08 28.78 168.37 50.54 246.97 64.43 436.8 77.11 1016.3 65.43 1392.5-60.85 58.8-19.76 188.4-64.87 186.1-125.29-1.2-31.01-47.2-57.59-89.5-78.74-262.1-130.96-678.5-160.82-1048.8-143.19-244.2 11.64-507.8 37.3-701.59 110.98zm1925.8 110.95c166-68.22 402.9-63.56 554.8 3.59 165.4 73.1 314.3 217.66 297.1 458.17-10.2 143.42-103.8 249.38-211.2 322.18-199.5 135.3-549.1 135-733.8 0-23.2 37.6-48.6 73-68 114.5 233.6 33.4 486 73.7 676.6 175.4 75.3 40.2 187.7 104.7 153.9 229.1-28.7 105.3-199.5 168.4-304.3 204-130.4 44.4-263.8 75.7-408.1 96.7-12.7 12.4-27.6 46.9-46.5 64.4-89.9 83.4-294 119.3-454.6 139.6-352.9 44.7-768.5 45.6-1120.4-7.1-154.42-23.2-367.05-61.5-433.1-157.5-10.06-14.7-15.43-30.9-14.32-53.7-128.39-20.5-245.17-51.1-361.54-93.1-99.86-36-235.79-90.7-268.46-186.1-30.958-90.5 30.038-157.1 82.335-196.9 158.22-120.4 439.36-162.8 669.36-204-9.44-33.5-32.32-62.3-50.12-93.1-54.6-94.6-96.27-194.95-121.69-325.75-33-169.72-40.72-392.86 21.47-533.34 26.74-60.4 87.09-100.67 153.92-132.44 96.22-45.736 223.54-66.986 347.24-85.904 431.6-66.039 1014.5-54.343 1385.2 64.414 108.9 34.9 230.6 84.82 254.2 196.88" fill="#3c3e53"/></g>
  <g id="change2_1"><path d="m1526.1 79.434c370.3-17.637 786.7 12.222 1048.8 143.19 42.3 21.15 88.3 47.73 89.5 78.74 2.3 60.42-127.3 105.53-186.1 125.29-376.2 126.28-955.7 137.96-1392.5 60.85-78.6-13.89-166.89-35.65-246.97-64.43-64.49-23.18-185.6-62.4-178.98-128.87 4.72-47.28 113.97-84.54 164.66-103.79 193.79-73.68 457.39-99.34 701.59-110.98" fill="#e09e8f"/></g>
  <g id="change3_1"><path d="m3366 806.07c23.8-52.58 21.3-117.48 0-164.66-62-136.78-303-215.08-501.2-168.24-38.5 9.12-146.1 47.57-157.5 82.34-7.1 21.8 1.3 51.02 0 71.59-5.6 90.21-26.1 172.47-50.1 246.99 164 178.81 615.7 137.31 708.8-68.02zm-751.7 182.56c-95.9 217.17-248.6 374.17-458.2 486.77-203.6 109.5-500.5 166-776.8 82.4-227.6-68.9-422.27-207.8-551.21-393.8-129.43-186.67-219.35-435.71-178.97-737.35 15.89-6.58 29.14 11.89 39.37 17.89 101.17 59.42 244.57 91.74 386.61 114.55 165.4 26.57 345.2 42.96 529.7 42.96 357.3 0 748.9-15.41 1002.3-143.18 31.4-15.83 56.8-42.24 85.9-57.27 40-20.67 94-30.64 143.2-46.55 202.7-65.55 443.8-6.09 569.1 103.82 66.2 58.01 129.8 159.54 125.3 272.03-3.8 95.24-56.3 182.94-110.9 236.26-195.7 191.04-590.7 180.84-805.4 21.47" fill="#fec0ae"/></g>
  <g id="change1_2"><path d="m3265.8 816.82c53.3-56.5 49.2-133.97 0-186.14-93.8-99.35-358.7-127.39-486.9-53.69 3.3 107.11-15.5 192.07-32.2 279.2 133.4 88.73 419.7 65.86 519.1-39.37zm-608.6 57.27c24-74.52 44.5-156.78 50.1-246.99 1.3-20.57-7.1-49.79 0-71.59 11.4-34.77 119-73.22 157.5-82.34 198.2-46.84 439.2 31.46 501.2 168.24 21.3 47.18 23.8 112.08 0 164.66-93.1 205.33-544.8 246.83-708.8 68.02" fill="#3c3e53"/></g>
  <g id="change3_2"><path d="m2535.5 1267.8c212.9 28.9 478.6 71.6 669.4 161.1 51.5 24.2 140.7 73.6 143.2 128.9 2.5 55.5-77.4 100.6-125.3 125.3-158.7 81.5-391 127.8-587 157.5-580 87.7-1261.4 88.5-1847.1 0-201.87-30.6-419.18-71.2-587.02-157.5-50.68-26.1-125.28-70.8-125.28-121.7-0.002-54.2 83.44-102.5 128.85-125.3 145.77-73.3 310.99-106.3 497.56-139.6 34.86-6.3 74.89-22 107.39-17.9 24.3 3 56.42 49.3 78.74 71.6 183.36 183.3 413.36 322.1 776.76 322.1 362.4 0 602.4-133.5 783.9-315 28-28 57.1-61.9 85.9-89.5" fill="#fec0ae"/></g>
  <g id="change3_3"><path d="m2582.1 1922.9c4 0.7 1.9 3.6 0 3.6-0.7 2.9-3.6 3.5-3.6 7.1-360.3 148.7-971.6 164-1442.6 100.3-156.2-21.2-304.36-53.1-404.45-125.3 550.15 86.6 1285.8 94 1850.6 14.3" fill="#fec0ae"/></g>
 </g>
</svg>