<?xml version="1.0" encoding="UTF-8"?><svg xmlns="http://www.w3.org/2000/svg" xmlns:xlink="http://www.w3.org/1999/xlink" height="303.5" preserveAspectRatio="xMidYMid meet" version="1.0" viewBox="64.9 53.5 310.5 303.5" width="310.5" zoomAndPan="magnify"><g><g id="change1_1"><path d="M 324.539062 332.015625 C 305.8125 335.261719 256.566406 337.582031 198.769531 337.582031 C 140.96875 337.582031 91.726562 335.261719 72.992188 332.015625 C 68.242188 330.859375 64.914062 329.53125 64.914062 329.53125 C 64.914062 329.53125 64.914062 334.234375 64.914062 334.917969 C 64.914062 339.597656 124.84375 343.390625 198.769531 343.390625 C 272.695312 343.390625 332.621094 339.597656 332.621094 334.917969 C 332.621094 334.253906 332.621094 329.53125 332.621094 329.53125 C 332.621094 329.53125 328.871094 331.027344 324.539062 332.015625" fill="#ee2828"/></g><g id="change1_2"><path d="M 332.621094 326.445312 C 332.621094 331.128906 272.695312 334.917969 198.769531 334.917969 C 124.84375 334.917969 64.914062 331.128906 64.914062 326.445312 C 64.914062 321.769531 124.84375 317.980469 198.769531 317.980469 C 272.695312 317.980469 332.621094 321.769531 332.621094 326.445312" fill="#ee2828"/></g><g id="change1_3"><path d="M 264.851562 346.171875 C 264.851562 352.15625 253.53125 357.007812 200.707031 357.007812 C 145.578125 357.007812 136.5625 352.15625 136.5625 346.171875 L 264.851562 346.171875" fill="#ee2828"/></g><g id="change2_1"><path d="M 146.550781 324.417969 C 146.550781 321.351562 170.714844 318.816406 201.738281 318.5 C 199.53125 318.476562 197.296875 318.460938 195.023438 318.460938 C 160.828125 318.460938 133.117188 321.128906 133.117188 324.417969 C 133.117188 327.710938 160.828125 330.382812 195.023438 330.382812 C 197.296875 330.382812 199.53125 330.367188 201.738281 330.347656 C 170.714844 330.019531 146.550781 327.496094 146.550781 324.417969" fill="#fff"/></g><g id="change2_2"><path d="M 252.109375 324.417969 C 252.109375 321.351562 227.949219 318.816406 196.925781 318.5 C 199.136719 318.476562 201.367188 318.460938 203.644531 318.460938 C 237.828125 318.460938 265.546875 321.128906 265.546875 324.417969 C 265.546875 327.300781 244.324219 329.703125 216.117188 330.257812 C 240.09375 328.140625 252.109375 327.496094 252.109375 324.417969" fill="#fff"/></g><g id="change1_4"><path d="M 324.496094 187.71875 L 81.242188 187.71875 C 81.242188 238.429688 112.289062 291.480469 156.410156 314.4375 L 156.410156 326.191406 L 249.332031 326.191406 L 249.332031 314.4375 C 293.449219 291.480469 324.496094 238.429688 324.496094 187.71875" fill="#ee2828"/></g><g id="change1_5"><path d="M 328.445312 186.398438 C 328.445312 188.875 326.4375 190.878906 323.96875 190.878906 L 81.769531 190.878906 C 79.296875 190.878906 77.292969 188.875 77.292969 186.398438 C 77.292969 183.929688 79.296875 181.925781 81.769531 181.925781 L 323.96875 181.925781 C 326.4375 181.925781 328.445312 183.929688 328.445312 186.398438" fill="#ee2828"/></g><g id="change1_6"><path d="M 356.390625 234.226562 C 346.910156 254.589844 313.570312 277.367188 296.605469 270.527344 C 283.464844 265.230469 314.445312 231.699219 314.445312 231.699219 C 314.445312 231.699219 330.171875 206.199219 344.328125 205.855469 C 360.480469 205.460938 361.976562 222.234375 356.390625 234.226562 Z M 351.464844 192.875 C 333.925781 192.855469 322.761719 201.410156 322.761719 201.410156 C 322.761719 201.410156 269.234375 274.226562 286.671875 281.257812 C 309.1875 290.328125 359.785156 258.902344 369.234375 233.785156 C 375.425781 217.351562 370.269531 192.898438 351.464844 192.875" fill="#ee2828"/></g><g id="change1_7"><path d="M 193.179688 173.597656 C 193.179688 173.597656 193.53125 173.367188 194.195312 172.9375 C 194.851562 172.496094 195.773438 171.816406 196.757812 170.789062 C 197.714844 169.757812 198.722656 168.328125 199.0625 166.492188 C 199.453125 164.675781 199.117188 162.535156 198.269531 160.351562 C 197.421875 158.15625 196.027344 155.925781 194.390625 153.679688 C 192.734375 151.4375 190.753906 149.226562 188.648438 146.96875 C 188.105469 146.394531 187.558594 145.816406 187.007812 145.238281 C 186.457031 144.648438 185.90625 144.089844 185.351562 143.441406 C 184.21875 142.183594 183.136719 140.886719 182.113281 139.503906 C 180.050781 136.75 178.214844 133.65625 176.949219 130.25 C 175.671875 126.851562 175.175781 123.136719 175.332031 119.597656 C 175.382812 117.820312 175.640625 116.085938 175.984375 114.414062 C 176.121094 113.566406 176.378906 112.765625 176.570312 111.949219 L 176.726562 111.339844 L 176.746094 111.265625 L 176.796875 111.101562 L 176.847656 110.960938 L 176.941406 110.675781 L 177.324219 109.554688 C 178.519531 106.242188 180.363281 103.554688 182.277344 101.246094 C 184.1875 98.925781 186.21875 97.011719 188.09375 95.296875 C 189.960938 93.570312 191.730469 92.078125 193.261719 90.730469 C 194.792969 89.378906 196.113281 88.195312 197.183594 87.191406 C 198.222656 86.164062 199.070312 85.375 199.597656 84.789062 C 200.148438 84.21875 200.441406 83.914062 200.441406 83.914062 C 200.441406 83.914062 200.21875 84.273438 199.796875 84.945312 C 199.378906 85.621094 198.726562 86.582031 197.839844 87.777344 C 196.9375 88.949219 195.824219 90.375 194.460938 91.921875 C 193.117188 93.484375 191.566406 95.207031 189.902344 97.074219 C 188.253906 98.953125 186.507812 100.996094 184.890625 103.253906 C 183.285156 105.503906 181.890625 108.070312 181.03125 110.726562 C 180.160156 113.5625 179.691406 116.6875 179.609375 119.726562 C 179.574219 122.78125 179.984375 125.851562 181.097656 128.742188 C 182.152344 131.648438 183.746094 134.402344 185.570312 136.992188 C 186.492188 138.277344 187.460938 139.542969 188.4375 140.746094 C 188.90625 141.351562 189.460938 141.96875 189.972656 142.574219 C 190.496094 143.179688 191.011719 143.777344 191.527344 144.371094 C 193.636719 146.792969 195.515625 149.304688 197.105469 151.835938 C 198.703125 154.363281 199.96875 156.960938 200.671875 159.570312 C 201.019531 160.871094 201.238281 162.167969 201.246094 163.425781 C 201.265625 164.679688 201.046875 165.886719 200.679688 166.945312 C 199.976562 169.113281 198.523438 170.519531 197.339844 171.4375 C 196.132812 172.367188 195.027344 172.84375 194.3125 173.164062 C 193.570312 173.445312 193.179688 173.597656 193.179688 173.597656" fill="#ee2828"/></g><g id="change1_8"><path d="M 203.34375 137.4375 C 203.34375 137.4375 203.054688 137.160156 202.519531 136.644531 C 202.253906 136.382812 201.925781 136.0625 201.542969 135.683594 C 201.164062 135.296875 200.6875 134.902344 200.28125 134.320312 C 199.847656 133.757812 199.367188 133.132812 198.84375 132.453125 C 198.714844 132.28125 198.566406 132.109375 198.445312 131.921875 C 198.339844 131.730469 198.226562 131.53125 198.109375 131.332031 C 197.882812 130.925781 197.648438 130.503906 197.402344 130.070312 C 197.179688 129.628906 196.863281 129.203125 196.691406 128.699219 C 196.496094 128.203125 196.292969 127.691406 196.085938 127.167969 C 195.605469 126.128906 195.398438 124.953125 195.113281 123.734375 C 195.046875 123.429688 194.964844 123.121094 194.910156 122.804688 C 194.878906 122.488281 194.847656 122.167969 194.816406 121.84375 C 194.753906 121.191406 194.691406 120.53125 194.625 119.855469 C 194.601562 119.179688 194.65625 118.496094 194.679688 117.796875 C 194.703125 117.097656 194.722656 116.382812 194.855469 115.679688 C 194.964844 114.96875 195.074219 114.25 195.1875 113.519531 C 195.324219 112.800781 195.535156 112.089844 195.714844 111.359375 C 195.808594 110.996094 195.898438 110.628906 195.992188 110.261719 C 196.097656 109.894531 196.246094 109.546875 196.371094 109.1875 C 196.632812 108.472656 196.898438 107.75 197.164062 107.019531 C 197.820312 105.628906 198.390625 104.148438 199.175781 102.78125 C 199.554688 102.085938 199.914062 101.375 200.3125 100.683594 C 200.734375 100.007812 201.15625 99.328125 201.582031 98.648438 C 203.316406 95.949219 205.265625 93.351562 207.347656 90.890625 L 208.882812 89.082031 C 209.417969 88.464844 209.84375 87.921875 210.300781 87.335938 C 211.210938 86.144531 212.074219 84.914062 212.875 83.664062 C 214.457031 81.148438 215.867188 78.566406 216.878906 75.949219 C 217.882812 73.339844 218.582031 70.730469 218.753906 68.253906 C 218.820312 67.019531 218.746094 65.828125 218.5625 64.703125 C 218.335938 63.59375 218.042969 62.519531 217.539062 61.589844 C 216.605469 59.679688 215.109375 58.253906 213.640625 57.183594 C 212.15625 56.105469 210.632812 55.453125 209.390625 54.898438 C 208.746094 54.664062 208.175781 54.457031 207.675781 54.273438 C 207.171875 54.085938 206.730469 53.984375 206.375 53.871094 C 205.664062 53.65625 205.28125 53.539062 205.28125 53.539062 C 205.28125 53.539062 205.679688 53.566406 206.421875 53.621094 C 207.171875 53.664062 208.257812 53.796875 209.644531 54.058594 C 211.007812 54.402344 212.71875 54.773438 214.515625 55.738281 C 216.292969 56.664062 218.308594 58.0625 219.722656 60.304688 C 220.476562 61.390625 221.003906 62.667969 221.4375 64.019531 C 221.820312 65.382812 222 66.835938 222.046875 68.3125 C 222.085938 71.269531 221.546875 74.320312 220.53125 77.269531 C 219.527344 80.222656 218.203125 83.148438 216.515625 85.914062 C 215.671875 87.300781 214.785156 88.675781 213.78125 89.980469 C 213.28125 90.640625 212.734375 91.339844 212.238281 91.917969 L 210.722656 93.730469 C 208.707031 96.070312 206.855469 98.527344 205.148438 101.003906 C 203.429688 103.484375 201.972656 106.035156 200.714844 108.574219 C 200.195312 109.878906 199.5625 111.132812 199.175781 112.421875 C 198.964844 113.058594 198.71875 113.6875 198.542969 114.320312 C 198.390625 114.957031 198.242188 115.589844 198.097656 116.210938 C 197.914062 116.835938 197.855469 117.457031 197.785156 118.074219 C 197.71875 118.6875 197.617188 119.296875 197.5625 119.894531 C 197.554688 120.496094 197.546875 121.085938 197.535156 121.664062 C 197.53125 121.957031 197.523438 122.246094 197.519531 122.535156 C 197.535156 122.816406 197.578125 123.097656 197.609375 123.375 C 197.738281 124.484375 197.816406 125.570312 198.117188 126.558594 C 198.234375 127.0625 198.351562 127.554688 198.464844 128.03125 C 198.554688 128.523438 198.789062 128.945312 198.9375 129.386719 C 199.105469 129.820312 199.269531 130.242188 199.425781 130.648438 C 199.574219 131.0625 199.730469 131.457031 199.933594 131.804688 C 200.3125 132.523438 200.660156 133.1875 200.972656 133.785156 C 201.257812 134.40625 201.664062 134.890625 201.949219 135.34375 C 202.25 135.792969 202.507812 136.175781 202.714844 136.480469 C 203.121094 137.105469 203.34375 137.4375 203.34375 137.4375" fill="#ee2828"/></g><g id="change2_3"><path d="M 77.578125 189.765625 L 231.511719 192.148438 L 77.578125 194.53125 C 76.261719 194.550781 75.175781 193.503906 75.15625 192.1875 C 75.136719 190.871094 76.1875 189.785156 77.503906 189.765625 C 77.523438 189.765625 77.554688 189.765625 77.578125 189.765625" fill="#fff"/></g><g id="change2_4"><path d="M 262.011719 315.960938 L 174.851562 313.574219 L 262.011719 311.191406 C 263.328125 311.15625 264.425781 312.195312 264.460938 313.511719 C 264.496094 314.828125 263.457031 315.921875 262.144531 315.960938 C 262.101562 315.960938 262.054688 315.960938 262.011719 315.960938" fill="#fff"/></g></g></svg>