<?xml version="1.0" encoding="UTF-8"?><!-- Generator: Adobe Illustrator 23.0.4, SVG Export Plug-In . SVG Version: 6.00 Build 0)  --><svg xmlns="http://www.w3.org/2000/svg" enable-background="new 0 0 428 426.3" id="Layer_1" version="1.1" viewBox="0 0 428 426.3" x="0px" xml:space="preserve" y="0px">
<g id="change1_1"><path d="m239.4 300.4c-11.1 3.3-22.9 4.5-35.1 3.2-49.5-5.1-85.7-49-81.4-98.4l-55.5-37.9-61.3 25.9c-10.9 113.9 72.2 215.4 186.2 227.1 32.8 3.4 64.7-1.1 93.6-11.8l-51.8-39.2 5.3-68.9z" fill="#F9C316"/></g>
<g id="change2_1"><path d="m68.7 154.2l-60.9 25.7c17.3-108.4 116.6-185.7 227.1-174.3 37.6 3.9 71.8 17.5 100.5 38.1l-8.4 67-59.7 28.7c-12.6-9.2-27.8-15.4-44.4-17.1-46.3-4.8-88 26-98.1 70.2l-56.1-38.3z" fill="#F973BF"/></g>
<g id="change3_1"><path d="m337.7 118.4l8.3-66.5c52.1 42.9 82.4 110.2 75 182.3-7.9 76.9-56.7 139.8-122.6 169.2l-52.3-39.5 5.2-68c28.5-13 49.5-40.3 52.9-73.6 3-28.9-7.9-55.9-27.2-74.7l60.7-29.2z" fill="#28C1E0"/></g>
</svg>