<?xml version="1.0" encoding="UTF-8"?><!-- Generator: Adobe Illustrator 23.0.4, SVG Export Plug-In . SVG Version: 6.00 Build 0)  --><svg xmlns="http://www.w3.org/2000/svg" enable-background="new 0 0 428 426.3" id="Layer_1" version="1.1" viewBox="0 0 428 426.3" x="0px" xml:space="preserve" y="0px">
<g id="change1_1"><path d="m12.7 152.5l66.3-14.5 44.6 50.1c-2.1 8.8-4.8 25.8 0.2 46 6.3 25.4 21.1 41.3 27.8 47.6l-61.8 27.3-7.3 67.7c-14.9-12.3-56.3-49.6-72.2-113.7-12.4-49.9-3.2-91.3 2.4-110.5z" fill="#28C1E0"/></g>
<g id="change2_1"><path d="m210.3 4l33.5 59-34.6 57.4c-9 0.6-26 3.1-43.9 13.9-22.4 13.6-33.2 32.4-37.2 40.6-14.8-17-29.6-34-44.4-50.9l-66.8 13.2c7.2-17.8 30.6-68.4 87.1-102.6 44-26.7 86.3-30.2 106.3-30.6z" fill="#9F60E2"/></g>
<g id="change3_1"><path d="m410.9 145.2l-45.3 50.5-65.4-14.6c-3.5-8.3-11.2-23.7-27.1-37.2-20-16.9-41.3-21.1-50.3-22.4 11.4-19.4 22.8-38.9 34.2-58.3l-33.8-59c19.2 1.2 74.6 7.2 125 50 39.2 33.2 56 72.2 62.7 91z" fill="#F9C316"/></g>
<g id="change4_1"><path d="m337.4 381.2l-61.7-28.3-5.5-66.8c6.9-5.8 19.3-17.7 27.5-36.9 10.3-24.1 7.9-45.7 6.4-54.7 21.9 5.1 43.9 10.2 65.8 15.4l46.5-49.7c4.5 18.7 15.2 73.4-10.6 134.2-20.1 47.2-52.4 74.8-68.4 86.8z" fill="#B5D13F"/></g>
<g id="change5_1"><path d="m92.7 383.1l7.3-67.5 61.6-26.3c7.7 4.8 22.9 12.7 43.7 14.4 26.1 2.1 45.9-6.9 53.9-11.2 2.1 22.4 4.1 44.9 6.2 67.3l61.9 28.4c-16.3 10.2-64.8 37.6-130.7 32.3-51.1-4.1-87.5-26-103.9-37.4z" fill="#F973BF"/></g>
</svg>