<?xml version="1.0" encoding="utf-8"?>
<!-- Generator: Adobe Illustrator 16.0.0, SVG Export Plug-In . SVG Version: 6.00 Build 0)  -->
<!DOCTYPE svg PUBLIC "-//W3C//DTD SVG 1.1//EN" "http://www.w3.org/Graphics/SVG/1.1/DTD/svg11.dtd">
<svg version="1.1" id="Layer_1" xmlns="http://www.w3.org/2000/svg" xmlns:xlink="http://www.w3.org/1999/xlink" x="0px" y="0px"
	 width="285.989px" height="393.015px" viewBox="0 0 285.989 393.015" enable-background="new 0 0 285.989 393.015"
	 xml:space="preserve">
<g id="change3">
	<circle fill="#9F437B" cx="142.995" cy="250.019" r="142.995"/>
</g>
<g>
	<path opacity="0.5" fill="#FFFFFF" d="M119.779,164.927l-12.452-21.435c-0.611-1.059-1.865-1.573-3.043-1.273
		c-1.521,0.396-37.47,10.026-51.304,39.955c-8.415,18.21-6.685,39.828,5.135,64.238c0.466,0.955,1.431,1.533,2.459,1.533
		c0.198,0,0.396-0.021,0.587-0.062c1.238-0.27,2.126-1.354,2.144-2.613c0.01-0.707,1.676-70.851,54.395-76.25
		c0.92-0.106,1.735-0.665,2.152-1.479C120.277,166.706,120.251,165.72,119.779,164.927z"/>
</g>
<g id="change1">
	<path fill="#F3BC32" d="M170.639,96.987c0,8.974-5.831,16.251-13.029,16.251H128.38c-7.195,0-13.03-7.277-13.03-16.251l0,0
		c0-8.971,5.835-16.248,13.03-16.248h29.229C164.808,80.739,170.639,88.016,170.639,96.987L170.639,96.987z"/>
	<path fill="#F3BC32" d="M143.036,101.312l-1.865-3.203c-1.431-2.453-34.81-60.353-20.755-86.055
		c4.099-7.503,11.698-11.539,22.584-12.001c12.89-0.55,21.44,3.197,25.851,11.116c14.049,25.222-22.31,84.485-23.864,86.995
		L143.036,101.312z M145.399,4.454c-0.72,0-1.452,0.012-2.209,0.045c-9.349,0.4-15.519,3.572-18.864,9.688
		c-11.062,20.228,11.952,65.633,18.832,78.333c7.422-12.796,32.835-59.388,21.803-79.189C161.632,7.354,155.232,4.454,145.399,4.454
		z"/>
</g>
</svg>
