<?xml version="1.0" encoding="UTF-8"?><svg xmlns="http://www.w3.org/2000/svg" enable-background="new 0 0 1920 1469" version="1.1" viewBox="0 0 1920 1469" xml:space="preserve">
	<g id="change1_1"><path d="m360.09 37.33c0.9939-2.6571 4.0345-3.6594 4.88-6.41 1.347 3.6489 4.6703 5.1061 6.0412 9.0525 1.5988 4.6022 2.5008 9.4686 3.3021 14.261 1.7036 10.188 2.6834 20.594 3.6288 30.876 0.9738 10.593 1.3609 21.226 2.0606 31.838 0.5307 8.0479-0.2883 21.216 7.5673 26.353 7.2955 4.8202 16.133 6.742 23.14 12.06 7.504 5.6673 13.561 12.92 19.844 19.845 14.792 16.305 29.223 31.372 40.788 50.305 22.156 36.272 50.065 69.388 75.959 103.1 12.664 16.488 26.433 32.108 38.807 48.813 12.58 16.982 23.694 36.555 39.761 50.549 14.712 12.813 34.445 20.066 52.514 26.74 20.436 7.5485 40.835 15.395 62.28 19.592 40.957 8.0161 82.576 12.457 123.56 19.945 43.665 7.8534 88.023 11.389 132.04 16.576 44.148 5.2015 87.503 13.683 132.13 13.975 45.274 0.2966 89.444 6.0536 134.21 12.196 43.919 6.0264 89.091 6.509 133.42 7.9464 45.15 1.4642 90.484-1.121 135.68-1.0588 44.016 0.0605 88.082-0.8564 132.08-2.2238 43.73-2.4944 87.715-5.26 131.51-6.1 17.874-0.9008 43.253-3.0851 59.68 5.38 6.146 2.2281-0.7034 11.16-3.62 12.63-9.4681 4.3635-19.982 5.554-30.229 6.6766-40.494 4.436-81.001 6.0527-121.62 8.7784-42.01 2.819-83.919 8.6809-125.87 12.458-42.978 3.869-85.782 6.8239-128.85 9.1273-20.055 1.0726-39.923 1.6669-59.833 4.5615-8.1453 1.1842-17.699 1.0378-25.444 3.9662-10.94 4.1369-1.9595 17.209 1.22 23.494 3.9406 7.7894 8.8657 16.109 11.458 24.439 3.0503 9.4233 3.2012 18.787 7.2717 28.064 9.0153 20.547 11.346 37.964 7.845 60.115-3.2144 20.337-0.1184 41.128-3.688 61.552-3.9703 22.717-8.4539 46.187-8.207 69.355 0.1973 18.528 1.2588 39.837 7.3883 57.463 6.2361 19.817 17.533 37.464 28.77 54.75 11.299 15.615 25.758 28.959 38.706 43.179 14.412 15.829 31.357 26.424 48.078 39.413 16.595 12.89 7.3723 30.804 5.1569 48.276-2.7976 22.065-1.7587 43.301-1.864 65.329-0.1984 41.466-3.9603 82.88-4.4872 124.43-1.0698 19.208 1.0067 42.71-6.1876 60.797-8.5364 21.461-23.103 30.436-45.72 29.834-18.791-0.5006-38.344 3.4333-56.958 0.2833-8.7515-1.481-16.14-6.5575-24.484-9.3361-9.7565-3.249-9.9656-10.782-5.5905-19.444 3.8356-7.5939 10.336-10.459 17.287-14.535 7.3103-4.2863 11.783-11.126 16.434-17.985 10.762-15.873 26.41-23.822 32.548-43.102 5.9093-18.563 7.5718-37.392 10.717-56.495 3.4042-20.679 3.4696-41.982-4.0305-61.76-14.061-37.079-46.783-67.94-76.494-92.773-32.827-27.437-70.196-47.905-104.33-73.466-32.597-24.408-55.27-57.47-70.528-94.832-3.8478-9.4215-7.3735-18.97-10.8-28.552-2.1409-5.9861-4.3423-20.373-11.33-22.964-21.707-3.5836-43.752 7.7452-65.75 1.05-15.619-4.2736-6.1772-35.058-19.248-44.799-14.406-10.736-40.494-12.938-57.662-12.461-20.461-0.3499-39.38 8.554-57.91 16.09-20.448 8.8126-41.081 17.955-62.693 23.545-19.307 4.9941-38.911 9.3328-57.349 17.109-19.394 8.1794-38.361 17.109-58.964 21.841-20.493 4.7059-41.052 6.5536-62.043 7.5306-9.8692 0.4594-19.478 1.7097-29.283 2.6699-8.9077 0.8724-24.274-2.1913-31.54 4.3511-6.3707 5.7368-2.1277 15.255-3.0593 22.463-1.0895 9.1361-2.8538 18.279-6.4 26.81-8.7428 21.405-16.867 41.769-20.94 64.559-7.6265 42.669-10.18 86.183-16.605 129.06-3.0854 20.59-6.207 42.509-3.5031 63.282 1.1725 9.0083 3.6132 17.671 7.2781 25.983 2.7272 6.1852 10.304 19.608 1.53 24.582-6.6382 3.1848-15.226 0.9932-19.754 8.0487-4.8488 7.5563-5.5786 18.398-7.2516 26.981-4.3749 22.443-4.356 45.837-9.23 68.028-3.7784 17.203-15.878 36.22-34.39 38.339-9.398 1.0756-18.525-0.8232-27.905-0.426-11.591-0.519-23.014 1.7181-34.68 0.8838-9.5063-0.6799-16.694-3.6571-25.219-7.5516-6.5585-2.9963-16.49-2.8499-15.854-12.066 0.5776-8.3683 5.7482-16.924 13.037-21.053 9.3889-5.3181 15.391-9.4573 21.715-18.516 9.5373-13.663 25.798-21.336 33.705-35.892 9.8064-18.053 15.297-40.054 17.266-60.406 4.2155-43.558 1.1856-86.863-0.3274-130.46-0.7136-20.564-0.9483-41.132-1.1013-61.708-0.1677-22.561-3.3982-44.948-4.1913-67.48-1.2313-20.169-8.4216-38.766-14.008-57.974-6.4784-22.276-12.721-44.464-20.622-66.295-6.8012-18.792-20.773-30.616-31.797-46.797-12.492-18.335-21.902-37.053-28.095-58.364-5.4939-18.903-12.361-39.959-10.506-59.869 2.0706-22.222 7.4477-45.483 7.4477-67.721 0.5986-41.427-9.6666-81.644-30.49-117.63-19.518-34.944-40.522-77.691-76.153-98.318-18.955-10.973-37.764-12.248-59.22-12.774-22.443-0.5507-43.986 0.0414-66.127-2.7983-20.524-1.9931-41.361-2.2677-61.954-3.3775-8.8034-0.4744-18.833-0.4566-26.719-4.9714-8.2699-4.7346-11.642-13.89-18.656-19.926-13.428-11.558-19.639-24.45-25.766-40.976-2.8177-7.601-9.5603-15.258-9.8731-23.518-0.3826-10.102 9.3697-14.436 17.124-17.859 18.276-8.0675 37.334-15.086 56.51-20.686 21.011-6.1355 43.131-10.781 62.894-20.49 16.787-8.2478 25.083-20.319 35.122-35.281 10.181-15.173 34.042-24.34 50.02-31.983 16.434-7.861 37.2-13.527 51.305-25.303 7.0276-5.8673 9.2972-15.577 12.023-23.903 3.683-11.249 9.3064-21.646 13.428-32.715 5.8946-15.805 7.6403-32.744 14.85-48.2 0.98-2.62-2.99 6.41 0 0z" fill="inherit"/></g>
</svg>