<?xml version="1.0" encoding="UTF-8"?><svg xmlns="http://www.w3.org/2000/svg" height="297mm" version="1.1" viewBox="0 0 744.09448819 1052.3622047" width="210mm">
 <g id="change1_1"><path d="m636.88 269.16c-1.4966-0.0117-3.0479 0.0922-4.6738 0.33398-12.773 0.20529-25.648-0.40361-38.355 0.28906-3.5583 3.1761-11.826 4.3139-12.479 8.9336-3.6121 1.9718-6.8011 5.9316-9.2832 12.568-16.522 14.725-27.103 33.092-36.357 52.824-11.233 16.257-24.319 32.284-42.41 39.6-21.609 11.618-47.987 14.892-71.648 21.139-21.132-0.61655-41.451 6.3804-62.615 5.084-3.371-1.0048-6.4474-1.4317-9.2715-1.3984-13.358-2.9566-41.344 0.237-47.875-0.16992-13.413-1.3163-27.81-3.5708-40.717 0.79883-58.364 5.5216-97.727 49.985-135.1 84.516-18.315 18.031-35.504 31.841-60.545 30.375h-39.285c-8.3981 11.253 27.111 18.283 39.996 18.182 12.69 0.27638 25.712 0.68546 37.398-5.252 26.427-9.0824 45.063-38.752 65.205-50.078 4.9486-3.0574 10.157-5.5262 15.258-8.1582-0.11976 0.80198-0.18625 1.6181-0.17968 2.4492 1.6738 15.383 0.3828 31.881 8.5391 45.27 2.1135 12.708 13.052 22.292 12.908 35.297 5.4831 43.754 4.2593 55.686-26.684 92.129 0 0-6.4813 32.168 1.5762 58.424 3.3527 31.418-10.311 72.92 20.652 87.061 10.662-6.4485 37.951 7.5582 31.25-13.33 3.7754-16.843-16.997-8.7559-22.025-18.311-0.34079-32.77 7.4748-55.888 15.396-88.955 7.1362-13.382 16.165-26.175 29.463-35.104 7.8881-9.22 16.691-18.4 25.953-26.703 17.026-20.405 29.182-43.814 29.182-43.814 10.353-21.935 52.877 13.109 41.336-17.822 5.9729 1.4599 11.396 3.2116 15.504 5.7246 19.097 11.95 40.95 17.818 62.975 20.957 12.747 12.053 40.664 6.252 48.846 14.65 0.60314 22.188 5.5152 44.192 5.4277 66.479 0.36987 23.994 1.2684 47.75 5.293 71.35 0.84209 19.062 2.8271 40.334 7.9863 57.547 18.226 5.7822 40.4 4.6062 57.715-0.17578 1.9883-27.481-41.644-23.056-31.979-51.277 1.5182-18.494 0.9136-37.259 1.0137-55.924 6.7016-20.468 5.6304-42.322 12.949-62.656 7.1366-22.714 21.107-42.249 35.621-60.885 10.634-20.754 23.234-41.735 24.16-65.691 2.1447-20.178 13.058-37.051 20.102-56.592 1.0376-19.006 17.34-29.694 28.32-43.4 0.00168 0.1134 0.01704 0.22355 0.0664 0.32226 0.21296 0.42592 0.79681 0.58386 1.0098 1.0098 0.15058 0.30117-0.2381 0.77166 0 1.0098 0.23809 0.23809 0.77167-0.2381 1.0098 0 0.2381 0.23809-0.23809 0.77167 0 1.0098 0.2381 0.23809 0.77168-0.2381 1.0098 0 0.2381 0.23809-0.23809 0.77167 0 1.0098 0.2381 0.2381 0.67304 0 1.0098 0h1.75c1.8056 1.9432 8.2859 0.57808 13.688 0.99024 7.3842-0.13417 9.9762-1.5609 18.08-0.99414 8.1599 0.53639 16.179-0.82751 23.373-3.752 5.7401-2.7091 12.072-5.4981 14.68-11.955 3.4864-6.496 7.2965-13.134 8.3574-20.664 3.5135-3.6084 8.5686-6.8067 7.0664-12.33-1.8903-4.05-8.5115-7.4901-11.771-10.293-8.5414-1.5679-14.3-9.3733-21.951-13.062-5.7292-3.9165-11.996-6.5269-17.666-10.871-7.3815-4.0349-1.992-13.418-6.0137-19.342 1.6339-7.8769-7.5958-8.789-11.648-13.398-2.0648-5.0473-11.088-6.8504-12.42-9.9961-6.2092-2.6933-11.683-4.9239-18.168-4.9746z" fill="inherit" fill-rule="evenodd"/></g>
</svg>