<?xml version="1.0" encoding="iso-8859-1"?>
<!-- Generator: Adobe Illustrator 16.0.0, SVG Export Plug-In . SVG Version: 6.00 Build 0)  -->
<!DOCTYPE svg PUBLIC "-//W3C//DTD SVG 1.1//EN" "http://www.w3.org/Graphics/SVG/1.1/DTD/svg11.dtd">
<svg version="1.1" id="Layer_1" xmlns="http://www.w3.org/2000/svg" xmlns:xlink="http://www.w3.org/1999/xlink" x="0px" y="0px"
	 width="62.921px" height="94.412px" viewBox="0 0 62.921 94.412" style="enable-background:new 0 0 62.921 94.412;"
	 xml:space="preserve">
<g id="change1">
	<g>
		<path style="fill-rule:evenodd;clip-rule:evenodd;fill:#F4BC33;" d="M38.268,84.752c0,3.113,0,6.297,0,9.66
			c-4.818,0-9.312,0-14.125,0c0-3.229,0-6.411,0-9.75C10.756,80.775,1.628,73.207,0,58.29c5.221,0,10.052,0,15.155,0
			c1.189,4.688,2.91,9.216,8.593,11.03c0-5.56,0-10.855,0-16.388c-11.667-2.305-22.262-6.21-22.612-20.745
			C0.873,21.254,7.883,14.477,23.905,9.489c0-3.016,0-6.104,0-9.489c4.781,0,9.347,0,14.225,0c0,3.126,0,6.196,0,9.463
			c13.194,2.882,22.371,9.427,23.356,24.241c-5.245,0-9.986,0-14.854,0c-1.237-4.27-2.951-8.092-8.175-9.024
			c0,5.166,0,10.027,0,14.857c18.456,4.216,24.536,9.493,24.462,21.149C62.845,72.519,53.685,81.555,38.268,84.752z M38.451,55.1
			c0,5.018,0,9.753,0,14.505c6.293-0.806,10.193-3.966,9.908-7.927C48.086,57.874,44.481,55.422,38.451,55.1z M24.093,24.711
			c-5.356,1.049-7.88,3.691-7.49,7.46c0.341,3.284,2.854,5.057,7.49,5.109C24.093,33.188,24.093,29.096,24.093,24.711z"/>
	</g>
</g>
</svg>
