<?xml version="1.0" encoding="UTF-8"?><svg xmlns="http://www.w3.org/2000/svg" enable-background="new 0 0 1917.381 1650.341" version="1.1" viewBox="0 0 1917.381 1650.341">
 <g id="change1_1"><path d="m1688.2 26.048c60.699-0.715 67.32-2.643 110.98 7.68 2.792 0.961 6.439 2.595 5.894 6.19-4.729-1.493-26.684-3.496-30.751-3.647-23.286 37.771-21.951 32.988-22.685 39.301-1.589 12.621-3.413 25.227-4.653 37.879 4.446 53.711 4.632 47.003 8.157 54.571 22.8 47.555 15.469 36.85 54.374 87.228 2.354 2.478 42.445 44.334 55.07 53.178 22.902 14.748 15.146 10.418 23.585 20.263-11.471-5.834-22.064-13.211-33.391-19.295-33.608 44.933-51.85 60.847-74.145 141.67-0.26 1.622-7.239 47.603-6.454 51.302 11.269 60.611 9.134 50.822 12.757 59.156 32.075 72.076 29.746 67.534 31.666 69.696 13.123 15.596 9.391 10.895 12.969 19.514 0.984 2.8 2.361 5.478 3.087 8.376-0.091 2.807-1.12 5.486-1.755 8.202-6.424-17.806-17.232-28.738-18.818-30.774-9.451 0.224-84.453 2.738-89.854 3.715-86.561 23.847-80.663 22.097-83.21 23.426-64.898 34.358-62.598 32.387-65.391 35.132-53.776 51.787-47.725 45.404-50.727 50.78-42.254 74.222-28.913 45.035-66.117 138.3 13.888 25.6 11.647 22.701 15.61 32.922-8.278-10.956-15.648-22.564-23.441-33.861-193.27-57.326-241.28-46.555-275.86-45.059 1.703 2.043 3.36 4.23 5.819 5.433 0.469-0.114 1.415-0.348 1.892-0.469 0.462 0.272 1.392 0.817 1.854 1.09-1.337 8.661-16.029 4.961-22.791-1.506-4.873 1.642-9.973 2.421-15.111 1.945 4.116 3.503 8.164 7.09 12.281 10.601 1.279-1.846 2.626-3.647 4.162-5.297 1.241 3.45 1.907 7.044 2.383 10.669 4.646 5.017 20.805 16.187 30.236 24.221 3.42 3.117 8.331 3.216 12.409 5.039 6.643 2.883 13.264 5.849 19.734 9.11 1.65-1.415 3.322-2.807 5.062-4.116 0.598 2.505 1.15 5.024 1.74 7.544 32.475 16.116 29.067 10.725 42.714 24.675 0.795-2.444 2.331-4.517 3.897-6.507 5.348 14.126-3.315 11.659 22.488 34.148 4.229 3.577 0.917 4.503 9.504 9.451 2.777-3.329 5.334-6.961 9.057-9.33 0.333 4.6-0.59 9.133-1.339 13.65 6.182 5.493 12.576 10.767 18.508 16.548 3.745-3.314 6.583-7.801 11.32-9.829 0.454 6.182-1.536 12.129-2.505 18.167 6.469 6.341 12.757 12.863 19.257 19.174 1.468-0.469 2.928-0.938 4.427-1.37-0.5 1.551-0.976 3.133-1.468 4.706 6.091 5.91 11.895 12.107 17.804 18.205 1.029-0.575 2.058-1.143 3.125-1.672 0.349 4.108-2.671 3.701 6.114 12.553 1.566-0.568 3.034-1.362 4.578-2.02 0.159 2.61 0.159 5.221 0.159 7.847 7.151 8.558 14.558 16.919 21.444 25.696 2.346-2.126 4.82-4.154 7.748-5.433-0.227 4.396-2.088 8.422-3.39 12.568 1.506 2.406 3.042 4.805 4.464 7.287 30.494 6.564 37.319 11.369 54.222 18.099-1.256 0.666-2.512 1.332-3.73 2.035 2.557 2.353 5.334 4.472 8.028 6.696-1.549 8.338-0.181 8.245-5.509 17.471-5.418-0.991-10.805-2.27-16.321-2.573 1.112 2.429 2.921 4.426 4.752 6.356-0.197 7.96-1.861 8.286-4.767 12.5 7.438 12.523 14.429 25.318 22.344 37.553 1.294-0.825 2.595-1.642 3.957-2.383-0.56 1.899-1.18 3.791-1.846 5.667 23.543 39.2 10.179 20.821 58.301 129.07 1.044 2.293 1.423 4.805 1.907 7.271 12.275 64.948 11.455 55.365 20.142 70.665 33.114 56.773 55.351 71.133 199.36 210.75 3.396 3.638 4.607 3.994-2.792 11.312-4.308 0.207-3.845-2.241-43.697-36.025-256.24-210.32-152.1-120.92-277.22-336.44-0.685-1.003-91.769-128.79-124.22-154.19-46.596-37.862-55.917-48.906-59.807-43.705-2.52 3.367-5.584 6.454-7.007 10.503-1.332 2.815-1.914 6.258-4.563 8.217-21.494 17.644-21.166 18.15-25.015 19.688-3.488 1.99-8.074 2.883-9.965 6.825 0.838 1.014 37.213 59.809 56.205 79.881 1.922-1.067 3.867-2.096 5.834-3.095 4.275 0.673 8.724 0.386 12.901 1.634 2.141 1.725 3.882 3.912 5.592 6.084 2.162 0.185 14.362-0.256 19.424 11.985-3.836-0.076-6.969-2.928-10.798-3.133-2.603 0.348-5.085 1.286-7.65 1.801-1.498 3.155-4.313 5.1-7.408 6.492 2.02 4.82 6.379 8.24 11.093 10.253 25.536 3.069 12.477 2.135 43.72 9.821 1.362-7.309-3.655-14.505-1.294-21.762 2.081 0.151 4.169 0.28 6.273 0.363-0.247-8.96-5.181-11.042-5.97-15.421 7.8 3.219 16.396 15.118 18.667 19.401 2.164 1.127 4.056 2.663 5.993 4.154 4.44-13.073 3.119-8.59 0.757-18.47 7.499 4.434 10.578 14.815 7.491 22.813 5.306 4.365 3.249 9.578 1.438 28.798-0.375 9.709-7.315 12.878-13.105 21.777-2.482 4.434-7.945 5.221-12.001 7.62-4.26 2.588-9.345 3.011-14.203 3.042-4.691-2.875-8.785-6.56-12.848-10.222-4.018 1.006-7.892 2.55-11.948 3.367-18.005-1.927-17.109-4.832-23.54-8.361-4.154-2.981-9.511-4.245-12.863-8.278-0.959-1.001-16.851-16.613-29.275-33.619-7.966-16.391-48.75-56.822-54.798-57.68-85.139-6.411-116.98 8.274-135.8-2.732-55.141-30.99-32.498-46.136-32.075-59.443 0.404-9.96 6.562-28.257 10.563-33.089 15.338-20.855 9.6-12.524 20.316-21.202 14.017-11.309 22.943-12.385 24.811-13.181 18.833-10.045 0.402-5.953 30.743-11.063-22.181-5.657-75.231-18.874-91.806-32.831-38.825-34.419-20.641-13.307-43.372-38.741-29.642 37.171-22.402 24.04-43.584 67.177-33.188 112.61-10.304 21.774-51.067 147.48 11.057 29.711 9.102 23.377 10.851 35.843-4.653-10.321-10.487-20.029-16.072-29.858-0.605-1.271-1.967-1.755-3.11-2.338-50.784-24.496-44.414-23.399-101.32-41.473-4.2-0.083-40.747 1.506-45.241 2.119-13.658 6.379-27.058 13.287-40.693 19.711-3.201 1.385-5.637 3.935-8.24 6.167-48.136 41.873-32.074 22.523-68.652 82.469 1.771 3.11 2.845 6.666 5.145 9.451 5.07 4.6 9.927 9.511 15.807 13.12-2.565-0.265-5.183-0.28-7.657-0.984-1.002-0.527-12.08-7.699-13.317-10.071-6.653-12.131-2.698-7.958-9.897-14.43-65.524-56.567-45.874-41.405-67.646-51.915-35.611-15.788-34.609-15.72-37.826-16.253-50.955-9.556-48.433-9.437-51.506-9.33-70.441 4.075-8.76-9.366-181.86 19.514 1.264 8.58 4.048 16.881 4.775 25.552-5.066-6.748-4.885-2.307-11.025-24.41-2.156-0.673-3.049-2.845-4.29-4.502-27.123-38.734-40.896-60.325-66.791-81.493-26.352-20.369-21.321-16.97-28.882-19.794-35.668-12.908-34.535-12.811-37.296-13.06-49.069-4.913-34.069-5.096-84.489 4.623-1.112 6.341-3.117 12.538-3.571 18.977-2.194-0.522-3.571-2.588-3.503-4.79-0.83-30.576 10.735-45.637 18.417-67.865 6.423-15.099 140.65-136.93 163.48-155.19 3.473-2.391 8.588-2.701 10.306-7.143 13.924-5.582 9.237 0.919 13.325-5.062 13.651-5.136 99.615-9.992 171.92-19.968 1.012-0.13 45.546-6.32 59.269-6.712-15.511-22.881-9.93-31.711-0.991-41.125 0.883 7.349 6.85 24.402 12.44 27.293 5.145 3.352 10.972 5.372 16.541 7.877 5.176-2.141 9.852-6.25 15.769-5.766 3.246-0.507 5.614 2.232 8.293 3.587 2.421 1.763 5.894 2.671 7.052 5.72 1.468 3.065 0.984 6.598 1.68 9.867 1.339-0.288 2.663-0.613 4.003-0.916 34.729 27.136-32.338-18.451 134.34 79.609 32.695 16.737 20.682 10.789 40.481 16.087 18.672 4.322 54.21 14.957 83.99 7.324-3.08-3.45-6.439-7.824-5.009-12.727 1.697-8.961-2.988-15.036 3.435-22.586 36.458-1.829 19.034-8.692 35.117-8.868 14.355-8.444 8.645-15.128 26.468-16.223 10.394-15.748 1.425-5.197 17.986-23.267-2.49-13.117 10.605-46.295 21.27-62.909 6.083-9.739 2.494-3.353 3.904-19.673 1.063-52.31-31.937-89.311-32.105-138.1-3.322-4.593-7.362-8.823-9.012-14.377-1.286 0.341-2.565 0.689-3.836 1.044-4.704-5.856-3.453-7.614-10.359-23.267-1.021 0.272-2.043 0.537-3.049 0.817-2.573-5.516-5.047-11.07-7.642-16.563-4.363-0.963-1.954 3.558-7.203-14.77-3.868 0.32-1.197 2.431-12.084-14.467-0.673 0.129-2.013 0.393-2.686 0.522-2.936-5.864-5.433-11.925-8.134-17.895-0.598 0.166-1.786 0.492-2.376 0.658-2.043-4.896-4.517-9.579-6.787-14.362-0.424 0.204-1.271 0.613-1.687 0.825-2.383-2.194-4.313-4.843-6.893-6.818-0.371 0.272-1.112 0.81-1.475 1.082-3.549-3.594-6.394-7.786-9.655-11.622-0.537 0.151-1.612 0.469-2.149 0.628-6.023-5.304-10.661-12.432-18.205-15.761-5.407-2.584-9.618 0.602-15.413-1.15-2.315 0.045-4.623 0.242-6.916 0.492-4.617-5.162-12.199-2.204-31.061-5.804-13.506-1.332-27.588 0.061-40.02 5.773-19.598 10.031-24.296 1.476-37.478 4.063-3.927 0.711-7.657 2.24-11.615 2.792 1.226-3.276 2.225-6.666 3.889-9.753 2.709-2.149 5.849-3.738 8.649-5.804 0.121-3.738 0.832-7.604 3.117-10.661 1.226 0.386 2.452 0.779 3.693 1.18 1.975-3.337 3.867-6.833 7.014-9.246-1.933 12.898-0.783 5.02-0.136 15.746 0.333-6.137 3.329-11.986 8.467-15.444-0.499 2.232-1.551 4.366-1.687 6.666 0.484 2.308 1.695 4.366 2.777 6.439 1.574-2.194 2.664-4.661 3.67-7.143 0.81 1.861 1.476 3.791 2.194 5.705 0.454-2.028 1.09-4.025 2.3-5.743 1.634 1.12 3.049 2.52 4.268 4.094 0.545-1.317 1.165-2.595 1.831-3.844 1.037 0.825 2.058 1.665 3.08 2.52 0.431-3.223 1.279-6.477 3.405-9.035 0.446 2.648 0.749 5.335 1.513 7.922 3.049-1.423 3.095-5.365 5.145-7.763 0.363 2.013 0.462 4.063 0.772 6.099 1.037 0 2.081-0.091 3.133-0.151 0.371-1.634 0.742-3.269 1.135-4.896-4.338-3.8-18.179-10.904-20.097-9.678-3.435 1.339-6.53 3.587-10.162 4.343-5.002 0.492-10.132-0.023-14.982 1.551-3.64 1.233-7.408 0.265-11.017-0.469-1.869-2.436-4.169-4.729-4.752-7.869 2.762 1.521 4.472 4.396 7.362 5.811 6.813-0.868 14.783-9.682 30.312-13.189 11.912-1.744 33.796 12.411 38.484 15.118 9.761-6.888 3.187-1.663 16.609-18.311 15.148-3.005 9.472-3.662 15.383-1.702 3.265-0.703 6.14-2.877 13.749 2.853 0.787-4.154 1.309-8.361 1.937-12.538-0.613-1.188-1.249-2.361-1.877-3.518-1.196 0.174-2.376 0.348-3.556 0.53-0.212-0.356-0.628-1.059-0.84-1.415-1.952 0.953-4.018 1.589-6.137 1.982-0.265-1.748-0.446-3.511-0.605-5.266-2.194-1.453-0.757-3.761 0.31-5.44 0.371-0.113 1.112-0.325 1.483-0.431-1.15 0.121-2.278 0.257-3.405 0.409-0.174-0.325-0.53-0.984-0.704-1.309-1.37 0.969-4.025 2.368-4.744-0.061-1.619 0.779-3.329 1.354-5.07 1.808-0.575-1.816-0.363-3.685 0.068-5.493-0.696-0.386-1.385-0.772-2.058-1.165-1.15 1.536-2.383 3.004-3.685 4.411-1.377-3.851 1.589-7.249 3.133-10.54-0.628 0.076-1.884 0.235-2.512 0.31-0.121-0.446-0.363-1.347-0.484-1.793-1.824 0.87-3.67 1.703-5.501 2.542 0.31-2.088 0.628-4.177 1.006-6.25-1.733-1.362-3.587-2.535-5.539-3.549-1.604 1.301-3.178 2.641-4.744 3.988 0.167-2.3 0.477-4.608 0.363-6.908-0.726-1.786-2.626-2.762-3.889-4.139-1.687 2.293-2.936 4.873-4.722 7.098-3.384-0.462-1.46-8.719-0.28-12.144-0.749-0.742-1.491-1.483-2.225-2.209-1.392 0-2.974 0.219-3.587-1.354-1.657 1.15-3.481 2.005-5.372 2.663 0.257-2.459 0.689-4.896 1.362-7.272-0.84-0.855-1.264-1.892-1.286-3.095-1.09 1.332-3.269 1.96-4.01-0.038-1.763 3.186-2.633 6.863-4.964 9.716-1.581-5.191-1.385-10.624-0.492-15.92-2.769 3.133-5.077 6.659-6.719 10.502-0.953 2.096-1.657 4.442-3.609 5.864-2.683-14.132 1.057-16.297 2.383-24.243-1.71-0.931-3.359-1.982-4.903-3.17-2.035 0.916-4.094 1.786-6.144 2.648-1.202-4.77-2.417-6.006 3.065-9.224 2.474-3.98 6.303-6.795 9.602-10.041 2.489-0.378 4.964-1.029 7.499-1.105 2.868 0.325 5.304 2.24 8.232 2.399 10.639 1.072 10.985 5.46 30.304 4.449 9.627-0.566 6.405 8.768 8.891 14.074 0 0 7.458 10.278 33.074 35.805 4.861 0.082 0.777-1.656 12.742 5.123 2.096-0.59 4.525-0.696 6.167-2.308 2.883-2.429 6.394-5.395 10.457-4.23-0.825 1.899-1.861 3.7-3.095 5.365 1.211-0.363 2.444-0.719 3.685-1.052 1.423 0.333 3.186 1.574 4.525 0.386 4.01-3.027 8.785-6.56 14.104-5.501-1.597 2.603-3.783 4.729-5.94 6.848 4.57 0.711 9.095 1.763 13.143 4.109 2.943-0.764 6.25-1.264 8.808 0.802-0.477 0.53-1.423 1.597-1.892 2.126 1.082 3.488 2.096 7.007 2.709 10.616 1.536-0.386 3.889-0.62 4.434 1.347-0.401 0.855-0.923 1.642-1.377 2.459 13.359 6.654 7.883 4.483 16.813 10.412 0.068 0.469 0.204 1.4 0.272 1.861 1.597 0.84 3.466 1.521 4.328 3.246 4.809 5.595 1.873-1.317 17.608 5.13 4.155 2.517 2.472 0.188 10.881 13.802 5.448-0.667 10.954-1.844 14.233 8.906-3.473-1.332-6.364-4.616-10.351-4.146-3.011 0.061-6.046 1.665-9.004 0.462-4.949-1.445-4.57-8.263-9.05-10.359-2.792-1.256-5.743 0.272-8.422 1.074-2.504-0.817-5.35-0.446-7.521-2.149 0.189 1.808 0.363 3.624 0.545 5.44 2.406 0.462 4.631 1.498 6.364 3.261 0.666 1.892 1.301 3.798 1.566 5.804-1.907-0.946-3.632-2.187-5.335-3.428-5.085 3.942-10.328 7.65-15.92 10.828 0.484 0.673 0.976 1.354 1.483 2.035 5.055-2.421 10.669-1.407 16.041-1.264-2.989 3.594-5.607 7.673-9.708 10.124 1.589 1.967 3.148 3.972 4.737 5.955 6.613-2.111 13.204-4.328 19.832-6.409-8.607 12.807-5.292 8.929-12.682 15.383 0.469 0.636 0.946 1.279 1.438 1.93 5.123-2.558 10.571-4.389 16.132-5.736-3.004 4.487-6.908 8.308-11.373 11.335 1.392 1.695 2.815 3.382 4.215 5.085 5.244-3.216 11.108-5.282 17.086-6.636-2.845 5.085-6.583 9.693-11.176 13.302 1.213 1.849 2.263-0.028 11.305-1.634-1.771 2.55-3.874 4.873-6.379 6.712 2.724 2.747 5.274 5.66 8.051 8.354 12.28-6.431 25.611-10.013 29.374-10.714-3.016 5.682-5.667 6.096-19.431 20.876 1.634 1.703 3.223 3.45 4.858 5.176 12.358-8.238 21.439-11.918 24.569-12.818-4.313 8.058-10.503 14.921-15.958 22.208 2.732 3.08 5.448 6.182 8.217 9.239 8.104-4.517 16.503-8.46 24.781-12.667-4.139 5.259-7.067 11.305-10.964 16.722-1.99 2.626-1.771 6.144-3.133 9.065 7.161 7.681 2.299 0.769 13.174 14.702 1.029-1.301 2.149-2.535 3.337-3.693 0.688 2.928 0.908 5.963 1.702 8.883 1.377 1.309 3.443 1.982 4.252 3.851 11.424 23.301 54.07 95.811 85.034 115.35 3.882 0.704 7.71-0.265 11.418-1.324 12.678 2.528 33.935 6.931 44.802 14.641 58.788-23.138 29.51-15.773 82.378-23.404 9.564-0.288 19.113 1.044 28.685 1.112 45.5-1.88 30.389 0.478 65.92-11.857 2.966-0.855 15.697-12.602 18.41-17.297 19.059-37.523 22.621-76.599 21.958-80.214-6.152-25.59-11.932-51.264-18.046-76.854-26.707-78.501-27.268-68.646-41.881-87.569 0.575-1.241 1.203-2.459 1.861-3.662-4.146-1.105-8.255-2.497-11.69-5.145-5.905-16.426-5.529-16.846-3.859-21.512 2.353-2.52 5.395-4.313 8.021-6.553-5.761-15.415-3.183-15.996-45.294-23.071-5.524-0.318-11.062-0.477-16.586-0.446 1-0.381 23.582-10.9 37.879-10.601 22.393 0.024 23.576-1.756 43.047 6.628 2.364 0.851 10.218 10.115 10.677 13.416 27.979-63.767 56.684-65.312 116.75-191.06 21.862-45.326 17.04-38 23.661-40.315 0.227-3.428 2.505-6.182 5.16-8.142 25.174-16.12 264.08-99.498 287.48-98.197m-874.82 408.1c-0.159 2.603-0.552 5.191-1.127 7.733 4.056-1.491 8.119-3.814 12.583-2.558-0.459-12.27-10.221-5.554-11.456-5.175m-108.93 13.567c0.931 0.151 1.877 0.303 2.83 0.469 0.825-1.619 1.778-3.17 2.928-4.578 1.332 1.748 2.391 3.685 3.254 5.713 0.318-0.363 0.946-1.097 1.256-1.46 0.34 0.401 1.021 1.203 1.354 1.604 1.014 0.008 2.035 0.03 3.065 0.083 0.522-1.733 1.233-3.405 2.081-4.994 1.226 1.309 2.376 2.694 3.511 4.101 0.212-0.416 0.636-1.248 0.847-1.665-5.055-10.378-6.472-8.523-9.443-9.231-4.562 2.49-8.444 5.91-11.683 9.958m-30.19-0.394c0.439 1.112 0.938 2.255 1.415 3.375 0.734-0.227 1.468-0.454 2.217-0.681-1.211-0.9-2.429-1.808-3.632-2.694m130.31 455.29c0.393 3.647-0.348 7.816 1.589 11.1 0.099-3.723 0.083-7.703-1.589-11.1m380.04 201.42c-3.133 0.916-5.94 2.663-8.951 3.897 6.636 0.696 13.196-0.605 19.787-1.218 2.709-0.098 4.699-2.164 6.833-3.564-5.835 1.18-11.783 0.597-17.669 0.885z" fill="inherit"/></g>
</svg>