<?xml version="1.0" encoding="UTF-8"?><svg xmlns="http://www.w3.org/2000/svg" version="1.1" viewBox="0 0 1251.4 1574.2">
 <g id="change1_1"><path d="m1100.7 981.7 22.627-12.374-27.754 74.423-15.556-9.3691z" fill="#ce1126"/></g>
 <g id="change2_1"><path d="m946.45 105.54c-8.3289-35.507 14.599-67.083 9.5578-92.07-228.17 189.37-345.07 450.26-345.07 450.26 68.407 36.608 51.673 120.78-17.15 130.43 31.843 22.67 124.36 19.535 182.71-7.3126z" fill="inherit" stroke="#000" stroke-width="8.16"/></g>
 <path d="m1055.6 45.729c0.6636-4.3043 0.8253-5.9027 1.2982-8.0149" fill="none" stroke="#00f" stroke-width="8.16"/>
 <g id="change2_2"><path d="m20.517 755.74c11.036-19.205 41.762-36.538 63.07-29.025 6.5895 3.7906 15.713 14.397 16.75 16.79 0.96807 2.1937-33.096 22.739-34.82 21.738-6.2266-3.615-18.454-11.111-45-9.5025z" fill="inherit" stroke="#000" stroke-width="8.16"/></g>
 <g id="change2_3"><path d="m13.298 865.71c-6.142-18.252 0.23656-41.362 30.825-60.458 7.303-2.1112 19.759-1.7982 22.201-0.88335 41.631 6.2579-7.4846 32.127-10.896 32.721-6.1265 1.0661-30.373 5.2421-42.13 28.621z" fill="inherit" stroke="#000" stroke-width="8.16"/></g>
 <g id="change2_4"><path d="m58.675 934.47c-11.438-17.264-10.027-47.594 11.925-63.947 6.8564-3.2833 19.41-5.7252 21.97-5.2244 2.3562 0.44482 4.9803 33.407 3.388 34.607-4.9652 3.7439-27.855 11.624-37.283 34.564z" fill="inherit" stroke="#000" stroke-width="8.16"/></g>
 <g id="change2_5"><path d="m248.39 924.59c27.876-17.264 32.712-55.156 7.473-66.248-6.8565-3.2833-19.41-5.7252-21.97-5.2244-2.3562 0.44482-4.9803 33.407-3.388 34.607 4.9651 3.7439 17.992 10.967 17.885 36.865z" fill="inherit" stroke="#000" stroke-width="8.16"/></g>
 <g id="change2_6"><path d="m207.19 1064.3c9.8563-14.271 40.919-17.252 63.691-2.1212 5.2665 5.4823 14.195 11.596 14.522 14.184 9.5346 20.432-31.973 20.964-37.72 16.692-6.0165-4.4715-16.25-29.058-40.492-28.756z" fill="inherit" stroke="#000" stroke-width="8.16"/></g>
 <g id="change2_7"><path d="m233.04 1097.4c-6.4162-2.4897-11.793-2.7548-16.438-7.5618-5.2234-0.6774-14.347 1.9086-24.466 8.1792s-21.234 16.226-21.234 21.082c6.0554-2.6361 7.7104-2.1877 12.165-2.3015 4.1515-0.1059 7.263-0.3765 10.192 0.6576 9.7706 3.4497 20.384 15.124 20.384 15.124s25.789-5.7338 28.932-8.8769c10.377-10.377-5.3162-28.411-9.5345-26.302z" fill="inherit" stroke="#000" stroke-width="8.16"/></g>
 <g id="change2_8"><path d="m189.31 1219.7c-6.2264-35.566 17.922-71.344 55.562-71.344 7.514 1.153 12.962 6.6914 14.795 8.548 1.6954 1.6955-4.5835 37.715-6.5754 37.809-6.2116 0.2936-43.34-5.1553-63.782 24.987z" fill="inherit" stroke="#000" stroke-width="8.16"/></g>
 <g id="change2_9"><path d="m350.74 1234.5c6.439 8.4629 11.376 13.964 15.452 24 1.0218 2.5163 11.769 16.767 2.6301 38.138 6.2923-1.9726 14.208-10.396 20.384-19.726 4.8827-7.3766 12.966-27.066 10.155-35.122-2.2759-6.5223-1.8692-7.0839-3.5796-11.892-1.1405-3.2064-21.506-23.207-23.014-21.699-6.4148 6.4147-23.035 16.228-22.028 26.302z" fill="inherit" stroke="#000" stroke-width="8.16"/></g>
 <g id="change2_10"><path d="m524 1388.7c-11.29-5.6541-33.181-6.0544-40.439-3.2877-10.895 4.1532-20.264 12.265-24 17.425-2.8012 3.8678-6.0204 14.795-4.6029 26.302 12.825-11.508 26.98-8.1197 28.603-8.2193 11.747-0.7203 33.742 5.0535 39.452-0.6574 8.0514-8.0514 9.4072-28.755 0.9864-31.562z" fill="inherit" stroke="#000" stroke-width="8.16"/></g>
 <g id="change2_11"><path d="m510.52 1448.9c-12.021-7.5967-26.739-6.8875-39.564 0.9465-19.616 11.982-26.154 38.707-22.903 50.671 7.529-11.027 20.872-17.733 29.589-17.425 13.781 0.4874 13.22-1.2009 22.04-3.4818 11.235-2.9054 22.951-20.936 10.837-30.71z" fill="inherit" stroke="#000" stroke-width="8.16"/></g>
 <g id="change2_12"><path d="m517.43 1564.9c-2.1637-12.788-2.0066-34.634 6.9041-48.001 5.3496-8.0244 28.02-36.554 38.466-29.59 5.783 3.8553 12.897 14.108 14.466 20.384 6.114 24.456-15.678 22.316-34.521 32.548-8.5572 4.6466-15.499 13.307-25.315 24.658z" fill="inherit" stroke="#000" stroke-width="8.16"/></g>
 <g id="change2_13"><path d="m746.27 1428.4c26.565-1.2044 47.343 22.7 53.935 34.872 1.4275 2.6356 3.7196 13.484 3.7196 13.484s-18.164-7.4289-21.388-8.3693c-11.16-3.2551-46.484 2.3356-52.075-3.2547-18.138-18.138 3.2251-28.867 15.808-36.731z" fill="inherit" stroke="#000" stroke-width="8.16"/></g>
 <g id="change2_14"><path d="m759.29 826.87s29.757-8.3117 46.495 2.7898c-12.089 4.6959-30.687 26.037-30.687 26.037z" fill="inherit" stroke="#000" stroke-width="8.16"/></g>
 <g id="change2_15"><path d="m804.39 924.89s31.617-4.5921 44.636 9.2991c-12.089 4.6959-26.967 19.528-26.967 19.528z" fill="inherit" stroke="#000" stroke-width="8.16"/></g>
 <g id="change2_16"><path d="m603.33 260.72s34.241 28.518 42.348 52.508c-15.084-10.169-29.238-11.968-42.462-16.558z" fill="inherit" stroke="#000" stroke-width="8.16"/></g>
 <g id="change2_17"><path d="m589.86 379.76s29.876 23.13 26.444 41.22c-11.355-6.8925-33.133-8.4474-33.133-8.4474z" fill="inherit" stroke="#000" stroke-width="8.16"/></g>
 <g id="change2_18"><path d="m565.92 492.44s29.592 17.359 29.329 35.769c-12.373-4.8318-34.093-2.6093-34.093-2.6093z" fill="inherit" stroke="#000" stroke-width="8.16"/></g>
 <g id="change2_19"><path d="m1176.8 749.14c-0.5062 9.2948-0.1161 17.322-1.3948 26.154m27.167-1.7035s9.2056 1.3151 43.398 30.247-11.836-89.426-74.96-192c-5.2603 101.26-47.343 168.33-47.343 168.33 29.654 0.54473 39.068-2.2626 51.833-5.7253-4.8362 66.308-15.717 102.39-36.361 144.99 9.9575 20.861 9.9186 42.884 14.064 64.21 44.452-59.505 54.148-176.3 43.95-239.68" fill="inherit" stroke="#000" stroke-linecap="round" stroke-width="8.16"/></g>
 <g id="change2_20"><path d="m41.046 223.09c23.26-10.333 42.73-3.7824 63.535 14.007 3.2362 6.8788 7.2357 17.805 6.7175 20.362 2.498 22.408-30.551 9.0357-34.63 3.1505-4.27-6.1613-15.049-30.893-35.623-37.519z" fill="inherit" stroke="#000" stroke-width="8.16"/></g>
 <g id="change2_21"><path d="m1064.7 10.342c-194.26 141.74-369.92 342.07-422.37 448.94 77.311 29.291 60.228 161.19-49.471 134.39-8.9614-3.0236-25.613-14.292-25.691-14.357-10.319-58.223-3.7428-72.688-2.4277-102.28 0 0 21.04-78.248 26.301-105.87 0 0 24.099-97.057-3.9453-172.28-12.281-32.938 27.617-48.659 46.479-49.104-10.432-20.187-10.866-60.463 7.6523-78.051 3.4811-3.3062 2.4219-8.8125 2.4219-8.8125s-13.139 22.895-73.629 45.504c-24.557 9.1783-54.064 32.235-59.32 45.041l-1.8203-1.8008c-232.48-121.1-30.22 73.927-62.303 170.17-8.0894 61.238-46.769 130.69-87.645 171.57-10.121 10.121-10.184 31.628-14.879 43.707-10.053 25.862-8.6699 58.557-16.738 82.762-6.6217 19.865-13.018 38.106-13.018 58.584 11.406 20.528 12.885 24.044 6.2715 26.975-35.061 15.538-79.828 48.008-89.861 51.053-8.9133 2.7043-23.955 10.333-32.219 14.465-9.1337 5.4754-25.645 9.8633-25.645 9.8633s-21.716-14.916-36.822-33.535c-2.618-3.2268-11.65-6.3878-13.809-8.5469-5.1553-5.1553-3.0118-10.384-8.5488-13.152-8.6985-1.3309-20.383-2.6289-20.383-2.6289-0.96185-2.728-8.5489-1.4717-16.439 2.6289 12.079 5.5273 18.82 12.15 21.043 21.043-13.969 2.6769-28.495 7.4518-36.824 15.781-1.4944 7.8386 6.8032 14.767 10.521 19.725-10.395 5.4468-17.225 7.7457-19.727 17.754-0.72095 5.3345 17.134 9.0573 24.33 15.123-10.306 9.3051-20.385 21.052-20.385 30.906 3.2114 4.2046 6.2276 2.6289 11.178 2.6289-10.15 17.502-3.9453 28.932-3.9453 28.932s14.719-9.7237 31.562-9.2051c-5.5523 9.1188-0.65625 33.535-0.65625 33.535-0.42535 0.2127 23.377 2.58 38.795-1.3144 11.031-24.745 31.243-56.092 53.918-61.811 12.043-1.1153 19.879 7.6146 23.672 17.098 1.8838 8.5299-1.9727 19.27-1.9727 25.643 4.4363 8.5392 14.766 6.4734 21.041 11.18 12.117-3.3476 13.809-29.59 13.809-29.59s6.9604-0.46449 26.301 5.918c5.5762-3.8987 7.8906-12.893 7.8906-17.754-0.7599-9.6597-34.024-21.763-32.877-34.193 0.8812-9.5511 33.495-18.177 49.975-23.67 24.986-8.3288 42.128-13.808 75.506-13.361 67.019 65.009 70.586 52.987 147.02 105.88-5.7128 9.9959-11.327 15.977-18.598 23.248-17.796 17.796-86.806 49.564-66.953 89.27 8.3064 16.613 39.845 75.607 31.617 92.063-6.7002 13.401-55.033 28.911-66.023 34.406-29.232 2.1227-34.67 0.6682-62.393 0.6875-4.4504 0-39.777-34.877-51.406-59.768-2.6083-5.5829-15.469 0.7207-15.469 0.7207s4.6602 18.195 4.6602 21.707c-0.4932 0.1475-11.653 0.424-18.842 0.0742-7.1889-0.3492-10.408-1.3242-21.326-2.3672-13.094-1.251-13.166 8.5391-13.166 8.5391 9.2261 6.1397 10.94 12.28 16.41 18.42l-20.9 17.734s4.8461 2.5548 5.4199 9.1289c-8.3003 3.5129-19.575 20.304-17.283 25.605 12.479 1.0005 19.529-5.4186 39.057-3.7187-3.7196 9.9014-9.6605 27.257-4.707 32.978 2.4739 5.9463 8.2737 9.9337 20.654 10.734 8.0526-5.0753 16.965-14.105 22.23-15.984 11.787-4.207 51.026-5.4706 57.16-2.959 2.6021 1.2157 11.528 31.064 2.4746 50.953-4.3825 9.6277 12.203 12.201 21.92 17.973 0 0 9.2527-17.146 9.4121-29.588 7.2361 1.5996 26.854 14.775 26.854 14.775s9.5162-10.823 7.084-19.736c-0.9435-3.4578-22.799-27.296-23.193-36.898-0.5578-13.58 30.182-13.976 83.232-19.957 19.904-2.2441 70.432 12.073 106.94 22.318 32.611 9.1519 50.614 5.58 50.215 5.58 0 0-24.959-9.8004-52.139-51.154 0.682-6.0417 6.4999-14.87 13.082-26.029 37.543 0 88.205 78.906 110.66 101.36 5.8786 5.8785 12.486 35.337 13.02 47.426 0.2085 4.7269-5.3235 7.8578-7.4395 12.09-11.245 22.49-26.95 46.746-41.207 69.197-28.057 41.749-40.832 57.977-55.25 54.48-7.4411-1.8046-19.495-0.0165-38.053-6.4277-20.523-7.0894-41.737-17.969-48.682-14.961-21.943 9.5025 7.0882 14.65 0 28.826-3.2843 6.5685-33.24 21.777-33.477 39.057 6.9043 2.3015 12.375 2.5017 19.014 12.221l-16.225 26.836c4.3131 10.326 13.458 11.602 16.959 8.3203 16.094-15.086 37.296-18.712 41.625-18.549 5.9904 0.2257-14.226 12.289-17.982 16.443-3.7562 4.1546 1.272 5.9275 4.9648 9.5938 8.4998 8.4383 25.007-9.3987 33.477-0.9297 7.2157 7.2157-11.063 28.785-6.9746 36.963 14.992 4.4106 31.504 1.8715 34.188-3.8282 15.02-31.907 44.294-67.447 60.197-77.771 10.29-0.061 48.026 8.8051 71.279 27.42 4.6945 3.7583 16.204-6.7035 29.096-15.115-4.4105-11.395-13.636-8.4987-13.254-20.728-1-1.5307 12.595-11.675 18.334-16.48 1.169-0.9791 3.3189-4.2372-2.2578-5.3868-22.824 0.7108-58.057-4.8151-63.812-7.289 6.3972-14.6 13.418-46.265 37.799-74.938 20.013-23.535 46.531-62.1 79.041-86.482 18.067-13.551 33.148-38.726 49.285-54.863 0.37174-0.3718 0.94756-0.8377 1.5801-1.3223-16.911 6.6845-59.427 10.429-67.604 2.252-6.0063-6.0063-17.804-32.026-20.457-39.986-1.0959-3.2876-8.116-9.2988-4.6504-9.2988 14.932 0 32.96-69.74 38.592-82.297 72.382 13.608 139.63 90.387 241.31 52.539 121.77-45.326 126.47-144.02 91.664-221.23-41.191-91.376-181.73-132.88-233.01 12-14.563 41.142 5.9669 96.919 47.875 122.53 39.366 24.057 101.65 28.647 134.94 0.9902-50.139 70.842-165.63 38.842-245.12-54.707-14.82-17.442-30.131-36.274-42.141-57.264 0 0 0.40857-47.416-54.453-109.73-7.7286-13.388-12.776-13.195-6.625-25.498 85.817-120.65 174.13-250.16 217.6-377.54 36.189-114.14 27.901-251.76 100.43-368.24l-0.4024-1.4434c1.8678-7.2267 2.1875-13.108 7.8164-32.486zm-205.76 1189.4c2.6544-1.0492 4.6998-2.1686 5.8594-3.3281 1.696-1.6961-2.9736 1.1172-5.8594 3.3281zm-395.39-1040.2c8.7667 17.079 18.265 26.387 29.291 40.451-18.936 5.1486-28.275 7.3288-54.398 11.158 0 0-18.57-25.705-26.039-44.867 32.246-1.6018 51.146-6.7422 51.146-6.7422zm557.96 707.28c47.926 0.97656 100.72 47.229 86.934 118.47-4.0377 20.859-11.04 37.839-20.34 51.219l22.432-73.305c-32.666 39.012-76 54.635-108.91 44.207-32.912-10.428-57.495-45.277-45.686-89.074 9.8131-36.394 36.816-52.107 65.572-51.521z" fill="inherit" stroke="#000" stroke-width="8.16"/></g>
 <g id="change2_22"><path d="m1057.1 41.887c-192.74 138.82-349.03 411.47-349.03 411.47 65.896 48.835 45.936 138.31 17.117 180.83-32.001 50.85-91.633 55.671-135.47 46.028-5.7365-2.268-12.022-6.019-16.32-7.2994 125.45 82.787 143.25 184.84 143.25 184.84 44.932-78.905 102.34-101.28 179.49-73.663-26.302-87.234 22.832-144.19 103.05-163.04-48.977-62.646-14.599-145.26 74.747-189.4-70.882-71.798-41.007-191.12 43.159-251.18-41.698-24.413-68.952-83.608-59.989-138.59zm-483.54 631.04c-26.863-7.9467-32.582-7.9155-32.582-7.9155 22.058 3.844 28.621 5.3486 32.582 7.9155z" fill="inherit" stroke="#000" stroke-width="8.16"/></g>
 <path d="m584.6 182.94s3.1233 1.7518 14.282 12.911c-21.125-0.54473-32.166-0.0564-32.166-0.0564" fill="none" stroke="#000" stroke-width="8.16"/>
 <g id="change2_23"><path d="m45.651 474.49c18.039 17.955 38.565 18.786 64.349 9.5956 5.4784-5.2704 13.115-14.049 13.543-16.622 10.332-20.04-25.313-19.346-31.224-15.305-6.188 4.2311-25.086 23.486-46.669 22.331z" fill="inherit" stroke="#000" stroke-width="8.16"/></g>
 <g id="change2_24"><path d="m20.104 411c-5.134-20.063 6.1585-48.248 32.263-56.485 7.5544-0.84962 20.214 0.96648 22.467 2.2801 2.0794 1.1939-6.2664 33.19-8.1646 33.801-5.9193 1.9057-30.127 1.8322-46.566 20.404z" fill="inherit" stroke="#000" stroke-width="8.16"/></g>
 <g id="change2_25"><path d="m4.9074 312.86c2.2943-20.582 27.758-39.991 55.088-38.463 7.3665 1.8774 15.935 6.7388 17.578 8.7646 1.5227 1.8522-17.601 28.828-19.592 28.728-6.2108-0.31093-31.129-10.586-53.074 0.97031z" fill="inherit" stroke="#000" stroke-width="8.16"/></g>
 <g id="change2_26"><path d="m448.93 309.99c-0.6794 4.4385-6.6927 17.651-1.6273 20.69 11.623 6.9733 34.544 10.28 40.3 3.3028 8.6069-10.432 7.5449-29.895 5.7299-43.754-1.5486-3.0974-30.725-7.9613-33.709-7.2068-6.8746 1.7381-7.1747 3.9774-10.694 26.967z" fill="inherit" stroke="#000" stroke-width="8.16"/></g>
 <g id="change2_27"><path d="m443.58 463.66c21.037-10.643 52.229-109.03 41.846-117.17-9.9047-7.7635-25.445-9.5532-38.126-10.229-13.904-0.741-24.214 58.883-55.147 91.05-7.7793 8.0896-1.0409 19.642 4.9318 22.398 26.661 12.305 25.979 14.017 46.495 13.949z" fill="inherit" stroke="#000" stroke-width="8.16"/></g>
 <path d="m810.9 973.25c-1.3996-16.158-5.8982-33.051-9.2991-48.355" fill="none" stroke="#000" stroke-width="8.16"/>
 <path d="m810.9 1019.7c0.3678 19.4-0.5971 33.408-5.5795 48.355" fill="none" stroke="#000" stroke-width="8.16"/>
 <g id="change2_28"><path d="m327.35 610.58c-10.667 7.6397-27.573 1.9192-36.266 9.2991-11.994 10.182-5.569 29.757-4.6495 48.355-17.327-12.089-61.158-90.026-76.252-127.4-6.4865-16.06-24.974-49.136-35.801-68.116-10.154-17.8-20.654-21.535-20.646-27.596 0.012-9.0184-1.4874-7.7684-7.1162 0.0729-10.762 14.992-17.478 37.534-23.615 42.169-7.3986-0.0127-9.3034 0.55344-16.078 0.65532 0.19981-5.4776 2.7367-22.113 0.96688-27.702-4.6869 0-25.072 3.5094-30.687 2.637-0.57898-4.649 1.5066-13.429 1.4718-17.216-0.009-0.94894 24.801-18.156 30.61-30.907 6.3932-14.033 4.1765-26.699 12.554-36.499 3.4872-4.0794-8.3513-5.5997-10.584-5.1451-9.2694 1.8867-27.628 13.887-28.937 15.839-2.4582 3.6665-4.2057 4.6326-9.284 6.2808-2.2116 0.71774-7.6926-1.6777-11.871-3.7235-1.9706-6.3877 7.4858-21.847 11.254-27.748-6.4611-1.4834-16.286-2.2417-31.712-0.61432-0.14259-6.5094 2.0912-18.943 5.9956-20.253 31.791-10.668 61.153-9.8898 77.929-7.8767 1.8593 0.22312-9.2678-2.654-13.949-3.9521-33.578-9.312-48.261-5.9505-63.234-12.554-10.555-4.655 7.4416-17.341 23.248-25.107-4.1385-9.3912-18.429-18.336-14.879-19.528 8.1208-2.726 15.388-7.4732 23.617-15.094 9.9374 1.3551 22.391 5.2443 27.76 7.1893 6.0972-13.889-7.825-28.041-8.6016-34.174 7.3248-2.2102 6.3443 1.4048 13.746-1.3732 6.519-2.4466 16.265 41.709 17.87 48.101 5.9042 23.514 26.401 29.804 28.362 43.241 3.4997 23.983 7.1205 65.24 39.521 103.68 20.565 24.402 149.57 95.795 155.01 106.68 7.5276 15.055-16.86 70.75-25.755 78.375z" fill="inherit" stroke="#000" stroke-width="8.16"/></g>
 <g id="change2_29"><path d="m438.93 475.75c-4.8562 26.095-13.443 46.414-25.108 69.743-6.866 13.732-13.633 33.775-19.528 45.565-5.4042 10.808-42.093 6.4409-62.672 3.3011-10.209-1.5575-13.317-8.778-11.72-17.25 4.7722-25.327 18.32-56.232 31.279-80.946 12.96-24.714 25.331-39.519 31.472-40.086 33.482-3.0923 42.059 4.4207 56.277 19.673z" fill="inherit" stroke="#000" stroke-width="8.16"/></g>
 <g id="change2_30"><path d="m392.11 596.85c-9.2393 3.449-58.255-2.0758-58.255-2.0758-8.568 0.52853-16.408 23.576-20.788 44.283-6.0474 28.587 1.1818 49.223 6.5955 55.757 11.02 13.299 20.663 2.2893 41.16-20.068 13.201-14.399 6.8147-11.493 7.9839-27.137 1.3151-17.595 39.063-56.642 23.304-50.76z" fill="inherit" stroke="#000" stroke-width="8.16"/></g>
 <g id="change2_31"><path d="m372.45 778.67c-4.69 11.558 58.18 70.187 87.862 82.375 5.7113 2.3452 13.752 2.2621 21.402-4.0303 28.145-28.91 54.813-45.194 64.164-60.444 8.191-13.358-56.094-59.869-65.791-75.322" fill="inherit" stroke="#000" stroke-width="8.16"/></g>
 <g id="change2_32"><path d="m650.02 896.07c-1.0691-11.341 1.2928-10.159-6.7618-19.637-19.193-22.583-77.377-72.737-84.189-75.332-7.7228-2.9425-6.4809-4.6357-15.989 1.0481-14.504 8.6706-25.727 21.078-39.056 34.407-7.5087 7.5087-20.869 23.062-26.808 30.8-5.3538 6.9762 85.398 47.815 120.87 67.765 5.1191 2.8786 17.522-1.854 17.522-1.854 10.444-8.824 20.52-32.309 34.407-37.196z" fill="inherit" stroke="#000" stroke-width="8.16"/></g>
 <path d="m147.64 307.67c-24.913-15.198-55.569-29.372-69.511-42.078" fill="none" stroke="#000" stroke-linecap="round" stroke-width="8.16"/>
 <path d="m371.05 780.06c65.096-2.2693 105.83-1.4262 118.1-19.761-20.034-12.513-36.611-11.744-45.566-31.617 42.392-7.9856 57.207-5.4261 74.393-66.023" fill="none" stroke="#000" stroke-width="8.16"/>
 <path d="m502.63 167.02c2.0668-5.2212 6.979-11.91 9.9965-16.738" fill="none" stroke="#000" stroke-width="8.16"/>
 <path d="m568.66 580.13c-26.502-12.902-40.218-14.065-40.218-14.065" fill="none" stroke="#000" stroke-width="8.16"/>
 <g id="change2_33"><path d="m251.12 479.67c0.2388-2.2732 4.3538-24.424-2.6303-28.932-6.3484-4.0978-20.368-12.786-33.894-22.52-13.526-9.7344-27.808-21.058-28.244-19.234-4.0933 17.124-10.897 23.038-5.628 25.837 13.683 7.27 40.88 24.784 54.062 41.499 3.968 5.0319 12.899 2.663 16.335 3.3501z" fill="inherit" stroke="#000" stroke-width="8.16"/></g>
 <g id="change2_34"><path d="m252.11 464.22c0.2389 3.5184-1.1872 18.332-0.6575 21.699 1.9727 12.54 13.068 17.999 35.507 44.384 1.9782 1.9784 14.181 9.1614 18.411 4.9316 2.4625-2.4627 7.9704-23.971 8.8795-30.851 0.5221-3.9523-1.8043-4.9716-3.6193-8.2729-6.034-10.975-33.314-25.242-40.768-31.891-3.951-3.5246-12.321-1.7864-17.754 0z" fill="inherit" stroke="#000" stroke-width="8.16"/></g>
 <g id="change2_35"><path d="m339.89 516.49c-0.6091-5.9703-9.0252-10.521-16.439-10.521-5.0439 0-9.2793-1.265-9.9473 2.8768-1.4541 9.0163-8.8374 26.064-6.2967 33.644 2.5406 7.58 11.956 14.35 13.908 14.644 4.5823 0.69133 9.2633-9.1737 13.843-24.535 1.5446-5.1804 6.2359-10.24 4.9316-16.11z" fill="inherit" stroke="#000" stroke-width="8.16"/></g>
 <g id="change2_36"><path d="m660.11 891.29c-7.3884 1.5588-29.166 16.906-36.165 30.904-6.0701 12.14-17.754 30.911-21.699 44.056-0.825 2.7486-3.298 14.729-3.7141 21.339-0.416 6.6096 1.4334 10.837 5.0291 10.223 38.536-6.5792 59.836-9.4885 63.124-13.808 6.3618-8.3593 12.005-18.243 15.123-28.274 4.8652-15.648 14.169-35.741 13.808-51.288-0.7899-3.2482-24.022-14.228-35.507-13.151z" fill="inherit" stroke="#000" stroke-width="8.16"/></g>
 <g id="change2_37"><path d="m656.83 989.92c-23.639 5.1745-61.601 6.2194-64.439 13.151-4.74 11.576-19.736 62.188-17.531 81.996 0.8005 7.1879 2.1841 7.6467 12.27 12.69 6.6456 3.3228 46.346-14.625 51.288-17.096 8.7294-4.3647 12.391-1.0922 13.808-9.8632 5.0866-31.486 12.072-64.764 11.79-71.112-0.428-9.6345-2.0172-6.3597-7.1869-9.7655z" fill="inherit" stroke="#000" stroke-width="8.16"/></g>
 <g id="change2_38"><path d="m693.65 1149c-8.043-11.965-13.792-18.379-22.356-28.274-5.9708-6.8989-14.764-21.277-17.754-30.247-1.5138-4.5413-3.1035-10.521-7.8905-10.521-6.2257 0-52.451 18.678-55.323 21.095-4.2676 3.5913-10.023 4.4015-4.514 14.412 12.532 22.771 42.937 54.114 64.439 62.467 4.4236 1.7183 9.5269-5.2103 18.516-12.895 8.9886-7.6844 23.422-13.701 24.882-16.037z" fill="inherit" stroke="#000" stroke-width="8.16"/></g>
 <g id="change2_39"><path d="m757.43 1230.6c1.1103-5.3879 4.9783-4.3145-0.6804-13.445-9.2428-14.913-41.228-52.136-49.95-60.858-2.9252-2.9254-9.8861-6.6855-16.438-3.2877-17.096 8.8652-31.538 20.957-32.877 24.329-1.2725 3.2025-7.2706 6.8909-3.1295 11.88 8.4286 10.154 25.258 36.934 37.979 47.299 2.427 1.9775 4.4265 4.2313 12.607 3.07 10.889-1.5461 25.138-7.0743 52.49-8.988z" fill="inherit" stroke="#000" stroke-width="8.16"/></g>
 <g fill="none" stroke="#000" stroke-width="8" transform="matrix(1.02 0 0 1.02 -871.3 -110.09)">
  <path d="m1945.9 284.43c-146.98 43.836-369.5 299.73-369.5 299.73"/>
  <path d="m1900.4 532.43c-103.14-2.5786-309.43 100.57-309.43 100.57"/>
  <path d="m1830.8 715.51c-117.33-43.836-247.55-32.233-247.55-32.233"/>
  <path d="m1729.6 872.73c-20.1-32.78-113.64-113.77-163.35-142.5"/>
  <path d="m1556.2 946.29c15.472-109.59-19.34-185.66-19.34-185.66"/>
 </g>
 <g id="change2_40"><path d="m721.92 1293.1c27.096-41.83 50.149-56.373 38.138-57.206-3.8065-0.2642-12.331-2.7112-17.754 0-7.1951 3.5975-32.482 4.6928-39.453 8.548-12.391 6.8533-10.903 15.756-17.096 32.877-1.969 3.9381-7.1107 23.481-4.6028 23.672 37.654 2.8621 39.592-4.2865 40.768-7.8905z" fill="inherit" stroke="#000" stroke-width="8.16"/></g>
 <g id="change2_41"><path d="m712.72 1306.9c-3.9001-1.1812-33.104-10.719-37.48-0.6575-5.0612 11.637-9.9729 24.494-18.411 38.138-2.9444 4.4164-20.256 22.648-17.096 29.59 3.3311 7.3198 13.802 2.2984 27.617 7.233 1.8487 0.9243 11.726 7.4533 13.151 4.6028 3.8706-7.7411 2.0693-14.999 5.918-26.302 7.9511-23.351 14.255-29.402 26.302-52.604z" fill="inherit" stroke="#000" stroke-width="8.16"/></g>
 <path d="m547.35 1474.9c45.37-31.562 53.59-45.699 53.59-45.699" fill="none" stroke="#000" stroke-linecap="round" stroke-width="8.16"/>
 <path d="m500 1424.6c7.5617 5.2603 12.763 5.3167 19.069 4.9315 20.37-1.2442 81.535-26.959 81.535-26.959" fill="none" stroke="#000" stroke-linecap="round" stroke-width="8.16"/>
 <g id="change2_42"><path d="m517.43 884.06c-12.162-10.396-37.528 24.634-34.192 26.302 5.5582 2.7791 25.129 11.647 38.867 19.003 13.738 7.3558 21.644 13.199 27.545 7.2987 3.0695-3.0694 35.79-10.896 25.644-21.041-8.8624-8.8625-25.442-9.5471-35.507-17.096-7.6966-5.7725-14.097-8.5661-22.356-14.466z" fill="inherit" stroke="#000" stroke-width="8.16"/></g>
 <g id="change2_43"><path d="m478.63 913.65c-5.6452-0.2413-15.799 8.9069-21.699 14.466-12.433 11.715-30.806 30.938-31.562 41.425-0.4005 5.5578 2.4841 9.8994 12.645 9.9428 17.51 0.074 56.766 4.497 61.401 2.5531 17.084-7.1654 18.742-12.645 31.818-29.592-4.6782 3.4385 8.3082-11.933 5.9178-13.151-10.721-5.4604-26.902-14.438-36.165-19.069-7.6376-3.8188-13.634-6.5754-22.356-6.5754z" fill="inherit" stroke="#000" stroke-width="8.16"/></g>
 <g id="change2_44"><path d="m503.62 1030c-4.4262-12.14-3.1423-40.622-9.2056-46.686-3.8723-3.8724-23.947-1.6259-30.904-3.9452-13.189-1.4621-30.837-0.033-39.453 3.2877-8.1362 3.1354-6.0365 9.1659-1.3149 25.644 1.425 4.9737 2.4729 16.782 4.6027 21.041 1.7417 3.4833 7.0152 5.4821 8.548 8.548 4.8542 3.1328 15.658 5.4386 21.041 7.233 10.817-0.4814 37.833 6.6413 43.398 2.6302 1.67-4.6892 1.3021-11.961 3.2877-17.754z" fill="inherit" stroke="#000" stroke-width="8.16"/></g>
 <g id="change2_45"><path d="m516.11 1109.6c-1.7698-14.978-5.4695-48.426-17.096-57.864-3.4928-2.8353-19.004-5.9178-30.247-5.9178-5.4471 0-25-5.1347-26.959-3.2878-8.2536 7.782 11.376 30.606 15.124 38.795 1.652 3.6104 15.458 8.8822 24.987 14.466 10.131 5.9366 31.183 24.618 34.192 13.808z" fill="inherit" stroke="#000" stroke-width="8.16"/></g>
 <g id="change2_46"><path d="m448.39 1128.7c8.4926-1.0744 17.89-1.0204 26.959-3.2877 8.2024-2.0506 22.333-0.6341 29.589-2.6302 2.5915-0.7128 4.5506-5.3648 2.6302-9.2056-11.466-10.439-38.931-25.712-50.631-31.562-2.9692-1.4847-10.718 2.7286-13.151 3.9453-8.5449 7.2314-12.256 12.885-14.195 18.754-3.1421 9.5112 11.704 25.76 18.798 23.986z" fill="inherit" stroke="#000" stroke-width="8.16"/></g>
 <g id="change2_47"><path d="m388.55 1159.6c8.8606-5.5964 19.022-12.462 26.959-17.754 7.9989-5.3326 18.462-7.5869 25.644-11.178-2.9491-8.0599-12.117-21.322-15.124-24.329-7.2758-7.2757-39.914 12.224-51.288 15.781-3.3912 1.0604 4.9781 17.189 7.8905 23.014 1.7971 3.5943 1.5316 12.273 5.9178 14.466z" fill="inherit" stroke="#000" stroke-width="8.16"/></g>
 <g id="change2_48"><path d="m436.55 573.7c-18.936-5.4267-28.676 20.32-39.453 23.014" fill="inherit" stroke="#000" stroke-width="8.16"/></g>
 <g id="change2_49"><path d="m369.48 662.47c10.954 3.9701 30.469 15.563 45.37 23.014 5.6077 2.8038 9.9007 1.2776 17.096-2.6302 2.1595-1.1728 3.0681-3.0694 1.3152-4.6028 0.4707-9.5791-2.1797-23.502-0.6576-29.589 0.095-14.19 7.4008-26.623 5.2602-30.905-2.7185-5.437-6.7558-6.8408-12.493-9.2056-11.745-4.8408-23.769-10.53-26.275-8.6021-5.3896 4.1473-6.438 5.4804-9.8897 11.232-2.4804 7.4415-10.348 12.147-13.808 19.069-5.3901 10.78-7.4267 19.38-5.9178 32.22z" fill="inherit" stroke="#000" stroke-width="8.16"/></g>
 <g id="change2_50"><path d="m351.73 713.1c21.072-5.3117 29.883-6.7223 48.001-13.151 5.2605-1.8665 12.178-1.9817 17.096-5.2604 8.5964-5.7309 1.5632-6.1608-1.4704-7.9418-25.504-14.974-38.895-20.588-47.188-24.278-3.3353-1.484-10.696 3.127-13.151 3.9453-3.3068 1.1023-38.54 24.584-34.192 28.932 2.6444 2.6444 7.9399 3.9946 11.178 7.233 4.9519 4.9519 13.424 13.672 19.726 10.521z" fill="inherit" stroke="#000" stroke-width="8.16"/></g>
 <g id="change2_51"><path d="m276.11 742.03c6.714 5.789 28.435-7.3676 38.138-11.178 11.72-4.6028 14.752-5.1747 18.156-9.5384 2.3008-2.9501 12.209-10.71 6.8309-14.791-4.4738-3.3942-13.584-5.3475-21.006-7.5476-5.3971-1.5997-6.2549 0.0629-8.583 0.9722-2.6919 1.0513-27.173 18.464-39.966 25.957-7.4559 4.3674-4.1002 11.126 6.4308 16.125z" fill="inherit" stroke="#000" stroke-width="8.16"/></g>
 <g id="change2_52"><path d="m272.49 741.7c-2.9695-3.037-3.9615-4.0258-6.5393-6.6872-2.0234-2.089-6.7416-1.735-10.794-0.94169 0 0-19.349 11.933-41.335 23.319-2.9096 1.5069-11.822 3.7042-15.634 11.269-2.4012 4.7657 3.5609 3.766 5.2603 5.5891 4.5143 4.8429 10.792 11.894 18.082 18.082 8.3179 7.0601 7.9618-4.3452 17.096-12.822 6.2563-5.8059 29.035-19.759 31.486-24.866 1.1882-2.4766 5.6656-10.582 2.3778-12.942z" fill="inherit" stroke="#000" stroke-width="8.16"/></g>
 <g id="change2_53"><path d="m436.15 249.32s-32.919-16.865-55.33-22.318c-11.638-2.8314-20.538-3.3486-30.222-3.2547-13.684 0.13266-18.701 1.1261-30.222 3.7196-14.575 3.281-28.827-0.9299-28.827-0.9299s1.7017-10.344 4.6495-15.808c-8.8064 5.1649-22.945 8.8911-31.617 9.764-18.085 1.8204-34.407-8.3692-34.407-8.3692 2.0169 5.2705 18.471 20.549 29.757 28.362 3.5989 2.1593 12.985 9.4784 26.038 16.273 2.8038 1.4597 16.738 6.5093 16.738 6.5093l-8.8341-18.598c25.572 0.15498 58.487 1.4396 67.883 3.7196 25.07 6.0833 53.514 15.704 90.201 28.362z" fill="inherit" stroke="#000" stroke-width="8.16"/></g>
 <path d="m462.65 160.05c-11.413 9.3225-14.185 36.492-24.178 51.145" fill="none" stroke="#000" stroke-width="8.16"/>
 <g id="change2_54"><path d="m345.48 360.44c17.592-7.0369 33.136-28.802 29.769-42.575 21.74-6.3335 28.79-10.38 49.738-13.22 32.912-4.4612 76.289-4.613 98.57 12.089 11.771 6.0872 18.158 10.979 33.477 19.993 2.1714-9.6106-17.066-42.499-25.108-51.61-1.3566-1.5371-5.5795-9.1126-11.159-12.089 12.089-12.595 34.889-17.203 44.403-17.203-20.678-18.591-74.625-28.13-74.625-28.13s43.392-22.217 46.96-23.015c-33.477-20.561-81.99-5.8122-92.991-4.6495-5.5871-8.8417-12.99-16.892-19.528-25.572-25.357-33.663-100.19-59.759-163.2-52.075 30.413 13.72 42.399 21.082 53.935 36.034-14.973-3.7196-19.134 1.383-19.134 1.383s14.95 54.628 30.758 72.312c7.4392-20.181 8.7784-25.628 15.808-39.056 10.586 10.586 47.966 34.524 73.077 39.43 15.811 19.784 26.424 38.683 26.424 38.683s-22.266-1.5673-24.178-0.92991c-21.469 7.1562-29.907 6.2307-53.935 12.089-8.8246-16.106-13.104-45.565-11.624-49.75-6.053 5.5794-7.0959 10.943-8.8341 13.484-11.966 17.486-9.5001 29.026-13.019 43.706-16.736 2.5563-23.248 10.694-23.248 10.694s25.355 12.148 29.292 19.528c8.5082 15.947 11.686 23.433 8.3691 40.451z" fill="inherit" stroke="#000" stroke-width="8.16"/></g>
 <path d="m67.902 784.01c29.013 6.2356 77.008 8.0184 103.45-2.5572" fill="none" stroke="#000" stroke-linecap="round" stroke-width="6.12"/>
 <path d="m148.11 810.75c-20.807 12.631-33.327 18.05-39.608 21.039-25.175 11.978-29.902 8.4079-43.154 16.39" fill="none" stroke="#000" stroke-linecap="round" stroke-width="7.14"/>
 <path d="m221.2 1138.9c22.86 2.3085 53.878 4.2741 89.755-2.63" fill="none" stroke="#000" stroke-linecap="round" stroke-width="6.12"/>
 <path d="m250.14 1089.5c25.74 22.426 55.192 32.877 79.563 33.864" fill="none" stroke="#000" stroke-linecap="round" stroke-width="6.12"/>
</svg>