<?xml version="1.0" encoding="UTF-8"?><svg xmlns="http://www.w3.org/2000/svg" viewBox="0 0 36 36">
 <g id="change1_1"><path d="m7.042 26c0.33 0 0.651 0.121 0.963 0.331 1.368-8.106 20.362-8.248 21.755-0.29 1.666 0.412 3.08 4.378 3.748 9.959h-31c0.793-5.899 2.522-10 4.534-10z" fill="#292F33"/></g>
 <g id="change2_1"><path d="m7.043 23.688c3.923-11.155-0.535-20.688 10.465-20.688s8.736 8.173 13.193 19.125c1.119 2.75-1.443 5.908-1.443 5.908s-2.612-4.756-4.75-5.846c-0.591 3.277-1.75 6.938-1.75 6.938s-2.581-2.965-5.587-5.587c-0.879 1.009-2.065 2.183-3.663 3.462-0.349-1.048-0.943-2.339-1.568-3.576-1.468 2.238-3.182 4.951-3.182 4.951s-2.507-2.435-1.715-4.687z" fill="#E1E8ED"/></g>
 <g id="change3_1"><path d="m11.507 5c-4.36 3.059-5.542 2.16-7.812 3.562-2.125 1.312-2 4.938-0.125 8.062 0.579-2.661-0.5-3.149 6.938-3.149 5 0 7.928 0.289 7-1-0.927-1.289-10.027 0.459-6.001-7.475z" fill="#FFCC4D"/></g>
 <g id="change1_2"><path d="m16.535 7.517c0 0.82-0.663 1.483-1.483 1.483s-1.484-0.663-1.484-1.483c0-0.157 0.031-0.305 0.076-0.446h2.816c0.044 0.141 0.075 0.289 0.075 0.446z" fill="#292F33"/></g>
</svg>