<?xml version="1.0" encoding="UTF-8"?><svg xmlns="http://www.w3.org/2000/svg" xmlns:xlink="http://www.w3.org/1999/xlink" height="2412.4" preserveAspectRatio="xMidYMid meet" version="1.0" viewBox="43.9 35.3 1663.1 2412.4" width="1663.1" zoomAndPan="magnify"><g id="change1_1"><path d="m1699.2 1210.9c-2.609-5.721-36.093-25.056-42.97-35.89-4.32 0.21-7.88-4.23-12.22-1.93-5.97 1.18-8.98 6.83-13.98 9.69-2.23-0.62-4.41-1.4-6.53-2.26-0.28-0.4-0.85-1.2-1.13-1.6-9.891-2.817-12.163-9.708-17.71-12.61-0.25-0.97-0.49-1.93-0.71-2.87-3.77-2.32-5.77-6.88-10.08-8.35-1.7-0.75-3.38 0.21-4.97 0.65-4.34-1.95-8.37-4.65-11.16-8.56-0.51-0.13-1.53-0.4-2.03-0.53-4.47-5.74-9.08-11.43-12.47-17.88-3.21-4.3-4.8-9.55-8.21-13.73-2.82-5.31-7.41-9.26-10.91-14.08-13.628-19.717-44.084-36.225-48.54-39.88-1.28-0.07-2.55-0.12-3.79-0.15-0.68-0.6-1.35-1.19-2-1.76-0.56-0.12-1.69-0.37-2.25-0.5-2.52-2.28-6.02-2.76-8.74-4.65-1.12-2.36 0.28-4.98 1.04-7.24 1.88-4.2 2.97-8.73 5.03-12.85 13.887-12.146 14.212-7.625 21.21-8.94 3.03-0.38 5.43-2.42 8.11-3.71 3.28-1.57 6.68-2.91 9.99-4.45 0.631-11.309-1.632-1.588 1.77-27.8 0.68-2.7 3.36-4.08 5.27-5.86 2.31-1.75 3.53-4.44 5.36-6.62 2.04-1.97 4.38-3.64 6.31-5.74 1.77-1.52 1.1-4.15 1.82-6.17 0.81-4.33 5.83-5.87 7.13-9.91 0.22-1.93-0.1-3.87 0.04-5.78 0.82-2.94 4.59-4.5 4.21-7.84-0.02-3.14-0.1-6.28 0.26-9.39 1.97-0.93 4.48-1.58 5.46-3.76 0.88-3.43 0.04-7.75 3.44-9.98 0.69-3.22-3.01-7.05 0.05-9.76 3.43-2.86 5.82-6.83 6.77-11.2 0.31-2.49-1.06-4.68-2.36-6.65-1.78-2.46-2.08-5.67-4.04-8.01-1.68-2.04-2.95-4.65-2.36-7.35 0.96-5.12-0.23-10.41 1.01-15.51 1.42-2.3 4.24-4.3 3.47-7.37-0.1-2-1.58-3.35-3.42-3.78-2.38-4.75-6.66-7.97-10.17-11.8-1.546-19.052 0.263-3.213-4.79-21.67-0.91-3.4 1.14-7.1-0.78-10.28-1.07-2.83-4.04-4.45-4.85-7.41-1.29-4.01-1.01-8.36-2.66-12.27-1.78-3.72-0.27-8.11-2.28-11.74-1.77-3.29-2.73-6.87-3.5-10.49-0.52-2.99-3.13-4.93-4.17-7.64-0.23-3.02 0.23-6.04 0.01-9.06-0.63-7.1-3.65-13.64-5.47-20.45-1.17-4.05-0.58-8.61-2.87-12.29-2.9-4-7.2-7.07-9.26-11.62-5.369-34.978 3.185-32.721 0.75-82.58-0.25-4.41 0.41-8.94-0.99-13.22 1.32-3.68 3.91-6.94 4.45-10.87-0.14-4.99 0-10.08 1.68-14.84 3.666-16.773-3.302-13.917 1.57-37.18 3.177-21.307-1.375-34.186 3.74-45.29 2.56-2.61 6.13-5.49 5.26-9.64-0.72-2.95-4.04-3.45-6.41-4.44-4.7-1.38-8.52-5.06-13.59-5.17-1.47-1.01-2.99-1.9-4.56-2.69 1.3-2.82-0.81-5.79-0.08-8.73 0.84-6.19-1.04-12.92 2.34-18.59 2.69 1.23 5.12 2.95 7.52 4.7 1.23 0.02 2.49 0.05 3.76 0.08 0.67-3.35 1-6.74 1.37-10.13 4.5-0.47 5.56 4.94 9.36 6.13 2.65 1.08 5.68 2.68 8.5 1.07-7.324-11.559-10.078-11.871 2.04-25.99 3.34-4.13 3.03-10.57 7.72-13.71 0.84-4.7-0.89-9.41 0.09-14.11 0.79 0.16 2.36 0.48 3.15 0.64 1.67-2.56 2.06-5.68 3.69-8.26 4.604-6.79-3.628-17.763 6.34-14.8-0.52-7.31-3.76-14.45-2.57-21.91 1.08-5.4-1.74-10.55-1.02-15.93 1.5-14.242-7.751-17.111-10.13-22.94 0.2-1.33 1.24-2.78 0.5-4.08-2.42-4.44-7.05-7.19-9.37-11.69-1.72-3.28-2.64-7.28-5.83-9.52-3.55-2.11-8.02-2.9-10.6-6.38-2.6-3.39-6.49-5.32-10.33-6.93 1.989-9.334-4.549-3.526-13.9-5.45-1.3-1.19-1.63-3.01-2.31-4.54-3.04 1.06-5.28 3.94-8.61 4.12-6.114-3.297-7.251-7.805-14.06-3.19-4.62 0.08-9.21-0.73-13.81-0.36-3.27 0.34-4.54 4.12-7.34 5.29-4.73 1.17-9.16-1.97-13.93-1.21-5.845-0.567-16.416 10.712-23.08 10.65-25.088 12.374-19.337 14.879-41.3 32.6-4.36 3.59-6.16 9.12-9.59 13.45-1.92 2.51-4.11 4.93-4.91 8.07-1.09 4.85-5.16 8.7-4.59 13.93-0.43 3.21 2.2 5.72 2.19 8.86 0.17 3.93 0.38 8.02 2 11.66 2.41 2.41 4.76 4.93 6.21 8.08 0.68 0.02 2.04 0.05 2.72 0.07-0.4 1.6-1.62 3.38-0.25 4.86 0.62 1.8 2.66 1.6 4.22 1.89 1.852 10.468 4.944 4.521-0.94 17.2-3.281 6.873-13.271 8.032-9.58 15.26 5.251 5.476 17.342 0.811 13.02 11.27-0.97 1.75 0.23 3.38 1.08 4.89 1.29 1.99 0.74 4.48 0.85 6.73 2.01 2.03 4.58 3.54 6.21 5.93 2.007 2.922 1.875 16.972 10.89 20.08 7.05 1.88 14.43-0.95 21.48 0.7-0.02 4.32 1.49 9.28-0.99 13.15-2.86 2-6.44 2.66-9.59 4.1-7.72-0.22-15.66-1.54-22.43-5.34-14.039-18.078-24.763-2.743-34.33-14.62-2.92-3.71-7.86-4.44-12-6.06-25.256-8.017-49.989-40.02-57.68-46.23-3.86-2.63-2.03-8.44-5.63-11.36-4.18-3.86-7.38-8.63-11.73-12.31-9.772-7.807-12.348-15.825-17.49-21.38-2.17-1.95-4.97-2.99-7.36-4.62-1.81-9.86-1.18-19.89-1.18-29.85 1.14-5.02 4.06-9.57 7.66-13.22 0.34-0.99 0.53-2.06 1.15-2.94 1.16 0.21 2.31 0.54 3.5 0.84-0.5 3.57-1.92 7.44-0.19 10.9 2.73 5.49 5.04 11.29 9.43 15.73 0.32 1.87 1.19 3.58 2.21 5.17 2.225-11.356-13.021-14.662-3.63-35.22 1.59-3.47 2.42-7.22 3.44-10.89 3.48-0.69 6.85 0.36 9.82 2.16 2.34 4.16 4.12 8.92 7.99 11.96 4.45 6.8 17.723 15.933 6.43 44.23 7.32-3.61 5.89-12.98 7.69-19.66-1.949-5.773 2.602-9.841-10.81-26.83-1.27-1.47-1.88-3.31-2.48-5.1 0.45-0.46 1.35-1.4 1.8-1.87-3.29-3.31-2.71-8.47-5.69-11.91-1.74-1.68-0.16-3.95 0.21-5.87-0.24-1.42-0.54-2.86-0.26-4.29 4.416-28.691-9.149-43.09-9.11-64.15-0.365-7.642-7.939-19.62-3.04-36.75 0.61 0.05 1.82 0.15 2.42 0.19 1.64 2.84 3.6 5.54 4.8 8.61 2.592 14.476-2.93 29.503 8.54 36.38 0.54-5.67-5.11-9.65-4.09-15.36 1.968-26.81-2.753-25.21-4.56-30.92-0.97-2.72-1.44-5.87-3.98-7.63-3.08-6.21-7.94-12.18-7.44-19.51-0.25-4.02 1.96-8.06 0.2-11.97-1.76-4.87-1.95-10.19-4.11-14.91-2.88 0.7-5.84 0.93-8.77 0.54-0.26-3.31-0.69-6.6-1.16-9.88 0.62-0.07 1.85-0.22 2.47-0.3-3.622-26.41-0.72-24.297-5.48-28.55-0.96-2.26-2.23-4.44-4.43-5.69-2.92-1.55-3.78-5.63-7.42-5.93-2.09-2.19-4.68-3.73-7.69-4.18-0.83-3.01-1.68-6.01-2.48-9.02-3.53-2.28-6.51-5.31-8.31-9.14 0.17-0.42 0.51-1.25 0.68-1.67-5.43-4.65-11.15-8.98-15.88-14.38-4.9 0.03-9.72 1.1-14.62 0.99-5.979 0.164-20.769-2.513-23.68-1.57-32.597 11.112-7.788-4.016-38.88 15.34 2.14 0.87 4.46 1.05 6.77 1.08 6.616 8.184-2.858 6.394-3.23 13.87 0.85-0.07 2.57-0.21 3.43-0.27 0.52 1.6 0.9 3.24 1.12 4.92-2.17 1.63-4.42 3.22-7.09 3.87 0.01 0.53 0.02 1.61 0.02 2.14-2.78 1.15-5.8 1.93-8.22 3.76-2.51 2.66-4.3 6.6-8.35 7.15-3.52 1.29-7.88-0.04-8.83-3.95-2.18 0.52-4.41 0.87-6.51 1.6-7.719 5.362-6.284 10.94-6.37 17.45 5.073-0.99-0.175-7.713 8.97-12.98 1.86 0.07 3.7 0.51 5.56 0.83 0.74 0.75 1.49 1.5 2.25 2.25-1.23 2.22-2.44 4.44-3.77 6.58-4.97 2.07-8.16 7.27-9.03 12.44-2.78 4.24-2.92 9.5-5.57 13.8-7.341 2.479-11.695 8.443-12.33 12.53-0.635-0.01-1.264-0.064-1.888-0.141-0.701 0.914-0.794 0.731-1.549 1.941-0.179 2.714-1.073 5.324-2.178 7.866-0.211 1.902-0.341 3.776-0.567 5.429 0.281 0.256 0.545 0.52 0.831 0.774 0.88 2.99-0.03 5.85-1.27 8.56 0.14 4.51-1.12 8.84-2.47 13.1-0.63 2.2-2.94 3.07-4.69 4.18-2.408 7.615-3.504 5.574-6.034 9.705-7.891 12.885-5.489 36.846-1.716 42.424 0.88 4.2 3.38 8.01 3.28 12.42-0.533 23.549-10.074 19.688-12.424 26.147 0.636 0.662 1.237 0.481 2.153 0.396 14.192-10.453 14.602-15.124 14.27-29.938-0.205-9.154-10.195-11.929-3.699-38.425 0.69-3.08 2.92-5.4 4.9-7.72 1.05 0.44 2.09 0.87 3.16 1.32-2.25 5.6-0.08 11.5 0.05 17.25 0.05 3.42 1.5 6.56 3.33 9.38 2.624 3.909-2.926 8.708 11.38 14.34-1.74-0.39-3.49-0.75-5.23-1.07 0.11 1.43 0.34 2.87 0.74 4.27-1.59 4.75 1.82 10.07-0.97 14.4 0.68 5.49-1.36 10.79-1.03 16.28-1.11 0.79-2.24 1.58-3.32 2.37 7.807 9.362 6.302 9.164 6.86 17.44 0.059 0.882 1.597 2.829 1.976 3.777 1.327 3.319 2.515 10.358 8.705 22.496 2.334 4.577 3.681 9.715 6.259 14.147 2.36 4.06 3.78 8.57 4.84 13.12 1.07 5.31 5.06 9.4 6.36 14.64 2.492 10.21 11.139 12.845 13.8 10.86 0.27 1.01 0.55 2.03 0.86 3.06-0.52 0.27-1.55 0.83-2.07 1.1-0.08 3.75-0.68 7.46-1.39 11.14 2.73 0.24 4.21 2.55 3.14 5.09-0.029 0.07-4.996 2.056-5.612 2.475-16.302 11.085-27.774 36.599-48.618 46.036-1.04 2.57-1.9 5.33-1.12 8.11-0.55 0.63-1.1 1.26-1.62 1.9-3.72 1.42-7.94 2.56-10.45 5.89-2.82 3.55-6.99 5.63-10.12 8.86-6.202 6.35-9.015 7.947-23.11 10.52-9.815 2.076 3.324-2.968-24.68 8.63-2.58 0.88-3.94 3.36-5.86 5.09-12.357 11.327-25.726 7.487-30.96 25.18-0.63 2.31-0.93 4.74-2.24 6.8-1.96 3.27-0.74 7.29-1.96 10.79-0.79 3.5-3.16 6.22-4.98 9.21-1.129 7.79-9.338 27.83-14.15 36.85-2.288 4.513-12.582 35.872-16.79 41.17-0.49 4.69-1.43 9.33-3.37 13.67-1.948 4.044-11.077 46.334-13.78 52.01-1.021 3.996-7.161 15.286-6.38 34.88 0.29 5.49-1.76 10.71-2.11 16.14 0.04 3.78-3.55 6.17-4.09 9.82-0.78 3.41-3.18 6.13-4.15 9.46-1.83 8.76-8.69 15.6-9.89 24.57-3.77 7.8-6.39 16.09-7.94 24.62-1.26 1.46-2.77 2.86-3.25 4.82-5.441 20.253-6.272 13.204-4.95 20.86-2.597 8.911-21.551 52.558-23.6 62.76-8.425 27.277-13.867 65.516-13.98 65.88 0.16 0.42 0.46 1.26 0.61 1.68-3.836 11.941-1.715 20.155-10 48.95-1.9 6.65-3.76 13.62-2.99 20.57-2.2 4.05 1.04 7.77 1.47 11.82 0.59 4.16 1.17 8.33 1.75 12.51-14.112 13.553-9.66 11.163-12.56 27.68-0.59 3.94-3.63 6.97-4.2 10.91-2.055 13.738-2.416 10.63-0.36 13.8-2.94 0.21-5.55 1.77-8.37 2.46-0.95 1.91-2.27 3.71-2.78 5.82-0.46 5.07 2.22 9.88 1.41 14.99-1.39 6.86-2.25 13.86-2.05 20.88 0.674 13.125-8.568 16.729-11.46 21.48-11.333 13.48-2.351 20.701-4.85 27.12-13.17 23.531-10.977 18.558-11.89 25-1.5 3.01-4.01 5.35-5.61 8.3-1.94 4.18-5.12 7.8-9 10.29-1.38 5.04-7.55 6.66-8.37 11.92-1.53 4.01-0.18 8.41 2.42 11.66 1.89 0.94 3.73 2.01 5.64 2.95 1.46 1.74 1.16 4.02 1.049 6.142-8.101 10.482-14.543 21.314-24.775 30.307-4.34 3.814-11.219 9.285-10.474 15.852 0.864 5.916-1.303 4.551 4.77 9.15 1.04 4.26 1.12 9.4-1.95 12.86-4.4 2.29-6.18 7.11-8.33 11.26-5.636 30.694-38.016 48.939-46.558 56.563-6.378 5.692-10.417 11.255-16.182 1.827-5.47-5.75-13.12-9.11-21.11-8.82-0.38-0.29-1.14-0.88-1.52-1.17-7.658-1.633-1.757-3.279-19.19-2.61-26.025 30.624-3.076 19.836-29.41 40.06-4.68 3.38-5.02 10.02-9.63 13.39-3.44 1.8-7.46 1.86-11.2 2.6-3.93 6.3-5.79 13.66-10.46 19.55-4.88 5.38-4.78 12.99-5.33 19.8-3.13 2.7-6.68 4.87-10.27 6.89-3.07 1.98-2.35 6.7-5.84 8.09-1.52 1.41-2.61 3.2-2.96 5.28-1.72 2.18-3.73 4.23-4.81 6.84-1.77 6.25-8.63 9.97-14.86 10-2.58-8.62-4.48-17.79-10.3-24.94-3.056-5.103-16.485-14.988-6.05-36.4 1.95-4.17 4.26-8.2 5.42-12.68 1.27-0.05 2.54-0.08 3.82-0.08 1.005 7.424-3.147 26.251 2.56 26.9-0.253-20.96 12.2-40.988-3.24-59.05-2.25-5.63-8.16-7.97-11.82-12.41-0.65 0.02-1.94 0.07-2.58 0.09-0.56-5.08-4.14-9.05-5.3-13.92-1.38-6.64 0.38-13.38-0.21-20.07-0.275-18.793-10.512-26.406-13.12-32.71 10.325 0.206 7.412 3.635 14.52 6.03-1.23-3.08-2.69-6.33-5.54-8.22-3.43-2.38-6.48-5.69-10.73-6.52-6.05-1.32-12.97 0.47-18.26-3.54-2.34-2.25-4.24-4.97-6.93-6.85-5.64-0.68-11.06-3.19-16.84-2.53-4.31 0.09-9.33 1.47-12.98-1.56-1.96-0.73-2.36-3.79 0.06-4.1 3.89-2.73 8.82-1.12 12.98-2.89-12.183-6.119-12.58-1.705-22.05-1.15-2 2.02-4.28 3.86-7.16 4.4-0.22 0.4-0.65 1.21-0.87 1.61-0.4-0.36-1.21-1.09-1.61-1.45-10.404-1.525-6.932-8.002-30.23-2.25-3.16 2.21-6.25 4.55-9.76 6.21-7.12 3.72-12.89 10-20.76 12.18l-2.2 1.08c-3.09 0.49-5.98 1.73-8.97 2.58-2.07 1.53-4.23 2.94-6.48 4.2-0.01 0.68-0.02 2.04-0.03 2.72 2.13-0.45 3.99-1.58 5.51-3.1 0.53-0.04 1.6-0.11 2.14-0.15 0.43-0.49 1.31-1.47 1.75-1.96 1.12-0.02 2.24-0.02 3.37 0 0.41-0.5 1.23-1.51 1.64-2.02 2.86-0.05 5.75-0.1 8.54 0.65-3.14 3.95-9.04 6.4-9.45 11.95-1.05 0.57-2.1 1.13-3.15 1.72-4.1 4.97-6.45 11.02-9.44 16.66-0.94 1.41-0.83 3.06-0.56 4.67-2.91 4.14-3.33 9.24-4.69 13.97-4.53 15.346-42.289 40.315-35.19 79.93 13.366 43.918-16.115 54.964-7.38 81.97 2.57-1.25 1.78-4.26 1.91-6.54-0.382-7.698 6.207-19.049 9.55-21.3 0.07 6.66 1.73 13.13 4.21 19.28 0.13 4.48 2.14 9.03 0.18 13.37 10.5-1.894-4.583-38.107 9.25-45.52 8.597 22.136-6.061 36.86 4.58 53.41 0.62-0.48 1.87-1.45 2.49-1.94-0.66 0.8-1.32 1.61-1.98 2.44 2.39 4.99-1.85 9.24-5.51 12.03-3.97 2.82-9.21 1.63-13.53 3.38-3.02 4.47-8.12 6.61-13.24 7.69-3.43 0.43-6.51 2.32-10.02 2.36-1.01 0.7-2.02 1.41-3.02 2.15-2.356 6.306 6.893 18.077-5.39 25.07-2.17 1.17-3.87 2.99-5.3 4.98-1.16 6.81-8.72 9.52-11.83 15.21-1.44 4.24 1.06 9.27-1.71 13.19-3.42 5.68-4.29 12.35-6.34 18.56-3.16 3.38-8.86 4.05-10.51 8.8-0.78 4.38 0.79 9.36-2.18 13.21-13.196 5.649-18.953 28.657-24.01 35.25-3.02 5.84-9.02 9.12-12.79 14.35-1.64 3.37-2.02 7.19-3.24 10.73-1.61 1.73-3.33 3.39-5.31 4.72-7.708 16.788-11.09 6.143-7.75 21.56 1.03 2.94-2.14 4.54-3.81 6.31-2.4 9.74-10.23 16.71-15.74 24.74-4.409 4.98-11.705 21.742-23.89 35.18-4.18 3.19-6.68 7.97-10.82 11.21-2.59 3.86-6.47 6.43-10.26 9.01-4.565 12.773 0.652 6.208-7.51 15.32l-2.28 0.48c-1.674 3.81-8.354 25.525-7.32 31.96 5.56 0.86 8.58-4.23 11.26-8.1 0.49-0.13 1.48-0.4 1.98-0.53 6.885 12.134 0.147 12.58 9.65 17.6 0.75-1.05 1.73-1.94 2.19-3.13 0.99-5.99-1.18-12.03-0.22-17.96 2.01-4.08 8.52-5.03 11.23-1.03 2.47 2.97 5.04 5.87 7.41 8.95 0.61 0.02 1.84 0.08 2.45 0.11 2.79-4.33-2.86-8.76-0.71-13.42 2.55-1.22 4.43-3.32 6.01-5.59 2.18-3.13 5.87-4.73 8.07-7.84 10.462-14.006 0.138-25.97 11-37.88 4.382-4.644 27.006-25.52 31.13-28.06 8.218-5.323 5.7-7.178 12.81-4.62 8.5 3.936 6.467 0.892 16.95 13.22 4.4 4.78 11.66 4.42 16.51 8.59 0.85 1.48 0.49 5.08 2.93 4.48 11.941-10.146-1.976-24.708 10.31-39 3.28-3.37 6.74-6.61 9.6-10.34 1.49-2.57 2.73-5.31 4.99-7.31 5.506 7.447 4.283 4.275 4.64 13.01 6.023-0.127 4.804-9.573 5.86-15.34 1.27 2.57 3.39 4.47 6.13 5.4-1.98-5.6 0.25-11.32 2.35-16.51 1.28-3.27 0.6-7.41 3.48-9.88 7.63-7.74 8.38-19.07 11.8-28.84 6.06-3.47 12.45-6.73 17.25-11.92 2.3 3.21 3.99 7.32 1.98 11.13 0.43 0.28 1.3 0.84 1.74 1.12 0.12 2.73 0.06 5.49-0.29 8.23 3.58 5.601 5.554 9.4 3.8 24.46-0.64 0.06-1.91 0.16-2.55 0.22-0.81 2.3-2.03 4.41-3.06 6.63-0.14 3.96-0.23 7.97 0.04 11.94 0.38 0.24 1.13 0.72 1.51 0.96 0.17 4.77 4.79 7.37 6.27 11.62 1.5 3.68 1.34 7.7 1.66 11.61 0.34 5 1.95 9.89 1.56 14.97 0.5 6.66-1.44 13.24-0.57 19.92 1.35 8.49-1.87 17.1 0.42 25.52-0.57 0.63-1.72 1.88-2.29 2.51 0.7 1.3 2.26 2.56 1.87 4.25-0.56 4.6-2.05 9.1-1.88 13.8 0.08 2.72-1.69 5.04-1.92 7.7 0.688 15.321-7.294 14.236-7.04 29.02-5.559 18.669-3.526 4.24-5.85 20.73-0.97 3.42-2.76 6.53-4.3 9.73-0.72-0.01-2.16-0.02-2.88-0.03-5.05 14.86-19.39 85.88-32.96 98.12 0.76 3.11-0.38 6.05-1.59 8.89-7.062 27.504-4.847 9.397-7.86 28.42-2.3 2.12-3.44 4.98-3.93 8.04-1.65 3.55-2.46 7.35-3.2 11.19-0.71 4.27-5.18 7.57-3.51 12.21 1.38 3.99 2.2 8.47 5.05 11.73 0.55 1.38 1.08 2.8 1.59 4.25-0.82 1.69-1.56 3.43-2.09 5.26 1.47-0.39 2.66-1.32 3.81-2.24 0.51-0.04 1.52-0.13 2.03-0.18 2.74-4.3 4.64-10.5 10.42-11.37 5.072-1.897 15.98 7.122 22.03 8.96 3.61 0.78 7.11-1.47 10.72-0.64 3.22 0.58 6.52 0.43 9.76 0.82 3.86 0.32 5.43 4.68 9.04 5.73 4.17 1.38 7.38 5.27 12.06 4.91 0.39 0.41 1.17 1.24 1.56 1.66 1.35 0.25 2.7 0.54 4.06 0.85 1.03 2.6 1.34 5.37 0.81 8.15 0.079 1 10.843 159.85 6.008 200.36-0.31 2.6-1.733 5.035-2.188 7.625-4.513 24.364-18.566 37.448-39.79 49.34-4.76 1.56-8.89 4.5-13.63 6.06-4.186 2.111-8.61 2.893-10.602 7.64-1.353 3.224-1.935 9.652-1.495 11.484 1.253 5.209 10.37 3.198 14.202 3.004 8.55-0.433 17.148 0.09 25.709 0.143 16.927 0.105 31.33-5.499 63.609-0.939 12.166 1.719 17.036-0.151 17.036-15.952 4.208-12.656-3.532-29.669-5.18-38.27-12.862-68.59 14.559-143.27 14.07-180.51 0.68-16.43-2.37-32.64-3.27-48.98-1.103-10.704 10.352-4.903 16.51-5.45 3.23-0.43 6.02 1.76 9.22 1.73 27.445 0.794 23.775-3.913 41.73-4.96 5.841-0.041 1.464-2.898 18.42-1.53-1.75 7.3-2.67 15.18 0.28 22.321-1.802 6.757 1.063 7.795 8.522 49.072 3.52 19.477 10.352 45.409 9.928 73.797-4.49 10.123-14.351 34.775-7.16 43.28 6.397 7.567 41.099 60.456 45.057 67.443 12.067 21.305 47.001 26.002 55.623 6.807 1.78-4.05-0.2-8.33-0.05-12.49 0.599-24.48-20.877-38.461-32.13-55.6-10.413-14.037-23.684-43.076-23.22-53.4 0.612-75.307 4.57-137.77 4.57-137.77 1.36-4.82-2.13-10.03 0.99-14.49 3.04 1.88 6.27-1.25 9.32 0.56 0.48-0.14 1.45-0.41 1.93-0.54 11.703 2.395 12.97-1.639 16.87-6.81 10.661-3.588 16.438 2.249 21.54 11.83 1.56 0.15 3.1 0.46 4.54 1.16-2.408-12.55 14.192-25.681-2.95-43.97-3.35-3.47-5.76-7.67-8.6-11.52-2.36-3-2.48-7.08-4.87-10.05-3.92-60.111 4.275-26.837-10.81-70.57-0.379-9.11-11.196-32.46-11.76-35.91-5.923-5.584-9.868-18.763-9.86-23.84-0.405-29.633-2.763-25.724-4.97-36.22-1.176-5.741-9.595-21.145-8.81-28.06-1.96-2.15-0.47-4.08 1.37-5.61-0.446-14.327-4.935-16.667-2.14-44.05 0.89-7.01 0.26-14.09 1.04-21.1-1.48-0.95-4.33-1.64-3.47-3.99 0.05-1.82 1.86-2.35 3.12-3.15 2.727-36.062-5.165-33.483 16.4-94.63 1.4 0.39 2.82 0.69 4.27 0.99 0.1-2.47 0.22-4.93 0.35-7.38-0.89 0-2.67-0.01-3.56-0.02-1.04-1.94 1.51-2.84 2.56-3.92 0.25-4.55-1.86-9.97 1.59-13.7 1.26-0.06 2.53-0.11 3.8-0.13 0.55 2.95 0.76 7.22 4.24 8.22-0.21-6.8 0.8-13.63-0.26-20.39-1.15-7.2 2.627-26.386 5.15-33.21 2.91-4.42 7.62-7.14 11.64-10.42 3.85-3.27 4.54-8.56 6.78-12.81 3.87-6.31 9.95-10.77 14.48-16.53 2.25-4.2 3.38-8.99 6.39-12.78 9.845-12.715 13.473-21.933 35.91-42.13 0.55 0.89 1.11 1.8 1.67 2.74-0.63 1.74-1.73 5.41 1.32 5.22 4.35-0.54 6.26-5.36 7.92-8.86 2.49 2.79 2.98 6.52 3.53 10.07 9.985-7.371-3.138-17.588 5.18-36.85 2.84-3.48 6.05-6.64 9.56-9.44 3.55-3.67 4.93-10 10.54-11.23 8.432-7.2 8.126-18.248 18.71-24.57 0.54-4.09-0.48-8.04-1.14-12.01 0.331-1.248 45.677-55.733 45-54.83 4.405-5.873 20.238-23.605 22.05-16.86 1.92 3.17 2.71 8.47 7.12 8.97 11.325 2.546 6.084-14.287 6.86-19.78 4.91-1.15 8.56-4.78 12.11-8.11 3.67-3.57 8.82-5.04 12.47-8.63 5.836-5.613 4.924-14.33 6.71-17.37 10.948-20.194 13.143-40.834 20.34-39.27 7.2 1.08 16.32 1.19 20.83 7.88 1.56 1.92 0.33 4.42 0.07 6.58 1.23 0.24 2.49 0.54 3.74 0.83 0.94-0.33 1.89-0.65 2.85-0.95 1.16-1.26 2.4-2.43 3.69-3.54 0.5 1.24 1.01 2.48 1.54 3.74 2.04 0.05 3.54 1.4 5.07 2.57 0.832-10.553-1.456-28.465 0.93-41.9 1.01-1.29 2.41-2.19 3.54-3.36 0.96-4.17-1.72-8.28-0.36-12.39 1.45-4.67 2.48-9.55 4.99-13.79 2.16-7.13 3.38-14.67 7.4-21.06 8.001-9.344 13.781-14.952 11.48-29.93 0.02-3.77 1.86-7.86-0.65-11.24 1.23-1.18 2.47-2.35 3.74-3.48-0.14-1.09-0.26-2.16-0.36-3.22 3.075-1.901 10.253-25.172 14.76-29.1 0.32-4.02 3.4-6.7 6.05-9.36-0.19-3.74 2.77-6.79 2.32-10.53-0.663-11.098 2.596-11.746 4.14-20.33 5.75-7.37 11.34-15.56 12.09-25.17 0.14-4.09 3.49-6.81 5.48-10.06 8.612-12.673 0.57-16.543 10.61-34.43 1.62-5.22 4.18-10.09 5.47-15.42 3.55-8.5 3.55-18.37 9.21-25.98 5.22-6.42 3.97-15.19 6.47-22.62 2.97-4.03 6.78-7.65 8.26-12.61 1.76-6.81 1.5-14.13 4.69-20.55 5.513-10.482-0.126-9.821 7.88-20.29 1.316-27.375 7.446-30.174 9.89-38.83 3.22-8.22 1.97-17.21 2.38-25.8 3.118-9.462 11.299-12.729 12.04-28.77 0.21-6.54 3.39-12.39 4.42-18.76 4.157-10.63 0.742-25.847 7.41-25.16 2.2-0.2 2.83 2.08 3.67 3.63-1.247 6.02 5.22 14.28 2.29 28.15-0.36 2.5-1.21 5.33 0.21 7.66 12.764 21.515 17.387 16.78 20.44 42.22 0.27 4.19 2.22 7.99 3.16 12.04 1.12 5.32 5.17 9.32 6.75 14.47 2.53 7.72 7.62 14.19 12.3 20.7 3.49 4.89 9.77 7.36 12.29 12.95-0.23 4.3-0.25 8.61 0.49 12.89-0.19 5.82-1.06 11.71-0.28 17.54-3.02 2.8-3.7 6.95-5.12 10.62-1.25 3.43-4.01 6.11-4.83 9.73-9 11.886-21.852 22.224-33.16 35.51-1.05 3.34-3.65 5.98-4.34 9.47-0.75 3.41-2.34 6.53-3.46 9.83-1.5 1.46-2.94 2.98-4.27 4.6-0.65 2.49-1.6 4.89-2.71 7.22-3.76 2.11-5.68 6.39-5.93 10.56-0.28 4.09-2.72 7.61-3.07 11.69-1.69 2.78-2.69 5.87-3.57 8.99-1.18 4.24-4.48 7.68-4.54 12.25-1.43 4.32-1.12 9.03-3.06 13.19-0.99 5.58-0.63 11.63-3.2 16.85-1.65 3.32-1.21 7.38-3.73 10.33-2.38 2.573-0.198 21.587-2.12 29.16-0.64 2.24-0.61 4.58-0.6 6.91-4.93 4.58-1.01 12.05-5.28 17.05 0 2.23-0.27 4.44-0.56 6.67 0.32 0.47 0.95 1.41 1.27 1.88-1.67 1.79-3.27 3.64-4.77 5.58-0.59 0.08-1.78 0.24-2.37 0.32-1.5 1.24-3.02 2.45-4.57 3.61-5.241 13.945-0.085 10.811-0.52 18.33 0.58 2.08 0.48 4.24 0.48 6.4-3.22-0.3-1.75 3.65-2.29 5.59 0.73-0.06 2.18-0.16 2.91-0.22-0.89 0.26-1.76 0.53-2.62 0.82-0.74 6-3.18 11.66-3.81 17.63-1.87 1.87-2.96 5.04-0.54 6.98-0.39 1.45-0.57 2.95-0.65 4.48-0.23 0.4-0.67 1.2-0.9 1.61 0.89 3.87-2.66 6.89-2.21 10.85 0.25 0.41 0.73 1.23 0.98 1.64-3.799 4.352-5.884 20.062-5.73 23.33-0.15 2.66 0.79 5.6-0.87 7.96 2.72 3.68 0.4 8.37-0.21 12.37 1.045 8.542-2.343 10.139-4.61 23.92 1.1 2.13 2.1 4.31 2.9 6.6-2.429 7.692 1.108 10.392-1.56 26.18 0.58 2.7 0.89 5.47-1.19 7.67-0.53-0.34-1.6-1.01-2.14-1.34-2.726 7.203 2.714 14.681-2.74 17.21-0.36 1.49-0.69 3.01-0.99 4.54 1.682 7.364-0.204 4.599 2.16 40.06-0.98 13.74-6.62 26.67-7.64 40.39-0.98 1.97-2.9 3.42-3.41 5.66-0.69 2.67-2.04 5.08-3.97 7.06 0.05 0.73 0.15 2.17 0.2 2.89-6.381 13.482 9.984 3.719 25.41 33.8 0.49 4.29-1.21 8.22-2.3 12.25 0.03 4.73-2.09 9.12-1.92 13.86-1.12 7.59 1.68 15.42-1 22.84 4.046 11.373-3.466 15.339-2.88 31.17 0.37 5.2-2.5 10.78 0.85 15.52 0.16 3.79 2.07 7.1 2.8 10.79 0.89-0.7 2.7-1.05 2.56-2.47 0.01-3.71 0.19-7.43 1.36-10.97 0.6 0.11 1.8 0.33 2.4 0.43 0.11 1.05 0.23 2.11 0.36 3.19 1.87 2.34 3.06 5.7 6.05 6.83 0-2.15-0.36-4.21-1.43-6.05-2.014-3.222 2.234-14.647 9.85-13.82 5.29 3.68 10.84 7.44 17.36 8.46 4.34 1.13 9.21-0.62 13.22 1.89 3.64 2.14 7.44 4 11.26 5.8 8.207 64.462-2.049 90.898 6.81 120.05 0.94 2.34-1.04 4.71-0.01 7.07 7.291 22.49-5.747 194.29 9.05 259.16 17.131 75.105 29.337 302.42 25.22 308.37-3.22 5.29-4.7 11.37-7.31 16.94-1.436 3.064-4.419 4.913-6.104 7.978-5.011 9.115-11.171 17.492-19.119 25.242-4.153 4.049-9.272 7.062-13.237 11.24-4.42 2.45-8.27 5.73-12.53 8.45-5.51 3.9-11.94 6.15-18.02 8.99-3.59 2.39-6.87 6.24-6.38 10.86-0.264 2.89 1.381 5.156 2.727 7.548h110.3c1.279-1.507 2.838-2.747 4.656-3.599 0.955-2.012 2.809-3.644 4.364-5.289 2.14-3.63 3.51-8.13 7.33-10.41 2.14-0.46 4.61-0.63 6.44 0.85-0.07 2.4 0.97 4.62 1.55 6.95-0.235 3.883 1.239 7.584 0.882 11.498h24.874c0.239-1.175 0.526-2.335 0.879-3.47-1.097-7.475 2.251-36.212 10.425-55.978 1.74-4.48 3.93-9.16 2.92-14.09-2.052-8.751-1.35-20.105-5.84-28.08-1.65-5.58-6.29-9.63-7.61-15.32-2.63-7.34-2.22-15.29-4.51-22.7-12.841-84.491-7.061-95.022-5.951-202.44 21.063-160.26 16.54-148.19 13.151-217.51-6.898-51.896-0.254-82.936 12.14-117.75 2.84-6.26 3.66-13.36 7.57-19.14 0.49-0.27 1.49-0.83 1.99-1.1 1.99-5.77 5.97-10.67 7.35-16.65 2.4-9.38 4.61-18.99 9.53-27.42 4.469-11.305 22.04-21.505 24.16-26.7 1.33-3.4 4.58-5.34 7.76-6.72 11.089-5.356 20.013 3.9 32.239 1.76 13.873-2.428 12.365 9.366 14.031 19.777 1.867 11.673 7.443 22.377 9.07 33.813 3.15 4.7 4.63 10.23 6.82 15.42 0.52 4.64 2.36 8.96 3.31 13.52 15.078 22.325 13.608 122.1 12.15 148.22-0.088 27.321 18.619 117.12 19.04 126.91 1e-3 0.018 2.255 37.493 2.37 38.09 2.27 11.56 0.21 23.37 1.02 35.03 2.298 33.078-2.85 69.117-11.415 98.148-3.99 13.516-24.464 23.404-2.395 69.572 0.87 1.82 2.41 7.73 4.2 10.35 2.89 5.21 5.08 10.87 5.76 16.84 4.388 5.766 11.682 55.409 13.73 62.36 7.161 17.11 2.339 23.895 21.522 42.95 12.46 12.376 17.742 18.152 34.758 15.76 4.52-0.69 7.74-4.19 11.55-6.38 26.129-32.397 16.431-74.072 2.04-111.3-18.338-42.446-22.925-75.646-22.51-103.34 0 0 42.479-276.76 46.174-328.24 2.395-33.361-0.968-66.525-1.354-99.736-0.15-12.939-8.213-44.241-7.87-54.16-1.646-4.867 1.139-23.082 0.21-35.84 2.99-13.65 1.78-27.8 2.11-41.67 1.2-1.13 2.95-1.31 4.45-1.89 5.56-1.63 10.84-4.59 14.67-8.99 9.783-11.316 19.763-7.572 27.4-14.56 2.7-2.68 4.48-6.33 7.92-8.21 7.233-4.738 9.462 1.706 25.7-10.31 3.44-2.59 8.11-2.75 11.43-5.54 3.74-2.85 4.87-8.44 2.94-12.64-6.14-16.16-5.95-33.71-9.61-50.44 2.67-4.64 8.68-4 12.95-6.12 16.904-9.086 4.026-16.836 7.64-25.67 3.867-9.892-5.755-10.154-3.48-19.76 1.82-5.88-0.18-12.11-1.97-17.74-2.99-4.3-2.53-9.75-4.35-14.47-1.84-4.53-8.37-6.42-7.73-11.99 0.67-18.497-8.665-38.59-9.83-45.12-0.88-5.277 2.245-28.395-7.98-46.3-7.881-13.081 4.028-16.795-0.47-29.58-1.03-4.48-3.84-8.27-5.6-12.46-2.14-4.13-1.75-8.97-3.53-13.21-8.395-19.969 4.541-39.938-12.14-56.22-0.68-0.1-2.03-0.3-2.71-0.41-1.62-4.32-4.2-8.93-2.32-13.61 2.26-6.76 1.76-14.62-2.57-20.46-2.81-3.41-4.31-7.61-6.76-11.23-2.35-4.06-2.97-8.83-3.35-13.42-1.48-9.46-4.4-18.87-3.62-28.53 0.48-0.02 1.42-0.05 1.89-0.06 4.56 3.68 9.31 7.57 15.32 8.4 1.649 1.188 34.528 17.125 38.38 20.01 17.185 12.874 37.456 22.305 53.23 36.87 2.41 1.22 4.48 3.01 6.18 5.12 0.95-0.08 1.93-0.14 2.92-0.19 0.42 3.73-0.64 8.65 3.63 10.45 1.99-0.86 4.08-1.47 6.25-1.73 0.46 0.99 0.94 2 1.43 3.03 1.44 0.02 2.89 0.05 4.38 0.14 1 0.813 25.261 7.78 25.04 31.39-5.14 6.02-7.39 14.22-6.8 22.08 1.413 17.375-4.548 10.918-5.83 26.94-1.45 7.1-3.72 14.03-4.93 21.19 0.25 0.47 0.76 1.41 1.02 1.89-2.467 10.274-5.309 5.265-11.31 16.38-1.47 2.76-4.12 4.54-6.02 6.94-2.081 3.453-2.952 14.671 10.183 17.083 14.13 2.595 40.871-7.579 54.872-17.148 17.408-11.897 31.922-35.285 38.995-39.846 5.636-7.615 14.162-13.04 20.601-20.082 32.089-35.095 24.395-57.284 24.281-61.397zm-1427.2 350.95c-1.14-0.45-1.52-1.61-1.94-2.61 1.24-0.03 2.49-0.02 3.73 0.02-0.37 0.99-0.42 2.44-1.79 2.59z" fill="inherit"/></g></svg>