<?xml version="1.0" encoding="utf-8"?>
<!-- Generator: Adobe Illustrator 21.0.0, SVG Export Plug-In . SVG Version: 6.00 Build 0)  -->
<!DOCTYPE svg PUBLIC "-//W3C//DTD SVG 1.1//EN" "http://www.w3.org/Graphics/SVG/1.1/DTD/svg11.dtd">
<svg version="1.1" id="Layer_1" xmlns="http://www.w3.org/2000/svg" xmlns:xlink="http://www.w3.org/1999/xlink" x="0px" y="0px"
	 viewBox="0 0 155.9 190.2" style="enable-background:new 0 0 155.9 190.2;" xml:space="preserve">
<g id="Change2">
	<path style="fill:#AB5166;" d="M84.6,188.8c0,0-2.3,1.3-6.8,1.3s-7.3-1.3-7.3-1.3v-40h14.1V188.8z"/>
</g>
<g id="Change1">
	<path style="fill:#5C887C;" d="M114,127.3c16.9-2.4,28.9-12.1,28.9-12.1c-17.5,3.2-30.2-10.5-40-26.5c15.9,0.2,27.5-8.1,27.5-8.1
		c-16.4,3-27.3-11.3-35.5-26.1c11.9,0,20.5-7.4,20.5-7.4C87.9,52.1,77.9,0,77.9,0s-10,52.1-37.4,47.1c0,0,8.6,7.4,20.5,7.4
		c-8.3,14.8-19.1,29.1-35.5,26.1c0,0,11.6,8.3,27.5,8.1c-9.8,15.9-22.5,29.7-40,26.5c0,0,12,9.7,28.9,12.1
		C30.7,141.8,16.8,152.6,0,149.6c0,0,18.3,17.7,78.3,17.7s77.6-17.7,77.6-17.7C139.1,152.6,125.2,141.8,114,127.3z"/>
</g>
</svg>
