<?xml version="1.0" encoding="UTF-8"?><svg xmlns="http://www.w3.org/2000/svg" xmlns:xlink="http://www.w3.org/1999/xlink" height="315.9" preserveAspectRatio="xMidYMid meet" version="1.1" viewBox="96.2 56.7 271.4 315.9" width="271.4" zoomAndPan="magnify">
 <g id="surface1">
  <g id="change1_1"><path d="m214.86 368.48c-32.15 0-111.63-5.02-118.67-96.54 0.001 0 20.59 36.47 20.62 32.18 0.1-13.92-20.619-64.87 31.17-99.57 63.38-42.45 44.25-94.53 29.17-95.54 0 0 40.56-4.1 44.25 49.69 2.01 29.26 26.65-55.22 12.07-101.98 0-0.005 74.05 39.218 64.87 135.76 0 0 11.44-21.87 30.67-10.18 0 0-12.07 4.15-8.04 36.34 4.02 32.18 21.62 149.84-106.11 149.84" fill="#f0473a"/></g>
  <g id="change2_1"><path d="m205.31 365.14c-20.79-0.94-60.35-5.53-60.35-57.32s51.8-58.84 51.8-106.61c0 0 24.64 8.55 22.13 32.19 0 0 48.27-30.17 44.25-65.88 0 0 104.42 205.05-57.83 197.62" fill="#f69225"/></g>
  <g id="change2_2"><path d="m205.31 365.14c-20.79-0.94-60.35-5.53-60.35-57.32s51.8-58.84 51.8-106.61c0 0 24.64 8.55 22.13 32.19 0 0 48.27-30.17 44.25-65.88 0 0 104.42 205.05-57.83 197.62" fill="#f69225"/></g>
  <g id="change3_1"><path d="m215.37 275.93s12.57 36.86-8.05 36.86c-14.33 0-12.57-15.58-12.57-15.58s-39.98 64.86 20.62 64.86c12.27 0 33.69-2.51 33.69-35.7s-18.61-46.57-33.69-50.44" fill="#fff432"/></g>
 </g>
</svg>