<?xml version="1.0" encoding="utf-8"?>
<!-- Generator: Adobe Illustrator 15.1.0, SVG Export Plug-In . SVG Version: 6.00 Build 0)  -->
<!DOCTYPE svg PUBLIC "-//W3C//DTD SVG 1.1//EN" "http://www.w3.org/Graphics/SVG/1.1/DTD/svg11.dtd">
<svg version="1.1" id="Layer_1" xmlns="http://www.w3.org/2000/svg" xmlns:xlink="http://www.w3.org/1999/xlink" x="0px" y="0px"
	 width="453.271px" height="501.107px" viewBox="0 0 453.271 501.107" enable-background="new 0 0 453.271 501.107"
	 xml:space="preserve">
<g id="change1">
	<path fill="#A05695" d="M161.334,474.404c-39.488,6.584-84.473-45.578-74.978-101.048c9.714-56.757,84.049-313.165,62.408-194.519
		c-5.414,67.2,16.105,111.982,48.016,181.339C220.45,411.617,225.491,463.707,161.334,474.404"/>
	<path fill="#A05695" d="M67.961,387.301c-1.907,26.093,20.393,95.287,75.388,97.02c-25.705,27.683-108.015,22.367-130.504-25.216
		c-40.159-84.964,26.321-138.1,30.275-173.696C50.535,263.162,72.348,327.239,67.961,387.301"/>
	<path fill="#A05695" d="M291.937,474.404c39.486,6.584,84.472-45.578,74.979-101.048c-9.715-56.757-84.048-313.165-62.407-194.519
		c5.411,67.2-16.108,111.982-48.018,181.339C232.823,411.617,227.779,463.707,291.937,474.404"/>
	<path fill="#A05695" d="M385.309,387.301c1.906,26.093-20.392,95.287-75.387,97.02c25.704,27.683,108.015,22.367,130.504-25.216
		c40.159-84.964-26.321-138.1-30.275-173.696C402.736,263.162,380.921,327.239,385.309,387.301"/>
	<path fill="#A05695" d="M227.443,379.515c1.851,3.412-28.232-50.425-34.164-68.222c-10.381-32.628-36.629-103.026-10.381-187.608
		c20.021-64.514,27.33-103.085,29.661-123.095c7.416-10.381,84.537,118.646,74.896,209.113
		c-4.09,38.342-18.538,71.929-27.437,103.074C254.086,335.022,230.662,385.446,227.443,379.515"/>
</g>
</svg>
