<?xml version="1.0" encoding="UTF-8"?><svg xmlns="http://www.w3.org/2000/svg" xmlns:xlink="http://www.w3.org/1999/xlink" height="182.2" preserveAspectRatio="xMidYMid meet" version="1.0" viewBox="58.0 121.9 303.1 182.2" width="303.1" zoomAndPan="magnify"><g id="change1_1"><path d="M276.175,216.571c0.472-3.69-9.602-8.034-12.406-9.326c-3.858-1.777-9.399-2.784-12.781-7.119 c-6.548-8.391-20.736-21.715-38.221-34.302c-0.18,0.118-0.343,0.273-0.531,0.372c-4.476,2.339-7.678-19.503-12.192-21.435 c-4.484-1.92,3.244-13.808-17.292-9.077c-0.574,0.132-40.44,3.917-39.995,3.546c-12.546,1.073-27.619,5.623-38.158,13.151 c0,0,8.573,37.441,12.75,42.001c20.406,22.277,6.798,51.19,10.2,53.632c17.121,12.291,39.508,9.743,45.121,9.106 c-0.64-0.756,13.918,2.046,13.087,1.513c-1.011-0.649,0.114,2.407,5.453,1.672c5.475-0.754,6.635-15.142,9.12-9.925 c18.914-6.968,35.744-17.766,49.214-27.529c2.556-1.852,6.272-2.082,9.711-2.541 C263.541,219.736,275.549,221.455,276.175,216.571z" fill="#a38fc3"/></g><g id="change2_1"><path d="M189.59,262.446c-2.707,0-4.396-0.912-5.3-1.843c-0.128-0.017-0.258-0.035-0.39-0.054 c-0.972-0.135-2.286-0.341-3.682-0.561c-2.152-0.338-5.603-0.881-6.861-0.965c-0.146,0.053-0.301,0.089-0.459,0.107 c-23.792,2.698-38.437-3.663-46.532-9.474c-1.971-1.414-1.544-4.361-0.769-9.71c1.467-10.128,4.197-28.98-9.744-44.199 c-1.265-1.38-3.511-5.324-8.405-23.554c-1.382-5.15-2.621-10.138-3.416-13.416c-1.587-6.542-1.587-6.542-1.29-7.217 c0.147-0.333,0.381-0.621,0.677-0.833c9.979-7.127,24.985-12.308,39.164-13.521c0.166-0.015,0.331-0.008,0.491,0.018 c3.108-0.07,36.785-3.202,39.298-3.536c7.141-1.637,11.771-1.508,14.568,0.407c2.568,1.758,2.967,4.521,3.259,6.538 c0.136,0.943,0.306,2.118,0.642,2.262c2.697,1.155,4.351,5.374,6.755,12.186c1.063,3.013,2.793,7.914,3.966,9.108 c0.032-0.022,0.064-0.044,0.097-0.065c0.702-0.457,1.612-0.436,2.291,0.053c16.021,11.534,31.187,25.154,38.635,34.701 c2.174,2.787,5.495,4.014,8.706,5.201c1.173,0.434,2.28,0.843,3.325,1.325l0.553,0.252c7.09,3.228,13.574,6.814,13.017,11.172 l0,0c-0.692,5.406-8.315,5.386-14.432,5.369c-1.68-0.004-3.267-0.008-4.232,0.12c-0.453,0.061-0.911,0.117-1.371,0.174 c-2.761,0.341-5.617,0.694-7.417,1.999c-18.147,13.152-33.941,21.982-49.703,27.79c-0.523,0.193-1.079,0.157-1.552-0.062 c-0.215,0.475-0.438,1.003-0.629,1.457c-1.443,3.416-3.418,8.094-7.364,8.637C190.805,262.404,190.174,262.446,189.59,262.446 z M187.719,258.081c0.541,0.22,1.543,0.442,3.213,0.212c1.66-0.228,3.238-3.964,4.181-6.197 c1.186-2.808,2.043-4.837,4.092-4.883c0.695-0.015,1.317,0.227,1.859,0.724c14.933-5.68,30.005-14.204,47.29-26.73 c2.646-1.918,6.029-2.336,9.3-2.74c0.447-0.055,0.892-0.11,1.332-0.169c1.236-0.166,2.877-0.158,4.779-0.156 c3.038,0.012,10.154,0.027,10.398-1.826c0.003-0.221-0.282-2.239-10.674-6.97l-0.569-0.26 c-0.902-0.416-1.938-0.799-3.035-1.204c-3.392-1.254-7.613-2.814-10.497-6.51c-5.391-6.909-18.208-19.663-36.763-33.148 c-0.757,0.249-1.564,0.229-2.32-0.069c-2.646-1.041-4.207-5.133-6.532-11.723c-1.215-3.441-3.248-9.201-4.53-9.809 c-2.425-1.039-2.776-3.461-3.057-5.408c-0.272-1.878-0.511-3.069-1.537-3.772c-1.207-0.827-4.172-1.46-11.443,0.215 c-0.721,0.167-20.229,1.967-20.425,1.985c-4.961,0.456-9.909,0.897-13.626,1.207c-3.319,0.275-5.176,0.429-6.279,0.403 c-12.963,1.118-26.601,5.686-35.995,12.01c3.521,15.256,9.357,36.903,11.962,39.747c15.239,16.636,12.33,36.727,10.767,47.52 c-0.347,2.397-0.737,5.091-0.589,6.041c7.492,5.279,20.898,10.927,42.672,8.614c0.977-0.488,3.003-0.169,9.155,0.799 c1.426,0.224,3.111,0.489,4.083,0.614c0.548-0.155,1.224-0.12,1.92,0.326C187.274,257.195,187.577,257.614,187.719,258.081z M276.175,216.57h0.01H276.175z" fill="#524797"/></g><g id="change3_1"><path d="M149.305,164.957c-4.177-4.56-23.62-22.35-43.064-15.752c0,0-0.001,0-0.001,0 c-26.422,8.966-48.252,43.133-38.959,70.767c2.561,7.615,7.482,14.734,15.326,20.693c0.033,0.025,0.06,0.051,0.093,0.076 c0.011,0.008,0.021,0.015,0.032,0.023c8.014,6.051,16.622,9.846,25.562,12.237c12.963,3.466,26.628,3.953,40.237,3.862 C167.631,248.279,173.312,191.165,149.305,164.957z" fill="#c3b7db"/></g><g id="change4_1"><path d="M140.859,142.035c0.175,0.409,0.623,0.573,1.025,0.689c8.371,2.415,17.311,1.959,25.583,4.746 c6.469,2.179,12.244,6.249,17.722,10.567c3.899,3.073,7.759,6.337,12.243,8.257c4.513,1.933,10.327,2.24,14.803-0.1 c0.188-0.099,0.351-0.254,0.531-0.372c3.739-2.442,5.708-8.835,3.251-12.835c-0.838-1.365-2.081-2.454-2.64-3.977 c-1.2-3.269,1.225-6.746,3.758-8.946c2.533-2.201,5.581-4.36,6.217-7.81c0.642-3.481-1.626-6.989-4.538-8.618 c-2.912-1.628-6.316-1.784-9.593-1.783c-19.414,0.007-37.718,5.494-56.021,12.06c-3.667,1.316-7.408,2.779-10.444,5.314 c-0.445,0.372-0.876,0.765-1.288,1.186C141.047,140.842,140.616,141.467,140.859,142.035z" fill="#e8a482"/></g><g id="change4_2"><path d="M184.73,246.938c-5.34,0.735-10.671,1.541-15.992,2.418c-0.406,0.067-0.826,0.14-1.17,0.382 c-0.986,0.693-0.818,2.408-0.041,3.363c0.778,0.955,1.934,1.414,2.945,2.063c0.831,0.533,1.557,1.199,2.197,1.955 c1.998,2.36,3.126,5.639,3.715,8.843c0.778,4.23,0.859,8.624,2.103,12.721c0.29,0.955,0.659,1.917,1.323,2.62 c1.528,1.618,4.052,1.333,6.033,0.467c6.952-3.037,10.712-11.094,13.407-18.673c0.899-2.529,1.758-5.126,1.885-7.895 c0.085-2.015-0.219-3.59-0.806-4.822C197.844,245.16,190.205,246.184,184.73,246.938z" fill="#e8a482"/></g><g id="change2_2"><path d="M91.444,195.915c-0.602,0-1.203-0.05-1.798-0.151c-4.385-0.746-7.761-4.041-10.581-7.07 c-0.549-0.59-0.517-1.514,0.074-2.063c0.591-0.55,1.515-0.516,2.063,0.074c2.609,2.802,5.447,5.588,8.935,6.182 c2.329,0.395,4.796-0.285,6.601-1.823c1.808-1.542,2.887-3.887,2.885-6.275c0-0.807,0.653-1.46,1.459-1.461 c0,0,0.001,0,0.001,0c0.806,0,1.459,0.653,1.46,1.459c0.001,3.233-1.46,6.41-3.912,8.499 C96.637,194.984,94.046,195.915,91.444,195.915z" fill="#524797"/></g><g id="change2_3"><path d="M76.392,231.238c-0.509,0-1.015-0.062-1.507-0.188c-0.989-0.252-1.841-0.701-2.666-1.135 c-0.569-0.299-1.106-0.582-1.638-0.771c-0.76-0.27-1.156-1.105-0.886-1.865c0.271-0.759,1.108-1.157,1.865-0.886 c0.728,0.259,1.384,0.604,2.019,0.938c0.707,0.372,1.374,0.723,2.03,0.89c1.025,0.265,2.195-0.012,3.212-0.755 c1.193-0.871,1.954-2.212,2.035-3.588c0.047-0.806,0.749-1.417,1.543-1.372c0.805,0.048,1.419,0.739,1.372,1.543 c-0.132,2.236-1.339,4.395-3.229,5.774C79.272,230.752,77.818,231.238,76.392,231.238z" fill="#524797"/></g><g id="change2_4"><path d="M171.498,242.934c-1.381,0-2.687-0.501-3.655-1.437c-0.58-0.56-0.596-1.484-0.036-2.064 c0.559-0.581,1.484-0.596,2.064-0.036c0.563,0.544,1.426,0.744,2.309,0.536c0.98-0.231,1.748-0.887,2.054-1.753 c0.848-2.404-1.066-5.217-2.83-7.398c-0.311-0.385-0.406-0.901-0.252-1.371s0.535-0.831,1.014-0.958 c2.245-0.595,3.831-3.7,3.327-6.515c-0.479-2.676-2.586-5.125-5.368-6.238c-0.749-0.3-1.112-1.15-0.813-1.898 c0.3-0.749,1.151-1.114,1.898-0.813c3.751,1.502,6.494,4.734,7.157,8.435c0.638,3.566-0.924,7.24-3.565,8.994 c1.816,2.537,3.291,5.6,2.186,8.734c-0.638,1.808-2.185,3.162-4.137,3.623C172.397,242.882,171.944,242.934,171.498,242.934z" fill="#524797"/></g><g id="change2_5"><path d="M179.715,187.565c-0.646,0-1.238-0.433-1.411-1.088c-0.206-0.78,0.259-1.578,1.039-1.784 c1.178-0.311,2.023-2.186,1.738-3.857c-0.273-1.598-1.28-3.159-3.08-4.774c-0.34-0.306-0.972-0.874-1.087-1.799 c-0.119-0.966,0.388-1.687,0.691-2.118c1.386-1.975,1.63-4.846,0.621-7.023c-0.976-2.105-3.143-3.565-5.283-3.565 c-0.022,0-0.043,0.001-0.066,0c-0.799,0-1.451-0.644-1.459-1.444c-0.008-0.806,0.638-1.467,1.444-1.476 c3.337-0.003,6.54,2.077,8.014,5.257c1.448,3.125,1.106,7.098-0.851,9.887c-0.025,0.035-0.05,0.071-0.074,0.106 c0,0,0.001,0.001,0.002,0.002c2.308,2.071,3.619,4.183,4.006,6.455c0.483,2.831-0.86,6.377-3.871,7.172 C179.964,187.549,179.839,187.565,179.715,187.565z" fill="#524797"/></g><g id="change2_6"><path d="M188.405,224.262c-0.799,0-1.451-0.644-1.459-1.445c-0.008-0.806,0.639-1.467,1.445-1.475 c1.902-0.02,3.781-2.02,4.103-4.369c0.318-2.318-0.646-4.906-2.514-6.754c-0.301-0.296-0.654-0.644-0.879-1.175 c-0.736-1.741,0.554-3.087,1.325-3.891c0.162-0.169,0.323-0.335,0.461-0.502c0.663-0.797,0.688-2.349,0.059-3.607 c-0.669-1.336-1.887-2.378-3.183-3.416c-0.352-0.282-0.554-0.711-0.547-1.162c0.006-0.451,0.221-0.874,0.582-1.145 c1.438-1.082,3.067-2.308,3.824-3.984c0.596-1.321,0.525-3.009-0.19-4.516c-0.63-1.329-1.644-2.266-2.78-2.569 c-0.779-0.208-1.242-1.008-1.033-1.787c0.208-0.78,1.006-1.244,1.787-1.033c1.966,0.525,3.666,2.034,4.665,4.139 c1.077,2.271,1.157,4.875,0.213,6.968c-0.765,1.695-2.029,2.961-3.286,3.996c0.999,0.903,1.921,1.927,2.56,3.203 c0.974,1.948,1.221,4.8-0.425,6.78c-0.18,0.217-0.387,0.435-0.599,0.655c-0.214,0.224-0.551,0.575-0.683,0.791 c0.039,0.039,0.09,0.089,0.133,0.131c2.558,2.529,3.843,6.064,3.403,9.275c-0.525,3.83-3.584,6.857-6.965,6.892 C188.415,224.262,188.41,224.262,188.405,224.262z" fill="#524797"/></g><g id="change2_7"><path d="M168.564,195.839c-0.315,0-0.632-0.102-0.899-0.311c-0.635-0.497-0.746-1.415-0.249-2.049 c1.42-1.812,1.999-4.385,1.512-6.714c-0.482-2.307-2.005-4.334-3.974-5.29l-0.245-0.116c-0.534-0.248-1.199-0.557-1.738-1.184 c-1.377-1.603-0.801-3.559-0.338-5.131c0.191-0.649,0.372-1.262,0.417-1.791c0.164-1.916-1.636-3.561-2.723-4.37 c-0.369-0.274-0.75-0.539-1.132-0.804c-1.494-1.037-3.188-2.212-4.243-4.073c-0.349-0.616-0.206-1.393,0.338-1.844 c0.872-0.722,1.229-2.296,0.83-3.661c-0.382-1.31-1.368-2.511-2.773-3.383c-1.317-0.816-2.813-1.259-4.323-1.28 c-0.806-0.011-1.451-0.674-1.44-1.48c0.011-0.806,0.688-1.437,1.48-1.44c2.041,0.028,4.054,0.623,5.821,1.718 c2.019,1.251,3.453,3.043,4.038,5.046c0.584,2,0.232,4.176-0.844,5.715c0.737,0.864,1.736,1.558,2.78,2.283 c0.408,0.284,0.816,0.567,1.21,0.861c2.718,2.024,4.099,4.496,3.889,6.96c-0.07,0.822-0.301,1.607-0.525,2.367 c-0.357,1.211-0.567,2.033-0.248,2.404c0.127,0.148,0.431,0.289,0.753,0.438l0.29,0.137c2.764,1.342,4.894,4.146,5.557,7.319 c0.658,3.15-0.136,6.642-2.072,9.113C169.426,195.647,168.997,195.839,168.564,195.839z" fill="#524797"/></g><g id="change2_8"><path d="M160.346,143.186c-0.504,0-0.994-0.261-1.265-0.728c-0.404-0.698-0.167-1.591,0.531-1.995 c16.062-9.307,34.182-14.1,52.401-13.826c0.806,0.011,1.45,0.674,1.438,1.48c-0.011,0.806-0.634,1.453-1.48,1.439 c-17.688-0.264-35.29,4.39-50.895,13.433C160.846,143.122,160.595,143.186,160.346,143.186z" fill="#524797"/></g><g id="change2_9"><path d="M169.992,146.219c-0.576,0-1.122-0.344-1.353-0.91c-0.304-0.747,0.055-1.599,0.802-1.902 c11.286-4.592,23.082-7.678,35.06-9.174c0.79-0.095,1.529,0.468,1.629,1.268c0.1,0.8-0.468,1.529-1.268,1.629 c-11.725,1.464-23.272,4.485-34.321,8.98C170.361,146.184,170.175,146.219,169.992,146.219z" fill="#524797"/></g><g id="change2_10"><path d="M183.514,151.075c-0.621,0-1.197-0.399-1.393-1.023c-0.241-0.769,0.187-1.588,0.956-1.83 c5.472-1.716,11.106-3.02,16.748-3.874c0.796-0.119,1.541,0.428,1.662,1.225s-0.428,1.541-1.225,1.662 c-5.494,0.832-10.981,2.101-16.31,3.773C183.806,151.053,183.659,151.075,183.514,151.075z" fill="#524797"/></g><g id="change2_11"><path d="M191.432,157.033c-0.627,0-1.208-0.408-1.397-1.04c-0.232-0.772,0.205-1.586,0.978-1.818l5.968-1.796 c0.774-0.229,1.586,0.205,1.819,0.977c0.232,0.772-0.205,1.586-0.977,1.819l-5.969,1.796 C191.712,157.012,191.571,157.033,191.432,157.033z" fill="#524797"/></g><g id="change2_12"><path d="M182.749,276.281c-0.77,0-1.414-0.603-1.456-1.38c-0.316-5.779-1.342-11.491-3.05-16.977 c-0.395-1.268-0.701-1.412-0.714-1.417c-0.79-0.163-1.296-0.934-1.134-1.724s0.938-1.3,1.726-1.135 c1.976,0.406,2.654,2.586,2.91,3.407c1.779,5.716,2.848,11.667,3.177,17.686c0.044,0.805-0.573,1.493-1.378,1.537 C182.804,276.28,182.776,276.281,182.749,276.281z" fill="#524797"/></g><g id="change2_13"><path d="M186.743,273.068c-0.035,0-0.07-0.001-0.105-0.004c-0.804-0.057-1.41-0.756-1.352-1.56 c0.393-5.516-0.303-11.185-2.013-16.395c-0.251-0.766,0.166-1.591,0.932-1.842c0.765-0.249,1.591,0.166,1.842,0.932 c1.827,5.567,2.571,11.623,2.151,17.513C188.143,272.481,187.502,273.068,186.743,273.068z" fill="#524797"/></g><g id="change2_14"><path d="M192.491,268.41c-0.054,0-0.109-0.003-0.164-0.009c-0.801-0.089-1.378-0.811-1.289-1.612 c0.473-4.245,0.118-8.651-1.026-12.741c-0.217-0.777,0.236-1.582,1.012-1.799c0.778-0.217,1.583,0.236,1.799,1.012 c1.245,4.448,1.63,9.237,1.116,13.851C193.856,267.858,193.225,268.41,192.491,268.41z" fill="#524797"/></g><g id="change4_3"><path d="M356.201,221.671c-8.983-10.273-23.548-14.241-38.501-15.086c-14.954-0.844-30.656,1.113-45.871,1.182 c-2.741,0.012-6.126-0.849-8.62-2.192c-2.494-1.343-4.662,2.494-5.564,7.099c-0.902,4.605-2.293,7.685,1.535,9.999 c3.828,2.314,16.816,11.953,21.873,21.95c7.007,13.851,10.551,29.875,15.366,45.098c1.892,5.98,4.605,12.398,10.873,13.477 c4.817,0.829,10.704-1.948,15.009-6.141c4.305-4.193,7.207-9.597,9.182-14.954c2.779-7.535,3.92-15.431,2.149-22.04 c-0.606-2.262-1.534-4.624-0.51-7.193c0.862-2.163,2.947-3.896,5.046-4.9c2.099-1.004,4.269-1.427,6.413-2.025 c6.173-1.724,13.275-6.1,15.094-12.388C361.052,228.799,358.862,224.714,356.201,221.671z" fill="#e8a482"/></g><g id="change2_15"><path d="M308.901,288.494c-0.652,0-1.247-0.44-1.414-1.102c-6.287-24.793-19.345-48.053-36.767-65.495 c-0.57-0.57-0.569-1.495,0.001-2.064c0.571-0.569,1.495-0.569,2.064,0.001c17.789,17.808,31.117,41.546,37.532,66.84 c0.198,0.782-0.275,1.576-1.056,1.774C309.141,288.479,309.02,288.494,308.901,288.494z" fill="#524797"/></g><g id="change2_16"><path d="M317.861,272.671c-0.59,0-1.146-0.36-1.366-0.945c-7.956-21.094-22.012-39.598-39.578-52.104 c-0.657-0.468-0.81-1.379-0.343-2.036c0.468-0.656,1.379-0.81,2.036-0.343c18.034,12.839,32.458,31.822,40.616,53.453 c0.285,0.754-0.096,1.597-0.851,1.881C318.207,272.64,318.033,272.671,317.861,272.671z" fill="#524797"/></g><g id="change2_17"><path d="M337.375,224.119c-0.197,0-0.398-0.041-0.59-0.125c-15.861-7.026-34.108-7.177-50.207-7.311 c-0.806-0.007-1.454-0.666-1.448-1.472c0.007-0.806,0.677-1.433,1.472-1.448c16.383,0.136,34.951,0.29,51.365,7.561 c0.737,0.327,1.07,1.189,0.744,1.926C338.47,223.795,337.936,224.119,337.375,224.119z" fill="#524797"/></g><g id="change2_18"><path d="M341.814,240.992c-0.297,0-0.596-0.09-0.855-0.277c-12.136-8.782-26.853-13.655-41.438-13.72 c-0.807-0.004-1.457-0.66-1.454-1.466c0.004-0.804,0.657-1.454,1.46-1.454c0.002,0,0.004,0,0.006,0 c15.191,0.068,30.511,5.138,43.137,14.275c0.653,0.473,0.799,1.385,0.327,2.039 C342.712,240.782,342.266,240.992,341.814,240.992z" fill="#524797"/></g><g id="change2_19"><path d="M321.749,247.556c-0.325,0-0.652-0.108-0.923-0.33l-13.972-11.431c-0.624-0.511-0.716-1.43-0.206-2.054 c0.51-0.625,1.43-0.717,2.054-0.206l13.972,11.431c0.624,0.511,0.716,1.43,0.206,2.054 C322.592,247.373,322.172,247.556,321.749,247.556z" fill="#524797"/></g></svg>