<?xml version="1.0" encoding="utf-8"?>
<!DOCTYPE svg PUBLIC "-//W3C//DTD SVG 1.1//EN" "http://www.w3.org/Graphics/SVG/1.1/DTD/svg11.dtd">
<!-- Generator: Adobe Illustrator 19.1.0, SVG Export Plug-In . SVG Version: 6.00 Build 0)  -->
<svg version="1.1" id="Layer_1" xmlns="http://www.w3.org/2000/svg" xmlns:xlink="http://www.w3.org/1999/xlink" x="0px" y="0px"
	 viewBox="0 0 203 203" enable-background="new 0 0 203 203" xml:space="preserve">
<g id="change2">
	<g>
		<path fill="#FFFFFF" d="M199.8,83c0.1,0.8,0.3,1.5,0.4,2.3c0.9,5.3,1.3,10.7,1.3,16.2c0,21-6.5,40.6-17.6,56.7l-8.6-2l-3.1-32
			l15.2-38.9L199.8,83z"/>
	</g>
	<g>
		<polygon fill="#FFFFFF" points="164.4,48.2 187.4,85.3 172.2,124.2 134.4,124.2 110.4,88.2 128.1,48.2 		"/>
	</g>
	<g>
		<path fill="#FFFFFF" d="M175.3,156.2l8.6,2c-14.8,21.5-37.8,36.9-64.5,41.7l16.7-16.4L175.3,156.2z"/>
	</g>
	<g>
		<path fill="#FFFFFF" d="M171.9,30.5l-7.6,17.7h-36.3L92.7,25.2l3.7-23.5c1.7-0.1,3.4-0.1,5.1-0.1c25.1,0,48.1,9.3,65.6,24.5
			C168.8,27.5,170.4,29,171.9,30.5z"/>
	</g>
	<g>
		<path fill="#FFFFFF" d="M136.1,183.5l-16.7,16.4c-5.8,1-11.8,1.6-17.9,1.6c-8.5,0-16.7-1.1-24.6-3.1L54.7,181L71,160.5h41.7
			L136.1,183.5z"/>
	</g>
	<g>
		<polygon fill="#FFFFFF" points="110.4,88.2 134.4,124.2 112.7,160.5 71,160.5 48.5,123 68.9,88.2 		"/>
	</g>
	<g>
		<path fill="#FFFFFF" d="M96.4,1.6l-3.7,23.5L55.1,48.2H25.8V36.1C43.1,16.1,68.2,3,96.4,1.6z"/>
	</g>
	<g>
		<path fill="#FFFFFF" d="M76.9,198.4C53,192.4,32.5,177.7,19,158l35.7,23L76.9,198.4z"/>
	</g>
	<g>
		<polygon fill="#FFFFFF" points="55.1,48.2 68.9,88.2 48.5,123 17.4,121 2.3,88.7 2.3,88.7 25.8,48.2 		"/>
	</g>
	<g>
		<path fill="#FFFFFF" d="M17.4,121l1.5,36.9c-11-16.1-17.4-35.5-17.4-56.4c0-4.3,0.3-8.6,0.8-12.8L17.4,121z"/>
	</g>
</g>
<g id="change1">
	<g>
		<path fill="#594B4A" d="M171.9,30.5C186,44.5,196,62.7,199.8,83l-12.4,2.3l-23.1-37.1L171.9,30.5z"/>
	</g>
	<g>
		<polygon fill="#594B4A" points="172.2,124.2 175.3,156.2 136.1,183.5 112.7,160.5 134.4,124.2 		"/>
	</g>
	<g>
		<polygon fill="#594B4A" points="128.1,48.2 110.4,88.2 68.9,88.2 55.1,48.2 92.7,25.2 		"/>
	</g>
	<g>
		<path fill="#594B4A" d="M48.5,123L71,160.5L54.7,181L19,158c0,0,0,0,0-0.1L17.4,121L48.5,123z"/>
	</g>
	<g>
		<path fill="#594B4A" d="M25.8,36.1v12.1L2.3,88.7C4.9,68.7,13.3,50.6,25.8,36.1z"/>
	</g>
	<g>
		<path fill="#594B4A" d="M18.9,157.9C18.9,157.9,18.9,158,18.9,157.9L18.9,157.9L18.9,157.9z"/>
	</g>
	<g>
		<path fill="#594B4A" d="M101.5,203c-8.5,0-16.9-1-25-3.1c-23.9-6-44.8-20.6-58.8-41.1l2.5-1.7c13.6,19.8,33.8,34,57,39.9
			c13.5,3.4,28,3.9,41.9,1.4c25.6-4.6,48.7-19.6,63.5-41.1c11.3-16.4,17.3-35.8,17.3-55.8c0-5.3-0.4-10.7-1.3-15.9
			c-0.1-0.8-0.2-1.5-0.4-2.2l2.9-0.6c0.2,0.8,0.3,1.6,0.4,2.3c0.9,5.4,1.3,10.9,1.3,16.4c0,20.7-6.2,40.6-17.9,57.5
			c-15.2,22.2-39.1,37.6-65.4,42.4C113.7,202.5,107.6,203,101.5,203z"/>
	</g>
	<g>
		<path fill="#594B4A" d="M17.7,158.8C6.1,141.9,0,122.1,0,101.5c0-4.3,0.3-8.7,0.8-12.9l0-0.1c2.5-19.8,10.8-38.2,23.9-53.3
			c18-20.9,44.1-33.6,71.6-35l0.2,3c-26.7,1.3-52,13.7-69.5,34C14.3,51.7,6.3,69.6,3.8,88.8l0,0.1C3.3,93,3,97.3,3,101.5
			c0,19.9,5.9,39.2,17.2,55.6L17.7,158.8z"/>
	</g>
	<g>
		<path fill="#594B4A" d="M186.7,87l-23.6-38l2.5-1.6l22.5,36.2l9.9-1.8c-3.8-19.1-13.2-36.4-27.1-50.2l2.1-2.1
			c14.7,14.6,24.5,33,28.3,53.3l0.3,1.5L186.7,87z"/>
	</g>
	<g>
		<path fill="#594B4A" d="M165.4,49.7h-37.3v-3h35.3l6.8-15.8c-1.4-1.3-2.7-2.5-4-3.7C148.2,11.6,125.3,3,101.5,3
			c-1.2,0-2.5,0-3.8,0.1l-3.5,22.3l-3-0.5l3.9-24.7l1.2-0.1C98.1,0,99.8,0,101.5,0c24.5,0,48.1,8.8,66.6,24.9
			c1.6,1.4,3.2,2.9,4.9,4.6l0.7,0.7L165.4,49.7z"/>
	</g>
	<g>
		<path fill="#594B4A" d="M111.4,89.7H67.8L53.2,47.6l39.5-24.2l37.2,24.3L111.4,89.7z M70,86.7h39.5l16.8-37.9L92.7,26.9L56.9,48.9
			L70,86.7z"/>
	</g>
	<g>
		<polygon fill="#594B4A" points="55.1,49.7 24.3,49.7 24.3,36.1 27.3,36.1 27.3,46.7 55.1,46.7 		"/>
	</g>
	<g>
		<path fill="#594B4A" d="M2.3,90.2c-0.2,0-0.5-0.1-0.7-0.2c-0.7-0.4-1-1.3-0.6-2c0,0,0-0.1,0.1-0.1l23.5-40.5
			c0.4-0.7,1.3-1,2.1-0.5c0.7,0.4,1,1.3,0.5,2.1L3.6,89.4C3.3,89.9,2.8,90.2,2.3,90.2z"/>
	</g>
	<g>
		<path fill="#594B4A" d="M55,183l-37.5-24.2l-1.6-39.4l33.6,2.2l23.4,39L55,183z M20.4,157.1l34,21.9l14.8-18.6l-21.5-35.9
			L19,122.6L20.4,157.1z"/>
	</g>
	<g>
		
			<rect x="57.2" y="85.4" transform="matrix(0.8634 0.5045 -0.5045 0.8634 61.2925 -15.1916)" fill="#594B4A" width="3" height="40.4"/>
	</g>
	<g>
		<path fill="#594B4A" d="M96.4,3.1c-0.1,0-0.2,0-0.3,0c-0.8-0.1-1.4-0.9-1.2-1.7l0-0.1c0.1-0.8,0.9-1.4,1.7-1.2
			C97.5,0.2,98,1,97.9,1.8l0,0.1C97.7,2.6,97.1,3.1,96.4,3.1z"/>
	</g>
	<g>
		<path fill="#594B4A" d="M171.9,32c-0.8,0-1.5-0.7-1.5-1.5v0c0-0.8,0.7-1.5,1.5-1.5s1.5,0.7,1.5,1.5S172.8,32,171.9,32z"/>
	</g>
	<g>
		<path fill="#594B4A" d="M134.4,125.7c-0.5,0-1-0.2-1.2-0.7l-24-36c-0.5-0.7-0.3-1.6,0.4-2.1c0.7-0.5,1.6-0.3,2.1,0.4l24,36
			c0.5,0.7,0.3,1.6-0.4,2.1C135,125.6,134.7,125.7,134.4,125.7z"/>
	</g>
	<g>
		<path fill="#594B4A" d="M172.2,125.7c-0.2,0-0.4,0-0.5-0.1c-0.8-0.3-1.2-1.2-0.9-1.9L186,84.8c0.3-0.8,1.2-1.2,1.9-0.9
			c0.8,0.3,1.2,1.2,0.9,1.9l-15.2,38.9C173.4,125.3,172.8,125.7,172.2,125.7z"/>
	</g>
	<g>
		<path fill="#594B4A" d="M136,185.4l-25.2-24.7l22.7-38.1h40.1l3.3,34.2L136,185.4z M114.6,160.3l21.7,21.3l37.5-26.1l-2.9-29.8
			h-35.6L114.6,160.3z"/>
	</g>
	<g>
		<path fill="#594B4A" d="M183.9,159.7c-0.1,0-0.2,0-0.3,0l-8.6-2c-0.8-0.2-1.3-1-1.1-1.8s1-1.3,1.8-1.1l8.6,2
			c0.8,0.2,1.3,1,1.1,1.8C185.2,159.2,184.6,159.7,183.9,159.7z"/>
	</g>
	<g>
		<path fill="#594B4A" d="M119.4,201.4c-0.4,0-0.8-0.1-1.1-0.4c-0.6-0.6-0.6-1.5,0-2.1l16.7-16.4c0.6-0.6,1.5-0.6,2.1,0
			s0.6,1.5,0,2.1L120.5,201C120.2,201.3,119.8,201.4,119.4,201.4z"/>
	</g>
	<g>
		<path fill="#594B4A" d="M112.7,162H71c-0.8,0-1.5-0.7-1.5-1.5s0.7-1.5,1.5-1.5h41.7c0.8,0,1.5,0.7,1.5,1.5S113.5,162,112.7,162z"
			/>
	</g>
	<g>
		
			<rect x="51.6" y="188.2" transform="matrix(0.7856 0.6187 -0.6187 0.7856 131.4739 -2.346636e-02)" fill="#594B4A" width="28.2" height="3"/>
	</g>
	<g>
		<polygon fill="#594B4A" points="16,121.7 1,89.4 3.6,88 3.7,88 18.8,120.4 		"/>
	</g>
</g>
</svg>
