<?xml version="1.0" encoding="iso-8859-1"?>
<!-- Generator: Adobe Illustrator 16.0.0, SVG Export Plug-In . SVG Version: 6.00 Build 0)  -->
<!DOCTYPE svg PUBLIC "-//W3C//DTD SVG 1.1//EN" "http://www.w3.org/Graphics/SVG/1.1/DTD/svg11.dtd">
<svg version="1.1" id="Layer_1" xmlns="http://www.w3.org/2000/svg" xmlns:xlink="http://www.w3.org/1999/xlink" x="0px" y="0px"
	 width="444.792px" height="489.814px" viewBox="0 0 444.792 489.814" style="enable-background:new 0 0 444.792 489.814;"
	 xml:space="preserve">
<g id="change1">
	<g>
		<path style="fill:#F7941E;" d="M396.574,31.127c2.049,2.856,4.084,5.718,7.824,10.94c6.906-14.655,12.977-27.53,19.043-40.397
			c1.271,0.216,2.545,0.42,3.822,0.624c-1.562,9.287-3.123,18.554-4.902,29.151c3.027-1.062,4.809-1.915,6.689-2.303
			c4.557-0.929,9.166-1.635,13.766-2.436c-1.246,5.343-1.996,10.877-3.918,15.953c-1.139,3.002-4.121,5.298-6.311,7.963
			c13.473,8.257,12.672,9.071,2.455,21.455c-22.428,27.225-41.721,56.554-52.311,90.673c-6.818,21.945-3.244,43.298,5.229,64.06
			c3.078,7.524,6.996,14.7,10.254,22.162c8.879,20.352,8.701,40.45-4.896,58.502c-12.156,16.17-16.412,33.269-12.951,53.127
			c2.557,14.705-4.27,23.076-19.375,26.512c-25.311,5.75-32.098,13.28-33.178,39.525c-0.65,15.939-9.898,24.935-22.455,31.88
			c-7.861,4.352-16.525,7.417-23.878,12.442c-6.927,4.745-12.62,11.309-21.817,15.698c3.881-8.32,7.155-16.996,11.742-24.909
			c14.654-25.291,19.317-52.069,12.53-80.489c-6.335-26.513-20.349-36.003-47.554-33.229c-32.351,3.295-59.486-7.468-72.233-38.113
			c-11.335-27.274-38.108-36.282-66.617-38.802c-14.032-1.246-28.16-2.85-41.835-6.067c-9.262-2.176-17.289-7.366-16.564-19.754
			c0.146-2.475-5.025-6.488-8.473-7.658c-6.093-2.074-12.753-2.5-19.171-3.62c0.058-1.094,0.115-2.188,0.178-3.289
			c6.691-1.329,13.383-2.652,23.255-4.618c-11.304-7.34-20.113-13.065-31.499-20.457c19.4-6.501,30.99,9.828,46.536,8.803
			c-0.534-5.68-0.954-10.132-1.374-14.579c0.821-0.611,1.641-1.228,2.449-1.832c3.269,3.155,6.233,6.755,9.891,9.408
			c8.434,6.113,16.48,14.795,25.978,17.053c28.14,6.691,53.647-1.819,74.638-21.194c13.09-12.092,13.135-27.676,7.353-44.074
			c-5.801-16.468-11.723-33.114-15.088-50.167c-5.419-27.574,6.997-48.285,32.574-58.481c23.039-9.178,46.11-1.52,61.465,20.889
			c5.564,8.116,10.043,16.964,15.38,25.246c14.114,21.9,38.165,31.499,61.21,19.617c21.762-11.227,41.76-26.531,60.611-42.35
			c6.234-5.223,7.023-17.493,9.188-26.786c1.094-4.713-0.307-10.012-0.566-15.056C394.632,31.814,395.599,31.464,396.574,31.127z
			 M197.378,167.636c15.412-19.795,35.952-28.655,62.571-28.217C231.537,124.961,206.334,136.697,197.378,167.636z M218.013,113.188
			c6.183,2.022,11.83,3.874,17.473,5.712c1.35-5.795,3.893-11.608,3.732-17.365c-0.178-6.278-2.85-12.499-4.629-19.515
			C229.099,92.337,224.361,101.255,218.013,113.188z M171.617,106.865c3.511,7.003,5.477,13.097,9.224,17.798
			c3.632,4.567,9.07,7.684,13.701,11.437c3.193-5.031,6.386-10.062,9.897-15.597C192.798,115.668,183.295,111.712,171.617,106.865z"
			/>
	</g>
</g>
<g id="change2">
	<g>
		<path style="fill:#808285;" d="M197.378,167.636c8.956-30.938,34.157-42.675,62.571-28.217
			C233.33,138.981,212.791,147.841,197.378,167.636z"/>
	</g>
	<g>
		<path style="fill:#808285;" d="M218.013,113.188c6.348-11.933,11.086-20.851,16.576-31.168c1.781,7.016,4.453,13.236,4.631,19.515
			c0.158,5.757-2.385,11.57-3.733,17.365C229.843,117.062,224.195,115.21,218.013,113.188z"/>
	</g>
	<g>
		<path style="fill:#808285;" d="M171.617,106.865c11.679,4.847,21.182,8.804,32.822,13.638c-3.511,5.534-6.704,10.565-9.897,15.597
			c-4.631-3.753-10.069-6.87-13.701-11.437C177.093,119.962,175.128,113.868,171.617,106.865z"/>
	</g>
</g>
</svg>
