<?xml version="1.0" encoding="iso-8859-1"?>
<!-- Generator: Adobe Illustrator 16.0.0, SVG Export Plug-In . SVG Version: 6.00 Build 0)  -->
<!DOCTYPE svg PUBLIC "-//W3C//DTD SVG 1.1//EN" "http://www.w3.org/Graphics/SVG/1.1/DTD/svg11.dtd">
<svg version="1.1" id="Layer_1" xmlns="http://www.w3.org/2000/svg" xmlns:xlink="http://www.w3.org/1999/xlink" x="0px" y="0px"
	 width="303.997px" height="491.653px" viewBox="0 0 303.997 491.653" style="enable-background:new 0 0 303.997 491.653;"
	 xml:space="preserve">
<g id="change1">
	<g>
		<path style="fill:#808285;" d="M219.448,198.894c-0.906,5.333-1.648,9.92-2.467,14.49c-2.744,15.286-5.915,30.491-6.268,46.134
			c-0.491,22.008,6.3,41.229,20.555,58.023c6.22,7.324,12.248,14.918,17.479,22.963c9.334,14.373,11.82,30.656,11.31,47.49
			c-0.429,14.303-2.371,28.354-7.71,41.762c-9.439,23.672-27.219,36.219-52.221,39.146c-16.545,1.932-32.723-0.738-48.929-3.562
			c-5.897-1.031-11.946-1.586-17.931-1.613c-6.897-0.035-9.866,3.393-9.866,10.314c0,2.291,0.28,4.588,0.521,6.867
			c0.229,2.162,0.574,4.309,0.868,6.465c-0.36,0.314-0.721,0.635-1.079,0.951c-0.328-0.77-0.521-1.646-1.006-2.297
			c-4.479-6.018-8.483-12.279-9.826-19.818c-1.53-8.574,2.114-14.164,10.611-16.416c9.212-2.439,18.483-1.469,27.723-0.203
			c13.289,1.82,25.803,0.053,36.897-7.955c15.077-10.875,20.854-29.969,15.045-49.369c-5.136-17.116-16.103-30.128-29.481-41.377
			c-11.895-10.012-25.209-17.778-39.256-24.303c-39.225-18.217-61.371-49.392-69.441-91.264
			c-3.502-18.185-4.004-36.529-2.635-54.954c0.088-1.186,0.112-2.376,0.189-4.047c-1.06,0.641-1.807,0.987-2.442,1.484
			c-7.715,6.054-16.095,6.85-24.586,2.269c-13.238-7.144-23.486-17.597-30.531-30.811c-5.769-10.817-2.928-22.044,6.762-29.578
			c7.664-5.964,16.34-9.05,26.073-6.914c2.901,0.641,5.956,2.424,8.057,4.549c8.788,8.916,17.023,8.905,24.367-1.281
			c3.646-5.062,6.503-10.924,8.604-16.818c6.62-18.569,13.214-37.132,22.901-54.383c7.661-13.646,17.386-25.595,31.022-33.683
			c21.819-12.931,43.8-11.854,64.95,1.271c23.239,14.42,35.865,36.188,40.697,62.781c2.942,16.198,0.896,32.141-3.251,47.778
			c-2.493,9.402-0.987,17.955,2.792,26.428c1.057,2.371,2.499,4.645,4.122,6.674c4.772,5.948,11.158,7.288,17.421,2.931
			c5.088-3.54,10.111-6.044,16.417-4.837c7.556,1.442,13.919,5.062,19.209,10.62c8.587,9.012,9.046,21.195,1.923,30.806
			c-17.955,24.223-50.201,30.411-74.009,6.663C222.054,201.296,221.028,200.378,219.448,198.894z M176.565,89.317
			c0.006,5.878,4.698,10.673,10.545,10.779c5.867,0.107,10.93-4.896,10.913-10.79c-0.017-5.969-4.938-10.806-10.919-10.726
			C181.243,78.655,176.561,83.428,176.565,89.317z M125.998,78.207c0.037,5.867,4.751,10.625,10.605,10.705
			c5.892,0.08,10.886-4.901,10.857-10.833c-0.029-5.932-5.029-10.79-10.985-10.673C130.637,67.518,125.96,72.344,125.998,78.207z"/>
	</g>
</g>
<g id="change2">
	<path style="fill:#414042;" d="M176.565,89.317c-0.005-5.889,4.678-10.662,10.539-10.737c5.979-0.08,10.902,4.757,10.919,10.726
		c0.017,5.895-5.046,10.897-10.913,10.79C181.264,99.99,176.571,95.195,176.565,89.317z"/>
	<path style="fill:#414042;" d="M125.998,78.207c-0.038-5.862,4.639-10.688,10.478-10.801c5.956-0.117,10.956,4.741,10.985,10.673
		c0.029,5.932-4.965,10.913-10.857,10.833C130.75,88.831,126.035,84.074,125.998,78.207z"/>
</g>
</svg>
