<?xml version="1.0" encoding="iso-8859-1"?>
<!-- Generator: Adobe Illustrator 16.0.0, SVG Export Plug-In . SVG Version: 6.00 Build 0)  -->
<!DOCTYPE svg PUBLIC "-//W3C//DTD SVG 1.1//EN" "http://www.w3.org/Graphics/SVG/1.1/DTD/svg11.dtd">
<svg version="1.1" id="Layer_1" xmlns="http://www.w3.org/2000/svg" xmlns:xlink="http://www.w3.org/1999/xlink" x="0px" y="0px"
	 width="254.523px" height="600.004px" viewBox="0 0 254.523 600.004" style="enable-background:new 0 0 254.523 600.004;"
	 xml:space="preserve">
<g id="change1">
	<path style="fill:#9AD7E5;" d="M0,0.279L253.874,0l0.231,206.505c0.064,51.804-31.341,96.644-76.024,116.367l-0.021,13.745
		c0.038,12.332-10.034,22.422-22.375,22.431l0.177,163.657l98.661,77.021l-253.9,0.278l98.503-77.234L98.94,359.114
		c-12.332,0.01-22.413-10.054-22.422-22.386l-0.037-13.744c-44.74-19.633-76.229-64.4-76.286-116.209L0,0.279z"/>
</g>
<g id="change2">
	<path style="fill:#AB2849;" d="M226.746,213.089L27.258,98.206l0.14,108.546c0.046,55.008,44.854,99.717,99.86,99.68
		C180.089,306.366,223.417,265.084,226.746,213.089"/>
</g>
</svg>
