<?xml version="1.0" encoding="utf-8"?>
<!-- Generator: Adobe Illustrator 16.0.0, SVG Export Plug-In . SVG Version: 6.00 Build 0)  -->
<!DOCTYPE svg PUBLIC "-//W3C//DTD SVG 1.1//EN" "http://www.w3.org/Graphics/SVG/1.1/DTD/svg11.dtd">
<svg version="1.1" id="Layer_1" xmlns="http://www.w3.org/2000/svg" xmlns:xlink="http://www.w3.org/1999/xlink" x="0px" y="0px"
	 width="283.465px" height="267.172px" viewBox="0 0 283.465 267.172" enable-background="new 0 0 283.465 267.172"
	 xml:space="preserve">
<g id="change2">
	<path fill="#8CCDB0" d="M129.145,148.434L3.989,23.278C1.522,20.811,0,17.404,0,13.64C0,6.105,6.099,0.006,13.634,0
		C99.035,0,184.43,0,269.83,0c7.529,0,13.635,7.99,13.635,13.64c0,5.644-1.527,7.171-3.994,9.639L154.314,148.434v84.617
		l67.465,34.121h-160.1l67.466-34.121V148.434L129.145,148.434z"/>
</g>
<g id="change1">
	<path fill="#FEE266" d="M141.729,24.184l3.862-3.384c15.121-15.122,39.634-15.122,54.755,0c15.121,15.121,15.121,39.639,0,54.755
		l-58.617,58.617L83.112,75.555c-15.121-15.116-15.121-39.634,0-54.755c15.121-15.122,39.634-15.122,54.755,0L141.729,24.184z"/>
</g>
</svg>
