<?xml version="1.0" encoding="UTF-8"?><svg xmlns="http://www.w3.org/2000/svg" xmlns:xlink="http://www.w3.org/1999/xlink" height="320.5" preserveAspectRatio="xMidYMid meet" version="1.0" viewBox="34.1 52.3 356.9 320.5" width="356.9" zoomAndPan="magnify"><g><g id="change1_1"><path d="M 379.0625 329.480469 C 379.0625 329.480469 348.6875 344.386719 342.082031 329.953125 C 335.480469 315.511719 323.25 288.792969 314.007812 268.578125 C 304.761719 248.382812 326.867188 235.644531 316.519531 195.859375 C 306.1875 156.078125 260.289062 116.847656 260.289062 116.847656 L 241.671875 125.367188 L 223.054688 133.875 C 223.054688 133.875 222.730469 194.265625 246.066406 228.082031 C 269.414062 261.925781 293.507812 253.535156 302.746094 273.730469 C 311.996094 293.941406 324.222656 320.664062 330.828125 335.101562 C 337.433594 349.53125 306.296875 362.769531 306.296875 362.769531 C 306.296875 362.769531 296.867188 366.933594 299.558594 372.824219 L 345.3125 351.886719 L 391.0625 330.960938 C 388.375 325.066406 379.0625 329.480469 379.0625 329.480469" fill="#b2c5d9"/></g><g id="change2_1"><path d="M 238.851562 171.957031 C 242.554688 171.734375 246.191406 172.15625 249.578125 174.132812 C 255.367188 177.53125 262.261719 179.804688 269.070312 178.929688 C 276.769531 177.945312 284.296875 174.878906 289.527344 169.609375 C 296.949219 178.582031 303.96875 189.152344 307.277344 199.949219 C 314.359375 222.953125 305.601562 233.878906 305.796875 244.765625 C 303.53125 247.351562 301.207031 249.382812 298.109375 250.472656 C 297.746094 250.449219 297.378906 250.40625 297.019531 250.324219 C 295.886719 250.070312 294.8125 250.011719 293.828125 250.089844 C 285.066406 244.058594 271.398438 244.300781 257.226562 225.570312 C 245.671875 210.316406 240.839844 186.835938 238.851562 171.957031" fill="#f9c159"/></g><g id="change1_2"><path d="M 46.136719 326.023438 C 46.136719 326.023438 76.507812 340.929688 83.113281 326.5 C 89.71875 312.058594 101.945312 285.339844 111.1875 265.121094 C 120.433594 244.925781 98.328125 232.191406 108.679688 192.402344 C 119.011719 152.621094 164.90625 113.390625 164.90625 113.390625 L 183.523438 121.910156 L 202.140625 130.421875 C 202.140625 130.421875 202.464844 190.808594 179.128906 224.628906 C 155.78125 258.472656 131.6875 250.074219 122.449219 270.273438 C 113.199219 290.488281 100.976562 317.203125 94.371094 331.644531 C 87.765625 346.078125 118.898438 359.316406 118.898438 359.316406 C 118.898438 359.316406 128.332031 363.476562 125.636719 369.367188 L 79.882812 348.433594 L 34.132812 327.503906 C 36.820312 321.609375 46.136719 326.023438 46.136719 326.023438" fill="#b2c5d9"/></g><g id="change2_2"><path d="M 186.347656 168.503906 C 182.644531 168.277344 179.007812 168.703125 175.617188 170.679688 C 169.828125 174.078125 162.9375 176.351562 156.125 175.476562 C 148.429688 174.492188 140.902344 171.421875 135.671875 166.15625 C 128.246094 175.125 121.230469 185.699219 117.917969 196.492188 C 110.835938 219.5 119.597656 230.421875 119.398438 241.308594 C 121.664062 243.894531 123.988281 245.929688 127.085938 247.019531 C 127.449219 246.996094 127.816406 246.953125 128.179688 246.871094 C 129.3125 246.617188 130.382812 246.558594 131.367188 246.632812 C 140.132812 240.605469 153.800781 240.847656 167.972656 222.117188 C 179.523438 206.863281 184.355469 183.378906 186.347656 168.503906" fill="#f9c159"/></g><g id="change1_3"><path d="M 200.75 115.304688 C 200.429688 115.304688 200.113281 115.148438 199.921875 114.867188 L 171.910156 73.707031 C 171.597656 73.253906 171.714844 72.628906 172.171875 72.320312 C 172.628906 72.007812 173.25 72.128906 173.5625 72.582031 L 201.574219 113.742188 C 201.886719 114.195312 201.769531 114.820312 201.3125 115.128906 C 201.140625 115.246094 200.945312 115.304688 200.75 115.304688" fill="#b2c5d9"/></g><g id="change1_4"><path d="M 215.625 111.578125 C 215.089844 111.578125 214.644531 111.152344 214.625 110.609375 L 212.683594 53.417969 C 212.664062 52.867188 213.097656 52.402344 213.648438 52.382812 C 214.222656 52.335938 214.664062 52.796875 214.683594 53.347656 L 216.625 110.542969 C 216.644531 111.09375 216.210938 111.558594 215.660156 111.574219 L 215.625 111.578125" fill="#b2c5d9"/></g><g id="change1_5"><path d="M 230.675781 115.304688 C 230.46875 115.304688 230.253906 115.238281 230.074219 115.101562 C 229.632812 114.769531 229.546875 114.140625 229.878906 113.699219 L 262.25 70.835938 C 262.582031 70.394531 263.210938 70.304688 263.648438 70.640625 C 264.09375 70.972656 264.179688 71.597656 263.847656 72.039062 L 231.476562 114.90625 C 231.277344 115.167969 230.980469 115.304688 230.675781 115.304688" fill="#b2c5d9"/></g></g></svg>