<?xml version="1.0" encoding="UTF-8"?><svg xmlns="http://www.w3.org/2000/svg" xmlns:xlink="http://www.w3.org/1999/xlink" height="127.7" preserveAspectRatio="xMidYMid meet" version="1.1" viewBox="98.5 148.3 228.2 127.7" width="228.2" zoomAndPan="magnify">
 <g id="surface1">
  <g id="change1_1"><path d="m142 186.64v69.78s21.89 19.58 70.6 19.58c51.24 0 70.6-19.58 70.6-19.58v-69.78h-141.2" fill="#1f3a68"/></g>
  <g id="change2_1"><path d="m217.07 224.27c-9.23 3.8-14.74 4.24-21.54 1.86l-94.16-29.9c-2.78-2.66-2.886-7.06-0.23-9.84l108.88-35.43c6.77-2.64 10.83-2.23 18.08 0.68l95.73 29.6c2.78 2.66 2.88 7.06 0.23 9.85l-106.99 33.18" fill="#20598b"/></g>
  <g id="change1_2"><path d="m218.69 181.31c0 3.92-3.17 7.09-7.09 7.09s-7.09-3.17-7.09-7.09 3.17-7.09 7.09-7.09 7.09 3.17 7.09 7.09" fill="#1f3a68"/></g>
  <g id="change1_3"><path d="m295.11 199.84l-8.2 2.51-72.2-16.65 2.21-4.63 78.19 18.77" fill="#1f3a68"/></g>
  <g id="change1_4"><path d="m295.11 217.22l-8.25 0.86 0.05-15.73 8.2-2.51v17.38" fill="#1f3a68"/></g>
  <g id="change3_1"><path d="m283.17 246.32h10.52l1.08-2.64 0.34 2.64h1.26c0.13-0.56 0.39-4.84 0.49-5.43 0 0 0.22 4.13 0.36 5.43h2.19c0.41-1.3 0.86-2.88 1.32-4.77 0.04-0.16 0.07-0.32 0.11-0.48 2.55-9.77 2.61-19.58-7.03-21.95-3.42-0.85-14.99 0.34-11.89 14.87 0.71 3.35 0.72 8.35 1.25 12.33" fill="#eba144"/></g>
  <g id="change4_1"><path d="m298.65 221.67c0-0.03 0.01-0.06 0.01-0.09 0-3.91-3.18-7.09-7.09-7.09-3.92 0-7.09 3.18-7.09 7.09v0.09h14.17" fill="#597083"/></g>
 </g>
</svg>