<?xml version="1.0" encoding="UTF-8"?><svg xmlns="http://www.w3.org/2000/svg" xmlns:xlink="http://www.w3.org/1999/xlink" height="36.1" preserveAspectRatio="xMidYMid meet" version="1.0" viewBox="0.9 -0.1 35.1 36.1" width="35.1" zoomAndPan="magnify"><g id="change1_1"><path d="M9.999 12c-.15 0-.303-.034-.446-.106-4.38-2.19-7.484-7.526-8.501-10.578C.876.792 1.16.226 1.684.051c.525-.176 1.091.109 1.265.632.877 2.632 3.688 7.517 7.499 9.422.494.247.694.848.447 1.342-.176.351-.529.553-.896.553z" fill="#77B255"/></g><g id="change2_1"><circle cx="19" cy="29" fill="#553788" r="7"/></g><g id="change3_1"><circle cx="10" cy="15" fill="#9266CC" r="7"/></g><g id="change4_1"><circle cx="19" cy="12" fill="#AA8DD8" r="7"/></g><g id="change5_1"><circle cx="27" cy="18" fill="#744EAA" r="7"/></g><g id="change5_2"><circle cx="9" cy="26" fill="#744EAA" r="7"/></g><g id="change3_2"><circle cx="18" cy="21" fill="#9266CC" r="7"/></g><g id="change3_3"><circle cx="29" cy="29" fill="#9266CC" r="7"/></g></svg>