<?xml version="1.0" encoding="iso-8859-1"?>
<!-- Generator: Adobe Illustrator 16.0.0, SVG Export Plug-In . SVG Version: 6.00 Build 0)  -->
<!DOCTYPE svg PUBLIC "-//W3C//DTD SVG 1.1//EN" "http://www.w3.org/Graphics/SVG/1.1/DTD/svg11.dtd">
<svg version="1.1" id="Layer_1" xmlns="http://www.w3.org/2000/svg" xmlns:xlink="http://www.w3.org/1999/xlink" x="0px" y="0px"
	 width="431.109px" height="459.516px" viewBox="0 0 431.109 459.516" style="enable-background:new 0 0 431.109 459.516;"
	 xml:space="preserve">
<g id="change1">
	<g>
		<path style="fill:#808285;" d="M371.133,459.516c0,0-284.909-26.244-341.138,0L0,354.54l52.488-52.032L37.49,174.603H0L101.218,0
			l95.592,137.119l-35.608,3.172l1.869,128.028c0,0,110.589-61.129,129.331-128.028c0,0,18.755,117.674,138.708,173.47h-37.483
			L371.133,459.516z"/>
	</g>
	<polygon style="fill:#808285;" points="337.387,279.572 337.387,212.094 378.628,212.094 378.628,281.018 	"/>
</g>
<g id="change2">
	<rect x="77.712" y="90.294" style="fill:#F7941E;" width="38.503" height="58.424"/>
	<rect x="89.115" y="273.295" style="fill:#F7941E;" width="38.503" height="58.427"/>
	<rect x="215.558" y="331.722" style="fill:#F7941E;" width="38.5" height="58.427"/>
	<rect x="280.66" y="331.722" style="fill:#F7941E;" width="38.499" height="58.427"/>
	<rect x="261.403" y="236.436" style="fill:#F7941E;" width="38.5" height="58.44"/>
</g>
</svg>
