<?xml version="1.0" encoding="UTF-8"?><svg xmlns="http://www.w3.org/2000/svg" xmlns:xlink="http://www.w3.org/1999/xlink" height="203.3" preserveAspectRatio="xMidYMid meet" version="1.1" viewBox="99.0 110.9 226.2 203.3" width="226.2" zoomAndPan="magnify">
 <g id="surface1">
  <g id="change1_1"><path d="m325.24 176.48c0-36.2-29.35-65.55-65.55-65.55-18.49 0-42.24 17.08-47.78 38.54-6.23-22.15-27.91-38.54-46.39-38.54-36.2 0-64.96 29.35-65.551 65.55-0.922 56.32 111.94 137.79 111.94 137.79s113.33-79.63 113.33-137.79" fill="#ee275c"/></g>
  <g id="change2_1"><path d="m234.64 288.2c17.64-15.8 28.97-39.64 32.94-63.86 3.48-21.27 1.23-43.2-7.88-62.79-5.65-12.16-15.9-27.32-28.87-33.89 8.3-6.29 17.99-10.16 26.5-10.16 34.06 0 61.68 27.61 61.68 61.67 0 32.25-36.92 76.23-84.37 109.03" fill="#f25583"/></g>
  <g id="change3_1"><path d="m195.74 293.77c-0.05 0-0.1-0.02-0.15-0.05 0 0-2.78-1.8-7.59-5.12-2.41-1.64-5.35-3.66-8.62-6.09-3.13-2.59-6.73-5.45-10.55-8.7-3.93-3.13-7.76-6.97-11.93-10.93-4.24-3.89-8.29-8.39-12.58-12.95-4.26-4.6-8.32-9.64-12.52-14.69-4.07-5.15-8.21-10.41-12.14-15.82-3.89-5.65-7.26-11.48-9.91-17.65-2.61-6.16-4.4-12.59-5.08-18.97-0.7-6.37-0.18-12.65 1.3-18.31 1.47-5.67 3.83-10.72 6.5-15.01 5.44-8.58 11.84-14.21 16.43-17.77 4.64-3.56 7.63-5.1 7.63-5.1 0.05-0.02 0.09-0.03 0.14-0.03 0.1 0 0.19 0.05 0.24 0.14 0.07 0.13 0.02 0.3-0.1 0.38 0 0-2.88 1.63-7.33 5.33-4.38 3.71-10.43 9.53-15.34 18.04-2.41 4.26-4.46 9.19-5.63 14.62-1.16 5.43-1.52 11.34-0.65 17.33 0.83 5.99 2.71 12.02 5.37 17.81 2.69 5.77 6.18 11.38 9.98 16.54 4.08 5.17 8.35 10.18 12.59 15.12 4.39 4.8 8.48 9.72 12.79 14.15 2.07 2.3 4.11 4.55 6.11 6.76 1.99 2.22 4.1 4.22 6.01 6.31 3.95 4.06 7.52 8.09 11.13 11.46 3.56 3.43 6.73 6.69 9.6 9.53 3 2.68 5.65 4.98 7.77 6.97 4.3 3.88 6.71 6.21 6.71 6.21l0.02 0.01c0.11 0.1 0.11 0.28 0 0.39-0.05 0.06-0.12 0.09-0.2 0.09" fill="#b11c41"/></g>
 </g>
</svg>