<?xml version="1.0" encoding="UTF-8"?><svg xmlns="http://www.w3.org/2000/svg" xmlns:xlink="http://www.w3.org/1999/xlink" height="168.7" preserveAspectRatio="xMidYMid meet" version="1.1" viewBox="130.5 124.4 205.6 168.7" width="205.6" zoomAndPan="magnify">
 <g id="surface1">
  <g id="change1_1"><path d="m274.06 208.77c0 46.57-16.46 84.33-36.77 84.33-20.3 0-36.77-37.76-36.77-84.33 0-46.58 16.47-84.34 36.77-84.34 20.31 0 36.77 37.76 36.77 84.34" fill="#3e85ce"/></g>
  <path d="m2882.1 2563.1l-1153.2-380.4" fill="none" stroke="#9cdee4" stroke-miterlimit="10" stroke-width="70.84" transform="matrix(.1 0 0 -.1 0 425.2)"/>
  <g id="change2_1"><path d="m133.52 220.41c3.06 9.29 13.07 14.34 22.36 11.28 9.28-3.07 33.31-29.64 33.31-29.64s-35.12-7.06-44.4-4c-9.29 3.07-14.34 13.08-11.27 22.36" fill="#5dcaf0"/></g>
  <g id="change2_2"><path d="m332.55 151.05c3.49 9.14-1.09 19.37-10.22 22.86-9.14 3.49-44.54-1.93-44.54-1.93s22.76-27.66 31.9-31.15c9.13-3.49 19.37 1.08 22.86 10.22" fill="#5dcaf0"/></g>
  <g id="change3_1"><path d="m264.28 234.75c0 6.7-5.44 12.14-12.14 12.14h-31.37c-6.71 0-12.15-5.44-12.15-12.14v-22.61c0-6.7 5.44-12.14 12.15-12.14h31.37c6.7 0 12.14 5.44 12.14 12.14v22.61" fill="#9cdee4"/></g>
 </g>
</svg>