<?xml version="1.0" encoding="iso-8859-1"?>
<!-- Generator: Adobe Illustrator 16.0.0, SVG Export Plug-In . SVG Version: 6.00 Build 0)  -->
<!DOCTYPE svg PUBLIC "-//W3C//DTD SVG 1.1//EN" "http://www.w3.org/Graphics/SVG/1.1/DTD/svg11.dtd">
<svg version="1.1" id="Layer_1" xmlns="http://www.w3.org/2000/svg" xmlns:xlink="http://www.w3.org/1999/xlink" x="0px" y="0px"
	 width="489.522px" height="231.48px" viewBox="0 0 489.522 231.48" style="enable-background:new 0 0 489.522 231.48;"
	 xml:space="preserve">
<g id="change1">
	<path style="fill:#F4BC33;" d="M446.832,55.587H214.636v0.002C194.321,22.258,157.63,0,115.74,0C51.819,0,0,51.819,0,115.74
		s51.819,115.74,115.74,115.74c41.89,0,78.581-22.257,98.896-55.591v0.004h47.201l36.051-39.284l27.511,31.309l26.566-31.309
		l27.511,32.261l29.407-32.261l25.618,31.309l55.021-60.716L446.832,55.587z M65.459,143.253c-15.195,0-27.513-12.315-27.513-27.513
		c0-15.195,12.317-27.511,27.513-27.511c15.193,0,27.511,12.315,27.511,27.511C92.97,130.938,80.652,143.253,65.459,143.253z"/>
</g>
</svg>
