<?xml version="1.0" encoding="UTF-8"?><svg xmlns="http://www.w3.org/2000/svg" xmlns:xlink="http://www.w3.org/1999/xlink" height="311.3" preserveAspectRatio="xMidYMid meet" version="1.0" viewBox="81.0 71.1 275.0 311.3" width="275.0" zoomAndPan="magnify"><g id="change1_1"><path d="M311.756,272.339c0,0,44.254-64.068-23.318-138.063c0,0-61.471-63.148-134.469-19.869 s-65.867,128.948-20.332,174.526C133.637,288.933,227.055,382.378,311.756,272.339z M173.24,250.351 c-22.525-22.547-26.053-64.926,10.059-86.336c36.111-21.41,66.52,9.829,66.52,9.829c33.428,36.604,11.535,68.298,11.535,68.298 C219.453,296.576,173.24,250.351,173.24,250.351z" fill="#A6DBF4"/></g><g fill="#EB5885" id="change2_1"><path d="M159.203,308.031c10.955-10.376,26.111-25.004,42.762-41.27c-16.994-4.685-28.725-16.411-28.725-16.411 c-7.252-7.26-12.531-16.576-15.156-26.585c-17.111,16.946-32.227,32.243-41.906,42.71c4.902,8.177,10.762,15.754,17.459,22.458 C133.637,288.933,143.297,298.584,159.203,308.031z" fill="inherit"/><path d="M267.412,117.979c-8.105,7.718-23.975,22.86-42.742,40.928c15.23,4.753,25.148,14.936,25.148,14.936 c9.318,10.203,14.334,20.022,16.727,28.882c17.02-17.173,31.869-32.481,41.338-42.833c-5.109-8.343-11.494-16.911-19.445-25.617 C288.438,134.276,280.68,126.313,267.412,117.979z" fill="inherit"/></g><g fill="#EB5885" id="change2_2"><path d="M261.354,242.142c-13.02,16.916-26.457,24.106-38.793,25.99c18.598,18.77,35.148,35.07,45.426,44.326 c14.504-8.4,29.264-21.272,43.77-40.118c0,0,0.012-0.017,0.025-0.037c-9.848-10.524-25.926-27.242-44.326-46.098 C265.537,236.083,261.354,242.142,261.354,242.142z" fill="inherit"/><path d="M156.932,200.764c2.348-13.987,10.559-27.377,26.367-36.749c5.539-3.285,10.943-5.325,16.125-6.435 c-18.816-18.626-35.262-34.506-45.182-43.33c-0.09,0.055-0.182,0.103-0.273,0.157c-18.746,11.115-32.197,25.028-41.08,40.338 C118.818,160.981,135.877,178.893,156.932,200.764z" fill="inherit"/></g></svg>