<?xml version="1.0" encoding="utf-8"?>
<!-- Generator: Adobe Illustrator 15.1.0, SVG Export Plug-In . SVG Version: 6.00 Build 0)  -->
<!DOCTYPE svg PUBLIC "-//W3C//DTD SVG 1.1//EN" "http://www.w3.org/Graphics/SVG/1.1/DTD/svg11.dtd">
<svg version="1.1" id="Layer_1" xmlns="http://www.w3.org/2000/svg" xmlns:xlink="http://www.w3.org/1999/xlink" x="0px" y="0px"
	 width="500.001px" height="435.634px" viewBox="0 0 500.001 435.634" enable-background="new 0 0 500.001 435.634"
	 xml:space="preserve">
<g id="change1">
	<g>
		<path fill="#F25757" d="M410.257,16.441c2.239,3.74,5.979,5.229,7.468,8.968c2.245,6.723,2.245,11.958-2.239,17.186
			c-2.989,2.989-5.979,5.228-8.968,6.723c-5.229,2.989-8.968,5.979-13.446,8.968c-9.719,5.979-14.196,16.441-15.697,26.898
			c-0.744,7.473-0.744,14.946-0.744,21.669c0,9.718-0.744,20.181,1.495,29.143c1.494,5.979,3.739,11.958,6.723,17.936
			c1.495,3.734,4.484,7.474,6.723,11.207c2.245,4.484,5.234,8.218,8.224,11.958c2.99,3.733,5.235,8.218,8.218,11.958
			c5.235,7.467,9.713,16.435,13.452,24.653c2.989,5.979,5.229,11.213,7.468,17.192c2.989,11.207,3.739,23.165,1.501,34.372
			c-0.751,4.484-2.245,8.968-4.484,13.446c-2.245,4.484-2.989,9.718-6.723,13.452c-0.751,1.495-1.501,2.245-2.99,0.75
			c0-0.75-0.75-2.245-0.75-3.74c-0.75-1.495-1.494-2.99-2.238-4.484c-2.246-4.484-5.235-8.962-8.218-12.702
			c-2.989-4.484-5.979-8.218-8.969-12.702c-3.739-4.484-7.479-8.217-11.213-12.702c-4.484-3.74-9.712-6.729-13.452-11.213
			c-2.239-1.495-3.733-2.983-5.979-4.478c-2.239-1.495-4.479-3.74-6.717-5.234c-4.49-3.734-8.968-7.474-13.458-9.712
			c-2.239-0.75-5.229-1.495-7.468-2.245c-2.989-1.488-5.979-2.983-8.968-3.733c-5.979-2.239-12.702-3.734-18.681-5.979
			c-2.245-0.744-4.484-0.744-5.979-1.495c-3.733-0.744-6.723-2.239-9.713-2.989c-3.739-1.495-7.473-2.989-11.957-5.229
			c-3.739-2.245-8.968-3.733-13.445-5.228c-3.74-2.245-7.48-4.484-11.214-7.474c-2.239-1.495-4.483-2.245-5.973-4.484
			c-2.989-2.245-4.49-5.234-7.479-8.218c-1.488-1.495-3.733-2.245-4.478-5.234c-0.75-2.239-1.501-3.733-1.501-5.979
			c-0.744-1.495-1.488-2.989-2.239-5.229c-0.75-2.245,0-5.228,0-8.218c0-4.484,0-9.718,1.495-14.946
			c2.245-5.979,3.733-12.702,7.474-17.937c2.239-3.733,4.484-6.723,6.729-9.712c2.989-5.229,7.468-10.463,11.207-14.947
			c2.239-2.983,4.479-5.972,6.724-8.962c2.989-2.989,5.979-5.979,8.217-9.718c2.246-2.239,4.484-4.484,7.474-6.723
			c0.751-1.495,2.239-2.239,3.74-3.733c0.744-1.495,1.488-2.989,2.989-3.74c6.723-6.723,12.695-14.941,19.425-21.67
			c4.483-4.484,8.968-8.968,13.445-11.951c2.989-2.245,4.49-4.484,7.479-5.979c2.239-2.245,5.229-3.74,8.218-5.979
			c4.479-2.245,9.713-3.74,14.947-5.234C360.188,1.495,364.673,0,369.156,0c3.74,0,7.474,0,10.463,0.75
			c3.733,0.744,6.724,1.495,10.463,2.239c2.239,0.75,4.478,1.495,5.979,2.245c2.989,1.495,5.979,2.989,8.969,4.484
			c5.228,3.733,9.706,8.968,14.94,13.446"/>
	</g>
	<g>
		<path fill="#F25757" d="M225.686,163.646c0.745,2.989,2.245,5.979,3.734,8.218c2.989,5.229,8.224,8.968,12.708,13.452
			c3.734,3.733,7.467,6.723,11.208,10.457c3.739,2.989,8.217,5.234,11.957,8.968c6.723,5.234,14.196,9.712,22.414,12.701
			c2.239,1.495,4.484,2.245,7.474,3.74c3.733,1.495,7.473,1.495,11.957,2.989c3.733,1.495,6.723,3.733,10.463,5.228
			c2.989,1.495,5.979,2.99,8.218,4.484c3.733,1.495,7.467,2.239,11.207,2.99c4.483,1.495,8.968,4.484,13.452,5.979
			c7.473,3.734,14.196,8.218,20.919,13.452c2.989,1.489,5.229,5.229,6.729,8.218c2.238,2.239,4.478,5.228,6.723,8.217
			c3.733,4.484,6.723,8.968,9.712,13.452c2.239,3.734,4.484,7.474,6.729,11.207c1.488,2.989,2.989,6.723,4.478,10.463
			c2.245,4.484,2.99,8.968,3.74,12.702c1.494,4.484,2.239,8.218,2.989,12.702c0.751,2.989,0.751,6.729,2.239,9.712
			c0.75,3.74,2.238,8.224,3.739,11.213c4.479,9.712,9.713,19.424,15.691,28.393c2.983,3.733,5.973,7.473,8.218,11.207
			c1.494,2.245,2.245,4.484,3.733,5.979c2.245,1.495,4.49,2.245,6.729,2.989c3.739,1.495,7.467,1.495,11.207,2.989
			c5.228,1.495,9.718,2.989,14.196,5.229c3.739,1.495,8.218,1.495,11.207,3.74c4.489,2.238,5.979,6.723,8.224,10.462
			c1.494,2.983,2.238,3.734,2.238,6.724c0,2.238,0.744,2.989-2.238,2.989c-5.234,0-10.463-0.751-15.691,0.744
			c-3.739,0-7.474,0-11.957,0c-5.979,0-11.958,0-18.681,0c-2.989,0-5.979-0.744-8.968-0.744c-2.245,0-4.484,0-6.724-0.751
			c-1.494-0.744-3.739-2.989-5.228-4.483c-2.245-1.495-3.74-2.239-5.234-3.734c-9.713-7.473-17.931-16.441-25.41-25.403
			c-7.467-7.473-15.685-14.947-20.919-23.915c-2.989-5.229-6.724-10.463-9.713-16.436c-1.494-2.989-2.989-5.234-4.483-8.224
			c-0.744-2.239-2.245-5.229-4.484-6.723c-1.494-0.75-3.739,0-5.229,0.744c-2.245,0-4.483,0-5.979,0c-4.484,0-8.968,0-13.452,0
			c-3.733,0-7.474-1.495-11.207-1.495c-1.494,0-3.733-0.744-5.234-0.744c-3.733-1.495-7.467-2.239-11.207-3.733
			c-6.723-1.495-13.446-2.99-19.425-5.235c-4.483-2.239-10.463-3.733-14.196-6.723c-2.989-2.245-5.234-4.484-8.224-5.979
			c-3.733-2.989-8.218-5.979-11.951-8.968c-5.979-2.989-9.719-8.218-15.697-11.207c-3.733-2.245-8.218-5.229-12.702-6.723
			s-9.712-2.245-14.196-2.989c-4.484-0.75-8.224-0.75-12.702-1.495c-3.74-0.75-7.474-0.75-11.207-1.495
			c2.989-1.495,6.723-4.484,8.968-7.474c1.489-2.245,2.99-4.484,4.478-6.723c1.495-2.245,3.74-5.234,5.229-7.473
			c3.74-5.234,7.479-10.463,8.968-16.441c0.75-2.989,1.5-6.723,2.245-9.712c-5.235,4.484-8.968,10.463-14.203,15.691
			c-4.478,5.229-8.218,9.712-13.446,14.197c-4.484,3.739-8.968,7.473-13.446,11.207c-3.74,3.739-7.479,7.473-12.708,9.718
			c-3.739,2.989-8.968,4.484-13.446,5.979c-3.74,2.239-7.479,3.734-11.958,5.229c-2.239,0.744-4.484,1.495-6.729,2.239
			c-2.989,0.75-5.228,2.245-8.217,3.74c-4.484,1.495-8.968,2.99-13.446,4.484c-4.49,2.239-8.224,5.229-12.708,7.468
			c-2.989,2.245-6.723,2.989-9.712,5.234c-2.245,1.494-2.989,2.239-4.484,2.989c-2.239,1.495-3.74,2.989-5.228,4.484
			c-2.245,1.495-3.74,2.239-5.979,3.734c-2.989,3.739-6.729,6.723-9.718,10.462c-4.478,4.484-8.968,9.712-13.446,14.196
			c-2.989,4.484-5.979,9.712-7.474,14.197c0,3.739-0.744,7.473-2.245,11.207c0,1.495-0.744,2.99-1.488,4.484
			c-0.75,2.245-0.75,5.234-2.245,6.729c5.234,0,9.712,0.744,14.202,1.495c2.239,0,4.478,0,6.717,0.744c2.245,0,2.99,1.495,4.49,2.99
			c5.229,3.733,8.218,10.456,8.968,16.435c0.228,1.846,1.163,8.434-0.283,9.836c-1.6,1.55-7.769-0.289-9.669-0.412
			c-14.406-0.936-28.319,1.255-42.355-3.444c-1.5,0-2.989-1.489-5.234-1.489c-1.495-0.75-0.744-0.75-1.495-1.494
			c-0.744-2.245-0.744-4.484-1.495-6.729c-0.745-4.483-1.495-8.218-2.239-11.951c-2.276-11.422-3.685-23.011-4.472-34.63
			c-0.345-5.019-0.369-10.062-1.021-15.057c-0.566-4.293-2.307-9.528-0.356-13.698c1.642-3.512,8.07-7.031,11.059-9.811
			c5.431-5.044,11.201-9.774,17.161-14.172c5.314-3.912,13.71-6.981,14.246-14.258c0.209-2.953,0-6.003,0-8.968
			c0-9.516,0-19.031,0-28.54c0-8.39,0-16.78,0-25.164c0-5.511,2.583-17.69-1.501-21.768c-3.733-3.734-8.217-4.484-11.951-7.467
			c-5.979-3.74-10.463-8.224-14.947-13.452c-6.723-7.474-11.958-17.186-12.702-27.648c-1.495-8.968-1.495-17.186,1.495-25.403
			c1.495-5.235,3.734-9.719,5.979-14.203c2.983-4.478,6.723-6.723,11.207-8.962c4.484-2.989,8.968-5.979,14.94-6.729
			c4.49-0.745,9.719-0.745,14.947-1.495c6.729-1.495,13.452-2.989,20.925-2.989c8.968,0,17.937-0.745,26.898-0.745
			c4.484,0,8.224-0.75,11.957-0.75c4.484,0,8.218,0,12.702,0c6.729,0,15.69,0.75,22.414-0.744c4.49-0.75,9.719-2.989,14.197-5.979
			c2.245-0.744,4.49-2.989,5.979-5.229c0.75-1.495,1.501-3.74,1.501-5.234c1.488-4.484,0-7.467-2.245-11.207
			c-2.245-2.989-5.234-5.229-8.218-6.723c-2.989-1.495-5.979-2.245-8.968-2.99c-1.495,0-4.484-1.495-5.979-1.495
			s-1.495,1.495-2.99,2.239c-1.494,1.494-2.983,2.989-5.228,3.739c-2.245,2.239-4.484,2.239-6.723,2.99
			c-2.989,0.744-4.49,1.495-7.479,1.495c-2.239,0-4.478,0-5.973,0c-4.484,0-8.968,0-13.452-0.75
			c-4.484-0.744-7.467-2.239-11.207-3.734c-5.229-2.245-12.708-6.729-11.958-13.452c1.495,0,3.74,0,5.229,0.75
			c2.989,0,5.979,0.744,8.968,0.744c1.501,0.75,3.74,0.75,5.229,0.75c0-1.494-1.489-3.739-2.239-5.234
			c-0.744-1.495-0.744-3.733-0.744-5.979c0-3.733,0-8.218,3.733-10.457c1.495,2.983,3.74,5.228,6.729,7.467
			c2.239,1.495,5.228,3.74,7.467,4.484c0-1.495-1.488-3.733-2.239-5.979c-0.75-1.495-0.75-2.99-1.495-4.484c0-1.489,0-2.983,0-5.229
			c0-0.744-0.744-3.733,0-4.484c1.495,0,2.245,2.245,3.733,3.74c1.501,2.239,4.49,3.733,6.729,5.228
			c4.478,2.239,8.218,3.734,11.957,5.979c2.239,0.744,4.478,2.239,6.723,3.733c2.239,0.75,4.484,1.495,6.723,2.989
			c4.484,1.495,9.718,2.989,14.196,4.484c10.463,3.739,21.676,7.473,26.904,18.68c0.744,2.245,2.239,3.74,2.239,6.723
			c0,2.245,0,3.74,0,5.979c0.75,4.484,0,7.474-1.495,11.958c-2.245,5.228-5.973,9.712-10.463,13.452
			c-2.989,2.989-7.467,7.473-11.957,8.217c-7.467,0.75-14.941,2.245-21.664,2.245c-4.484,0-8.217,0-11.957,0
			c-3.74,0.745-7.474,1.489-11.207,1.489c-8.968,0-17.936,0-27.648,0c-3.734,0-7.474,0-11.213,0c-5.228,0-9.706,2.245-13.446,3.74
			c-2.239,0-3.74,0.744-5.229,1.495c-2.245,2.239-4.49,3.734-5.979,5.979c-3.74,3.733-5.229,8.968-5.979,13.446
			c-0.75,4.484,0.75,8.224,3.733,11.958c1.495,2.245,3.733,3.739,5.979,4.484c2.99,0.75,3.734,0.75,6.723-0.745
			c3.74-1.494,8.224-3.739,11.958-5.234c2.239-0.744,5.229-0.744,7.474-1.495c2.989,0,5.234-0.744,8.224-0.744
			c19.425-0.75,39.6,0,59.024,0c8.968,0,17.936,1.495,27.654,1.495c7.867,0,15.427,1.015,23.165-0.142
			c7.356-1.095,15.248,3.303,22.414,0.142"/>
	</g>
	<g>
		<path fill="#F25757" d="M177.118,310.85c-1.292-2.583-0.996-5.222-2.061-7.849c-4.386,0.867-8.919,4.367-12.886,6.354
			c-2.245,0.745-3.733,1.495-5.972,2.239c-2.245,0.751-3.74,1.495-5.979,2.245c-3.74,2.239-8.968,3.734-12.708,5.979
			c-2.239,1.489-4.478,2.983-6.723,3.733c-2.245,0.745-4.484,2.239-6.723,2.99c-1.501,1.494-3.74,2.239-5.234,2.989
			c-1.495,0.744-5.229,1.495-5.973,2.989c-0.75,0.744,0,2.239,0.744,2.989c0,2.239,0,3.733,0,5.979
			c0.745,5.229,2.245,10.457,2.245,16.436c0,1.495,0,2.989,0,5.229c0,1.495,0.738,3.739,0.738,5.234c0,2.239,0,3.733,0,5.228
			c0,2.99,2.245,3.74,4.49,5.979c1.488,1.495,2.989,2.989,5.229,4.484c2.239,1.495,4.484,2.989,6.729,5.228
			c3.733,4.484,8.962,7.474,13.446,11.958c7.474,6.723,16.436,11.208,23.915,18.68c1.488,0.751,1.488,1.495,2.989,1.495
			c1.488,0.75,3.733,0,5.979,0c3.728,0,7.467,0,11.207,0c7.467,0,14.94,0,22.414,0c3.74,0,8.218,0,11.958,0
			c2.239,0,2.989,0.75,3.733-2.239c0-1.494,0-2.989,0-4.483c0-2.245,0-4.484,0-6.729c0-2.239-0.744-2.983-2.989-3.733
			c-2.989-1.495-5.973-2.239-9.712-3.734c-7.473-2.989-15.691-5.979-23.164-8.968c-7.474-3.74-14.947-6.729-22.414-10.462
			c-3.74-2.239-7.479-4.484-10.469-5.979c-2.983-0.744-2.239-1.495-1.489-3.733c0.744-2.245,2.239-3.74,3.733-5.979
			c5.979-9.712,11.958-19.431,15.691-29.888c2.245-4.484,1.501-10.463,1.501-15.691C179.363,316.829,178.613,313.839,177.118,310.85
			z"/>
	</g>
	<g>
		<path fill="#F25757" d="M350.618,357.892c-0.382,3.069-1.145,6.132-1.92,9.202c-0.381,1.15-0.763,2.301-1.144,3.832
			c-0.382,1.15-0.769,2.682-0.769,3.832c0,1.532,1.531,2.301,2.688,3.451c1.525,2.3,4.213,4.22,6.126,6.132
			c6.139,6.133,12.653,10.733,18.404,16.866c2.682,2.682,5.363,5.37,8.045,8.052s5.37,5.363,8.052,7.664
			c1.913,1.919,3.832,3.45,5.751,5.369c1.15,1.532,1.919,3.063,3.444,4.595c0.388,0.388,1.156,1.15,1.156,1.92
			c-1.537,0.381-3.068,0.769-4.601,1.149c-2.3,0-4.601,0-6.901,0c-3.062,0-6.133-0.381-9.201,0
			c-1.913,0.382-4.602,0.382-6.902,0.382c-1.525,0-3.444,0.388-4.981,0c-1.525-0.382-3.063-2.682-4.214-3.451
			c-2.301-2.294-4.595-4.595-6.895-6.895c-1.538-1.532-3.457-2.683-4.989-4.22c-1.531-1.531-2.682-3.451-4.213-4.982
			c-0.769-1.15-2.301-2.682-3.451-3.832c-0.769-1.15-1.913-1.531-3.069-2.682c-1.144-1.538-2.682-2.682-4.213-4.22
			c-1.919-1.913-4.214-3.832-6.514-6.132c-1.538-1.532-3.069-3.063-4.982-4.213c-1.538-1.538-3.075-2.688-4.601-3.838
			c-0.77-0.763-1.92-1.532-3.069-2.682c-0.388-0.381-1.532-1.913-2.301-1.913c0-4.988-0.769-9.971-0.769-14.565
			c0-2.688,0-4.988,0-7.289c0-1.913-0.763-4.595-0.382-6.514c1.15,0,2.301,0.381,3.451,0.381c1.531,0.388,3.069,0.388,4.595,0.769
			c1.919,0.381,3.838,0.381,5.757,0.381c2.301,0,4.214,0.769,6.126,0.769c3.457,0.381,7.283,0.381,10.74,1.531"/>
	</g>
	<g>
		<g>
			<path fill="#F25757" d="M414.674,87.669c-0.031-0.135-0.013-0.271-0.024-0.406c-0.007,0.012-0.019,0.031-0.031,0.043
				C414.637,87.429,414.655,87.546,414.674,87.669z"/>
		</g>
		<g>
			<path fill="#F25757" d="M431.177,56.047c0,0.793,0.437,1.458,0.984,2.061c0.166,0.068,0.35,0.104,0.51,0.178L431.177,56.047z"/>
		</g>
		<g>
			<path fill="#F25757" d="M487.218,84.44c-2.239-3.733-5.979-6.723-9.713-8.217c-2.244-1.495-4.483-1.495-7.473-2.245
				c-1.488-0.745-2.989-1.495-5.229-2.239c-1.495,0-3.74,0-5.229,0c-3.739-0.75-6.729-2.245-9.719-3.74
				c-3.733-0.744-6.723-2.239-9.712-3.734c-2.245-0.75-2.989-2.239-4.484-3.733c-0.966-0.486-2.497-1.316-3.499-2.423
				c-6.699-2.707-16.073-1.243-21.904,1.673c-2.989,2.245-5.228,4.484-7.473,6.723c-1.495,1.495-2.99,2.245-3.734,4.484
				c-2.989,3.74-5.234,8.224-6.729,12.708c-0.751,4.478-1.495,8.962-1.495,12.702c0,5.229,0,11.207,0.744,16.436
				c0.751,1.494,1.501,3.739,1.501,5.979c0,2.245,0.744,3.74,1.488,5.979c1.501,4.484,2.99,8.968,5.234,13.452
				c1.495,2.989,2.99,5.979,5.235,8.218c2.238,1.495,3.728,3.733,5.972,5.228c2.99,2.245,7.474,2.99,11.958,2.99
				c1.494,0,2.245,0,3.733,0c1.495,0.75,2.239,1.495,2.989,1.495c0.751,0.75,2.239,0.75,2.989,1.495
				c0.751,0,1.495,1.495,2.239,2.245c3.739,2.239,8.224,5.228,12.708,5.979c2.238,0.744,3.733,0,5.979,0
				c2.239,0,2.989-0.75,5.229-2.989c2.989-3.74,5.229-7.474,6.729-11.213c3.734-8.961,8.218-17.186,12.696-26.147
				c2.989-5.979,5.979-11.213,8.968-17.192c1.501-4.478,2.989-8.218,2.989-12.702S490.207,88.174,487.218,84.44z M420.062,95.942
				c-3.401,1.101-7.553-0.781-9.829-3.34c-2.958-3.334-4.392-8.421-0.627-11.915c1.679-1.562,3.961-2.399,6.262-2.159
				c1.082,0.111,2.011,0.351,2.848,0.683c2.521,0.535,4.865,2.018,6.126,4.17C427.652,88.18,425.216,94.275,420.062,95.942z"/>
		</g>
	</g>
</g>
</svg>
