<?xml version="1.0" encoding="UTF-8"?><svg xmlns="http://www.w3.org/2000/svg" xmlns:xlink="http://www.w3.org/1999/xlink" height="500.0" preserveAspectRatio="xMidYMid meet" version="1.1" viewBox="-29.6 -0.0 495.4 500.0" width="495.4" zoomAndPan="magnify">
 <g id="change1_1">
  <path d="m236.64 156.02c5.93 1.98 15.81 3.95 23.71 3.95s11.85-11.85 11.85-11.85c-19.75-9.87-35.56 7.9-35.56 7.9zm92.83-73.071c-17.77-3.949-31.6 9.875-31.6 9.875 1.97 5.926 21.72 1.977 21.72 1.977-1.97 3.949 0 21.719 0 21.719 17.78-17.77 9.88-33.571 9.88-33.571zm-25.67 75.051c0-21.73-39.5-65.176-49.38-65.176-9.21 0-33.03 29.636-36.19 33.626v0.44s-0.05-0.07-0.17-0.22c-0.11 0.15-0.18 0.22-0.18 0.22v-0.44c-3.16-3.99-26.97-33.626-36.18-33.626-9.88 0-49.38 43.446-49.38 65.176 0 21.72 19.75 59.25 31.61 59.25 0 0 17.89-13.02 22.67-18.37-3.74 5.07-16.46 22.6-14.78 24.29 1.59 1.59 15.96 13.4 22.54 15.9-4.52-0.19-13.56-1.76-24.51-9.97 0 0-5.92 1.97-3.95 9.87 0 0 11.85 11.85 25.67 7.9 0 0-7.9 7.9-23.7 0 0 0 21.73 27.65 45.43-3.95 9.87-41.47-17.78-33.57-17.78-33.57v-19.75s9.7 17.44 22.36 12.95v-0.11c0.06 0.02 0.12 0.03 0.18 0.05 0.06-0.02 0.12-0.03 0.17-0.05v0.11c12.67 4.49 22.37-12.95 22.37-12.95v19.75s-27.65-7.9-17.78 33.57c23.7 31.6 45.43 3.95 45.43 3.95-15.8 7.9-23.7 0-23.7 0 13.82 3.95 25.67-7.9 25.67-7.9 1.98-7.9-3.95-9.87-3.95-9.87-10.95 8.21-19.99 9.78-24.52 9.97 6.59-2.5 20.96-14.31 22.55-15.9 1.68-1.69-11.04-19.22-14.78-24.29 4.78 5.35 22.68 18.37 22.68 18.37 11.85 0 31.6-37.53 31.6-59.25zm-57.28 106.65c-14.73 0-26.89-12.74-28.46-14.45-1.57 1.71-13.72 14.45-28.46 14.45-15.8 0-1.98 27.65 1.97 27.65 3.93 0 9.8 5.83 26.31-4.72v-0.22c0.06 0.04 0.12 0.07 0.18 0.11 0.06-0.04 0.12-0.07 0.17-0.11v0.22c16.52 10.55 22.39 4.72 26.32 4.72 3.95 0 17.77-27.65 1.97-27.65zm-130-169.85s19.75 3.949 21.73-1.977c0 0-13.82-13.824-31.6-9.875 0 0-7.9 15.801 9.87 33.571 0 0 1.98-17.77 0-21.719zm319.6 138.25s-31.6-43.45-108.62-45.43c0 0 138.24 35.55 80.97 154.05 0 0-5.93-65.17-77.02-108.62 0 0 98.75 98.75 17.77 165.9 0 0 3.95-96.78-47.4-154.05 0 0 75.05 146.15-13.82 215.27 0 0 25.67-63.2-3.95-142.2 0 0 13.82 122.45-29.63 161.95 0 0 19.75-47.4 7.9-138.25 0 0-1.96 118.49-44.09 158v0.33l-0.17-0.17c-0.06 0.06-0.12 0.12-0.18 0.17v-0.33c-42.11-39.51-44.08-158-44.08-158-11.85 90.85 7.9 138.25 7.9 138.25-43.45-39.5-29.63-161.95-29.63-161.95-29.62 79-3.95 142.2-3.95 142.2-88.87-69.12-13.82-215.27-13.82-215.27-51.351 57.27-47.402 154.05-47.402 154.05-80.972-67.15 17.782-165.9 17.782-165.9-71.106 43.45-77.032 108.62-77.032 108.62-57.273-118.5 80.972-154.05 80.972-154.05-77.022 1.98-108.62 45.43-108.62 45.43 5.9258-57.28 98.75-73.08 98.75-73.08-53.324-11.85-98.75 17.78-98.75 17.78 37.523-57.28 102.7-55.3 102.7-55.3-15.802-11.85-88.876 0-88.876 0l27.649-15.8c3.953-1.97 55.3-3.95 55.3-3.95-3.949-7.899-47.398-7.899-47.398-7.899l-7.902-15.801c11.851-3.949 55.3 5.926 55.3 5.926-1.976-5.926-39.5-15.801-39.5-15.801 77.027-51.352 136.28 17.773 136.28 17.773-21.73-49.375-88.87-57.273-88.87-57.273 19.75-21.727 47.39-25.676 47.39-25.676 33.58 15.801 59.25 98.751 59.25 98.751-3.95-59.251-39.5-102.7-39.5-102.7 11.37 0 43.61 6.3555 46.24 6.8789 2.63-0.5234 34.87-6.8789 46.24-6.8789 0 0-35.55 43.449-39.5 102.7 0 0 25.67-82.95 59.25-98.751 0 0.0002 27.65 3.9494 47.4 25.676 0 0-67.15 7.898-88.88 57.273 0 0 59.25-69.125 136.27-17.773 0 0-37.52 9.875-39.5 15.801 0 0 43.46-9.875 55.3-5.926l-7.9 15.801s-43.44 0-47.4 7.899c0 0 51.36 1.98 55.3 3.95l27.65 15.8s-73.07-11.85-88.87 0c0 0 65.17-1.98 102.7 55.3 0 0-45.42-29.63-98.75-17.78 0 0 92.83 15.8 98.75 73.08zm-236.65-77.03c-5.92 1.98-15.8 3.95-23.7 3.95s-11.84-11.85-11.84-11.85c19.74-9.87 35.54 7.9 35.54 7.9" fill="#ef336d"/>
 </g>
</svg>