<?xml version="1.0" encoding="UTF-8"?><svg xmlns="http://www.w3.org/2000/svg" xmlns:xlink="http://www.w3.org/1999/xlink" height="33.0" preserveAspectRatio="xMidYMid meet" version="1.0" viewBox="5.0 3.0 26.0 33.0" width="26.0" zoomAndPan="magnify"><g id="change1_1"><path d="M18 3C12.477 3 8 7.477 8 13v10h4V13c0-3.313 2.686-6 6-6s6 2.687 6 6v10h4V13c0-5.523-4.477-10-10-10z" fill="#AAB8C2"/></g><g id="change2_1"><path d="M31 32c0 2.209-1.791 4-4 4H9c-2.209 0-4-1.791-4-4V20c0-2.209 1.791-4 4-4h18c2.209 0 4 1.791 4 4v12z" fill="#FFAC33"/></g></svg>