<?xml version="1.0" encoding="iso-8859-1"?>
<!-- Generator: Adobe Illustrator 16.0.0, SVG Export Plug-In . SVG Version: 6.00 Build 0)  -->
<!DOCTYPE svg PUBLIC "-//W3C//DTD SVG 1.1//EN" "http://www.w3.org/Graphics/SVG/1.1/DTD/svg11.dtd">
<svg version="1.1" id="Layer_1" xmlns="http://www.w3.org/2000/svg" xmlns:xlink="http://www.w3.org/1999/xlink" x="0px" y="0px"
	 width="72.175px" height="96.486px" viewBox="0 0 72.175 96.486" style="enable-background:new 0 0 72.175 96.486;"
	 xml:space="preserve">
<g id="change1">
	<path style="fill:#26BEC9;" d="M62.726,34.321h-2.805c0.316-5,0.617-18.428-7.102-27.124c-4.134-4.656-9.758-6.876-16.719-6.876
		c-0.005,0-0.011,0-0.015,0c-7.263,0-13.113,2.303-17.386,7.114c-7.75,8.727-7.51,22.886-7.21,26.886H9.449
		c-5.197,0-9.58,4.213-9.58,9.41v43.306c0,5.197,4.382,9.284,9.58,9.284h53.277c5.197,0,9.144-4.087,9.144-9.284V43.731
		C71.87,38.534,67.923,34.321,62.726,34.321z M42.684,81.321h-12.37l1.969-13.807c-2.967-1.428-5.032-4.527-5.032-8.041
		c0-4.882,3.957-8.887,8.837-8.887s8.836,3.933,8.836,8.814c0,3.277-1.805,6.288-4.455,7.811L42.684,81.321z M51.412,34.321H19.999
		c-0.199-2-0.918-14.806,5.059-21.512c2.63-2.95,6.239-4.488,11.033-4.488c0.004,0,0.006,0,0.01,0c4.485,0,7.875,1.458,10.361,4.25
		C52.411,19.251,51.616,32.321,51.412,34.321z"/>
</g>
</svg>
