<?xml version="1.0" encoding="UTF-8"?><svg xmlns="http://www.w3.org/2000/svg" xmlns:xlink="http://www.w3.org/1999/xlink" height="36.0" preserveAspectRatio="xMidYMid meet" version="1.0" viewBox="2.0 0.0 32.0 36.0" width="32.0" zoomAndPan="magnify"><g id="change1_1"><path d="M28 0H8C5.042 0 2 5 3 7c1.612 3.225 12 13 12 13h6S31 10 33 7c1-2-2.333-7-5-7zm-4 8l-6 6-6-6c-.532-.532-.843-.919-.894-1.206C10.965 6.003 12.862 6 18 6c6.916 0 7.476.375 6.532 1.446-.147.168-.329.351-.532.554z" fill="#55ACEE"/></g><g id="change2_1"><path d="M11.106 6.794C10.965 6.003 12.862 6 18 6c6.916 0 7.476.375 6.532 1.446C29.866 1.885 28.195 0 26 0H10c-3.579 0-1.01 4.097 1.106 6.794z" fill="#3B88C3"/></g><g id="change3_1"><path d="M21.902 21.02c.06-.163.098-.337.098-.52 0-.828-.672-1.5-1.5-1.5h-5c-.829 0-1.5.672-1.5 1.5 0 .183.038.357.098.52C11.654 22.389 10 25 10 28c0 4.418 3.581 8 8 8 4.418 0 8-3.582 8-8 0-3-1.654-5.611-4.098-6.98z" fill="#FFAC33"/></g><g id="change4_1"><circle cx="18" cy="28" fill="#FFD983" r="6"/></g></svg>