<?xml version="1.0" encoding="UTF-8"?><svg xmlns="http://www.w3.org/2000/svg" xmlns:xlink="http://www.w3.org/1999/xlink" height="229.0" preserveAspectRatio="xMidYMid meet" version="1.1" viewBox="126.3 97.3 172.6 229.0" width="172.6" zoomAndPan="magnify">
 <g id="surface1">
  <g id="change1_1"><path d="m298.89 274.93c0-40.22-52.32-127.44-84.91-127.44-36.03 0-87.67 87.22-87.67 127.44 0 29.21 19.65 36.68 48.67 38.59 6.23 7.52 20.73 12.79 37.62 12.79 17.02 0 31.6-5.35 37.76-12.96 28.54-2.16 48.53-10 48.53-38.42" fill="#639e1d"/></g>
  <g id="change1_2"><path d="m202.22 150.95s-14.38-29.36-29.63-36.3c-15.25-6.93 7.62-15.935 22.87-10.39 15.25 5.54 17.33-2.78 22.18-4.854 4.85-2.082 20.79 2.074 26.34 13.864 5.54 11.78 11.08 6.23 18.01 15.25 6.94 9-35.95 8.05-38.72 21.91-15.25 3.47-21.05 0.52-21.05 0.52" fill="#639e1d"/></g>
  <g id="change1_3"><path d="m212.95 153.93c-7.24 0-13.06-1.4-13.43-1.49-1.4-0.34-2.25-1.75-1.91-3.14 0.34-1.4 1.75-2.25 3.14-1.91 0.13 0.03 12.73 3.03 23.07-0.09 1.37-0.42 2.82 0.36 3.23 1.73 0.42 1.38-0.35 2.83-1.73 3.24-4.11 1.25-8.45 1.66-12.37 1.66" fill="#639e1d"/></g>
  <g id="change2_1"><path d="m212.95 153.93s1.03-0.04 2.82-0.11c0.89-0.07 1.98-0.21 3.21-0.37 0.61-0.13 1.26-0.25 1.94-0.4 0.69-0.12 1.39-0.28 2.13-0.54 0.71-0.24 1.55-0.47 2.24-0.74 0.6-0.29 1.09-0.87 1.15-1.54l0.02-0.24-0.02-0.2v-0.09l-0.04-0.16-0.09-0.33c-0.11-0.16-0.29-0.53-0.56-0.67-0.23-0.2-0.53-0.31-0.83-0.33-0.17-0.03-0.27 0-0.35 0l-0.54 0.14c-1.89 0.67-3.9 1.18-5.97 1.48-2.07 0.31-4.19 0.4-6.3 0.37-2.11-0.06-4.21-0.25-6.24-0.6-1.02-0.18-2.02-0.36-3.01-0.59-0.49-0.12-0.98-0.24-1.47-0.38-0.23-0.06-0.58-0.17-0.66-0.18-0.13-0.05-0.27-0.06-0.42-0.06-0.55 0-1.18 0.35-1.43 0.89-0.18 0.31-0.19 0.61-0.21 0.93 0.05 0.32 0.12 0.65 0.32 0.92 0.07 0.15 0.21 0.25 0.31 0.38 0.14 0.08 0.17 0.19 0.39 0.27l0.3 0.13 0.24 0.08 0.6 0.18c0.79 0.22 1.57 0.38 2.31 0.57 1.49 0.39 2.89 0.51 4.12 0.73 1.23 0.25 2.33 0.23 3.22 0.31 1.8 0.09 2.82 0.15 2.82 0.15zs-1.02-0.04-2.82-0.1c-0.45-0.01-0.94-0.02-1.49-0.03-0.26-0.01-0.55-0.01-0.84-0.01-0.29-0.03-0.59-0.05-0.91-0.08-1.24-0.11-2.66-0.16-4.2-0.34-0.77-0.09-1.58-0.16-2.41-0.28-0.21-0.03-0.42-0.06-0.63-0.09-0.13-0.03-0.17-0.01-0.37-0.07l-0.31-0.09c-0.19-0.03-0.5-0.22-0.74-0.35-0.21-0.17-0.45-0.31-0.62-0.53-0.39-0.4-0.63-0.94-0.78-1.5-0.1-0.56-0.12-1.21 0.08-1.76 0.36-1.22 1.47-2.2 2.81-2.41 0.34-0.06 0.68-0.07 1.02-0.02 0.4 0.04 0.53 0.08 0.78 0.11 0.46 0.07 0.94 0.13 1.43 0.18 0.96 0.12 1.93 0.24 2.92 0.32 1.97 0.14 3.97 0.3 5.96 0.32 1.99 0.05 3.98-0.01 5.93-0.11 1.94-0.16 3.84-0.41 5.65-0.79 0.47-0.09 0.48-0.09 0.88-0.12 0.39 0 0.76 0.03 1.05 0.13 0.63 0.17 1.19 0.51 1.61 0.97 0.22 0.22 0.39 0.47 0.53 0.74 0.09 0.12 0.13 0.27 0.18 0.41l0.07 0.21 0.04 0.11 0.02 0.05 0.02 0.09v0.02c0.02 0.26 0.08 0.39 0.06 0.75-0.01 0.16-0.01 0.32-0.03 0.48l-0.11 0.4c-0.29 1.08-1.19 1.85-2.12 2.12-0.9 0.22-1.63 0.32-2.41 0.48-0.74 0.16-1.49 0.23-2.2 0.32-0.7 0.08-1.36 0.16-1.99 0.23-1.25 0.07-2.34 0.13-3.24 0.18-1.79 0.04-2.82 0.06-2.82 0.06" fill="#fff"/></g>
  <g id="change2_2"><path d="m228.93 257.58c-0.32 3.44-2.27 5.9-5.75 7.36-0.15-6.65-0.34-13.28-0.55-19.85 4.17 2.87 6.73 7.87 6.3 12.49zm-25.32-39.76c-0.37-0.59-0.92-1.46 0.33-3.45 0.7-1.12 1.74-2.18 2.97-3.13 0.08 3.47 0.17 6.92 0.27 10.37-1.41-1.06-2.63-2.29-3.57-3.79zm25.59 14.02c-2.32-1.36-4.71-2.45-7.09-3.42-0.22-6.84-0.41-13.74-0.56-20.66 1.37 0.61 2.28 1.69 2.88 3.38 1.34 3.84 5.53 5.86 9.37 4.52 3.83-1.35 5.86-5.54 4.51-9.38-2.69-7.69-8.87-12.65-16.99-13.67-0.02-2.27-0.03-4.53-0.03-6.79 0-4.06-3.3-7.36-7.36-7.36-4.07 0-7.36 3.3-7.36 7.36 0 2.96 0.02 5.92 0.05 8.89-6.25 2.44-11.89 6.65-15.14 11.83-3.92 6.23-4.04 13.19-0.34 19.1 4.3 6.84 10.47 10.34 16.56 12.92 0.27 8.44 0.54 17.03 0.74 25.64-0.91-0.43-1.78-0.91-2.58-1.47-3.12-2.18-4.72-4.97-4.74-8.29-0.03-4.05-3.32-7.3-7.35-7.3h-0.06c-4.06 0.02-7.33 3.34-7.3 7.4 0.05 8.14 3.97 15.33 11.03 20.26 3.33 2.33 7.21 4 11.26 4.98 0.03 2.84 0.05 5.68 0.05 8.5 0 4.07 3.3 7.36 7.36 7.36s7.36-3.29 7.36-7.36c0-2.69-0.02-5.39-0.04-8.09 1.38-0.28 2.74-0.64 4.04-1.11 9.36-3.37 15.23-10.71 16.11-20.14 0.98-10.59-4.8-21.49-14.38-27.1" fill="#fff"/></g>
 </g>
</svg>