<?xml version="1.0" encoding="UTF-8"?><svg xmlns="http://www.w3.org/2000/svg" xmlns:xlink="http://www.w3.org/1999/xlink" height="36.0" preserveAspectRatio="xMidYMid meet" version="1.0" viewBox="0.0 0.0 36.0 36.0" width="36.0" zoomAndPan="magnify"><g id="change1_1"><path d="M36 18c0 9.941-8.059 18-18 18-.294 0-.58-.029-.87-.043C11.239 33.393 7 26.332 7 18 7 9.669 11.239 2.607 17.13.044 17.42.03 17.706 0 18 0c9.941 0 18 8.059 18 18z" fill="#CCD6DD"/></g><g id="change2_1"><path d="M7 18C7 9.669 11.239 2.607 17.13.044 7.596.501 0 8.353 0 18c0 9.646 7.594 17.498 17.128 17.956C11.238 33.391 7 26.331 7 18z" fill="#66757F"/></g><g id="change3_1"><circle cx="25.5" cy="8.5" fill="#B8C5CD" r="3.5"/></g><g id="change3_2"><circle cx="16" cy="16" fill="#B8C5CD" r="3"/></g><g id="change3_3"><circle cx="14.5" cy="27.5" fill="#B8C5CD" r="3.5"/></g><g id="change3_4"><circle cx="15" cy="6" fill="#B8C5CD" r="2"/></g><g id="change3_5"><circle cx="33" cy="18" fill="#B8C5CD" r="1"/></g><g id="change4_1"><circle cx="6" cy="9" fill="#5B6876" r="1"/></g><g id="change3_6"><circle cx="21" cy="31" fill="#B8C5CD" r="1"/></g><g id="change4_2"><circle cx="4" cy="19" fill="#5B6876" r="2"/></g><g id="change3_7"><circle cx="26" cy="23" fill="#B8C5CD" r="2"/></g></svg>