<?xml version="1.0" encoding="UTF-8"?>
<svg xmlns="http://www.w3.org/2000/svg"
  xmlns:xlink="http://www.w3.org/1999/xlink" height="251.2" preserveAspectRatio="xMidYMid meet" version="1.1" viewBox="84.7 88.4 244.2 251.2" width="244.2" zoomAndPan="magnify">
  <g fill="#fab918" id="change1_1">
    <path d="m326.55 266.53c-2.12-2.63-5.64-3.68-8.85-2.64-18.47 6-38.27 6.84-57.28 2.44-57.71-13.35-93.8-71.16-80.45-128.87 2.47-10.68 6.51-20.85 12.01-30.21 1.72-2.91 1.45-6.58-0.67-9.211-2.11-2.633-5.63-3.684-8.85-2.641-19.94 6.472-38.04 17.992-52.35 33.302-14.76 15.79-25.15 35.33-30.05 56.5-15.372 66.44 26.18 133.01 92.62 148.38 26.18 6.05 52.99 3.56 77.53-7.22 23.72-10.41 43.96-28.39 57.01-50.62 1.71-2.91 1.44-6.58-0.67-9.21" fill="#fab919"/>
    <path d="m295.79 167.32c-0.83-2.89-3.38-4.95-6.39-5.16l-18.83-1.27-6.74-17.12c-1.07-2.73-3.71-4.53-6.65-4.53-2.95 0-5.58 1.8-6.66 4.53l-6.74 17.12-18.83 1.27c-3 0.21-5.56 2.27-6.39 5.16s0.23 6 2.67 7.77l15 10.9-5.5 18.72c-0.86 2.94 0.24 6.1 2.74 7.87 2.5 1.76 5.85 1.74 8.33-0.06l15.38-11.17 15.37 11.17c1.26 0.91 2.73 1.37 4.21 1.37 1.44 0 2.88-0.44 4.12-1.31 2.5-1.77 3.6-4.93 2.74-7.87l-5.5-18.72 15-10.9c2.44-1.77 3.5-4.88 2.67-7.77" fill="#fab919"/>
    <path d="m251.65 103.82c-0.46-1.59-1.86-2.72-3.51-2.84l-10.35-0.69-3.7-9.403c-0.59-1.504-2.04-2.492-3.65-2.492-1.62 0-3.06 0.988-3.66 2.492l-3.7 9.403-10.34 0.69c-1.65 0.12-3.05 1.25-3.51 2.84s0.13 3.29 1.47 4.26l8.24 5.99-3.03 10.28c-0.47 1.61 0.14 3.35 1.51 4.32 1.38 0.97 3.21 0.95 4.58-0.03l8.44-6.14 8.45 6.14c0.68 0.5 1.49 0.75 2.31 0.75 0.78 0 1.58-0.24 2.26-0.72 1.37-0.97 1.98-2.71 1.5-4.32l-3.02-10.28 8.24-5.99c1.34-0.97 1.93-2.67 1.47-4.26" fill="#fab919"/>
    <path d="m328.24 141.7c-0.28-0.99-1.15-1.7-2.18-1.77l-6.44-0.43-2.3-5.85c-0.37-0.94-1.27-1.55-2.27-1.55-1.01 0-1.91 0.61-2.28 1.55l-2.3 5.85-6.43 0.43c-1.03 0.07-1.91 0.78-2.19 1.77-0.29 0.98 0.08 2.05 0.91 2.65l5.13 3.72-1.88 6.41c-0.3 1 0.08 2.08 0.94 2.68 0.85 0.61 2 0.6 2.84-0.02l5.26-3.82 5.25 3.82c0.43 0.31 0.93 0.47 1.44 0.47 0.49 0 0.99-0.15 1.41-0.45 0.85-0.6 1.23-1.68 0.94-2.68l-1.89-6.41 5.13-3.72c0.83-0.6 1.2-1.67 0.91-2.65" fill="#fab919"/>
  </g>
</svg>