<?xml version="1.0" encoding="iso-8859-1"?>
<svg version="1.1"
	xmlns="http://www.w3.org/2000/svg"
	xmlns:xlink="http://www.w3.org/1999/xlink" x="0px" y="0px" width="400px" height="99.46px" viewBox="0 0 400 99.46" style="enable-background:new 0 0 400 99.46;" xml:space="preserve">
	<g id="change1">
		<path fill="#AD7354" d="M370.45,4.324c-20.901,0-24.506,11.531-24.506,11.531s32.435-2.883,32.435,13.694
		c0,14.054-15.496,16.937-19.82,16.937C336.216,46.486,307.027,0,254.415,0C230.037,0,212.167,8.666,200,17.967
		C187.832,8.666,169.963,0,145.585,0C92.973,0,63.784,46.486,41.441,46.486c-4.323,0-19.819-2.883-19.819-16.937
		c0-16.577,32.433-13.694,32.433-13.694S50.451,4.324,29.55,4.324C8.648,4.324,0,28.829,0,43.964C0,59.1,11.531,99.46,89.37,99.46
		c57.007,0,88.874-20.873,110.63-39.979c21.757,19.105,53.623,39.979,110.631,39.979C388.469,99.46,400,59.1,400,43.964
		C400,28.829,391.352,4.324,370.45,4.324z"/>
	</g>
</svg>
