<?xml version="1.0" encoding="UTF-8"?><svg xmlns="http://www.w3.org/2000/svg" xmlns:xlink="http://www.w3.org/1999/xlink" height="226.8" preserveAspectRatio="xMidYMid meet" version="1.1" viewBox="119.6 99.2 185.9 226.8" width="185.9" zoomAndPan="magnify">
 <g id="surface1">
  <g id="change1_1"><path d="m305.57 276.98c0 3.24-2.62 5.86-5.86 5.86h-118.68c-3.23 0-5.86-2.62-5.86-5.86v-171.91c0-3.23 2.63-5.855 5.86-5.855h118.68c3.24 0 5.86 2.625 5.86 5.855v171.91" fill="#ef2e68"/></g>
  <g id="change2_1"><path d="m197.09 99.215h-16.06c-3.23 0-5.86 2.625-5.86 5.855v171.91c0 3.24 2.63 5.86 5.86 5.86h16.06v-183.62" fill="#4d194f"/></g>
  <g id="change3_1"><path d="m292.74 161.89h-82.76v-38.09h82.76v38.09" fill="#fff"/></g>
  <g id="change3_2"><path d="m292.74 170.36h-82.76v-5.22h82.76v5.22" fill="#fff"/></g>
  <g id="change4_1"><path d="m250.03 320.12c0 3.24-2.63 5.86-5.86 5.86h-118.68c-3.24 0-5.86-2.62-5.86-5.86v-171.91c0-3.23 2.62-5.85 5.86-5.85h118.68c3.23 0 5.86 2.62 5.86 5.85v171.91" fill="#ee8f42"/></g>
  <g id="change5_1"><path d="m141.54 142.36h-16.05c-3.24 0-5.86 2.62-5.86 5.85v171.91c0 3.24 2.62 5.86 5.86 5.86h16.05v-183.62" fill="#b37633"/></g>
  <g id="change3_3"><path d="m237.2 205.03h-82.76v-38.09h82.76v38.09" fill="#fff"/></g>
  <g id="change3_4"><path d="m237.2 213.5h-82.76v-5.21h82.76v5.21" fill="#fff"/></g>
 </g>
</svg>