<?xml version="1.0" encoding="UTF-8"?><svg xmlns="http://www.w3.org/2000/svg" xmlns:xlink="http://www.w3.org/1999/xlink" height="327.8" preserveAspectRatio="xMidYMid meet" version="1.0" viewBox="67.5 48.7 163.6 327.8" width="163.6" zoomAndPan="magnify"><g><g><path d="M 179.660156 74.773438 L 201.480469 78.363281 L 161.195312 323.453125 L 139.382812 319.863281 L 179.660156 74.773438" fill="#38ab9c"/></g><g><path d="M 194.148438 54.761719 L 201.480469 78.363281 L 179.660156 74.773438 Z M 194.148438 54.761719" fill="#fbc18e"/></g><g><path d="M 188.792969 62.171875 L 196.859375 63.480469 L 194.148438 54.761719 Z M 188.792969 62.171875" fill="#38ab9c"/></g><g><path d="M 155.28125 321.148438 L 177.398438 321.148438 L 177.398438 72.773438 L 155.28125 72.773438 Z M 155.28125 321.148438" fill="#393536"/></g><g><path d="M 166.34375 50.679688 L 177.398438 72.773438 L 155.28125 72.773438 Z M 166.34375 50.679688" fill="#fbc18e"/></g><g><path d="M 162.257812 58.84375 L 170.425781 58.84375 L 166.34375 50.679688 Z M 162.257812 58.84375" fill="#393536"/></g><g><path d="M 127.59375 319.195312 L 149.710938 319.195312 L 149.710938 70.820312 L 127.59375 70.820312 Z M 127.59375 319.195312" fill="#4fc6f4"/></g><g><path d="M 138.652344 48.726562 L 149.710938 70.820312 L 127.59375 70.820312 Z M 138.652344 48.726562" fill="#fbc18e"/></g><g><path d="M 134.558594 56.894531 L 142.726562 56.894531 L 138.652344 48.726562 Z M 134.558594 56.894531" fill="#4fc6f4"/></g><g><path d="M 69.472656 90.863281 L 91.394531 88.027344 L 123.203125 334.351562 L 101.273438 337.1875 L 69.472656 90.863281" fill="#bf1b2c"/></g><g><path d="M 77.605469 67.511719 L 91.394531 88.027344 L 69.472656 90.863281 Z M 77.605469 67.511719" fill="#fbc18e"/></g><g><path d="M 74.597656 76.148438 L 82.699219 75.105469 L 77.605469 67.511719 Z M 74.597656 76.148438" fill="#bf1b2c"/></g><g><path d="M 209.292969 73.765625 L 231.0625 77.664062 L 187.375 322.144531 L 165.617188 318.257812 L 209.292969 73.765625" fill="#f8a30d"/></g><g><path d="M 185.902344 321.894531 L 182.152344 321.214844 L 185.90625 321.882812 L 185.902344 321.894531 M 229.601562 77.402344 L 225.839844 76.730469 L 225.84375 76.710938 L 229.605469 77.394531 L 229.601562 77.402344" fill="#d3d2d2"/></g><g><path d="M 185.90625 321.882812 L 182.152344 321.210938 L 225.839844 76.730469 L 229.601562 77.402344 L 185.90625 321.882812" fill="#cd860b"/></g><g><path d="M 178.378906 320.539062 L 177.398438 320.363281 L 178.378906 320.535156 L 178.378906 320.539062 M 222.070312 76.054688 L 218.296875 75.378906 L 218.300781 75.367188 L 222.070312 76.042969 L 222.070312 76.054688" fill="#d3d2d2"/></g><g><path d="M 177.398438 320.363281 L 176.449219 320.191406 L 177.398438 320.363281" fill="#353132"/></g><g><path d="M 178.378906 320.535156 L 177.398438 320.363281 L 176.449219 320.191406 L 174.613281 319.863281 L 218.296875 75.378906 L 222.070312 76.054688 L 178.378906 320.539062" fill="#cd860b"/></g><g><path d="M 214.53125 74.703125 L 214.054688 74.617188 L 214.53125 74.699219" fill="#d3d2d2"/></g><g><path d="M 170.851562 319.195312 L 167.078125 318.519531 L 170.851562 319.191406 L 170.851562 319.195312" fill="#353132"/></g><g><path d="M 170.851562 319.191406 L 167.078125 318.519531 L 210.765625 74.035156 L 214.054688 74.617188 L 214.53125 74.703125 L 170.851562 319.195312" fill="#cd860b"/></g><g><path d="M 224.070312 53.9375 L 231.0625 77.664062 L 209.292969 73.765625 Z M 224.070312 53.9375" fill="#fbc18e"/></g><g><path d="M 218.621094 61.273438 L 226.660156 62.714844 L 224.070312 53.9375 Z M 218.621094 61.273438" fill="#393536"/></g><g><path d="M 168.019531 304.859375 L 189.777344 308.746094 L 187.375 322.144531 L 165.617188 318.257812 L 168.019531 304.859375" fill="#393536"/></g><g><path d="M 166.019531 315.902344 L 163.304688 331.144531 C 163.015625 332.863281 164.152344 334.492188 165.871094 334.796875 L 181.410156 337.589844 C 183.132812 337.894531 184.773438 336.75 185.078125 335.035156 L 187.789062 319.796875 L 166.019531 315.902344" fill="#f35f59"/></g><g><path d="M 166.667969 312.378906 L 188.429688 316.273438 L 188.109375 318.066406 L 166.34375 314.183594 L 166.667969 312.378906" fill="#656263"/></g><g><path d="M 167.246094 309.085938 L 189.03125 312.972656 L 188.691406 314.78125 L 166.929688 310.894531 L 167.246094 309.085938" fill="#656263"/></g><g><path d="M 167.847656 305.789062 L 189.597656 309.679688 L 189.28125 311.480469 L 167.523438 307.597656 L 167.847656 305.789062" fill="#656263"/></g><g><path d="M 138.34375 319.558594 L 116.273438 321.128906 L 98.75 73.382812 L 120.792969 71.816406 L 138.34375 319.558594" fill="#f8a30d"/></g><g><path d="M 100.21875 73.277344 L 100.21875 73.269531 L 104.039062 73.007812 L 100.21875 73.277344" fill="#d3d2d2"/></g><g><path d="M 117.773438 321.023438 L 100.21875 73.277344 L 104.039062 73.007812 L 121.585938 320.742188 L 117.929688 321.011719 L 117.773438 321.023438" fill="#cd860b"/></g><g><path d="M 125.394531 320.480469 L 129.222656 320.207031 L 129.226562 320.21875 L 125.394531 320.480469 M 109.59375 72.613281 L 111.671875 72.460938 L 109.59375 72.613281" fill="#d3d2d2"/></g><g><path d="M 125.394531 320.480469 L 107.859375 72.738281 L 109.59375 72.613281 L 111.671875 72.464844 L 129.222656 320.207031 L 125.394531 320.480469" fill="#cd860b"/></g><g><path d="M 133.046875 319.953125 L 133.042969 319.9375 L 136.847656 319.664062 L 136.847656 319.675781 L 133.046875 319.953125 M 117.269531 72.066406 L 119.320312 71.917969 L 117.269531 72.066406" fill="#d3d2d2"/></g><g><path d="M 133.042969 319.9375 L 115.5 72.199219 L 117.269531 72.066406 L 119.320312 71.921875 L 136.847656 319.664062 L 133.042969 319.9375" fill="#cd860b"/></g><g><path d="M 128.863281 342.394531 L 116.273438 321.128906 L 138.34375 319.558594 Z M 128.863281 342.394531" fill="#fbc18e"/></g><g><path d="M 132.371094 333.957031 L 124.226562 334.535156 L 128.863281 342.394531 Z M 132.371094 333.957031" fill="#393536"/></g><g><path d="M 121.765625 85.394531 L 99.707031 86.953125 L 98.75 73.382812 L 120.792969 71.816406 L 121.765625 85.394531" fill="#393536"/></g><g><path d="M 120.964844 74.207031 L 119.878906 58.761719 C 119.738281 57.023438 118.246094 55.714844 116.496094 55.839844 L 100.753906 56.941406 C 99.007812 57.074219 97.699219 58.589844 97.832031 60.324219 L 98.917969 75.769531 L 120.964844 74.207031" fill="#f35f59"/></g><g><path d="M 121.214844 77.769531 L 99.175781 79.34375 L 99.039062 77.507812 L 121.089844 75.953125 L 121.214844 77.769531" fill="#656263"/></g><g><path d="M 121.460938 81.113281 L 99.394531 82.679688 L 99.261719 80.84375 L 121.320312 79.285156 L 121.460938 81.113281" fill="#656263"/></g><g><path d="M 121.683594 84.464844 L 99.640625 86.019531 L 99.519531 84.1875 L 121.558594 82.628906 L 121.683594 84.464844" fill="#656263"/></g><g><path d="M 197.140625 376.476562 L 99.519531 376.476562 L 74.003906 163.457031 L 222.65625 163.457031 L 197.140625 376.476562" fill="#ef2e32"/></g><g><path d="M 229.605469 179.945312 L 67.460938 179.945312 L 67.460938 157.289062 L 229.605469 157.289062 L 229.605469 179.945312" fill="#821718"/></g></g></svg>