<?xml version="1.0" encoding="UTF-8"?><svg xmlns="http://www.w3.org/2000/svg" xmlns:xlink="http://www.w3.org/1999/xlink" height="226.8" preserveAspectRatio="xMidYMid meet" version="1.1" viewBox="99.2 99.2 226.8 226.8" width="226.8" zoomAndPan="magnify">
 <g id="surface1">
  <g id="change1_1"><path d="m325.98 212.6c0 62.62-50.76 113.38-113.38 113.38s-113.38-50.76-113.38-113.38c-0.005-62.62 50.76-113.38 113.38-113.38 62.62-0.005 113.38 50.76 113.38 113.38" fill="#efbc3d"/></g>
  <g id="change2_1"><path d="m306.2 212.6c0 43.53-29.72 80.12-69.97 90.59-7.55 1.96-15.47 3.01-23.63 3.01-8.96 0-17.63-1.26-25.83-3.61-39.13-11.21-67.77-47.26-67.77-89.99 0-19.93 6.24-38.42 16.87-53.6 10.14-14.51 24.29-26 40.85-32.87 11.05-4.59 23.17-7.13 35.88-7.13 11.58 0 22.66 2.1 32.9 5.95 16.86 6.33 31.41 17.39 42.03 31.56 11.72 15.64 18.67 35.05 18.67 56.09" fill="#faf5a3"/></g>
  <g id="change3_1"><path d="m185.13 145.48c0 14.63-11.85 26.49-26.48 26.49-9.69 0-18.16-5.2-22.78-12.97 10.14-14.51 24.29-26 40.85-32.87 5.18 4.83 8.41 11.71 8.41 19.35" fill="#ef3638"/></g>
  <g id="change3_2"><path d="m287.53 156.51c-4.57 7.93-13.13 13.27-22.94 13.27-14.63 0-26.49-11.86-26.49-26.48 0-7.13 2.81-13.59 7.4-18.35 16.86 6.33 31.41 17.39 42.03 31.56" fill="#ef3638"/></g>
  <g id="change3_3"><path d="m182.13 236.59c0 14.62-11.86 26.48-26.48 26.48-14.63 0-26.49-11.86-26.49-26.48 0-14.63 11.86-26.49 26.49-26.49 14.62 0 26.48 11.86 26.48 26.49" fill="#ef3638"/></g>
  <g id="change3_4"><path d="m238.1 192.23c0 14.63-11.86 26.48-26.49 26.48-14.62 0-26.48-11.85-26.48-26.48 0-14.62 11.86-26.48 26.48-26.48 14.63 0 26.49 11.86 26.49 26.48" fill="#ef3638"/></g>
  <g id="change3_5"><path d="m293.04 230.09c0 14.62-11.86 26.48-26.49 26.48-14.62 0-26.48-11.86-26.48-26.48 0-14.63 11.86-26.49 26.48-26.49 14.63 0 26.49 11.86 26.49 26.49" fill="#ef3638"/></g>
  <g id="change3_6"><path d="m238.1 293.41c0 3.45-0.66 6.76-1.87 9.78-7.55 1.96-15.47 3.01-23.63 3.01-8.96 0-17.63-1.26-25.83-3.61-1.06-2.86-1.64-5.95-1.64-9.18 0-14.63 11.86-26.48 26.49-26.48 14.62 0 26.48 11.85 26.48 26.48" fill="#ef3638"/></g>
  <g id="change4_1"><path d="m155.65 195.01c-4 4.2-10.64 4.37-14.85 0.38-4.2-4-4.37-10.64-0.37-14.85l15.22 14.47" fill="#7dcd52"/></g>
  <g id="change4_2"><path d="m200.59 145.79c4 4.2 10.64 4.37 14.85 0.37 4.2-4 4.37-10.64 0.37-14.84l-15.22 14.47" fill="#7dcd52"/></g>
  <g id="change4_3"><path d="m254.89 183.32c0.88 5.73 6.24 9.67 11.97 8.79s9.67-6.24 8.78-11.97l-20.75 3.18" fill="#7dcd52"/></g>
  <g id="change4_4"><path d="m207.81 230.09c-5.17 2.61-7.26 8.92-4.65 14.1 2.61 5.17 8.93 7.26 14.1 4.65l-9.45-18.75" fill="#7dcd52"/></g>
  <g id="change4_5"><path d="m164.7 270.65c2.65 5.16 8.98 7.2 14.14 4.55 5.16-2.64 7.2-8.97 4.55-14.13l-18.69 9.58" fill="#7dcd52"/></g>
  <g id="change4_6"><path d="m249.46 265.24c-3.8 4.38-3.32 11.01 1.06 14.81s11.01 3.32 14.81-1.06l-15.87-13.75" fill="#7dcd52"/></g>
 </g>
</svg>