<?xml version="1.0" encoding="UTF-8"?><svg xmlns="http://www.w3.org/2000/svg" xmlns:xlink="http://www.w3.org/1999/xlink" height="222.2" preserveAspectRatio="xMidYMid meet" version="1.0" viewBox="94.4 98.8 231.5 222.2" width="231.5" zoomAndPan="magnify"><g id="change1_1"><path d="M150.035,220.287c0,0-5.156,100.639,0.146,100.055c5.302-0.585,141.313-177.099,141.313-177.099 L150.035,220.287z" fill="#7BC5E2"/></g><g id="change2_1"><path d="M325.986,112.667c0,0-0.46-13.902-21.437-4.612c-20.977,9.29-197.953,54.028-203.024,61.563 c-5.071,7.535-7.076,8.83,52.727,59.651c0,0,90.58,78.259,103.569,81.687c10.149,2.678,12.731,3.24,15.048-7.528 C275.186,292.659,325.986,112.667,325.986,112.667z" fill="#A6DBF4"/></g><g id="change3_1"><path d="M316.1,114.918c0,0-166.61,99.511-166.065,105.369c0.544,5.857,32.324,38.992,37.955,37.604 C193.62,256.502,316.1,114.918,316.1,114.918z" fill="#31688A"/></g></svg>