<?xml version="1.0" encoding="UTF-8"?><svg xmlns="http://www.w3.org/2000/svg" xmlns:xlink="http://www.w3.org/1999/xlink" height="500.5" preserveAspectRatio="xMidYMid meet" version="1.1" viewBox="0.0 -0.5 276.4 500.5" width="276.4" zoomAndPan="magnify">
 <defs>
  <clipPath id="clip1">
   <path d="m0 131h276.38v369h-276.38z"/>
  </clipPath>
 </defs>
 <g id="surface1">
  <g clip-path="url(#clip1)" id="change1_1">
   <path d="m275.72 258.45c-1.94 0.03-3.88 0.05-5.82 0.06 1.49 43.05 2.99 86.1 4.48 129.15 0.3 8.48 0.59 16.95 0.53 25.43-0.23 32.33-6.82 53.16-1.2 85-74.99-4.09-150.22-3.76-225.17 0.98-13.079 0.83-26.306 1.78-39.224-0.45 2.661-35.03 3.141-58.09 1.434-93.18-2.3867-49.06-9.0273-98.4-2.4688-147.08-1.6054 0.44-3.1953 0.96-4.7695 1.59 1.3828-0.56-2-33.13-2.1484-36.54-0.95705-22.2-1.2774-44.42-0.96486-66.62 0.07812-5.59-2.2031-19.31 3.3477-23.18 6.2619-4.38 34.313 0.75 38.219 0.03 4.289-0.79 8.676-0.84 13.035-0.88 7.023-0.08 14.051-0.15 21.078-0.22 41.972-0.43 83.942-0.86 125.92-1.29 24.75-0.26 49.55-0.51 74.2 1.73-6 41.45 2.5 83.7-0.48 125.47" fill="#8ad37e"/>
  </g>
  <g id="change2_1"><path d="m264.09 322.57c1.01 0.43 2.13 0.86 3.17 0.51 4.83-1.59 3.24-11.07-2.19-11.03-6.62 0.04-6.27 8.33-0.98 10.52zm-179.06 170.81c0-0.73-0.051-1.47-0.355-2.13-2.91-6.21-9.688-4.9-10.383 1.97-0.152 1.51 0.246 3.1 1.098 4.35 3.074-0.15 6.144-0.29 9.218-0.43 0.27-1.23 0.422-2.5 0.422-3.76zm165.06-52.72c0.98 2.2 3.61 3.63 5.91 2.93 2.53-0.79 3.82-3.67 3.98-6.31 0.16-2.56-3.94-6.21-6.49-5.49-3.34 0.93-4.67 6.06-3.4 8.87zm-38.13 55.07c-0.14-0.95-0.38-1.89-0.73-2.79-0.46-1.13-3.58-3.44-4.82-3.18-2 0.42-2.48 4.16-2.72 5.73 0 0.02 0 0.05-0.01 0.07 2.76 0.05 5.52 0.12 8.28 0.17zm-5.4-127.75c-1.45-0.12-2.88 0.71-3.72 1.9s-1.14 2.69-1.11 4.15c0.02 0.84 0.16 1.73 0.7 2.38 0.52 0.63 1.32 0.95 2.09 1.23 1.76 0.67 3.85 1.3 5.42 0.27 1.85-1.21 1.81-3.88 1.57-6.07-0.12-1.04-0.25-2.12-0.8-3.01-0.56-0.89-1.67-1.52-2.66-1.18m47.01-209.69c-0.12 3.02 1.98 5.81 4.65 7.22 0.65 0.35 1.39 0.63 2.1 0.45 0.51-0.13 0.94-0.48 1.3-0.87 1.72-1.87 2.13-4.56 2.46-7.08 0.03-0.3 0.07-0.61-0.04-0.88s-0.35-0.46-0.57-0.65c-2.01-1.65-3.24-4.05-6.03-3.37-2.18 0.53-3.79 3.07-3.87 5.18zm-55.58 66.93c-1.37 1.85-1.9 4.31-1.4 6.57 0.5 2.25 2.01 4.26 4.04 5.36 1.52 0.82 3.67 1.02 4.76-0.31 0.4-0.47 0.6-1.08 0.73-1.69 0.3-1.35 0.34-2.74 0.37-4.12 0.03-1.57-0.01-3.3-1.04-4.48-2.08-2.4-5.17-4.41-7.46-1.33zm-81.23 213.05c-0.68 1.94-0.94 4.34 0.45 5.86 0.84 0.93 2.12 1.33 3.35 1.58 1.52 0.31 3.21 0.44 4.54-0.37 1.34-0.82 2-2.39 2.52-3.87 1.16-3.32-0.73-6.35-3.91-7.82-3.45-1.59-5.84 1.5-6.95 4.62zm2.7-116.71c-0.07 0.79-0.09 1.6 0.22 2.32 0.44 1.05 1.47 1.7 2.43 2.29 0.86 0.53 1.84 1.08 2.81 0.85 0.93-0.22 1.55-1.07 2.01-1.9 1.67-3.02 3.06-9.77-0.65-12.04-4.57-2.8-6.54 5.43-6.82 8.48zm-94.934 129.5c0.285 0.49 0.691 0.91 1.16 1.24 1.883 1.32 4.644 0.95 6.363-0.57 3.203-2.83 3.203-10.36-1.734-11.41-5.106-1.09-7.899 7.07-5.789 10.74zm45.144-74.97c-1.238 1.18-1.941 2.84-2.195 4.54-0.223 1.48-0.09 3.1 0.805 4.3 0.671 0.92 1.726 1.51 2.835 1.75 1.879 0.41 3.942-0.17 5.333-1.49 1.394-1.33 2.074-3.36 1.757-5.25-0.703-4.22-4.984-7.24-8.535-3.85zm-44.832-59.69c-2.293 0.72-3.242 3.41-3.676 5.78-0.164 0.89-0.293 1.85 0.102 2.67 0.59 1.23 2.086 1.66 3.414 1.96 1.098 0.25 2.355 0.47 3.25-0.21 0.547-0.41 0.828-1.08 1.051-1.73 0.664-1.95 0.969-4.01 0.902-6.06-0.027-0.87-0.144-1.8-0.691-2.47-1.215-1.5-3.766-0.85-5.035 0.6m37.597-81.13c-0.086 1.06-0.109 2.2 0.449 3.1 0.754 1.22 2.305 1.63 3.715 1.86 1.207 0.2 2.492 0.33 3.617-0.14 1.899-0.81 2.707-3.03 3.235-5.02 0.539-2.04 0.992-4.21 0.363-6.22-1.043-3.34-4.785-4.52-7.461-2.54-2.738 2.02-3.652 5.75-3.918 8.96zm-38.449-73.2c2.727-2.48 7.523-0.34 8.891 3.08 1.367 3.42 0.351 7.29-0.875 10.76-0.524 1.49-1.114 3.01-2.211 4.14-2.575 2.65-7.387 2.11-9.879-0.62-2.496-2.73-2.844-6.95-1.594-10.43s3.863-6.3 6.727-8.64" fill="#fbdd67"/></g>
  <g id="change3_1"><path d="m202 131.25c-41.98 0.43-83.95 0.86-125.92 1.29-7.029 0.07-14.057 0.14-21.08 0.22-4.359 0.04-8.746 0.09-13.035 0.88-2.449 0.45-14.41-1.4-24.527-1.76 0.054 0.14 0.117 0.28 0.187 0.43 1.687 3.54 6.695 6.51 9.918 8.46 7.742 4.71 16.637 7.23 25.535 8.61 5.09 0.78 10.238 1.19 15.387 1.33 24.105 0.71 48.325-2.81 71.245-10.33 2.83-0.93 5.7-1.93 8.68-2.01 2.45-0.07 4.88 0.49 7.27 1.02 33.46 7.45 69.52 10.31 101.18-2.85 2.63-1.09 5.4-2.53 7.48-4.45-20.73-1.27-41.54-1.06-62.32-0.84zm67.9 127.26c0.12 3.54 0.24 7.08 0.37 10.62-20.61 0.81-41.31-1.57-61.94-2.99-45.46-3.12-91.1-1.53-136.64 0.07-21.526 0.76-43.053 1.52-64.581 2.28 0.3324-3.38 0.7191-6.76 1.1722-10.13 16.176-4.4 33.903 0.23 50.961 0.63 9.781 0.24 19.531-0.96 29.278-1.83 13.17-1.17 26.36-1.75 39.56-1.94 12.11-6.52 26.94-5.21 40.53 0.41 33.75 0.98 67.54 3.09 101.29 2.88" fill="#78c171"/></g>
  <g id="change4_1"><path d="m234.25 119.17c-4.45 5.11-11.91 6.07-18.68 6.52-22.31 1.48-45.27 0.86-66.96 6.1-1.53 0.02-3.07 0.03-4.6 0.05 5.03-5.72 13.29-8.11 20.29-11.61 7.58-3.79 27.38-19.34 31.01-21.433 8.7-5.02 18.39-8.965 28.42-8.727 4.54 0.11 9.45 1.328 12.16 4.961 1.97 2.645 2.43 6.099 2.5 9.399 0.12 5.22-0.7 10.8-4.14 14.74zm-125.69 6.89c-20.408 1.44-29.263-2.01-45.08-1.11-6.753 0.39-14.5 0.51-19.082-4.47-5.5-5.98-2.632-16.48 4.016-21.14 6.652-4.664 15.504-4.738 23.496-3.285 12.219 2.218 23.625 7.515 34.88 12.755 3.75 1.75 29.76 13.8 33.11 22.14-8.89-3.16-28.23-5.11-31.34-4.89zm-0.73-92.556c4.79-6.715 12.67-11.328 20.92-11.442 1.97-0.027 4.02 0.215 5.71 1.211 3.93 2.305 4.68 7.598 4.78 12.153 0.51 22.75-4.35 45.262-5.81 67.964-0.06 0.98 0.27 5.9 1.02 11.22-3.7-5.56-8.17-10.6-13.15-15.036-2.32-3.922-4.6-7.867-6.86-11.816-5.54-9.653-11.21-19.672-12.36-30.742-0.86-8.204 0.96-16.801 5.75-23.512zm37.06 93.526c4.3-11.39 5.85-27.592 9.24-39.081 3.63-12.32 7.38-24.609 11.25-36.859 1.74-5.535 4.07-11.692 9.4-13.973 1.9-0.816 4.01-1.031 6.08-1.121 2.67-0.117 5.45-0.016 7.85 1.164 4.59 2.254 6.58 7.938 6.24 13.039-0.48 7.305-4.65 13.781-8.69 19.891-9.49 14.34-19.04 28.64-28.46 43.02-4.16 6.34-10.7 11.16-12.6 13.9-0.16 0.2-0.31 0.4-0.45 0.61 0.06-0.18 0.11-0.38 0.14-0.59zm126.72-21.81c-1.74-8.032-5.06-16.115-11.4-21.349-6.75-5.559-15.91-7.121-24.65-7.402-10.4-0.336-21.07 0.992-30.76 4.636 0.46-0.636 0.91-1.273 1.37-1.91 5.39-7.636 10.67-15.629 12.9-24.711 2.22-9.078 0.86-19.562-5.68-26.242-4.3-4.398-10.28-6.672-16.09-8.73-3-1.063-6.07-2.117-9.26-2.254-5.34-0.238-10.42 2.09-15.18 4.508-5.22 2.648-10.43 5.546-14.45 9.804-0.82 0.883-1.59 1.821-2.31 2.793-0.08-2.363-0.2-4.722-0.35-7.082-0.45-6.777-1.3-13.961-5.53-19.277-3.68-4.629-9.53-7.1876-15.4-7.8204-5.88-0.63672-11.82 0.47656-17.5 2.1289-7.06 2.0586-14.02 5.0586-19.398 10.078-7.457 6.962-11.172 17.301-11.567 27.493-0.398 10.195 2.254 20.293 5.969 29.793 2.18 5.582 4.715 10.789 7.578 15.719-7.34-3.606-15.09-6.415-22.98-8.567-7.379-2.012-15.016-3.48-22.645-2.937-7.629 0.539-15.308 3.261-20.715 8.668-6.261 6.253-8.808 15.246-10.675 23.901-1.614 7.46-2.754 15.81 1.316 22.27 4.859 7.71 15.094 9.67 24.176 10.49 25.156 2.27 50.601 1.32 75.521-2.79 0.24-0.04 0.54-0.08 0.87-0.12 0.03 4.11 1.12 8.91 1.33 12.79 0.66 12.79 1.19 25.59 1.6 38.38 0.16 5.18-0.16 50.41 0.38 67.75h0.14c-2.11 11.12-0.09 27.08-0.32 34.37-0.54 17.45-0.97 34.91-1.29 52.36-0.63 35.18-0.77 70.38-0.43 105.56 0.03 3.52 0.22 32.66 0.55 48.22 14.44-0.32 28.88-0.48 43.33-0.47-1.36-34.51-2.72-69.02-4.08-103.52-0.3-7.51-0.59-15.01-0.73-22.52-0.53-30.1 1.55-60.18 4.25-90.16 0.55-6.09 1.12-12.27 0.08-18.3-0.29-1.74-0.75-3.47-1.37-5.15 0.14 0 0.27 0.01 0.4 0.01-0.24-40.56-1.68-81.12-4.33-121.6 17.31 1.06 34.73 4.96 52.15 4.84 13.4-0.08 26.78-2.58 39.32-7.34 6.34-2.41 12.98-5.91 15.58-12.17 1.83-4.42 1.29-9.46 0.28-14.14" fill="#c94b5a"/></g>
  <g id="change5_1"><path d="m141.48 134.88c-0.03-0.01-0.05-0.01-0.07-0.01-0.25-0.69-1.09-0.95-2.26-0.6-4.08 1.24-11.19 1.66-14.39 2.04 0.02 2.58 0.46 5.42 0.84 8.15 4.74-1.2 9.45-2.55 14.11-4.08 2.83-0.93 5.7-1.93 8.68-2.01 2.45-0.07 4.88 0.49 7.27 1.02 3 0.67 6.03 1.3 9.07 1.89-0.14-2.42-0.3-4.83-0.45-7.25-7.62-0.46-15.23-0.38-22.8 0.85zm28.54 129.65c-14.23-0.26-28.48-0.2-42.72 0.06 0.1-3.29 0.38-6.49 0.92-9.36 13.32-0.19 26.66 0.01 39.99 0.39 0.62 1.68 1.08 3.41 1.37 5.15 0.22 1.25 0.35 2.5 0.44 3.76" fill="#b13944"/></g>
 </g>
</svg>