<?xml version="1.0" encoding="UTF-8"?><svg xmlns="http://www.w3.org/2000/svg" xmlns:xlink="http://www.w3.org/1999/xlink" height="218.8" preserveAspectRatio="xMidYMid meet" version="1.1" viewBox="120.1 93.0 184.9 218.8" width="184.9" zoomAndPan="magnify">
 <g id="surface1">
  <g id="change1_1"><path d="m203.33 167.22s-51.96 7.41-55.77-8.72c1.9-8.26 1.06-13.39 5.87-24.36 31.07-12.16 52.9 22.77 52.9 22.77l-3 10.31" fill="#f8a716"/></g>
  <g id="change2_1"><path d="m203.33 167.22s-26.76-45.78-55.77-8.72c-1.77-10.6-0.48-27.57 2.59-38.12 31.86-27.396 59.59 34.57 59.59 34.57l-6.41 12.27" fill="#fbc512"/></g>
  <g id="change1_2"><path d="m221.87 167.22s51.96 7.41 55.77-8.72c-1.9-8.26-1.06-13.39-5.87-24.36-31.07-12.16-52.9 22.77-52.9 22.77l3 10.31" fill="#f8a716"/></g>
  <g id="change2_2"><path d="m221.87 167.22s26.77-45.78 55.77-8.72c1.77-10.6 0.48-27.57-2.59-38.12-31.86-27.396-59.59 34.57-59.59 34.57l6.41 12.27" fill="#fbc512"/></g>
  <g id="change3_1"><path d="m225.2 164.55c-2.55 3.82-24.18 4.85-25.03 0-0.85-4.86-3.82-18.21 0-21.83s21.63-3.17 25.03 0c3.39 3.16 2.54 18.01 0 21.83" fill="#fddd0f"/></g>
  <g id="change4_1"><path d="m305.05 210.02h-184.9v-43.63h184.9v43.63" fill="#00acef"/></g>
  <g id="change5_1"><path d="m295.7 311.81h-166.2v-101.79h166.2v101.79" fill="#069be1"/></g>
  <g id="change3_2"><path d="m232.34 210.02h-39.48v-43.63h39.48v43.63" fill="#fddd0f"/></g>
  <g id="change2_3"><path d="m230.34 311.81h-35.48v-101.79h35.48v101.79" fill="#fbc512"/></g>
 </g>
</svg>