<?xml version="1.0" encoding="UTF-8"?><svg xmlns="http://www.w3.org/2000/svg" xmlns:xlink="http://www.w3.org/1999/xlink" height="303.6" preserveAspectRatio="xMidYMid meet" version="1.0" viewBox="0.0 0.0 500.0 303.6" width="500.0" zoomAndPan="magnify"><g id="change1_1"><path d="M0,0h500v303.5H0V0z" fill="#FEE04A"/></g><g id="change2_1"><path d="M500,143.7H345.9V0h-16.2v112.9c-9.2-20.6-22.6-37.5-38.8-41.1c-6.6-1.5-19.5-1.7-31,13.6 c-8.9,12-8.6,25,0.9,36.6c6.4,7.8,18.8,15.5,31.8,21.7H0v16.2h329.7v143.7h16.2V197.9c8.8,15.8,20.3,27.9,33.7,30.9 c1.9,0.4,3.9,0.6,5.9,0.6c6.9,0,16.2-2.4,25.1-14.3c8.9-11.9,8.6-24.9-0.9-36.5c-5.4-6.6-15.2-13.1-25.9-18.7H500V143.7z M270.4,107 c-1.1-2.6-2.4-5.3,2.5-11.9c4.9-6.6,9.3-7.8,12-7.8c0.8,0,1.7,0.1,2.5,0.3c11,2.4,25.7,21.3,34.2,49.9 C304.5,132.1,275.8,120.5,270.4,107z M400.1,193.5c1.1,2.6,1.7,6.3-2.5,11.9c-6.9,9.3-12.6,8-14.5,7.6c-11-2.5-25.7-21.3-34.2-50 C366,168.5,394.6,180.1,400.1,193.5z" fill="#439E8F"/></g></svg>