<?xml version="1.0" encoding="UTF-8"?><svg xmlns="http://www.w3.org/2000/svg" xmlns:xlink="http://www.w3.org/1999/xlink" height="605.2" preserveAspectRatio="xMidYMid meet" version="1.0" viewBox="0.0 0.0 500.0 605.2" width="500.0" zoomAndPan="magnify"><g id="change1_1"><path d="M433.4,585.3H66.6c-25.7,0-46.8-21-46.8-46.8V171.7c0-25.7,21-46.8,46.8-46.8h366.9 c25.7,0,46.8,21,46.8,46.8v366.9C480.2,564.2,459.2,585.3,433.4,585.3z" fill="#00A14B"/></g><g id="change2_1"><path d="M433.4,105.1h-81.1c8.9-11.1,14.3-25.1,14.3-40.4c0-35.7-29-64.7-64.7-64.7c-21.4,0-40.2,10.1-51.9,25.7 C238.1,10,219.4,0,198.1,0c-35.7,0-64.7,29-64.7,64.7c0,15.3,5.3,29.3,14.2,40.4h-81C29.9,105.1,0,135,0,171.7v366.9 c0,36.7,29.9,66.6,66.6,66.6h366.8c36.7,0,66.6-29.9,66.6-66.6V171.7C500,135,470.1,105.1,433.4,105.1z M460.4,171.7v163.6H269.8 V168l76.4,76.4c3.9,3.9,8.9,5.8,14,5.8s10.1-1.9,14-5.8c7.7-7.7,7.7-20.3,0-28l-71.7-71.7h131C448.3,144.7,460.4,156.8,460.4,171.7 z M301.9,39.6c13.9,0,25.1,11.3,25.1,25.1c0,13.9-11.3,25.1-25.1,25.1l-2.5-0.1l-22.5,0.1L276.8,64 C277.1,50.3,288.2,39.6,301.9,39.6z M198.1,39.6c13.7,0,24.7,10.7,25.1,24.6l-0.1,25.7l-23.4-0.1l-1.6,0 c-13.9,0-25.1-11.3-25.1-25.1C173,50.9,184.3,39.6,198.1,39.6z M66.6,144.7h133.9l-71.7,71.7c-7.7,7.7-7.7,20.3,0,28 c7.7,7.7,20.3,7.7,28,0l73.4-73.4v164.3H39.6V171.7C39.6,156.8,51.7,144.7,66.6,144.7z M39.6,538.5V374.9h190.6v190.6H66.6 C51.7,565.5,39.6,553.4,39.6,538.5z M433.4,565.5H269.8V374.9h190.6v163.6C460.4,553.4,448.3,565.5,433.4,565.5z" fill="#262425"/></g></svg>