<?xml version="1.0" encoding="UTF-8"?><svg xmlns="http://www.w3.org/2000/svg" xmlns:xlink="http://www.w3.org/1999/xlink" height="448.0" preserveAspectRatio="xMidYMid meet" version="1.0" viewBox="2.2 26.4 495.6 448.0" width="495.6" zoomAndPan="magnify"><g id="change1_1"><path d="M257.2,149.7h-13.6l-2.3-9.8c-9-36.2-10.2-74.3,4.1-109c1.1-2.6,4.1-4.5,7.2-4.5h21.5c3,0,4.5,3,3.4,5.7 c-17,36.2-19.6,75.4-20.4,115.8V149.7z" fill="#3BB729"/></g><g id="change2_1"><path d="M124.1,92C56.6,112.7,9,179.1,3,260.9l0,0c-0.8,10.6-0.8,21.5,0,32.1v2.3c6,77.7,52.8,141.4,116.1,166.7 c-38.5-38.8,3.8-106,3.8-182.5C122.9,199.5,83.7,130.1,124.1,92z" fill="#F28834"/></g><g id="change2_2"><path d="M497,295.2V293c0.8-10.6,0.8-21.5,0-32.1l0,0c-6-79.6-50.9-144-115.4-167c39.6,38.5-0.8,107.1-0.8,185.1 c0,74.7,43.7,140.6,6.4,179.9C447.2,432.1,491.3,369.9,497,295.2z" fill="#F28834"/></g><g id="change3_2"><path d="M383.1,94.3c-16.2-6-33.9-8.7-52.4-8.7h-35.1c32.1,33.9-21.5,109.4-21.5,194.2s53.5,156.5,21.5,194.2h25.3 c23.8,0,46.8-5.7,67.5-14.7c37.3-39.2,69-105.2,69-179.9C457.8,201.4,422.7,132.7,383.1,94.3z" fill="#F69636"/></g><g id="change3_1"><path d="M229.3,279.8c0-84.8-53.5-160.3-21.5-194.2h-38.5c-16.2,0-32.1,1.9-46.8,6.4C82.2,130.5,46,199.8,46,279.4 c0,76.5,33.2,143.7,71.6,182.9c19.2,7.5,39.6,12.1,61.1,12.1h29C175.7,436.3,229.3,365,229.3,279.8z" fill="#F69636"/></g><g id="change4_1"><path d="M350.7,279.8c0-84.8-21.9-160.3-53.9-194.2H207c-32.1,33.9-53.9,109.4-53.9,194.2S175,436.3,207,474h89.4 C328.8,436.3,350.7,365,350.7,279.8z" fill="#FAA23C"/></g></svg>