<?xml version="1.0" encoding="iso-8859-1"?>
<!-- Generator: Adobe Illustrator 16.0.0, SVG Export Plug-In . SVG Version: 6.00 Build 0)  -->
<!DOCTYPE svg PUBLIC "-//W3C//DTD SVG 1.1//EN" "http://www.w3.org/Graphics/SVG/1.1/DTD/svg11.dtd">
<svg version="1.1" id="Layer_1" xmlns="http://www.w3.org/2000/svg" xmlns:xlink="http://www.w3.org/1999/xlink" x="0px" y="0px"
	 width="496.475px" height="496.475px" viewBox="0 0 496.475 496.475" style="enable-background:new 0 0 496.475 496.475;"
	 xml:space="preserve">
<g id="Layer_1_1_">
	<g id="Change3">
		<path style="fill:#AB2849;" d="M496.475,248.834c-13.234,0.385-27.757,0.878-40.749,1.481
			c-35.76,1.664-51.562,4.158-50.729-13.306c0.831-17.465,29.938-65.699-18.296-65.699c-51.561,0-20.79,44.076-20.79,66.53
			c0,14.969-17.464,14.969-39.086,14.969c-10.506,0-45.358-2.16-78.419-4.38c-2.342,34.841-4.742,67.583-4.742,67.583
			s-8.316,33.264,22.454,32.434c22.452,0,59.044-24.117,59.044,16.632c0,42.413-42.412,18.296-62.37,18.296
			c-19.959,0-18.296,10.811-18.296,43.244c1.917,23.966,6.039,48.202,7.759,69.854h244.221V248.834L496.475,248.834z"/>
		<path style="fill:#AB2849;" d="M113.1,262.792c0,19.958-24.117,62.371,18.296,62.371c40.749,0,16.632-36.592,16.632-59.045
			c-0.832-30.77,32.434-22.454,32.434-22.454s32.969,2.417,67.946,4.767c2.229-33.167,4.404-68.237,4.404-78.782
			c0-21.622,0-39.086-14.969-39.086c-22.454,0-66.529,30.77-66.529-20.791c0-48.233,48.233-19.127,65.698-18.295
			c17.464,0.832,14.969-14.969,13.306-50.729c-0.604-12.992-1.098-27.515-1.482-40.749H0v252.254
			c21.652-1.72,45.889-5.841,69.855-7.759C102.289,244.496,113.1,242.833,113.1,262.792z"/>
	</g>
</g>
<g id="Layer_3">
	<g id="Change2">
		<path style="fill:#F4BC33;" d="M237.011,91.478c-17.464-0.832-65.698-29.938-65.698,18.295c0,51.561,44.076,20.791,66.529,20.791
			c14.969,0,14.969,17.464,14.969,39.086c0,10.545-2.175,45.615-4.405,78.782c33.061,2.221,67.913,4.381,78.419,4.381
			c21.622,0,39.086,0,39.086-14.97c0-22.455-30.771-66.53,20.79-66.53c48.233,0,19.127,48.234,18.296,65.699
			c-0.832,17.464,14.97,14.968,50.729,13.306c12.992-0.604,27.515-1.098,40.749-1.482V0H248.833
			c0.385,13.234,0.878,27.757,1.482,40.749C251.979,76.509,254.475,92.309,237.011,91.478z"/>
	</g>
</g>
<g id="Layer_4">
	<g id="Change1">
		<path style="fill:#318BA2;" d="M262.791,383.375c19.958,0,62.37,24.117,62.37-18.296c0-40.749-36.592-16.632-59.044-16.632
			c-30.771,0.831-22.454-32.435-22.454-32.435s2.399-32.74,4.742-67.583c-34.977-2.35-67.945-4.767-67.945-4.767
			s-33.265-8.316-32.434,22.454c0,22.453,24.117,59.045-16.632,59.045c-42.413,0-18.296-42.413-18.296-62.371
			c0-19.959-10.811-18.296-43.244-18.296c-23.967,1.917-48.203,6.039-69.855,7.759v244.221h252.254
			c-1.72-21.652-5.841-45.89-7.759-69.854C244.495,394.187,242.832,383.375,262.791,383.375z"/>
	</g>
</g>
</svg>
