<?xml version="1.0" encoding="UTF-8"?><svg xmlns="http://www.w3.org/2000/svg" height="3696.9pt" version="1.1" viewBox="0 0 3702.24 3696.92" width="3702.2pt">
 <g fill-rule="evenodd" id="surface1">
  <g id="change1_1"><path d="m581.72 655.29c-141.86 154.53-248.85 312.24-338.68 529.11-84.35 203.8-153.6 464.1-137.56 735.5 30.51 516.4 248.57 912.1 550.31 1190.6 276.41 255.1 716.11 513.9 1264.6 481.5 498.2-29.4 912.2-248.7 1190.6-550.3 256.9-278.4 510.8-708.7 481.5-1259.3-27.3-514.3-257.9-929.12-545-1195.9-276.3-256.71-729.4-511.02-1269.9-476.24-538 34.63-920.5 245.02-1195.9 545.03zm1142.9-650.84c610.9-39.351 1051.9 188.07 1370.5 476.21 308.8 279.35 570.4 688.24 603.2 1243.4 36.5 616.9-186 1054.3-476.2 1370.5-296.9 323.5-680.6 561.3-1248.8 597.9-605.6 39-1049.4-187.2-1365.1-470.9-330.41-296.8-563.5-666.5-603.24-1243.5-41.73-605.6 185.76-1063.5 465.62-1370.4 213.93-234.65 485.47-429.14 851.92-534.47 129.4-37.207 265.3-59.976 402.1-68.785" fill="#cc5e5e"/></g>
  <g id="change2_1"><path d="m2026.2 2232.1c224.7 227 469.2 461.2 709.1 682.6 30.8 28.4 81.2 93.3 111.1 89.9 24.9-2.7 88.8-103 105.9-126.9 104.4-146.8 196.5-271.4 285.7-412.8-314.6-193.3-658.6-357.4-984.2-539.7-85.8 92.4-153.7 202.6-227.6 306.9zm-1545 232.8c89.95 142.8 184.61 270.7 285.74 412.8 18.23 25.6 80.71 126.1 111.11 126.9 25.16 0.8 77.3-63.6 105.85-89.9 113.13-104.5 206.83-199.1 306.93-291 142-130.6 286.4-261.8 402.1-396.9-78.5-97.8-140.6-212.2-227.5-301.6-325.6 182.4-669.79 346.2-984.23 539.7zm1164.1-534.4c35.1 206.2 388 237.8 428.6 0 27.1-158.9-93-269.1-227.6-259.3-132.3 9.7-225.4 116.6-201 259.3zm-127-1492.1c38.8 359.77 95.8 747.24 148.1 1111.1h386.3c44.4-274.4 77.5-570.34 116.4-846.59 13-92 37-185.87 26.5-275.16-211.7-12.34-446.3-1.77-666.7-5.3-7.5 1.39-6.1 11.64-10.6 15.91zm259.3-328.1c540.5-34.783 993.6 219.53 1269.9 476.24 287.1 266.78 517.7 681.6 545 1195.9 29.3 550.6-224.6 980.9-481.5 1259.3-278.4 301.6-692.4 520.9-1190.6 550.3-548.5 32.4-988.2-226.4-1264.6-481.5-301.75-278.5-519.81-674.2-550.32-1190.6-16.035-271.4 53.21-531.7 137.56-735.5 89.83-216.87 196.82-374.58 338.68-529.11 275.38-300.01 657.88-510.4 1195.9-545.03" fill="#fff2a3"/></g>
  <g id="change1_2"><path d="m1528.9 422.45c220.4 3.53 455-7.04 666.7 5.3 10.5 89.29-13.5 183.16-26.5 275.16-38.9 276.25-72 572.19-116.4 846.59h-386.3c-52.3-363.9-109.3-751.37-148.1-1111.1 4.5-4.31 3.1-14.56 10.6-15.95" fill="#cc5e5e"/></g>
  <g id="change1_3"><path d="m1846.3 1671.2c134.6-9.8 254.7 100.4 227.6 259.3-40.6 237.8-393.5 206.2-428.6 0-24.4-142.7 68.7-249.6 201-259.3" fill="#cc5e5e"/></g>
  <g id="change1_4"><path d="m1465.4 1925.2c86.9 89.4 149 203.8 227.5 301.6-115.7 135.1-260.1 266.3-402.1 396.9-100.1 91.9-193.8 186.5-306.93 291-28.55 26.3-80.69 90.7-105.85 89.9-30.4-0.8-92.88-101.3-111.11-126.9-101.13-142.1-195.79-270-285.74-412.8 314.44-193.5 658.63-357.3 984.23-539.7" fill="#cc5e5e"/></g>
  <g id="change1_5"><path d="m2253.8 1925.2c325.6 182.3 669.6 346.4 984.2 539.7-89.2 141.4-181.3 266-285.7 412.8-17.1 23.9-81 124.2-105.9 126.9-29.9 3.4-80.3-61.5-111.1-89.9-239.9-221.4-484.4-455.6-709.1-682.6 73.9-104.3 141.8-214.5 227.6-306.9" fill="#cc5e5e"/></g>
 </g>
</svg>