<?xml version="1.0" encoding="UTF-8"?><svg xmlns="http://www.w3.org/2000/svg" xmlns:xlink="http://www.w3.org/1999/xlink" height="36.0" preserveAspectRatio="xMidYMid meet" version="1.0" viewBox="0.0 0.0 36.0 36.0" width="36.0" zoomAndPan="magnify"><g id="change1_1"><path d="M36 1C16.118 1 1 16.118 1 36h17.042c0-9.917 8.042-17.958 17.958-17.958V1z" fill="#8767AC"/></g><g id="change2_1"><path d="M0 35.999h3.042c0-18.189 14.734-32.935 32.917-32.957V0C16.095.023 0 16.131 0 35.999z" fill="#EB2027"/></g><g id="change3_1"><path d="M3.083 36h3C6.083 19.468 19.473 6.065 36 6.043v-3C17.817 3.065 3.083 17.811 3.083 36z" fill="#F19020"/></g><g id="change4_1"><path d="M6.083 36h3C9.083 21.125 21.13 9.065 36 9.043v-3C19.473 6.065 6.083 19.468 6.083 36z" fill="#FFCB4C"/></g><g id="change5_1"><path d="M9.083 36h3c0-13.217 10.705-23.935 23.917-23.957v-3C21.13 9.065 9.083 21.125 9.083 36z" fill="#5C903F"/></g><g id="change6_1"><path d="M12.083 36h3c0-11.56 9.362-20.934 20.917-20.956v-3.001C22.788 12.065 12.083 22.783 12.083 36z" fill="#226798"/></g></svg>