<?xml version="1.0" encoding="UTF-8"?><svg xmlns="http://www.w3.org/2000/svg" xmlns:xlink="http://www.w3.org/1999/xlink" height="244.0" preserveAspectRatio="xMidYMid meet" version="1.0" viewBox="0.0 0.0 488.0 244.0" width="488.0" zoomAndPan="magnify"><g id="change1_1"><path d="M244,0C109.2,0,0,109.3,0,244h147.7c0-53.2,43.1-96.3,96.3-96.3c53.2,0,96.3,43.1,96.3,96.3H488 C488,109.2,378.8,0,244,0z" fill="#E35831"/></g><g id="change2_1"><path d="M244,33.6C127.8,33.6,33.6,127.8,33.6,244h114.2c0-53.2,43.1-96.3,96.3-96.3c53.2,0,96.3,43.1,96.3,96.3h114 C454.4,127.8,360.2,33.6,244,33.6z" fill="#FADB5E"/></g><g id="change3_1"><path d="M244,68.6c-96.8,0-175.3,78.5-175.3,175.3h79.1c0-53.2,43.1-96.3,96.3-96.3c53.2,0,96.3,43.1,96.3,96.3h79 C419.4,147.1,340.9,68.6,244,68.6C244,68.6,244,68.6,244,68.6z" fill="#4DAD73"/></g><g id="change4_1"><path d="M244,108.2c-75,0-135.8,60.8-135.8,135.8h39.6c0-53.2,43.1-96.3,96.3-96.3c53.2,0,96.3,43.1,96.3,96.3h39.5 C379.9,169,319.1,108.2,244,108.2C244,108.2,244,108.2,244,108.2z" fill="#285EAB"/></g></svg>