<?xml version="1.0" encoding="UTF-8"?><svg xmlns="http://www.w3.org/2000/svg" height="465.46pt" version="1.1" viewBox="0 0 469.04 465.46" width="469.04pt">
 <g id="surface1">
  <g id="change1_1"><path d="m366.03 192.97c-1.57 58.6-49.56 105.62-108.54 105.62-49.29 0-90.9-32.84-104.15-77.84-8.18 3.22-17.07 5-26.39 5-34.884 0-63.985-24.76-70.696-57.66-31.34-1.62-56.254-27.54-56.254-59.29 0-32.784 26.582-59.362 59.367-59.362 3.297 0 6.528 0.277 9.676 0.796 14.937-21.933 40.107-36.339 68.647-36.339 26.92 0 50.83 12.816 66 32.675 13.21-14.781 32.42-24.093 53.8-24.093 26.26 0 49.24 14.035 61.87 35.007 9.51-4.617 20.18-7.211 31.46-7.211 39.86 0 72.16 32.305 72.16 72.157 0 34.63-24.41 63.55-56.95 70.54" fill="#9fc4b7"/></g>
  <g id="change2_1"><path d="m102.97 106.17c1.57-58.6 49.56-105.62 108.53-105.62 49.29-0.00312 90.9 32.841 104.16 77.837 8.18-3.215 17.07-5 26.38-5 34.89 0 63.99 24.758 70.7 57.663 31.34 1.62 56.26 27.54 56.26 59.29 0 32.78-26.59 59.36-59.37 59.36-3.3 0-6.53-0.27-9.68-0.79-14.93 21.93-40.11 36.33-68.64 36.33-26.92 0-50.84-12.81-66-32.67-13.21 14.78-32.42 24.09-53.81 24.09-26.26 0-49.24-14.03-61.86-35.01-9.51 4.62-20.19 7.21-31.47 7.21-39.85 0-72.154-32.3-72.154-72.15 0-34.64 24.406-63.56 56.954-70.54" fill="#d6ede3"/></g>
  <g id="change3_1"><path d="m468.86 194.45c0.09-1.36 0.14-2.73 0.14-4.11 0-28.44-20-52.2-46.69-58.02 0.02-0.17 0.05-0.35 0.07-0.53 26.68 5.82 46.66 29.58 46.66 58 0 1.57-0.06 3.12-0.18 4.66m-185.29-167.11c-0.39-0.148-0.77-0.297-1.16-0.441-19.02-16.418-43.8-26.348-70.91-26.348-20.34-0.00012-39.39 5.5975-55.66 15.34-0.22-0.047-0.42-0.094-0.63-0.141 16.42-9.9882 35.7-15.742 56.34-15.742 27.63-0.0000938 52.86 10.324 72.02 27.332" fill="#fff"/></g>
  <g id="change4_1"><path d="m422.31 132.32c-3.11-0.67-6.3-1.1-9.57-1.27-6.71-32.905-35.81-57.663-70.7-57.663-9.31 0-18.2 1.785-26.38 5-5.97-20.258-17.68-38.047-33.25-51.492 0.39 0.144 0.77 0.293 1.16 0.441 15.01 13.32 26.31 30.742 32.13 50.508 8.18-3.215 17.07-5 26.39-5 34.88 0 63.98 24.758 70.7 57.656 3.27 0.18 6.48 0.61 9.59 1.29-0.02 0.18-0.05 0.36-0.07 0.53m-314.75-55.062c7.8-25.906 25-47.735 47.65-61.512 0.21 0.047 0.41 0.094 0.63 0.141-22.7 13.582-40.02 35.215-48.03 60.957-0.08 0.136-0.17 0.277-0.25 0.414" fill="#bdd7cd"/></g>
  <g id="change5_1"><path d="m457.5 224.94c0.71-3.67 1.1-7.45 1.1-11.33 0-31.74-24.91-57.66-56.25-59.29-6.71-32.9-35.81-57.656-70.7-57.656-9.32 0-18.21 1.785-26.38 4.996-13.26-44.992-54.88-77.836-104.16-77.836-39.66 0-74.35 21.266-93.3 53.02 8.01-25.742 25.33-47.375 48.03-60.957 16.27-9.7425 35.32-15.34 55.66-15.34 27.11-0.00012 51.89 9.93 70.91 26.348 15.57 13.445 27.28 31.234 33.25 51.492 8.18-3.215 17.07-5 26.38-5 34.89 0 63.99 24.758 70.7 57.663 3.27 0.17 6.46 0.6 9.57 1.27 26.69 5.82 46.69 29.58 46.69 58.02 0 1.38-0.05 2.75-0.14 4.11-0.89 11.37-4.97 21.82-11.36 30.49" fill="#e3f2eb"/></g>
  <g id="change4_2"><path d="m47.977 159.61c5.73-24.4 23.855-44.02 47.375-51.87-0.043 0.18-0.086 0.37-0.129 0.55-23.25 7.8-41.219 27.1-47.129 51.15-0.039 0.06-0.078 0.11-0.117 0.17" fill="#bdd7cd"/></g>
  <g id="change5_2"><path d="m48.094 159.44c5.91-24.05 23.879-43.35 47.129-51.15-1.547 6.83-2.457 13.91-2.649 21.16-18.418 3.95-34.222 14.93-44.48 29.99" fill="#e3f2eb"/></g>
  <g id="change1_2"><path d="m176.53 290.32s-37.37 27.88-14.85 36.94 14.85-36.94 14.85-36.94" fill="#9fc4b7"/></g>
  <g id="change1_3"><path d="m188.2 356.61s-37.38 27.87-14.86 36.93 14.86-36.93 14.86-36.93" fill="#9fc4b7"/></g>
  <g id="change1_4"><path d="m222.48 408.29s-37.37 27.87-14.85 36.93 14.85-36.93 14.85-36.93" fill="#9fc4b7"/></g>
  <g id="change1_5"><path d="m142.68 427.34s-37.37 27.88-14.85 36.94 14.85-36.94 14.85-36.94" fill="#9fc4b7"/></g>
  <g id="change1_6"><path d="m313.74 400.59s-37.37 27.88-14.85 36.93c22.52 9.06 14.85-36.93 14.85-36.93" fill="#9fc4b7"/></g>
  <g id="change1_7"><path d="m131.02 318.49s-37.372 27.88-14.85 36.94c22.52 9.05 14.85-36.94 14.85-36.94" fill="#9fc4b7"/></g>
  <g id="change1_8"><path d="m101.39 266.19s-37.374 27.87-14.855 36.93c22.525 9.06 14.855-36.93 14.855-36.93" fill="#9fc4b7"/></g>
  <g id="change1_9"><path d="m245.81 318.49s-37.37 27.88-14.85 36.94c22.52 9.05 14.85-36.94 14.85-36.94" fill="#9fc4b7"/></g>
  <g id="change1_10"><path d="m318.38 309.38s-37.37 27.88-14.85 36.94c22.52 9.05 14.85-36.94 14.85-36.94" fill="#9fc4b7"/></g>
  <g id="change1_11"><path d="m277.96 356.61s-37.37 27.87-14.85 36.93 14.85-36.93 14.85-36.93" fill="#9fc4b7"/></g>
  <g id="change1_12"><path d="m357.96 342.32s-37.37 27.87-14.85 36.93 14.85-36.93 14.85-36.93" fill="#9fc4b7"/></g>
 </g>
</svg>