<?xml version="1.0" encoding="iso-8859-1"?>
<!-- Generator: Adobe Illustrator 16.0.0, SVG Export Plug-In . SVG Version: 6.00 Build 0)  -->
<!DOCTYPE svg PUBLIC "-//W3C//DTD SVG 1.1//EN" "http://www.w3.org/Graphics/SVG/1.1/DTD/svg11.dtd">
<svg version="1.1" id="Layer_1" xmlns="http://www.w3.org/2000/svg" xmlns:xlink="http://www.w3.org/1999/xlink" x="0px" y="0px"
	 width="389.675px" height="485.615px" viewBox="0 0 389.675 485.615" style="enable-background:new 0 0 389.675 485.615;"
	 xml:space="preserve">
<g id="change1">
	<g>
		<g>
			<path style="fill:#808285;" d="M166.019,0c12.789,0,25.583,0,38.376,0c2.75,0.59,5.481,1.441,8.269,1.732
				c45.258,4.698,87.385,18.247,123.854,46.061c24.125,18.393,43.447,40.561,47.451,72.457c0.758,5.986,1.795,11.938,2.709,17.898
				c0,10.235,0,20.474,0,30.708c-0.539,1.815-1.379,3.605-1.586,5.462c-2.086,18.123-7.752,34.144-24.533,44.158
				c-2.342,1.404-4.867,3.834-5.646,6.31c-5.15,16.262-12.928,32.511-13.773,49.076c-0.799,15.584,5.352,31.685,9.494,47.285
				c1.754,6.588,0.186,9.928-5.023,13.439c-10.469,7.062-20.422,6.298-31.471,0.864c-13.54-6.681-25.338,0.333-36.485,7.344
				c-8.59,5.417-9.495,13.159-6.479,22.613c2.027,6.362-4.817,13.897-11.82,14.743c-8.166,0.99-9.421-4.824-10.428-10.717
				c-0.416-2.5,0.176-5.283-0.663-7.584c-0.882-2.434-2.899-4.453-4.421-6.646c-2.002,1.812-5.282,3.349-5.748,5.491
				c-1.139,5.209-0.467,10.8-1.494,16.041c-0.748,3.723-2.436,9.396-4.887,10.103c-2.933,0.854-7.353-2.31-10.717-4.386
				c-2.767-1.712-4.935-4.387-8.05-7.262c-0.457,2.334-0.848,3.224-0.772,4.097c0.683,8.267-5.564,9.097-11.187,10.108
				c-6.293,1.146-7.705-2.873-9.009-8.225c-1.591-6.547-4.748-12.719-7.231-19.041c-2.359,5.311-2.359,10.436-3.485,15.305
				c-0.798,3.438-2.289,7.758-4.927,9.545c-7.892,5.342-14.384,0.341-14.75-10.344c-0.096-2.75-1.965-5.449-3.016-8.176
				c-1.757,1.846-4.353,3.406-5.092,5.583c-1.641,4.886-2.364,10.068-3.46,15.138c-5.151-2.252-10.106-5.408-15.489-6.539
				c-7.664-1.619-7.34-5.582-4.977-11.072c2.775-6.479,2.763-12.637-3.207-18.792c-2.961,4.646-4.345,9.688-6.285,14.505
				c-0.797,1.984-3.323,5.167-4.129,4.9c-2.671-0.862-5.699-2.574-7.069-4.867c-1.022-1.711-0.195-5.025,0.686-7.276
				c2.509-6.414,0.332-11.166-4.495-15.253c-9.965-8.424-33.358-10.418-45.088-3.871c-12.989,7.244-31.706,2.359-33.413-9.62
				c-1.312-9.196-0.582-18.958,0.91-28.212c1.35-8.391,4.897-16.434,7.581-24.605c7.281-22.197-1.944-40.263-14.106-57.757
				c-3.88-5.566-8.382-11.373-9.978-17.724c-4.108-16.299-6.733-32.972-9.956-49.5c0-9.595,0-19.187,0-28.777
				c2.766-9.038,4.527-18.542,8.457-27.041C30.79,51.598,67.779,23.751,115.634,9.895C132.004,5.151,149.2,3.215,166.019,0z
				 M99.214,188.305c-3.178,0-4.772-0.017-6.372,0c-19.515,0.229-31.564,9.275-35.585,26.721
				c-4.142,17.948,4.266,37.354,20.357,44.217c25.138,10.717,63.29,8.922,84.47-20.188c8.544-11.742,8.075-19.377-2.978-28.872
				C141.449,195.017,121.067,187.32,99.214,188.305z M281.479,188.313c-23.021-1.341-43.838,6.862-61.642,22.958
				c-9.735,8.806-10.211,16.137-2.602,26.75c21.209,29.546,58.393,32.486,85.85,20.765c12.344-5.275,18.709-16.096,20.096-29.317
				C325.443,207.977,315.298,186.124,281.479,188.313z M160.735,300.754c3.244,1.878,7.344,5.957,9.399,5.108
				c4.844-2.01,9.558-5.731,12.773-9.928c6.056-7.935,14.637-8.438,20.025-0.189c0.862,1.329,1.146,3.622,2.274,4.087
				c4.854,2.019,10.625,5.89,14.754,4.669c6.646-1.961,3.664-8.523,1.33-12.91c-5.98-11.23-12.312-22.297-18.773-33.255
				c-5.362-9.092-13.865-9.208-19.298-0.174c-6.559,10.907-12.71,22.048-18.908,33.172
				C163.103,293.502,162.513,296.011,160.735,300.754z"/>
		</g>
		<g>
			<path style="fill:#808285;" d="M181.367,481.615c-24.096-15.336-50.456-24.731-78.161-31.211
				c-4.881-1.141-8.702-7.221-12.76-11.267c-0.963-0.972-1.084-2.958-1.263-4.511c-2.571-22.431-5.146-44.858-7.556-67.31
				c-0.444-4.11-0.635-8.373-0.042-12.428c0.403-2.758,2.396-5.283,3.68-7.908c2.401,1.787,5.616,3.106,7.012,5.482
				c2.214,3.756,3.456,8.158,4.635,12.428c1.014,3.655,1.176,7.562,2.048,11.282c2.488,10.634,10.16,15.81,20.856,15.302
				c6.563-0.321,14.143-0.979,14.131,9.495c0,1.312,2.775,3.633,4.333,3.697c2.027,0.066,5.221-1.097,5.994-2.675
				c3.581-7.294,7.228-5.933,12.714-1.886c2.131,1.568,8.075,1.296,9.786-0.509c6.048-6.363,11.215-4.885,16.428,0.226
				c3.73,3.664,6.766,5.408,11.148,0.646c0.893-0.972,5.662-0.023,7.151,1.487c4.403,4.485,8.043,4.71,11.356-0.623
				c4.212-6.754,8.415-4.628,13.375-0.89c2.999,2.26,6.737,3.562,10.427,5.439c5.282-18.741,7.178-19.763,23.312-12.276
				c7.477,3.473,11.819,0.931,13.788-6.205c2.193-7.969,3.217-16.274,5.566-24.184c1.346-4.479,4.328-8.481,6.571-12.693
				c1.181,0.125,2.367,0.258,3.547,0.391c1.13,4.253,2.94,8.439,3.272,12.762c1.463,18.709,2.459,37.448,3.688,56.175
				c0.613,9.568-6.911,13.855-13.426,15.109c-16.457,3.166-25.237,14.63-34.728,26.426c-3.729,4.638-9.942,7.71-15.584,10.271
				c-8.539,3.88-17.553,6.688-26.367,9.952C197.989,481.615,189.687,481.615,181.367,481.615z"/>
		</g>
	</g>
</g>
</svg>
