<?xml version="1.0" encoding="UTF-8"?><svg xmlns="http://www.w3.org/2000/svg" xmlns:xlink="http://www.w3.org/1999/xlink" height="236.3" preserveAspectRatio="xMidYMid meet" version="1.0" viewBox="76.2 97.7 273.0 236.3" width="273.0" zoomAndPan="magnify"><g id="change1_1"><path d="M302.504,170.798c-9.625,5.072-14.006,16.433-16.144,27.1c-2.138,10.668-2.967,21.981-8.632,31.269 c-7.993,13.106-24.127,19.267-39.463,19.946c-5.422,0.24-10.995-0.066-16.122,1.714c-8.499,2.951-14.015,10.908-20.493,17.151 c-10.491,10.11-24.268,16.148-38.234,20.299c-13.966,4.151-28.389,6.614-42.363,10.738c-5.655,1.669-11.939,4.284-13.82,9.872 c-2.229,6.62,3.152,13.486,9.186,17.003c12.938,7.54,28.919,6.414,43.884,5.877c37.038-1.327,75.312,2.197,110.119-10.534 c12.202-4.463,23.618-10.822,34.756-17.512c7.068-4.245,14.174-8.742,19.472-15.059c9.339-11.134,11.861-26.407,12.591-40.921 c1.143-22.719,3.568-51.897-8.165-67.335C317.343,164.967,302.504,170.798,302.504,170.798z" fill="#c3b7db"/></g><g id="change2_1"><path d="M317.454,175.598c-0.679,0-1.287-0.476-1.429-1.167c-3.708-18.097,0.821-37.628,12.117-52.246 c0.493-0.638,1.411-0.754,2.048-0.263c0.638,0.493,0.755,1.41,0.263,2.048c-10.784,13.954-15.108,32.599-11.567,49.875 c0.162,0.79-0.347,1.561-1.137,1.723C317.65,175.588,317.551,175.598,317.454,175.598z" fill="#524797"/></g><g id="change2_2"><path d="M301.982,177.459c-0.695,0-1.311-0.498-1.436-1.207c-3.205-18.186-14.689-34.514-30.722-43.677 c-0.7-0.4-0.943-1.292-0.543-1.992c0.4-0.699,1.292-0.943,1.992-0.543c16.776,9.589,28.794,26.675,32.147,45.705 c0.14,0.794-0.39,1.551-1.184,1.691C302.152,177.452,302.067,177.459,301.982,177.459z" fill="#524797"/></g><g id="change3_1"><path d="M333.571,99.133c-6.507,0.94-11.512,7.693-10.732,14.221c0.781,6.528,7.034,11.858,13.608,11.815 c1.412-0.009,2.839-0.24,4.122-0.829c3.278-1.507,5.098-5.068,6.067-8.542c0.923-3.306,1.278-6.93-0.018-10.108 s-4.609-5.544-8.041-5.544L333.571,99.133z" fill="#e2d2cf"/></g><g id="change2_3"><path d="M336.37,126.629c-7.28,0-14.128-5.98-14.98-13.102c-0.884-7.388,4.71-14.79,11.972-15.839 c0.166-0.024,0.335-0.019,0.498,0.014l4.869,0.984c3.927,0.066,7.71,2.701,9.241,6.452c1.244,3.05,1.269,6.768,0.073,11.052 c-1.323,4.744-3.697,8.021-6.864,9.477c-1.365,0.627-2.954,0.951-4.722,0.962C336.428,126.629,336.398,126.629,336.37,126.629 z M333.539,100.616c-5.545,0.951-9.931,6.869-9.25,12.564c0.684,5.722,6.207,10.528,12.078,10.529c0.023,0,0.046,0,0.07,0 c1.352-0.009,2.537-0.243,3.522-0.696c2.985-1.372,4.514-4.895,5.271-7.608c1.018-3.646,1.03-6.729,0.037-9.165 c-1.096-2.686-3.91-4.636-6.69-4.636c-0.097,0-0.194-0.01-0.289-0.029L333.539,100.616z" fill="#524797"/></g><g id="change3_2"><path d="M259.382,110.06c-6.507,0.94-11.512,7.693-10.732,14.221c0.781,6.528,7.034,11.858,13.608,11.815 c1.412-0.009,2.839-0.24,4.122-0.829c3.278-1.507,5.098-5.068,6.067-8.542c0.923-3.306,1.278-6.93-0.018-10.108 c-1.296-3.178-4.609-5.544-8.041-5.544L259.382,110.06z" fill="#e2d2cf"/></g><g id="change2_4"><path d="M262.181,137.555c-7.28,0-14.128-5.98-14.98-13.101c-0.883-7.388,4.711-14.79,11.972-15.839 c0.166-0.024,0.335-0.019,0.498,0.014l4.87,0.984c3.926,0.066,7.71,2.701,9.24,6.452c1.244,3.049,1.269,6.768,0.073,11.052 c-1.324,4.744-3.698,8.021-6.864,9.476c-1.364,0.627-2.953,0.951-4.722,0.963C262.239,137.555,262.21,137.555,262.181,137.555 z M259.35,111.542c-5.545,0.951-9.931,6.869-9.25,12.565c0.684,5.722,6.207,10.528,12.079,10.528c0.023,0,0.046,0,0.07,0 c1.352-0.009,2.537-0.243,3.522-0.696c2.984-1.372,4.514-4.895,5.271-7.608c1.017-3.646,1.029-6.729,0.036-9.165 c-1.096-2.686-3.909-4.636-6.689-4.636c-0.097,0-0.194-0.01-0.289-0.029L259.35,111.542z" fill="#524797"/></g><g id="change2_5"><path d="M261.242,126.359c-0.188,0-0.379-0.026-0.568-0.078c-0.679-0.188-1.229-0.685-1.474-1.329 c-0.317-0.833-0.134-1.798,0.492-2.577c0.504-0.628,1.424-0.729,2.052-0.224c0.196,0.157,0.34,0.354,0.431,0.57 c0.33,0.183,0.608,0.471,0.788,0.841c0.41,0.845,0.205,1.822-0.499,2.376C262.112,126.215,261.686,126.359,261.242,126.359z" fill="#524797"/></g><g id="change2_6"><path d="M335.605,114.297c-0.611,0-1.217-0.259-1.627-0.748c-0.679-0.812-0.638-2.047,0.094-2.811 c0.544-0.569,1.438-0.602,2.022-0.084c0.157,0.064,0.31,0.149,0.453,0.253c0.739,0.534,1.06,1.446,0.799,2.269 c-0.1,0.317-0.306,0.591-0.583,0.775C336.412,114.185,336.007,114.297,335.605,114.297z" fill="#524797"/></g><g id="change4_1"><path d="M235.808,254.77c1.015,6.298-1.291,12.675-4.345,18.275c-7.464,13.686-19.757,24.674-34.191,30.562 c-14.434,5.888-30.906,6.634-45.813,2.074c-13.375-4.091-32.566-6.665-42.608-16.4c-21.915-21.246-32.627-57.196-30.943-87.673 s20.707-66.851,48.994-78.319c27.314-11.073,64.531-14.819,88.189-5.006c34.798,14.434,59.636,51.545,67.044,88.482 c1.533,7.643-3.293,23.647-7.544,30.181c-2.276,3.497-6.775,11.053-10.224,13.4c-7.842,5.336-14.731,7.739-24.217,7.739 L235.808,254.77z" fill="#e48764"/></g><g id="change2_7"><path d="M234.535,255.883c-0.746,0-1.382-0.568-1.452-1.326c-0.964-10.435-3.264-20.723-6.833-30.577 c-5.144-14.2-11.955-23.92-20.822-29.717c-12.29-8.034-29.727-8.128-43.388-0.232c-4.269,2.467-7.755,5.396-10.361,8.706 c-6.571,8.346-8.051,20.63-3.683,30.566c4.289,9.757,14.033,17.104,24.823,18.716c6.418,0.961,14.47-0.764,16.976-6.815 c0.309-0.745,1.165-1.099,1.907-0.79c0.745,0.309,1.099,1.163,0.79,1.907c-3.105,7.499-12.596,9.709-20.105,8.586 c-11.758-1.757-22.382-9.775-27.064-20.429c-4.79-10.896-3.157-24.378,4.062-33.547c2.836-3.603,6.603-6.775,11.194-9.428 c14.592-8.432,33.258-8.305,46.447,0.317c9.416,6.155,16.602,16.35,21.969,31.167c3.655,10.088,6.008,20.62,6.996,31.303 c0.074,0.803-0.517,1.514-1.319,1.588C234.626,255.881,234.58,255.883,234.535,255.883z" fill="#524797"/></g><g id="change2_8"><path d="M168.654,121.86c-0.374,0-0.747-0.143-1.032-0.428l-0.579-0.579c-0.57-0.57-0.57-1.495,0-2.064 c0.57-0.57,1.494-0.57,2.064,0l0.579,0.579c0.57,0.57,0.57,1.495,0,2.064C169.402,121.718,169.028,121.86,168.654,121.86z" fill="#524797"/></g><g id="change2_9"><path d="M150.134,129.963c-0.535,0-1.051-0.295-1.307-0.807l-0.579-1.157c-0.361-0.721-0.069-1.598,0.652-1.958 c0.72-0.362,1.598-0.07,1.958,0.652l0.58,1.158c0.361,0.721,0.068,1.598-0.653,1.958 C150.577,129.914,150.354,129.963,150.134,129.963z" fill="#524797"/></g><g id="change2_10"><path d="M121.774,147.327c-0.536,0-1.051-0.296-1.307-0.808l-0.578-1.156c-0.361-0.721-0.07-1.598,0.651-1.959 c0.719-0.36,1.598-0.07,1.959,0.651l0.58,1.16c0.36,0.722,0.067,1.598-0.654,1.958 C122.216,147.278,121.993,147.327,121.774,147.327z" fill="#524797"/></g><g id="change2_11"><path d="M104.988,172.215c-0.806,0-1.46-0.654-1.46-1.46v-0.579c0-0.806,0.654-1.46,1.46-1.46 s1.46,0.654,1.46,1.46v0.579C106.448,171.561,105.795,172.215,104.988,172.215z" fill="#524797"/></g><g id="change2_12"><path d="M96.278,214.509c-0.262,0-0.527-0.07-0.767-0.218l-1.773-1.096c-0.686-0.424-0.898-1.323-0.475-2.009 c0.424-0.686,1.324-0.899,2.009-0.475l1.775,1.097c0.686,0.424,0.897,1.324,0.474,2.01 C97.245,214.264,96.767,214.509,96.278,214.509z" fill="#524797"/></g><g id="change2_13"><path d="M94.57,246.877h-0.579c-0.806,0-1.46-0.654-1.46-1.46s0.654-1.46,1.46-1.46h0.579 c0.806,0,1.46,0.654,1.46,1.46S95.376,246.877,94.57,246.877z" fill="#524797"/></g><g id="change2_14"><path d="M110.776,209.835c-0.806,0-1.46-0.654-1.46-1.46v-0.579c0-0.806,0.654-1.46,1.46-1.46 s1.46,0.654,1.46,1.46v0.579C112.236,209.182,111.582,209.835,110.776,209.835z" fill="#524797"/></g><g id="change2_15"><path d="M86.467,195.366H85.31c-0.806,0-1.46-0.654-1.46-1.46s0.654-1.46,1.46-1.46h1.158 c0.806,0,1.46,0.654,1.46,1.46S87.274,195.366,86.467,195.366z" fill="#524797"/></g><g id="change2_16"><path d="M102.673,157.166c-0.374,0-0.747-0.143-1.032-0.428l-0.579-0.579c-0.57-0.57-0.57-1.495,0-2.064 c0.57-0.57,1.494-0.57,2.064,0l0.579,0.579c0.57,0.57,0.57,1.495,0,2.064C103.42,157.023,103.047,157.166,102.673,157.166z" fill="#524797"/></g><g id="change2_17"><path d="M126.982,165.269h-0.579c-0.806,0-1.46-0.654-1.46-1.46s0.654-1.46,1.46-1.46h0.579 c0.806,0,1.46,0.654,1.46,1.46S127.788,165.269,126.982,165.269z" fill="#524797"/></g><g id="change2_18"><path d="M109.04,189c-0.374,0-0.749-0.143-1.034-0.429l-0.577-0.578c-0.57-0.57-0.57-1.495,0-2.064 c0.57-0.57,1.494-0.57,2.064,0l0.58,0.581c0.569,0.571,0.568,1.495-0.003,2.064C109.786,188.857,109.413,189,109.04,189z" fill="#524797"/></g><g id="change2_19"><path d="M133.349,134.594c-0.374,0-0.747-0.143-1.032-0.428l-0.579-0.579c-0.57-0.57-0.57-1.495,0-2.064 c0.57-0.57,1.494-0.57,2.064,0l0.579,0.579c0.57,0.57,0.57,1.495,0,2.064C134.096,134.451,133.722,134.594,133.349,134.594z" fill="#524797"/></g><g id="change2_20"><path d="M163.35,133.531c-0.374,0-0.747-0.143-1.032-0.428l-1.158-1.158c-0.57-0.571-0.569-1.495,0.001-2.064 c0.571-0.569,1.496-0.569,2.064,0.001l1.157,1.157c0.57,0.57,0.57,1.495,0,2.064 C164.097,133.389,163.723,133.531,163.35,133.531z" fill="#524797"/></g><g id="change2_21"><path d="M147.819,153.115c-0.535,0-1.051-0.295-1.307-0.807l-0.579-1.158c-0.36-0.722-0.067-1.598,0.654-1.958 s1.598-0.067,1.958,0.654l0.578,1.157c0.361,0.721,0.068,1.598-0.653,1.958C148.261,153.065,148.039,153.115,147.819,153.115z" fill="#524797"/></g><g id="change2_22"><path d="M188.912,127.648c-0.806,0-1.46-0.654-1.46-1.46v-0.579c0-0.806,0.654-1.46,1.46-1.46 s1.46,0.654,1.46,1.46v0.579C190.372,126.995,189.718,127.648,188.912,127.648z" fill="#524797"/></g><g id="change2_23"><path d="M177.336,138.645h-1.158c-0.806,0-1.46-0.654-1.46-1.46s0.654-1.46,1.46-1.46h1.158 c0.806,0,1.46,0.654,1.46,1.46S178.142,138.645,177.336,138.645z" fill="#524797"/></g><g id="change2_24"><path d="M208.012,126.491h-1.158c-0.806,0-1.46-0.654-1.46-1.46s0.654-1.46,1.46-1.46h1.158 c0.806,0,1.46,0.654,1.46,1.46S208.818,126.491,208.012,126.491z" fill="#524797"/></g><g id="change2_25"><path d="M189.49,121.86c-0.806,0-1.46-0.654-1.46-1.46v-0.579c0-0.806,0.654-1.46,1.46-1.46s1.46,0.654,1.46,1.46 v0.579C190.95,121.207,190.297,121.86,189.49,121.86z" fill="#524797"/></g><g id="change2_26"><path d="M105.567,267.714h-0.579c-0.806,0-1.46-0.654-1.46-1.46s0.654-1.46,1.46-1.46h0.579 c0.806,0,1.46,0.654,1.46,1.46S106.373,267.714,105.567,267.714z" fill="#524797"/></g><g id="change2_27"><path d="M84.731,230.672c-0.374,0-0.749-0.143-1.034-0.429c-0.569-0.571-0.568-1.495,0.003-2.064l0.578-0.578 c0.57-0.57,1.494-0.57,2.064,0c0.57,0.57,0.57,1.495,0,2.064l-0.581,0.581C85.477,230.53,85.104,230.672,84.731,230.672z" fill="#524797"/></g><g id="change2_28"><path d="M102.674,230.093c-0.535,0-1.051-0.295-1.307-0.807l-0.579-1.157c-0.361-0.721-0.068-1.598,0.653-1.958 c0.72-0.36,1.598-0.069,1.958,0.653l0.579,1.157c0.361,0.721,0.068,1.598-0.653,1.958 C103.116,230.043,102.894,230.093,102.674,230.093z" fill="#524797"/></g><g id="change2_29"><path d="M98.043,193.051h-0.579c-0.806,0-1.46-0.654-1.46-1.46s0.654-1.46,1.46-1.46h0.579 c0.806,0,1.46,0.654,1.46,1.46S98.849,193.051,98.043,193.051z" fill="#524797"/></g><g id="change2_30"><path d="M157.657,233.565c-0.374,0-0.747-0.143-1.032-0.428l-0.579-0.579c-0.57-0.57-0.57-1.495,0-2.064 c0.57-0.57,1.494-0.57,2.064,0l0.579,0.579c0.57,0.57,0.57,1.495,0,2.064C158.404,233.423,158.031,233.565,157.657,233.565z" fill="#524797"/></g><g id="change2_31"><path d="M152.448,216.202c-0.374,0-0.747-0.143-1.032-0.428l-0.579-0.579c-0.57-0.57-0.57-1.495,0-2.064 c0.57-0.57,1.494-0.57,2.064,0l0.579,0.579c0.57,0.57,0.57,1.495,0,2.064C153.195,216.06,152.822,216.202,152.448,216.202z" fill="#524797"/></g><g id="change2_32"><path d="M174.442,236.459h-1.157c-0.806,0-1.46-0.654-1.46-1.46s0.654-1.46,1.46-1.46h1.157 c0.806,0,1.46,0.654,1.46,1.46S175.248,236.459,174.442,236.459z" fill="#524797"/></g><g id="change2_33"><path d="M167.497,243.405h-0.579c-0.806,0-1.46-0.654-1.46-1.46s0.654-1.46,1.46-1.46h0.579 c0.806,0,1.46,0.654,1.46,1.46S168.303,243.405,167.497,243.405z" fill="#524797"/></g><g id="change2_34"><path d="M168.076,221.411c-0.373,0-0.746-0.142-1.031-0.426l-0.581-0.58c-0.57-0.57-0.57-1.495,0-2.064 c0.57-0.57,1.494-0.57,2.064,0l0.578,0.577c0.571,0.569,0.572,1.494,0.003,2.064 C168.824,221.268,168.45,221.411,168.076,221.411z" fill="#524797"/></g><g id="change2_35"><path d="M161.13,225.463h-1.157c-0.806,0-1.46-0.654-1.46-1.46s0.654-1.46,1.46-1.46h1.157 c0.806,0,1.46,0.654,1.46,1.46S161.936,225.463,161.13,225.463z" fill="#524797"/></g><g id="change2_36"><path d="M163.445,201.732c-0.374,0-0.747-0.143-1.032-0.428l-0.578-0.577c-0.571-0.569-0.572-1.494-0.003-2.064 c0.57-0.571,1.495-0.572,2.064-0.003l0.581,0.58c0.57,0.57,0.57,1.495,0,2.064C164.193,201.59,163.819,201.732,163.445,201.732 z" fill="#524797"/></g><g id="change2_37"><path d="M182.444,211.672c-0.376,0-0.753-0.145-1.039-0.434l-1.15-1.165c-0.567-0.574-0.561-1.498,0.013-2.064 c0.574-0.567,1.499-0.561,2.064,0.013l1.15,1.165c0.567,0.574,0.561,1.498-0.013,2.064 C183.185,211.532,182.815,211.672,182.444,211.672z" fill="#524797"/></g><g id="change2_38"><path d="M177.915,223.147c-0.373,0-0.746-0.142-1.031-0.426l-0.581-0.58c-0.57-0.57-0.57-1.495,0-2.064 c0.57-0.57,1.494-0.57,2.064,0l0.578,0.577c0.571,0.569,0.572,1.494,0.003,2.064 C178.664,223.004,178.289,223.147,177.915,223.147z" fill="#524797"/></g><g id="change2_39"><path d="M161.076,212.757c-0.531,0-1.044-0.291-1.302-0.797l-0.588-1.154c-0.366-0.719-0.08-1.598,0.639-1.963 c0.717-0.365,1.598-0.079,1.963,0.639l0.587,1.153c0.366,0.718,0.081,1.597-0.638,1.963 C161.526,212.706,161.299,212.757,161.076,212.757z" fill="#524797"/></g><g id="change2_40"><path d="M177.336,199.417c-0.806,0-1.46-0.654-1.46-1.46V196.8c0-0.806,0.654-1.46,1.46-1.46s1.46,0.654,1.46,1.46 v1.158C178.796,198.764,178.142,199.417,177.336,199.417z" fill="#524797"/></g><g id="change2_41"><path d="M173.285,211.572c-0.806,0-1.46-0.654-1.46-1.46v-0.579c0-0.806,0.654-1.46,1.46-1.46 s1.46,0.654,1.46,1.46v0.579C174.745,210.918,174.091,211.572,173.285,211.572z" fill="#524797"/></g><g id="change2_42"><path d="M191.227,215.624c-0.806,0-1.46-0.654-1.46-1.46v-0.579c0-0.806,0.654-1.46,1.46-1.46 s1.46,0.654,1.46,1.46v0.579C192.687,214.97,192.033,215.624,191.227,215.624z" fill="#524797"/></g><g id="change2_44"><path d="M188.333,199.417h-1.158c-0.806,0-1.46-0.654-1.46-1.46s0.654-1.46,1.46-1.46h1.158 c0.806,0,1.46,0.654,1.46,1.46S189.139,199.417,188.333,199.417z" fill="#524797"/></g><g id="change2_43"><path d="M201.656,202.855c-0.132,0-0.266-0.018-0.399-0.056c-0.602-0.171-1.118-0.599-1.417-1.175 c-0.298-0.576-0.349-1.245-0.141-1.835c0.268-0.759,1.101-1.159,1.863-0.89c0.584,0.206,0.955,0.747,0.973,1.331 c0.466,0.353,0.693,0.967,0.524,1.563C202.877,202.436,202.292,202.855,201.656,202.855z" fill="#524797"/></g></svg>