<?xml version="1.0" encoding="UTF-8"?><svg xmlns="http://www.w3.org/2000/svg" xmlns:xlink="http://www.w3.org/1999/xlink" height="507.8" preserveAspectRatio="xMidYMid meet" version="1.1" viewBox="-1.4 -1.3 403.4 507.8" width="403.4" zoomAndPan="magnify">
 <g id="change1_1">
  <path d="m48.578 20.246c-3.301 1.801-7.101 2.402-10.703 1.5-5.898-1.398-14.699-2.797-17.598 0-4.5 4.5 0.7 16.5-3.699 24-4.402 7.5-13.5 6-14.301 17.301-0.8004 11.301-0.6989 21.699-2.1989 30-1.5 8.303 19.5 12.003 19.5 18.703s3.699 21.7 9 20.2c5.199-1.5 21.699-16.5 33-19.5 11.297-3 20.199 1.5 21 9.7 0.699 8.2 5.199 10.5 16.5 14.2 11.202 3.7 12.702 18 12.702 32.2s8.2 30 12 41.2 4.5 17.2 9 20.2 17.2 10.8 26.2 25 29.2 28.5 29.2 35.2 7.5 5.2 6 10.5c-1.5 5.2 12.7 0 12.7 4.5s6.69 12.7 12.69 12.7 5.21 4.5 6.71 8.2 5.2 3 6 9c0.7 6 3 17.2 15 18.7s14.2-0.7 15 16.5c0.7 17.2 18.7 9 24 21 5.2 12 0.7 23.2 3.7 31.5 3 8.2-3 18 3 24s12.7 9.7 8.2 16.5-9.7-3.7-15.7 2.2c-6 6 2.2 13.2-4.5 14.7s-13.1 8.4-7.8 17.4c5.2 9 17.6-15.6 25.8-14.8 8.2 0.7 9-1.5 10.5-10.5s-1.5-15.7 8.2-15 14.2-3.7 18-5.2c2.39-1 3.3-9.2 3.6-14.8 0.2-3.4-1.1-6.7-3.5-9.1l-12.21-12.4c-3.89-4-4.59-10.1-1.69-14.8l9-14.3c2.19-3.5 6-5.6 10.1-5.6 9.9-0.1 27.8 0.4 31 5.2 4.5 6.7 9.7 5.2 9 12.7s12 5.2 10.5 14.2 10.5-2.2 10.5-7.5-8.2-12.7-7.5-20.2-10.5-18.7-10.5-18.7-23.2-12-40.5-25.5-22.5-18.7-33-22.5c-10.5-3.7-3.7-11.2 2.2-15 1.2-0.7 2.39-1.5 3.5-2.3 2.39-1.6 1-5.3-1.9-4.9-8.21 1-19 1.6-24.9-1-10.5-4.5-45-45.7-45.7-52.5-0.7-6.7-6.7-19.5-2.2-24s-3-27-13.5-32.2-9.7-20.2-17.2-26.2-20.2-24-18-33 12.7-6.7 15-12.7c2.29-6-10.5-9-9-17.204 1.5-8.199 3.7-21.699 13.5-18 9.7 3.703 21.7 0.703 31.5-3 9.7-3.699 17.2-13.5 19.5-22.5 2.29-9 3.7-19.5 3.7-19.5s-9 1.5-21 0-6-19.5-21-24c-15-4.4999-34.5-5.1991-37.5-0.699-3 4.5-10.5-6.6993-12-9.0001s-7.5-0.69924-8.2 3.6992c-0.7 4.5 2.2 9.7029-3.7 11.203-6 1.5-11.2 3.699-12 9.699-0.7 6 1.5 11.2-5.2 12-6.7 0.7-2.2-10.5-10.5-11.199-8.3-0.703-17.2-11.203-23.2-7.5-6 3.699 0.7 13.5-8.2 15-9.003 1.5-14.605-18.203-22.503-21-10.899-3.9021-25.7 3-33.399 7.297" fill="#fad619"/>
 </g>
</svg>