<?xml version="1.0" encoding="iso-8859-1"?>
<!-- Generator: Adobe Illustrator 16.0.0, SVG Export Plug-In . SVG Version: 6.00 Build 0)  -->
<!DOCTYPE svg PUBLIC "-//W3C//DTD SVG 1.1//EN" "http://www.w3.org/Graphics/SVG/1.1/DTD/svg11.dtd">
<svg version="1.1" id="Layer_1" xmlns="http://www.w3.org/2000/svg" xmlns:xlink="http://www.w3.org/1999/xlink" x="0px" y="0px"
	 width="88.462px" height="85.661px" viewBox="0 0 88.462 85.661" style="enable-background:new 0 0 88.462 85.661;"
	 xml:space="preserve">
<g id="change1">
	<path style="fill:#E05A47;" d="M44.271,0.218C44.26,0.148,44.247,0.073,44.233,0c-3.237,0.392-6.519,0.573-9.708,1.209
		C23.731,3.357,14.589,8.45,7.774,17.217C0.857,26.118-1.532,36.177,0.96,47.232c1.709,7.578,5.715,13.871,11.434,19.069
		c0.806,0.732,0.912,1.385,0.627,2.357c-1.129,3.827-3.44,6.846-6.337,9.48c-1.707,1.55-3.5,3.015-5.14,4.631
		c-1.327,1.31-1.11,1.887,0.658,2.329c4.018,1,8.011,0.517,11.974-0.305c6.922-1.429,13.451-4.006,19.856-6.932
		c0.518-0.239,1.19-0.357,1.747-0.264c6.352,1.052,12.688,0.978,18.969-0.422c11.127-2.484,20.387-7.979,27.058-17.375
		c5.616-7.903,7.736-16.739,6.14-26.319c-1.61-9.629-6.641-17.295-14.229-23.287C65.1,3.399,55.168,0.338,44.271,0.218z"/>
	<g>
		<g id="XMLID_1_">
			<g>
				<path style="fill:#E05A47;" d="M87.941,33.484c1.601,9.58-0.52,18.419-6.14,26.32c-6.67,9.39-15.93,14.89-27.05,17.37
					c-6.28,1.4-12.62,1.479-18.97,0.43c-0.56-0.1-1.23,0.021-1.75,0.261c-6.4,2.93-12.93,5.5-19.86,6.93
					c-3.96,0.82-7.95,1.31-11.97,0.31c-1.77-0.45-1.98-1.02-0.66-2.33c1.64-1.62,3.43-3.08,5.14-4.63c2.9-2.64,5.21-5.66,6.34-9.479
					c0.28-0.98,0.18-1.63-0.63-2.36c-5.72-5.2-9.72-11.49-11.43-19.07c-2.49-11.06-0.1-21.12,6.81-30.02
					c6.82-8.76,15.96-13.86,26.75-16c3.19-0.64,6.47-0.82,9.71-1.21c0.021,0.07,0.03,0.14,0.04,0.21
					c10.9,0.12,20.83,3.19,29.45,9.98C81.302,16.184,86.332,23.854,87.941,33.484z"/>
			</g>
			<g>
			</g>
		</g>
	</g>
</g>
</svg>
