<?xml version="1.0" encoding="UTF-8"?>
<svg xmlns="http://www.w3.org/2000/svg" height="384.08pt" version="1.1" viewBox="0 0 486.26 384.08" width="486.26pt">
  <g fill="#9dddc8" id="change1_1">
    <path d="m462.77 10.5l-42.39-1.6055c-72.26-5.2539-147.13 0-220.7 0-57.8 0-118.23 10.512-176.03 5.2575l-23.65-1.316v86.703c0 39.411 1.3125 77.511 1.3125 116.92 0 35.47 1.75 74.88 2.6289 109.03 53.86 3.94 114.29 1.31 168.15-1.31 48.61-3.94 95.9-5.26 144.51-6.57 49.92-1.31 107.72 3.94 156.32-6.57 2.63-38.09 1.32-78.82-2.62-118.23-3.27-39.19-0.87-79.28-5.19-119.53l-2.34-62.78" fill="#9dddc8"/>
    <path d="m46.816 301.61l47.77 80.01v-80.01h-47.77" fill="#9dddc8"/>
    <path d="m44.656 302.87c15.926 26.67 31.848 53.34 47.77 80.01 1.273 2.13 4.66 1.24 4.66-1.26v-80.01c0-1.37-1.137-2.5-2.5-2.5h-47.77c-3.222 0-3.222 5 0 5h47.77c-0.832-0.84-1.668-1.67-2.5-2.5v80.01c1.555-0.42 3.105-0.84 4.66-1.26-15.926-26.67-31.848-53.34-47.773-80.02-1.649-2.76-5.973-0.25-4.317 2.53" fill="#9dddc8"/>
    <path d="m46.816 336.24s0.645 0.61 1.707 1.72c1.063 1.11 2.559 2.72 4.262 4.71 3.457 3.94 7.746 9.43 11.781 15.1 4.032 5.68 7.805 11.53 10.391 16.09 1.32 2.27 2.344 4.21 3.043 5.58s1.059 2.18 1.059 2.18-0.645-0.61-1.707-1.72c-1.067-1.11-2.563-2.71-4.266-4.7-3.457-3.95-7.746-9.44-11.777-15.11-4.028-5.68-7.797-11.54-10.387-16.1-1.32-2.26-2.344-4.2-3.043-5.57s-1.063-2.18-1.063-2.18" fill="#9dddc8"/>
    <path d="m5.0195 0.65625s0.3907-0.01953 1.1289-0.05859c0.7383-0.02735 1.8204-0.10157 3.1954-0.13672 2.7502-0.07422 6.6792-0.26563 11.383-0.32422 2.355-0.04297 4.902-0.089845 7.593-0.082032 2.696-0.015626 5.535-0.03125 8.473-0.050782 2.937 0.011719 5.977-0.035156 9.059 0.023438 3.082 0.042968 6.218 0.085936 9.351 0.12891 3.129 0.07422 6.262 0.21094 9.344 0.23828 3.086 0.02344 6.121 0.16406 9.058 0.23828 2.938 0.06641 5.778 0.20703 8.469 0.32813 2.692 0.10546 5.238 0.25386 7.586 0.39846 4.703 0.2695 8.621 0.5859 11.36 0.832 2.75 0.2422 4.32 0.4258 4.32 0.4258s-1.57 0.164-4.32 0.3711c-2.743 0.2031-6.665 0.4648-11.372 0.6679-2.351 0.1094-4.902 0.2227-7.597 0.2891-2.699 0.082-5.543 0.1797-8.485 0.207-2.941 0.0313-5.984 0.1289-9.07 0.1055-3.09 0.0156-6.23-0.0664-9.367-0.1016-3.137-0.0937-6.274-0.1835-9.363-0.2734-3.09-0.0742-6.125-0.25-9.067-0.3672-2.937-0.1133-5.777-0.2773-8.472-0.4883-2.696-0.1757-5.239-0.4023-7.586-0.6054-2.352-0.1914-4.5-0.4141-6.407-0.6094-1.906-0.1719-3.566-0.3867-4.9293-0.5625-1.3633-0.1641-2.4375-0.33594-3.168-0.43359-0.7305-0.10547-1.1172-0.16016-1.1172-0.16016" fill="#9dddc8"/>
    <path d="m482.72 308.77s-0.03-1.39-0.08-3.82c-0.02-2.42-0.14-5.88-0.12-10.02-0.04-2.07-0.09-4.32-0.09-6.69 0-1.19 0-2.4-0.01-3.65-0.04-1.24-0.03-2.51-0.04-3.8-0.01-2.59-0.08-5.26-0.03-7.97 0-2.71-0.06-5.47-0.09-8.23 0.01-2.75 0.02-5.51 0.02-8.22-0.07-2.71-0.03-5.39-0.05-7.97s0.02-5.09 0.06-7.46c0.01-2.37 0.01-4.62 0.02-6.69 0.01-4.14 0.12-7.61 0.21-10.04 0.1-2.42 0.2-3.82 0.2-3.82s0.24 1.38 0.6 3.77c0.35 2.41 0.82 5.85 1.28 9.98 0.22 2.07 0.52 4.31 0.67 6.68 0.17 2.38 0.36 4.89 0.48 7.48 0.13 2.6 0.32 5.28 0.39 8.01 0.04 2.73 0.08 5.5 0.12 8.27-0.02 2.77-0.01 5.54-0.06 8.28-0.05 2.72-0.21 5.41-0.31 8.01-0.06 1.29-0.1 2.57-0.19 3.82-0.1 1.25-0.2 2.47-0.29 3.66-0.18 2.38-0.4 4.62-0.61 6.69-0.23 2.07-0.48 3.96-0.71 5.64-0.2 1.68-0.46 3.14-0.66 4.34-0.4 2.39-0.71 3.75-0.71 3.75" fill="#9dddc8"/>
  </g>
</svg>