<?xml version="1.0" encoding="UTF-8"?><svg xmlns="http://www.w3.org/2000/svg" height="265.95pt" version="1.1" viewBox="0 0 493.06 265.95" width="493.06pt">
 <g id="surface1">
  <g id="change1_1"><path d="m200.97 219c1.12 19 12.3 38.01 27.94 46.95 0-23.48 4.48-46.95 30.19-51.42 25.71-4.48 54.78 0 81.61-1.12 38-3.36 102.84 6.71 133.02-22.36 29.07-27.95 21.25-83.84 3.36-116.26-20.12-38.009-59.25-52.544-99.49-62.602-48.07-12.297-97.26-14.536-145.33-10.063-55.89 4.4727-120.73 2.2383-173.27 25.711-26.836 11.18-51.43 33.539-57.02 63.723-4.4683 25.711-2.2339 79.371 15.653 100.61 16.769 21.24 55.894 30.18 79.371 30.18 32.416 0 65.956 0 98.376-3.35h5.59" fill="#70b9c6"/></g>
  <g id="change1_2"><path d="m192.46 230.51s-1.3 0.37-3.6 0.89c-2.29 0.53-5.59 1.23-9.56 1.9-1.99 0.34-4.14 0.69-6.43 0.99-2.29 0.32-4.71 0.65-7.22 0.9-2.51 0.24-5.1 0.54-7.74 0.7-2.64 0.18-5.33 0.34-8.02 0.45-2.69 0.08-5.39 0.11-8.05 0.11-2.65 0.01-5.27-0.13-7.79-0.25-2.53-0.13-4.98-0.36-7.29-0.63-2.31-0.26-4.49-0.61-6.49-0.99-1-0.21-1.95-0.37-2.86-0.59-0.89-0.23-1.75-0.45-2.55-0.65-1.59-0.46-2.96-0.9-4.07-1.34-1.12-0.38-1.95-0.82-2.53-1.07-0.57-0.27-0.87-0.42-0.87-0.42s0.33 0.07 0.95 0.2c0.61 0.13 1.51 0.34 2.66 0.52 1.14 0.23 2.56 0.38 4.16 0.61 1.61 0.16 3.42 0.32 5.4 0.46 1.99 0.13 4.14 0.21 6.42 0.29 2.27 0.07 4.68 0.06 7.16 0.09 1.25-0.01 2.51-0.02 3.79-0.03 1.28-0.04 2.58-0.05 3.89-0.06 2.61-0.05 5.27-0.13 7.93-0.25 2.66-0.06 5.32-0.17 7.93-0.3 2.62-0.12 5.21-0.24 7.7-0.35 5-0.24 9.67-0.47 13.67-0.67 4.01-0.19 7.36-0.32 9.71-0.4 2.35-0.07 3.7-0.11 3.7-0.11" fill="#70b9c6"/></g>
  <g id="change1_3"><path d="m411.8 8.0977s0.42 0.0117 1.22 0.0351c0.79 0.0352 1.96 0.082 3.44 0.2266 1.48 0.1484 3.28 0.3281 5.33 0.664 2.05 0.3125 4.36 0.7188 6.86 1.2966 2.5 0.551 5.19 1.246 7.99 2.121 2.81 0.883 5.76 1.864 8.73 3.118 0.74 0.308 1.49 0.621 2.24 0.933 0.75 0.34 1.5 0.68 2.25 1.024 1.53 0.656 3 1.461 4.51 2.23 2.97 1.633 5.95 3.371 8.79 5.336l2.12 1.492 2.04 1.59c1.38 1.031 2.65 2.18 3.94 3.289 1.31 1.09 2.47 2.332 3.66 3.492 1.17 1.2 2.24 2.453 3.33 3.645 1.03 1.258 2.03 2.5 2.98 3.73 0.88 1.285 1.74 2.543 2.58 3.77 0.78 1.265 1.51 2.508 2.21 3.711 0.69 1.207 1.23 2.445 1.81 3.59 0.6 1.144 1.07 2.285 1.49 3.379 0.42 1.097 0.86 2.113 1.2 3.101 0.62 1.992 1.19 3.707 1.54 5.156 0.67 2.911 1 4.571 1 4.571s-0.67-1.575-1.75-4.313c-0.55-1.367-1.38-2.961-2.21-4.82-0.44-0.922-0.99-1.86-1.53-2.867-0.26-0.504-0.54-1.02-0.82-1.547-0.27-0.531-0.63-1.039-0.94-1.574-0.68-1.055-1.3-2.192-2.08-3.289-0.77-1.098-1.56-2.235-2.37-3.403-0.89-1.113-1.8-2.258-2.72-3.43-1.01-1.101-1.98-2.273-3.02-3.421-1.09-1.094-2.16-2.246-3.32-3.34-0.59-0.539-1.18-1.078-1.78-1.617-0.58-0.555-1.17-1.106-1.81-1.618-1.24-1.043-2.47-2.125-3.8-3.089l-1.97-1.493-2.05-1.406c-2.69-1.914-5.53-3.629-8.37-5.234-2.88-1.539-5.7-3.098-8.56-4.36-2.83-1.3-5.61-2.48-8.29-3.523-2.68-1.012-5.24-1.949-7.63-2.731-2.39-0.773-4.6-1.457-6.57-2.011-1.97-0.5589-3.71-1.0159-5.14-1.3714-1.44-0.3398-2.56-0.6328-3.34-0.7929-0.78-0.1602-1.19-0.25-1.19-0.25" fill="#70b9c6"/></g>
  <g id="change2_1"><path d="m41.789 53.195s0.211-0.34 0.664-0.953c0.215-0.316 0.52-0.668 0.867-1.097 0.176-0.215 0.364-0.446 0.563-0.692 0.219-0.23 0.449-0.476 0.691-0.734 0.949-1.063 2.211-2.242 3.692-3.571 0.769-0.628 1.586-1.296 2.449-2.003 0.847-0.735 1.844-1.34 2.832-2.067 1.965-1.469 4.265-2.777 6.664-4.234 1.238-0.653 2.508-1.324 3.809-2.012 0.652-0.34 1.312-0.684 1.98-1.027 0.68-0.321 1.375-0.614 2.074-0.926 1.395-0.613 2.817-1.242 4.254-1.875 1.442-0.625 2.945-1.137 4.449-1.688 1.508-0.531 3.016-1.121 4.555-1.617 1.551-0.469 3.102-0.941 4.656-1.414 1.567-0.433 3.11-0.949 4.688-1.301 1.57-0.371 3.136-0.738 4.691-1.101 1.555-0.367 3.094-0.735 4.629-1.039 1.544-0.266 3.064-0.524 4.554-0.778 1.5-0.246 2.97-0.519 4.41-0.73 0.72-0.113 1.44-0.223 2.14-0.328 0.71-0.078 1.41-0.153 2.1-0.231 2.76-0.312 5.38-0.562 7.79-0.785 2.4-0.281 4.63-0.312 6.6-0.394 1.96-0.082 3.68-0.114 5.09-0.149 2.82-0.062 4.43-0.051 4.43-0.051s-1.59 0.336-4.36 0.844c-1.38 0.25-3.07 0.567-5 0.879-1.92 0.332-4.11 0.649-6.46 1.149-2.36 0.472-4.91 0.976-7.61 1.457-0.68 0.125-1.36 0.25-2.06 0.375-0.68 0.156-1.38 0.316-2.08 0.476-1.4 0.336-2.84 0.621-4.31 0.945-1.46 0.317-2.94 0.633-4.45 0.957-1.487 0.383-2.987 0.79-4.51 1.157-1.52 0.383-3.051 0.765-4.59 1.148-1.543 0.367-3.043 0.903-4.571 1.336-1.527 0.441-3.054 0.883-4.574 1.32-1.512 0.461-2.988 1.012-4.469 1.512-1.464 0.531-2.957 0.973-4.39 1.512-1.422 0.555-2.832 1.101-4.215 1.64-0.691 0.278-1.387 0.532-2.059 0.813-0.668 0.297-1.324 0.59-1.98 0.879-1.309 0.574-2.59 1.141-3.84 1.687-2.402 1.266-4.777 2.309-6.816 3.532-2.098 1.132-3.926 2.32-5.578 3.343-1.579 1.118-3 2.051-4.079 2.942-0.558 0.422-1.039 0.816-1.449 1.176-0.414 0.351-0.781 0.644-1.043 0.91-0.551 0.508-0.828 0.808-0.828 0.808" fill="#fff"/></g>
 </g>
</svg>