<?xml version="1.0" standalone="no"?>
<!DOCTYPE svg PUBLIC "-//W3C//DTD SVG 1.1//EN" "http://www.w3.org/Graphics/SVG/1.1/DTD/svg11.dtd">
<!-- Generator: Adobe Illustrator 16.0.0, SVG Export Plug-In . SVG Version: 6.00 Build 0)  -->
<svg xmlns="http://www.w3.org/2000/svg" xmlns:xlink="http://www.w3.org/1999/xlink" version="1.1" id="Layer_1" x="0px" y="0px" width="476.582px" height="491.805px" viewBox="0 0 476.582 491.805" style="enable-background:new 0 0 476.582 491.805;" xml:space="preserve">
<g id="change2">
	<path style="fill:#9FB140;" d="M10.037,234.146C-9.934,186.293-0.146,146.723,39.791,82.325   c19.592-29.084,46.722-61.137,79.16-74.259c32.442-14.141,70.194-9.349,111.031,11.714c40.836,20.25,78.59,44.021,111.032,59.429   c32.441,16.427,59.569,24.491,79.161,36.874c39.937,21.365,49.726,72.952,29.756,116.137   c-23.209,43.101-53.701,63.597-90.639,90.313c-36.938,25.056-80.324,56.337-129.311,82.664   c-48.991,26.398-92.373,17.114-129.31-21.127C63.736,347.484,33.244,281.94,10.037,234.146z"/>
</g>
<g id="change1">
	<path style="fill:#D2DF64;" d="M439.553,168.641c-33.689-35.651-93.301-68.983-163.526-68.284   c-70.22-0.7-129.836,32.633-163.522,68.286c-34.337,36.87-42.752,76.058-25.583,115.196   c20.363,39.882,47.256,77.583,79.905,104.942c-2.039,4.282-4.101,10.082-5.234,17.522c-4.454,29.224,8.967,60.457,21.01,81.514   c0.395,0.689,1.116,1.079,1.862,1.079c0.326,0,0.656-0.075,0.966-0.231c1.02-0.512,1.458-1.736,1-2.782   c-0.039-0.088-3.826-8.975-0.845-22.738c3.82-17.641,16.309-32.842,29.071-44.324c19.103,8.261,39.59,12.925,61.371,12.909   c84.24,0.062,149.209-69.742,189.109-147.891C482.306,244.701,473.89,205.511,439.553,168.641z"/>
</g>
</svg>
