<?xml version="1.0" encoding="UTF-8"?><svg xmlns="http://www.w3.org/2000/svg" height="364.79pt" version="1.1" viewBox="0 0 485.29 364.79" width="485.29pt">
 <g id="surface1">
  <g id="change1_1"><path d="m381.14 253.73c-28.5 59.3-63.04 75.6-122.73 102.24-74.55 31.91-201.63-27.26-232.73-104.99-36.371-92.58 12.64-201.93 103.89-237.51 74.02-29.782 156.66-8.927 208.22 50.292 32.51 36.378 71.59 104.85 56.63 155.18l-13.28 34.79" fill="#f26579"/></g>
  <g id="change1_2"><path d="m328.75 193.51l154.09 51.36-154.09 36.07v-87.43" fill="#f26579"/></g>
  <g id="change1_3"><path d="m328.09 195.92c46.95 15.65 93.91 31.31 140.86 46.96 4.41 1.46 8.82 2.93 13.22 4.4v-4.82l-143.55 33.6c-3.51 0.82-7.02 1.64-10.53 2.46 1.05 0.81 2.11 1.61 3.16 2.42v-87.43c0-3.22-5-3.22-5 0v87.43c0 1.67 1.59 2.77 3.17 2.41l143.55-33.6c3.51-0.82 7.02-1.64 10.53-2.47 2.54-0.59 2.23-4.08 0-4.82-46.95-15.65-93.9-31.3-140.86-46.95-4.41-1.47-8.82-2.94-13.22-4.41-3.07-1.02-4.37 3.81-1.33 4.82" fill="#f26579"/></g>
  <g id="change1_4"><path d="m375.74 290.91s1.24-0.49 3.43-1.28c2.19-0.78 5.31-1.87 9.1-3.07 1.89-0.61 3.94-1.27 6.12-1.91 2.18-0.65 4.47-1.36 6.85-2.01 2.39-0.66 4.85-1.39 7.37-2.05 2.51-0.66 5.07-1.33 7.62-2 2.57-0.63 5.13-1.26 7.66-1.88 2.52-0.62 5.03-1.15 7.45-1.7 2.41-0.56 4.76-1.03 6.98-1.5 2.23-0.47 4.34-0.87 6.29-1.24 3.91-0.74 7.18-1.27 9.48-1.62 2.29-0.35 3.61-0.51 3.61-0.51s-1.24 0.5-3.42 1.28c-2.19 0.79-5.32 1.88-9.1 3.08-1.89 0.61-3.94 1.27-6.12 1.91-2.18 0.65-4.47 1.36-6.86 2.01-2.39 0.66-4.84 1.4-7.36 2.05-2.51 0.66-5.07 1.33-7.63 1.99-2.56 0.63-5.13 1.26-7.66 1.88-2.52 0.62-5.03 1.14-7.44 1.7-2.41 0.57-4.77 1.03-6.99 1.5-2.23 0.47-4.34 0.87-6.29 1.23-3.9 0.75-7.17 1.28-9.47 1.63-2.29 0.35-3.62 0.51-3.62 0.51" fill="#f26579"/></g>
  <g id="change1_5"><path d="m0.91406 182.4s0.00782 0.57 0.02344 1.64 0.0977 2.65 0.1719 4.65c0.1015 2 0.2344 4.42 0.4414 7.19 0.1953 2.77 0.5039 5.89 0.8476 9.29 0.2071 1.7 0.375 3.47 0.6446 5.29 0.1172 0.91 0.2382 1.84 0.3593 2.77 0.1407 0.95 0.2813 1.9 0.4219 2.86 0.5625 3.87 1.332 7.91 2.1406 12.09 0.8672 4.16 1.8594 8.43 3.0352 12.73 1.121 4.31 2.52 8.61 3.996 12.88 1.543 4.24 3.156 8.46 5.047 12.47 0.934 2.01 1.863 4.01 2.883 5.93 0.5 0.97 0.996 1.92 1.488 2.88 0.539 0.93 1.07 1.85 1.602 2.76 0.539 0.91 1.023 1.84 1.601 2.71 0.559 0.86 1.117 1.73 1.668 2.58 1.055 1.74 2.25 3.34 3.383 4.91 0.578 0.77 1.098 1.58 1.703 2.31 0.594 0.73 1.18 1.45 1.754 2.15 0.57 0.72 1.133 1.42 1.684 2.11 0.593 0.65 1.175 1.29 1.746 1.92 2.23 2.56 4.515 4.68 6.484 6.62 1 0.96 2.027 1.75 2.922 2.56 0.91 0.78 1.727 1.52 2.504 2.15 3.183 2.4 4.996 3.82 4.996 3.82s-1.988-1.12-5.461-3.17c-1.66-1.13-3.699-2.5-5.949-4.19-1.09-0.89-2.25-1.83-3.473-2.83-0.625-0.5-1.238-1.03-1.824-1.61-0.602-0.57-1.219-1.16-1.848-1.76s-1.269-1.21-1.926-1.84c-0.613-0.66-1.238-1.33-1.875-2.02-1.277-1.38-2.585-2.81-3.8-4.39-1.246-1.56-2.563-3.14-3.739-4.88-1.23-1.69-2.449-3.46-3.566-5.32-0.574-0.93-1.152-1.86-1.734-2.8-0.539-0.97-1.082-1.94-1.625-2.92-0.536-0.98-1.11-1.96-1.618-2.97-0.492-1.02-0.984-2.04-1.48-3.07-1.984-4.12-3.699-8.44-5.3125-12.78-1.4727-4.39-2.8594-8.81-3.961-13.23-0.2773-1.11-0.5507-2.21-0.8242-3.3-0.2344-1.11-0.4687-2.2-0.6992-3.29-0.4883-2.18-0.8281-4.35-1.2344-6.48-0.7265-4.27-1.2617-8.42-1.6367-12.36-0.42969-3.94-0.60938-7.68-0.75391-11.12-0.1289-3.45-0.14843-6.61-0.08984-9.41 0.023438-2.81 0.17578-5.25 0.28906-7.25 0.26953-4.01 0.59375-6.28 0.59375-6.28" fill="#f26579"/></g>
  <g id="change2_1"><path d="m247.89 24.816s0.39 0.047 1.14 0.137c0.74 0.106 1.83 0.238 3.2 0.508 2.75 0.504 6.66 1.391 11.24 2.832 2.29 0.73 4.77 1.547 7.32 2.578 2.57 0.992 5.26 2.133 7.97 3.438 1.35 0.671 2.74 1.32 4.1 2.054 0.69 0.36 1.38 0.723 2.08 1.086 0.68 0.391 1.36 0.785 2.05 1.18 2.75 1.574 5.46 3.316 8.14 5.101 2.63 1.864 5.21 3.793 7.66 5.801 1.22 1.02 2.45 2 3.57 3.074 1.14 1.059 2.3 2.071 3.35 3.149 2.19 2.086 4.15 4.254 5.96 6.34 0.88 1.062 1.77 2.074 2.58 3.086 0.78 1.039 1.53 2.043 2.26 3.004 1.42 1.937 2.64 3.781 3.68 5.425 1.01 1.672 1.9 3.114 2.56 4.352 1.3 2.473 2.01 3.902 2.01 3.902s-1.01-1.254-2.68-3.465c-0.83-1.109-1.95-2.378-3.13-3.89-0.59-0.766-1.3-1.508-2-2.328-0.72-0.801-1.4-1.7-2.22-2.547-0.8-0.867-1.64-1.766-2.5-2.699-0.89-0.907-1.8-1.844-2.75-2.809-1.91-1.898-3.98-3.84-6.17-5.797-2.17-1.969-4.54-3.855-6.93-5.785-1.19-0.977-2.47-1.871-3.7-2.816-1.25-0.926-2.54-1.801-3.82-2.707-2.57-1.77-5.18-3.5-7.83-5.071-2.64-1.597-5.26-3.113-7.85-4.508-2.61-1.355-5.12-2.691-7.57-3.843-2.43-1.164-4.76-2.215-6.93-3.164-2.18-0.914-4.18-1.754-5.98-2.457-1.79-0.688-3.36-1.293-4.67-1.754-1.32-0.457-2.35-0.817-3.05-1.063-0.71-0.222-1.09-0.344-1.09-0.344" fill="#fff"/></g>
 </g>
</svg>