<?xml version="1.0" encoding="UTF-8"?>
<svg xmlns="http://www.w3.org/2000/svg" height="301.7pt" version="1.1" viewBox="0 0 483.37 301.7" width="483.37pt">
  <g fill="#68548d" id="change1_1">
    <path d="m0.4375 210.44c0-49.09-3.5078-105.19 9.3477-151.94 4.6758-18.699 14.027-26.883 32.727-32.727 60.778-18.699 123.89-17.531 187-17.531 51.43 0.0002 105.19 2.34 155.45 11.688 44.41 8.183 82.98 11.687 89.99 64.281 4.68 31.559 2.34 65.449 2.34 97.009 0 14.02 2.34 30.39-2.34 43.24-9.35 36.24-40.9 35.07-72.46 36.24-52.6 1.16-104.02 3.5-156.61 3.5-56.11 1.17-112.2 3.51-169.47-4.67-36.238-4.68-64.285-3.51-74.804-39.74l-1.1685-9.35" fill="#68548d"/>
    <path d="m54.199 247.84s9.348 39.73 37.399 51.43c-3.504-23.38 0-61.95 0-61.95l-37.399 10.52" fill="#68548d"/>
    <path d="m51.789 248.5c5 21 18.086 44.04 38.547 52.92 2.121 0.92 4-0.55 3.676-2.82-2.879-20.07-1.727-41.14 0.086-61.28 0.148-1.64-1.703-2.82-3.164-2.41-12.465 3.5-24.934 7.01-37.399 10.52-3.101 0.87-1.781 5.69 1.328 4.82 12.469-3.51 24.934-7.01 37.403-10.52-1.055-0.8-2.114-1.61-3.168-2.41-1.86 20.64-2.86 42.05 0.09 62.61 1.226-0.94 2.449-1.88 3.671-2.82-19.359-8.41-31.515-30.07-36.25-49.94-0.746-3.13-5.57-1.8-4.82 1.33" fill="#68548d"/>
    <path d="m99.371 274.29s1.479 0.04 4.069 0.1c1.29 0.04 2.85 0.09 4.64 0.14 1.8 0.04 3.82 0.09 6.02 0.19 2.2 0.05 4.59 0.12 7.11 0.18 2.52 0.07 5.18 0.19 7.93 0.22 2.75 0.08 5.59 0.09 8.47 0.21 2.89 0.15 5.82 0.11 8.75 0.15 2.93 0.06 5.86 0.13 8.75 0.2 2.89 0.02 5.73 0.03 8.47 0.05 2.75 0 5.41 0.07 7.94 0.13 2.52 0.08 4.91 0.03 7.11 0.05 4.41-0.01 8.09 0.07 10.68 0.16 2.58 0.08 4.06 0.17 4.06 0.17s-1.45 0.26-4.01 0.62c-2.56 0.37-6.22 0.86-10.63 1.34-2.2 0.24-4.59 0.55-7.12 0.64-2.54 0.15-5.21 0.32-7.97 0.41-1.39 0.06-2.8 0.12-4.22 0.18-1.42 0.05-2.87 0.15-4.32 0.11-2.91-0.02-5.86-0.05-8.81-0.07-2.96-0.08-5.91-0.09-8.81-0.29-2.91-0.13-5.77-0.37-8.53-0.55-2.76-0.13-5.42-0.5-7.95-0.76-2.52-0.28-4.9-0.54-7.1-0.87-2.19-0.32-4.2-0.66-5.97-0.95-1.78-0.27-3.32-0.62-4.59-0.87-2.54-0.5-3.969-0.89-3.969-0.89" fill="#68548d"/>
    <path d="m328.37 1.2422s0.73-0.0781 2.1-0.2227c1.37-0.12888 3.37-0.332 5.93-0.48825 5.12-0.32813 12.46-0.64844 21.26-0.49609 4.41 0.07031 9.18 0.22656 14.22 0.57812 5.04 0.34766 10.35 0.81252 15.83 1.539 5.47 0.7227 11.12 1.5899 16.8 2.7969 5.69 1.1953 11.43 2.6133 17.08 4.3555 5.65 1.7773 11.22 3.8323 16.55 6.2303 5.34 2.391 10.39 5.207 15.06 8.277 4.66 3.075 8.85 6.555 12.46 10.2 3.63 3.633 6.63 7.492 8.98 11.297 2.37 3.793 4.06 7.543 5.3 10.933 0.29 0.852 0.58 1.676 0.85 2.473 0.23 0.812 0.44 1.594 0.65 2.347 0.11 0.376 0.2 0.743 0.31 1.102 0.07 0.363 0.15 0.723 0.22 1.07 0.15 0.7 0.29 1.364 0.42 1.993 0.46 2.539 0.71 4.543 0.8 5.918 0.12 1.367 0.18 2.097 0.18 2.097s-0.14-0.719-0.39-2.066c-0.22-1.356-0.71-3.309-1.36-5.766-0.18-0.609-0.38-1.25-0.58-1.922-0.1-0.336-0.21-0.679-0.31-1.031-0.13-0.344-0.26-0.695-0.39-1.055-0.27-0.718-0.54-1.464-0.82-2.238-0.32-0.758-0.66-1.543-1-2.352-1.45-3.21-3.34-6.707-5.8-10.242-2.47-3.523-5.54-7.054-9.13-10.418-3.61-3.351-7.76-6.504-12.31-9.382-4.55-2.875-9.54-5.391-14.71-7.704-5.19-2.289-10.64-4.242-16.16-5.945-5.51-1.742-11.13-3.1796-16.71-4.3983-5.58-1.2032-11.1-2.2774-16.49-3.0899s-10.61-1.5195-15.59-2.0547c-4.98-0.5156-9.69-0.9414-14.06-1.2578-8.72-0.6211-16.02-0.8789-21.14-0.9961s-8.05-0.082-8.05-0.082" fill="#68548d"/>
  </g>
</svg>