<?xml version="1.0" standalone="no"?>
<!DOCTYPE svg PUBLIC "-//W3C//DTD SVG 1.1//EN" "http://www.w3.org/Graphics/SVG/1.1/DTD/svg11.dtd">
<!-- Generator: Adobe Illustrator 16.0.0, SVG Export Plug-In . SVG Version: 6.00 Build 0)  -->
<svg xmlns="http://www.w3.org/2000/svg" xmlns:xlink="http://www.w3.org/1999/xlink" version="1.1" id="Layer_1" x="0px" y="0px" width="491.526px" height="404.842px" viewBox="0 0 491.526 404.842" style="enable-background:new 0 0 491.526 404.842;" xml:space="preserve">
<g id="change2">
	<path style="fill:#EE826C;" d="M11.473,162.482c19.289-45.822,55.93-87.917,95.418-116.69C147.023,17.047,188.881-0.087,232.803,0   c43.917-0.088,85.773,17.046,125.91,45.792c39.479,28.775,76.127,70.872,95.416,116.69c18.673,45.387,16.736,84.966-22.148,125.254   c-37.682,38.715-113.065,89.691-199.177,88.886c-86.116,0.806-161.5-50.171-199.179-88.886   C-5.262,247.453-7.198,207.869,11.473,162.482z"/>
</g>
<g id="change1">
	<path style="fill:#E05A47;" d="M459.529,172.307c-34.963-40.282-102.626-76.232-182.195-75.251   c-79.567-0.979-147.228,34.969-182.193,75.251c-36.228,40.805-39.757,85.939-20.288,115.417   c19.916,30.547,56.476,45.695,92.315,56.596c36.657,10.359,72.592,16.464,110.166,16.416c37.576,0.048,73.513-6.057,110.168-16.416   c1.94-0.59,3.883-1.195,5.824-1.812c14.753,14.877,20.443,28.112,22.473,37.482c2.876,13.283-0.779,21.858-0.816,21.943   c-0.445,1.007-0.024,2.188,0.958,2.686c0.3,0.152,0.62,0.225,0.936,0.225c0.722,0,1.42-0.377,1.801-1.044   c11.621-20.319,24.573-50.46,20.274-78.661c-0.066-0.434-0.148-0.836-0.221-1.259c16.482-9.042,30.945-20.599,41.087-36.155   C499.285,258.246,495.757,213.112,459.529,172.307z"/>
</g>
</svg>
