<?xml version="1.0" encoding="UTF-8"?><svg xmlns="http://www.w3.org/2000/svg" xmlns:xlink="http://www.w3.org/1999/xlink" height="1610.7" preserveAspectRatio="xMidYMid meet" version="1.0" viewBox="10.5 24.6 1121.4 1610.7" width="1121.4" zoomAndPan="magnify"><g id="change1_1"><path d="m525.05 1326.5c0.381 48.68-3.627 97.095-7.871 145.52-7.076 80.735-5.655 71.691 65.858 115.87 17.733 10.955 41.596 13.622 46.634 18.422 7.083 6.748 1.18 12.645-3.007 13.37-90.198 15.621-73.093-11.663-116.3-1.143-13.916 3.388-28.167 4.239-42.44 4.246-22.574 0.012-35.689-13.687-25.166-46.072 9.411-28.963-8.724-202.03-12.433-231.58-8.143-64.878 17.766-81.762-0.381-152.74-8.696-34.013-0.438-35.46-17.899-112.67-14.058-62.167-13.396-126.22-17.706-157.2-5.375-38.632-25.279-41.915-49.21-67.868-87.947-95.376-208.44-82.648-306.76-188.45-27.864-29.984-26.705-62.526-3.424-89.718 11.035-12.888 93.521-91.445 115.68-110.12 136.97-115.4 148.26-114.65 152.37-134.02 10.397-49.039 32.255-66.107 87.199-161 6.881-11.884-1.89-10.842-3.674-33.998-1.486-19.289-3.004-38.576-4.37-57.873-0.522-7.384 4.667-11.744 11.78-9.766 27.357 7.608 6.884 32.855 39.741 40.752 11.685 2.809 19.424 10.478 21.134 22.511 2.183 15.353 2.413 30.783-3.216 45.679-6.407 16.953-13.6 11.4-27.309 37.485-4.608 8.768-8.139 18.026-12.173 27.055-0.884 1.98-0.461 2.76 1.296 3.846 24.365 15.052-1.768 13.584-0.382 48.363 0.538 13.497 2.355 23.62-10.552 32.645-9.049 6.327-11.741 7.976-11.617 8.84 0.268 1.855 72.476 22.916 160.77 22.352 4.972-0.032 4.97-0.021 2.633-4.519-12.715-24.463-7.354-59.396 22.645-65.132 21.828-4.173 23.77-3.201 21.684-9.226-15.568-44.958 2.972-94.568 46.591-111.94 24.155-9.621 61.257-15.092 84.415-2.889 6.396 3.37 11.958 7.981 17.877 12.068 8.184 5.651 12.651 12.953 13.998 22.896 2.827 20.874 18.073 33.939 11.551 53.387-0.776 2.313 0.294 4.457 1.233 6.468 6.406 13.715 5.062 20.424 1.78 73.403-2.055 33.165-48.712 9.188-50.439 33.685-2.526 35.827 36.447 37.98 42.576 34.232 19.006-11.62 40.098-16.801 61.879-16.282 34.475 0.822 56.035-14.449 122.16-38.59 14.187-5.179 21.981-14.7 23.325-30.308 4.425-51.402 9.422-102.75 11.167-154.35 0.539-15.934-5.203-57.197 37.366-79.401 24.652-12.858 24.061-26.675 34.234-36.289 17.678-16.706 25.41 17.533 38.175 2.286 18.589-22.203 23.363-20.772 32.796-23.385 2.664-0.738 2.333-0.74-3.471 20.715-1.125 4.159-3.51 7.463-6.662 10.452-69.031 65.469-96.131 68.314-89.65 114.88 2.3 16.526 8.921 55.144 8.727 69.14-1.225 88.286 9.417 119.86-15.751 137.56-52.565 36.973-82.54 74.777-141.68 91.9-23.686 6.857-48.121 19.472-60.591 40.727-16.175 27.571-28.544 39.279-36.739 65.225-14.443 45.728-25.955 59.397-102.7 188.24-7.188 12.067-17.093 15.149-91.897 87.255-38.607 37.215-16.382 56.969-35.423 128.92-5.337 20.169 3.75 19.439-3.706 69.81-14.719 99.443-24.595 85.205-21.884 122.62 4.602 63.5-3.702 36.407-2.785 153.71zm-38.786-687.67c25.821-24.744 32.197-70.793 39.388-99.336 6.848-27.178-8.022-52.032-16.24-68.726-11.119-22.586-25.721-18.169-73.126-29.976-20.336-5.065-41.006-9.118-58.428-22.116-5.226-3.899-9.362-2.95-15.107 1.76-20.062 16.446-36.04 2.198-47.575-1.58-14.278-4.676-14.051 1.325-85.571 103.45-41.254 58.905-48.648 73.511-73.572 85.109-5.885 2.739-12.819 7.744-12.7 8.744 0.217 1.814 2.549 1.596 4.013 2.098 31.607 10.828 63.545 20.65 94.67 32.933 78.005 30.782 127.76-6.078 185.88-0.579 9.023 0.854 35.183 10.441 58.371-11.779z" fill="inherit"/></g></svg>