<?xml version="1.0" encoding="UTF-8"?><svg xmlns="http://www.w3.org/2000/svg" xmlns:xlink="http://www.w3.org/1999/xlink" height="499.2" preserveAspectRatio="xMidYMid meet" version="1.0" viewBox="3.5 241.3 585.6 499.2" width="585.6" zoomAndPan="magnify"><g><g id="change1_1"><path d="M213.52873,241.34584C215.23901,241.34584,217.31302,241.36209,219.86592,241.38214C232.18541,241.49808,233.76207,241.6287,236.35172,243.04031C237.93411,243.88712,241.0256,245.36636,243.2537,246.3511C248.42899,248.67313,258.96976,259.18826,260.36487,263.47424C262.1256,268.68835,262.87964,273.40918,262.55084,277.06445C262.088,281.8667,256.64905,300.24484,255.02087,302.62155C253.53473,304.8535,253.53473,304.8535,259.07214,307.67392C261.4452,308.87253,264.2439,309.56613,267.39664,309.75568C269.97653,309.9499,272.91794,310.57086,273.99673,311.1353C276.29764,312.26263,284.80444,319.2132,292.95667,326.59625C296.20288,329.50677,301.25214,333.97818,304.13742,336.53333C307.02267,339.0885,310.63266,342.71216,312.22433,344.7047C313.74374,346.62622,316.62845,349.10986,318.57065,350.16858C323.03143,352.71106,323.8313,354.20874,323.37125,359.36896C323.1788,362.16376,323.3364,363.95282,323.98782,364.80707C325.0739,366.37286,334.56668,372.80597,335.7236,372.80597C335.72443,372.80597,335.72522,372.80597,335.72604,372.80597C335.72644,372.80597,335.7268,372.80597,335.7272,372.80597C337.0975,372.80597,356.07593,391.90887,356.08685,393.2692C356.09546,394.34238,361.5661,399.08887,362.71918,399.08887C362.7203,399.08887,362.7214,399.08887,362.7225,399.08887C362.73395,399.08878,362.74545,399.0887,362.757,399.0887C365.26715,399.0887,369.41437,401.26865,372.4319,404.16757C375.39166,407.08017,375.60706,407.15012,382.12857,407.6706C389.88638,408.32803,394.05612,408.6856,396.71857,408.6856C399.8854,408.6856,400.91974,408.17972,403.32318,407.07098C417.3785,400.36932,439.84818,389.08804,440.20108,388.4407C440.41306,388.08084,443.05246,386.77042,446.12216,385.52835C449.11963,384.21524,453.68518,381.95828,456.25128,380.43375C462.0251,377.02127,470.79584,372.224,483.34836,365.6776C488.626,362.9137,496.18387,358.69925,500.10318,356.2327C504.023,353.83774,509.79688,350.42545,512.9342,348.68143C519.9936,344.8289,552.9476,328.0922,553.5205,328.08755C553.73535,328.08585,558.0877,326.0455,563.0813,323.57043C571.07056,319.56726,572.713,318.9812,577.1514,318.7307C577.61316,318.70776,578.05945,318.6961,578.49066,318.6961C586.08276,318.6961,588.99744,322.31046,589.07135,331.5267C589.0943,334.3912,588.82965,337.11484,588.5466,337.54684C587.7692,338.84225,583.1337,341.31454,575.9952,344.23654C572.4266,345.76923,567.36084,348.17328,564.65155,349.6989C562.0139,351.22406,558.1604,352.97382,556.08875,353.63507C554.08813,354.22418,547.8789,356.92377,542.38635,359.6894C536.89325,362.3834,530.47156,365.3713,528.1151,366.2496C525.7593,367.19955,520.7629,369.31662,517.0521,370.99362C513.3414,372.67062,509.3435,374.27826,508.2,374.57404C507.0564,374.86957,504.0578,376.0395,501.63275,377.2766C499.1354,378.4425,496.85123,379.39197,496.42154,379.3954C496.06345,379.3982,493.06473,380.56824,489.782,382.02686C486.49918,383.48572,480.8605,385.89426,477.14914,387.49973C473.5089,389.03293,470.08398,390.63596,469.58612,391.06967C469.1593,391.43124,466.7331,392.52505,464.16296,393.54825C461.66394,394.49942,457.38257,396.46744,454.601,397.92224C451.8911,399.37622,449.17896,400.54395,448.60608,400.54858C448.03314,400.55322,444.53665,402.15674,440.7571,404.19238C434.0529,407.68396,428.34427,410.3081,415.35406,415.85535C404.71906,420.381,402.1576,422.47867,402.19202,426.77554C402.2058,428.4943,398.58508,432.4623,397.00952,432.475C396.43658,432.47964,395.22546,433.27713,394.30133,434.14395C392.2406,436.1658,380.95297,439.69412,374.7271,440.31708C373.87708,440.3963,373.1365,440.43805,372.46146,440.43805C370.46536,440.43805,369.04214,440.07303,367.05515,439.2326C364.0364,437.89606,363.60208,437.3266,362.4293,433.9698C361.47476,431.0411,360.02695,429.1191,355.69614,424.9282C352.66476,422.01608,348.55685,418.82614,346.6152,417.83908C344.67355,416.85202,341.5093,415.23007,339.6387,414.1708C337.7681,413.11148,333.81552,411.42435,330.79904,410.3743C327.85422,409.32352,323.10806,406.92654,320.3002,405.08694C317.4933,403.17673,314.9754,401.62216,314.75815,401.62216C314.75803,401.62216,314.7579,401.62216,314.75778,401.62216C314.75748,401.62216,314.7572,401.62216,314.7569,401.62216C314.46848,401.62216,313.1,400.4881,311.72977,399.13962C310.36026,397.7919,308.92105,396.65903,308.48898,396.65903C308.4883,396.65903,308.48767,396.65903,308.48703,396.65903C308.12833,396.5903,305.824,395.03305,303.44522,393.11838C295.08694,386.31348,284.86404,378.95108,283.92407,378.95108C283.9236,378.95108,283.92313,378.95108,283.92267,378.95108C283.3498,378.95572,282.78265,379.67642,282.57465,380.53763C282.4389,381.46964,281.60822,385.05725,280.8492,388.6444C280.01797,392.1604,279.2601,395.89063,278.98166,396.89563C278.77487,397.8999,278.3658,400.48157,278.025,402.6328C277.7557,404.78366,276.79962,410.59247,276.0515,415.54022C274.75574,423.64362,274.69617,425.14813,275.53333,431.30072C275.99286,435.0213,276.8885,439.52606,277.40408,441.31244C277.99136,443.09833,278.44406,445.9593,278.45895,447.82135C278.47446,449.7549,279.14023,452.39957,280.23227,454.6111C281.2504,456.53665,283.0781,461.17715,284.397,464.89078C285.78934,468.81876,288.1189,473.52695,289.92932,476.01913C295.50745,483.9243,295.94806,485.28134,296.04626,497.52753C296.09454,503.54315,295.78815,509.99152,295.37335,511.85687C293.02283,522.4039,285.91724,538.3604,279.68805,547.50604C275.65192,553.26794,273.90012,558.08057,272.9578,565.60815C272.61862,567.97424,270.53452,576.01245,268.23154,583.551C263.06808,600.5663,262.86014,601.42737,263.9551,603.9968C264.68503,605.70984,265.76437,606.3458,270.07336,607.81537C273.017,608.72266,277.6182,610.906,280.35385,612.67456C283.16122,614.4425,288.12393,617.0526,291.42972,618.4585C294.6639,619.865,297.7554,621.3441,298.18796,621.69885C298.6205,622.05347,303.1512,624.3805,308.25595,626.84625C330.83374,637.98114,345.3752,647.2465,351.30505,654.361C353.25824,656.7804,355.9934,658.47736,363.54395,662.28424C372.31653,666.6543,373.6125,667.5033,376.79517,671.4169C378.74835,673.8363,381.63354,676.3914,383.14325,677.09546C388.32077,679.7039,389.91183,681.6249,389.9434,685.5637C389.9784,689.9322,387.58942,695.6809,384.32153,699.00165C382.97235,700.4448,380.5575,702.9709,379.06683,704.63007C377.57617,706.2894,375.44037,707.88214,374.43945,708.10504C370.36426,708.99713,369.43964,709.79236,368.17987,713.45514C367.2008,716.39935,366.42102,717.40826,364.6364,718.1388C362.85175,718.86926,362.21472,719.8055,361.58795,722.03064C360.9624,724.3991,360.3248,725.2637,358.18442,726.2835C356.4719,727.085,355.12216,728.45667,354.34818,730.1817C353.1514,732.7696,352.65298,733.1317,348.36288,734.0256C347.0756,734.25073,345.507,735.12274,344.7977,735.98785C342.66818,738.3684,339.45584,739.68335,335.58923,739.78595C335.5381,739.7864,335.48718,739.78656,335.43652,739.78656C331.0155,739.78656,328.30902,738.2192,325.30063,733.92413C323.27188,731.004,322.97733,730.00366,322.94406,725.85C322.90726,721.2666,323.04825,720.97906,326.1677,717.01495C327.94028,714.78046,329.70767,711.90155,330.05545,710.6096C330.40262,709.24603,331.6733,706.94403,332.80765,705.5025C334.01303,703.98883,334.9326,702.5491,334.93027,702.26263C334.928,701.9762,333.84738,701.197,332.55258,700.49115C331.25833,699.857,329.09152,697.5825,327.7858,695.516C325.10437,691.3863,320.40952,685.9136,319.54584,685.9136C319.5453,685.9136,319.54477,685.9136,319.54422,685.9136C319.54367,685.9136,319.5431,685.9136,319.54254,685.9136C319.18164,685.9136,317.74414,684.9952,316.30484,683.86255C314.86282,682.6566,311.05167,680.7534,307.96194,679.4891C304.80112,678.2969,301.3503,676.6773,300.3414,675.8976C299.26144,675.19,296.67584,674.2797,294.52515,674.01044C292.01575,673.67255,286.9866,671.7076,280.22897,668.53894C274.47733,665.7919,269.01508,663.40063,268.0108,663.1938C267.00586,662.91534,264.5606,661.6458,262.54504,660.3728C259.23297,658.17914,256.42737,656.62604,247.43643,651.82806C245.85399,650.98126,242.39696,648.57404,239.80217,646.51776C237.20732,644.4616,232.67268,641.6333,229.79597,640.15234C221.81516,636.2773,218.40445,630.7183,213.61563,614.0693C211.18399,605.5661,209.98532,598.98663,207.62921,582.03174C206.94733,577.38196,206.19781,573.234,205.97955,572.806C205.8059,572.5269,205.51462,572.381,205.08003,572.381C203.51729,572.381,200.10132,574.2679,193.63611,578.6345C189.07686,581.6792,184.01686,584.7993,182.3033,585.45764C180.58968,586.11597,178.59598,587.5645,177.74521,588.64557C176.89389,589.6551,174.54375,591.3212,172.47441,592.26886C169.19164,593.7276,168.62328,594.305,168.21077,596.4569C168.00746,597.891,168.1811,601.6853,168.70827,604.90405C170.44502,616.06274,168.50478,659.90967,165.73782,672.1071C164.56168,677.2732,164.87979,681.2097,166.92519,686.2067C168.38618,689.776,168.75922,691.6351,168.49347,694.21545C168.22473,696.43787,168.98285,701.66003,170.77167,710.38324C173.08362,721.82385,173.3128,723.61255,172.61963,726.4828C171.36963,731.363,170.23065,732.23157,165.28925,732.2712C162.49622,732.2936,160.137,732.81396,158.28244,733.7599C156.38419,734.7476,153.44669,735.25775,150.65189,735.25775C148.30138,735.25775,146.0518,734.8969,144.6063,734.156C143.49532,733.6356,142.4188,733.3736,140.9205,733.3736C140.18881,733.3736,139.35655,733.43604,138.37059,733.56146C129.85649,734.63245,123.996155,736.1835,120.433105,738.4323C118.039314,739.9552,117.145775,740.4487,115.22776,740.4487C114.40533,740.4487,113.39454,740.358,111.99633,740.21875C109.18334,739.9437,106.1272,739.80804,103.28607,739.80804C99.97379,739.80804,96.95376,739.9925,94.95198,740.35547C94.28641,740.4588,93.738495,740.51825,93.24352,740.51825C91.9298,740.51825,90.98902,740.0993,89.21127,738.96924C87.62717,737.90765,85.03812,736.5676,83.45798,736.0074C77.78427,734.0475,77.350555,733.5497,77.30466,727.82043C77.28226,725.02747,77.61331,721.6587,78.10428,720.3656C79.15494,717.4208,81.72397,716.2542,91.80556,714.16785C95.73811,713.3486,99.168106,712.38995,99.38124,712.1734C99.735306,711.66925,101.08852,710.7273,105.080574,708.40344C106.434944,707.6048,108.715706,706.2257,110.06953,705.3554C111.42335,704.48517,113.205635,703.4682,113.98994,703.0322C119.0528,700.2701,120.46155,697.3224,118.217964,694.40393C117.63874,693.6208,117.121284,691.6196,117.1081,689.9725C117.08802,687.46594,117.43922,686.60364,119.21809,685.157C120.355896,684.1452,121.994995,683.12933,122.78046,682.8366C124.56622,682.2493,124.5639,681.9629,122.75006,679.041C121.29938,676.7608,121.220276,675.8303,121.558105,664.3685C121.71838,657.56335,121.966675,643.8819,122.02956,633.85474C122.25441,617.2372,122.16609,615.1609,120.761795,609.729C119.505264,604.869,119.26344,601.5049,119.17268,590.18976C119.061844,576.3681,119.53047,572.2819,121.92055,566.67645C122.694534,564.95135,123.25368,563.22797,123.25026,562.7983C123.24678,562.3686,127.86098,557.24664,133.40102,551.4726C139.0121,545.6264,144.47707,539.4233,145.60854,537.6236C148.15285,533.37775,147.37251,534.3151,162.35747,518.51013C173.8632,506.4574,181.613,499.37646,183.5466,499.36096C184.04788,499.35693,185.82675,497.91028,196.28122,488.7307C202.1135,483.67053,202.04361,483.886,201.37534,472.0026C200.871,462.69595,200.57248,461.19437,198.75394,457.6995C197.58914,455.3455,196.48502,451.63004,196.10172,448.48196C195.19066,442.04355,191.27844,427.53598,189.38837,424.04184C188.6601,422.54367,187.3418,418.90158,186.5293,415.82846C185.64465,412.68442,184.4707,409.18442,183.96014,408.04257C182.1394,404.2612,178.46442,392.54514,178.44891,390.61154C178.41504,386.3845,178.18776,385.77197,173.53188,385.77197C172.90277,385.77197,172.19281,385.78317,171.39156,385.79813C170.6437,385.8194,169.95842,385.832,169.32474,385.832C164.0127,385.832,162.32773,384.94498,157.81558,380.82193C155.72269,378.83328,153.70883,377.77518,150.98227,377.1525C148.9014,376.66776,145.457,375.83597,143.30399,375.2803C141.15091,374.72464,137.1353,374.1124,134.34062,373.9199C131.54588,373.7275,129.10753,373.31735,128.89098,373.10422C127.46871,371.49484,122.72167,370.25885,117.65801,370.25885C117.57508,370.25885,117.492065,370.2592,117.40898,370.25986C117.31495,370.26062,117.22072,370.261,117.126305,370.261C110.60593,370.261,103.21914,368.4727,98.60913,365.8269C96.88226,364.83813,92.85864,363.22314,89.77118,362.24524C86.61151,361.1963,82.58722,359.50964,80.78827,358.44983C78.98981,357.46155,76.399666,355.9783,75.03315,355.27298C72.30036,353.86258,65.67213,348.97403,60.841164,344.93033C57.57997,342.14026,53.01486,340.7448,47.077724,340.7448C46.97561,340.7448,46.873085,340.74524,46.770153,340.74606C46.73711,340.74634,46.70399,340.74646,46.670803,340.74646C44.40204,340.74646,41.79454,340.12802,39.81086,339.22617C37.701927,338.2452,36.445694,337.9121,33.044704,337.9121C31.808516,337.9121,30.288965,337.95612,28.34211,338.02902C21.794651,338.2937,17.543629,338.45157,14.709004,338.45157C9.887463,338.45157,9.163867,337.99478,8.20737,336.82983C7.483737,335.90454,6.8254113,334.19104,6.8162255,333.04517C6.8070397,331.8993,6.1481347,330.114,5.3523273,329.1178C3.5435803,326.84045,3.530946,325.2649,5.297762,322.31433C6.0751977,321.01892,6.7059655,319.29504,6.700228,318.57886C6.682406,316.3589,8.816501,314.55115,11.323032,314.53113C13.972783,314.5099,14.7548275,313.78735,15.870794,310.0542C16.360632,308.61792,17.209082,307.25024,17.78028,307.03088C18.583649,306.71628,19.55307,306.56512,20.594976,306.56512C22.701256,306.56512,25.10377,307.18292,27.02952,308.3175C28.684153,309.23535,32.70893,310.99335,36.01246,312.11285C39.24488,313.30438,42.263042,314.5694,42.767223,314.9234C44.33699,316.18692,51.663307,317.75507,55.77094,317.75507C55.813095,317.75507,55.854908,317.7549,55.896374,317.75458C55.9587,317.7541,56.02105,317.7538,56.083416,317.7538C61.18079,317.7538,66.40691,319.42114,69.75312,322.01224C71.19459,323.1465,74.64478,324.6946,77.65888,325.45816C80.602,326.29398,85.12409,327.5469,87.565315,328.31522C90.07758,329.01114,95.601135,330.1128,99.7594,330.65247C111.804565,332.27478,115.89288,333.0298,118.194336,334.22876C125.529526,337.9658,127.68425,338.7363,133.06114,339.4094C136.35893,339.8127,145.38646,340.24167,153.1226,340.3945L167.162,340.63992L175.30318,337.70975C179.73067,336.0988,185.66145,334.40384,188.37941,333.95242C191.16841,333.42862,195.1696,332.25073,197.3106,331.30237C199.45158,330.35413,202.09386,329.40198,203.23796,329.17786C206.0258,328.511,205.79033,325.93457,202.5446,323.0957C199.11832,319.9348,196.68951,318.79874,193.65633,318.79874C193.62354,318.79874,193.59068,318.79886,193.55775,318.79913C193.5393,318.7993,193.52086,318.79935,193.50241,318.79935C190.08086,318.79935,186.44093,316.26093,185.27602,313.13593C184.76387,311.77924,184.30031,307.55743,184.19875,303.83405C184.16774,299.96674,183.63313,295.81708,183.04701,294.17462C181.07094,288.89056,181.55782,287.09625,186.88417,281.4671C188.87166,279.2309,189.79115,277.7912,189.35799,277.36493C188.92488,276.93878,186.19832,276.31598,183.25807,275.8382C177.80904,275.09418,173.71208,273.26486,172.90819,271.26608C172.68822,270.62326,172.46074,269.0494,172.44981,267.6887C172.4251,264.60922,173.49474,264.02768,182.86366,262.3769L189.8727,261.17474L192.05093,255.92905C194.71944,249.31879,197.6985,245.7138,202.47719,243.24042C205.5444,241.64671,206.16998,241.34584,213.52873,241.34584 Z" fill="inherit"/></g></g></svg>