<?xml version="1.0" encoding="UTF-8"?><svg xmlns="http://www.w3.org/2000/svg" xmlns:xlink="http://www.w3.org/1999/xlink" height="632.1" preserveAspectRatio="xMidYMid meet" version="1.0" viewBox="-6.5 84.1 503.1 632.1" width="503.1" zoomAndPan="magnify"><g><g id="change1_1"><path d="M241.48473,238.0209C241.66074,238.0209,242.1833,238.30176,242.64928,238.64116C243.64433,239.37944,244.40971,240.26604,245.32787,241.70049C246.1273,242.93388,246.24864,245.33525,245.64922,247.94937C245.13167,250.2149,245.209,255.59894,245.82294,260.04877C246.08234,261.98468,246.4627,266.29303,246.68457,269.64825C247.20251,277.4866,248.29663,289.1675,248.94208,293.79044C249.84601,300.2914,251.59576,307.21475,252.87231,309.4258C253.91083,311.1769,254.24542,312.3013,253.90686,312.9141C253.74875,313.23004,253.49516,313.38885,253.13484,313.38885C252.59718,313.38885,251.8219,313.03522,250.77155,312.32217C248.01616,310.4544,244.40271,309.59283,239.17479,309.59283C238.68915,309.59283,238.18956,309.60028,237.67543,309.61502C237.0411,309.63043,236.51851,309.6401,236.07738,309.6401C234.48563,309.6401,233.95471,309.51382,233.06438,309.0733C231.57774,308.3708,229.19994,306.0888,228.45634,304.70978C228.18828,304.19257,227.74364,303.47516,227.44841,303.07416C227.18205,302.67267,226.29503,301.3825,225.52538,300.20648C224.66685,298.88715,222.31297,296.2574,219.52281,293.48907C217.02582,290.97723,214.02557,287.69086,212.87512,286.20197C209.45209,281.70563,202.70654,271.64047,201.66193,269.45517C198.61761,263.10056,196.75061,258.0897,196.63135,255.83334C196.44879,253.20126,198.62872,251.78036,204.77588,250.41818C208.90314,249.51926,212.3352,248.60153,216.11038,247.38922C217.20535,247.02606,218.84824,246.5102,219.71329,246.2663C220.57791,245.99335,221.41318,245.69183,221.58481,245.5445C221.72781,245.42682,222.33273,245.21541,222.88107,245.09163C223.42941,244.96797,224.26509,244.69539,224.75429,244.4858C225.2145,244.27657,226.33705,243.826,227.20094,243.4952C230.42622,242.2906,233.10323,241.21016,233.38979,241.00337C234.22084,240.41243,240.64287,238.033,241.48235,238.02092C241.48312,238.0209,241.48392,238.0209,241.48473,238.0209 Z M305.78067,84.053474C304.43274,84.053474,302.93512,84.07889,301.20035,84.12503C295.93347,84.28763,294.372,84.42569,292.1792,84.94937C286.81354,86.30032,282.3247,88.217804,279.8636,90.2217C279.23376,90.72292,278.20294,91.51943,277.5724,91.96267C276.42572,92.76089,273.0597,96.25453,271.1535,98.597916C270.1575,99.79933,270.12894,99.82875,266.5497,100.57497C260.71878,101.787735,256.22824,103.58936,254.08475,105.53089C251.48398,107.88453,247.94637,113.551895,244.63301,120.721565C240.78548,128.99915,239.79988,130.92395,237.81728,133.99231C234.6166,138.93114,232.1295,141.1383,227.95325,142.64587C224.78491,143.7915,223.95215,144.2666,221.60608,146.21118C219.14539,148.24414,218.74646,148.6842,217.95966,150.34558C217.36957,151.59912,217.349,152.17834,217.30078,160.92247C217.2774,169.37682,217.23334,170.33263,216.67596,171.84605C215.6192,174.8724,212.20844,179.29306,209.99593,180.45395C209.56508,180.69162,209.22226,181.01501,209.22433,181.15991C209.22641,181.30457,208.88364,181.62791,208.42374,181.8662L207.64859,182.31163L208.69101,182.32555C209.76205,182.31017,212.49435,181.05505,215.91034,179.00827C217.16136,178.24298,217.9801,177.884,218.61719,177.884C219.09082,177.884,219.46404,178.08241,219.83984,178.45981C220.78058,179.45944,221.08545,180.52621,221.12167,183.04466C221.15237,185.18651,221.2128,185.35948,221.85373,185.63976C222.06406,185.73619,222.23271,185.7888,222.39836,185.7888C222.71477,185.7888,223.02014,185.59683,223.58377,185.1516C225.41603,183.70677,226.32191,182.27501,226.61194,180.3021C227.11249,176.84982,228.39264,175.26791,232.41594,173.1837C236.12294,171.24837,239.00398,168.25398,241.54396,163.67209C242.69244,161.59947,243.63348,160.48842,244.20743,160.48842C244.35272,160.48842,244.47449,160.55962,244.57014,160.70444C244.71822,160.93405,244.85353,162.29294,244.87392,163.7114C244.9128,166.42221,245.30254,167.55968,246.23409,167.55968C246.30711,167.55968,246.38348,167.55269,246.46327,167.53891C247.64754,167.34824,248.06226,165.98154,248.20251,161.63693C248.36597,156.88632,248.8612,155.08432,250.34937,153.87595C251.17526,153.19939,251.89369,152.8483,252.42334,152.8483C252.70111,152.8483,252.92697,152.94485,253.08917,153.1417C253.85468,154.02817,252.53314,160.79294,250.69257,165.68332C249.88553,167.80312,249.66994,168.99265,250.07124,168.99265C250.07224,168.99265,250.07323,168.99265,250.07422,168.99263C250.56628,168.98555,252.1706,167.80453,252.56671,167.16183C252.79285,166.78207,253.52252,165.17941,254.13647,163.57834C256.9876,156.47311,258.8515,153.20383,261.39563,150.93785C262.22467,150.20213,263.25098,149.08739,263.67596,148.44432C264.4132,147.36253,264.46692,147.07213,264.401,144.49657C264.37152,142.44139,264.17914,141.14122,263.6352,139.55675C262.75635,136.81895,262.60156,134.09973,263.3202,133.74207C263.60748,133.59326,264.06732,133.35486,264.32568,133.20642C264.6996,133.02747,264.81073,132.7074,264.71558,132.12964C264.45917,130.39612,264.49335,128.74536,264.81,128.62512C264.87506,128.60144,264.93973,128.59004,265.00348,128.59004C265.58893,128.59004,266.0972,129.55095,266.1148,130.77771C266.1435,132.77502,267.04425,139.04466,267.59888,141.38158C268.83063,146.51732,271.06262,150.74132,273.78793,153.01816C274.25687,153.41684,275.8646,154.49387,277.41245,155.42697C281.91043,158.17075,283.0436,160.47067,283.13754,167.0123C283.17868,169.878,283.07498,170.71907,282.5726,172.029C282.23776,172.90254,281.84543,173.80574,281.64615,174.04C281.47586,174.27425,281.16568,174.8575,280.94083,175.32405C280.21024,176.8691,277.55606,179.5417,276.00433,180.3458C275.17065,180.76303,273.26938,181.42722,271.76962,181.82504C270.2698,182.22299,267.41458,182.98776,265.4244,183.50864C259.82925,185.00754,255.85184,186.25168,252.45407,187.54526C251.5903,187.87619,250.4097,188.32748,249.8627,188.53806C243.6433,190.91452,232.32088,196.80956,224.54646,201.7849C218.06284,205.93137,217.05984,206.64047,215.05814,208.37753C214.08603,209.23093,212.65567,210.43845,211.85391,211.05795C211.05264,211.70663,209.76505,212.76718,209.02243,213.47275C208.27982,214.17831,206.73373,215.38754,205.58719,216.18552C203.09341,217.92953,195.17332,222.84933,192.1859,224.48445C191.00822,225.13838,189.1992,226.17769,188.16594,226.80061C187.13219,227.39436,185.46709,228.37361,184.43321,228.9676C183.39915,229.53242,182.42369,230.1545,182.28142,230.33028C182.11028,230.50655,180.50555,231.65852,178.69946,232.90047C171.78876,237.54512,171.1297,238.0179,167.95398,240.6689C164.43488,243.58577,164.03595,244.02583,162.93982,246.32867C161.14175,250.14719,160.87692,257.91,162.34225,263.1871C163.04507,265.75388,165.13742,270.32712,166.31802,271.90256C171.21687,278.3752,172.59981,279.91855,178.09047,285.25385C193.79962,300.57526,196.08563,302.51105,204.38269,307.71918C206.0769,308.76593,207.91962,310.07135,208.47748,310.61334C211.58807,313.5218,214.95442,318.10568,217.63112,323.04697C223.40077,333.70517,226.85182,338.14316,231.99446,341.42758C233.30952,342.27744,235.18416,343.78488,236.15388,344.7844C238.21693,346.95807,239.46815,347.7577,240.75479,347.7577C240.7698,347.7577,240.78482,347.75757,240.79985,347.75735C240.8199,347.75708,240.83998,347.75693,240.86008,347.75693C242.26149,347.75693,243.7628,348.44846,243.77267,349.13333C243.78427,349.94388,242.88548,351.86758,241.21593,354.5552C239.43346,357.44693,234.60847,366.20184,233.51326,368.56256C230.985,373.9549,229.29286,379.1037,228.01683,384.99924C227.50218,387.46738,227.4315,388.59763,227.53172,395.57346C227.59422,401.94186,227.70805,403.82224,228.1403,405.69785C228.44804,406.96725,228.81871,408.58322,228.9738,409.30478C229.4376,411.35373,230.33745,413.5411,231.97441,416.64438C233.6121,419.8055,234.04192,421.50766,233.57518,423.28036C233.30186,424.41342,231.27348,428.322,229.46129,431.15634C227.08342,434.92526,222.43102,445.61728,220.10103,452.71497C219.1852,455.47852,216.70674,462.31775,215.06123,466.68408C214.16908,469.07092,212.83046,472.6223,212.13423,474.5431C211.43806,476.46387,210.74062,478.29785,210.60036,478.6184C210.46028,478.93884,209.95876,480.30664,209.48622,481.67432C209.01314,483.01294,207.72578,486.10022,206.63142,488.5188C205.53658,490.9087,204.50044,493.35547,204.3058,493.90845C203.27711,496.87622,201.22481,501.1327,200.20058,502.3922C198.3384,504.6903,195.60663,505.837,191.92587,505.837C188.24068,505.837,183.6042,504.68753,177.93678,502.39343C173.16103,500.46448,169.4988,499.47473,164.71193,498.79077C161.70915,498.37274,158.11182,498.14798,154.96472,498.14798C152.97356,498.14798,151.16261,498.23798,149.79654,498.4259C144.71085,499.1068,141.56326,499.6731,139.54404,500.19434C137.55344,500.68616,136.74594,500.9004,129.5936,502.82703C124.71927,504.11304,124.54636,504.17334,119.93002,505.28186C117.70865,505.83496,115.024994,506.4525,113.98544,506.6411C112.07999,507.016,109.426125,507.69092,106.65818,508.4834C105.850685,508.69775,104.75443,508.974,104.20609,509.09778C103.65739,509.1925,102.41764,509.55774,101.46665,509.86084C98.325294,510.86133,95.900795,511.3883,88.767494,512.6199C87.814735,512.8074,85.53178,513.1007,83.71067,513.30054C81.889626,513.50037,78.9409,513.8032,77.20653,514.00183C75.60416,514.1827,72.876785,514.30804,70.849495,514.30804C70.646194,514.30804,70.449936,514.30676,70.26256,514.3042C65.48448,514.228,64.63951,513.8639,59.921127,509.8783C58.719345,508.8534,56.551254,507.06055,55.086903,505.89453C51.63048,503.10693,45.670643,497.34424,44.164783,495.31018C41.913155,492.3284,40.418446,491.1278,38.611546,491.1278C38.1449,491.1278,37.657433,491.2079,37.13073,491.35803C36.38073,491.54248,35.2882,492.07935,34.68627,492.4933C33.224846,493.55652,28.832512,498.16504,27.24267,500.35925C26.53271,501.32483,25.48205,502.75854,24.85705,503.57825C21.533075,507.99756,18.143429,513.89453,16.552608,518.02856C15.1845665,521.5513,14.912107,522.74225,14.673826,526.3068C14.344236,531.58075,13.782469,534.8023,12.9608135,536.05914C12.592894,536.6434,11.114867,538.54645,9.692504,540.304C8.270141,542.0616,6.7642813,544.0518,6.339965,544.75275C5.915405,545.42474,4.9250484,547.0313,4.1040034,548.3171C-1.0754393,556.5848,-4.2081294,564.2441,-5.798706,572.4313C-6.5249023,576.29224,-6.487915,584.91943,-5.711914,588.556C-4.562012,594.0406,-3.0677495,597.29047,-0.93127453,598.88116C0.18054868,599.69037,2.451056,600.2834,4.0926857,600.2834C4.524349,600.2834,4.912531,600.2424,5.224732,600.1535C6.810548,599.6965,7.067994,599.49005,14.2961445,592.7564C16.038942,591.139,17.312864,589.123,18.174437,586.6208C19.286009,583.39105,20.098143,581.46857,20.834105,580.3001C21.230589,579.68634,23.853758,576.8693,26.621456,574.05023C29.418331,571.23065,32.840694,567.6204,34.23608,566.008C35.632076,564.42474,37.744625,562.3388,38.918087,561.39545C40.1206,560.45184,41.294064,559.50836,41.52258,559.3024C41.75134,559.0966,42.580685,558.38983,43.381954,557.7414C44.154903,557.12225,46.297115,555.09393,48.12426,553.3016C50.88963,550.52277,51.963516,549.6558,53.37531,549.6558C53.813923,549.6558,54.28515,549.7395,54.849846,549.87555C55.618378,550.05286,56.489075,550.1416,57.306076,550.1416C58.3728,550.1416,59.347992,549.99036,59.884758,549.68756C60.344597,549.4493,61.657707,548.15643,62.85485,546.8365C66.15893,543.05426,65.379875,543.2392,80.80834,543.0467C83.540695,543.00745,85.99237,542.9886,88.11396,542.9886C92.30801,542.9886,95.2121,543.0624,96.4445,543.19855C98.03899,543.3493,101.37187,543.5909,103.89232,543.6995C106.38365,543.8084,110.20909,544.0721,112.44127,544.27167C121.44149,545.1462,125.89671,545.4272,132.58083,545.4272C134.18628,545.4272,135.92032,545.41095,137.87682,545.3829C144.33177,545.2902,148.90312,545.0799,150.46281,544.82587C154.88316,544.12024,163.18333,543.6438,169.54169,543.6438C171.78421,543.6438,173.7852,543.70306,175.28923,543.83246C178.33263,544.0782,182.07579,544.66144,184.19676,545.1811C184.83604,545.34564,186.46245,545.69867,187.82701,545.96857C189.19164,546.23846,191.80504,546.77985,193.63443,547.159C197.68848,548.0334,204.33524,548.8706,207.39609,548.8706C207.47081,548.8706,207.54338,548.8701,207.61374,548.8691C209.98734,548.835,212.7875,548.2736,215.35007,547.28143C218.60349,546.01886,224.04953,542.2059,227.67532,538.6506C230.38736,535.9771,235.51163,529.91046,237.78195,526.7222C242.66254,519.81946,245.62546,516.4764,251.03006,511.79535C262.64114,501.81415,264.69492,499.6712,268.40628,494.00116C270.07828,491.48737,273.77103,486.54156,275.42282,484.63593C278.1857,481.46954,281.18875,476.88104,281.76956,474.99078C281.9631,474.351,282.44052,473.33087,282.80814,472.7176C283.2413,471.98752,283.4929,471.73096,283.84845,471.73096C283.9338,471.73096,284.02512,471.74573,284.12637,471.77228C284.47537,471.88312,287.6724,474.7613,291.2247,478.1845C294.77658,481.5788,298.26932,484.8869,299.00165,485.4843C301.72784,487.8194,312.18207,498.09186,313.74414,500.0091C314.65723,501.09625,317.36176,503.95245,319.7409,506.32135C323.05957,509.6031,324.81793,511.08344,327.03815,512.47015C328.64508,513.4892,330.487,514.73663,331.10187,515.22003C332.30188,516.12933,334.9243,519.3053,337.75882,523.14417C338.6451,524.37634,340.94022,526.949,342.82065,528.8617C346.87497,532.97266,347.9432,534.78125,349.14145,539.5989C349.35666,540.46436,349.6639,541.70496,349.84677,542.33923C350.02957,542.9735,350.3481,544.9955,350.548,546.81665C350.77676,548.6373,351.00217,550.22644,351.0325,550.31287C351.09158,550.3988,351.33908,553.5221,351.56638,557.25366C352.02347,564.89026,353.01865,573.7063,353.69156,576.21533C353.93637,577.1383,354.51877,579.3882,354.9503,581.20593C356.11923,585.9952,358.42136,593.08417,359.6757,595.7587C359.82504,596.075,360.33664,597.4284,360.84787,598.75287C361.63034,600.8261,365.47324,608.35626,366.18088,609.2437C366.32797,609.4152,366.77267,610.1326,367.18826,610.8504C368.28708,612.77435,373.47147,620.98016,374.1509,621.92584C374.47604,622.38446,375.12656,623.3305,375.59964,624.0185C377.1091,626.31305,380.6293,631.53156,382.64084,634.51373C384.59283,637.3809,388.68414,644.0678,390.79413,647.8593C392.01172,649.9842,393.2603,652.2534,393.64575,652.8849C394.00226,653.5166,394.8344,655.01013,395.51715,656.1874C396.19995,657.3646,398.13507,661.07166,399.8625,664.4342C403.43658,671.3891,403.4668,671.4756,402.19183,675.4312C401.22278,678.5141,401.14642,681.2655,401.91748,684.555C402.74762,687.93036,404.49622,690.74255,408.46497,694.9415C410.0819,696.6553,410.99792,697.945,412.0711,700.10095C414.0381,704.0102,415.4712,707.02954,416.10138,708.5838C416.94147,710.6273,417.56635,711.80536,418.302,712.63446C419.48022,714.03613,421.96057,715.3902,424.1386,715.8511C425.05328,716.0484,425.5859,716.14923,426.03946,716.14923C426.52194,716.14923,426.91492,716.0351,427.58313,715.80164C430.4925,714.7755,432.823,713.75775,436.2426,711.97156C439.1164,710.4827,440.2345,709.7138,442.26215,707.7739C443.6333,706.48035,445.52002,704.80304,446.49335,704.0363C448.84076,702.1787,449.9505,700.83093,450.33453,699.34894C450.9638,696.7922,451.46814,695.62683,452.18347,695.03754C452.87067,694.5065,457.01727,692.94147,457.82776,692.9299C458.03033,692.92694,459.09723,692.62213,460.19177,692.23C464.94495,690.56946,477.6878,680.7745,485.9917,672.34607C490.47217,667.8232,491.40784,666.4489,493.1372,661.8787C493.44403,661.0638,494.05756,659.43365,494.5326,658.2398C495.75964,654.97955,496.5644,650.53827,496.41248,648.0218C496.12317,644.0015,494.37567,639.24976,492.5548,637.4519C491.40973,636.3391,490.5351,635.9176,488.5304,635.42505C488.08487,635.32043,487.63214,635.26434,487.15146,635.26434C484.87402,635.26434,481.96915,636.5241,476.23175,639.8576C474.88208,640.6298,473.10034,641.5528,471.40332,642.33C460.01477,647.6469,459.78406,647.7082,448.55804,648.21674C443.52356,648.4338,438.5205,648.82404,436.6139,649.1121C434.73373,649.42084,432.98495,649.57117,431.42126,649.57117C428.3246,649.57117,425.95374,648.9815,424.7257,647.8642C423.61127,646.86676,423.55127,646.72284,420.40912,637.5904C420.07574,636.5529,419.297,634.74005,418.73004,633.5612C415.8949,627.66693,415.2973,626.3726,414.06775,623.40814C413.3473,621.6236,412.38318,619.00287,411.9286,617.59076C411.50262,616.14935,410.92688,614.3625,410.68408,613.5844C410.4417,612.83514,410.2555,611.9692,410.25177,611.7087C410.24805,611.44806,409.9713,610.32306,409.66608,609.22723C409.08826,607.29584,408.68707,605.5644,407.1698,598.69586C406.79834,597.0219,406.1502,594.22284,405.7489,592.4915C405.31836,590.7316,404.76367,588.3945,404.4873,587.2984C403.9024,584.8748,400.50797,574.2982,399.0319,570.29517C398.1583,567.9337,396.36008,563.67456,395.0449,560.79834C394.74594,560.1367,394.11765,558.7272,393.03903,556.19495C392.1395,554.0364,391.017,550.4625,390.33743,547.49036C389.69046,544.7781,389.53482,537.9767,390.0073,534.58264C390.192,533.33496,390.32156,530.2643,390.2858,527.775C390.2596,523.9248,390.1288,522.8844,389.55093,520.9529C388.57736,517.6664,386.2551,513.2121,383.89368,510.06134C381.56177,506.93915,379.0808,503.52948,377.57385,501.40875C376.30298,499.60297,373.62762,494.7486,370.58875,488.77032C368.11597,483.91302,367.81775,483.30927,363.28088,473.82037C361.66956,470.48505,360.2378,467.5527,360.08887,467.26535C359.94,466.97787,359.07434,465.16623,358.20715,463.23898C357.33984,461.31186,355.93695,458.37875,355.13135,456.71115C354.29675,455.0439,353.2827,452.9741,352.86505,452.11154C348.6866,443.39908,346.69272,439.63492,344.82596,436.6508C344.4703,436.07693,343.9955,435.2731,343.78714,434.87064C343.60757,434.46805,343.3107,433.95108,343.13376,433.72208C342.98563,433.49258,341.85904,431.6558,340.64322,429.64664C338.6271,426.34622,336.9993,423.8798,334.78268,420.72684C333.217,418.5491,330.18246,414.88678,326.65195,410.97113C322.827,406.71222,320.81808,403.90387,319.5309,400.96918C318.84238,399.38678,318.74728,398.80914,318.73373,395.85626C318.68924,392.7591,318.7695,392.29462,319.82236,389.00812C320.4608,387.0882,321.49222,384.32294,322.13766,382.89496C324.27185,378.28983,326.9884,369.88394,328.21112,364.30765C329.02594,360.56107,329.51965,354.61893,329.72125,346.48062C329.8098,342.57095,330.0824,337.35574,330.27863,334.892C330.50378,332.42792,330.724,329.61652,330.79712,328.65997C330.97107,326.65973,331.9425,321.72406,332.93008,317.91718C333.86188,314.256,334.88977,309.23245,335.063,307.17447C335.365,304.0143,336.25775,297.63223,336.66443,295.7156C336.8811,294.67007,337.36395,291.9998,337.76648,289.7936C338.13928,287.53006,338.76978,285.0601,339.16254,284.18582C339.92084,282.55362,341.23267,281.1741,342.0432,281.1625C343.3462,281.17276,344.6477,283.09366,345.97614,286.89627C347.42664,291.13138,349.96222,296.33524,352.47998,300.29434C352.98328,301.069,353.6057,302.07315,353.8733,302.56155C355.71405,305.7488,359.80493,310.38016,361.937,311.68143C364.32877,313.1352,369.08887,314.24738,372.5497,314.24738C373.0614,314.24738,373.5447,314.22305,373.98776,314.17194C377.51425,313.77386,378.7476,312.97452,383.7148,308.06815C385.59818,306.15933,387.9409,303.9832,388.88528,303.21683C392.86264,299.94632,395.10947,297.13455,397.38882,292.55643C399.6967,287.94888,402.137,284.4976,407.00818,278.95584C408.5459,277.1678,410.3379,274.9417,410.98987,273.97687C412.9162,271.0251,415.42065,268.00714,416.82318,266.88678C421.48987,263.22968,424.5359,259.62506,427.64178,254.13739C428.40424,252.79474,429.53424,250.83868,430.15613,249.78766C432.3896,246.04974,432.91583,244.39201,432.87427,241.49748C432.8095,239.00847,432.77777,238.8062,431.71118,237.11345C430.20044,234.7321,427.47388,232.36809,424.76373,231.13322C421.41248,229.61797,415.53677,227.70477,413.7103,227.52838C413.4139,227.50305,413.16006,227.48798,412.92603,227.48798C412.01553,227.48798,411.40485,227.71591,409.75717,228.45355C408.49185,229.05083,406.7056,229.65556,405.78177,229.84245C404.02066,230.1862,403.5919,230.56877,402.2634,232.81718C401.6135,233.92668,401.50516,234.44939,401.5587,236.15666C401.58652,238.096,401.79825,238.73003,403.38394,242.29704C403.68332,242.98772,403.82535,244.80962,403.92044,249.41156L404.0383,255.60553L403.02744,257.79144C401.59525,260.88104,399.42654,263.08356,394.72348,266.2198C394.236,266.54523,393.60495,266.95966,393.28946,267.1668C390.96695,268.73468,389.02188,270.38385,386.39548,272.9693C382.99863,276.34747,380.9606,277.56387,377.92752,278.04166C377.37585,278.12854,376.91806,278.1822,376.5239,278.1822C375.03983,278.1822,374.4576,277.4216,373.16196,274.8095C372.41672,273.31488,371.7897,271.992,371.78806,271.87616C371.7864,271.7603,371.51675,271.12738,371.2181,270.49457C370.89017,269.83356,370.14285,268.19403,369.5729,266.81256C369.00296,265.43085,367.59677,262.26654,366.46072,259.7641C361.82745,249.61078,360.9572,247.48065,358.47852,240.1917C357.7224,237.94414,357.0855,235.92656,357.08173,235.6663C357.07843,235.43462,356.89563,234.80034,356.65662,234.28264C356.41754,233.76482,355.60272,231.4605,354.8169,229.15556C353.1529,224.17084,350.6798,219.28448,347.75427,215.15753C342.73087,208.07869,340.4188,206.34578,331.86185,203.1971C329.76657,202.44539,327.40775,201.49507,326.6204,201.10103C325.8041,200.70735,324.5792,200.08797,323.87955,199.75069C321.8967,198.76582,319.92905,196.82552,320.1201,196.01204C320.17252,195.63484,320.49777,194.09578,320.79465,192.58601C321.1204,191.0759,321.4907,188.63864,321.64407,187.21774C322.1506,182.17294,323.3437,178.56575,325.02917,176.9781C326.91418,175.18501,330.9218,174.0273,336.5914,173.6855C341.13297,173.41768,343.00784,172.92744,344.06265,171.78304C345.48703,170.17036,345.73843,169.52974,345.95236,166.28415C346.07132,164.48752,346.4169,162.34006,346.77823,161.29257C347.27676,159.72202,347.32846,159.28708,347.02274,158.1622C346.71628,156.97958,346.74234,156.7767,347.3915,155.60922C348.06955,154.4415,348.09396,154.12253,347.9932,151.14195C347.85233,147.38036,347.99295,147.08885,350.58426,146.09618C351.47696,145.765,352.56863,145.17027,353.02682,144.81627C353.7421,144.22679,353.8538,143.9359,353.8359,142.69115C353.8168,141.35973,353.60794,140.92833,351.41898,137.68822C348.28262,132.98535,347.6821,131.4884,347.63095,127.9281C347.60934,126.42297,347.75308,124.3363,347.9407,123.29127C348.12845,122.24647,348.2432,120.160286,348.2216,118.65516C348.17838,115.64467,348.08694,115.32765,345.64478,110.58557C344.87054,109.091194,343.79358,106.67469,343.22327,105.26441C341.72192,101.52211,341.2149,100.4872,340.18353,99.228165C339.6823,98.598404,339.0885,97.56459,338.90558,96.93031C337.93658,93.96218,336.78638,92.50222,334.0393,90.717674C329.33466,87.68741,324.91293,86.21646,316.55606,84.91788C312.67648,84.295685,309.94205,84.053474,305.78067,84.053474 Z" fill="inherit"/></g></g></svg>