<?xml version="1.0" encoding="UTF-8"?><svg xmlns="http://www.w3.org/2000/svg" xmlns:xlink="http://www.w3.org/1999/xlink" height="223.3" preserveAspectRatio="xMidYMid meet" version="1.0" viewBox="99.2 101.8 228.5 223.3" width="228.5" zoomAndPan="magnify"><g><g id="change1_2"><path d="M243.403,159.68c3.015,4.953,10.22,9.269,16.009,9.593l60.885,3.405c5.79,0.324,7.436,4.187,3.656,8.585 l-39.736,46.255c-3.777,4.398-5.658,12.583-4.177,18.189l15.577,58.958c1.479,5.606-1.684,8.365-7.035,6.13l-56.273-23.497 c-5.351-2.234-13.715-1.493-18.588,1.648l-51.26,33.033c-4.873,3.141-8.475,0.982-8.004-4.796l4.96-60.778 c0.473-5.779-2.819-13.506-7.312-17.171l-47.258-38.543c-4.493-3.664-3.554-7.757,2.089-9.095l59.336-14.065 c5.642-1.337,11.974-6.854,14.071-12.261l22.051-56.853c2.098-5.406,6.279-5.777,9.295-0.825L243.403,159.68z" fill="#EABA40"/></g><g id="change1_1"><path d="M304.701,128.776c-22.154,2.675-24.32,4.844-26.999,26.998c-2.674-22.154-4.842-24.323-26.997-26.998 c22.155-2.677,24.323-4.845,26.997-27C280.381,123.931,282.547,126.099,304.701,128.776z" fill="#EABA40"/></g><g id="change1_3"><path d="M153.211,270.506c-22.153,2.674-24.321,4.844-26.999,26.997c-2.674-22.153-4.842-24.323-26.997-26.997 c22.155-2.677,24.323-4.846,26.997-27C128.89,265.661,131.058,267.829,153.211,270.506z" fill="#EABA40"/></g></g></svg>