<?xml version="1.0" encoding="UTF-8"?><!-- Generator: Adobe Illustrator 23.0.3, SVG Export Plug-In . SVG Version: 6.00 Build 0)  --><svg xmlns="http://www.w3.org/2000/svg" enable-background="new 0 0 219.3 209.9" id="Layer_1" version="1.1" viewBox="0 0 219.3 209.9" x="0px" xml:space="preserve" y="0px">
<g id="change1_1"><path d="m111.2 1.8l32.4 63c0.5 0.9 1.4 1.6 2.5 1.7l70.3 9c2.7 0.3 3.8 3.6 1.9 5.5l-49.9 50.3c-0.8 0.8-1.1 1.8-0.9 2.9l13.1 69.7c0.5 2.6-2.2 4.7-4.6 3.5l-63.3-31.9c-1-0.5-2.1-0.5-3 0l-62.2 34c-2.4 1.3-5.2-0.7-4.8-3.3l10.8-70.1c0.2-1.1-0.2-2.1-1-2.9l-51.5-48.5c-2-1.8-0.9-5.1 1.7-5.6l70-11.4c1.1-0.2 2-0.8 2.4-1.8l30.3-64.1c1.2-2.4 4.6-2.4 5.8 0z" fill="#F4D3F0"/></g>
</svg>