<?xml version="1.0" encoding="UTF-8"?><svg xmlns="http://www.w3.org/2000/svg" xmlns:xlink="http://www.w3.org/1999/xlink" height="494.6" preserveAspectRatio="xMidYMid meet" version="1.0" viewBox="0.0 -1.2 389.4 494.6" width="389.4" zoomAndPan="magnify"><defs><clipPath id="a"><path d="M 0 59 L 389.398438 59 L 389.398438 493.378906 L 0 493.378906 Z M 0 59"/></clipPath></defs><g><g clip-path="url(#a)" id="change1_1"><path d="M 144.582031 67.726562 C 187.539062 84.683594 206.710938 82.960938 255.4375 92.90625 C 304.167969 102.855469 333.71875 130.003906 362.769531 166.253906 C 391.820312 202.503906 395.839844 262.941406 380.957031 284.945312 C 366.078125 306.945312 309.726562 386.914062 276.15625 417.023438 C 242.585938 447.136719 215.011719 501.296875 168.960938 492.40625 C 122.910156 483.519531 43.789062 377.945312 28.628906 337.886719 C 13.46875 297.828125 -0.347656 199.453125 0.0078125 159.324219 C 0.363281 119.199219 26.386719 76.816406 61.648438 65.957031 C 96.910156 55.101562 120.464844 58.203125 144.582031 67.726562" fill="#f08897"/></g><g id="change2_1"><path d="M 184.144531 61.664062 C 148.671875 25.976562 195.148438 10.253906 195.148438 10.253906 C 234.285156 28.800781 222.152344 67.375 222.152344 67.375 C 253.113281 51.722656 324.269531 51.9375 324.269531 51.9375 C 306.777344 88.394531 243.59375 75.839844 243.59375 75.839844 C 319.121094 96.367188 352.96875 128.3125 352.96875 128.3125 C 286.113281 132.894531 223.191406 87.097656 223.191406 87.097656 C 270.980469 153.148438 237.664062 185.007812 237.664062 185.007812 C 206.492188 154.117188 191.996094 81.84375 191.996094 81.84375 C 147.519531 124.726562 83.226562 105.449219 83.226562 105.449219 C 125.328125 69.417969 163.949219 74.664062 163.949219 74.664062 C 110.476562 62.140625 90.777344 0.0234375 90.777344 0.0234375 C 134.640625 -1.246094 184.144531 61.664062 184.144531 61.664062" fill="#324370"/></g></g></svg>