<?xml version="1.0" encoding="UTF-8"?><svg xmlns="http://www.w3.org/2000/svg" xmlns:xlink="http://www.w3.org/1999/xlink" height="429.4" preserveAspectRatio="xMidYMid meet" version="1.0" viewBox="0.0 0.0 353.7 429.4" width="353.7" zoomAndPan="magnify"><g id="change1_1"><path d="M193.1,143.7C90.1,119.2,16.2,151.8,28.2,245.6s48.3,181,91.2,182.4s186.4-60.3,186.4-179.7 S221.3,150.4,193.1,143.7z" fill="#E6333A"/></g><g id="change2_1"><path d="M121.6,183.3c0,0-73.8,14.1-121.6-62c0,0,57.4-54.3,115.7-17.4c0,0-45.1-38.6-22.5-103.9 c0,0,59.2,10.1,84.5,84.7c0,0,27.5-39.2,44.7-32.6s12.9,58.4,2.3,68.7c0,0,95.5-18.4,129,55.8c0,0-74.1,74.3-158.4,20 c0,0-31.3,78.3-63.6,64S121.6,183.3,121.6,183.3z" fill="#F2BCD6"/></g></svg>