<?xml version="1.0" encoding="UTF-8"?><svg xmlns="http://www.w3.org/2000/svg" xmlns:xlink="http://www.w3.org/1999/xlink" height="339.9" preserveAspectRatio="xMidYMid meet" version="1.0" viewBox="59.1 42.7 248.0 339.9" width="248.0" zoomAndPan="magnify"><g><g id="change1_1"><path d="M 227.128906 231.894531 L 108.277344 92.867188 C 105.476562 89.742188 100.679688 89.492188 97.558594 92.292969 C 94.4375 95.101562 94.175781 99.894531 96.980469 103.015625 L 207.152344 231.894531 L 227.128906 231.894531" fill="#b9b699"/></g><g id="change2_1"><path d="M 187.417969 158.230469 L 299.933594 158.230469 C 299.933594 96.578125 249.953125 46.601562 188.296875 46.601562 C 188.003906 46.601562 187.714844 46.617188 187.417969 46.625 L 187.417969 158.230469" fill="#61cbd8"/></g><g id="change2_2"><path d="M 84.152344 161.089844 C 84.152344 161.089844 102.355469 205.128906 111.058594 221.835938 C 116.871094 232.988281 121.257812 244.613281 133.839844 244.613281 L 250.253906 244.613281 C 262.824219 244.613281 267.832031 233.300781 273.023438 221.835938 C 280.8125 204.652344 299.933594 161.089844 299.933594 161.089844 L 84.152344 161.089844" fill="#61cbd8"/></g><g id="change3_1"><path d="M 195.015625 154.660156 L 195.015625 50.257812 C 195.015625 46.054688 191.613281 42.660156 187.417969 42.660156 C 183.230469 42.660156 179.824219 46.054688 179.824219 50.257812 L 179.824219 154.660156 L 195.015625 154.660156" fill="#346973"/></g><g id="change4_1"><path d="M 307.035156 158.230469 C 307.035156 162.425781 303.640625 165.828125 299.441406 165.828125 L 83.488281 165.828125 C 79.289062 165.828125 75.890625 162.425781 75.890625 158.230469 C 75.890625 154.042969 79.289062 150.640625 83.488281 150.640625 L 299.441406 150.640625 C 303.640625 150.640625 307.035156 154.042969 307.035156 158.230469" fill="#4c9da9"/></g><g id="change1_2"><path d="M 276.070312 326.234375 L 72.480469 92.160156 C 69.292969 89.4375 64.5 89.824219 61.777344 93.015625 C 59.058594 96.207031 59.441406 100.996094 62.640625 103.722656 L 253.304688 326.234375 L 276.070312 326.234375" fill="#b9b699"/></g><g id="change1_3"><path d="M 107.679688 96.929688 C 107.679688 100.570312 104.949219 103.527344 101.589844 103.527344 L 66.046875 103.527344 C 62.679688 103.527344 59.964844 100.570312 59.964844 96.929688 C 59.964844 93.300781 62.679688 90.347656 66.046875 90.347656 L 101.589844 90.347656 C 104.949219 90.347656 107.679688 93.300781 107.679688 96.929688" fill="#b9b699"/></g><g id="change1_4"><path d="M 177.964844 223.609375 C 164.015625 258.886719 149.992188 323.574219 149.992188 323.574219 L 163.984375 323.574219 L 190.5 235.386719 C 189.53125 235.066406 178.453125 224.355469 177.964844 223.609375" fill="#b9b699"/></g><g id="change3_2"><path d="M 285.480469 364.363281 C 287.460938 366.347656 287.460938 369.558594 285.480469 371.527344 C 283.5 373.511719 280.289062 373.511719 278.3125 371.527344 L 243.894531 337.109375 C 241.910156 335.132812 241.910156 331.921875 243.894531 329.953125 C 245.878906 327.96875 249.082031 327.96875 251.058594 329.953125 L 285.480469 364.363281" fill="#346973"/></g><g id="change4_2"><path d="M 251.058594 371.527344 C 249.082031 373.511719 245.878906 373.511719 243.894531 371.527344 C 241.910156 369.558594 241.910156 366.347656 243.894531 364.363281 L 278.3125 329.953125 C 280.289062 327.96875 283.5 327.96875 285.480469 329.953125 C 287.460938 331.921875 287.460938 335.132812 285.480469 337.109375 L 251.058594 371.527344" fill="#4c9da9"/></g><g id="change2_3"><path d="M 264.6875 373.546875 C 252.097656 373.546875 241.882812 363.332031 241.882812 350.738281 C 241.882812 338.148438 252.097656 327.933594 264.6875 327.933594 C 277.28125 327.933594 287.492188 338.148438 287.492188 350.738281 C 287.492188 363.332031 277.28125 373.546875 264.6875 373.546875 Z M 264.6875 318.949219 C 247.132812 318.949219 232.898438 333.183594 232.898438 350.738281 C 232.898438 368.304688 247.132812 382.539062 264.6875 382.539062 C 282.246094 382.539062 296.480469 368.304688 296.480469 350.738281 C 296.480469 333.183594 282.246094 318.949219 264.6875 318.949219" fill="#61cbd8"/></g><g id="change3_3"><path d="M 184.550781 364.363281 C 186.53125 366.347656 186.53125 369.558594 184.550781 371.527344 C 182.566406 373.511719 179.363281 373.511719 177.386719 371.527344 L 142.96875 337.109375 C 140.992188 335.132812 140.992188 331.921875 142.96875 329.953125 C 144.949219 327.96875 148.15625 327.96875 150.132812 329.953125 L 184.550781 364.363281" fill="#346973"/></g><g id="change4_3"><path d="M 150.132812 371.527344 C 148.15625 373.511719 144.949219 373.511719 142.96875 371.527344 C 140.992188 369.558594 140.992188 366.347656 142.96875 364.363281 L 177.386719 329.953125 C 179.363281 327.96875 182.566406 327.96875 184.550781 329.953125 C 186.53125 331.921875 186.53125 335.132812 184.550781 337.109375 L 150.132812 371.527344" fill="#4c9da9"/></g><g id="change2_4"><path d="M 161.238281 373.546875 C 148.644531 373.546875 138.433594 363.332031 138.433594 350.738281 C 138.433594 338.148438 148.644531 327.933594 161.238281 327.933594 C 173.832031 327.933594 184.042969 338.148438 184.042969 350.738281 C 184.042969 363.332031 173.832031 373.546875 161.238281 373.546875 Z M 161.238281 318.949219 C 143.679688 318.949219 129.445312 333.183594 129.445312 350.738281 C 129.445312 368.304688 143.679688 382.539062 161.238281 382.539062 C 178.789062 382.539062 193.027344 368.304688 193.027344 350.738281 C 193.027344 333.183594 178.789062 318.949219 161.238281 318.949219" fill="#61cbd8"/></g></g></svg>