<?xml version="1.0" encoding="UTF-8"?><svg xmlns="http://www.w3.org/2000/svg" xmlns:xlink="http://www.w3.org/1999/xlink" height="159.9" preserveAspectRatio="xMidYMid meet" version="1.1" viewBox="113.4 130.4 198.4 159.9" width="198.4" zoomAndPan="magnify">
 <g id="surface1">
  <g id="change1_1"><path d="m311.81 284.11c0 3.4-2.76 6.17-6.17 6.17h-186.08c-3.41 0-6.17-2.77-6.17-6.17v-120.25c0-3.41 2.76-6.17 6.17-6.17h186.08c3.41 0 6.17 2.76 6.17 6.17v120.25" fill="#2f497b"/></g>
  <g id="change2_1"><path d="m296.35 223.98c0 3.41-2.76 6.17-6.17 6.17h-155.16c-3.41 0-6.17-2.76-6.17-6.17l-15.46-60.12c0-3.41 2.76-6.17 6.17-6.17h186.08c3.41 0 6.17 2.76 6.17 6.17l-15.46 60.12" fill="#51558f"/></g>
  <g id="change3_1"><path d="m225.51 239.97h-25.82v-19.63h25.82v19.63" fill="#fbca48"/></g>
  <path d="m2435.2 2675.1v187.5c0 22.2-17.9 40.1-40.1 40.1h-538.2c-22.1 0-40.1-17.9-40.1-40.1v-187.5" fill="none" stroke="#3abdc4" stroke-miterlimit="10" stroke-width="90" transform="matrix(.1 0 0 -.1 0 425.2)"/>
 </g>
</svg>