<?xml version="1.0" encoding="iso-8859-1"?>
<!-- Generator: Adobe Illustrator 16.0.0, SVG Export Plug-In . SVG Version: 6.00 Build 0)  -->
<!DOCTYPE svg PUBLIC "-//W3C//DTD SVG 1.1//EN" "http://www.w3.org/Graphics/SVG/1.1/DTD/svg11.dtd">
<svg version="1.1" id="Layer_1" xmlns="http://www.w3.org/2000/svg" xmlns:xlink="http://www.w3.org/1999/xlink" x="0px" y="0px"
	 width="489.433px" height="489.435px" viewBox="0 0 489.433 489.435" style="enable-background:new 0 0 489.433 489.435;"
	 xml:space="preserve">
<g id="change1">
	<circle style="fill:#F4BC33;" cx="244.714" cy="244.713" r="166.606"/>
	<polygon style="fill:#F4BC33;" points="211.822,56.982 244.714,0 277.603,56.982 	"/>
	<polygon style="fill:#F4BC33;" points="122.365,98.581 122.354,32.788 179.331,65.689 	"/>
	<polygon style="fill:#F4BC33;" points="65.689,179.333 32.785,122.362 98.578,122.367 	"/>
	<polygon style="fill:#F4BC33;" points="56.982,277.605 0,244.721 56.982,211.828 	"/>
	<polygon style="fill:#F4BC33;" points="98.578,367.065 32.785,367.081 65.689,310.099 	"/>
	<polygon style="fill:#F4BC33;" points="179.331,423.741 122.359,456.65 122.365,390.852 	"/>
	<polygon style="fill:#F4BC33;" points="277.603,432.448 244.719,489.435 211.825,432.448 	"/>
	<polygon style="fill:#F4BC33;" points="367.062,390.852 367.078,456.645 310.096,423.741 	"/>
	<polygon style="fill:#F4BC33;" points="423.738,310.099 456.653,367.071 390.85,367.065 	"/>
	<polygon style="fill:#F4BC33;" points="432.445,211.828 489.433,244.711 432.445,277.605 	"/>
	<polygon style="fill:#F4BC33;" points="390.85,122.367 456.643,122.352 423.738,179.333 	"/>
	<polygon style="fill:#F4BC33;" points="310.096,65.692 367.068,32.782 367.062,98.581 	"/>
</g>
</svg>
