<?xml version="1.0" encoding="UTF-8"?><svg xmlns="http://www.w3.org/2000/svg" xmlns:xlink="http://www.w3.org/1999/xlink" height="283.8" preserveAspectRatio="xMidYMid meet" version="1.1" viewBox="67.2 70.4 290.8 283.8" width="290.8" zoomAndPan="magnify">
 <g id="surface1">
  <g id="change1_1"><path d="m276.74 354.17s-46.57-31.41-64.53-31.51c-17.95-0.1-64.87 30.8-64.87 30.8s-4.47-56-15.59-70.1c-11.12-14.09-64.527-31.51-64.527-31.51s40.987-38.42 45.077-55.9-15.589-70.09-15.589-70.09 55.589 8.09 71.809 0.39 45.09-55.898 45.09-55.898 28.32 48.508 44.46 56.388c16.13 7.88 71.81 0.4 71.81 0.4s-20.27 52.39-16.37 69.92 44.47 56.39 44.47 56.39-53.6 16.82-64.87 30.8-16.37 69.92-16.37 69.92" fill="#f69024"/></g>
  <g id="change2_1"><path d="m292.87 244.27c-12.89 45.32-60.07 71.61-105.39 58.72-45.31-12.89-71.6-60.08-58.71-105.39s60.07-71.6 105.39-58.71c45.31 12.88 71.6 60.06 58.71 105.38" fill="#fab919"/></g>
 </g>
</svg>