<?xml version="1.0" encoding="UTF-8"?><svg xmlns="http://www.w3.org/2000/svg" xmlns:xlink="http://www.w3.org/1999/xlink" height="300.8" preserveAspectRatio="xMidYMid meet" version="1.1" viewBox="62.2 61.9 300.8 300.8" width="300.8" zoomAndPan="magnify">
 <g id="surface1">
  <g id="change1_1"><path d="m297.9 212.26c0 47.12-38.19 85.31-85.3 85.31s-85.3-38.19-85.3-85.31c0-47.11 38.19-85.3 85.3-85.3s85.3 38.19 85.3 85.3" fill="#fab919"/></g>
  <g id="change2_1"><path d="m212.6 114.71c-1.66 0-3-1.34-3-3v-46.847c0-1.66 1.34-3 3-3s3 1.34 3 3v46.847c0 1.66-1.34 3-3 3" fill="#f69024"/></g>
  <g id="change2_2"><path d="m212.6 362.66c-1.66 0-3-1.34-3-3v-46.85c0-1.66 1.34-3 3-3s3 1.34 3 3v46.85c0 1.66-1.34 3-3 3" fill="#f69024"/></g>
  <g id="change2_3"><path d="m360 215.26h-46.85c-1.66 0-3-1.34-3-3 0-1.65 1.34-3 3-3h46.85c1.66 0 3 1.35 3 3 0 1.66-1.34 3-3 3" fill="#f69024"/></g>
  <g id="change2_4"><path d="m112.05 215.26h-46.851c-1.656 0-3-1.34-3-3 0-1.65 1.344-3 3-3h46.851c1.66 0 3 1.35 3 3 0 1.66-1.34 3-3 3" fill="#f69024"/></g>
  <g id="change2_5"><path d="m283.7 144.16c-0.77 0-1.54-0.29-2.13-0.87-1.17-1.18-1.17-3.08 0-4.25l33.14-33.13c1.17-1.17 3.07-1.17 4.24 0 1.17 1.18 1.17 3.07 0 4.25l-33.13 33.13c-0.59 0.58-1.36 0.87-2.12 0.87" fill="#f69024"/></g>
  <g id="change2_6"><path d="m108.37 319.49c-0.76 0-1.53-0.29-2.12-0.88-1.17-1.17-1.17-3.07 0-4.24l33.13-33.13c1.17-1.17 3.07-1.17 4.24 0s1.17 3.07 0 4.24l-33.12 33.13c-0.59 0.59-1.36 0.88-2.13 0.88" fill="#f69024"/></g>
  <g id="change2_7"><path d="m316.83 319.49c-0.77 0-1.54-0.29-2.12-0.88l-33.14-33.13c-1.17-1.17-1.17-3.07 0-4.24 1.18-1.17 3.08-1.17 4.25 0l33.13 33.13c1.17 1.17 1.17 3.07 0 4.24-0.59 0.59-1.35 0.88-2.12 0.88" fill="#f69024"/></g>
  <g id="change2_8"><path d="m141.5 144.16c-0.77 0-1.54-0.29-2.12-0.87l-33.13-33.13c-1.17-1.18-1.17-3.07 0-4.25 1.17-1.17 3.07-1.17 4.25 0l33.12 33.13c1.17 1.17 1.17 3.07 0 4.25-0.58 0.58-1.35 0.87-2.12 0.87" fill="#f69024"/></g>
  <g id="change2_9"><path d="m305.18 176.03c-1.17 0-2.28-0.69-2.77-1.83-0.64-1.53 0.07-3.29 1.6-3.93l43.13-18.29c1.53-0.64 3.29 0.07 3.94 1.59 0.65 1.53-0.07 3.29-1.59 3.94l-43.14 18.28c-0.39 0.16-0.78 0.24-1.17 0.24" fill="#f69024"/></g>
  <g id="change2_10"><path d="m76.887 272.78c-1.168 0-2.282-0.69-2.766-1.83-0.644-1.53 0.067-3.29 1.594-3.93l43.135-18.29c1.53-0.64 3.29 0.07 3.94 1.59 0.64 1.53-0.07 3.29-1.59 3.94l-43.145 18.28c-0.383 0.16-0.778 0.24-1.168 0.24" fill="#f69024"/></g>
  <g id="change2_11"><path d="m270.12 350.98c-1.17 0-2.28-0.69-2.76-1.83l-18.29-43.14c-0.64-1.53 0.07-3.29 1.59-3.93 1.53-0.65 3.29 0.06 3.94 1.59l18.28 43.14c0.65 1.52-0.07 3.28-1.59 3.93-0.38 0.16-0.78 0.24-1.17 0.24" fill="#f69024"/></g>
  <g id="change2_12"><path d="m173.37 122.69c-1.17 0-2.28-0.69-2.76-1.83l-18.29-43.141c-0.64-1.528 0.07-3.285 1.59-3.934 1.53-0.648 3.29 0.067 3.94 1.594l18.28 43.141c0.64 1.52-0.07 3.28-1.59 3.93-0.38 0.16-0.78 0.24-1.17 0.24" fill="#f69024"/></g>
  <g id="change2_13"><path d="m349.45 270.01c-0.37 0-0.74-0.06-1.11-0.21l-43.5-17.41c-1.54-0.61-2.29-2.36-1.67-3.89 0.62-1.54 2.36-2.29 3.9-1.68l43.5 17.41c1.54 0.61 2.29 2.36 1.67 3.89-0.47 1.18-1.6 1.89-2.79 1.89" fill="#f69024"/></g>
  <g id="change2_14"><path d="m119.25 177.92c-0.37 0-0.75-0.07-1.12-0.22l-43.497-17.4c-1.539-0.62-2.289-2.37-1.672-3.9 0.617-1.54 2.363-2.29 3.898-1.67l43.501 17.4c1.54 0.62 2.29 2.36 1.67 3.9-0.47 1.17-1.59 1.89-2.78 1.89" fill="#f69024"/></g>
  <g id="change2_15"><path d="m157.85 352.12c-0.37 0-0.75-0.07-1.12-0.22-1.53-0.61-2.28-2.36-1.66-3.9l17.4-43.5c0.62-1.54 2.36-2.29 3.9-1.67s2.29 2.36 1.67 3.9l-17.4 43.5c-0.47 1.17-1.6 1.89-2.79 1.89" fill="#f69024"/></g>
  <g id="change2_16"><path d="m249.95 121.91c-0.38 0-0.75-0.07-1.12-0.21-1.54-0.62-2.28-2.37-1.67-3.91l17.41-43.497c0.61-1.539 2.36-2.285 3.89-1.672 1.54 0.617 2.29 2.363 1.68 3.899l-17.41 43.5c-0.47 1.18-1.59 1.89-2.78 1.89" fill="#f69024"/></g>
  <g id="change2_17"><path d="m192.22 113.74c-1.4 0-2.65-0.98-2.94-2.41l-4.78-23.822c-0.33-1.625 0.72-3.207 2.35-3.535 1.62-0.325 3.2 0.726 3.53 2.351l4.78 23.826c0.33 1.62-0.72 3.21-2.35 3.53-0.2 0.04-0.4 0.06-0.59 0.06" fill="#f69024"/></g>
  <g id="change2_18"><path d="m237.76 340.61c-1.4 0-2.65-0.99-2.94-2.41l-4.78-23.82c-0.33-1.63 0.73-3.21 2.35-3.54 1.63-0.32 3.2 0.73 3.53 2.35l4.78 23.83c0.33 1.62-0.72 3.2-2.34 3.53-0.21 0.04-0.41 0.06-0.6 0.06" fill="#f69024"/></g>
  <g id="change2_19"><path d="m314.12 194.88c-1.4 0-2.66-0.98-2.94-2.41-0.32-1.62 0.73-3.2 2.35-3.53l23.83-4.78c1.62-0.33 3.2 0.72 3.53 2.35 0.32 1.62-0.73 3.2-2.35 3.53l-23.83 4.78c-0.2 0.04-0.4 0.06-0.59 0.06" fill="#f69024"/></g>
  <g id="change2_20"><path d="m87.25 240.43c-1.398 0-2.652-0.99-2.938-2.41-0.328-1.63 0.727-3.21 2.352-3.54l22.816-4.58c1.62-0.32 3.2 0.73 3.53 2.35 0.33 1.63-0.73 3.21-2.35 3.54l-22.816 4.58c-0.199 0.04-0.399 0.06-0.594 0.06" fill="#f69024"/></g>
  <g id="change2_21"><path d="m269.97 129.07c-0.57 0-1.15-0.17-1.66-0.51-1.38-0.92-1.75-2.78-0.83-4.16l13.46-20.23c0.92-1.38 2.78-1.75 4.16-0.83s1.76 2.78 0.84 4.16l-13.47 20.23c-0.58 0.86-1.53 1.34-2.5 1.34" fill="#f69024"/></g>
  <g id="change2_22"><path d="m141.76 321.69c-0.57 0-1.15-0.16-1.66-0.5-1.38-0.92-1.76-2.78-0.84-4.16l13.09-19.66c0.92-1.38 2.78-1.75 4.16-0.84 1.38 0.92 1.75 2.78 0.83 4.16l-13.08 19.66c-0.58 0.87-1.53 1.34-2.5 1.34" fill="#f69024"/></g>
  <g id="change2_23"><path d="m319.02 286.1c-0.57 0-1.14-0.16-1.66-0.5l-20.51-13.65c-1.38-0.92-1.75-2.79-0.83-4.16 0.91-1.38 2.78-1.76 4.16-0.84l20.51 13.66c1.38 0.91 1.75 2.78 0.83 4.16-0.57 0.86-1.53 1.33-2.5 1.33" fill="#f69024"/></g>
  <g id="change2_24"><path d="m126.11 157.7c-0.57 0-1.15-0.16-1.66-0.5l-19.93-13.28c-1.39-0.92-1.76-2.78-0.84-4.16s2.78-1.75 4.16-0.83l19.94 13.27c1.38 0.92 1.75 2.78 0.83 4.16-0.57 0.87-1.52 1.34-2.5 1.34" fill="#f69024"/></g>
  <g id="change2_25"><path d="m297.84 157.08c-0.96 0-1.9-0.46-2.48-1.31-0.93-1.37-0.58-3.24 0.78-4.17l20.36-13.9c1.37-0.93 3.23-0.58 4.17 0.79s0.58 3.24-0.79 4.17l-20.35 13.89c-0.52 0.36-1.11 0.53-1.69 0.53" fill="#f69024"/></g>
  <g id="change2_26"><path d="m107.01 287.34c-0.96 0-1.9-0.46-2.48-1.31-0.93-1.37-0.58-3.23 0.79-4.17l19.5-13.31c1.37-0.94 3.24-0.58 4.17 0.79 0.94 1.36 0.58 3.23-0.79 4.16l-19.5 13.32c-0.52 0.35-1.11 0.52-1.69 0.52" fill="#f69024"/></g>
  <g id="change2_27"><path d="m284.68 320.86c-0.95 0-1.9-0.47-2.48-1.32l-13.7-20.07c-0.93-1.36-0.58-3.23 0.79-4.17 1.37-0.93 3.23-0.58 4.17 0.79l13.7 20.07c0.93 1.37 0.58 3.23-0.79 4.17-0.51 0.35-1.1 0.53-1.69 0.53" fill="#f69024"/></g>
  <g id="change2_28"><path d="m154.23 129.74c-0.96 0-1.91-0.45-2.49-1.31l-13.7-20.07c-0.93-1.37-0.58-3.23 0.79-4.17 1.37-0.93 3.24-0.58 4.17 0.79l13.7 20.07c0.93 1.37 0.58 3.24-0.79 4.17-0.52 0.35-1.1 0.52-1.68 0.52" fill="#f69024"/></g>
  <g id="change2_29"><path d="m338.33 238.46c-0.18 0-0.37-0.02-0.55-0.05l-24.23-4.47c-1.63-0.3-2.71-1.87-2.41-3.5s1.86-2.71 3.5-2.4l24.23 4.47c1.63 0.3 2.71 1.86 2.41 3.49-0.27 1.45-1.53 2.46-2.95 2.46" fill="#f69024"/></g>
  <g id="change2_30"><path d="m110.1 196.35c-0.18 0-0.36-0.01-0.55-0.05l-23.218-4.28c-1.629-0.31-2.707-1.87-2.406-3.5s1.863-2.71 3.492-2.41l23.222 4.29c1.63 0.3 2.71 1.87 2.41 3.49-0.27 1.45-1.53 2.46-2.95 2.46" fill="#f69024"/></g>
  <g id="change2_31"><path d="m189.41 340.99c-0.18 0-0.36-0.02-0.55-0.05-1.63-0.3-2.7-1.87-2.41-3.5l4.35-23.56c0.3-1.63 1.86-2.71 3.5-2.4 1.63 0.3 2.7 1.86 2.4 3.49l-4.34 23.56c-0.27 1.45-1.53 2.46-2.95 2.46" fill="#f69024"/></g>
  <g id="change2_32"><path d="m231.39 113.44c-0.18 0-0.36-0.02-0.55-0.05-1.63-0.3-2.7-1.87-2.4-3.5l4.41-23.898c0.3-1.629 1.86-2.707 3.49-2.406s2.71 1.867 2.41 3.496l-4.41 23.898c-0.27 1.45-1.53 2.46-2.95 2.46" fill="#f69024"/></g>
 </g>
</svg>