<?xml version="1.0" encoding="UTF-8"?>
<svg xmlns="http://www.w3.org/2000/svg"
  xmlns:xlink="http://www.w3.org/1999/xlink" height="251.8" preserveAspectRatio="xMidYMid meet" version="1.0" viewBox="86.8 86.7 254.3 251.8" width="254.3" zoomAndPan="magnify">
  <g fill="#ec6408" id="change1_1">
    <path d="M177.87,301.24l-21.52-37.68c-0.02,0.05-0.03,0.11-0.05,0.16c-0.02-0.05-0.03-0.11-0.05-0.16l-21.52,37.68 l-21.52,37.27h0.93c13.95-3.34,23.96-8.29,34.05-25.58c3.84-6.58,6.43-12.57,8.1-18.06c1.66,5.49,4.26,11.48,8.1,18.06 c10.09,17.29,20.1,22.24,34.05,25.58h0.93L177.87,301.24z" fill="#ec6408"/>
    <path d="M129.2,293.52l23.97-43.32c1.34-2.42,4.82-2.42,6.17,0l23.97,43.32l24.9,44.99h19.26l-35.61-61.67 l-31.55-54.64c-1.8-3.12-6.31-3.12-8.11,0l-31.55,54.64l-32.43,56.18c-1.41,2.44,0.35,5.49,3.17,5.49h12.92L129.2,293.52z" fill="#ec6408"/>
    <path d="M339.71,332.43L277.7,217.48c-0.71-1.42-2.16-2.32-3.75-2.32h-99.5c-3.23,0-5.25,3.5-3.63,6.29l31.97,55.38 l34.39,59.57c0.75,1.3,2.14,2.1,3.63,2.1h95.14C339.08,338.5,341.11,335.22,339.71,332.43z M283.02,288.45h-34.93 c-0.76,0-1.45-0.43-1.79-1.11l-20.7-41.26c-0.67-1.34,0.3-2.91,1.79-2.91h34.93c0.76,0,1.45,0.43,1.79,1.11l20.7,41.26 C285.48,286.88,284.51,288.45,283.02,288.45z" fill="#ec6408"/>
    <path d="M283.19 199.2L283.19 218.32 301.54 250.44 301.54 199.2z" fill="#ec6408"/>
    <path d="M317.08,161.25l-0.96-1.31h17.44c1.43,0,2.21-1.67,1.29-2.76l-20.09-24.04l-3.02-3.61 c-0.92-1.1-0.14-2.76,1.29-2.76h8.73c1.41,0,2.2-1.64,1.31-2.74l-14.25-17.69l-15.15-18.8c-0.67-0.84-1.95-0.84-2.62,0l-15.15,18.8 l-14.25,17.69c-0.89,1.1-0.1,2.74,1.31,2.74h8.73c1.43,0,2.21,1.67,1.29,2.76l-3.02,3.61l-20.09,24.04 c-0.92,1.1-0.14,2.76,1.29,2.76h17.44l-0.96,1.31l-22.76,31.16c-0.81,1.11-0.02,2.67,1.36,2.67h46.11h46.11 c1.38,0,2.17-1.56,1.36-2.67L317.08,161.25z" fill="#ec6408"/>
    <path d="M171.33,176.22l0.79-1.08h-14.27c-1.17,0-1.81-1.36-1.06-2.26l16.44-19.67l2.47-2.96 c0.75-0.9,0.11-2.26-1.06-2.26h-7.15c-1.16,0-1.8-1.34-1.07-2.24l11.66-14.48l12.4-15.39c0.55-0.68,1.59-0.68,2.14,0l12.4,15.39 l11.66,14.48c0.73,0.9,0.08,2.24-1.07,2.24h-7.15c-1.17,0-1.81,1.36-1.06,2.26l2.47,2.96l16.44,19.67c0.75,0.9,0.11,2.26-1.06,2.26 h-14.27l0.79,1.08l18.62,25.5c0.66,0.91,0.01,2.19-1.11,2.19h-37.73h-37.73c-1.13,0-1.78-1.28-1.11-2.19L171.33,176.22z" fill="#ec6408"/>
  </g>
</svg>