<?xml version="1.0" encoding="UTF-8"?><svg xmlns="http://www.w3.org/2000/svg" xmlns:xlink="http://www.w3.org/1999/xlink" height="352.0" preserveAspectRatio="xMidYMid meet" version="1.0" viewBox="1.8 5.0 496.5 352.0" width="496.5" zoomAndPan="magnify"><g id="change1_1"><path d="M467.6,276.2L253,7c-0.8-1.2-2.2-1.9-3.6-1.9c-1.4,0-2.8,0.7-3.6,1.9L31.4,276c-0.8,1.2-1,2.7-0.5,4.1 c6.5,16.8,18.5,47.4,25.5,64.3c0.7,1.6,2.3,2.6,4.1,2.6h378c1.8,0,3.4-1,4.1-2.6c7-16.8,19-47.4,25.5-64.1 C468.6,278.9,468.4,277.4,467.6,276.2z" fill="#00A99D"/></g><g fill="#42210B" id="change2_1"><path d="M55,357c-2.5-2.1-36.6-90.7-36.6-90.7L1.8,287.1L42.6,357H55z" fill="inherit"/><path d="M445.1,357c2.5-2.1,36.6-90.7,36.6-90.7l16.6,20.8L457.5,357H445.1z" fill="inherit"/></g><g id="change3_1"><path d="M445.1,357c2.5-2.1,36.6-90.7,36.6-90.7l16.6,20.8L457.5,357H445.1z" fill="inherit" opacity=".35"/><path d="M249.4,347h189.1c1.8,0,3.4-1,4.1-2.6c7-16.8,19-47.4,25.5-64.1c0.5-1.4,0.3-2.9-0.5-4.1L253,7 c-0.8-1.2-2.2-2-3.6-2L249.4,347z" fill="inherit" opacity=".35"/><path d="M172.1,333c-0.1-1-0.2-1.2-0.3-1.8c-1.8-11.1-3.4-21.8-3.4-34c0-76.2,36.1-138,80.6-138s80.6,61.8,80.6,138 c0,11.1-2.2,25.8-3.6,35.8H172.1z" fill="inherit" opacity=".4"/></g></svg>