<?xml version="1.0" encoding="UTF-8"?><svg xmlns="http://www.w3.org/2000/svg" xmlns:xlink="http://www.w3.org/1999/xlink" height="195.1" preserveAspectRatio="xMidYMid meet" version="1.1" viewBox="113.4 114.7 198.4 195.1" width="198.4" zoomAndPan="magnify">
 <g id="surface1">
  <g id="change1_1"><path d="m311.81 227.96c0 45.16-44.42 81.78-99.21 81.78-54.8 0-99.21-36.62-99.21-81.78s44.41-81.77 99.21-81.77c54.79 0 99.21 36.61 99.21 81.77" fill="#ec3846"/></g>
  <g id="change2_1"><path d="m143.22 167.49c15.2 1.56 30.89-10.07 45.53-7.37-6.65 9.94-17.19 19.4-22.7 30.57 14.33-4.88 24.29-19.46 37.98-24.77 6.33 11.14 11.2 24.91 18.06 35.06 0.04-11.38 0.58-22.39 0.75-34.03 4.05 5.06 12 9.61 17.75 12.34 6.04 2.86 16.96 9 23.42 8.82-2.67-5.59-8.14-10.5-12.99-14.36-3.88-3.11-11.01-10.99-15.61-11.68 15.5 2.95 30.95 5.19 46.57 3.82-9.84-11.29-27.53-15.57-41.16-17.7-16.03-2.51-33.61-2.42-49.76-1.05-8.83 0.76-17.79 4.79-25.72 8.5-4.63 2.16-17.41 12.33-22.12 11.85" fill="#5aa227"/></g>
  <g id="change3_1"><path d="m224.64 119.83c1.63-2.06 2.9-5.15 5.89-4.19 1.51 0.48 4.47 2.63 5.55 3.8 3.19 3.45-2.46 7.4-4.68 10.33-4.45 5.86-8.48 12.42-10.55 19.39-0.61 2.05-1.37 7.43-3.61 8.63-3.1 1.66-6.06-2.21-6.28-5.02-0.24-3.09 1.25-7.4 2.04-10.37 2.2-8.2 6.37-15.94 11.64-22.57" fill="#47801e"/></g>
 </g>
</svg>