<?xml version="1.0" encoding="utf-8"?>
<!-- Generator: Adobe Illustrator 16.0.0, SVG Export Plug-In . SVG Version: 6.00 Build 0)  -->
<!DOCTYPE svg PUBLIC "-//W3C//DTD SVG 1.1//EN" "http://www.w3.org/Graphics/SVG/1.1/DTD/svg11.dtd">
<svg version="1.1" id="Layer_1" xmlns="http://www.w3.org/2000/svg" xmlns:xlink="http://www.w3.org/1999/xlink" x="0px" y="0px"
	 width="515.949px" height="232.424px" viewBox="0 0 515.949 232.424" enable-background="new 0 0 515.949 232.424"
	 xml:space="preserve">
<g id="change1">
	<path fill="#60B6C6" d="M109.627,179.124c0,0-1.65,48.425-18.165,47.678c-16.509-0.756-61.091-14.164-58.612-28.41
		c2.478-14.24,53.661-49.506,53.661-49.506L109.627,179.124z"/>
	<path fill="#60B6C6" d="M332.85,167.255c0,0,1.65,48.426,18.164,47.678c16.51-0.756,61.092-14.164,58.613-28.41
		c-2.479-14.239-53.661-49.506-53.661-49.506L332.85,167.255z"/>
	<path fill="#60B6C6" d="M368.542,99.53c0,0,15.94-11.051,18.235-22.92c2.296-11.869,25.5-61.745,49.568-66.073
		c24.067-4.329,45.693-3.71,62.555,19.094c7.451,10.072,15.838,51.918,0.359,61.599c-26.412,16.514-54.333-12.279-54.333-12.279
		s0.703,6.789,14.071,14.948c13.369,8.159,29.474,3.328,35.417,4.88c4.752,1.242-35.666,25.719-74.001,33.953
		c-38.331,8.235-61.051,3.174-61.051,3.174L368.542,99.53z"/>
</g>
<g id="change2">
	<path fill="#ACC837" d="M11.188,96.381c0,0,0,0,21.639-6.833c21.639-6.834,99.084-72.89,159.445-70.611
		c60.36,2.277,86.556,13.666,96.806,18.222c10.25,4.556,80.861,47.834,91.111,45.556c10.25-2.277,3.416-1.139,10.25-2.277
		c6.832-1.139-14.316,48.945-74.679,80.834c-60.361,31.89-71.75,46.694-177.667,28.473C32.177,171.522,11.188,96.381,11.188,96.381z
		"/>
</g>
<g id="change3">
	<polygon fill="#599641" points="206.435,178.537 200.812,108.791 148.345,58.606 148.345,25.743 152.901,25.743 152.901,56.657 
		205.211,106.695 210.977,178.172 	"/>
	<polygon fill="#599641" points="27.685,115.337 25.167,111.538 64.521,85.464 112.239,85.464 149.199,55.854 152.046,59.409 
		113.84,90.019 65.891,90.019 	"/>
	<polygon fill="#599641" points="204.544,109.427 201.479,106.06 252.965,59.171 293.447,88.747 342.548,75.616 373.076,102.62 
		370.061,106.032 341.365,80.647 292.521,93.712 253.281,65.044 	"/>
	
		<rect x="103.932" y="87.009" transform="matrix(-0.9775 -0.2108 0.2108 -0.9775 184.8644 258.4645)" fill="#599641" width="4.556" height="64.738"/>
	
		<rect x="273.445" y="114.405" transform="matrix(-0.2591 -0.9658 0.9658 -0.2591 264.8048 436.4942)" fill="#599641" width="52.74" height="4.558"/>
	
		<rect x="55.483" y="78.38" transform="matrix(-0.3062 -0.952 0.952 -0.3062 5.4048 165.257)" fill="#599641" width="14.88" height="4.557"/>
	
		<rect x="251.974" y="25.706" transform="matrix(-0.998 -0.0626 0.0626 -0.998 505.2549 103.6765)" fill="#599641" width="4.555" height="36.433"/>
	<rect x="339.679" y="66.48" fill="#599641" width="4.556" height="11.651"/>
	<path fill="#599641" d="M11.678,91.229c13.177-6.176,95.667,103.069,210.694,81.431C337.4,151.021,374.984,76.352,390.93,80.659
		c15.943,4.306-47.266,133.035-198.737,127.342C40.72,202.308-6.544,99.771,11.678,91.229z"/>
</g>
<g id="change4">
	<path fill="#FFF2EB" d="M486.449,46.532c-1.429,7.501-8.681,12.416-16.197,10.993c-7.506-1.429-12.435-8.667-11.007-16.176
		c1.424-7.501,8.671-12.443,16.185-11.024C482.948,31.749,487.877,39.022,486.449,46.532z"/>
</g>
<g id="change5">
	<path fill="#3D1510" d="M486.507,42.452c-1.062,5.65-6.514,9.343-12.163,8.258c-5.649-1.06-9.364-6.505-8.293-12.146
		c1.077-5.668,6.531-9.378,12.182-8.293C483.882,31.349,487.592,36.812,486.507,42.452z"/>
</g>
</svg>
