<?xml version="1.0" encoding="UTF-8"?><svg xmlns="http://www.w3.org/2000/svg" xmlns:xlink="http://www.w3.org/1999/xlink" height="255.1" preserveAspectRatio="xMidYMid meet" version="1.0" viewBox="101.9 85.0 221.3 255.1" width="221.3" zoomAndPan="magnify"><g fill="#ec6408"><g id="change1_2"><path d="M300.64,154.79L300.64,154.79c-0.44,0-0.87,0.05-1.29,0.12v-30.69c0-12.12-9.91-22.03-22.03-22.03h-32.28 v-6.84c0-5.67-4.64-10.31-10.31-10.31h-42.25c-5.67,0-10.31,4.64-10.31,10.31v6.84h-32.28c-12.12,0-22.03,9.91-22.03,22.03v31.33 c-1-0.48-2.11-0.77-3.29-0.77c-4.17,0-7.57,3.41-7.57,7.57v23.44c0,4.17,3.41,7.57,7.57,7.57c1.18,0,2.29-0.28,3.29-0.77v47.66 c0,18.38,15.04,33.42,33.42,33.42h104.66c18.38,0,33.42-15.04,33.42-33.42v-47.02c0.42,0.07,0.85,0.12,1.29,0.12l0,0 c4.17,0,7.57-3.41,7.57-7.57v-23.44C308.21,158.19,304.8,154.79,300.64,154.79z M196.16,97.89c0-0.47,0.38-0.85,0.85-0.85h33.18 c0.47,0,0.85,0.38,0.85,0.85v8.59c0,0.47-0.38,0.85-0.85,0.85h-33.18c-0.47,0-0.85-0.38-0.85-0.85V97.89z M173.73,241.39 c-7.42,0-13.43-6.01-13.43-13.43c0-7.42,6.01-13.43,13.43-13.43c7.42,0,13.43,6.01,13.43,13.43 C187.16,235.38,181.15,241.39,173.73,241.39z M253.48,241.39c-7.42,0-13.43-6.01-13.43-13.43c0-7.42,6.01-13.43,13.43-13.43 c7.42,0,13.43,6.01,13.43,13.43C266.91,235.38,260.89,241.39,253.48,241.39z M274.87,150.8c-4,11.77-8.08,24.43-12.18,37.74 c-1.67,5.42-6.67,9.12-12.34,9.12h-73.5c-5.67,0-10.67-3.7-12.34-9.12c-4.1-13.31-8.18-25.97-12.18-37.74 c-2.41-7.1,1.72-14.71,8.96-16.65c34.27-9.16,70.35-9.16,104.62,0C273.15,136.09,277.28,143.7,274.87,150.8z" fill="inherit"/></g><g id="change1_3"><path d="M265.04,243.04h-2.51l0.55,1.68C263.79,244.22,264.44,243.66,265.04,243.04z" fill="inherit"/></g><g id="change1_4"><path d="M323.26,340.16l-28.24-72.42c-5.01,6.26-12.12,10.76-20.25,12.4l19.8,60.02H323.26z" fill="inherit"/></g><g id="change1_5"><path d="M247.43,245.05l-0.66-2H245C245.73,243.8,246.55,244.47,247.43,245.05z" fill="inherit"/></g><g id="change1_6"><path d="M278.82 340.16L259.24 280.82 170.64 280.82 151.06 340.16z" fill="inherit"/></g><g id="change1_1"><path d="M162.24,243.04c1.18,1.22,2.58,2.22,4.13,2.94l0.97-2.94H162.24z" fill="inherit"/><path d="M135.3,340.16l19.67-59.62c-9.93-1.26-18.59-6.76-24.08-14.62l-28.96,74.24H135.3z" fill="inherit"/></g></g></svg>