<?xml version="1.0" encoding="UTF-8"?><svg xmlns="http://www.w3.org/2000/svg" xmlns:xlink="http://www.w3.org/1999/xlink" height="200.4" preserveAspectRatio="xMidYMid meet" version="1.1" viewBox="140.3 112.4 144.6 200.4" width="144.6" zoomAndPan="magnify">
 <g id="surface1">
  <g id="change1_1"><path d="m284.9 240.51c0 39.93-32.37 72.3-72.3 72.3s-72.3-32.37-72.3-72.3 72.3-128.12 72.3-128.12 72.3 88.19 72.3 128.12" fill="#3e85ce"/></g>
  <g id="change2_1"><path d="m261.93 218.87c0 27.25-22.08 49.34-49.33 49.34-27.24 0-49.33-22.09-49.33-49.34 0-27.24 49.33-87.42 49.33-87.42s49.33 60.18 49.33 87.42" fill="#43c2f3"/></g>
  <g id="change3_1"><path d="m245.84 207.89c0 18.36-14.88 33.24-33.24 33.24s-33.24-14.88-33.24-33.24 33.24-58.91 33.24-58.91 33.24 40.55 33.24 58.91" fill="#5dcaf0"/></g>
  <g id="change4_1"><path d="m236.61 204.32c0 13.27-10.75 24.01-24.01 24.01s-24.01-10.74-24.01-24.01c0-13.25 24.01-42.54 24.01-42.54s24.01 29.29 24.01 42.54" fill="#9cdee4"/></g>
 </g>
</svg>