<?xml version="1.0" encoding="UTF-8"?><svg xmlns="http://www.w3.org/2000/svg" xmlns:xlink="http://www.w3.org/1999/xlink" height="200.5" preserveAspectRatio="xMidYMid meet" version="1.1" viewBox="145.6 112.3 134.0 200.5" width="134.0" zoomAndPan="magnify">
 <g id="surface1">
  <g id="change1_1"><path d="m257.89 267.57c0 25.02-20.27 45.3-45.29 45.3s-45.3-20.28-45.3-45.3 45.3-80.27 45.3-80.27 45.29 55.25 45.29 80.27" fill="#43c2f3"/></g>
  <g id="change2_1"><path d="m234.29 150.76c0 11.98-9.71 21.69-21.69 21.69s-21.69-9.71-21.69-21.69 21.69-38.43 21.69-38.43 21.69 26.45 21.69 38.43" fill="#3e85ce"/></g>
  <g id="change1_2"><path d="m279.59 180.82c0 11.97-9.71 21.68-21.7 21.68-11.97 0-21.68-9.71-21.68-21.68 0-11.98 21.68-38.43 21.68-38.43s21.7 26.45 21.7 38.43" fill="#43c2f3"/></g>
  <g id="change1_3"><path d="m188.99 180.82c0 11.97-9.71 21.68-21.69 21.68s-21.68-9.71-21.68-21.68c0-11.98 21.68-38.43 21.68-38.43s21.69 26.45 21.69 38.43" fill="#43c2f3"/></g>
 </g>
</svg>