<?xml version="1.0" encoding="UTF-8"?>
<svg xmlns="http://www.w3.org/2000/svg"
  xmlns:xlink="http://www.w3.org/1999/xlink" height="150.2" preserveAspectRatio="xMidYMid meet" version="1.0" viewBox="84.6 136.0 255.9 150.2" width="255.9" zoomAndPan="magnify">
  <g fill="#36A9E1" id="change1_1">
    <path d="M326.463,252.278c-23.311-0.093-42.859,14.721-63.965,22.184c-17.058,6.033-34.129-2.077-48.576-10.806 c-14.32-8.651-32.088-7.769-46.884-0.941c-5.696,2.628-11.577,4.838-17.534,6.8c-7.442,2.452-15.025,0.198-22.046-2.538 c-6.257-2.438-13.294-5.644-19.978-2.715c10.822,4.48,21.708,12.602,33.379,14.393c16.15,2.479,31.701-8.341,47.369-10.817 c12.736-2.014,27.145,4.398,38.151,10.226c12.956,6.859,30.509,8.191,44.479,3.839c13.553-4.223,22.141-15.202,34.41-20.204 c11.863-4.835,22.824-6.018,35.297-3.31C340.391,257.885,333.094,252.305,326.463,252.278z" fill="#36A9E1"/>
    <path d="M116.125,253.224c4.915,0.356,9.443,2.247,13.83,3.988c6.067,2.408,11.307,4.488,16.42,2.805 c5.771-1.901,11.285-4.013,15.527-5.946c0.941-0.429,1.874-0.87,2.805-1.311c5.354-2.535,10.889-5.155,17.625-5.406 c11.157-0.413,24.244,0.182,36.76,7.743c12.447,7.521,26.94,14.583,40.072,9.938c8.584-3.035,17.004-7.213,25.148-11.253 c2.843-1.41,5.686-2.82,8.545-4.19c10.057-4.82,19.059-7.101,29.324-7.334c-7.281-2.544-14.77-3.213-22.633-2.466 c-12.826,1.219-26.193,4.095-39.348,1.45c-29.739-5.978-40.263-48.199-18.171-69.159c10.081-9.564,24.17-12.368,36.759-6.399 c9.571,4.536,21.464,21.062,11.197,30.634c-1.316-11.417-16.32-12.226-22.392-5.071c-6.938,8.177-1.417,18.842,6.938,22.991 c8.391,4.167,18.605,1.466,24.559-5.591c6.713-7.959,7.42-19.144,5.59-29.061c-2.972-16.104-17.203-30.761-32.52-35.955 c-22.377-7.588-42.55,0.892-60.126,15.25c-20.202,16.504-31.685,40.744-45.733,61.785c-5.57,8.344-11.961,17.153-21.229,21.644 c-10.692,5.18-23.307,1.48-34.732,1.879c-12.431,0.434-17.855,10.521-25.708,18.85C87.25,261.878,95.507,251.726,116.125,253.224z" fill="#36A9E1"/>
  </g>
</svg>