<?xml version="1.0" encoding="UTF-8"?><svg xmlns="http://www.w3.org/2000/svg" xmlns:xlink="http://www.w3.org/1999/xlink" height="119.4" preserveAspectRatio="xMidYMid meet" version="1.1" viewBox="112.9 152.9 199.4 119.4" width="199.4" zoomAndPan="magnify">
 <g id="surface1">
  <g id="change1_1"><path d="m312.28 252.74c0 10.79-44.63 19.54-99.68 19.54s-99.68-8.75-99.68-19.54 44.63-19.54 99.68-19.54 99.68 8.75 99.68 19.54" fill="#43c2f3"/></g>
  <g id="change2_1"><path d="m277.57 252.74c0 6.78-29.09 12.29-64.97 12.29-35.89 0-64.97-5.51-64.97-12.29 0-6.79 29.08-12.29 64.97-12.29 35.88 0 64.97 5.5 64.97 12.29" fill="#337cad"/></g>
  <g id="change3_1"><path d="m251.38 221.63c0 21.42-17.36 38.78-38.78 38.78s-38.78-17.36-38.78-38.78c0-21.41 38.78-68.71 38.78-68.71s38.78 47.3 38.78 68.71" fill="#5dcaf0"/></g>
 </g>
</svg>