<?xml version="1.0" encoding="UTF-8"?>
<svg xmlns="http://www.w3.org/2000/svg"
  xmlns:xlink="http://www.w3.org/1999/xlink" height="201.0" preserveAspectRatio="xMidYMid meet" version="1.1" viewBox="146.4 112.1 132.5 201.0" width="132.5" zoomAndPan="magnify">
  <g fill="#5dcaf0" id="change1_1">
    <path d="m278.85 215.14c0 17.68-14.33 32.01-32.01 32.01-17.67 0-32-14.33-32-32.01s32-56.71 32-56.71 32.01 39.03 32.01 56.71" fill="#5dcaf0"/>
    <path d="m223.06 281.07c0 17.68-14.33 32.01-32.01 32.01-17.67 0-32-14.33-32-32.01 0-17.67 32-56.71 32-56.71s32.01 39.04 32.01 56.71" fill="#5dcaf0"/>
    <path d="m210.36 168.84c0 17.67-14.33 32-32 32-17.68 0-32.01-14.33-32.01-32 0-17.68 32.01-56.72 32.01-56.72s32 39.04 32 56.72" fill="#5dcaf0"/>
  </g>
</svg>