<?xml version="1.0" encoding="UTF-8"?><svg xmlns="http://www.w3.org/2000/svg" xmlns:xlink="http://www.w3.org/1999/xlink" height="255.7" preserveAspectRatio="xMidYMid meet" version="1.1" viewBox="165.2 84.8 95.3 255.7" width="95.3" zoomAndPan="magnify">
 <g id="surface1">
  <g id="change1_1"><path d="m254.31 317.06c0.03-0.89 0.02-1.82 0.02-2.77l-0.84-37.13c-10.51-3.49-14.47-17.37-21.88-17.37l-31.56-1.42c-7.41 0-17.96 15.77-28.94 18.79l0.23 37.13v0.6h-0.05v9.4c0.01 0.13 0.03 0.25 0.05 0.37-0.02 0.3-0.05 0.61-0.05 0.91 0 8.21 6.64 14.87 14.84 14.87 4.52 0 8.56-2.04 11.28-5.23 3.63 3.25 8.43 5.23 13.68 5.23 6.27 0 11.89-2.82 15.66-7.27 2.59 4.35 7.31 7.27 12.73 7.27 8.19 0 14.83-6.66 14.83-14.87l-0.01-0.26c0-0.09 0.01-0.18 0.01-0.27v-7.98" fill="#51a9e2"/></g>
  <g id="change1_2"><path d="m253.7 216.55c-2.16 7.08-81.36 7.29-82.68 0-5.8-32.15 8.42-109.96 41.5-109.96 34.93 0 48 87.62 41.18 109.96" fill="#51a9e2"/></g>
  <g id="change2_1"><path d="m246.63 248.11c0-11.12 2.69-21.62 6.91-31.08-2.22-3.36-80.14-3.36-82.36 0 4.58 8.73 5.32 19.96 5.32 31.08s-1.23 19.58-5.39 29.05c2.22 3.36 80.16 3.36 82.38 0-4.41-9.23-6.86-17.93-6.86-29.05" fill="#3e83b7"/></g>
  <g id="change1_3"><path d="m200.78 117.44h23.16v-17.42h-23.16z" fill="#51a9e2"/></g>
  <g id="change3_1"><path d="m228.23 101.4c0 0.55-0.8 0.99-1.8 0.99h-28.13c-1.01 0-1.82-0.44-1.82-0.99v-15.65c0-0.547 0.81-0.988 1.82-0.988h28.13c1 0 1.8 0.441 1.8 0.988v15.65" fill="#cfd1cf"/></g>
  <g id="change4_1"><path d="m199.78 102.33s-0.07-0.79-0.16-1.99c-0.1-1.195-0.18-2.785-0.28-4.379-0.04-0.797-0.14-1.59-0.15-2.336 0-0.746 0.07-1.441 0.15-2.039 0.16-1.195 0.44-1.992 0.44-1.992l0.08-0.039 0.04 0.039s0.28 0.797 0.44 1.992c0.09 0.598 0.15 1.293 0.15 2.039-0.01 0.746-0.11 1.539-0.15 2.336-0.1 1.594-0.18 3.184-0.28 4.379-0.09 1.2-0.16 1.99-0.16 1.99l-0.06 0.06-0.06-0.06" fill="#969695"/></g>
  <g id="change4_2"><path d="m203.95 102.33s-0.06-0.79-0.16-1.99c-0.1-1.195-0.18-2.785-0.28-4.379-0.04-0.797-0.13-1.59-0.15-2.336 0-0.746 0.07-1.441 0.15-2.039 0.16-1.195 0.44-1.992 0.44-1.992l0.09-0.039 0.03 0.039s0.29 0.797 0.45 1.992c0.08 0.598 0.14 1.293 0.14 2.039-0.01 0.746-0.11 1.539-0.14 2.336-0.1 1.594-0.18 3.184-0.29 4.379-0.09 1.2-0.16 1.99-0.16 1.99l-0.06 0.06-0.06-0.06" fill="#969695"/></g>
  <g id="change4_3"><path d="m208.12 102.33s-0.06-0.79-0.16-1.99c-0.1-1.195-0.17-2.785-0.27-4.379-0.05-0.797-0.14-1.59-0.15-2.336 0-0.746 0.06-1.441 0.15-2.039 0.15-1.195 0.43-1.992 0.43-1.992l0.09-0.039 0.04 0.039s0.28 0.797 0.44 1.992c0.08 0.598 0.15 1.293 0.15 2.039-0.01 0.746-0.11 1.539-0.15 2.336-0.1 1.594-0.18 3.184-0.28 4.379-0.1 1.2-0.16 1.99-0.16 1.99l-0.07 0.06-0.06-0.06" fill="#969695"/></g>
  <g id="change4_4"><path d="m212.3 102.33s-0.07-0.79-0.16-1.99c-0.1-1.195-0.18-2.785-0.28-4.379-0.04-0.797-0.14-1.59-0.15-2.336 0-0.746 0.06-1.441 0.15-2.039 0.16-1.195 0.44-1.992 0.44-1.992l0.08-0.039 0.04 0.039s0.28 0.797 0.44 1.992c0.09 0.598 0.15 1.293 0.15 2.039-0.01 0.746-0.11 1.539-0.15 2.336-0.1 1.594-0.18 3.184-0.27 4.379-0.11 1.2-0.17 1.99-0.17 1.99l-0.06 0.06-0.06-0.06" fill="#969695"/></g>
  <g id="change4_5"><path d="m216.47 102.33s-0.06-0.79-0.16-1.99c-0.1-1.195-0.18-2.785-0.28-4.379-0.04-0.797-0.14-1.59-0.15-2.336 0-0.746 0.07-1.441 0.15-2.039 0.16-1.195 0.44-1.992 0.44-1.992l0.08-0.039 0.05 0.039c-0.01 0 0.28 0.797 0.43 1.992 0.09 0.598 0.15 1.293 0.15 2.039-0.01 0.746-0.11 1.539-0.15 2.336-0.09 1.594-0.17 3.184-0.27 4.379-0.1 1.2-0.16 1.99-0.16 1.99l-0.07 0.06-0.06-0.06" fill="#969695"/></g>
  <g id="change4_6"><path d="m220.64 102.33s-0.06-0.79-0.16-1.99c-0.1-1.195-0.18-2.785-0.28-4.379-0.04-0.797-0.13-1.59-0.15-2.336 0.01-0.746 0.07-1.441 0.15-2.039 0.16-1.195 0.44-1.992 0.44-1.992l0.09-0.039 0.04 0.039s0.28 0.797 0.44 1.992c0.08 0.598 0.15 1.293 0.15 2.039-0.01 0.746-0.11 1.539-0.15 2.336-0.1 1.594-0.18 3.184-0.28 4.379-0.1 1.2-0.16 1.99-0.16 1.99l-0.07 0.06-0.06-0.06" fill="#969695"/></g>
  <g id="change4_7"><path d="m224.82 102.33s-0.07-0.79-0.16-1.99c-0.11-1.195-0.18-2.785-0.28-4.379-0.04-0.797-0.14-1.59-0.15-2.336 0-0.746 0.06-1.441 0.15-2.039 0.16-1.195 0.44-1.992 0.44-1.992l0.08-0.039 0.04 0.039s0.28 0.797 0.44 1.992c0.08 0.598 0.15 1.293 0.15 2.039-0.01 0.746-0.11 1.539-0.15 2.336-0.1 1.594-0.18 3.184-0.28 4.379-0.09 1.2-0.16 1.99-0.16 1.99l-0.06 0.06-0.06-0.06" fill="#969695"/></g>
  <g id="change5_1"><path d="m238.8 337.17c-1.5 0-2.94-0.34-4.27-0.94 4.58-2.04 7.85-7.27 7.85-13.41l-0.01-0.25c0-0.09 0.01-0.17 0.01-0.27v-7.69c0.02-0.86 0.01-1.75 0.01-2.67l-0.63-32.99c3.54-0.23 6.48-0.5 8.53-0.82l0.65 33.81c0 0.92 0 1.81-0.02 2.67v7.69c0 0.1-0.01 0.18-0.01 0.27l0.01 0.25c0 7.93-5.42 14.35-12.12 14.35" fill="#8cc8ee"/></g>
  <g id="change5_2"><path d="m250.76 216.12c-1.96-0.33-4.85-0.61-8.38-0.84 3.67-20.57-2.49-78.76-18.44-98.17v-3.73c22.58 12.28 31.15 81.19 26.82 102.74" fill="#8cc8ee"/></g>
  <g id="change6_1"><path d="m241.76 278.95l-0.05-2.85c-3.61-8.9-5.61-17.3-5.61-28.03s2.2-20.86 5.65-30l-0.06-0.07c0.08-0.12 0.15-0.26 0.19-0.39 0.18-0.71 0.35-1.49 0.5-2.33 3.53 0.23 6.42 0.51 8.38 0.84-0.1 0.52-0.22 1.02-0.34 1.49-0.03 0.13-0.1 0.27-0.19 0.39l0.06 0.07c-3.44 9.14-5.65 19.27-5.65 30s2.01 19.13 5.61 28.03l0.04 2.03c-2.05 0.32-4.99 0.59-8.53 0.82" fill="#7aafd5"/></g>
  <g id="change5_3"><path d="m223.94 117.11c-2.2-2.68-4.58-4.61-7.15-5.62 2.52 0 4.9 0.66 7.15 1.89v3.73" fill="#8cc8ee"/></g>
  <g id="change5_4"><path d="m174.52 212.65l-0.13-0.13s-0.19-1.61-0.42-4.46c-0.13-1.42-0.26-3.15-0.4-5.13-0.06-0.99-0.15-2.05-0.16-3.16v-3.52c0.03-2.45 0.03-5.11 0.15-7.91 0.21-2.8 0.49-5.76 0.81-8.81 0.13-1.53 0.47-3.06 0.72-4.61 0.29-1.56 0.58-3.13 0.87-4.71 0.26-1.59 0.67-3.16 1.05-4.75 0.38-1.58 0.77-3.17 1.15-4.76l0.29-1.19 1.06-3.52c0.47-1.56 0.94-3.11 1.4-4.65 0.55-1.51 1.09-3.01 1.63-4.5 0.53-1.48 1.05-2.95 1.68-4.34 0.6-1.41 1.19-2.8 1.76-4.16 0.59-1.34 1.26-2.62 1.88-3.88 1.18-2.55 2.57-4.82 3.74-6.96 1.31-2.07 2.43-4.01 3.6-5.62 1.1-1.65 2.17-3.02 3.03-4.15 0.9-1.11 1.61-1.97 2.13-2.53 0.17-0.19 0.31-0.35 0.42-0.47v0.5c-0.05 0.06-0.1 0.13-0.16 0.2-0.49 0.57-1.15 1.46-1.99 2.6-0.81 1.17-1.8 2.57-2.82 4.25-1.08 1.65-2.11 3.62-3.31 5.72-1.07 2.18-2.33 4.48-3.39 7.05-0.54 1.27-1.16 2.56-1.7 3.91-0.52 1.36-1.06 2.75-1.6 4.16-0.58 1.4-1.04 2.86-1.51 4.34-0.48 1.48-0.97 2.98-1.46 4.49-0.4 1.53-0.81 3.08-1.22 4.63l-0.62 2.33-0.3 1.16-0.25 1.19c-0.31 1.58-0.63 3.16-0.95 4.73s-0.65 3.13-0.83 4.71c-0.22 1.57-0.44 3.12-0.66 4.66-0.21 1.54-0.5 3.05-0.6 4.55-0.32 3-0.64 5.9-1.01 8.65-0.23 2.76-0.44 5.37-0.63 7.78-0.11 1.21-0.22 2.37-0.32 3.46-0.1 1.11-0.09 2.15-0.16 3.14-0.09 1.97-0.18 3.69-0.28 5.11-0.17 2.83-0.33 4.46-0.33 4.46v0.01l-0.16 0.13" fill="#8cc8ee"/></g>
  <g id="change5_5"><path d="m200.78 115.23v-0.5c0.24-0.27 0.38-0.39 0.38-0.39v-0.01h0.21v0.21s-0.21 0.23-0.59 0.69" fill="#8cc8ee"/></g>
  <g id="change5_6"><path d="m175.16 327.06l-0.12-0.11s-0.65-2.82-1.02-7.04c-0.09-1.06-0.18-2.2-0.23-3.41-0.08-1.21-0.11-2.49-0.11-3.81 0.02-1.31 0.08-2.68 0.16-4.07 0.07-1.38 0.14-2.79 0.21-4.19 0.24-5.63 0.44-11.26 0.68-15.48 0.22-4.23 0.39-7.04 0.39-7.04l0.16-0.14 0.14 0.14s0.17 2.82 0.36 7.04c0.24 4.22 0.41 9.85 0.63 15.48 0.06 1.41 0.13 2.82 0.19 4.2 0.08 1.39 0.14 2.75 0.15 4.07-0.01 1.32-0.04 2.59-0.12 3.8-0.06 1.21-0.15 2.36-0.25 3.41-0.38 4.22-1.04 7.04-1.04 7.04l-0.18 0.11" fill="#8cc8ee"/></g>
 </g>
</svg>