<?xml version="1.0" encoding="UTF-8"?><svg xmlns="http://www.w3.org/2000/svg" xmlns:xlink="http://www.w3.org/1999/xlink" height="199.7" preserveAspectRatio="xMidYMid meet" version="1.1" viewBox="116.7 112.8 191.8 199.7" width="191.8" zoomAndPan="magnify">
 <g id="surface1">
  <g id="change1_1"><path d="m262.01 189.62c3.25-6.93 5.07-14.67 5.07-22.84 0-29.83-24.19-54.02-54.03-54.02-29.83 0-54.02 24.19-54.02 54.02 0 8.17 1.82 15.91 5.07 22.84l-0.22 0.07s0.5 0.81 1.39 2.31c0.71 1.32 1.46 2.61 2.27 3.87 9.84 17.12 36.35 66.86 40.23 111.87h0.06c0.28 2.64 2.51 4.7 5.25 4.7s4.97-2.06 5.25-4.7c0.01-0.11 0.03-0.22 0.03-0.33 0.01-0.08 0.03-0.15 0.03-0.23 4.05-44.86 30.38-94.26 40.18-111.31 0.8-1.26 1.56-2.55 2.27-3.88" fill="#9cdee4"/></g>
  <g id="change2_1"><path d="m199.53 312.44s-5.09-74.73-37.85-99.84c-4.75-3.94-10.84-6.31-17.5-6.31-15.16 0-27.46 12.3-27.46 27.47 0 10.31 5.68 19.29 14.09 23.99h0.01c1.56 0.87 3.22 1.6 4.95 2.15 10.35 4.96 35.72 19.39 63.76 52.54" fill="#5dcaf0"/></g>
  <g id="change2_2"><path d="m225.68 312.44s5.08-74.73 37.84-99.84c4.75-3.94 10.84-6.31 17.5-6.31 15.17 0 27.46 12.3 27.46 27.47 0 10.31-5.68 19.29-14.09 23.99h-0.01c-1.56 0.87-3.22 1.6-4.94 2.15-10.37 4.96-35.73 19.39-63.76 52.54" fill="#5dcaf0"/></g>
 </g>
</svg>