<?xml version="1.0" encoding="utf-8"?>
<!-- Generator: Adobe Illustrator 16.0.0, SVG Export Plug-In . SVG Version: 6.00 Build 0)  -->
<!DOCTYPE svg PUBLIC "-//W3C//DTD SVG 1.1//EN" "http://www.w3.org/Graphics/SVG/1.1/DTD/svg11.dtd">
<svg version="1.1" id="Layer_1" xmlns="http://www.w3.org/2000/svg" xmlns:xlink="http://www.w3.org/1999/xlink" x="0px" y="0px"
	 width="283.464px" height="360.812px" viewBox="0 0 283.464 360.812" enable-background="new 0 0 283.464 360.812"
	 xml:space="preserve">
<g id="change2">
	<path fill="#F4BC33" d="M141.734,77.352C63.458,77.352,0,140.806,0,219.082c0,78.276,63.458,141.73,141.734,141.73
		c78.275,0,141.73-63.454,141.73-141.73C283.464,140.806,220.009,77.352,141.734,77.352z M141.734,323.177
		c-57.49,0-104.095-46.604-104.095-104.096s46.605-104.096,104.095-104.096c57.49,0,104.089,46.604,104.089,104.096
		S199.224,323.177,141.734,323.177z"/>
</g>
<g id="change1">
	<polygon fill="#54A4A6" points="141.734,114.986 229.328,27.394 201.94,0 159.312,0 141.734,17.578 124.153,0 81.528,0 
		54.134,27.394 	"/>
</g>
</svg>
