<?xml version="1.0" encoding="UTF-8"?><svg xmlns="http://www.w3.org/2000/svg" xmlns:xlink="http://www.w3.org/1999/xlink" height="198.4" preserveAspectRatio="xMidYMid meet" version="1.1" viewBox="152.6 113.4 120.0 198.4" width="120.0" zoomAndPan="magnify">
 <g id="surface1">
  <g id="change1_1"><path d="m219.48 299.99v-69.02c29.88-3.42 53.09-28.78 53.09-59.58 0-15.6-5.96-38.33-15.73-58h-88.48c-9.77 19.67-15.74 42.4-15.74 58 0 30.8 23.22 56.16 53.1 59.58v69.02c-22.27 0.43-39.35 2.9-39.35 5.88 0 3.28 20.7 5.94 46.23 5.94s46.23-2.66 46.23-5.94c0-2.98-17.08-5.45-39.35-5.88" fill="#97b1e1"/></g>
  <g id="change2_1"><path d="m180.81 129.99c-7.02 14.14-11.31 30.47-11.31 41.68 0 23.8 19.3 43.1 43.1 43.1s43.1-19.3 43.1-43.1c0-11.21-4.29-27.54-11.31-41.68h-63.58" fill="#f04167"/></g>
 </g>
</svg>