<?xml version="1.0" encoding="UTF-8"?><svg xmlns="http://www.w3.org/2000/svg" xmlns:xlink="http://www.w3.org/1999/xlink" height="310.8" preserveAspectRatio="xMidYMid meet" version="1.1" viewBox="172.8 57.2 79.6 310.8" width="79.6" zoomAndPan="magnify">
 <g id="surface1">
  <g id="change1_1"><path d="m227.7 155.46h-30.98v-50.94h30.98v50.94" fill="#1e0b13"/></g>
  <g id="change2_1"><path d="m227.7 122.96h-30.98v-48.991h30.98v48.991" fill="#ee2e46"/></g>
  <g id="change3_1"><path d="m227.7 83.188h-30.98v-13.473h30.98v13.473" fill="#dc1c28"/></g>
  <g id="change1_2"><path d="m225.63 141.41h-26.06s-26.78 19.03-26.78 30.73v8.69 180.51c0 3.66 2.99 6.64 6.64 6.64h66.34c3.66 0 6.64-2.98 6.64-6.64v-180.51-8.69c0-11.7-26.78-30.73-26.78-30.73" fill="#1e0b13"/></g>
  <g id="change2_2"><path d="m225.24 78.918h-26.06c-2.43 0-4.41-1.988-4.41-4.414v-12.871c0-2.43 1.98-4.414 4.41-4.414h26.06c2.43 0 4.42 1.984 4.42 4.414v12.871c0 2.426-1.99 4.414-4.42 4.414" fill="#ee2e46"/></g>
  <g id="change4_1"><path d="m172.79 334.22h79.62v-139.73h-79.62z" fill="#fcd89f"/></g>
  <g id="change5_1"><path d="m184.5 362.32c-3.54 0-6.44-2.9-6.44-6.44v-21.66h12.88v21.66c0 3.54-2.9 6.44-6.44 6.44m6.44-167.83h-12.88v-10.34c0-3.54 2.9-6.44 6.44-6.44s6.44 2.9 6.44 6.44v10.34" fill="#50183d"/></g>
  <g id="change6_1"><path d="m178.06 334.22h12.88v-139.73h-12.88z" fill="#fff"/></g>
  <g id="change5_2"><path d="m184.5 176.05c-3.69 0-6.69-3-6.69-6.69s3-6.68 6.69-6.68 6.68 2.99 6.68 6.68-2.99 6.69-6.68 6.69" fill="#50183d"/></g>
 </g>
</svg>