<?xml version="1.0" encoding="UTF-8"?><svg xmlns="http://www.w3.org/2000/svg" xmlns:xlink="http://www.w3.org/1999/xlink" height="262.7" preserveAspectRatio="xMidYMid meet" version="1.0" viewBox="173.3 82.2 80.6 262.7" width="80.6" zoomAndPan="magnify"><g id="change1_1"><path d="M197.388,88.404c-0.335,1.998,1.456,5.183,1.815,7.235c0.43,2.459,0.823,4.786,1.214,7.236 c1.37,8.578-0.706,43.381-2.209,51.476c-1.43,7.707-2.192,14.717-5.713,21.861c-4.646,9.428-8.223,18.971-11.926,28.804 c-5.425,14.404-7.002,115.764-7.002,120.996c0,2.987-0.289,6.261,1.516,8.736c2.326,3.19,64.095,10.089,73.361,0.558 c5.437-5.592,2.311-23.376,2.311-31.937c0-10.202-1.335-73.532-2.211-83.964c-0.861-10.262-6.075-18.399-9.319-27.646 c-2.26-6.444-6.708-13.458-8.904-19.911c-2.12-6.227-3.049-12.67-3.392-19.238c-0.259-4.943-0.904-9.638-0.897-14.699 c0.005-4.603-1.695-40.819-1.506-42.575c0.35-3.272,6.782-8.347-0.303-9.58c-2.322-0.404-4.466,0.389-6.633,0.536 C213.714,86.554,198.434,82.178,197.388,88.404z" fill="#FCD7B3"/></g><g id="change2_1"><path d="M248.544,219.405c-0.861-10.262-6.075-18.399-9.319-27.646c-2.26-6.444-6.708-13.458-8.904-19.911 c-2.12-6.227-3.049-12.67-3.392-19.238c-0.259-4.943-0.904-9.638-0.897-14.699c0-0.438-0.015-1.165-0.042-2.119h-25.997 c-0.522,8.156-1.196,15.397-1.783,18.558c-1.43,7.707-2.192,14.717-5.713,21.861c-4.646,9.428-8.223,18.971-11.926,28.804 c-5.425,14.404-7.002,115.764-7.002,120.996c0,2.987-0.289,6.261,1.516,8.736c2.326,3.19,64.095,10.089,73.361,0.558 c5.437-5.592,2.311-23.376,2.311-31.937C250.755,293.167,249.42,229.837,248.544,219.405z" fill="#CCAAD1"/></g><g id="change3_1"><path d="M202.317,245.158c6.168,0.072,12.353-0.066,18.477,0.29c8.426,0.49,11.941-0.774,20.269-0.247 c8.288-0.823,5.456,59.198,4.606,67.412c-1.793,3.672-6.387,1.338-12.343,2.238c-9.743,1.475-20.431,1.605-30.282,1.429 c-5.351-0.095-10.758-0.984-16.104-1.366c-2.66-0.189-4.83-0.148-4.835-3.389c-0.005-2.97,0.567-6.176,0.536-9.312 c-0.536-55.047-0.48-57.955,3.115-57.831C191.281,244.573,196.79,245.093,202.317,245.158z" fill="#FFF"/></g><g id="change4_2"><path d="M213.299,98.633c-5.483,0-11.308-0.388-14.037-0.99c-0.405-0.089-0.66-0.49-0.571-0.894 c0.089-0.404,0.491-0.66,0.894-0.571c5.416,1.196,21.307,1.387,24.646-0.018c0.384-0.162,0.822,0.019,0.982,0.4 c0.161,0.382-0.019,0.822-0.4,0.982C222.982,98.313,218.282,98.633,213.299,98.633z" fill="#55478B"/></g><g id="change4_3"><path d="M199.975,136.792c-0.383,0-0.71-0.292-0.746-0.682c-0.038-0.412,0.266-0.777,0.679-0.815 c2.997-0.275,6.827-0.179,10.531-0.086c1.685,0.042,3.305,0.083,4.731,0.083c3.714,0,7.21-0.425,10.763-0.898 c0.41-0.054,0.788,0.233,0.843,0.645c0.055,0.411-0.234,0.788-0.645,0.843c-3.604,0.48-7.155,0.911-10.961,0.911 c-1.438,0-3.07-0.041-4.769-0.083c-3.491-0.088-7.446-0.188-10.356,0.081C200.021,136.792,199.998,136.792,199.975,136.792z" fill="#55478B"/></g><g id="change4_4"><path d="M207.574,318.9c-2.364,0-4.626-0.028-6.742-0.065c-3.471-0.062-7.002-0.442-10.417-0.811 c-2.148-0.231-4.37-0.471-6.537-0.626l-0.448-0.031c-2.493-0.167-5.319-0.357-5.326-4.275c-0.002-1.539,0.141-3.155,0.279-4.718 c0.147-1.666,0.3-3.388,0.284-5.056c-0.488-50.112-0.502-58.494,1.855-60.793c0.676-0.66,1.488-0.72,2.193-0.7 c2.445,0.084,4.924,0.232,7.322,0.375c3.296,0.196,6.704,0.399,10.053,0.439c1.935,0.023,3.872,0.026,5.808,0.029 c4.475,0.006,9.103,0.014,13.632,0.277c4.345,0.252,7.483,0.053,10.518-0.14c3.107-0.197,6.319-0.401,10.773-0.119 c0.414,0.026,0.728,0.383,0.701,0.796c-0.026,0.414-0.375,0.721-0.796,0.701c-4.36-0.276-7.382-0.084-10.583,0.119 c-3.08,0.196-6.263,0.399-10.7,0.14c-4.487-0.261-9.093-0.268-13.547-0.274c-1.941-0.003-3.883-0.006-5.823-0.029 c-3.385-0.04-6.812-0.244-10.125-0.441c-2.388-0.143-4.857-0.29-7.284-0.374c-0.584-0.019-0.866,0.052-1.093,0.274 c-1.966,1.918-1.824,16.479-1.403,59.706c0.017,1.742-0.139,3.501-0.29,5.203c-0.142,1.601-0.276,3.112-0.273,4.583 c0.004,2.421,1.137,2.594,3.927,2.781l0.454,0.031c2.194,0.157,4.43,0.398,6.591,0.631c3.382,0.364,6.879,0.741,10.282,0.802 c9.09,0.163,20.9,0.14,31.678-1.492c2.325-0.351,4.423-0.25,6.275-0.161c3.375,0.161,5.181,0.157,6.126-1.777 c0.182-0.372,0.63-0.526,1.003-0.345c0.372,0.182,0.526,0.631,0.345,1.003c-1.422,2.913-4.26,2.773-7.546,2.618 c-1.782-0.087-3.801-0.184-5.978,0.146C224.392,318.593,215.427,318.9,207.574,318.9z" fill="#55478B"/></g><g id="change4_1"><path d="M251,253.75c-0.414,0-0.75-0.336-0.75-0.75v-0.133c0-17.703,0-34.425-7.063-50.566 c-0.61-1.394-1.215-2.789-1.819-4.181c-2.22-5.114-4.515-10.403-6.944-15.402c-0.649-1.335-1.343-2.649-2.014-3.92 c-2.641-5.002-5.136-9.727-5.16-15.795c-0.001-0.414,0.333-0.751,0.747-0.753c0.001,0,0.002,0,0.003,0 c0.413,0,0.749,0.334,0.75,0.747c0.022,5.7,2.433,10.266,4.986,15.101c0.677,1.282,1.376,2.607,2.037,3.965 c2.443,5.027,4.746,10.331,6.972,15.46c0.604,1.391,1.208,2.784,1.817,4.176c7.188,16.43,7.188,33.303,7.188,51.168V253 C251.75,253.414,251.414,253.75,251,253.75z" fill="#55478B"/></g></svg>