<?xml version="1.0" encoding="UTF-8"?>
<svg width="126px" height="126px" viewBox="0 0 126 126" version="1.1" 
    xmlns="http://www.w3.org/2000/svg" 
    xmlns:xlink="http://www.w3.org/1999/xlink">
    <!-- Generator: Sketch 62 (91390) - https://sketch.com -->
    <title>Star</title>
    <desc>Created with Sketch.</desc>
    <g id="Geometry" stroke="none" stroke-width="1" fill="none" fill-rule="evenodd">
        <polygon id="Star" fill="#39799a" points="63 118.489746 54.7768499 125.461026 48.6381969 116.598979 38.8909438 121.204411 35.255127 111.05553 24.64803 112.98126 23.7628243 102.237176 13.0187396 101.35197 14.9444702 90.744873 4.79558945 87.1090562 9.40102115 77.3618031 0.538973733 71.2231501 7.51025391 63 0.538973733 54.7768499 9.40102115 48.6381969 4.79558945 38.8909438 14.9444702 35.255127 13.0187396 24.64803 23.7628243 23.7628243 24.64803 13.0187396 35.255127 14.9444702 38.8909438 4.79558945 48.6381969 9.40102115 54.7768499 0.538973733 63 7.51025391 71.2231501 0.538973733 77.3618031 9.40102115 87.1090562 4.79558945 90.744873 14.9444702 101.35197 13.0187396 102.237176 23.7628243 112.98126 24.64803 111.05553 35.255127 121.204411 38.8909438 116.598979 48.6381969 125.461026 54.7768499 118.489746 63 125.461026 71.2231501 116.598979 77.3618031 121.204411 87.1090562 111.05553 90.744873 112.98126 101.35197 102.237176 102.237176 101.35197 112.98126 90.744873 111.05553 87.1090562 121.204411 77.3618031 116.598979 71.2231501 125.461026"></polygon>
    </g>
</svg>