<?xml version="1.0" encoding="UTF-8"?><svg xmlns="http://www.w3.org/2000/svg" viewBox="0 0 36 36">
 <g id="change1_1"><path d="m27.816 23.464c0.299-1.148 0.465-2.318 0.465-3.464 0-4.161-2.122-6.779-5.258-8.035 0.417-1.008 0.665-2.108 0.665-3.2 0-1.581-0.495-2.498-1.315-3.032 1.091-0.482 2.517-1.5 3.027-2.011 0.781-0.781 0.94-1.889 0.354-2.475s-1.693-0.428-2.475 0.354c-0.611 0.611-1.948 2.53-2.223 3.619-0.884-0.195-1.93-0.22-3.056-0.22-1.125 0-2.172 0.025-3.055 0.219-0.275-1.089-1.612-3.007-2.223-3.619-0.781-0.781-1.889-0.94-2.475-0.354-0.585 0.587-0.427 1.694 0.354 2.476 0.511 0.511 1.937 1.529 3.027 2.011-0.821 0.533-1.316 1.451-1.316 3.032 0 1.093 0.248 2.192 0.665 3.2-3.136 1.256-5.258 3.874-5.258 8.035 0 1.146 0.167 2.317 0.465 3.464v0.023l0.006-0.003c1.209 4.621 4.643 8.847 8.812 9.44l-0.002 0.076c0 1.657 0.448 3 1 3 0.553 0 1-1.343 1-3 0-0.026-0.002-0.049-0.003-0.075 4.169-0.593 7.604-4.819 8.813-9.44l0.006 0.003v-0.024z" fill="#292F33"/></g>
 <g id="change2_1"><path d="m14.624 19h6.752c-1.462-1.424-2.615-2.881-3.106-4h-0.54c-0.491 1.119-1.644 2.576-3.106 4zm-5.378 4c-0.361 0.187-0.715 0.349-1.062 0.488 0.32 1.219 0.799 2.407 1.401 3.512h16.83c0.602-1.105 1.082-2.293 1.401-3.512-0.347-0.139-0.701-0.301-1.063-0.488h-17.507zm3.593 8c1.518 1.234 3.278 2 5.161 2 1.884 0 3.643-0.766 5.162-2h-10.323z" fill="#FFCC4D"/></g>
 <g id="change3_1"><path d="m18 13.505c0 2.647-7.858 8.584-12 8.584s-6-2.443-6-5.09c0-2.646 1.858-4.495 6-4.495 4.143 0.001 12-1.644 12 1.001zc0 2.647 7.857 8.584 12 8.584s6-2.443 6-5.09c0-2.646-1.857-4.495-6-4.495s-12-1.644-12 1.001z" fill="#CCD6DD"/></g>
 <g id="change4_1"><path d="m2 19c-0.552 0-1-0.447-1-1 0-0.551 0.446-0.999 0.998-1 0.048 0 4.949-0.07 13.596-3.914 0.505-0.227 1.096 0.002 1.32 0.507 0.225 0.505-0.003 1.096-0.507 1.32-9.09 4.04-14.194 4.087-14.407 4.087zm32 0c-0.213 0-5.316-0.047-14.406-4.086-0.505-0.224-0.731-0.815-0.508-1.32 0.225-0.504 0.817-0.732 1.32-0.507 8.648 3.843 13.548 3.913 13.597 3.913 0.551 0.003 0.997 0.452 0.996 1.003-0.002 0.551-0.448 0.997-0.999 0.997z" fill="#99AAB5"/></g>
</svg>