<?xml version="1.0" encoding="UTF-8"?><svg xmlns="http://www.w3.org/2000/svg" height="425.2pt" version="1.1" viewBox="0 0 425.2 425.2" width="425.2pt">
 <g id="surface1">
  <g id="change1_1"><path d="m235.7 166.08l-148.98-34.37c-9.493 41.14 16.17 82.18 57.3 91.68 41.14 9.49 82.19-16.17 91.68-57.31" fill="#040505"/></g>
  <path d="m2357 2591.2l-1489.8 343.7c-94.93-411.4 161.7-821.8 573-916.8 411.4-94.9 821.9 161.7 916.8 573.1zm0 0" fill="none" stroke="#040505" stroke-linecap="round" stroke-linejoin="round" stroke-miterlimit="10" stroke-width="40" transform="matrix(.1 0 0 -.1 0 425.2)"/>
  <g id="change2_1"><path d="m120.24 261.23l-39.771 67.06 5.515 5.51c7.153 6.91 17.096 9.76 25.606-0.22 12.7-14.88 8.65-72.35 8.65-72.35" fill="#fff"/></g>
  <path d="m1202.4 1639.7l-397.71-670.55 55.15-55.16c71.53-69.1 170.96-97.58 256.06 2.19 127 148.82 86.5 723.52 86.5 723.52zm0 0" fill="none" stroke="#040505" stroke-linecap="round" stroke-linejoin="round" stroke-miterlimit="10" stroke-width="40" transform="matrix(.1 0 0 -.1 0 425.2)"/>
  <g id="change2_2"><path d="m119.43 262.05l-64.664 64.66 5.515 5.51c7.149 6.92 16.328 9.06 25.606-0.21 9.269-9.28 33.543-69.96 33.543-69.96" fill="#fff"/></g>
  <path d="m1194.3 1631.5l-646.64-646.57 55.15-55.16c71.49-69.14 163.28-90.58 256.06 2.15 92.69 92.78 335.43 699.58 335.43 699.58zm0 0" fill="none" stroke="#040505" stroke-linecap="round" stroke-linejoin="round" stroke-miterlimit="10" stroke-width="40" transform="matrix(.1 0 0 -.1 0 425.2)"/>
  <g id="change1_2"><path d="m119.43 262.05l-46.84 46.83 5.515 5.51c7.153 6.92 16.336 9.06 25.605-0.21 9.27-9.27 15.72-52.13 15.72-52.13" fill="#040505"/></g>
  <path d="m1194.3 1631.5l-468.4-468.3 55.15-55.1c71.53-69.2 163.36-90.6 256.05 2.1 92.7 92.7 157.2 521.3 157.2 521.3zm0 0" fill="none" stroke="#040505" stroke-linecap="round" stroke-linejoin="round" stroke-miterlimit="10" stroke-width="40" transform="matrix(.1 0 0 -.1 0 425.2)"/>
  <g id="change1_3"><path d="m265.84 184.78l12.88-12.87-16.16-56.68-160.35 164.03c38.19 38.19 100.12 38.19 138.31 0 25.59-25.6 34.03-61.85 25.32-94.48" fill="#040505"/></g>
  <path d="m2658.4 2404.2l128.8 128.7-161.6 566.8-1603.5-1640.3c381.9-381.9 1001.2-381.9 1383.1 0 255.9 256 340.3 618.5 253.2 944.8zm0 0" fill="none" stroke="#040505" stroke-linecap="round" stroke-linejoin="round" stroke-miterlimit="10" stroke-width="40" transform="matrix(.1 0 0 -.1 0 425.2)"/>
  <g id="change2_3"><path d="m254.88 272.78c31.42-31.43 41.79-75.95 31.09-116.01l-73.54 73.55c-21.54 21.53-33.17 49.21-34.93 77.38 28.18-1.75 55.85-13.39 77.38-34.92" fill="#fff"/></g>
  <path d="m2548.8 1524.2c314.2 314.3 417.9 759.5 310.9 1160.1l-735.4-735.5c-215.4-215.3-331.7-492.1-349.3-773.8 281.8 17.5 558.5 133.9 773.8 349.2zm0 0" fill="none" stroke="#040505" stroke-linecap="round" stroke-linejoin="round" stroke-miterlimit="10" stroke-width="40" transform="matrix(.1 0 0 -.1 0 425.2)"/>
  <g id="change1_4"><path d="m342.27 137.27c0 28.72-23.28 52-52 52s-52-23.28-52-52 23.28-51.997 52-51.997 52 23.277 52 51.997" fill="#040505"/></g>
  <path d="m3422.7 2879.3c0-287.2-232.8-520-520-520s-520 232.8-520 520 232.8 520 520 520 520-232.8 520-520zm0 0" fill="none" stroke="#040505" stroke-linecap="round" stroke-linejoin="round" stroke-miterlimit="10" stroke-width="40" transform="matrix(.1 0 0 -.1 0 425.2)"/>
  <g id="change2_4"><path d="m326.92 127.43c0 8.92-7.22 16.14-16.14 16.14-8.91 0-16.14-7.22-16.14-16.14 0-8.91 7.23-16.14 16.14-16.14 8.92 0 16.14 7.23 16.14 16.14" fill="#fff"/></g>
  <path d="m3269.2 2977.7c0-89.2-72.2-161.4-161.4-161.4-89.1 0-161.4 72.2-161.4 161.4 0 89.1 72.3 161.4 161.4 161.4 89.2 0 161.4-72.3 161.4-161.4zm0 0" fill="none" stroke="#040505" stroke-linecap="round" stroke-linejoin="round" stroke-miterlimit="10" stroke-width="40" transform="matrix(.1 0 0 -.1 0 425.2)"/>
  <g id="change1_5"><path d="m317.18 127.42c0 3.57-2.89 6.46-6.47 6.46-3.57 0-6.46-2.89-6.46-6.46s2.89-6.47 6.46-6.47c3.58 0 6.47 2.89 6.47 6.47" fill="#040505"/></g>
  <path d="m3171.8 2977.8c0-35.7-28.9-64.6-64.7-64.6-35.7 0-64.6 28.9-64.6 64.6s28.9 64.7 64.6 64.7c35.8 0 64.7-28.9 64.7-64.7zm0 0" fill="none" stroke="#040505" stroke-linecap="round" stroke-linejoin="round" stroke-miterlimit="10" stroke-width="40" transform="matrix(.1 0 0 -.1 0 425.2)"/>
  <g id="change2_5"><path d="m310.1 124.08c0 1.85-1.49 3.34-3.33 3.34s-3.34-1.49-3.34-3.34c0-1.84 1.5-3.33 3.34-3.33s3.33 1.49 3.33 3.33" fill="#fff"/></g>
  <g id="change2_6"><path d="m309.3 129.99c0 0.99-0.8 1.8-1.8 1.8-0.99 0-1.79-0.81-1.79-1.8s0.8-1.79 1.79-1.79c1 0 1.8 0.8 1.8 1.79" fill="#fff"/></g>
  <g id="change2_7"><path d="m236.86 171.11l-126.43-85.973c-23.742 34.913-14.688 82.463 20.23 106.2 34.91 23.74 82.46 14.68 106.2-20.23" fill="#fff"/></g>
  <path d="m2368.6 2540.9l-1264.3 859.7c-237.42-349.1-146.88-824.6 202.3-1062 349.1-237.4 824.6-146.8 1062 202.3zm0 0" fill="none" stroke="#040505" stroke-linecap="round" stroke-linejoin="round" stroke-miterlimit="10" stroke-width="40" transform="matrix(.1 0 0 -.1 0 425.2)"/>
  <g id="change2_8"><path d="m341.71 149.55c-1.86 0.69-5.59-1.55-5.59-5.76 0-4.2 3.15-6.45 4.3-8.77 2.1-4.22 1.44-7.59 1.44-7.59l28.58 11-28.73 11.12" fill="#fff"/></g>
  <path d="m3417.1 2756.5c-18.6-6.9-55.9 15.5-55.9 57.6 0 42 31.5 64.5 43 87.7 21 42.2 14.4 75.9 14.4 75.9l285.8-110zm0 0" fill="none" stroke="#040505" stroke-linecap="round" stroke-linejoin="round" stroke-miterlimit="10" stroke-width="40" transform="matrix(.1 0 0 -.1 0 425.2)"/>
 </g>
</svg>