<?xml version="1.0" encoding="UTF-8"?><svg xmlns="http://www.w3.org/2000/svg" xmlns:xlink="http://www.w3.org/1999/xlink" height="226.8" preserveAspectRatio="xMidYMid meet" version="1.1" viewBox="144.0 99.2 137.1 226.8" width="137.1" zoomAndPan="magnify">
 <g id="surface1">
  <g id="change1_1"><path d="m194.62 171.01c-7.15 2.29-18.07-11.89-24.38-31.66-0.58-1.81-1.09-3.59-1.55-5.35-3.75-14.36-3.68-26.97 0.02-32.24 1.85-1.55 3.61-2.455 5.11-2.545 0.82 0.047 1.65 0.301 2.5 0.691 6.69 3.034 14.72 15.294 19.78 31.164 6.34 19.77 5.67 37.65-1.48 39.94" fill="#d58fcd"/></g>
  <g id="change2_1"><path d="m173.46 125.42c-1.46 3.17-3.08 6.06-4.77 8.58-4.86 7.31-10.2 11.5-13.51 10-4.44-2.04-3.45-13.68 2.2-25.96 3.33-7.26 7.54-13.14 11.33-16.28 1.85-1.55 3.61-2.455 5.11-2.545 0.82 0.047 1.65 0.301 2.5 0.691 3.64 2.894 2.46 13.924-2.86 25.514" fill="#dcaada"/></g>
  <g id="change1_2"><path d="m230.58 171.01c7.15 2.29 18.06-11.89 24.38-31.66 0.58-1.81 1.09-3.59 1.55-5.35 3.75-14.36 3.68-26.97-0.03-32.24-1.84-1.55-3.6-2.455-5.1-2.545-0.82 0.047-1.65 0.301-2.5 0.691-6.69 3.034-14.72 15.294-19.78 31.164-6.34 19.77-5.67 37.65 1.48 39.94" fill="#d58fcd"/></g>
  <g id="change2_2"><path d="m251.74 125.42c1.46 3.17 3.08 6.06 4.77 8.58 4.86 7.31 10.2 11.5 13.51 10 4.44-2.04 3.44-13.68-2.2-25.96-3.33-7.26-7.54-13.14-11.34-16.28-1.84-1.55-3.6-2.455-5.1-2.545-0.82 0.047-1.65 0.301-2.5 0.691-3.64 2.894-2.46 13.924 2.86 25.514" fill="#dcaada"/></g>
  <g id="change3_1"><path d="m261.79 238.8c13.78 18.1 19.38 37.02 12.5 42.26s-23.63-5.18-37.41-23.29c-13.79-18.1-19.38-37.02-12.5-42.26s23.63 5.19 37.41 23.29" fill="#db9ed4"/></g>
  <g id="change3_2"><path d="m163.41 238.8c-13.79 18.1-19.38 37.02-12.5 42.26s23.63-5.18 37.41-23.29c13.79-18.1 19.38-37.02 12.5-42.26s-23.63 5.19-37.41 23.29" fill="#db9ed4"/></g>
  <g id="change4_1"><path d="m260.73 266.43c0 32.89-21.55 59.55-48.13 59.55s-48.13-26.66-48.13-59.55c0-32.9 48.13-59.57 48.13-59.57s48.13 26.67 48.13 59.57" fill="#daaada"/></g>
  <g id="change5_1"><path d="m238.56 266.43c0 18.83-11.62 34.1-25.96 34.1s-25.96-15.27-25.96-34.1c0-18.84 11.62-34.11 25.96-34.11s25.96 15.27 25.96 34.11" fill="#fff"/></g>
  <g id="change2_3"><path d="m266.09 303.93c0 11.82-9.59 21.41-21.41 21.41-11.83 0-21.41-9.59-21.41-21.41s9.58-21.41 21.41-21.41c11.82 0 21.41 9.59 21.41 21.41" fill="#dcaada"/></g>
  <g id="change5_2"><path d="m255.2 309.7c0 5.82-4.71 10.53-10.52 10.53-5.82 0-10.53-4.71-10.53-10.53s4.71-10.53 10.53-10.53c5.81 0 10.52 4.71 10.52 10.53" fill="#fff"/></g>
  <g id="change5_3"><path d="m238.26 296.38c0 2.41-1.96 4.37-4.37 4.37s-4.37-1.96-4.37-4.37c0-2.42 1.96-4.38 4.37-4.38s4.37 1.96 4.37 4.38" fill="#fff"/></g>
  <g id="change5_4"><path d="m249.43 292c0 2.42-1.96 4.38-4.37 4.38-2.42 0-4.37-1.96-4.37-4.38 0-2.41 1.95-4.37 4.37-4.37 2.41 0 4.37 1.96 4.37 4.37" fill="#fff"/></g>
  <g id="change5_5"><path d="m259.83 296.38c0 2.41-1.95 4.37-4.37 4.37s-4.37-1.96-4.37-4.37c0-2.42 1.95-4.38 4.37-4.38s4.37 1.96 4.37 4.38" fill="#fff"/></g>
  <g id="change2_4"><path d="m201.93 303.93c0 11.82-9.58 21.41-21.41 21.41-11.82 0-21.41-9.59-21.41-21.41s9.59-21.41 21.41-21.41c11.83 0 21.41 9.59 21.41 21.41" fill="#dcaada"/></g>
  <g id="change5_6"><path d="m191.05 309.7c0 5.82-4.71 10.53-10.53 10.53-5.81 0-10.52-4.71-10.52-10.53s4.71-10.53 10.52-10.53c5.82 0 10.53 4.71 10.53 10.53" fill="#fff"/></g>
  <g id="change5_7"><path d="m174.11 296.38c0 2.41-1.95 4.37-4.37 4.37-2.41 0-4.37-1.96-4.37-4.37 0-2.42 1.96-4.38 4.37-4.38 2.42 0 4.37 1.96 4.37 4.38" fill="#fff"/></g>
  <g id="change5_8"><path d="m185.28 292c0 2.42-1.96 4.38-4.37 4.38s-4.37-1.96-4.37-4.38c0-2.41 1.96-4.37 4.37-4.37s4.37 1.96 4.37 4.37" fill="#fff"/></g>
  <g id="change5_9"><path d="m195.68 296.38c0 2.41-1.96 4.37-4.37 4.37-2.42 0-4.37-1.96-4.37-4.37 0-2.42 1.95-4.38 4.37-4.38 2.41 0 4.37 1.96 4.37 4.38" fill="#fff"/></g>
  <g id="change2_5"><path d="m257.71 190.38c0 17.88-20.2 32.38-45.11 32.38s-45.11-14.5-45.11-32.38c0-17.89 20.2-32.39 45.11-32.39s45.11 14.5 45.11 32.39" fill="#dcaada"/></g>
  <g id="change6_1"><path d="m200.85 181.98c0 2.35-1.3 4.26-2.89 4.26-1.6 0-2.89-1.91-2.89-4.26 0-2.36 1.29-4.27 2.89-4.27 1.59 0 2.89 1.91 2.89 4.27" fill="#404a56"/></g>
  <g id="change6_2"><path d="m230.14 181.98c0 2.35-1.3 4.26-2.9 4.26s-2.89-1.91-2.89-4.26c0-2.36 1.29-4.27 2.89-4.27s2.9 1.91 2.9 4.27" fill="#404a56"/></g>
  <g id="change6_3"><path d="m219.93 193.22c0 2.46-3.29 4.44-7.33 4.44-4.05 0-7.33-1.98-7.33-4.44 0-2.45 3.28-5.53 7.33-5.53 4.04 0 7.33 3.08 7.33 5.53" fill="#404a56"/></g>
  <path d="m2126 2281.2v-40.5" fill="none" stroke="#404a56" stroke-linecap="round" stroke-linejoin="round" stroke-miterlimit="10" stroke-width="21.638" transform="matrix(.1 0 0 -.1 0 425.2)"/>
  <path d="m2060.7 2240.2s29.7-28.2 65.1 0" fill="none" stroke="#404a56" stroke-linecap="round" stroke-linejoin="round" stroke-miterlimit="10" stroke-width="21.638" transform="matrix(.1 0 0 -.1 0 425.2)"/>
  <path d="m2191.2 2240.2s-29.6-28.2-65 0" fill="none" stroke="#404a56" stroke-linecap="round" stroke-linejoin="round" stroke-miterlimit="10" stroke-width="21.638" transform="matrix(.1 0 0 -.1 0 425.2)"/>
 </g>
</svg>