<?xml version="1.0" encoding="UTF-8"?><svg xmlns="http://www.w3.org/2000/svg" height="976px" version="1.1" viewBox="0 0 600 976" width="600px">
 <g id="layer1">
  <g id="change1_1">
   <path d="m420.35 386.68c-2.8 0-5.74 0.08-7.08 0.21-1.12 0.12-2.82 0.27-3.78 0.31-2.38 0.14-7.8 0.65-9.31 0.9-0.68 0.1-2.01 0.29-2.97 0.39-1.72 0.2-2.07 0.28-4.32 0.92-0.63 0.18-1.33 0.33-1.55 0.33-0.23 0-1.13 0.18-2.03 0.43-0.88 0.24-1.94 0.51-2.33 0.59-0.72 0.16-1.78 0.47-3.89 1.12-0.61 0.19-1.63 0.5-2.25 0.66-2.06 0.59-6.61 2.21-7.88 2.8-0.32 0.17-0.88 0.37-1.22 0.45-0.56 0.15-2.6 1.05-3.38 1.48-0.9 0.53-1.78 0.98-4.19 2.21-2.46 1.22-3.89 2-6.86 3.72-0.61 0.37-1.76 1-2.54 1.43-0.77 0.41-1.55 0.86-1.73 0.96-0.19 0.13-0.78 0.49-1.36 0.82-0.55 0.33-1.57 0.96-2.25 1.43-0.67 0.45-1.67 1.09-2.25 1.42-0.55 0.32-1.06 0.65-1.12 0.71-0.12 0.15-4.16 2.8-6.35 4.2-0.83 0.53-2.08 1.37-2.76 1.86-0.67 0.49-1.45 1.06-1.74 1.27-0.28 0.18-1.14 0.92-1.92 1.59-0.78 0.68-1.66 1.41-1.94 1.64-0.41 0.33-11.65 11.48-12.08 12.01-0.06 0.08-0.51 0.49-0.98 0.9-0.49 0.41-0.88 0.86-0.88 1.02 0 0.15-0.28 0.43-0.61 0.6-0.35 0.18-0.74 0.53-0.84 0.79-0.12 0.25-0.51 0.68-0.86 0.97-0.35 0.26-1.92 1.74-3.52 3.27-1.57 1.53-3.07 2.89-3.33 3.03-0.17 0.09-0.31 0.13-0.44 0.13-0.35 0-0.58-0.32-0.73-0.99-0.45-2.05 0.16-4.17 2.05-7.2 1.02-1.66 1.16-2.17 1.08-3.79-0.1-1.72-0.33-2.25-1.43-3.46-0.86-0.9-0.94-1.45-0.47-2.78 0.16-0.45 0.3-1.02 0.3-1.27 0-0.24 0.13-0.75 0.29-1.12 0.14-0.37 0.51-1.37 0.8-2.21 0.63-1.89 1.82-5.14 2.27-6.24 0.18-0.45 0.41-1.01 0.51-1.23 0.08-0.23 0.55-1.19 1.02-2.15 3.11-6.3 6.27-10.15 11.56-14.14 1.64-1.23 2.09-1.51 3.38-2.13 1.57-0.75 2.65-1.11 3.56-1.11 0.63 0 1.19 0.17 1.78 0.52 0.51 0.31 1.21 0.7 1.54 0.9 0.84 0.48 1.85 0.74 2.83 0.74 0.38 0 0.77-0.04 1.14-0.13 1.47-0.34 2.21-0.71 3.04-1.49 0.56-0.55 0.66-0.78 0.66-1.62 0-0.85-0.08-1.06-0.78-1.75-1.33-1.29-1.53-1.36-4.4-1.44-0.47-0.01-0.88-0.02-1.24-0.02-1.16 0-1.79 0.08-2.38 0.27-0.55 0.18-1.15 0.33-1.33 0.33-0.16 0-0.47 0.08-0.67 0.18-0.19 0.1-1.23 0.59-2.3 1.08-3.02 1.4-5.25 2.58-5.66 2.99-0.21 0.21-0.86 0.72-1.46 1.15-1.53 1.12-1.94 1.45-3.88 3.29-4.57 4.32-8 10.44-12.79 22.82-0.29 0.73-0.68 1.76-0.9 2.29-0.25 0.65-0.45 0.95-0.79 0.95-0.25 0-0.58-0.15-1.05-0.44-0.7-0.41-1.05-0.45-3.44-0.45-2.42 0-2.72 0.04-3.38 0.45-0.46 0.3-0.96 0.46-1.29 0.46-0.21 0-0.34-0.07-0.34-0.22 0-0.12-0.13-0.51-0.29-0.85-0.25-0.6-0.72-1.78-1.15-2.91-0.26-0.72-0.86-2.23-1.02-2.66-0.1-0.23-0.53-1.25-0.98-2.25-0.45-1.02-1.03-2.35-1.29-2.97-1.27-2.94-3.36-6.91-4.71-8.92-1.9-2.8-5.5-6.51-8.35-8.57-0.61-0.45-1.33-1-1.57-1.23-0.86-0.8-7.98-4.19-8.78-4.19-0.24 0-0.55-0.13-0.67-0.27-0.19-0.16-1.19-0.25-3.48-0.25-3.09 0-3.24 0.02-3.93 0.52-1.35 0.96-1.82 1.65-1.84 2.68 0 0.77 0.1 1.02 0.67 1.55 0.76 0.74 1.68 1.17 3.17 1.49 0.33 0.08 0.68 0.12 1.03 0.12 0.99 0 2.04-0.29 3.01-0.83 0.45-0.25 1.16-0.66 1.59-0.9 0.43-0.23 1.11-0.43 1.54-0.43 1.41 0 5.13 1.62 6.07 2.66 0.21 0.22 0.47 0.41 0.62 0.41 0.12 0 0.45 0.22 0.71 0.51 0.27 0.29 0.53 0.51 0.62 0.51 0.16 0 1.84 1.49 3.35 2.99 1.13 1.1 2.7 2.99 3.99 4.79 0.94 1.31 3.46 5.93 4.11 7.57 0.25 0.61 0.72 1.76 1.05 2.55 0.57 1.4 0.92 2.34 1.53 4.2 0.19 0.51 0.39 1.1 0.47 1.33 0.45 1.17 0.84 2.56 0.84 3.01 0 0.26 0.1 0.59 0.21 0.69 0.12 0.13 0.26 0.7 0.34 1.29 0.13 1.04 0.11 1.09-0.69 1.92-1.78 1.87-1.99 4.32-0.57 6.76 1.49 2.55 1.74 3.11 2.37 5.19 0.2 0.72 0.2 1.09-0.02 2.01-0.25 0.99-0.44 1.41-0.79 1.41-0.17 0-0.39-0.11-0.68-0.31-1.23-0.83-4.71-4.21-14.63-14.22-4.26-4.27-8.19-8.16-8.76-8.63-1.45-1.21-3.01-2.52-3.7-3.11-0.33-0.29-0.9-0.68-1.29-0.88-0.39-0.21-0.82-0.51-0.97-0.66-0.22-0.2-2.84-1.9-4.68-3.02-0.23-0.15-0.45-0.29-0.51-0.35-0.13-0.12-2.93-1.97-4.75-3.13-4.46-2.85-5.75-3.62-7.22-4.42-0.68-0.37-1.68-0.94-2.25-1.25-4.14-2.39-13.73-7.37-14.2-7.37-0.23 0-3.77-1.35-5.85-2.25-0.23-0.1-0.97-0.32-1.64-0.51-1.33-0.37-2.42-0.69-4.2-1.23-2.23-0.67-3.19-0.96-3.88-1.12-0.39-0.08-1.27-0.33-1.95-0.51-0.67-0.19-1.68-0.41-2.25-0.51-1-0.17-2.15-0.43-3.58-0.84-0.39-0.11-1.49-0.29-2.45-0.41-0.97-0.1-2.3-0.29-2.97-0.41-1.37-0.23-7.1-0.76-9.62-0.9-0.9-0.04-2.45-0.17-3.48-0.29-1.12-0.11-4.2-0.17-7.12-0.17-2.79 0-5.43 0.05-6.07 0.17-0.51 0.08-1.93 0.31-3.13 0.47-1.99 0.29-5.79 1.07-7.41 1.56-0.33 0.08-0.94 0.24-1.33 0.3-0.39 0.09-0.84 0.23-1.02 0.33-0.5 0.27-2.23 0.8-2.62 0.8-0.21 0-0.45 0.08-0.56 0.16-0.12 0.11-0.61 0.31-1.12 0.45-0.88 0.27-1.19 0.45-2.66 1.44-0.33 0.22-0.7 0.4-0.8 0.4-0.29 0-2.02 2.32-2.39 3.22-0.25 0.57-0.33 1.51-0.31 4.09 0 1.84 0.06 3.68 0.14 4.11 0.15 0.82 1.95 4.61 2.44 5.16 0.16 0.18 0.31 0.45 0.31 0.57 0 0.14 0.06 0.25 0.16 0.25 0.08 0 0.72 0.79 1.41 1.78 0.7 1 1.66 2.27 2.15 2.84s1.35 1.62 1.9 2.33c1 1.25 2.74 3.22 3.81 4.28 1.61 1.62 4.03 3.89 4.48 4.17 0.76 0.54 7.57 7.31 7.57 7.55 0 0.25 1.27 1.87 3.48 4.49 0.84 0.98 2 2.41 2.56 3.15 0.57 0.73 1.61 2.06 2.35 2.92 1.68 1.99 2.09 2.6 2.54 3.62 0.18 0.45 1.31 2.77 2.49 5.16 1.17 2.37 2.13 4.38 2.13 4.44s0.25 0.63 0.55 1.29c0.51 1.12 0.66 1.72 1.05 4.66 0.08 0.68 0.45 1.83 0.79 2.56 0.84 1.78 1.58 3.42 1.91 4.3 0.37 0.98 1.41 2.39 2.49 3.37 0.49 0.45 1.13 1.11 1.39 1.44 0.7 0.84 2.38 2.17 3.48 2.76 0.51 0.27 1.07 0.55 1.23 0.63 0.9 0.49 3.09 1.42 3.29 1.42 0.35 0 1.83 0.65 1.83 0.81 0 0.07-0.52 0.62-1.15 1.23-3.89 3.85-5.85 6.22-6.67 8.08-0.35 0.78-0.76 1.72-0.9 2.09-0.35 0.76-0.39 5.93-0.08 7.02 0.12 0.39 0.26 1.49 0.35 2.43 0.1 1.42 0.3 2.15 1.1 4.05 0.82 1.97 2.39 4.79 2.86 5.18 0.07 0.06 0.58 0.74 1.11 1.54 0.98 1.45 1.66 2.78 1.94 3.88 0.11 0.33 0.41 1.25 0.7 2.03s0.53 1.68 0.53 2c0 0.33 0.1 0.8 0.25 1.05 0.41 0.78 0.92 4.52 1.08 8.02 0.1 2.27 0.53 4.38 1.23 5.93 0.88 1.97 3.17 3.58 5.07 3.58 0.99 0 0.99 0.31-0.06 1.56-0.86 1.02-1.8 2.84-2.25 4.27-0.18 0.56-0.22 1.54-0.12 3.28 0.14 2.8 0.94 5.73 2.23 8.08 0.41 0.74 0.98 1.78 1.27 2.35 0.3 0.56 1 1.56 1.55 2.19 0.55 0.64 1 1.23 1 1.33 0 0.08 0.64 0.86 1.4 1.72 0.75 0.88 1.88 2.21 2.49 2.97 0.62 0.78 1.25 1.55 1.39 1.72 0.29 0.32 2.66 3.6 3.01 4.13 0.12 0.16 0.57 0.82 1.04 1.41 0.86 1.15 2.5 3.46 2.85 4.03 0.1 0.21 0.41 0.64 0.65 1.01 0.27 0.34 0.47 0.73 0.47 0.85 0 0.17 2.54 3.28 3.32 4.08 1.17 1.16 3.52 3.02 4.36 3.43 0.57 0.29 1.33 0.72 1.72 0.95 1.15 0.71 4.44 1.21 7.82 1.21 0.47 0 0.94-0.01 1.4-0.03 0.49-0.02 1-0.03 1.5-0.03 1.06 0 2.04 0.04 2.49 0.11 0.75 0.11 1.54 0.17 2.35 0.17 2.76 0 5.72-0.63 7.93-1.74 0.57-0.31 1.16-0.68 1.33-0.82 0.16-0.16 0.55-0.43 0.88-0.61 1.3-0.66 5.46-5.32 7.12-7.96 0.4-0.68 0.75-1.27 0.75-1.33s0.37-0.7 0.82-1.42c0.45-0.69 1.23-2.23 1.76-3.39 0.51-1.17 1.11-2.48 1.31-2.93 0.7-1.53 1.8-4.5 2.05-5.52 0.14-0.58 0.39-1.31 0.53-1.64 0.24-0.59 1.08-3.38 1.53-5.11 0.11-0.45 0.35-1.25 0.49-1.76 0.17-0.54 0.31-1.11 0.31-1.29 0-0.21 0.12-0.78 0.29-1.31 0.16-0.53 0.45-1.7 0.63-2.6 0.21-0.9 0.47-1.97 0.62-2.35 0.14-0.39 0.36-1.27 0.47-1.95 0.45-2.54 0.69-3.68 0.88-3.86 0.1-0.13 0.18-0.46 0.18-0.76 0-0.31 0.1-0.82 0.23-1.15 0.12-0.3 0.3-1.27 0.4-2.11 0.31-2.68 0.7-5.21 0.84-5.44 0.09-0.12 0.23-1.08 0.35-2.15 0.12-1.06 0.27-2.14 0.33-2.43s0.2-1.02 0.33-1.64c0.1-0.61 0.26-1.59 0.36-2.15 0.13-0.57 0.21-1.49 0.21-2.06 0.02-0.56 0.1-1.11 0.2-1.23 0.11-0.1 0.29-1.02 0.41-2.03 0.13-1.02 0.31-2.49 0.43-3.27 0.12-0.8 0.27-1.8 0.31-2.25 0.45-4.09 1.35-9.17 2.25-12.54 0.08-0.3 0.16-0.44 0.25-0.44 0.13 0 0.26 0.36 0.34 1.05 0.35 2.86 0.37 3.68 0.17 4.11-0.13 0.25-0.27 1.27-0.33 2.29-0.04 1.01-0.12 2.17-0.18 2.56-0.07 0.39-0.21 1.5-0.33 2.46-0.31 2.35-0.74 4.99-1.05 6.3-0.3 1.37-0.18 7.49 0.19 8.94 0.59 2.35 2.13 6.86 2.78 8.19 0.84 1.71 3.54 4.6 4.32 4.6 0.55 0 2.76-1.97 3.54-3.17 0.76-1.19 1.19-2.15 2.19-5.06 0.86-2.45 1.06-3.23 1.51-5.48 0.25-1.25 0.23-6.81-0.02-8.08-0.43-2.13-0.82-4.77-1-6.65-0.1-1.07-0.25-2.17-0.31-2.46-0.08-0.28-0.2-1.39-0.31-2.45-0.08-1.07-0.22-2.21-0.3-2.54-0.17-0.59 0.2-3.74 0.51-4.52 0.05-0.13 0.08-0.2 0.12-0.2 0.06 0 0.11 0.19 0.19 0.61 0.08 0.45 0.2 0.9 0.28 1.02 0.19 0.31 1.09 4.97 1.46 7.57 0.12 0.9 0.3 2.05 0.4 2.56 0.11 0.51 0.25 1.74 0.31 2.76 0.08 1 0.21 1.92 0.31 2.05 0.08 0.1 0.2 0.96 0.26 1.9 0.09 0.92 0.23 1.86 0.35 2.07 0.1 0.22 0.21 0.9 0.21 1.53 0 0.62 0.08 1.17 0.18 1.23s0.25 0.88 0.33 1.8c0.08 0.94 0.22 1.84 0.33 2.03 0.1 0.18 0.26 1.1 0.36 2.04 0.11 0.94 0.35 2.6 0.54 3.66 0.45 2.54 0.51 2.89 0.67 4.71 0.08 0.84 0.23 1.66 0.31 1.8 0.1 0.12 0.24 0.68 0.35 1.23 0.1 0.53 0.32 1.55 0.51 2.29 0.18 0.74 0.43 1.88 0.55 2.56 0.1 0.67 0.37 1.63 0.57 2.15 0.19 0.51 0.56 1.88 0.8 3.07 0.7 3.35 0.76 3.7 1.11 4.91 0.94 3.33 1.41 5.07 1.51 5.56 0.06 0.31 0.23 0.68 0.39 0.8s0.29 0.41 0.29 0.63c0 0.72 1.47 4.87 2.55 7.23 1.56 3.35 2.74 5.7 3.62 7.12 0.54 0.88 0.99 1.67 0.99 1.76 0 0.08 0.39 0.61 0.88 1.18 0.47 0.58 1.24 1.54 1.74 2.17 1.08 1.39 3.8 3.99 4.72 4.54 0.39 0.23 1.13 0.66 1.64 0.97 1.33 0.79 3.33 1.35 5.79 1.63 1.28 0.14 2.01 0.22 2.66 0.22 0.58 0 1.1-0.06 1.9-0.18 0.46-0.07 1.42-0.11 2.44-0.11 0.49 0 0.98 0.01 1.45 0.03 0.44 0.02 0.9 0.03 1.38 0.03 2.26 0 4.8-0.23 6.44-0.6 0.47-0.1 1.43-0.53 2.1-0.94 0.7-0.41 1.33-0.74 1.42-0.74 0.18 0 2.08-1.47 2.9-2.25 0.31-0.29 0.76-0.7 1.02-0.92 0.27-0.25 0.78-0.78 1.11-1.21 0.35-0.43 0.98-1.23 1.43-1.76s1.11-1.45 1.43-2.02c0.35-0.6 0.82-1.35 1.09-1.72 0.24-0.37 0.92-1.31 1.47-2.09 1.29-1.84 1.86-2.62 2.93-3.99 0.49-0.61 1.08-1.45 1.31-1.84 0.24-0.39 0.77-1.04 1.16-1.41 0.41-0.39 0.74-0.8 0.74-0.9 0-0.21 1.17-1.64 2.31-2.83 0.41-0.43 0.76-0.88 0.76-0.96 0-0.1 0.22-0.39 0.51-0.65 0.29-0.27 0.51-0.58 0.51-0.68s0.23-0.45 0.51-0.73c0.88-0.9 1.58-1.87 2.17-2.95 1.5-2.72 2.44-4.67 2.44-4.99 0.02-0.21 0.16-0.74 0.32-1.19 0.37-0.96 0.68-2.7 0.84-4.75 0.11-1.45-0.16-2.76-0.86-4.15-0.14-0.29-0.38-0.78-0.53-1.1-0.16-0.33-0.61-0.97-1.02-1.44-1.13-1.27-1.11-1.61 0.02-1.78 1.43-0.2 2.35-0.61 3.35-1.57 1.85-1.72 2.69-4.5 2.87-9.56 0.12-3.07 0.29-4.27 0.86-6.05 0.16-0.54 0.29-1.17 0.29-1.44 0-0.26 0.24-1.14 0.53-1.92 0.28-0.8 0.61-1.74 0.71-2.09 0.45-1.47 1.19-2.74 3.77-6.4 1.76-2.52 3.09-5.96 3.27-8.43 0.08-1 0.23-1.84 0.33-1.92 0.1-0.07 0.18-1.62 0.18-3.46 0-2.68-0.06-3.52-0.32-4.14-1.07-2.43-1.68-3.52-2.44-4.35-0.47-0.52-1-1.15-1.19-1.44-0.2-0.28-1.43-1.59-2.74-2.9-1.31-1.33-2.35-2.46-2.29-2.52s0.84-0.37 1.74-0.69c2.13-0.78 4.73-1.99 5.55-2.6 0.34-0.27 0.69-0.49 0.75-0.49 0.1 0 2.13-2.07 2.85-2.89 0.14-0.16 0.45-0.45 0.69-0.61 0.55-0.39 2.27-2.93 2.46-3.62 0.14-0.58 1.2-3.01 1.92-4.4 0.23-0.45 0.45-1.23 0.49-1.74 0.35-3.64 0.25-3.38 3.77-10.58 1.08-2.25 2.19-4.54 2.45-5.12 0.41-0.9 0.96-1.69 2.11-3.07 0.78-0.94 1.76-2.18 2.82-3.6 0.62-0.82 1.72-2.19 2.46-3.02 2.17-2.54 2.97-3.57 3.54-4.47 0.53-0.83 6.79-7.14 7.47-7.5 0.51-0.27 4.6-4.26 6.18-5.98 1.88-2.11 4.05-4.68 5.09-6.12 0.49-0.67 0.98-1.27 1.08-1.29 0.09-0.04 0.17-0.16 0.17-0.28 0-0.17 0.9-1.48 1.23-1.8 0.57-0.56 2.72-4.75 2.98-5.83 0.09-0.35 0.19-2.07 0.23-3.83 0.06-2.54 0.02-3.42-0.25-4.15-0.45-1.33-1.82-3.11-2.9-3.75-0.49-0.31-1.21-0.74-1.56-0.96-0.77-0.47-2.39-1.08-3.52-1.35-0.45-0.1-1-0.27-1.22-0.37-1.15-0.51-1.46-0.59-5.63-1.57-1.97-0.45-4.93-1.01-6.45-1.21-0.32-0.04-1.2-0.19-1.94-0.29-0.85-0.14-3.42-0.21-6.12-0.21z" fill="inherit"/>
  </g>
 </g>
</svg>