<?xml version="1.0" encoding="UTF-8"?><svg xmlns="http://www.w3.org/2000/svg" xmlns:xlink="http://www.w3.org/1999/xlink" height="501.4" preserveAspectRatio="xMidYMid meet" version="1.0" viewBox="0.0 -1.4 628.3 501.4" width="628.3" zoomAndPan="magnify"><defs><clipPath id="a"><path d="M 0 90 L 628.308594 90 L 628.308594 498 L 0 498 Z M 0 90"/></clipPath><clipPath id="b"><path d="M 194 0 L 340 0 L 340 499.96875 L 194 499.96875 Z M 194 0"/></clipPath></defs><g><g clip-path="url(#a)"><g id="change1_1"><path d="M 307.234375 266.171875 L 306.835938 264.472656 L 298.535156 233.171875 C 283.035156 209.171875 240.933594 150.871094 161.835938 116.269531 C 122.535156 98.96875 85.636719 92.671875 56.335938 90.871094 C 37.335938 89.671875 21.433594 90.46875 10.234375 91.46875 C 4.234375 110.269531 -8.566406 158.972656 8.636719 216.671875 C 24.335938 269.769531 57.433594 303.871094 80.335938 322.269531 C 89.335938 329.472656 96.734375 334.371094 100.933594 336.972656 C 99.234375 341.171875 97.734375 345.472656 96.433594 349.671875 C 82.636719 396.371094 96.535156 445.871094 130.535156 473.671875 C 176.933594 511.570312 254.433594 504.171875 298.535156 448.972656 C 299.535156 437.769531 300.636719 426.671875 301.636719 415.472656 C 305.535156 373.371094 309.433594 331.269531 313.335938 289.171875 Z M 321.035156 266.171875 L 321.433594 264.472656 L 329.734375 233.171875 C 345.234375 209.171875 387.335938 150.871094 466.433594 116.269531 C 505.734375 99.070312 542.535156 92.769531 571.835938 90.96875 C 590.835938 89.769531 606.734375 90.570312 617.933594 91.570312 C 623.933594 110.371094 636.734375 159.070312 619.535156 216.769531 C 603.835938 269.871094 570.734375 303.972656 547.835938 322.371094 C 538.835938 329.570312 531.433594 334.472656 527.234375 337.070312 C 528.933594 341.269531 530.433594 345.570312 531.734375 349.769531 C 545.535156 396.472656 531.636719 445.972656 497.636719 473.769531 C 451.234375 511.671875 373.734375 504.269531 329.636719 449.070312 C 328.636719 437.871094 327.535156 426.769531 326.535156 415.570312 C 322.636719 373.472656 318.734375 331.371094 314.835938 289.269531 L 321.035156 266.171875" fill="#94d5a3"/></g><g id="change2_1"><path d="M 333.136719 267.472656 C 329.335938 266.972656 325.535156 266.472656 321.734375 266.070312 C 320.835938 265.671875 320.035156 265.371094 319.136719 265.070312 M 333.136719 267.472656 C 357.535156 270.570312 383.433594 274.972656 410.636719 280.871094 C 451.433594 289.769531 488.433594 300.671875 521.433594 312.371094 C 545.136719 292.871094 586.636719 250.171875 591.835938 185.371094 C 595.335938 141.769531 580.734375 107.472656 572.136719 90.871094 C 591.136719 89.671875 607.035156 90.46875 618.234375 91.46875 C 624.035156 110.269531 636.835938 158.972656 619.734375 216.671875 C 604.035156 269.769531 570.933594 303.871094 548.035156 322.269531 C 546.933594 323.171875 545.933594 323.972656 544.933594 324.769531 C 544.636719 324.972656 544.433594 325.171875 544.136719 325.371094 C 543.335938 325.972656 542.636719 326.570312 541.933594 327.070312 C 541.636719 327.269531 541.335938 327.570312 541.035156 327.769531 C 540.335938 328.269531 539.734375 328.769531 539.136719 329.171875 C 538.835938 329.371094 538.535156 329.570312 538.234375 329.871094 C 537.636719 330.269531 537.035156 330.671875 536.535156 331.070312 C 536.234375 331.269531 535.933594 331.472656 535.636719 331.671875 C 535.136719 332.070312 534.535156 332.371094 534.035156 332.769531 C 533.734375 332.972656 533.535156 333.171875 533.234375 333.371094 C 532.734375 333.671875 532.234375 333.972656 531.835938 334.371094 C 531.636719 334.570312 531.335938 334.671875 531.136719 334.871094 C 530.636719 335.171875 530.234375 335.472656 529.734375 335.769531 C 529.535156 335.871094 529.335938 335.972656 529.234375 336.070312 C 528.636719 336.472656 528.136719 336.769531 527.636719 337.070312 C 528.433594 338.972656 529.136719 340.871094 529.835938 342.769531 C 529.933594 342.972656 530.035156 343.269531 530.136719 343.472656 C 530.535156 344.472656 530.835938 345.472656 531.136719 346.472656 L 531.136719 346.570312 C 531.535156 347.671875 531.835938 348.769531 532.136719 349.769531 C 545.933594 396.472656 532.035156 445.972656 498.035156 473.769531 C 451.636719 511.671875 374.136719 504.269531 330.035156 449.070312 C 329.035156 437.871094 327.933594 426.769531 326.933594 415.570312 C 354.734375 457.769531 408.136719 474.070312 451.933594 455.671875 C 495.433594 437.371094 520.433594 388.570312 511.035156 340.671875 C 485.535156 330.070312 456.433594 319.671875 423.933594 310.769531 C 383.835938 299.769531 347.136719 293.171875 315.234375 289.371094 C 314.933594 288.171875 314.734375 287.070312 314.433594 285.871094 C 314.136719 287.070312 313.933594 288.171875 313.636719 289.371094 C 281.734375 293.171875 244.933594 299.769531 204.933594 310.769531 C 172.535156 319.671875 143.433594 330.171875 117.835938 340.671875 C 108.433594 388.570312 133.433594 437.371094 176.933594 455.671875 C 220.734375 474.070312 274.136719 457.871094 301.933594 415.570312 C 300.933594 426.769531 299.835938 437.871094 298.835938 449.070312 C 254.734375 504.269531 177.234375 511.671875 130.835938 473.769531 C 96.835938 445.972656 82.933594 396.570312 96.734375 349.769531 C 97.035156 348.671875 97.335938 347.671875 97.734375 346.570312 L 97.734375 346.472656 C 98.035156 345.472656 98.433594 344.472656 98.734375 343.472656 C 98.835938 343.269531 98.933594 342.972656 99.035156 342.769531 C 99.734375 340.871094 100.433594 338.972656 101.234375 337.070312 C 100.734375 336.769531 100.234375 336.472656 99.636719 336.070312 C 99.433594 335.972656 99.234375 335.871094 99.136719 335.769531 C 98.734375 335.472656 98.234375 335.171875 97.734375 334.871094 C 97.535156 334.769531 97.234375 334.570312 97.035156 334.371094 C 96.535156 334.070312 96.136719 333.769531 95.636719 333.371094 C 95.335938 333.171875 95.136719 332.972656 94.835938 332.769531 C 94.335938 332.472656 93.835938 332.070312 93.234375 331.671875 C 92.933594 331.472656 92.636719 331.269531 92.335938 331.070312 C 91.734375 330.671875 91.234375 330.269531 90.636719 329.871094 C 90.335938 329.671875 90.035156 329.472656 89.734375 329.171875 C 89.136719 328.671875 88.433594 328.269531 87.835938 327.769531 C 87.535156 327.570312 87.234375 327.371094 86.933594 327.070312 C 86.234375 326.570312 85.433594 325.972656 84.734375 325.371094 C 84.433594 325.171875 84.234375 324.972656 83.933594 324.769531 C 82.933594 323.972656 81.835938 323.171875 80.835938 322.269531 C 57.933594 303.871094 24.933594 269.769531 9.136719 216.671875 C -8.464844 158.972656 4.234375 110.269531 10.234375 91.46875 C 21.535156 90.46875 37.335938 89.671875 56.335938 90.871094 C 47.734375 107.472656 33.136719 141.671875 36.636719 185.371094 C 41.835938 250.171875 83.335938 292.871094 107.035156 312.371094 C 140.035156 300.671875 177.035156 289.769531 217.835938 280.871094 C 249.335938 273.972656 279.136719 269.269531 306.734375 266.070312 C 307.636719 265.769531 308.433594 265.472656 309.335938 265.070312 C 309.035156 263.769531 308.734375 262.472656 308.433594 261.070312 C 310.335938 261.769531 312.234375 262.472656 314.234375 263.269531 C 316.136719 262.570312 318.035156 261.871094 320.035156 261.070312 C 319.734375 262.371094 319.433594 263.671875 319.136719 265.070312" fill="#45bba9"/></g></g><g id="change3_1"><path d="M 204.636719 343.472656 C 180.035156 343.472656 160.136719 363.371094 160.136719 387.972656 C 160.136719 412.570312 180.035156 432.472656 204.636719 432.472656 C 229.234375 432.472656 249.136719 412.570312 249.136719 387.972656 C 249.136719 363.371094 229.234375 343.472656 204.636719 343.472656 Z M 146.933594 150.769531 C 116.035156 150.769531 90.933594 175.871094 90.933594 206.769531 C 90.933594 237.671875 116.035156 262.769531 146.933594 262.769531 C 177.835938 262.769531 202.933594 237.671875 202.933594 206.769531 C 202.933594 175.871094 177.933594 150.769531 146.933594 150.769531 Z M 379.234375 387.972656 C 379.234375 412.570312 399.136719 432.472656 423.734375 432.472656 C 448.335938 432.472656 468.234375 412.570312 468.234375 387.972656 C 468.234375 363.371094 448.335938 343.472656 423.734375 343.472656 C 399.136719 343.472656 379.234375 363.371094 379.234375 387.972656 Z M 481.335938 150.769531 C 512.234375 150.769531 537.335938 175.871094 537.335938 206.769531 C 537.335938 237.671875 512.234375 262.769531 481.335938 262.769531 C 450.433594 262.769531 425.335938 237.671875 425.335938 206.769531 C 425.335938 175.871094 450.433594 150.769531 481.335938 150.769531" fill="#ed0d71"/></g><g id="change2_2"><path d="M 240.835938 323.769531 C 222.636719 323.769531 207.933594 338.472656 207.933594 356.671875 C 207.933594 374.871094 222.636719 389.570312 240.835938 389.570312 C 259.035156 389.570312 273.734375 374.871094 273.734375 356.671875 C 273.734375 338.472656 259.035156 323.769531 240.835938 323.769531 Z M 89.335938 165.570312 C 71.136719 165.570312 56.433594 180.269531 56.433594 198.472656 C 56.433594 216.671875 71.136719 231.371094 89.335938 231.371094 C 107.535156 231.371094 122.234375 216.671875 122.234375 198.472656 C 122.234375 180.269531 107.535156 165.570312 89.335938 165.570312 Z M 216.136719 185.371094 C 197.933594 185.371094 183.234375 200.070312 183.234375 218.269531 C 183.234375 236.472656 197.933594 251.171875 216.136719 251.171875 C 234.335938 251.171875 249.035156 236.472656 249.035156 218.269531 C 249.035156 200.070312 234.335938 185.371094 216.136719 185.371094 Z M 354.535156 356.671875 C 354.535156 374.871094 369.234375 389.570312 387.433594 389.570312 C 405.636719 389.570312 420.335938 374.871094 420.335938 356.671875 C 420.335938 338.472656 405.636719 323.769531 387.433594 323.769531 C 369.234375 323.769531 354.535156 338.472656 354.535156 356.671875 Z M 506.035156 198.570312 C 506.035156 216.769531 520.734375 231.472656 538.933594 231.472656 C 557.136719 231.472656 571.835938 216.769531 571.835938 198.570312 C 571.835938 180.371094 557.136719 165.671875 538.933594 165.671875 C 520.835938 165.570312 506.035156 180.371094 506.035156 198.570312 Z M 412.136719 185.371094 C 430.335938 185.371094 445.035156 200.070312 445.035156 218.269531 C 445.035156 236.472656 430.335938 251.171875 412.136719 251.171875 C 393.933594 251.171875 379.234375 236.472656 379.234375 218.269531 C 379.234375 200.070312 393.933594 185.371094 412.136719 185.371094" fill="#45bba9"/></g><g clip-path="url(#b)" id="change4_1"><path d="M 333.136719 196.972656 C 332.835938 199.570312 332.636719 202.171875 332.335938 204.871094 M 332.335938 204.871094 C 331.535156 213.769531 330.636719 222.671875 329.835938 231.570312 C 333.136719 238.472656 338.035156 251.269531 338.035156 267.769531 C 338.035156 288.472656 330.433594 303.769531 326.535156 310.570312 C 333.636719 330.972656 344.035156 369.570312 338.035156 417.570312 C 333.433594 454.269531 321.035156 482.472656 311.636719 499.972656 C 302.035156 484.269531 288.933594 458.472656 283.636719 424.171875 C 275.136719 369.269531 291.734375 325.671875 300.136719 307.269531 C 296.535156 301.570312 289.835938 289.472656 288.636719 272.671875 C 287.234375 253.570312 293.734375 239.171875 296.835938 233.171875 L 293.535156 196.972656 C 292.835938 188.472656 294.835938 181.171875 298.234375 175.671875 C 290.535156 106.769531 252.734375 43.769531 195.136719 4.769531 C 192.535156 2.96875 195.035156 -1.328125 197.636719 0.46875 C 255.234375 39.570312 293.335938 101.671875 302.535156 170.269531 C 305.433594 167.472656 308.636719 165.871094 311.734375 165.671875 C 321.035156 165.070312 334.035156 177.871094 333.136719 196.972656" fill="#f3c643"/></g><g id="change3_2"><path d="M 331.035156 167.371094 C 340.933594 99.96875 378.636719 38.96875 435.535156 0.46875 C 438.234375 -1.429688 440.636719 2.871094 438.035156 4.671875 C 381.535156 42.96875 344.234375 104.171875 335.433594 171.472656 C 340.035156 176.972656 343.433594 185.269531 343.035156 195.269531 C 341.933594 206.769531 340.835938 218.371094 339.734375 229.871094 C 343.035156 236.769531 347.933594 249.570312 347.933594 266.070312 C 347.933594 286.769531 340.335938 302.070312 336.433594 308.871094 C 343.636719 329.371094 353.933594 367.871094 347.933594 415.972656 C 343.335938 452.671875 330.933594 480.871094 321.535156 498.371094 C 311.933594 482.671875 298.835938 456.871094 293.535156 422.570312 C 285.035156 367.671875 301.636719 324.070312 310.035156 305.671875 C 306.433594 299.972656 299.734375 287.871094 298.535156 271.070312 C 297.136719 251.972656 303.636719 237.570312 306.734375 231.570312 L 303.433594 195.371094 C 301.933594 177.570312 312.636719 164.570312 321.535156 164.070312 M 321.535156 164.070312 C 324.535156 163.871094 327.835938 165.070312 331.035156 167.371094" fill="#ed0d71"/></g></g></svg>