<?xml version="1.0" encoding="UTF-8"?><svg xmlns="http://www.w3.org/2000/svg" xmlns:xlink="http://www.w3.org/1999/xlink" height="485.5" preserveAspectRatio="xMidYMid meet" version="1.0" viewBox="-0.9 -0.7 500.9 485.5" width="500.9" zoomAndPan="magnify"><defs><clipPath id="a"><path d="M 26 0 L 500 0 L 500 484.5 L 26 484.5 Z M 26 0"/></clipPath><clipPath id="b"><path d="M 121 81 L 500 81 L 500 484.5 L 121 484.5 Z M 121 81"/></clipPath></defs><g><g clip-path="url(#a)" id="change1_2"><path d="M 482.164062 199.289062 C 473.199219 184.242188 461.976562 170.34375 455.859375 153.941406 C 449.730469 137.539062 449.882812 117.167969 462.027344 104.546875 C 466.933594 99.457031 474.164062 93.558594 471.414062 87.039062 C 469.183594 81.769531 461.855469 81.128906 456.347656 82.699219 C 437.03125 88.230469 425.949219 109.914062 426.359375 130.007812 C 426.78125 150.089844 436.136719 168.804688 445.984375 186.308594 C 455.847656 203.816406 466.597656 221.386719 470.277344 241.132812 C 472.617188 253.699219 471.621094 267.71875 463.632812 277.6875 C 463.589844 277.742188 463.546875 277.796875 463.503906 277.839844 C 457.082031 285.699219 445.390625 286.609375 437.542969 280.179688 C 405.84375 254.21875 378.921875 222.164062 347.214844 195.921875 C 307.875 163.390625 254.523438 139.414062 206.332031 156.238281 C 200.105469 158.402344 193.664062 161.269531 187.179688 160.058594 C 177.230469 158.183594 171.492188 147.132812 171.589844 136.933594 C 171.601562 136.460938 171.613281 135.992188 171.644531 135.515625 C 172.316406 124.941406 177.601562 115.316406 181.703125 105.550781 C 193.632812 77.210938 195.960938 44.960938 188.457031 15.160156 C 187.589844 11.683594 183.988281 9.703125 180.585938 10.808594 C 166.871094 15.265625 154.445312 23.820312 145.578125 35.175781 C 137.414062 29.839844 128.3125 25.941406 118.804688 23.796875 C 106.28125 20.972656 93.105469 21.1875 80.65625 24.316406 C 77.851562 19.488281 73.914062 15.117188 69.992188 11.121094 C 67.15625 8.21875 64.203125 5.273438 61.550781 2.136719 C 59.332031 -0.484375 55.390625 -0.710938 52.835938 1.582031 C 40.613281 12.496094 33.273438 28.917969 33.597656 45.308594 C 24.722656 65.171875 24.320312 88.914062 33.480469 108.722656 C 37.398438 117.210938 42.863281 124.941406 46.296875 133.632812 C 53.613281 152.242188 50.863281 173.027344 49.957031 193 C 48.960938 214.933594 50.605469 237.914062 61.722656 256.839844 C 70.320312 271.476562 83.828125 282.429688 97.035156 293.070312 C 100.933594 296.210938 104.839844 299.351562 108.738281 302.488281 C 129.988281 333.050781 146.507812 366.902344 157.476562 402.484375 C 160.257812 411.523438 162.714844 420.867188 162.152344 430.308594 C 161.601562 439.746094 157.570312 449.414062 149.734375 454.707031 C 143.554688 458.886719 134.277344 461.796875 134.136719 469.257812 C 134.058594 473.835938 137.902344 477.515625 141.886719 479.777344 C 145.058594 481.585938 148.4375 482.84375 151.921875 483.601562 C 165.898438 486.640625 181.628906 481.71875 193.089844 472.601562 C 207.402344 461.203125 216.34375 444.476562 223.996094 427.859375 C 232.832031 408.6875 240.472656 389.007812 247.617188 369.132812 C 248.410156 366.902344 251.289062 366.390625 252.835938 368.167969 C 263.898438 380.789062 278.125 390.664062 294.019531 396.078125 C 303.511719 399.3125 314.726562 402.039062 319.035156 411.09375 C 324.664062 422.921875 314.097656 436.207031 302.914062 443.058594 C 297.773438 446.210938 292.273438 448.871094 286.40625 450.257812 C 278.0625 452.226562 269.292969 451.558594 260.878906 453.203125 C 252.457031 454.847656 243.722656 459.785156 241.609375 468.097656 C 240.972656 470.601562 241.015625 473.328125 242.128906 475.65625 C 245.378906 482.390625 254.828125 482.257812 262.265625 481.457031 C 282.097656 479.324219 302.199219 479.726562 321.9375 482.660156 C 326.785156 483.375 331.710938 484.25 336.5625 483.503906 C 350.265625 481.390625 358.484375 467.765625 367.902344 457.574219 C 375.589844 449.261719 385.105469 442.648438 395.582031 438.339844 C 401.09375 436.078125 407.21875 434.191406 410.804688 429.429688 C 416.183594 422.265625 413.453125 412.011719 409.460938 403.988281 C 405.476562 395.96875 400.28125 387.695312 401.40625 378.808594 C 402.988281 366.402344 415.675781 359.171875 424.042969 349.882812 C 429.445312 343.898438 433.0625 336.460938 434.792969 328.601562 C 436.046875 322.9375 441.007812 318.902344 446.808594 318.867188 C 456.3125 318.8125 465.925781 316 473.785156 310.664062 C 490.78125 299.113281 499.746094 278.023438 499.992188 257.476562 C 500.230469 236.929688 492.675781 216.9375 482.164062 199.289062" fill="#e7e1ca"/></g><g clip-path="url(#b)" id="change2_1"><path d="M 482.164062 199.289062 C 492.675781 216.9375 500.230469 236.929688 499.992188 257.476562 C 499.746094 278.023438 490.78125 299.113281 473.785156 310.664062 C 465.925781 316 456.3125 318.8125 446.808594 318.867188 C 441.007812 318.902344 436.046875 322.9375 434.792969 328.601562 C 433.0625 336.460938 429.445312 343.898438 424.042969 349.882812 C 415.675781 359.171875 402.988281 366.402344 401.40625 378.808594 C 400.28125 387.695312 405.476562 395.96875 409.460938 403.988281 C 413.453125 412.011719 416.183594 422.265625 410.804688 429.429688 C 407.21875 434.191406 401.09375 436.078125 395.582031 438.339844 C 385.105469 442.648438 375.589844 449.261719 367.902344 457.574219 C 358.484375 467.765625 350.265625 481.390625 336.5625 483.503906 C 331.710938 484.25 326.785156 483.375 321.9375 482.660156 C 302.199219 479.726562 282.097656 479.324219 262.265625 481.457031 C 254.828125 482.257812 245.378906 482.390625 242.128906 475.65625 C 241.015625 473.328125 240.972656 470.601562 241.609375 468.097656 C 243.722656 459.785156 252.457031 454.847656 260.878906 453.203125 C 269.292969 451.558594 278.0625 452.226562 286.40625 450.257812 C 292.273438 448.871094 297.773438 446.210938 302.914062 443.058594 C 314.097656 436.207031 324.664062 422.921875 319.035156 411.09375 C 314.726562 402.039062 303.511719 399.3125 294.019531 396.078125 C 278.125 390.664062 263.898438 380.789062 252.835938 368.167969 C 251.289062 366.390625 248.410156 366.902344 247.617188 369.132812 C 240.472656 389.007812 232.832031 408.6875 223.996094 427.859375 C 216.34375 444.476562 207.402344 461.203125 193.089844 472.601562 C 181.625 481.71875 165.898438 486.640625 151.921875 483.601562 C 152.3125 478.082031 154.117188 472.667969 157.335938 468.152344 C 161.761719 461.9375 168.441406 457.5 172.359375 450.949219 C 175.390625 445.886719 176.550781 439.929688 177.351562 434.085938 C 181.105469 406.523438 178.097656 378.074219 168.667969 351.90625 C 168.464844 351.324219 168.246094 350.75 168.019531 350.164062 C 162.464844 335.214844 155.039062 320.839844 152.03125 305.183594 C 149.117188 290.074219 150.308594 273.824219 143.421875 260.054688 C 139.0625 251.351562 131.796875 244.398438 127.21875 235.816406 C 117.183594 217 121.804688 193.074219 133.335938 175.128906 C 143.121094 159.886719 157.148438 148.042969 171.589844 136.933594 C 171.492188 147.132812 177.230469 158.183594 187.179688 160.058594 C 193.664062 161.269531 200.105469 158.402344 206.332031 156.238281 C 254.523438 139.414062 307.875 163.390625 347.214844 195.921875 C 378.921875 222.164062 405.84375 254.21875 437.542969 280.179688 C 445.390625 286.609375 457.082031 285.699219 463.503906 277.839844 C 463.546875 277.796875 463.589844 277.742188 463.632812 277.6875 C 471.621094 267.71875 472.617188 253.699219 470.277344 241.132812 C 466.597656 221.386719 455.847656 203.816406 445.984375 186.308594 C 436.136719 168.804688 426.78125 150.089844 426.359375 130.007812 C 425.949219 109.914062 437.03125 88.230469 456.347656 82.699219 C 461.855469 81.128906 469.1875 81.769531 471.414062 87.039062 C 474.164062 93.558594 466.933594 99.457031 462.027344 104.546875 C 449.882812 117.167969 449.730469 137.539062 455.859375 153.941406 C 461.976562 170.34375 473.199219 184.242188 482.164062 199.289062" fill="#ceb099"/></g><g id="change1_1"><path d="M 188.457031 15.160156 C 195.960938 44.960938 193.632812 77.210938 181.703125 105.550781 C 177.601562 115.316406 172.316406 124.941406 171.644531 135.515625 C 171.613281 135.992188 171.601562 136.460938 171.589844 136.933594 C 157.148438 148.042969 143.121094 159.886719 133.335938 175.128906 C 121.804688 193.074219 117.183594 217 127.21875 235.816406 C 131.796875 244.398438 139.0625 251.351562 143.421875 260.054688 C 150.308594 273.824219 149.117188 290.074219 152.03125 305.183594 C 155.039062 320.839844 162.464844 335.214844 168.019531 350.164062 C 168.246094 350.75 168.464844 351.324219 168.667969 351.90625 C 178.097656 378.074219 181.105469 406.523438 177.351562 434.085938 C 176.550781 439.929688 175.390625 445.886719 172.359375 450.949219 C 168.441406 457.5 161.761719 461.9375 157.335938 468.152344 C 154.117188 472.667969 152.3125 478.082031 151.921875 483.601562 C 148.4375 482.84375 145.058594 481.585938 141.886719 479.777344 C 137.902344 477.515625 134.058594 473.835938 134.136719 469.257812 C 134.277344 461.796875 143.554688 458.886719 149.734375 454.707031 C 157.570312 449.414062 161.601562 439.746094 162.152344 430.308594 C 162.714844 420.867188 160.257812 411.523438 157.476562 402.484375 C 146.507812 366.902344 129.988281 333.050781 108.738281 302.488281 C 104.839844 299.351562 100.933594 296.210938 97.035156 293.070312 C 83.828125 282.429688 70.320312 271.476562 61.722656 256.839844 C 50.605469 237.914062 48.960938 214.933594 49.957031 193 C 50.863281 173.027344 53.613281 152.242188 46.296875 133.632812 C 42.863281 124.941406 37.398438 117.210938 33.480469 108.722656 C 24.320312 88.914062 24.722656 65.171875 33.597656 45.308594 C 33.273438 28.917969 40.613281 12.496094 52.835938 1.582031 C 55.390625 -0.710938 59.332031 -0.484375 61.550781 2.136719 C 64.203125 5.273438 67.15625 8.21875 69.992188 11.121094 C 73.914062 15.117188 77.851562 19.488281 80.65625 24.316406 C 93.105469 21.1875 106.28125 20.972656 118.804688 23.796875 C 128.3125 25.941406 137.414062 29.839844 145.578125 35.175781 C 154.445312 23.820312 166.871094 15.265625 180.585938 10.808594 C 183.988281 9.703125 187.589844 11.683594 188.457031 15.160156" fill="#e7e1ca"/></g><g id="change3_1"><path d="M 60.261719 11.5 C 59.644531 10.796875 58.898438 10.027344 57.957031 10.050781 C 57.058594 10.082031 56.375 10.808594 55.800781 11.5 C 49.609375 19.011719 45.214844 27.988281 42.953125 37.460938 C 42.367188 39.929688 45.050781 41.820312 47.183594 40.445312 C 54.253906 35.890625 62.15625 32.597656 70.371094 30.8125 C 72.34375 30.378906 73.242188 28.105469 72.0625 26.460938 C 68.359375 21.296875 64.417969 16.308594 60.261719 11.5 Z M 180.902344 24.492188 C 183.847656 31.550781 181.789062 39.679688 178.824219 46.726562 C 177.308594 50.320312 175.554688 53.871094 174.09375 57.496094 C 173.269531 59.542969 170.496094 59.835938 169.253906 58.007812 C 165.605469 52.660156 161.285156 47.765625 156.414062 43.488281 C 155.179688 42.40625 155.15625 40.492188 156.371094 39.375 C 162.171875 34.039062 168.074219 28.808594 174.070312 23.6875 C 175.425781 22.53125 177.199219 21.296875 178.855469 21.988281 C 179.871094 22.421875 180.46875 23.472656 180.902344 24.492188" fill="#f49274"/></g><g id="change3_2"><path d="M 95.519531 72.898438 C 97.453125 77.585938 100.503906 81.730469 104.652344 84.214844 C 97.820312 88.351562 90.074219 88.96875 83.613281 83.1875 C 88.480469 81.472656 92.585938 77.574219 95.519531 72.898438" fill="#f49274"/></g><g id="change4_1"><path d="M 170.738281 473.863281 C 170.113281 471 170.796875 468.511719 171.34375 465.730469 C 171.515625 464.863281 170.15625 464.515625 169.660156 465.109375 C 165.527344 470.035156 166.957031 479.117188 172.171875 482.6875 C 173.054688 483.289062 175.515625 482.386719 174.625 481.125 C 173.003906 478.832031 171.347656 476.664062 170.738281 473.863281 Z M 257.613281 462.632812 C 251.65625 466.347656 250.125 477.234375 255.628906 482.003906 C 256.578125 482.832031 258.871094 482.28125 258.261719 480.722656 C 257.089844 477.734375 255.792969 475.183594 255.878906 471.871094 C 255.964844 468.652344 257.234375 466.007812 258.554688 463.144531 C 258.785156 462.648438 257.921875 462.4375 257.613281 462.632812 Z M 319.871094 463.96875 C 313.867188 466.613281 309.242188 475.570312 314.734375 481 C 315.277344 481.539062 316.933594 481.417969 316.753906 480.363281 C 316.308594 477.730469 315.355469 475.332031 315.832031 472.609375 C 316.367188 469.515625 318.253906 466.859375 320.84375 465.109375 C 321.824219 464.445312 320.710938 463.597656 319.871094 463.96875 Z M 95.519531 72.898438 C 92.585938 77.574219 88.480469 81.472656 83.613281 83.1875 C 90.074219 88.96875 97.820312 88.351562 104.652344 84.214844 C 100.503906 81.730469 97.453125 77.585938 95.519531 72.898438 Z M 93.414062 65.34375 C 93.363281 65.015625 93.328125 64.691406 93.289062 64.367188 L 86.425781 60.46875 C 82.523438 58.25 84.546875 52.273438 88.992188 52.878906 L 106.167969 55.226562 C 110.613281 55.832031 110.960938 62.132812 106.605469 63.222656 L 99.101562 65.101562 C 99.09375 65.128906 99.085938 65.15625 99.078125 65.183594 C 100.382812 69.359375 101.589844 73.578125 104.242188 77.164062 C 109.195312 83.875 117.601562 85.628906 124.183594 80.238281 C 124.550781 79.9375 125.738281 80.019531 125.457031 80.734375 C 122.847656 87.464844 114.011719 87.855469 107.851562 85.710938 C 100.953125 93.90625 87.691406 92.25 81.042969 84.292969 C 80.933594 84.164062 80.863281 84.035156 80.824219 83.914062 C 74.472656 85.03125 66.167969 83.316406 64.78125 76.308594 C 64.640625 75.601562 65.808594 75.570312 66.136719 75.921875 C 71.292969 81.414062 78.949219 82.480469 85.089844 77.566406 C 89.089844 74.355469 91.230469 69.839844 93.414062 65.34375 Z M 67.410156 65.804688 C 46.964844 67.792969 28.601562 79.816406 18.988281 98.035156 C 18.332031 99.28125 20.480469 99.769531 21.089844 98.777344 C 31.269531 82.175781 48.265625 70.496094 67.539062 67.355469 C 68.722656 67.164062 68.648438 65.683594 67.410156 65.804688 Z M 69.398438 62.328125 C 70.265625 62.34375 70.667969 61.160156 69.769531 60.839844 C 58.472656 56.792969 44.105469 58.519531 32.707031 61.3125 C 20.863281 64.21875 9.839844 69.371094 0.390625 77.09375 C -0.886719 78.140625 1.285156 79.414062 2.34375 78.683594 C 11.96875 72.011719 22.5 66.714844 33.921875 63.933594 C 45.917969 61.011719 57.261719 62.109375 69.398438 62.328125 Z M 126.128906 72.902344 C 142.160156 80.082031 152.789062 91.097656 161.953125 105.839844 C 162.695312 107.039062 165.160156 106.457031 164.601562 104.914062 C 158.824219 88.933594 143.089844 76.109375 127.011719 71.453125 C 126.007812 71.160156 124.910156 72.359375 126.128906 72.902344 Z M 127.472656 67.3125 C 140.480469 66.515625 153.328125 67.785156 165.714844 71.988281 C 178.394531 76.292969 188.65625 83.632812 199.035156 91.851562 C 200.003906 92.621094 202.070312 91.402344 201.0625 90.246094 C 183.984375 70.609375 152.519531 61.8125 127.390625 66.039062 C 126.425781 66.203125 126.449219 67.378906 127.472656 67.3125 Z M 53.832031 49.503906 C 57.828125 49.914062 61.40625 49.375 65.277344 50.992188 C 69.023438 52.554688 72.175781 54.996094 74.390625 58.410156 C 74.796875 59.035156 76.171875 58.578125 75.878906 57.785156 C 72.929688 49.800781 61.585938 41.933594 53.210938 47.398438 C 52.160156 48.085938 52.675781 49.382812 53.832031 49.503906 Z M 128.898438 61.460938 C 135.453125 53.230469 143.996094 52.832031 153.3125 55.878906 C 154.191406 56.164062 156.179688 55.101562 155.039062 54.128906 C 146.195312 46.605469 132.390625 51.300781 127.265625 60.84375 C 126.722656 61.851562 128.359375 62.136719 128.898438 61.460938 Z M 290.167969 274.941406 C 265.007812 290.183594 250.5 319.835938 256.183594 348.972656 C 259.429688 365.613281 268.65625 382.449219 283.140625 391.726562 C 284.527344 392.613281 287.347656 390.914062 285.824219 389.390625 C 275.855469 379.421875 267.382812 368.699219 263.15625 355.039062 C 259.117188 341.988281 258.96875 327.859375 263.261719 314.847656 C 272.066406 288.171875 296.960938 268.980469 325.046875 267.65625 C 342.09375 266.855469 358.796875 271.667969 373.089844 280.890625 C 373.378906 281.078125 373.917969 280.777344 373.570312 280.480469 C 350.632812 260.609375 315.710938 259.472656 290.167969 274.941406 Z M 246.191406 218.921875 C 244.066406 202.605469 232.964844 187.5 220.117188 177.742188 C 214.027344 173.117188 207.402344 169.746094 200.289062 166.992188 C 191.675781 163.660156 182.730469 160.722656 176.066406 154.019531 C 175.835938 153.789062 175.207031 153.972656 175.46875 154.320312 C 184.992188 166.953125 202.75 169.4375 214.964844 178.777344 C 228.859375 189.402344 236.714844 203.769531 242.839844 219.796875 C 243.417969 221.308594 246.402344 220.546875 246.191406 218.921875 Z M 134.214844 128.617188 C 135.816406 127.09375 132.949219 125.820312 131.640625 126.667969 C 121.773438 133.050781 110.644531 136.804688 98.804688 135.292969 C 86.628906 133.738281 76 126.832031 65.839844 120.417969 C 64.9375 119.847656 63.40625 120.902344 64.464844 121.734375 C 75.300781 130.265625 86.828125 138.660156 101.046875 139.703125 C 113.019531 140.582031 125.4375 136.953125 134.214844 128.617188 Z M 159.683594 330.351562 C 153.070312 315.757812 145.496094 300.550781 135.15625 288.199219 C 134.820312 287.800781 133.691406 288.042969 134.003906 288.660156 C 140.515625 301.570312 148.039062 313.824219 153.832031 327.128906 C 155.234375 330.351562 156.585938 333.601562 157.882812 336.871094 C 157.015625 335.972656 156.152344 335.101562 155.316406 334.265625 C 150.097656 329.03125 144.253906 324.535156 138.230469 320.269531 C 126.207031 311.761719 114.097656 303.5625 102.289062 294.753906 C 101.996094 294.535156 101.273438 294.820312 101.605469 295.214844 C 110.542969 305.851562 123.394531 313.425781 134.359375 321.753906 C 139.71875 325.824219 144.980469 330.082031 149.78125 334.808594 C 155.023438 339.972656 158.523438 346.320312 163.332031 351.714844 C 165.292969 357.507812 167.078125 363.351562 168.65625 369.253906 C 172.464844 383.511719 175.199219 398.050781 176.714844 412.730469 C 177.496094 420.273438 178.257812 428.015625 178.007812 435.597656 C 177.726562 444.179688 174.257812 449.820312 167.550781 454.949219 C 159.648438 460.992188 146.800781 471.046875 151.507812 482.613281 C 152.402344 484.816406 156.761719 483.183594 155.765625 480.734375 C 153.269531 474.605469 159.011719 467.335938 163.222656 463.410156 C 167.808594 459.136719 173.53125 456.175781 177.53125 451.257812 C 185.652344 441.277344 182.652344 425.34375 181.507812 413.53125 C 178.742188 384.953125 171.546875 356.53125 159.683594 330.351562 Z M 350.488281 411.089844 C 345.984375 408.257812 339.96875 408.507812 334.914062 407.519531 C 328.070312 406.1875 321.691406 403.761719 315.035156 401.816406 C 314.203125 401.574219 312.804688 402.519531 313.882812 403.242188 C 323.011719 409.355469 333.648438 409.902344 343.933594 412.511719 C 349.570312 413.9375 352.882812 419.027344 351.691406 424.808594 C 350.460938 430.78125 344.28125 434.792969 339.210938 437.285156 C 329.402344 442.101562 318.945312 444.605469 310.75 452.265625 C 304.035156 458.539062 298.976562 466.914062 297.632812 476.09375 C 297.140625 479.449219 302.882812 478.742188 303.511719 475.898438 C 306.191406 463.8125 313.566406 453.917969 324.703125 448.304688 C 334.535156 443.34375 347.089844 440.957031 353.601562 431.191406 C 357.863281 424.792969 357.480469 415.484375 350.488281 411.089844 Z M 434.167969 304.09375 C 433.550781 303.070312 431.453125 303.519531 431.902344 304.839844 C 435.164062 314.417969 434.789062 323.058594 431.601562 332.589844 C 431.132812 333.992188 433.601562 334.058594 434.171875 333.136719 C 439.523438 324.527344 439.390625 312.761719 434.167969 304.09375 Z M 246.636719 318.96875 C 250.539062 335.898438 254.839844 354.628906 248.335938 371.46875 C 247.585938 373.414062 243.007812 373.300781 243.675781 370.902344 C 248.878906 352.171875 244.761719 334.058594 240.589844 315.570312 C 236.855469 299.03125 232.804688 279.421875 240.683594 263.425781 C 241.023438 262.734375 242.453125 262.992188 242.28125 263.839844 C 240.34375 273.4375 239.875 282.472656 241.132812 292.210938 C 242.304688 301.242188 244.59375 310.105469 246.636719 318.96875" fill="#3e393a"/></g></g></svg>