<?xml version="1.0" encoding="UTF-8"?><svg xmlns="http://www.w3.org/2000/svg" height="2190pt" version="1.1" viewBox="0 0 2942.03 2189.95" width="2942pt">
 <g fill-rule="evenodd" id="change1_1">
  <path d="m976.93 10.973c535.27-75.051 578.57 883.58 83.27 860.37-398.24-18.63-548.5-795.15-83.27-860.37" fill="inherit"/>
  <path d="m1837.3 10.973c589.6-128.69 520.7 918.65-27.7 860.37-434.1-46.13-349.6-778.04 27.7-860.37" fill="inherit"/>
  <path d="m782.68 1162.8c-209.66 457.6-848.57 134.3-777.14-319.24 75.214-477.7 929.6-234.16 777.14 319.24" fill="inherit"/>
  <path d="m2517.3 593.82c137.9-26.71 310.3 22.3 374.7 138.73 177.5 321.25-149.7 713.95-471.9 679.95-176.9-18.6-279.1-169.2-291.4-305.2-26.3-291.52 181.7-473.45 388.6-513.48" fill="inherit"/>
  <path d="m1323.8 1024c486.3-83.88 932.6 266.5 832.7 860.3-20.7 123-126.5 296.8-277.6 305.3-121.9 7-264.5-111.7-416.3-111-188.4 1-337 168.1-513.46 83.3-148.16-71.2-208.07-359.3-180.35-568.9 39.86-302.2 262.01-518.5 555.01-569" fill="inherit"/>
 </g>
</svg>