<?xml version="1.0" encoding="UTF-8"?><!-- Generator: Adobe Illustrator 16.0.0, SVG Export Plug-In . SVG Version: 6.00 Build 0)  --><svg xmlns="http://www.w3.org/2000/svg" enable-background="new 0 0 450.198 478.132" height="478.13px" id="Layer_1" version="1.1" viewBox="0 0 450.198 478.132" width="450.2px" x="0px" xml:space="preserve" y="0px">
<g>
	<g>
		<path d="m12.044 151.14s24.331 18.074 30.587 18.77c6.257 0.695 32.673 0 43.796 0s24.331-18.77 24.331-18.77 6.256-9.732 11.123-6.952 3.476 18.074 0 30.587c5.562 11.818 3.15 32.673 3.15 32.673s-1.065 15.989 22.571 4.171 36.844-30.905 79.249-31.789c42.405-0.884 116.09 17.191 118.18 17.886 2.085 0.695 34.062 19.147 51.442-17.886 36.844-99.598-27.807-139.22-27.807-139.22s-34.759-18.074-15.294-32.673c19.465-14.598 32.673 4.171 32.673 4.171s0.926-2.781 0.926-5.562 17.61 18.537 22.245 28.038c3.94 1.854 0.929-5.561 0.929-5.561s40.898 53.644 34.989 99.177c1.162 2.697 3.129-2.781 3.129-2.781s2.78 24.331-13.556 55.266c-16.337 30.935-31.283 52.833-31.283 61.522-1.043 66.736-31.282 82.377-31.282 82.377s-2.086 31.631 11.817 52.485c9.037 13.208-0.348 29.197-0.348 29.197l-26.416 57.699s-3.476 9.385-18.422 9.037-19.117 0-19.117 0-3.476 0.693-4.288-1.275c-5.444 1.391-5.792-4.171-5.792-4.171s-3.014-14.599 9.847-17.727c2.667-1.158 10.428 0.928 10.428 0.928s14.832-18.654 16.569-29.545c-11.008 15.062-38.815 42.638-38.815 42.638s-3.476 3.013-10.542 2.665-24.678 0-24.678 0-9.616-3.707-6.372-11.354c3.243-7.647 11.701-11.471 11.701-11.471s4.752-1.276 10.196 1.969c2.664 2.202 7.878-5.562 7.878-5.562l20.275-27.111s-23.635-34.758-24.793-50.515-25.721-15.989-28.039-15.526c-2.317 0.463-62.796-3.477-71.138 12.977-0.231 23.404-3.476 80.176-3.476 80.176s2.317 29.43-11.123 34.296c-12.958 2.153-30.587 0-30.587 0s-6.025-0.232-6.952-5.099c-5.793 1.159-12.513-0.926-12.513-0.926s-8.574-5.331-5.561-12.05c3.013-6.72 8.342-11.819 16.684-9.965 3.482-0.979 3.013-16.684 3.013-16.684s2.781-41.71-41.015-95.006c-25.489-2.781-33.136-20.623-35.917-34.526s-9.964-36.844-22.014-44.491-27.111-19.233-24.099-44.954c-5.33-23.404-5.562-31.282-5.562-31.282s-13.921-35.24-0.944-28.28z" fill="#000001"/>
	</g>
	<g>
		<g>
			<g>
				<g>
					<g fill="#202021">
						<path d="m10.184 147.84c1.325 0.2 1.954 0.496 2.4 0.638 0.453 0.149 0.643 0.213 0.776 0.21 0.249 0.003 0.112-0.205 0.41-0.096-1.523-0.787-2.824-1.095-3.731-1.103-0.914-0.003-1.244 0.168-1.167 0.201 0.167 0.05 1.461 0.18 1.312 0.15z" fill="inherit"/>
						<polygon fill="inherit" points="15.734 202.91 15.364 201.98 17.467 209.92"/>
						<path d="m34.598 250.34c-1.517-2.011-4.848-5.417-8.004-9.734-1.582-2.15-3.121-4.519-4.403-6.951-1.288-2.428-2.308-4.92-2.979-7.208l-0.301-1.549s-0.115-0.246-0.257-0.625c-0.148-0.38-0.346-0.886-0.543-1.393-0.208-0.506-0.348-1.033-0.483-1.423-0.126-0.393-0.21-0.654-0.21-0.654 0.958 5.824 3.713 12.056 7.118 17.213 3.381 5.19 7.271 9.42 10.062 12.31z" fill="inherit"/>
						<path d="m51.736 270.66c-0.279-0.772 0.479 0.436 0.537 0.578 0.026 0.073-0.061-0.169-0.589-1.023-0.257-0.431-0.612-1.024-1.092-1.828-0.49-0.794-1.157-1.752-1.979-2.957 0.312 0.493 0.379 0.658 0.55 0.952 0.288 0.44 0.63 0.963 1.069 1.634 0.4 0.71 0.888 1.57 1.504 2.65z" fill="inherit"/>
						<path d="m49.163 266.38c-0.35-0.539-0.59-0.895-0.762-1.09-0.164-0.204-0.232-0.279-0.233-0.266-0.009 0.035 0.276 0.4 0.554 0.853 0.555 0.91 1.261 1.98 0.441 0.51z" fill="inherit"/>
						<path d="m59.121 288.48s-0.145-0.415-0.362-1.038c-0.217-0.622-0.501-1.454-0.822-2.27-0.312-0.819-0.625-1.639-0.858-2.253-0.251-0.605-0.419-1.009-0.419-1.009 0.197 0.703 0.763 2.543 1.187 3.93 0.407 1.394 0.646 2.345 0.25 1.256 1.152 3.399 1.54 4.781 1.656 4.767 0.084-0.01-0.166-1.39-0.632-3.39z" fill="inherit"/>
						<path d="m61.403 294.79s-0.254-0.88-0.509-1.76c-0.246-0.882-0.529-1.752-0.529-1.752 0.117 0.63 0.335 1.57 1.038 3.51z" fill="inherit"/>
						<path d="m57.855 283.95s0.168 0.453 0.421 1.132c0.263 0.676 0.575 1.592 0.886 2.51 0.317 0.915 0.628 1.833 0.838 2.529 0.218 0.694 0.364 1.157 0.364 1.157-0.181-1.009 0.055-1.197-1.078-3.394 0.368 0.55-0.206-0.89-1.431-3.94z" fill="inherit"/>
						<path d="m56.461 279.81c-0.66-1.852-1.472-3.954-1.792-4.773-0.32-0.818 0.033-0.456 1.506 2.755-1.299-3.107-2.426-5.213-3.16-6.5-0.709-1.307-1.116-1.738-1.031-1.509 0.031 0.122 0.174 0.417 0.406 0.893 0.217 0.484 0.528 1.146 0.931 1.975 0.807 1.64 1.872 4.05 3.14 7.15z" fill="inherit"/>
						<path d="m37.05 251.66s-0.964-0.962-1.894-1.954c-0.929-0.994-1.82-2.02-1.82-2.019 0-0.001-0.845-0.816-1.675-1.653-0.408-0.426-0.815-0.851-1.121-1.17-0.299-0.326-0.499-0.543-0.499-0.543 0.79 0.873 2.471 2.889 4.054 4.542 1.569 1.66 3.006 2.99 2.955 2.79z" fill="inherit"/>
						<path d="m78.53 329.78c0.243 0.085-0.229-0.389-0.798-0.943-0.593-0.524-1.156-1.283-1.32-1.532 0 0-0.273-0.231-0.682-0.579-0.4-0.357-0.979-0.79-1.458-1.322-0.997-1.03-1.994-2.061-1.994-2.061 0.958 1.118 2.305 2.788 3.673 4.006 1.273 1.31 2.499 2.2 2.579 2.42z" fill="inherit"/>
						<path d="m76.412 327.3s0.408 0.346 1.02 0.863c0.658 0.456 1.536 1.065 2.413 1.674 0.219 0.15 0.439 0.301 0.655 0.449 0.229 0.127 0.455 0.252 0.673 0.372 0.436 0.241 0.843 0.466 1.192 0.658 0.697 0.382 1.162 0.637 1.162 0.637-3.309-1.846-5.042-3.295-6.069-3.987-0.952-0.78-1.17-0.88-1.046-0.66z" fill="inherit"/>
						<path d="m62.469 295.83s-0.867-3.111-1.912-6.159c-0.509-1.528-1.065-3.038-1.48-4.169-0.436-1.122-0.727-1.871-0.727-1.871s0.341 0.895 0.851 2.236c0.473 1.357 1.127 3.161 1.698 4.996 1.175 3.658 2.135 7.388 2.135 7.388s-0.128-0.607-0.277-1.211c-0.144-0.62-0.288-1.22-0.288-1.22z" fill="inherit"/>
						<polygon fill="inherit" points="103.44 343.17 100.43 339.88 105.71 345.8"/>
						<path d="m114.83 359.38c-1.976-2.624 1.956 4.073-0.026 1.229 2.976 4.473 5.286 8.418 7.499 11.919-1.115-1.892-2.229-3.863-3.404-6.04-0.293-0.545-0.592-1.101-0.899-1.67-0.33-0.557-0.668-1.126-1.015-1.711-0.68-1.17-1.39-2.41-2.15-3.73z" fill="inherit"/>
						<path d="m125.67 378.6c-1.043-1.931-2.068-3.958-3.369-6.063 1.18 2 2.19 4.06 3.37 6.06z" fill="inherit"/>
						<path d="m97.004 336.54c0.309 0.094 0.759 0.247 1.711 0.477 0.098 0.025 0.292 0.065 0.335 0.082 0.034 0.015 0.07 0.03 0.108 0.048 0.07 0.027 0.149 0.06 0.238 0.095 0.068 0.088 0.131 0.22 0.205 0.336l0.062 0.099c0.071 0.097 0.143 0.195 0.217 0.297 0.149 0.201 0.305 0.413 0.468 0.635 0 0-0.098-0.169-0.245-0.423-0.126-0.228-0.414-0.684-0.388-0.736-0.052-0.154-0.105-0.309-0.145-0.425-0.057-0.092-0.125-0.098-0.121-0.106-0.741-0.13-1.585-0.26-2.442-0.39z" fill="inherit"/>
						<path d="m99.419 336.9l0.032 0.019c0.162-0.026 0.234 0.17 0.334 0.277 0.146 0.188 0.285 0.369 0.417 0.541 0.432 0.559 0.821 1.062 1.166 1.507 0.688 0.892 1.196 1.549 1.501 1.943-0.262-0.339-0.705-0.913-1.379-1.788-0.337-0.438-0.731-0.949-1.19-1.545-0.154-0.202-0.319-0.417-0.496-0.647-0.106-0.14-0.198-0.34-0.385-0.31z" fill="inherit"/>
						<path d="m96.189 336.41c0.3 0.047 0.521 0.081 0.815 0.126-0.304-0.09-0.488-0.13-0.815-0.13z" fill="inherit"/>
						<path d="m68.533 316.16c0.587 1.069 1.501 2.335 2.351 3.553 0.902 1.185 1.838 2.262 2.483 2.969 0.7 0.666 1.09 0.983 0.912 0.67-0.089-0.156-0.321-0.47-0.724-0.976-0.368-0.533-0.883-1.279-1.573-2.279-1.118-1.319-0.889-0.846-0.986-0.714-0.041 0.06-0.147 0.021-0.51-0.409-0.339-0.44-1.047-1.21-1.953-2.81z" fill="inherit"/>
						<path d="m92.363 334.96s-0.133-0.034-0.365-0.094c-0.235-0.049-0.561-0.158-0.949-0.304-0.778-0.279-1.816-0.652-2.854-1.025-1.035-0.376-2.011-0.92-2.767-1.255-0.749-0.356-1.247-0.595-1.247-0.595 0.111 0.148 1.466 1.048-0.759 0.022 0-0.001 0.518 0.31 1.356 0.64 0.83 0.345 1.923 0.84 3.036 1.265 1.134 0.354 2.269 0.709 3.119 0.975 0.424 0.133 0.777 0.246 1.033 0.287 0.253 0.06 0.397 0.09 0.397 0.09z" fill="inherit"/>
						<path d="m96.572 335.79s-0.266-0.023-0.662-0.088c-0.394-0.082-0.918-0.192-1.443-0.303-1.052-0.222-2.104-0.444-2.104-0.444l3.156 0.808 0.524 0.034c0.265 0 0.529-0.01 0.529-0.01z" fill="inherit"/>
						<path d="m119.42 365.81c0.948 1.527 1.901 3.152 2.89 4.88 0.488 0.867 1.012 1.746 1.498 2.677 0.464 0.941 0.941 1.909 1.433 2.905-0.503-1.08-1.011-2.168-1.521-3.261l-1.714-3.19c-1.167-2.113-2.254-4.26-3.472-6.261-0.232-0.247-0.672-0.775-0.714-0.701-0.021 0.037 0.057 0.225 0.31 0.674 0.25 0.44 0.68 1.14 1.28 2.27z" fill="inherit"/>
						<path d="m109.98 350.83c0.149 0.2 0.34 0.456 0.479 0.644-0.25-0.43-0.47-0.76-0.48-0.64z" fill="inherit"/>
						<path d="m138.71 417.54c-0.011-0.242-0.02-0.452-0.031-0.699-0.033-0.05-0.062-0.083-0.098-0.147l0.13 0.85z" fill="inherit"/>
						<path d="m118.18 362.84c-1.827-3.09-3.051-4.858-4.24-6.521 1.453 2.254 2.98 4.654 4.596 7.242 0.21 0.22 0.27 0.24-0.36-0.72z" fill="inherit"/>
						<path d="m130.71 389.66c-0.588-1.762-1.375-3.719-2.161-5.793 0.57 1.73 1.85 5.2 2.16 5.79z" fill="inherit"/>
						<path d="m111.05 352.53c-0.107-0.143-0.205-0.272-0.322-0.429 0.6 1.01 0.55 0.87 0.32 0.43z" fill="inherit"/>
						<path d="m111.05 352.53c1.089 1.491 2.073 2.582 2.889 3.788-0.57-0.93-1.209-1.771-1.799-2.577-0.596-0.803-1.161-1.562-1.685-2.268 0.23 0.38 0.44 0.77 0.59 1.06z" fill="inherit"/>
						<path d="m142.32 430.59c-0.061-0.094-0.122-0.4-0.19-0.909-0.096-1.284-0.254-3.915-0.565-7.071-0.344-3.156-0.801-6.852-1.307-10.316-0.957-3.945-1.484-4.529-1.69-3.268-0.103 0.631-0.126 1.721-0.082 3.083 0.056 1.357 0.123 2.996 0.194 4.74 0.104 0.108 0.196 0.156 0.45 1.185 0.141 0.513 0.261 1.275 0.441 2.414 0.086 0.571 0.187 1.235 0.304 2.01 0.079 0.776 0.168 1.663 0.271 2.676 0.023-1.423-0.191-5.966-0.665-9.28-0.163-1.664-0.363-3.016-0.395-3.531-0.023-0.518 0.129-0.2 0.566 1.494 0.997 5.39 1.134 7.64 1.191 9.174 0.015 1.537-0.025 2.384-0.092 5.005 0.127-1.49 0.338-0.466 0.405 1.683 0.185 1.976 0.274 4.823 0.288 7.024 0.021 2.19-0.02 3.713 0.322 2.95 0 0 0.061-0.606 0.116-1.516 0.057-0.91 0.101-2.124 0.114-3.336 0.031-2.427-0.082-4.846-0.082-4.846 0.14-0.16 0.33 3.37 0.42 0.67z" fill="inherit"/>
						<path d="m135.33 401.63l-1.038-3.212c0.514 1.854 1.001 3.434 1.368 5.198 0.339 1.77 0.77 3.676 1.152 6.169 1.35 5.414 1.552 6.554 1.769 6.911 0 0-0.156-1.021-0.391-2.552-0.307-1.521-0.717-3.551-1.126-5.58-0.504-2.012-1.009-4.024-1.387-5.533-0.445-1.492-0.742-2.487-0.742-2.487l0.4 1.08z" fill="inherit"/>
						<path d="m128.98 384.21c0.699 1.136 1.93 3.547 2.701 5.118 0.742 1.582 1.165 2.273 0.53-0.162-1.899-4.622-2.704-6.184-3.276-7.292-0.561-1.113-1.048-1.711-2.42-4.354 0.878 1.809 1.547 3.082 1.932 4 0.387 0.917 0.598 1.432 0.686 1.667 0.176 0.472-0.141-0.173-0.521-0.939-0.365-0.773-0.84-1.65-0.936-1.668-0.044-0.01 0.024 0.187 0.235 0.724 0.194 0.544 0.531 1.427 1.066 2.772-1.229-2.9-2.568-5.402-3.735-7.81 1.2 2.625 2.422 5.128 3.307 7.595-0.047-0.139-0.08-0.236-0.118-0.349l-0.031-0.069c0.003-0.001 0.01 0.014 0.013 0.013-0.219-0.658-0.277-0.88-0.004-0.151 0.022 0.049 0.103 0.226 0.138 0.305 0.097 0.075 0.26 0.328 0.43 0.603 1.722 4.309 0.18 0.714-0.43-0.603-0.041-0.041-0.107-0.147-0.134-0.153 0.005 0.016 0.012 0.036 0.018 0.057 0 0 0.403 0.917 1.007 2.293 0.594 1.38 1.456 3.195 2.123 5.083 0.711 1.873 1.422 3.746 1.956 5.15 0.466 1.427 0.776 2.378 0.776 2.378-0.243-0.812-0.47-1.685-0.792-2.624-0.336-0.935-0.704-1.955-1.116-3.098-0.418-1.14-0.882-2.4-1.403-3.818-0.61-1.38-1.27-2.92-2.02-4.66z" fill="inherit"/>
						<path d="m78.623 325.96c0.352 0.368 0.314 0.379 0.326 0.427 0.899 0.56 1.197 0.83-0.326-0.43z" fill="inherit"/>
						<path d="m84.031 329.98c-1.041-0.58-2.089-0.805-5.173-3.23-2.454-2.344 0.14-0.136 0.09-0.365-0.452-0.371-1.073-0.882-1.663-1.365-0.6-0.477-1.156-0.942-1.456-1.238-0.315-0.279-0.43-0.334-0.162 0.032 0.244 0.392 0.958 1.116 2.31 2.396 0 0 0.911 0.743 0.931 0.718 2.561 2.16 5.839 4.186 8.417 5.446 0.625 0.363 1.24 0.58 1.762 0.809 0.524 0.225 0.971 0.416 1.318 0.565 0.693 0.305 0.986 0.452 0.702 0.37-0.877-0.509-1.697-0.969-2.801-1.527-0.55-0.283-1.135-0.688-1.844-1.096-0.353-0.207-0.731-0.43-1.142-0.672-0.204-0.12-0.417-0.245-0.637-0.375-0.209-0.16-0.426-0.32-0.652-0.48z" fill="inherit"/>
						<path d="m112.1 351.71s0.494 0.684 1.233 1.708c0.77 1.007 1.669 2.431 2.58 3.848 1.826 2.834 3.653 5.668 3.653 5.668l-3.316-6.032-0.004 0.417c-1.951-3.308-2.934-4.463-3.363-4.974-0.44-0.52-0.43-0.31-0.78-0.65z" fill="inherit"/>
						<path d="m138.72 419.07s-0.157-0.419-0.345-0.835c-0.18-0.416-0.361-0.831-0.361-0.831s0.114 0.464 0.284 1.16c0.156 0.697 0.328 1.63 0.517 2.565 0.198 0.936 0.365 1.872 0.461 2.576 0.109 0.704 0.182 1.174 0.182 1.174s-0.037-0.363-0.093-0.908c-0.065-0.546-0.106-1.271-0.227-1.997-0.21-1.46-0.42-2.91-0.42-2.91z" fill="inherit"/>
						<path d="m139.3 436.17l-0.362-0.647s0.009 1.12-0.027 2.226c-0.03 1.106-0.118 2.183-0.118 2.183s0.166-0.912 0.289-1.857c0.12-0.93 0.22-1.9 0.22-1.9z" fill="inherit"/>
						<path d="m432.74 179.99s0.108-0.222 0.272-0.555c0.153-0.333 0.358-0.777 0.563-1.222 0.41-0.887 0.82-1.775 0.82-1.775-0.77 1.68-1.28 2.76-1.65 3.55z" fill="inherit"/>
						<path d="m418.8 205.15l-0.179 0.71c0.57-1.21 0.77-1.72 0.18-0.71z" fill="inherit"/>
						<path d="m285.06 441.58c-0.615-0.17-1.236-0.342-1.857-0.513-0.632-0.137-1.28-0.219-1.918-0.322-0.651-0.035-1.286-0.108-1.935-0.082-0.327 0.014-0.635 0.01-0.968 0.043-0.359 0.035-0.881 0.117-1.274 0.2-0.322 0.138-0.666 0.282-0.946 0.416-0.201 0.094-0.398 0.185-0.592 0.274-0.383 0.179-0.73 0.364-1.063 0.536-0.655 0.354-1.214 0.686-1.649 0.973-0.872 0.574-1.27 0.937-0.993 0.9 0 0 0.458-0.199 0.917-0.399l0.926-0.362c0.55-0.373 1.093-0.717 1.628-1.031 0.272-0.153 0.54-0.304 0.802-0.45 0.164-0.085 0.326-0.17 0.485-0.253 0.201-0.096 0.399-0.19 0.595-0.284 0.466-0.123 1.106-0.228 1.417-0.267 0.361-0.03 0.717-0.06 1.064-0.089 0.682 0.007 1.343-0.028 1.961 0.055 1.24 0.08 2.36 0.37 3.4 0.64z" fill="inherit"/>
						<path d="m375.69 424.11c-0.27 0.485-0.549 0.989-0.827 1.489-0.45 1.343-0.874 2.606-1.253 3.734 0.63-1.57 1.34-3.35 2.08-5.22z" fill="inherit"/>
						<path d="m375.76 419.64l3.438-6.838c-0.8 1.53-1.91 3.72-3.44 6.84z" fill="inherit"/>
						<path d="m415.73 41.691s-0.713-0.905-1.427-1.809c-0.722-0.896-1.444-1.791-1.444-1.791 3.92 5.997 2.38 3.246 2.87 3.6z" fill="inherit"/>
						<path d="m193.52 397.19c0.394-5 0.643-8.98 0.82-12.48-0.51 6.02-1.1 10.87-0.82 12.48z" fill="inherit"/>
						<path d="m431.4 192.16c1.104-2.184 1.526-3.142 1.407-3.125-1.14 2.24-1.75 3.53-1.41 3.12z" fill="inherit"/>
						<path d="m194.8 370.21c-0.059 0.885-0.117 1.752-0.178 2.652-0.049 3.669-0.043 7.374-0.272 11.844 0.38-4.44 0.59-9.57 0.45-14.49z" fill="inherit"/>
						<path d="m144.92 215.73c-0.407 0.153-0.906 0.326-1.283 0.451-0.11 0.1 0.47-0.1 1.28-0.45z" fill="inherit"/>
						<path d="m55.324 168.31c1.634-0.017 4.301-0.043 6.815-0.069-1.223-0.03-3.283 0.01-6.815 0.07z" fill="inherit"/>
						<path d="m149.34 477.34c-3.8-0.35-0.6-0.01 0 0z" fill="inherit"/>
						<path d="m133.72 470.51c0.826 0.002 1.45-0.022 1.549-0.116-0.32 0.09-0.87 0.13-1.55 0.12z" fill="inherit"/>
						<path d="m216.22 348.92c0.108-0.017 0.195-0.03 0.32-0.05-1.12 0.1-0.92 0.08-0.32 0.05z" fill="inherit"/>
						<path d="m143.12 475.98c0.548 0.242 1.131 0.462 1.762 0.631 0.651 0.178 1.264 0.312 2.134 0.394 0.006 0.001 0.016 0.002 0.025 0.004 0.006 0.001 0.016 0.003 0.025 0.004 0.32 0.05 0.916 0.126 1.426 0.183-0.231-0.029-0.522-0.067-1.426-0.184-0.002 0-0.005-0.001-0.025-0.005-0.002 0-0.004 0-0.025-0.003-0.45-0.08-1.88-0.17-3.9-1.02z" fill="inherit"/>
						<path d="m143.96 476.51c-1.553-0.54-2.784-1.262-3.807-2.226-0.276-0.205-0.316-0.196 0.178 0.263 0.48 0.44 1.59 1.33 3.63 1.97z" fill="inherit"/>
						<path d="m154.62 477.73c-2.17-0.121-4.183-0.306-6.13-0.535 0.743 0.103 1.052 0.158 0.85 0.152 1.12 0.09 2.68 0.23 5.28 0.38z" fill="inherit"/>
						<path d="m406.91 148.61c-0.059 0.242-0.127 0.521-0.191 0.784-0.54 3.77-0.26 2.13 0.19-0.78z" fill="inherit"/>
						<path d="m323.03 445.46c-0.113 0.134-0.174 0.204-0.276 0.325 0.123-0.124 0.276-0.279 0.388-0.393l-0.11 0.07z" fill="inherit"/>
						<path d="m331.85 435.41c-3.39 4.598-5.676 6.908-8.707 9.979l3.939-2.378s0.304-0.472 0.76-1.18c0.458-0.706 1.063-1.65 1.649-2.609 1.18-1.9 2.36-3.81 2.36-3.81z" fill="inherit"/>
						<path d="m443.46 122.62c-0.049 0.88-0.172 1.751-0.303 2.619l-0.366 2.603-0.097 0.683 0.319 0.737c0.108 0.25 0.202 0.479 0.403 0.795 0.181 0.287 0.476 0.686 1.002 1.062 0.138 0.096 0.322 0.198 0.493 0.279l0.258 0.111 0.035 0.01c0.059 0.019 0.07 0.019 0.087 0.021 0.034 0 0.065-0.009 0.105-0.054 0.154-0.1 0.216-0.247 0.271-0.356-0.126 0.246-0.239 0.462-0.389 0.604-0.026 0.025-0.058 0.043-0.088 0.055-0.011 0.005-0.029 0.008-0.089-0.003-0.031-0.01 0.019 0.014-0.078-0.022-0.098-0.038-0.195-0.079-0.291-0.124-0.181-0.084-0.399-0.205-0.525-0.296-0.577-0.403-0.89-0.818-1.091-1.112-0.226-0.331-0.331-0.559-0.458-0.816l-0.273-0.553 0.047-1.066c0.095-2.192 0.286-4.137 0.238-5.745 0.011-1.601 0.022-2.833-0.06-3.566-0.055-0.73-0.103-0.953-0.158-0.529-0.061 0.423-0.083 1.498-0.303 3.334 0.171 0.17 0.277 0.89 0.337 2.023 0.035 1.129-0.08 2.66-0.196 4.465l-0.068 1.064 0.306 0.63c0.126 0.262 0.227 0.486 0.452 0.826 0.085 0.138 0.232 0.335 0.406 0.529 0.136 0.165 0.411 0.42 0.688 0.618 0.117 0.092 0.338 0.22 0.528 0.313 0.171 0.089 0.496 0.212 0.437 0.183 0.059 0.012 0.083 0.014 0.085 0.009 0.024-0.006 0.048-0.019 0.068-0.036 0.153-0.142 0.247-0.361 0.344-0.582l0.034-0.085c0.005 0.016 0.009 0.048 0.012 0.072l0.018 0.161 0.023 0.341c0.012 0.242 0.012 0.465 0.008 0.747-0.023 0.556-0.047 1.111-0.07 1.664-0.025 0.614-0.088 1.227-0.129 1.832-0.073 1.212-0.203 2.397-0.329 3.536-0.104 1.14-0.255 2.228-0.396 3.247-0.541 4.076-1.051 7.023-0.769 7.458 0 0-0.422 1.461-0.843 2.923-0.478 1.444-0.955 2.888-0.955 2.888 0.469-1.675 0.529-1.949 0.927-3.618-0.397 1.419-0.842 2.587-1.133 3.62-0.321 1.026-0.523 1.912-0.77 2.68-0.452 1.547-0.701 2.731-0.971 4.027-0.646 2.547-1.258 5.616-4.61 12.521-2.423 4.744-4.449 7.969-2.842 4.646 0 0-1.346 2.695-2.691 5.39-1.371 2.685-2.742 5.369-2.742 5.369-1.729 3.055-1.51 2.193 0.196-0.853 0 0-2.212 4.032-4.425 8.063-2.243 4.021-4.486 8.041-4.486 8.041l0.033-0.139c-1.114 2.391-3.778 7.737-5.079 10.352-2.462 4.003 1.025-2.127 0.29-1.16 0 0-1.175 2.275-2.349 4.551-0.579 1.144-1.158 2.288-1.593 3.146-0.424 0.866-0.706 1.443-0.706 1.443-1.134 1.768-0.782 0.732 0.277-1.535 1.078-2.25 2.898-5.698 4.661-8.758-2.937 3.83-3.896 5.741-5.434 8.919-0.767 1.601-1.685 3.517-2.974 6.208-0.62 1.379-1.399 2.897-2.184 4.798-0.197 0.474-0.422 0.944-0.621 1.468-0.194 0.529-0.396 1.077-0.604 1.644-0.227 0.549-0.396 1.189-0.571 1.851-0.089 0.33-0.18 0.666-0.271 1.007-0.093 0.34-0.118 0.757-0.178 1.144 0 0 0.016-0.186 0.044-0.513 0.013-0.343 0.103-0.763 0.218-1.26 0.115-0.498 0.235-1.098 0.396-1.706 0.188-0.581 0.387-1.201 0.586-1.82 0.398-1.242 0.904-2.371 1.238-3.268 0.373-0.856 0.622-1.426 0.622-1.426-0.43 0.68-0.845 1.399-1.228 2.185-0.384 0.787-0.807 1.551-1.142 2.466-0.346 0.901-0.732 1.782-0.992 2.881-0.131 0.546-0.312 1.037-0.396 1.661-0.082 0.628-0.154 1.273-0.215 1.929-0.13 1.978-0.268 4.098-0.418 6.395-0.081 1.142-0.166 2.327-0.254 3.561-0.049 0.615-0.1 1.243-0.151 1.883-0.093 0.636-0.188 1.284-0.285 1.945 0.371-1.236 0.812-6.564 1.312-10.236 0.24-1.848 0.454-3.232 0.62-3.564 0.088-0.187 0.125 0.056 0.167 0.554 0.036 0.522 0.048 1.423 0.03 2.79-0.119 1.54-0.235 3.323-0.32 5.461-0.052 1.067-0.053 2.228-0.122 3.484-0.098 1.255-0.191 2.612-0.275 4.088-0.531 0.001-0.778 5.771-2.104 12.836l-0.548-0.597c-0.483 3.848-0.896 5.572-1.054 6.956-0.183 1.377-0.262 2.373-0.649 4.632-1.28 4.118-2.181 6.565-2.931 8.175-0.82 1.582-1.379 2.379-1.938 3.233-1.22 3.188-1.777 4.147-1.693 4.197 0.049 0.031 0.66-0.892 1.152-1.794 0.478-0.908 0.936-1.746 0.909-1.407-0.014 0.17-0.147 0.634-0.461 1.531s-0.948 2.159-1.799 4.002c-1.104 2.371-2.458 4.382-3.605 6.434-0.589 1.017-1.29 1.934-1.914 2.899l-0.957 1.435c-0.316 0.48-0.693 0.912-1.038 1.374-0.719 0.896-1.375 1.869-2.162 2.746-0.794 0.867-1.545 1.823-2.42 2.69-0.877 0.865-1.758 1.792-2.765 2.62-0.246 0.216-0.495 0.433-0.747 0.652-0.26 0.199-0.523 0.401-0.789 0.604l-0.441 0.334c-0.263 0.192-0.497 0.336-0.737 0.486-0.48 0.298-0.959 0.614-1.448 0.899-0.089 0.777-0.075 1.649-0.104 2.501-0.002 0.37-0.004 0.745-0.007 1.124 0.004 0.3 0.007 0.604 0.01 0.909-0.172 8.353-0.414-1.462-0.58 1.535 0 0 0.141 1.857 0.326 3.703 0.103 0.921 0.205 1.842 0.282 2.532 0.094 0.688 0.156 1.147 0.156 1.147 0.112 1.806-0.084 1.234-0.184 0.945 0.312 3.103 0.552 3.208 0.744 3.765 0.214 0.553 0.415 1.557 1.219 6.367 0.6 1.234 1.022 6.227 2.565 12.271 0.392 1.507 0.874 3.07 1.344 4.676 0.552 1.58 1.172 3.179 1.795 4.771 0.748 1.543 1.474 3.094 2.282 4.553 0.882 1.413 1.8 2.81 2.646 4.028 1.229 2.439-0.997-0.918-0.793-0.084 2.223 3.077 3.001 5.596 3.521 7.632 0.106 0.515 0.206 0.994 0.3 1.445 0.098 0.452 0.103 0.893 0.156 1.305 0.044 0.414 0.085 0.808 0.125 1.188 0.006 0.385 0.012 0.757 0.017 1.123 0.007 0.368 0.013 0.73 0.019 1.096-0.009 0.365-0.044 0.734-0.063 1.114-0.022 0.381-0.046 0.772-0.07 1.183-0.053 0.409-0.108 0.838-0.168 1.292-0.252 1.813-0.663 4.074-1.742 7.149 0 0-0.071 0.157-0.196 0.434-0.136 0.27-0.329 0.655-0.562 1.117-0.122 0.226-0.255 0.471-0.396 0.729-0.15 0.271-0.277 0.457-0.503 0.877-0.304 0.604-0.628 1.249-0.951 1.894-1.286 2.557-2.572 5.113-2.572 5.113 3.936-7.442-0.018 2.559-3.51 11.307 1.452-2.613 2.697-4.846 3.496-6.359l-5.937 13.792c-0.851 1.605-0.421 0.14 0.36-2.209-0.374 0.955-0.729 1.859-1.006 2.564-2.449 4.784-1.627 2.1-0.351-1.546 0.883-1.608 1.758-3.202 2.609-4.753 1.191-3.534 2.244-6.867 1.582-6.32-0.34 0.917-1.064 2.652-1.892 4.546 0.308-0.926 0.48-1.528 0.235-1.146-0.273 0.436-0.798 1.919-1.671 4.219l-2.069 2.807-0.087 0.87-8.582 17.674c-1.993 5.102-3.888 9.948-5.94 15.204l-0.035 0.085c-0.267 0.777-0.81 1.766-1.436 2.581-0.65 0.828-1.372 1.658-2.257 2.354-1.725 1.444-3.894 2.579-6.372 3.276-2.483 0.729-5.236 0.93-8.208 0.973-2.979 0.032-6.151 0.065-9.559 0.103 5.537-0.476 1.192-0.845 1.491-1.461 1.527 0.177 3.373 0.257 5.466 0.282h3.313c0.583-0.004 1.129-0.038 1.712-0.059 0.576-0.029 1.168-0.025 1.753-0.125 2.368-0.225 4.832-0.845 7.108-1.938 2.255-1.113 4.336-2.733 5.776-4.804-0.768 1.061-1.439 1.717-1.932 2.091-0.472 0.398-0.754 0.544-0.866 0.566-0.22 0.047 0.229-0.396 0.662-0.894 0 0-0.199 0.192-0.548 0.529-0.379 0.305-0.899 0.771-1.619 1.225-1.405 0.944-3.541 1.901-5.868 2.411-1.148 0.306-2.36 0.405-3.484 0.549-1.157 0.043-2.171 0.122-3.172 0.128-1.941 0.039-3.236 0.065-3.236 0.065 0.475-0.503-4.393-0.418-9.809-0.674 1.769 0.47-0.852 0.535-5.396 0.834-0.047 0.004-0.094 0.012-0.149 0.021-0.047 0.008-0.094 0.016-0.148 0.024-0.551 0.094-1.212 0.136-1.739 0.044-0.266-0.04-0.502-0.113-0.633-0.199-0.139-0.086-0.189-0.147-0.249-0.244l-0.62-1.009-1 0.196c-0.269 0.053-0.538 0.106-0.811 0.159-0.246-0.004-0.537 0.055-0.751 0.021-0.454-0.007-0.886-0.187-1.254-0.438-0.378-0.265-0.635-0.604-0.868-1.065-0.225-0.448-0.382-1.027-0.453-1.485l-0.023-0.181-0.028-0.18c-0.32-1.752-0.357-3.465-0.309-4.815 0.146-0.168 0.232-0.02 0.305 0.693 0.09 0.699 0.104 2.025 0.465 4.041 0.008 0.053 0.02 0.124 0.031 0.196 0.007 0.052 0.017 0.124 0.027 0.196 0.077 0.489 0.306 1.279 0.649 1.739 0.3 0.472 0.872 0.841 1.581 0.887-0.646-0.122-1.152-0.464-1.419-0.912-0.294-0.401-0.552-1.198-0.633-1.732-0.01-0.069-0.02-0.139-0.028-0.203-0.011-0.068-0.021-0.138-0.032-0.202-0.521-2.892-0.672-5.429-0.191-8.007 0.277-1.276 0.703-2.619 1.604-3.842 0.386-0.662 1.008-1.178 1.603-1.779 0.714-0.469 1.418-1.037 2.355-1.358-1.053 0.447-1.676 1.054-2.253 1.434-0.483 0.489-0.822 0.887-1.067 1.244 0.306-0.336 0.649-0.716 1.022-1.127 0.429-0.354 0.92-0.706 1.417-1.095 0.57-0.287 1.154-0.606 1.768-0.898 0.656-0.211 1.322-0.426 1.983-0.64l0.171-0.055 0.03-0.013c0.356-0.146 0.971-0.211 1.543-0.23 0.6 0.001 1.199 0.03 1.78 0.098 1.159 0.127 2.21 0.332 3.023 0.516 0.422 0.1 0.726 0.174 1.066 0.269 0.39 0.101 0.688 0.189 0.869 0.256 0.361 0.13 0.26 0.149-0.496 0.025 0 0-0.674-0.137-1.347-0.273l-1.182-0.204c0.63 0.105 1.288 0.231 1.987 0.382 1.008 0.209 2.111 0.496 3.28 0.805 2.541-3.115 3.824-4.955 5.565-7.402 1.664-2.379 3.33-4.913 4.904-7.523 1.578-2.605 3.058-5.295 4.281-8.019 1.218-2.723 2.243-5.455 2.669-8.225l0.889-5.782-3.512 4.689c-1.139 1.521-2.203 2.942-3.17 4.232-0.478 0.65-0.931 1.268-1.356 1.847-0.445 0.568-0.862 1.1-1.247 1.59-1.536 1.965-2.511 3.313-2.698 3.785-0.188 0.051 0.634-2.314 1.148-3.18 0 0-1.061 1.513-2.652 3.781-1.607 2.263-3.848 5.215-6.053 8.207-2.266 2.947-4.531 5.894-6.23 8.104-1.729 2.189-2.882 3.649-2.882 3.649 1.269-2.389-6.881 3.629 2.297-6.584-2.785 2.788-6.23 6.235-11.867 12.344 1.955-1.847 5.442-4.057 2.92-1.379-3.818 3.325-5.143 4.481-6.647 5.858-0.147 0.139-0.25 0.206-0.433 0.311-0.177 0.118-0.401 0.228-0.635 0.345-0.225 0.127-0.487 0.234-0.776 0.345-0.285 0.112-0.581 0.249-0.939 0.335-1.367 0.441-3.314 0.828-6.16 0.604 1.831 0.068 1.783 0.396 0.454 0.702-0.334 0.077-0.745 0.154-1.231 0.226-0.509 0.063-1.086 0.12-1.718 0.167-1.264 0.094-2.747 0.146-4.347 0.122 1.006-0.162-0.506-1.135 1.849-1.233 0 0-4.003 0.246-8.005 0.492-1.999 0.108-3.987 0.262-5.477 0.398-1.489 0.126-2.482 0.209-2.482 0.209 3.968-0.256 0.691-0.962-2.88-1.232 0.207 0.025 0.147 0.046-0.124 0.064-0.198 0.009-0.552 0.023-1.019 0.043-0.15 0.006-0.303-0.107-0.474-0.175-0.233-0.118-0.612-0.317-0.933-0.512-0.667-0.408-1.389-0.902-2.02-1.496-0.618-0.596-1.182-1.263-1.538-1.963-0.101-0.172-0.142-0.356-0.221-0.529-0.084-0.173-0.144-0.349-0.163-0.528-0.039-0.177-0.078-0.352-0.116-0.524-0.003-0.179-0.006-0.354-0.009-0.528-0.013-0.695 0.159-1.379 0.382-1.983 0.068-0.294 0.241-0.609 0.364-0.883 0.131-0.274 0.23-0.527 0.34-0.735 0 0-0.055 0.077-0.127 0.223-0.076 0.144-0.186 0.349-0.316 0.595-0.141 0.249-0.293 0.536-0.382 0.818-0.089 0.288-0.28 0.597-0.317 0.904-0.042 0.305-0.159 0.617-0.16 0.902 0.007 0.282-0.02 0.552-0.01 0.781 0.087 0.446 0.123 0.756 0.123 0.756-0.586-2.041 0.312-3.943 1.232-5.664 0.928-1.668 1.954-2.984 2.953-4.131 1.007-1.144 2.001-2.119 3.052-3.018 0.527-0.448 1.065-0.881 1.634-1.301 0.286-0.205 0.575-0.417 0.878-0.615l0.458-0.298 0.405-0.253c0.501-0.176 1.239-0.315 1.963-0.367 0.739-0.08 1.523-0.031 2.369 0.02 1.68 0.205 3.547 0.772 5.544 1.861l-0.029-0.02c0.419 0.349 1.025 0.498 1.582 0.411 0.558-0.09 1.069-0.334 1.552-0.628-0.44 0.343-0.968 0.725-1.511 0.949-0.536 0.239-1.077 0.251-1.065 0.435 0.006 0.085 0.157 0.236 0.525 0.334 0.362 0.105 0.95 0.134 1.597-0.043 1.316-0.347 2.807-1.366 4.447-3.148 0.316-0.464 0.707-1.072 1.138-1.82 0.216-0.374 0.442-0.78 0.677-1.229 0.175-0.378 0.461-0.854 0.715-1.324 1.061-1.907 2.378-4.241 3.916-6.862 3.077-5.243 7.035-11.637 11.573-18.074 0 0 0.129-0.139 0.323-0.348 0.11-0.121 0.188-0.193 0.271-0.272 0.088-0.086 0.182-0.177 0.275-0.268 0.401-0.398 0.802-0.798 0.802-0.798 0.044-0.07 0.104-0.14 0.139-0.21l-1.272-1.754-1.676-2.419c-1.106-1.62-2.21-3.241-3.285-4.883 0.734 0.946 1.678 2.161 2.87 3.697 0.593 0.77 1.248 1.62 1.97 2.558 0.675 0.858 1.411 1.798 2.216 2.822-0.771 1.423-2.081 3.529-3.337 5.588-1.288 2.076-2.643 4.26-3.992 6.436-2.72 4.339-5.457 8.622-7.626 11.928 4.229-5.219 1.43-1.264 7.428-9.332 2.373-2.659-2.906 4.668-4.664 7.048l14.722-19.353c-0.349 0.241 0.163-0.612 1.241-2.215-0.518-0.709-1.16-1.589-1.886-2.583-0.51-0.719-1.079-1.52-1.679-2.364-0.973-1.377-2.019-2.912-2.979-4.327-1.917-2.831-3.48-5.181-3.485-4.762 1.376 2.161 2.785 4.302 4.214 6.428l2.16 3.176c1.021 1.473 2.042 2.944 2.89 4.412l-2.184 3.102-1.488 2.163-2.819 4.116c-0.303 0.11 0.054-0.725 0.929-2.261 0.438-0.768 1.005-1.712 1.685-2.8 0.171-0.271 0.349-0.553 0.531-0.843 0.092-0.145 0.186-0.292 0.28-0.441 0.125-0.188 0.252-0.379 0.381-0.573 0.526-0.787 1.083-1.618 1.666-2.489-0.559-0.764-1.142-1.56-1.745-2.385-0.475-0.66-0.966-1.344-1.473-2.048-0.956-1.341-1.938-2.781-2.942-4.286-1.988-3.023-4.062-6.316-5.985-9.75-1.872-3.771 2.612 2.125 2.63 1.707-0.64-0.864-2.699-4.188-4.591-7.518-0.915-1.678-1.835-3.334-2.513-4.679-0.67-1.349-1.153-2.362-1.284-2.718 0 0 0.854 1.518 1.707 3.034 0.893 1.498 1.784 2.996 1.784 2.996-2.1-4.044-3.813-7.343-5.634-10.849-0.434-0.883-0.829-1.793-1.252-2.729-0.205-0.47-0.414-0.947-0.627-1.434-0.179-0.495-0.359-0.999-0.545-1.515-0.35-1.034-0.776-2.111-1.006-3.271-0.264-1.154-0.597-2.381-0.639-3.649-0.052-0.437-0.109-0.926-0.171-1.451-0.062-0.58-0.079-1.329-0.179-2.031-0.186-1.441-0.633-2.95-1.215-4.288-1.235-2.672-3.049-4.383-3.436-4.49 1.22 1.337 1.836 2.722 2.131 3.753 0.121 0.539 0.176 0.994 0.174 1.363-0.025 0.382-0.104 0.679-0.215 0.89-0.225 0.425-0.594 0.519-1.026 0.33-0.422-0.196-0.951-0.648-1.589-1.34-0.171-0.244-0.824-1.364-2.207-2.634-0.678-0.646-1.549-1.3-2.535-1.949-1.004-0.625-2.132-1.229-3.33-1.761-4.822-2.146-10.603-2.942-12.748-3.206-3.131-0.371-0.787-0.749 1.77-0.893 2.538-0.144 5.259 0.013 2.55-0.67-0.264 0.114-3.851-0.028-5.351 0.059-2.083-0.097-1.679-0.2-1.863-0.318-0.048-0.026-0.138-0.048-0.319-0.062-0.091-0.007-0.218-0.005-0.372-0.002-0.077 0.002-0.155 0.003-0.284 0.019-0.06 0.007-0.123 0.014-0.188 0.021l-0.1 0.013-0.007 0.001c0.119 0.505-0.272-1.129 0.267 1.132l-0.008-0.048-0.03-0.189-0.062-0.383c-0.037-0.215-0.1-0.649-0.098-0.53-0.486 0.034-0.592-0.01-1.368-0.007-0.684-0.008-1.545-0.017-2.629-0.028-1.46 0.611-17.824-0.216-4.146 0.512-4.284 0.047-6.561 0.019-9.026-0.015-2.466-0.023-5.122-0.087-10.16 0.142 3.219 0.317-8.986 1.749-17.388 3.207 0.473-0.249-1.459-0.197-2.396-0.142-4.328 0.685-8.127 1.509-11.574 2.59-3.429 1.097-6.579 2.399-9.21 4.487l-0.968 0.802c-0.3 0.292-0.572 0.616-0.859 0.924l-0.426 0.469c-0.133 0.164-0.236 0.353-0.355 0.527-0.226 0.368-0.505 0.747-0.705 1.14-0.065 1.686-0.132 3.392-0.2 5.147-0.115 3.45-0.237 7.098-0.373 11.178-0.195 1.501-0.654 9.366-0.83 6 0.019 2.353 0.15 4.518-0.058 9.553-1.024 9.714 0.41-11.227-0.629-3.831 0.367 0.65-0.037 13.038-0.11 20.219 0.71-2.176 0.858-16.561 0.933-23.748 0.829-0.001 1.204 12.54 0.759 29.625-0.491 13.568-0.849 5.85-0.851 8.21-0.252 4.327-0.396 7.812-0.502 10.716-0.041 1.452-0.078 2.759-0.111 3.953-0.014 1.168-0.025 2.226-0.037 3.205 0.027 0.226 0.054 0.448 0.079 0.666 0.024 0.241 0.049 0.477 0.072 0.709 0.043 0.465 0.084 0.914 0.124 1.353 0.071 0.876 0.137 1.709 0.182 2.53 0.094 1.642 0.142 3.235 0.1 5.027-0.046 1.791-0.174 3.783-0.54 6.209-0.379 2.42-0.954 5.301-2.325 8.73-0.906 2.031-1.622 2.965-1.958 3.33-0.343 0.364-0.375 0.15-0.308-0.242 0.162-0.78 0.595-2.295 0.024-1.52 1.127-2.555 1.811-4.922 2.316-7.099 0.505-2.179 0.848-4.171 1.113-6.062 0.519-3.782 0.756-7.16 0.663-10.933 0 0 0.004 2.324-0.135 4.64-0.122 2.316-0.391 4.619-0.391 4.619 0.131-2.778 0.177-7.949-0.073-11.951 0.069-1.101 0.146-2.117 0.227-2.97-0.087 0.695-0.181 1.679-0.284 2.97 0.104 2.76 0.154 6.777-0.243 11.491-0.204 2.355-0.517 4.886-1.071 7.487-0.542 2.602-1.337 5.279-2.55 7.826-0.63 1.26-1.367 2.479-2.253 3.592-0.895 1.104-1.97 2.064-3.176 2.803-0.59 0.386-1.266 0.655-1.888 0.92-0.703 0.084-1.404 0.168-2.103 0.252-1.411 0.149-2.802 0.381-4.194 0.406-5.544 0.398-10.806 0.137-15.208-0.157-3.494 0.052-9.514-0.399-6.694 0.101 0 0 1.554 0.11 3.108 0.222 1.554 0.106 3.11 0.159 3.11 0.159 2.848 0.377-0.086 0.372-2.759 0.32-2.668-0.092-5.074-0.197-1.134 0.225-1.528-0.06-3.112-0.145-4.718-0.263l-0.058-0.003h-0.058c-1.612-0.095-3.167-0.438-4.717-1.292-0.758-0.439-1.497-1.008-2.102-1.756-0.083-0.086-0.141-0.194-0.212-0.291l-0.121-0.177c-0.087-0.117-0.15-0.229-0.199-0.34-0.123-0.218-0.201-0.45-0.266-0.686l-0.04-0.132c-0.039-0.006-0.093 0.013-0.139 0.018l-0.287 0.049-0.571 0.097c-0.174 0.025-0.417 0.077-0.517 0.075-0.323 0.014-0.647 0.026-0.974 0.04-0.661 0.037-1.327 0.047-1.991-0.005-0.667-0.036-1.346-0.055-2.016-0.154-1.353-0.151-2.718-0.384-4.103-0.725-0.173-0.039-0.347-0.082-0.522-0.132l-0.611-0.168c-0.222-0.077-0.474-0.104-0.671-0.242-0.199-0.136-0.4-0.267-0.597-0.413-0.668-0.492-1.213-0.945-1.786-1.488 0 0-0.344-0.507-0.641-1.042-0.156-0.259-0.297-0.527-0.396-0.735-0.101-0.202-0.167-0.338-0.167-0.338 0.026 0.163 1.23 1.784 3.247 3.267 0.305 0.203 0.587 0.475 0.969 0.544 0.329 0.091 0.661 0.183 0.994 0.275 0.605 0.134 1.208 0.297 1.801 0.389 1.178 0.232 2.297 0.327 3.146 0.391-1.261-0.088-3.045-0.314-5.034-0.88-0.276-0.081-0.556-0.162-0.84-0.245-0.324-0.065-0.589-0.265-0.856-0.463-0.532-0.396-0.912-0.716-1.359-1.117-0.858-0.773-1.675-1.65-2.398-2.616-1.449-1.906-2.42-4.387-2.176-6.678 0.094-0.559 0.125-1.12 0.324-1.61 0.158-0.507 0.311-0.998 0.498-1.397 0.35-0.844 0.664-1.602 0.932-2.249 0 0-0.287 0.452-0.705 1.142-0.212 0.343-0.42 0.762-0.664 1.202-0.244 0.431-0.445 1.039-0.668 1.58-0.142 0.58-0.295 1.182-0.333 1.751-0.008 0.57-0.063 1.119 0.03 1.566 0.091 0.921 0.296 1.487 0.296 1.487-0.246-0.561-0.348-1.198-0.486-1.831-0.042-0.322-0.046-0.655-0.066-0.988l-0.021-0.503 0.057-0.502c0.042-0.336 0.079-0.678 0.137-1.016 0.099-0.324 0.198-0.65 0.298-0.979l0.158-0.494 0.177-0.42 0.36-0.842c1.035-2.223 2.372-4.518 4.384-6.473 1.96-1.963 4.71-3.531 7.713-3.974 0.373-0.05 0.748-0.119 1.123-0.146l1.125-0.039c0.378-0.025 0.746 0.02 1.118 0.042l0.403 0.03c0.061 0.006 0.116 0.008 0.188 0.022l0.41 0.074c0.136 0.047 0.28 0.025 0.388-0.074 0.226-0.167 0.364-0.42 0.48-0.673-0.321 0.382-0.569 0.503-0.787 0.535-0.217-0.062-0.348-0.086-0.516-0.111-0.044-0.009-0.082-0.012-0.12-0.016-0.069-0.007-0.144-0.016-0.226-0.023-0.36-0.021-0.771-0.106-1.306-0.105-1.055-0.026-2.564-0.1-4.808 0.421 0.977-0.194 1.221-0.123 0.915 0.001-0.305 0.123-1.14 0.411-2.25 0.924-1.114 0.512-2.446 1.351-3.721 2.443-1.28 1.093-2.455 2.461-3.411 3.885-0.965 1.422-1.731 2.891-2.32 4.194-0.644 1.6-0.897 3.15-0.771 4.188 0.007 0.525 0.09 0.911 0.165 1.151 0.066 0.242 0.113 0.341 0.133 0.274 0.021-0.066 0.016-0.3-0.01-0.717 0.017-0.422 0.017-1.052 0.145-1.865-0.124 0.597-0.119 1.21-0.141 1.809 0.071 0.579 0.091 1.191 0.25 1.732 0.146 0.549 0.292 1.104 0.523 1.59 0.201 0.515 0.447 0.984 0.716 1.434 1.063 1.818 2.434 3.232 3.984 4.525 0.2 0.157 0.393 0.319 0.604 0.476 0.245 0.188 0.599 0.431 0.899 0.63 0.315 0.211 0.71 0.26 1.065 0.381 0.266 0.074 0.533 0.149 0.802 0.225 0.982 0.259 2.004 0.476 3.077 0.692 1.084 0.176 2.211 0.377 3.44 0.479 0.306 0.031 0.615 0.064 0.929 0.097 0.321 0.01 0.647 0.02 0.977 0.03 0.331 0.01 0.667 0.021 1.007 0.031 0.268 0 0.085 0.027 0.125 0.023l0.103 0.019c-0.007-0.041-0.047-0.077-0.091-0.109-0.044-0.024 0.072-0.073-0.025-0.099-0.028-0.014 0.061-0.031 0.032-0.038-0.007-0.007-0.038-0.025 0.049-0.041 0.063-0.017 0.149-0.034 0.263-0.053 0.057-0.008 0.121-0.018 0.192-0.028 0.056 0.013 0.188-0.079 0.183 0.048 0.024 0.117 0.066 0.257 0.138 0.411 0.011 0.034 0.059 0.105 0.087 0.159l0.053 0.091 0.191 0.292c0.301 0.349 0.601 0.771 0.988 1.1 0.449 0.389 1.561 1.061 2.277 1.362 0.314 0.152 0.423 0.204 0.693 0.334-0.204-0.102-0.356-0.179-0.56-0.281 0.459 0.175 0.499 0.195-0.208-0.11-1.198-0.668-2.212-1.577-2.837-2.495-0.087-0.105-0.153-0.224-0.219-0.336-0.073-0.124-0.053-0.109-0.083-0.17-0.032-0.081-0.08-0.172-0.085-0.229-0.027-0.126-0.048-0.239-0.059-0.331 0.144 0.191 0.318 0.424 0.518 0.688 0.513 0.623 1.162 1.265 1.945 1.754 0.773 0.507 1.649 0.917 2.573 1.196 0.941 0.287 1.858 0.467 2.962 0.54h0.042l0.042 0.003c5.441 0.499 11.736 0.707 14.611 0.609 2.621 0.079 2.076 0.104 1.227 0.195-0.85 0.086-1.995 0.113-0.563 0.271 0 0 1.782-0.103 3.564-0.205 0.891-0.053 1.778-0.091 2.447-0.179 0.667-0.071 1.112-0.118 1.112-0.118 0.363 0.197 3.88 0.249 5.786 0.098 0.949-0.034 1.487-0.024 1.002 0.107-0.242 0.066-0.741 0.163-1.573 0.299-0.417 0.065-0.917 0.144-1.508 0.235-0.592 0.078-1.271 0.113-2.055 0.18 0 0 0.706-0.038 1.765-0.096 1.065-0.128 2.486-0.298 3.907-0.467 0.387-0.048 0.774-0.095 1.155-0.142 0.493 0.011 1.04-0.305 1.464-0.47 0.752-0.29 1.38-0.692 1.932-1.016 0.541-0.335 0.938-0.679 1.238-0.894 0.301-0.218 0.442-0.366 0.442-0.366 1.529-1.24 2.866-2.884 3.925-4.672 1.066-1.791 1.87-3.726 2.491-5.641 1.229-3.836 1.768-7.595 1.962-10.444 0.744-5.378-0.163-13.522 0.279-8.868-0.017-0.78-0.039-1.56-0.078-2.341l-0.063-1.175-0.04-0.593-0.023-0.3c-0.004-0.046-0.009-0.092 0.011-0.138l0.451-12.549 0.12-0.153c0.454-8.505 0.771-17.264 1.058-26.335 0.295-9.072 0.806-18.421 1.423-28.178 0.035-2.875 0.07-5.798 0.11-9.203 0.019-0.852 0.038-1.733 0.058-2.651l0.005-0.269c-0.01-0.085 0.007-0.163 0.068-0.228 0.142-0.224 0.287-0.451 0.436-0.685 0.966-1.234 2.461-2.398 4.357-3.428 0 0 1.655-0.465 1.679-0.431 1.505-0.737 3.518-1.506 5.78-2.137 2.267-0.621 4.74-1.175 7.139-1.567 4.782-0.834 9.167-1.229 10.69-1.592 3.93 0.108 12.694-0.437 22.166-0.514 4.74-0.064 9.606-0.028 14.194 0.014 0.627-0.004 1.036 0.018 2.003-0.022l0.302-0.016 0.206-0.018 0.104-0.01 0.025-0.002 0.013-0.001c0.047 1.384-0.053-1.905-0.023-1.479l0.163 0.76 0.126 0.682h0.001l0.002-0.002c0.135-0.015 0.346-0.032 0.572-0.041 0.908-0.042 1.903-0.018 2.829 0.03 1.871 0.108 3.599 0.322 5.076 0.604l0.536-0.417c4.093 0.774 8.058 2.031 11.281 4.358 1.568 1.188 2.918 2.64 3.74 4.466 0.41 0.911 0.729 1.901 0.862 2.987 0.103 0.65 0.206 1.309 0.311 1.976 0.125 0.728 0.232 1.478 0.383 2.212-0.021 0.01 0.316-0.813 0.316-0.813 1.129 4.956 3.361 10.785 6.26 17.062 2.899 6.27 6.467 12.963 10.408 19.45-0.682-0.793-2.62-4.125-3.88-6.548 1.618 3.217 3.409 6.43 5.346 9.59 0.965 1.582 1.96 3.155 2.984 4.715l1.551 2.332 0.632 0.869-0.421 0.64-0.11 0.166-0.275 0.388-0.613 0.859c-0.815 1.146-1.629 2.289-2.438 3.427-1.626 2.271-3.237 4.522-4.822 6.736-3.191 4.412-6.343 8.633-9.477 12.45-0.297 0.427-0.584 0.839-0.861 1.237-0.132 0.198-0.263 0.394-0.391 0.585-0.124 0.175-0.246 0.347-0.366 0.517-0.492 0.673-0.988 1.279-1.481 1.813-0.492 0.533-0.985 1.001-1.462 1.368-0.468 0.372-0.954 0.638-1.227 0.703 0.138-0.057 0.312-0.144 0.469-0.267-0.222 0.146-0.597 0.292-0.6 0.274 0.094 0.652-0.173 0.787 0.144 0.378l0.259-0.333-0.302-0.169c-0.658-0.367-1.342-0.749-2.047-1.145-0.732-0.352-1.538-0.626-2.351-0.942 0.814 0.342 1.632 0.631 2.361 0.998 0.71 0.398 1.387 0.778 2.013 1.129l0.345 0.193-0.278 0.269c-0.051 0.05-0.092 0.107-0.125 0.17l-0.033 0.061 0.028-0.052c0.032-0.062 0.074-0.124 0.13-0.179l0.279-0.271-0.354-0.177c-0.691-0.346-1.459-0.729-2.284-1.143-0.439-0.15-0.895-0.307-1.362-0.468-0.467-0.167-0.95-0.32-1.469-0.406-0.513-0.095-1.029-0.233-1.57-0.288-0.543-0.044-1.092-0.108-1.652-0.127-0.567 0.019-1.128-0.014-1.714 0.061-0.294 0.034-0.576 0.052-0.881 0.104-0.319 0.054-0.767 0.137-1.118 0.234-0.296 0.144-0.678 0.335-0.904 0.463-0.224 0.127-0.451 0.257-0.679 0.387 0 0-0.523 0.167-1.048 0.334-0.519 0.186-1.037 0.372-1.037 0.372-0.336 0.237-0.618 0.414-0.96 0.672-2.069 1.388-2.748 2.175-2.708 2.279 0.056 0.134 0.844-0.359 1.989-1.01-1.936 1.601-3.499 3.336-4.505 4.84-0.396 0.325-0.772 0.786-1.193 1.292-0.387 0.533-0.8 1.137-1.162 1.827-0.721 1.292-1.446 3.255-1.353 5.334 0.065 2.112 1.062 4.13 2.251 5.561 1.19 1.467 2.517 2.51 3.646 3.427 0.449 0.195 0.94 0.467 2.291 1.001 0.296 0.175 0.667 0.094 1.034 0.1 0.308-0.01 0.63-0.02 0.965-0.03 0.521-0.022 1.083-0.046 1.678-0.07 2.377-0.079 5.291-0.215 8.163-0.258 5.743-0.081 11.416-0.221 12.676-0.635 0.153 0.111 1.52 0.176-0.989 0.161l1.946 0.052c0.688 0.007 1.374 0.014 2.058 0.02 1.369-0.058 2.743-0.194 4.068-0.543 1.33-0.31 2.607-0.817 3.796-1.48 0.295-0.182 0.587-0.334 0.875-0.555 0.291-0.19 0.649-0.5 0.856-0.744 0.406-0.443 0.809-0.881 1.205-1.312l1.992-1.14s1.848-2.175 3.695-4.35c1.833-2.186 3.666-4.371 3.666-4.371 5.053-4.73 7.193-6.658 2.783-1.369 5.47-6.252 7.687-8.785 9.699-11.086 1.974-2.338 3.862-4.333 8.154-9.967l-0.146 0.779c0.566-0.684 1.193-1.439 1.851-2.233 0.323-0.4 0.655-0.812 0.99-1.228 0.318-0.434 0.641-0.872 0.963-1.312 1.289-1.762 2.585-3.539 3.718-5.02-0.731-0.305-1.383-0.576-2.034-0.848-0.158 0.739-0.308 1.418-0.456 2.012-0.209 0.59-0.404 1.095-0.584 1.49-0.924 2.213-2.654 5.854-5.335 10.261-1.34 2.202-2.895 4.6-4.635 7.127-0.872 1.262-1.789 2.558-2.753 3.871-0.483 0.651-0.973 1.311-1.469 1.978-0.304 0.379-0.581 0.811-0.911 1.131l-0.711-0.175-0.824-0.18c-0.874-0.179-1.766-0.336-2.677-0.469-0.914-0.127-1.852-0.222-2.837-0.252-0.997-0.002-2.009-0.032-3.349 0.478l0.27-0.09-1.456 0.46c-0.483 0.168-0.982 0.276-1.442 0.54l-1.405 0.702c-0.475 0.222-0.878 0.592-1.319 0.887-1.716 1.25-3.17 2.963-4.064 4.89-0.931 1.911-1.442 3.96-1.657 5.986-0.204 2.039-0.168 4.031 0.157 6.064l0.011 0.074 0.008 0.074c0.12 0.95 0.336 1.731 0.733 2.578 0.388 0.825 1.055 1.693 1.86 2.251 0.812 0.566 1.777 0.927 2.765 0.99 0.494 0.062 0.907 0.001 1.362-0.008 0.418-0.062 0.825-0.14 1.235-0.217-0.728-0.365-1.429-0.717-2.129-1.067 0.296 0.717 0.846 1.343 1.439 1.726 0.599 0.396 1.174 0.56 1.712 0.683 1.081 0.215 1.989 0.177 2.934 0.06l0.056-0.007c0.019-0.004 0.037-0.006 0.056-0.005 1.33-0.018 2.632-0.034 3.906-0.051 1.316 0.04 2.604 0.08 3.863 0.118-2.794-0.607 0.551-0.447 4.732-0.248 2.091 0.1 4.39 0.209 6.238 0.238 1.954 0.002 3.452-0.11 3.731-0.403 0.448 0.023 1.055 0.023 1.637 0.021 0.584-0.042 1.139-0.082 1.481-0.106 0.69-0.056 0.553 0.161-1.95 0.642 3.805-0.495 7.146-1.736 9.838-3.495 1.337-0.891 2.54-1.874 3.529-3.001 0.499-0.558 0.958-1.137 1.369-1.746 0.211-0.3 0.396-0.623 0.586-0.941 0.188-0.353 0.338-0.609 0.546-1.124-0.023 0.056-0.045 0.108-0.067 0.162 2.23-4.74 4.124-8.873 5.969-13.854 0.954-1.419-0.946 3.038-0.173 1.741 0.438-1.102 1.732-4.359 2.521-5.686 0.774-1.297-0.688 2.059-1.551 4.231 6.228-13.714 6.089-15.453 5.82-16.781 3.521-6.782 5.057-10.267 6.876-15.496 1.344-2.308 3.437-6.224-0.374 2.324 0.56-1.192 1.692-3.608 3.08-6.569 0.691-1.481 1.446-3.1 2.226-4.77 0.388-0.836 0.781-1.685 1.176-2.535 0.098-0.207 0.208-0.459 0.262-0.554l0.339-0.626c0.221-0.444 0.451-0.885 0.647-1.331 1.637-3.543 2.61-7.18 2.98-9.974 0.37-2.799 0.213-4.694 0.071-4.83 0.075-0.431 0.042-1.133-0.003-1.964-0.027-0.415-0.041-0.863-0.093-1.324-0.08-0.459-0.163-0.933-0.245-1.403-0.096-0.469-0.151-0.943-0.281-1.383-0.137-0.437-0.267-0.855-0.386-1.238-0.241-0.765-0.437-1.388-0.625-1.709-0.307-0.72-0.597-1.397-0.871-2.04-0.307-0.625-0.67-1.175-0.977-1.718-0.605-1.022-1.146-1.935-1.643-2.773-0.482-0.811-0.923-1.55-1.342-2.253-0.36-0.74-0.702-1.441-1.043-2.142-0.34-0.7-0.679-1.399-1.034-2.134-0.307-0.759-0.627-1.554-0.978-2.424-0.752-1.717-1.408-3.823-2.283-6.535 0 0 0.045 0.193 0.113 0.482 0.083 0.284 0.194 0.664 0.306 1.043 0.224 0.759 0.447 1.519 0.447 1.519-2.151-4.049-3.014-9.083-4.315-18.239l0.113 0.254c-0.238-1.991-0.301-3.703-0.437-5.163-0.073-1.465-0.135-2.689-0.187-3.729-0.067-2.08-0.11-3.42-0.144-4.468-0.042-1.047-0.057-1.801-0.073-2.707-0.012-0.45-0.004-0.954 0.007-1.519 0.023-0.406-0.019-0.925 0.106-1.452 0.327-0.182 0.688-0.396 1.079-0.658 0.574-0.409 1.249-0.836 1.926-1.398 0.692-0.547 1.481-1.138 2.273-1.885 0.816-0.725 1.726-1.521 2.63-2.495l-1.144 0.534c0.144-0.561 1.087-1.644 2.429-3.207 0.642-0.807 1.399-1.721 2.244-2.723 0.821-1.019 1.627-2.197 2.537-3.406 3.485-4.928 7.058-11.452 8.961-17.377l-1.893 4.067c0.537-1.608 1.318-3.474 2.23-5.481 0.765-2.056 1.651-4.256 2.557-6.467 0.488-1.097 0.816-2.235 1.197-3.344 0.367-1.114 0.728-2.208 1.075-3.262 0.333-1.062 0.653-2.084 0.954-3.044 0.229-0.976 0.423-1.894 0.582-2.734 0.168-0.728 0.105-0.141-0.034 0.888-0.072 0.514-0.16 1.138-0.249 1.763-0.126 0.619-0.253 1.239-0.357 1.751 0.147-0.543 0.287-1.055 0.417-1.536 0.1-0.487 0.192-0.944 0.279-1.372 0.166-0.859 0.31-1.604 0.435-2.251 0.243-1.294 0.396-2.196 0.485-2.824 0.178-1.257 0.102-1.417-0.022-1.44-0.123-0.023-0.294 0.09-0.305-0.613-0.013-0.353 0.046-0.904 0.113-1.785 0.046-0.884 0.136-2.092 0.29-3.744 0.59-2.403 0.529 3.252 1.519-5.675 0.237-1.104 0.229-3.297 0.294-6.138 0.018-1.421 0.037-3.005 0.059-4.701 0.013-0.826 0.009-1.77 0.036-2.572 0.02-0.341 0.039-0.686 0.059-1.034 0.003-0.347 0.142-0.764 0.205-1.149 0.675-3.193 2.264-6.795 3.863-10.097 1.615-3.326 3.382-6.438 4.964-8.987-1.494 2.189-2.997 4.371-0.236-1.05 4.46-8.183 13.373-21.482 16.678-29.338 0.634-1.012 0.909-1.374 0.99-1.387 0.813-1.598 1.882-3.694 3.057-6.001 1.192-2.288 2.368-4.921 3.557-7.403 2.186-5.079 3.892-9.953 4.372-12.086 1.259-1.975 3.313-7.671 4.619-14.466 0.661-3.392 1.179-7.036 1.468-10.568 0.127-1.768 0.252-3.501 0.278-5.165 0.013-0.492 0.025-0.979 0.038-1.458-0.005-0.537-0.01-1.066-0.015-1.587-0.005-0.518-0.01-1.027-0.015-1.527-0.024-0.487-0.049-0.964-0.072-1.432-0.471-0.541-0.719-1.037-0.993-1.513-0.107-0.234-0.213-0.461-0.314-0.68-0.064 0.094-0.118 0.359-0.184 0.514-0.278 0.706-0.495 1.289-1.134 1.497-0.087 0.025-0.187 0.041-0.295 0.044-0.059-0.002-0.109 0.003-0.172-0.005l-0.09-0.011c-0.029-0.006-0.056-0.019-0.104 0.049l-0.127 0.141-0.062 0.069-0.016 0.017-0.008 0.009-0.004 0.004c-0.148 0.42 0.331-0.938-0.333 0.942v-0.001l0.005-0.016c0.013-0.041 0.031-0.073 0.053-0.098 0.07-0.13 0.135-0.166 0.27-0.31 0.134-0.138 0.24-0.178 0.419-0.323l0.018-0.026c0.005-0.045 0.01-0.085 0.02-0.117 0.07 0.506 0.097 0.694 0.124 0.886 0.08-0.236 0.154-0.315 0.229-0.297 0 0 0.133-1.406 0.331-3.515 0.12-2.109 0.259-4.93 0.143-7.738-0.145-5.625-1.001-11.165-1.001-11.165l0.246 0.556c-0.989-7.102-2.307-11.774-3.407-15.268-0.538-1.754-1.066-3.206-1.576-4.508-0.49-1.309-0.967-2.467-1.475-3.61-0.978-3.13-0.058-0.918 0.107-0.687-1.643-4.923-3.114-8.668-4.44-11.777-0.651-1.561-1.274-2.96-1.887-4.261-0.594-1.311-1.185-2.52-1.781-3.696-2.396-4.698-4.767-8.952-9.479-16.217l-0.494-1.804c-0.578-0.829-1.585-2.501-2.972-4.756-0.702-1.122-1.497-2.392-2.367-3.782-0.268-0.413-0.54-0.835-0.818-1.266-0.339-0.511-0.684-1.033-1.036-1.564-0.705-1.067-1.458-2.146-2.238-3.264-0.304-0.064-0.61-0.13-0.922-0.196-0.294-0.073-0.513-0.189-0.777-0.279-0.264-0.091-0.458-0.22-0.694-0.326l-0.318-0.178-0.078-0.045c-0.011-0.001 0.021 0.037 0.028 0.054l0.08 0.132c0.208 0.354 0.405 0.709 0.545 1.085 0.068 0.188 0.122 0.382 0.119 0.599-0.005 0.217-0.057 0.457-0.369 0.789-0.15 0.145-0.339 0.31-0.627 0.475l-0.05 0.031c-0.007 0.008-0.021 0.004-0.021 0.021l0.019 0.094 0.072 0.376 0.073 0.377 0.019 0.094 0.01 0.047 0.004 0.023 0.003 0.012v0.003c-0.072-0.228 0.63 1.996 0.333 1.054l-0.001-0.001-0.016-0.044c-0.037-0.118-0.032-0.204-0.049-0.431-0.001-0.098 0.012-0.183 0.027-0.282 0.002-0.115 0.028-0.312 0.036-0.352 0.011 0.005-0.008 0-0.043-0.016-0.043-0.007-0.156-0.067-0.246-0.102 0.303 0.298 0.614 0.605 0.926 0.913-1.732-3.541-3.904-6.75-6.151-9.927-2.26-3.155-4.646-6.188-7.048-9 0.167 0.121 0.511 0.385 1.568 1.609-1.847-2.219-3.786-4.538-5.867-6.878-1.05-1.17-2.105-2.339-3.341-3.511-0.316-0.295-0.634-0.586-1.047-0.901-0.224-0.161-0.428-0.323-0.833-0.524-0.128-0.059-0.273-0.116-0.42-0.164-0.126-0.035-0.257-0.062-0.389-0.08l-0.202-0.021c-0.122-0.002-0.249 0.004-0.376 0.021-0.264 0.045-0.456 0.073-0.805 0.275-0.155 0.092-0.302 0.206-0.429 0.33-0.051 0.049-0.148 0.155-0.147 0.164l-0.029 0.057-0.102 0.204-0.005 0.036c-0.041 0.379-0.053 0.757-0.116 1.123-0.066 0.292-0.106 0.586-0.192 0.864l-0.12 0.416c-0.025 0.056-0.042 0.161-0.074 0.176l-0.14-0.192c-0.35-0.466-0.724-0.893-1.103-1.285-0.164-0.172-0.333-0.333-0.499-0.491l-0.251-0.23-0.461-0.38c-0.851-0.676-1.73-1.313-2.653-1.879-1.834-1.145-3.804-2.068-5.844-2.659-4.075-1.216-8.331-1.088-11.79-0.063-3.508 0.955-6.269 2.606-8.368 4.13-2.071 1.514-3.606 3.16-4.383 4.442 0 0-0.043 0.047-0.124 0.135-0.086 0.083-0.192 0.226-0.326 0.412-0.26 0.378-0.678 0.873-1.083 1.55-0.831 1.333-1.649 3.4-1.726 5.553-0.108 2.157 0.513 4.196 1.109 5.583 0.624 1.389 1.174 2.212 1.174 2.212-1.275-2.235-1.752-4.156-1.933-5.525-0.027-0.698-0.078-1.252-0.043-1.686 0.049-0.434 0.092-0.745 0.129-0.952 0.151-0.827 0.185-0.015 0.216 1.13 0.11 0.568 0.151 1.236 0.336 1.813 0.183 0.577 0.312 1.105 0.493 1.406 0.157 0.309 0.249 0.427 0.232 0.228-0.009-0.1-0.044-0.279-0.112-0.553-0.044-0.279-0.104-0.659-0.183-1.157 0.334 1.895 1.232 3.93 2.323 5.685 1.09 1.758 2.31 3.286 3.239 4.348 0.918 1.075 1.515 1.727 1.41 1.742-0.082-0.009-0.901-0.617-2.531-2.364l-0.902-1.194c-0.723-0.552-0.189 0.437 1.216 2.072 1.402 1.631 3.725 3.818 6.314 5.777 2.571 1.99 5.374 3.791 7.503 5.09 0.537 0.322 1.028 0.617 1.462 0.877 0.111 0.065 0.218 0.128 0.321 0.189 0.08 0.046 0.121 0.077 0.186 0.125 0.161 0.12 0.307 0.229 0.438 0.328 0.524 0.417 0.784 0.675 0.686 0.703 7.509 5.436 13.915 12.409 19.189 19.949 5.258 7.589 9.277 15.912 12.149 24.521 2.777 8.647 4.385 17.575 4.944 26.489 0.566 8.918 0.096 17.812-1.087 26.518 0 0 0.322-0.981 0.644-1.962 0.342-0.981 0.6-1.977 0.6-1.977s-0.045 0.77-0.228 1.912c-0.164 1.144-0.382 2.669-0.601 4.195-0.108 0.763-0.218 1.525-0.319 2.24-0.116 0.712-0.263 1.372-0.368 1.94-0.222 1.135-0.37 1.892-0.37 1.892-0.795 3.146-1.339 4.148 0.266-4.465-0.564 2.242-1.217 5.853-1.649 8.963-0.588 3.079-0.979 5.656-0.931 5.798-0.276 1.041-0.502 1.929-0.718 2.67-0.243 0.734-0.441 1.332-0.6 1.81-0.326 0.952-0.512 1.417-0.593 1.528-0.164 0.223 0.085-0.969 0.447-2.513 0.683-3.1 1.566-7.666 0.959-5.106 0 0-0.409 1.738-0.818 3.477-0.202 0.87-0.48 1.722-0.655 2.369-0.185 0.645-0.308 1.074-0.308 1.074l0.538-1.525c-0.646 2.835-0.999 4.383-1.483 6.506-0.521 2.118-1.421 4.747-3.146 9.751-0.061 0.177-0.108 0.277-0.188 0.414-0.089 0.165-0.174 0.321-0.254 0.47-0.163 0.297-0.31 0.563-0.441 0.803-0.272 0.473-0.483 0.841-0.649 1.129-0.334 0.575-0.545 0.794-0.671 0.92-0.258 0.247-0.254 0.075-0.909 1.172-0.019-0.02-0.142 0.153-0.447 0.667-0.281 0.532-0.862 1.315-1.679 2.609 0 0-0.125 0.199-0.366 0.528-0.252 0.32-0.611 0.778-1.043 1.328-0.216 0.275-0.449 0.572-0.695 0.887-0.268 0.294-0.551 0.605-0.843 0.926-0.291 0.321-0.592 0.654-0.898 0.991-0.316 0.326-0.66 0.631-0.991 0.95-0.335 0.315-0.67 0.631-0.999 0.941-0.351 0.283-0.695 0.562-1.029 0.831-0.651 0.562-1.312 1.009-1.88 1.389-0.558 0.395-1.033 0.707-1.387 0.889-0.344 0.197-0.541 0.31-0.541 0.31s0.333-0.151 0.833-0.377c0.508-0.215 1.127-0.61 1.781-0.957 0.664-0.335 1.255-0.786 1.729-1.086 0.468-0.311 0.779-0.519 0.779-0.519-2.386 2.316-5.455 4.089-7.118 4.807-0.809 0.416-1.276 0.566-1.086 0.584 0.091 0 0.342-0.046 0.777-0.162 0.425-0.151 1.035-0.369 1.857-0.662-2.367 0.96-6.925 2.665-12.771 2.673-5.829 0.11-12.693-1.615-18.906-4.558-0.419-0.19-0.733-0.354-1.301-0.587-0.555-0.194-0.959-0.275-1.436-0.412-0.857-0.213-1.709-0.424-2.555-0.634-1.688-0.399-3.348-0.792-4.963-1.175-3.231-0.747-6.286-1.432-9.011-2.027-5.451-1.192-9.576-2.085-11.162-2.48-9.632-1.56-19.073-3.382-30.829-5.379 2.902 0.624 4.547 1.506-5.581-0.2 1.961-0.368-2.664-1.256-8.811-2.233-3.08-0.454-6.532-0.963-9.731-1.435-3.206-0.44-6.15-0.904-8.2-1.367 3.676 0.692-3.625-0.01-10.423-0.398-3.407-0.122-6.677-0.272-8.371-0.216-1.698 0.094-1.8 0.197 1.117 0.491-8.621-0.209-0.508-0.519-7.071-0.883-0.644 0.013-1.292 0.025-1.944 0.038-0.652 0.044-1.31 0.088-1.97 0.133-1.321 0.082-2.657 0.166-4.009 0.25-1.352 0.048-2.713 0.21-4.089 0.373-1.376 0.152-2.766 0.306-4.168 0.461-5.576 0.869-11.388 1.867-17.129 3.786-5.755 1.829-11.483 4.292-16.976 7.32-5.505 3.012-10.76 6.542-15.968 10.044-0.232 0.364 3.433-1.729-0.925 1.452 0 0-0.723 0.408-1.806 1.021-1.089 0.592-2.541 1.382-3.993 2.171-1.454 0.778-2.935 1.482-4.029 2.042-0.547 0.279-1.007 0.502-1.336 0.642-0.326 0.146-0.512 0.229-0.512 0.229-2.129 1.17-2.992 1.96-4.386 2.785-1.382 0.798-3.304 1.919-7.524 2.789 1.192-0.189 3.033-0.478-0.019 0.449-2.817 0.642-5.851 0.903-8.076-0.192-1.091-0.543-1.92-1.412-2.451-2.539-0.264-0.562-0.455-1.182-0.572-1.827-0.059-0.322-0.103-0.649-0.126-0.977-0.021-0.312-0.033-0.694-0.008-0.875 0.644-6.299 0.783-12.656 0.184-19.053-0.312-3.195-0.813-6.4-1.695-9.567l-0.749-2.362-0.74-1.782c-0.043-0.209 0.086-0.43 0.122-0.645l0.271-1.064 0.552-2.341c0.696-3.131 1.25-6.298 1.611-9.507 0.348-3.21 0.549-6.457 0.268-9.787-0.153-1.664-0.412-3.355-1.075-5.074-0.34-0.858-0.792-1.722-1.549-2.532-0.761-0.813-1.789-1.363-2.88-1.564-0.544-0.112-1.108-0.106-1.658-0.055-0.53 0.075-1.035 0.191-1.495 0.366-0.93 0.338-1.73 0.81-2.458 1.324-1.45 1.039-2.631 2.254-3.719 3.52-0.542 0.635-1.055 1.288-1.545 1.961l-0.363 0.512-0.321 0.47-0.684 0.924c-0.934 1.234-1.913 2.445-2.922 3.625-2.02 2.36-4.165 4.609-6.461 6.646-2.294 2.025-4.752 3.873-7.38 5.153-1.31 0.634-2.665 1.111-3.996 1.313-0.332 0.035-0.666 0.107-0.99 0.099-0.318 0.011-0.642 0.026-1.065 0.015l-2.373-0.026c-6.32-0.068-12.607-0.109-18.866-0.246 6.785 0.26 2.264 0.353-2.913 0.417 3.365 0.051-0.073 0.437 0.592 0.669 0 0-1.31-0.032-3.275-0.081-1.966-0.04-4.582-0.126-7.195-0.217-1.31-0.034-2.605-0.113-3.822-0.174-1.217-0.062-2.361-0.111-3.284-0.219-0.468-0.044-0.898-0.084-1.279-0.121-0.376-0.037-0.739-0.052-0.902-0.136-0.399-0.115-0.627-0.18-0.627-0.18-0.375-0.012-1.025-0.237-1.778-0.469-0.774-0.343-1.701-0.688-2.704-1.237-2.022-1.004-4.356-2.442-6.634-3.854-4.542-2.874-8.805-5.85-9.883-6.209l2.758 1.832c1.388 0.9 2.775 1.801 2.775 1.801-3.854-2.148-1.557-0.066 1.579 2.512 3.113 2.594 7.226 5.494 6.433 5.584 1.163 0.505 2.355 1.132 3.702 1.723 0.647 0.322 1.366 0.605 2.113 0.891l0.559 0.221 0.64 0.165c0.42 0.086 0.901 0.262 1.285 0.259 1.616 0.136 3.315 0.301 5.031 0.368 1.729 0.105 3.518 0.196 5.349 0.257 7.337 0.286 15.455 0.381 23.56-0.33 3.583 0.152-3.051 0.346-1.132 0.544 2.051-0.227 4.323-0.388 7.222-0.458 0.725-0.012 1.489-0.024 2.3-0.037 0.405-0.003 0.822-0.006 1.252-0.009 0.481-0.031 0.998-0.021 1.501-0.099 2.043-0.246 4.175-0.975 6.335-2.113 0 0-0.232 0.153-0.464 0.307-0.229 0.157-0.474 0.297-0.474 0.297 3.105-1.56 5.565-3.508 7.772-5.42 2.186-1.938 4.099-3.889 5.848-5.835 1.751-1.949 3.345-3.875 4.845-5.865l0.282-0.381 0.282-0.404 0.497-0.685c0.341-0.455 0.696-0.899 1.062-1.33 0.731-0.86 1.507-1.673 2.33-2.379 0.816-0.708 1.7-1.305 2.545-1.645 0.873-0.327 1.481-0.324 2.077-0.012 0.295 0.166 0.506 0.36 0.74 0.682 0.238 0.335 0.444 0.791 0.626 1.281 0.347 1.011 0.572 2.204 0.681 3.476 0.222 2.55 0.099 5.375-0.232 8.393-0.337 3.021-0.893 6.256-1.688 9.716l0.895-1.968c-0.31 1.502-0.609 2.697-0.869 3.691-0.138 0.495-0.261 0.942-0.375 1.352-0.146 0.49-0.278 0.937-0.401 1.354-0.079 0.264-0.156 0.519-0.23 0.767l-0.111 0.369c0.021 0.118 0.08 0.232 0.118 0.347 0.171 0.461 0.336 0.904 0.501 1.347 0.105 0.296 0.21 0.592 0.319 0.899 0.113 0.279 0.182 0.597 0.272 0.928 0.675 1.551 0.711 1.355 0.414 0.245-0.078-0.276-0.171-0.609-0.277-0.986-0.152-0.383-0.321-0.81-0.502-1.267-0.132-0.327-0.268-0.664-0.407-1.009-0.063-0.172-0.154-0.346-0.197-0.523l0.152-0.556c0.171-0.635 0.346-1.289 0.522-1.944 1.112-4.246 1.833-8.666 1.663-5.426-0.312 0.981-0.685 2.378-1.159 4.069-0.264 0.923-0.551 1.929-0.858 3.002l-0.153 0.533c-0.051 0.179-0.14 0.362-0.021 0.534 0.138 0.351 0.278 0.706 0.42 1.066 0.115 0.292 0.231 0.587 0.349 0.886 0.092 0.248 0.206 0.487 0.284 0.75 1.374 4.146 2.163 9.406 2.387 14.633 0.241 5.221 0.02 10.439-0.471 14.571-0.009 0.093-0.046 0.323-0.05 0.511l-0.008 0.509c0.001 0.313 0.017 0.611 0.041 0.906 0.051 0.588 0.13 1.153 0.252 1.695 0.23 1.086 0.619 2.08 1.083 2.935 0.942 1.731 2.217 2.759 2.941 3.341 1.403 0.799 2.489 1.013 3.21 1.149 0.73 0.121 1.141 0.143 1.34 0.123 0.403-0.021-0.011-0.119-0.414-0.222-0.412-0.135-0.811-0.273-0.409-0.257 0.202 0.017 0.6 0.051 1.286 0.075 0.688 0.034 1.653 0.014 2.964-0.124 0 0 0.177 0.001 0.436-0.015 0.261-0.013 0.609-0.031 0.958-0.049 0.693-0.049 1.376-0.141 1.376-0.141s0.62-0.232 1.207-0.51c0.295-0.134 0.591-0.267 0.812-0.367 0.216-0.107 0.36-0.179 0.36-0.179 3.133-1.005 5.394-1.928 6.936-2.539 1.562-0.586 2.366-0.904 2.542-0.835-1.364 0.74-3.972 2.067-5.545 2.749 4.034-1.481 9.183-4.362 13.562-7.117 4.365-2.774 7.961-5.343 9.169-6.054 0 0-1.956 1.236-3.913 2.473-1.951 1.247-3.965 2.444-3.965 2.444 5.579-3.59 11.209-7.602 17.17-11.241 5.944-3.665 12.309-6.829 18.979-9.111 6.652-2.336 13.599-3.689 20.395-4.469 3.389-0.487 6.773-0.579 10.067-0.809 1.647-0.11 3.288-0.058 4.9-0.1 1.615-0.009 3.205-0.073 4.775-0.048 0 0-0.476-0.095-0.949-0.144-0.475-0.059-0.949-0.117-0.949-0.117 2.396-0.047 4.44 0.102 6.215 0.142 1.775 0.077 3.285 0.107 4.619 0.222 2.67 0.224 4.646 0.426 6.681 0.641 2.036 0.188 4.121 0.514 7.018 0.852 1.448 0.17 3.098 0.365 5.041 0.594 1.943 0.248 4.181 0.534 6.806 0.869l-0.771-0.049c2.117 0.153 4.577 0.433 7.225 0.79 2.647 0.353 5.488 0.737 8.344 1.249-5.318-0.625 9.845 2.165 2.876 1.291 10.344 1.556 12.901 1.98 14.596 2.164 1.694 0.199 2.529 0.139 9.396 1.089l3.052 1c2.345 0.301 3.621 0.44 5.609 0.767 1.989 0.322 4.692 0.82 9.874 1.931-8.552-1.571 6.477 2.016-3.114 0.319 5.38 1.384 10.079 2.542 14.237 3.533 0.985 0.242 1.94 0.476 2.865 0.703l0.197 0.075 0.317 0.14c0.227 0.102 0.451 0.202 0.675 0.301 0.462 0.199 0.917 0.395 1.364 0.587 1.809 0.756 3.555 1.373 5.233 1.868 6.745 1.965 12.251 2.289 17.705 2.19 0.666-0.164 1.166-0.299 1.521-0.406 0.352-0.13 0.56-0.226 0.646-0.289 0.172-0.129-0.142-0.119-0.789-0.043-1.301 0.111-3.957 0.445-6.758 0.341-5.627-0.099-11.525-1.923-8.644-1.24-2.338-0.811-0.212-0.309 3.407 0.179 1.816 0.212 4.016 0.368 6.206 0.325 2.192-0.011 4.358-0.317 6.114-0.621 0.887-0.197 1.752-0.336 2.592-0.577l1.276-0.313c0.42-0.131 0.843-0.263 1.272-0.397 1.73-0.516 3.508-1.256 5.537-2.313 1.991-1.113 4.193-2.618 6.551-4.851 2.329-2.252 4.752-5.267 7.047-9.285-0.938 1.586-0.896 1.755-1.947 3.279 1.07-1.387 1.875-2.907 2.749-4.404 0.378-0.776 0.759-1.555 1.142-2.342 0.19-0.419 0.37-0.716 0.604-1.308 0.138-0.425 0.276-0.853 0.415-1.283 0.539-1.666 1.099-3.375 1.717-5.148 0.318-0.884 0.644-1.786 0.978-2.712 0.305-0.936 0.623-1.893 0.968-2.873 0.34-2.326 1.173-4.881 1.713-7.095 0.527-2.216 0.937-4.038 0.709-4.777 0 0-0.233 1.007-0.583 2.517-0.345 1.512-0.799 3.53-1.397 5.507-0.562 1.989-1.125 3.978-1.546 5.469-0.204 0.749-0.392 1.366-0.543 1.792-0.143 0.429-0.224 0.673-0.224 0.673 0.376-1.108 0.669-2.235 0.951-3.37 0.282-1.133 0.565-2.271 0.854-3.428 0.283-1.156 0.57-2.331 0.866-3.538 0.244-1.219 0.494-2.471 0.754-3.77 0.271-1.293 0.553-2.633 0.847-4.032 0.316-1.394 0.513-2.876 0.812-4.413 0.292-1.538 0.598-3.15 0.921-4.851 0.257-1.712 0.542-3.511 0.864-5.411-0.036 1.203-0.346 5.801-0.917 8.911 0.268-1.099 0.506-2.184 0.699-3.267 0.14-1.093 0.279-2.178 0.418-3.268 0.28-2.18 0.562-4.376 0.862-6.705 0.386 0.708-0.137 5.736-1.147 11.789-0.6 3.006-1.104 6.316-1.897 9.417-0.725 3.118-1.331 6.128-1.954 8.569 0.931-2.264 1.841-6.965 2.617-10.402 0.68-3.461 1.033-5.727 0.996-3.146 0.076-1.848 0.333-3.86 0.696-6.035 0.256-2.195 0.61-4.555 0.994-7.07 0.338-2.521 0.551-5.219 0.794-8.042 0.072-1.416 0.07-2.87 0.078-4.35-0.021-1.482 0.028-2.99-0.147-4.526l0.491 0.812c-0.062-0.975-0.157-2.472-0.267-4.172-0.061-0.85-0.078-1.751-0.162-2.661-0.091-0.91-0.174-1.832-0.239-2.726 0 0 0.275 1.611 0.551 3.223 0.189 1.623 0.379 3.245 0.379 3.245-0.078-1.25-0.156-2.486-0.232-3.714-0.118-1.226-0.218-2.443-0.305-3.654-0.117-2.427-0.419-4.81-0.659-7.192l-0.185-1.785-0.281-1.769-0.583-3.535c-0.191-1.18-0.519-2.334-0.792-3.501-0.304-1.16-0.562-2.335-0.952-3.48 0.676 2.435 1.094 4.357 1.458 5.834 0.32 1.487 0.463 2.558 0.586 3.3 0.224 1.488 0.179 1.7 0.057 1.558-0.258-0.285-0.778-1.979-0.211 2.217-0.275-1.519-0.604-2.889-0.854-4.149-0.261-1.259-0.475-2.405-0.761-3.433-0.537-2.061-0.877-3.752-1.266-5.161-0.786-2.813-1.116-4.673-1.665-6.57-0.26-0.957-0.525-1.936-0.834-3.075-0.354-1.127-0.823-2.392-1.407-3.951-0.281-0.785-0.635-1.623-1.063-2.535-0.425-0.914-0.89-1.915-1.402-3.02-0.562-1.082-1.202-2.251-1.904-3.539-0.693-1.292-1.581-2.627-2.49-4.122 0.509 0.8 1.211 1.969 1.926 3.194 0.677 1.248 1.334 2.569 1.852 3.618 0.532 1.042 0.813 1.869 0.858 2.075 0.025 0.215-0.207-0.181-0.935-1.464-0.612-1.177-1.274-2.448-1.945-3.738-0.723-1.264-1.456-2.546-2.157-3.773-0.743-1.205-1.452-2.355-2.083-3.378-0.626-1.028-1.235-1.888-1.662-2.591-11.743-14.351 1.488 2.447-3.712-3.482-0.895-1.296-1.752-2.346-2.589-3.303-0.874-0.925-1.708-1.775-2.642-2.604-1.867-1.66-3.981-3.373-7.159-5.867l0.261-0.41c-1.013-0.851-1.946-1.578-2.804-2.21-0.869-0.617-1.601-1.185-2.498-1.642-1.342-0.751-2.327-1.303-3.072-1.72-1.495-0.842-2.057-1.083-2.575-1.279-0.513-0.204-0.983-0.363-2.217-1.172-0.617-0.404-1.426-0.971-2.488-1.825-1.062-0.85-2.396-1.98-3.938-3.586 0.001 0 1.445 1.216 3.004 2.296 1.543 1.098 3.167 2.083 3.167 2.083s-1.916-1.339-3.674-2.84c-1.787-1.477-3.338-3.138-3.339-3.138l0.844 0.494c0.412 0.249 0.849 0.474 0.849 0.474-3.614-3.319-5.307-6.082-5.907-8.752-0.278-1.338-0.252-2.656 0.237-4.04 0.489-1.38 1.474-2.849 3.158-4.348-0.415 0.307-0.617 0.374-0.591 0.206 0.025-0.168 0.263-0.586 0.853-1.156 1.096-1.156 3.554-3.248 7.497-4.869 1.389-0.438 1.904-0.5 2.069-0.48 0.162 0.013-0.025 0.112-0.029 0.149-0.005 0.042 0.171 0.004 1.058-0.207 0.892-0.144 2.516-0.575 5.412-0.385-1.318 0.052-2.668 0.232-4.282 0.565-1.615 0.343-3.505 0.842-5.92 1.792-0.2 0.196-0.752 0.569-1.298 0.944-0.53 0.416-1.058 0.828-1.247 1.035 1.342-0.758 2.863-1.547 4.486-2.188 1.628-0.615 3.351-1.072 5.035-1.258 3.378-0.419 6.533 0.397 8.405 1.211-1.438-0.656-3.241-1.119-4.173-1.327 2.034 0.249 4.062 0.844 5.976 1.798 0.956 0.474 1.896 1.009 2.789 1.631 0.229 0.146 0.443 0.316 0.667 0.473 0.313 0.227 0.717 0.574 1.05 0.859 0.354 0.286 0.697 0.603 1.032 0.946 0.339 0.32 0.673 0.664 0.98 1.274 1.437 0.055 2.272 0.288 2.938 0.704 0.086 0.042 0.171 0.087 0.248 0.136 0.077-0.046 0.154-0.177 0.229-0.265 0.696-0.675 0.91-0.73 0.744-0.514-0.075 0.108-0.236 0.284-0.454 0.493-0.231 0.182-0.458 0.587-0.726 0.31-0.125-0.05-0.269-0.108-0.439-0.156 0.175 0.058 0.317 0.121 0.444 0.175 0.09 0.042 0.176 0.084 0.253 0.128 0.085-0.046 0.172-0.138 0.257-0.205 0.186-0.153 0.369-0.305 0.553-0.456 0.161-0.149 0.397-0.317 0.634-0.489 0.228-0.174 0.458-0.349 0.692-0.527 0.184-0.722 0.246-1.529 0.38-2.327 0.058-0.405 0.115-0.818 0.176-1.244l0.007-0.09c0.02-0.034-0.12-0.03-0.172-0.047l-0.108-0.018-0.055-0.009-0.014-0.002c1.368 1.121-1.873-1.528-1.538-1.254l0.002 0.002c0.002 0.004 0.001 0.007-0.002 0.006 0.013 0.018 0.033 0.1 0.015 0.171 0.002 0.128-0.027 0.229-0.077 0.356-0.083 0.344-0.252 0.625-0.475 1.088-0.156 0.299-0.121 0.174-0.115 0.204l0.032 0.018c0.244 0.139 0.733 0.546 1.182 0.964 0.465 0.432 0.963 0.932 1.492 1.49-0.571-0.343-0.895-0.423-1.602-0.896-0.338-0.217-0.838-0.601-1.333-0.903-0.049-0.026-0.11-0.061-0.127-0.06h-0.011c0.117-0.201 0.238-0.413 0.334-0.558 0.199-0.31 0.381-0.758 0.502-0.989 0.062-0.131 0.105-0.317 0.145-0.426 0.04-0.096 0.057-0.211 0.053-0.318 0.024-0.037-0.015-0.141-0.014-0.141 0.002 0 0.003-0.002 0.001-0.006l-0.002-0.002c-1.877-1.536 2.556 2.092 2.107 1.72l0.019 0.002 0.072 0.008 0.146 0.015c0.076 0.016 0.242 0.01 0.246 0.042l-0.005 0.102c-0.003 0.071-0.01 0.135-0.021 0.191-0.019 0.12-0.037 0.241-0.057 0.365-0.174 0.978-0.31 2.155-0.612 3.416-0.375 0.168-0.897 0.378-1.431 0.592 0.479-0.194 0.958-0.389 1.446-0.568 0.275-1.079 0.421-2.242 0.634-3.347l0.073-0.418c-0.021-0.122 0.24-0.366-0.459-0.357 0.457 0.381-4.083-3.333-2.16-1.76l0.001 0.001 0.001 0.001 0.001 0.003-0.003 0.002c-0.009-0.017 0.028 0.059 0.021 0.083-0.01 0.033 0.002 0.237-0.05 0.35-0.084 0.339-0.266 0.699-0.524 1.21l-0.438 0.742-0.062 0.105c-0.02 0.031-0.005 0.009-0.009 0.016h0.002l0.005 0.001 0.081 0.049c0.076 0.054 0.165 0.118 0.266 0.199 0.829 0.669 1.785 1.624 2.679 2.548 1.812 1.885 3.58 3.89 5.308 5.92 0.304 0.508 1.617 2.343 2.631 3.858 1.018 1.514 1.747 2.695 1.012 1.826 1.279 1.786 2.688 3.755 4.193 5.857 1.461 2.094 3.033 4.37 4.266 6.669l0.573 1.07 0.845 0.329c0.563 0.219 1.133 0.514 2.324 0.546 0.16-0.004 0.283 0 0.472-0.025 0.188-0.026 0.378-0.062 0.563-0.109 0.24-0.059 0.227-0.076 0.298-0.105 0.047-0.023 0.142-0.066 0.127-0.065 0.036-0.028 0.057-0.075 0.072-0.121 0.079-0.419-0.083-0.903-0.232-1.398l-0.064-0.188c0.012-0.002 0.058 0.058 0.085 0.085l0.195 0.223 0.409 0.506 0.422 0.568 0.21 0.301 0.306 0.459c0.885 1.336 1.734 2.687 2.551 4.035 0.415 0.532 1.215 1.622 2.687 3.951 3.121 5.225 5.769 10.32 8.424 15.706 2.645 5.393 5.285 11.087 8.086 17.7 0 0 0.139 0.492 0.347 1.229 0.217 0.734 0.48 1.72 0.723 2.71 0.249 0.986 0.499 1.972 0.687 2.712l0.275 1.24c1.748 5.299 1.14 2.631 0.822 0.827-0.161-0.901-0.25-1.583 0.069-0.931 0.316 0.654 1.089 2.633 2.367 7.133 0.407 1.603 0.731 2.88 0.99 3.897 0.214 1.025 0.352 1.792 0.445 2.362 0.184 1.14 0.167 1.497 0.084 1.594-0.188 0.196-0.554-0.65-0.279 1.632 0.28 1.346 0.686 2.897 0.95 4.643 0.146 0.873 0.3 1.79 0.46 2.745 0.108 0.961 0.221 1.96 0.337 2.994 0.385 4.137 0.467 8.879-0.238 13.76l-0.097 0.669 0.261 0.506c0.214 0.415 0.355 0.94 1.248 1.626 0.112 0.08 0.273 0.167 0.418 0.235l0.226 0.097 0.043 0.011c0.061 0.018 0.085 0.016 0.11 0.016 0.053-0.008 0.104-0.028 0.146-0.059 0.207-0.156 0.325-0.38 0.432-0.58 0.051-0.102 0.096-0.202 0.135-0.299l0.055-0.143c0.014-0.017 0.042-0.169 0.033-0.033l-0.01-0.042c-0.005 0.002-0.014 0.032-0.02 0.046l-0.043 0.105-0.087 0.201c-0.059 0.125-0.117 0.247-0.175 0.367-0.121 0.227-0.24 0.442-0.422 0.587-0.038 0.03-0.083 0.051-0.13 0.06-0.021 0.002-0.044 0.004-0.104-0.011-0.019-0.005-0.01 0.001-0.052-0.014l-0.245-0.104c-0.155-0.073-0.333-0.169-0.449-0.253-0.961-0.735-1.109-1.284-1.338-1.716l-0.264-0.496 0.081-0.81c0.085-0.86 0.17-1.712 0.257-2.579 0-0.69 0.09-1.57 0.09-2.5zm-42 122.51c0.001-0.673 0.003-1.515 0.004-2.428-0.01-0.412 0.023-1.022 0.062-1.616 0.034-0.596 0.075-1.206 0.212-1.72 0.119-0.537 0.236-1.068 0.35-1.579 0.135-0.494 0.301-0.934 0.445-1.36 0.292-0.849 0.576-1.558 0.853-1.999-0.196 0.783-0.342 1.574-0.552 2.322-0.106 0.377-0.213 0.754-0.321 1.138-0.096 0.403-0.193 0.812-0.293 1.234-0.254 0.806-0.361 1.809-0.492 2.909-0.07 0.94-0.16 1.96-0.26 3.11zm-35.24 197.45c0.699-1.91 2.078-4.731 3.718-7.874-1.04 2.34-2.27 4.98-3.72 7.87zm-178.04 23.54c0.036-0.119 0.062-0.204 0.091-0.301 0.639-1.516 0.954-2.539 1.144-3.134 0.189-0.597 0.243-0.769 0.196-0.612-0.11 0.3-0.54 1.94-1.43 4.04zm-9.79 10.34c-0.951 0.151-1.117 0.206-1.214 0.252-0.066 0.042 0.099 0.056 0.38 0.055 0.086-0.026 0.316-0.068 0.55-0.109 0.119-0.027 0.249-0.027 0.388-0.079 0.138-0.063 0.284-0.132 0.44-0.204 0.263-0.121 0.555-0.256 0.872-0.401 0.3-0.121 0.585-0.319 0.904-0.503 1.276-0.73 2.704-1.885 3.884-3.317-0.39 0.351-0.885 0.878-1.769 1.631-0.431 0.383-0.996 0.792-1.672 1.26-0.356 0.213-0.741 0.443-1.158 0.692-0.49 0.23-1.02 0.47-1.6 0.73zm213.37-291.33l1.306-1.989c-1.263 2.38-1.857 3.143-1.935 3.222-0.09 0.08 0.27-0.58 0.62-1.23z" fill="inherit"/>
						<path d="m375.72 420.23c0.396-0.669 0.566-0.825 0.725-0.952 0.38-1.01 0.3-1.07-0.72 0.95z" fill="inherit"/>
						<path d="m416.26 42.366l-0.22-0.361c-0.146-0.182-0.24-0.27-0.303-0.314l0.52 0.675z" fill="inherit"/>
						<path d="m266.56 344.88c2.725 0.155 4.2 0.453 5.181 0.67 0.16-0.06-1.02-0.48-5.18-0.67z" fill="inherit"/>
						<path d="m119.51 455.24c0-0.001-0.253 0.658-0.549 1.671-0.083 0.533-0.208 1.158-0.244 1.831 0.022 0.673-0.013 1.412 0.157 2.095 0.211 1.424 0.81 2.63 1.254 3.492 0.486 0.825 0.844 1.339 0.844 1.339-1.372-1.987-1.922-3.788-2.072-5.289-0.105-1.511 0.056-2.736 0.505-3.999-0.096 0.097-0.349 0.637-0.403 0.766-0.038 0.059-0.055-0.001-0.018-0.296 0.08-0.28 0.23-0.79 0.53-1.61z" fill="inherit"/>
						<path d="m136.87 398.79c-0.407-1.113-0.735-2.4-1.149-3.492l-0.111 0.377c1.49 4.8 2.7 8.12 1.26 3.11z" fill="inherit"/>
						<path d="m125.28 449.22c0.382-0.108 1.465-1.211 3.364-2.382 1.867-1.188 4.8-2.171 7.872-1.967-0.364-0.036-0.713-0.044-1.083-0.028 0.453-0.152 0.39-0.246-0.083-0.294-0.236-0.021-0.574-0.043-0.996-0.03-0.421 0.044-0.929 0.092-1.498 0.188-1.129 0.242-2.51 0.675-3.861 1.449-1.34 0.77-2.63 1.84-3.71 3.06z" fill="inherit"/>
						<path d="m137.58 444.96c0.298 0.025 0.606 0.146 0.895 0.095 0.283-0.117 0.504-0.354 0.662-0.612 0.331-0.539 0.494-1.062 0.676-1.721-0.017-0.162-0.059-0.125-0.122 0.065-0.044 0.144-0.121 0.397-0.221 0.729-0.105 0.318-0.235 0.734-0.525 1.119-0.144 0.186-0.34 0.371-0.586 0.434-0.27-0.04-0.53-0.08-0.79-0.12z" fill="inherit"/>
						<path d="m161.82 477.71c-2.729-0.184-1.729 0.469-3.274 0.259-0.77 0.106-0.011 0.154 1.325 0.163 0.668-0.004 1.479-0.009 2.316-0.014 0.839-0.024 1.705-0.089 2.476-0.137 3.06-0.22 4.63-0.41-2.86-0.27z" fill="inherit"/>
						<path d="m129.87 447.35c-0.008-0.061-2.023 0.635-2.014 0.683 0 0.001-0.611 0.562-1.125 1.199-0.276 0.299-0.504 0.64-0.685 0.882-0.178 0.244-0.296 0.406-0.296 0.406s0.886-0.971 1.917-1.777c0.525-0.392 1.056-0.771 1.489-1.001 0.211-0.123 0.387-0.226 0.51-0.298 0.12-0.05 0.19-0.09 0.19-0.09z" fill="inherit"/>
						<path d="m143.61 473.83c-0.849-0.412-1.643-0.976-2.266-1.706-0.151-0.186-0.318-0.36-0.432-0.572-0.103-0.184-0.238-0.355-0.316-0.55l-0.245-0.58c-0.053-0.205-0.106-0.41-0.176-0.587l-0.051-0.207c-0.06-0.004-0.133 0.012-0.2 0.017l-0.41 0.044-0.827 0.09c-0.275 0.023-0.561 0.078-0.829 0.062l-0.917 0.001c0.142 0.074-1.026 0.199-2.458 0.108 0.522 0.028 1.048 0.08 1.575 0.09 0.528-0.01 1.056-0.019 1.578-0.028 0.5 0.015 0.9-0.071 1.35-0.119 0.217-0.027 0.431-0.054 0.642-0.08 0.193-0.001 0.486-0.154 0.47 0.148 0.146 0.712 0.436 1.263 0.808 1.822 0.439 0.576 0.906 1.021 1.332 1.322 0.87 0.63 1.44 0.81 1.39 0.74z" fill="inherit"/>
						<path d="m134.48 469.95c-1.472-0.096-2.89-0.327-4.142-0.552-0.625-0.121-1.207-0.244-1.734-0.363-0.526-0.125-1.099-0.221-1.448-0.517 0.19 0.107 0.374 0.308 0.656 0.353 0.259 0.068 0.542 0.143 0.842 0.222 0.57 0.13 1.204 0.283 1.871 0.396 1.33 0.24 2.77 0.43 3.95 0.46z" fill="inherit"/>
						<path d="m122.25 456.74s-0.061 0.153-0.151 0.383c-0.098 0.228-0.22 0.535-0.263 0.864-0.056 0.324-0.151 0.648-0.159 0.896-0.005 0.249-0.009 0.415-0.009 0.415s0.001 0.1 0.003 0.273c-0.006 0.175 0.002 0.423 0.069 0.715 0.078 0.592 0.292 1.365 0.624 2.091 0.322 0.73 0.75 1.41 1.102 1.894 0.179 0.241 0.327 0.441 0.432 0.582 0.114 0.133 0.179 0.208 0.179 0.208s-0.098-0.103-0.245-0.303c-0.143-0.202-0.359-0.483-0.598-0.835-0.451-0.717-1.001-1.717-1.286-2.81-0.077-0.27-0.101-0.552-0.153-0.822-0.062-0.271-0.075-0.54-0.064-0.804 0.002-0.262-0.007-0.515 0.004-0.754 0.042-0.235 0.081-0.459 0.118-0.665 0.047-0.417 0.174-0.742 0.264-0.97 0.1-0.24 0.15-0.37 0.15-0.37z" fill="inherit"/>
						<path d="m190.76 415.18l0.343-9.886c-0.133-1.016-0.339 1.673-0.461 5.354 0 2.38-0.12 6.05 0.12 4.54z" fill="inherit"/>
						<path d="m188.22 445.03c0.087-2.646 0.172-2.829 0.268-4.328l-0.638-0.257s0.131 1.133 0.22 2.283c0.09 1.16 0.15 2.31 0.15 2.31z" fill="inherit"/>
						<path d="m189.2 416.17c-0.121-0.994 0.246-14.356-0.361-1.839 0.11 1.01-0.26 10.91 0.36 1.84z" fill="inherit"/>
						<path d="m281.53 349.6s-0.583-0.251-1.178-0.472c-0.596-0.217-1.195-0.422-1.195-0.422l0.012 1.079s0.586-0.06 1.172-0.12c0.59-0.03 1.19-0.07 1.19-0.07z" fill="inherit"/>
						<path d="m277.2 447.25c0.403-0.237 0.782-0.448 1.123-0.626 0.165-0.085 0.322-0.165 0.471-0.241 0.054-0.025 0.104-0.048 0.152-0.07 0.078-0.02 0.105-0.018 0.183-0.03 0.135-0.03 0.304-0.032 0.442-0.048 0.284-0.034 0.539-0.053 0.771-0.049 0.457-0.019 0.789-0.036 1.043-0.021 0.505 0 0.683-0.062 0.907-0.103 0.223-0.018 0.491-0.017 1.193 0.104 0.691 0.155 1.815 0.506 3.567 1.528-0.078-0.055-0.155-0.109-0.297-0.209 0.068 0.052 0.164 0.123 0.261 0.196 0.675 0.424 1.025 0.447 0.922 0.404-0.08-0.062-0.557-0.251-1.095-0.707 0.075 0.053 0.177 0.125 0.279 0.197-0.358-0.202-0.906-0.51-1.501-0.845-0.613-0.295-1.311-0.529-1.896-0.754-1.206-0.315-2.014-0.508-1.098-0.411-0.832-0.103-1.616-0.15-2.317-0.106-0.677 0.016-1.425 0.144-1.586 0.207-0.279 0.161-0.537 0.309-0.771 0.442-0.301 0.173-0.564 0.354-0.797 0.501-0.457 0.315-0.782 0.552-0.942 0.719-0.29 0.34-0.02 0.29 1.02-0.07z" fill="inherit"/>
						<path d="m282.63 445.57c0.482 0.104 0.998 0.135 1.504 0.288 0.503 0.163 1.038 0.286 1.573 0.478-0.86-0.293-1.497-0.492-1.985-0.603-0.49-0.08-0.83-0.13-1.09-0.17z" fill="inherit"/>
						<path d="m30.796 160.9s-1.531-1.063-3.063-2.127c-1.52-1.087-3.039-2.174-3.039-2.174s0.95 0.748 1.9 1.496c0.957 0.737 1.913 1.475 1.913 1.475l2.289 1.32z" fill="inherit"/>
						<path d="m18.49 153.45l-1.06-1.554-3.979-2.168c1.368 0.98 4.074 2.86 5.039 3.72z" fill="inherit"/>
						<path d="m398.49 265.54l0.061 0.577c0.162-0.554 0.382-1.244 0.5-2.248 0.117-1.004 0.267-2.295 0.468-4.019 0 0-0.24 1.427-0.479 2.854-0.126 0.712-0.225 1.428-0.343 1.956-0.13 0.53-0.21 0.88-0.21 0.88z" fill="inherit"/>
						<polygon fill="inherit" points="436.21 171.34 435.51 172.9 437.34 170.2"/>
						<path d="m439.65 97.598c0.405 1.649 0.745 3.456 1.157 5.255 0.297 1.812 0.696 3.62 0.854 5.304-0.22-1.821-0.533-3.446-0.694-4.862-0.221-1.412-0.407-2.602-0.553-3.534-0.28-1.868-0.54-2.686-0.77-2.158z" fill="inherit"/>
					</g>
				</g>
			</g>
		</g>
	</g>
</g>
<g fill="#A0C185">
	<path d="m56.272 220.34c-1.538 3.518-6.35 4.812-10.747 2.89s-6.715-6.332-5.178-9.85c1.538-3.518 4.422-1.139 8.819 0.783 4.398 1.93 8.644 2.66 7.106 6.18z" fill="inherit"/>
	<path d="m79.558 220.34c1.538 3.518 6.35 4.812 10.747 2.89s6.715-6.332 5.178-9.85c-1.538-3.518-4.422-1.139-8.819 0.783-4.397 1.93-8.643 2.66-7.106 6.18z" fill="inherit"/>
</g>
<g fill="#000001">
	<ellipse cx="48.175" cy="218.13" fill="inherit" rx="2.017" ry="4.376"/>
	<ellipse cx="87.656" cy="218.13" fill="inherit" rx="2.017" ry="4.376"/>
</g>
<g>
	<path d="m48.283 241.99s-0.767-0.221-2.17-0.502c-1.397-0.281-3.414-0.626-5.856-0.852-4.871-0.484-11.501-0.421-17.891 1.097-1.598 0.361-3.167 0.837-4.699 1.345-0.753 0.287-1.51 0.55-2.242 0.85-0.723 0.32-1.453 0.604-2.143 0.943-1.391 0.658-2.694 1.375-3.906 2.098-0.595 0.38-1.173 0.749-1.733 1.106-0.539 0.388-1.06 0.763-1.56 1.123-0.989 0.734-1.854 1.464-2.615 2.115-0.73 0.686-1.397 1.255-1.896 1.773-1 1.036-1.572 1.629-1.572 1.629s0.561-0.604 1.541-1.659c0.49-0.529 1.145-1.11 1.865-1.812 0.749-0.667 1.603-1.416 2.582-2.171 0.496-0.371 1.011-0.758 1.545-1.157 0.556-0.37 1.13-0.752 1.72-1.146 1.205-0.749 2.503-1.496 3.891-2.185 0.688-0.355 1.418-0.655 2.141-0.992 0.732-0.316 1.49-0.596 2.245-0.9 1.535-0.541 3.11-1.052 4.718-1.447 6.426-1.655 13.134-1.848 18.081-1.451 4.965 0.367 8.215 1.229 8.215 1.229l-0.261 0.97z" fill="#666"/>
	<path d="m49.642 243.11s-0.808-0.038-2.258 0.017c-1.444 0.052-3.512 0.194-5.973 0.552-2.462 0.346-5.312 0.931-8.3 1.794-1.492 0.44-3.021 0.942-4.542 1.539-1.529 0.576-3.043 1.263-4.532 1.996-0.749 0.36-1.468 0.776-2.201 1.16-0.712 0.421-1.426 0.834-2.119 1.268-1.376 0.884-2.698 1.806-3.921 2.773-1.228 0.961-2.356 1.963-3.394 2.948-0.506 0.506-0.998 0.997-1.474 1.474-0.45 0.501-0.885 0.984-1.302 1.449-0.815 0.945-1.528 1.846-2.138 2.656-0.581 0.833-1.124 1.536-1.509 2.156-0.778 1.234-1.223 1.94-1.223 1.94s0.432-0.714 1.188-1.964c0.374-0.628 0.903-1.341 1.47-2.187 0.596-0.824 1.293-1.739 2.093-2.704 0.411-0.474 0.838-0.968 1.28-1.479 0.469-0.486 0.955-0.99 1.453-1.508 1.023-1.01 2.14-2.038 3.357-3.029 1.213-0.997 2.527-1.951 3.899-2.868 0.69-0.451 1.403-0.881 2.114-1.318 0.731-0.401 1.451-0.835 2.199-1.213 1.49-0.769 3.006-1.49 4.541-2.103 1.526-0.632 3.062-1.168 4.563-1.642 3.007-0.931 5.881-1.577 8.37-1.974 4.979-0.82 8.387-0.734 8.387-0.734l-0.028 0.98z" fill="#666"/>
	<path d="m49.221 244.53s-0.77 0.067-2.139 0.314c-1.363 0.242-3.305 0.661-5.588 1.346-1.142 0.34-2.368 0.746-3.645 1.231-1.284 0.469-2.604 1.049-3.959 1.669-1.342 0.649-2.72 1.343-4.065 2.146-1.361 0.777-2.681 1.669-3.982 2.587-1.281 0.944-2.531 1.936-3.696 2.986s-2.269 2.134-3.265 3.248c-1.012 1.101-1.918 2.23-2.737 3.33-0.396 0.56-0.804 1.09-1.159 1.629-0.349 0.543-0.687 1.068-1.01 1.572-0.608 1.031-1.166 1.98-1.605 2.85-0.423 0.877-0.834 1.624-1.1 2.271-0.552 1.287-0.868 2.022-0.868 2.022s0.301-0.741 0.828-2.04c0.254-0.653 0.65-1.408 1.057-2.295 0.423-0.88 0.962-1.843 1.553-2.89 0.315-0.512 0.644-1.045 0.983-1.598 0.346-0.548 0.745-1.089 1.132-1.659 0.801-1.121 1.691-2.275 2.688-3.404 0.982-1.142 2.073-2.256 3.228-3.338 1.154-1.083 2.396-2.107 3.672-3.087 1.295-0.954 2.614-1.881 3.975-2.694 1.345-0.84 2.726-1.569 4.072-2.253 1.36-0.655 2.687-1.269 3.979-1.77 1.285-0.518 2.521-0.954 3.673-1.322 4.611-1.485 7.869-1.848 7.869-1.848l0.109 0.99z" fill="#666"/>
	<path d="m86.752 241.02s3.25-0.862 8.215-1.229c4.947-0.397 11.655-0.204 18.081 1.451 1.607 0.396 3.183 0.906 4.718 1.447 0.755 0.305 1.513 0.584 2.245 0.9 0.723 0.337 1.452 0.637 2.141 0.992 1.388 0.688 2.687 1.436 3.891 2.185 0.59 0.394 1.165 0.775 1.72 1.146 0.534 0.399 1.05 0.786 1.545 1.157 0.979 0.755 1.833 1.504 2.582 2.171 0.72 0.701 1.375 1.282 1.865 1.812 0.98 1.056 1.541 1.659 1.541 1.659s-0.571-0.593-1.572-1.629c-0.499-0.519-1.165-1.088-1.896-1.773-0.76-0.651-1.626-1.381-2.615-2.115-0.5-0.36-1.021-0.735-1.56-1.123-0.56-0.357-1.138-0.727-1.733-1.106-1.212-0.723-2.516-1.439-3.906-2.098-0.69-0.34-1.42-0.623-2.143-0.943-0.732-0.3-1.489-0.562-2.242-0.85-1.532-0.508-3.101-0.983-4.699-1.345-6.39-1.518-13.02-1.581-17.891-1.097-2.442 0.226-4.458 0.57-5.856 0.852-1.404 0.281-2.17 0.502-2.17 0.502l-0.271-0.97z" fill="#666"/>
	<path d="m85.624 242.11s3.408-0.086 8.387 0.734c2.489 0.396 5.363 1.043 8.37 1.974 1.5 0.474 3.037 1.01 4.563 1.642 1.534 0.612 3.051 1.334 4.541 2.103 0.749 0.378 1.468 0.812 2.199 1.213 0.711 0.438 1.423 0.867 2.114 1.318 1.372 0.917 2.686 1.871 3.899 2.868 1.218 0.991 2.334 2.02 3.357 3.029 0.499 0.518 0.984 1.021 1.453 1.508 0.442 0.512 0.87 1.006 1.28 1.479 0.8 0.965 1.497 1.88 2.093 2.704 0.567 0.846 1.096 1.559 1.47 2.187 0.756 1.25 1.188 1.964 1.188 1.964s-0.445-0.706-1.223-1.94c-0.386-0.62-0.928-1.323-1.509-2.156-0.61-0.811-1.322-1.711-2.138-2.656-0.417-0.465-0.852-0.948-1.302-1.449-0.476-0.477-0.968-0.968-1.474-1.474-1.037-0.985-2.166-1.987-3.394-2.948-1.223-0.968-2.544-1.89-3.921-2.773-0.693-0.434-1.407-0.847-2.119-1.268-0.733-0.384-1.453-0.8-2.201-1.16-1.49-0.733-3.003-1.42-4.533-1.996-1.521-0.597-3.05-1.099-4.542-1.539-2.989-0.863-5.838-1.448-8.3-1.794-2.46-0.357-4.529-0.5-5.973-0.552-1.45-0.055-2.257-0.017-2.258-0.017l-0.035-0.98z" fill="#666"/>
	<path d="m86.181 243.54s3.258 0.362 7.869 1.848c1.152 0.368 2.389 0.805 3.674 1.322 1.292 0.501 2.618 1.114 3.979 1.77 1.346 0.684 2.727 1.413 4.072 2.253 1.36 0.813 2.679 1.74 3.975 2.694 1.276 0.979 2.518 2.004 3.672 3.087 1.155 1.082 2.246 2.196 3.228 3.338 0.997 1.129 1.887 2.283 2.688 3.404 0.388 0.57 0.786 1.111 1.132 1.659 0.34 0.553 0.668 1.086 0.983 1.598 0.591 1.047 1.13 2.01 1.553 2.89 0.407 0.887 0.803 1.642 1.057 2.295 0.527 1.299 0.828 2.04 0.828 2.04s-0.315-0.735-0.868-2.022c-0.266-0.647-0.677-1.395-1.1-2.271-0.439-0.869-0.997-1.818-1.605-2.85-0.324-0.504-0.661-1.029-1.01-1.572-0.355-0.539-0.763-1.069-1.159-1.629-0.819-1.1-1.725-2.229-2.737-3.33-0.997-1.114-2.101-2.198-3.266-3.248-1.165-1.051-2.414-2.042-3.696-2.986-1.301-0.918-2.621-1.81-3.982-2.587-1.345-0.804-2.723-1.497-4.065-2.146-1.355-0.62-2.676-1.2-3.959-1.669-1.277-0.485-2.503-0.892-3.645-1.231-2.283-0.685-4.225-1.104-5.588-1.346-1.369-0.247-2.138-0.314-2.139-0.314l0.132-0.99z" fill="#666"/>
	<g>
		<path d="m64.494 238.18s-0.5 1.416 1.25 1.833 3.083 1.087 3.833 1.627 0.667-1.75 2.833-1.73 2.833-0.98 3-1.73-8.333-4.5-10.916 0z" fill="#777"/>
	</g>
</g>
</svg>