<?xml version="1.0" encoding="UTF-8"?><svg xmlns="http://www.w3.org/2000/svg" viewBox="0 0 36 36">
 <g id="change1_1"><path d="m29.213 17.569c2.079-1.322 4.403-3.87 4.403-8.673 0-0.552-0.447-1-1-1s-1 0.448-1 1c0 3.828-1.742 5.863-3.341 6.929-1.582-1.303-4.898-1.289-8.067-1.289-4.361 0-7.897 1.65-7.897 5.076s3.536 4.388 7.897 4.388c2.143 0 4.355-0.644 6.056-1.701 1.1 3.606 4.093 10.286 5.351 10.286 1.557 0-2.384-12.683-2.384-14.665 0-0.13-0.006-0.245-0.018-0.351z" fill="#CCD6DD"/></g>
 <g id="change1_2"><path d="m13.439 32.585c-1.558 0-2.947-10.221-2.947-12.202 0-1.983 1.262-3.59 2.82-3.59 1.556 0 2.819 1.607 2.819 3.59 0.001 1.981-1.135 12.202-2.692 12.202z" fill="#CCD6DD"/></g>
 <g id="change2_1"><path d="m23.592 19.049c0 4.982-2.608 9.023-7.592 9.023s-10.011-4.061-10.457-9.023c-0.543-6.049 2.912-8.049 7.896-8.049s10.153 3.064 10.153 8.049zm-6.768 14.664c0 1.868-1.516 2.256-3.384 2.256-1.869 0-3.384-0.388-3.384-2.256s1.515-3.384 3.384-3.384c1.868 0 3.384 1.516 3.384 3.384zm18.176 0c0 1.868-1.516 2.256-3.385 2.256-1.868 0-3.384-0.388-3.384-2.256s1.516-3.384 3.384-3.384c1.869 0 3.385 1.516 3.385 3.384zm1-24.817c0 1.869-1.516 3.384-3.384 3.384s-3.385-1.516-3.385-3.384 1.517-3.384 3.385-3.384 3.384 1.516 3.384 3.384z" fill="#99AAB5"/></g>
 <g id="change1_3"><path d="m14.567 9.104c0 1.869-2.778 3.384-6.204 3.384s-7.332-4.512-7.332-5.64 3.906-1.128 7.332-1.128c3.427 0 6.204 1.515 6.204 3.384z" fill="#CCD6DD"/></g>
 <g id="change3_1"><path d="m16.837 2.53c-0.045-1.16-0.581-2.45-4.526-2.45-2.804 0-6.768 3.266-6.768 4.512s2.272 2.256 5.076 2.256c0.322 0 0.651-0.031 0.983-0.083-0.283 1.199-0.419 2.572-0.419 4.031 0 4.672 1.397 6.204 4.512 6.204s4.512-1.532 4.512-6.204c0.001-4.057-1.055-7.443-3.37-8.266z" fill="#66757F"/></g>
 <g id="change4_1"><path d="m2.256 6.128c0 0.623-0.505 1.128-1.128 1.128s-1.128-0.505-1.128-1.128c0-0.623 0.505-1.128 1.128-1.128s1.128 0.505 1.128 1.128z" fill="#292F33"/></g>
</svg>