<?xml version="1.0" encoding="UTF-8"?><svg xmlns="http://www.w3.org/2000/svg" xmlns:xlink="http://www.w3.org/1999/xlink" height="346.3" preserveAspectRatio="xMidYMid meet" version="1.0" viewBox="-0.7 -2.3 468.0 346.3" width="468.0" zoomAndPan="magnify"><defs><clipPath id="a"><path d="M 0 42 L 467.28125 42 L 467.28125 341.480469 L 0 341.480469 Z M 0 42"/></clipPath></defs><g><g id="change1_1"><path d="M 146.199219 231.28125 C 143.800781 234.878906 76.699219 307.980469 76.699219 307.980469 C 76.699219 307.980469 37.199219 300.78125 28.800781 330.78125 C 28.800781 330.78125 64.699219 343.980469 85.101562 336.78125 C 85.101562 336.78125 152.199219 314.980469 183.300781 285.179688 C 183.300781 285.179688 275.5 308.078125 348.601562 274.480469 L 348.601562 301.980469 C 348.601562 301.980469 322.300781 303.179688 321.101562 323.578125 C 321.101562 323.578125 385.800781 340.378906 385.800781 299.578125 L 399.300781 251.179688 L 424.101562 202.578125 L 378.601562 164.28125 L 146.199219 231.28125" fill="#d2ab4d"/></g><g id="change2_1"><path d="M 311.664062 174.507812 C 304.808594 173.464844 298.207031 172.414062 292.269531 172.292969 C 298.21875 172.429688 304.820312 173.476562 311.664062 174.507812" fill="#95471d"/></g><g id="change2_2"><path d="M 291.171875 172.28125 C 291.410156 172.28125 291.652344 172.285156 291.894531 172.289062 C 291.652344 172.285156 291.410156 172.28125 291.171875 172.28125" fill="#95471d"/></g><g id="change2_3"><path d="M 370.101562 156.578125 C 356.210938 180.734375 332.769531 177.6875 311.664062 174.507812 C 304.808594 173.464844 298.207031 172.414062 292.269531 172.292969 C 292.144531 172.289062 292.019531 172.292969 291.894531 172.289062 C 291.652344 172.285156 291.410156 172.28125 291.171875 172.28125 C 289.054688 172.273438 287.023438 172.390625 285.101562 172.679688 C 261.199219 176.28125 269.601562 207.378906 206.101562 210.980469 C 205.257812 211.027344 204.429688 211.046875 203.613281 211.054688 C 185.542969 211.210938 174.007812 201.539062 166.796875 187.898438 C 157.574219 195.644531 144.796875 201.03125 127.300781 202.578125 C 127.300781 202.578125 115.84375 206.101562 100.203125 208.640625 C 76.65625 212.460938 43.625 214.0625 25.898438 198.078125 C 26.398438 197.679688 26.699219 197.480469 26.699219 197.480469 C 40.300781 212.179688 70.398438 207.679688 70.398438 207.679688 C 116.398438 204.28125 97.101562 148.679688 97.101562 148.679688 C 91.5 136.980469 86.800781 124.078125 86.898438 122.480469 C 92.800781 84.28125 117.101562 62.28125 136.398438 50.578125 C 149.300781 52.679688 163.300781 58.578125 177.800781 70.78125 C 177.800781 70.78125 193.636719 113.804688 186.835938 150.773438 C 205.121094 158.109375 230.832031 160.035156 267.101562 149.878906 L 371.300781 94.78125 C 371.300781 94.78125 374.898438 94.179688 380.800781 94.179688 C 384.800781 111.179688 383 134.28125 370.101562 156.578125 Z M 71 109.480469 C 71 109.480469 79.300781 73.679688 107.398438 51.980469 C 82.898438 58.378906 67 75.378906 67 75.378906 C 56.800781 92.378906 38 123.078125 38 123.078125 C 35.5 124.578125 33.101562 125.980469 30.898438 127.378906 C 39.800781 126.679688 60.101562 123.578125 71 109.480469 Z M 431.699219 42.878906 C 437.898438 29.28125 441.800781 14.78125 440.898438 0.078125 C 440.898438 0.078125 452.898438 -2.320312 450.5 19.28125 C 450.398438 19.28125 452.101562 28.878906 447.601562 46.980469 L 431.699219 42.878906" fill="#95471d"/></g><g clip-path="url(#a)" id="change3_1"><path d="M 136.5 50.679688 C 125.898438 48.878906 116.101562 49.78125 107.398438 52.078125 C 79.300781 73.78125 71 109.578125 71 109.578125 C 60.101562 123.679688 39.800781 126.78125 31 127.480469 C 28.300781 127.679688 26.699219 127.679688 26.699219 127.679688 C 26.699219 127.679688 0 131.578125 0 174.78125 C 0 213.378906 21.300781 201.078125 25.898438 198.078125 C 26.398438 197.679688 26.699219 197.480469 26.699219 197.480469 C 40.300781 212.179688 70.398438 207.679688 70.398438 207.679688 C 116.398438 204.28125 97.101562 148.679688 97.101562 148.679688 C 91.5 136.980469 86.800781 124.078125 86.898438 122.480469 C 92.800781 84.28125 117.101562 62.28125 136.5 50.679688 Z M 467.101562 232.578125 C 467.101562 232.578125 467.101562 297.28125 439.601562 327.179688 C 439.601562 327.179688 396.5 341.578125 392.898438 318.78125 C 392.898438 318.78125 384.5 307.980469 408.5 301.980469 L 419.300781 263.679688 C 419.300781 263.679688 390.601562 254.078125 385.800781 226.578125 C 385.800781 226.578125 360.601562 263.679688 275.601562 270.878906 C 275.601562 270.878906 281.601562 294.78125 244.5 310.378906 L 184.601562 341.480469 L 123.5 341.480469 C 123.5 341.480469 122.300781 315.078125 166.601562 316.28125 L 206.101562 279.179688 C 206.101562 279.179688 152.011719 287.445312 100.203125 208.640625 C 115.84375 206.101562 127.300781 202.578125 127.300781 202.578125 C 144.796875 201.03125 157.574219 195.644531 166.796875 187.898438 C 174.007812 201.539062 185.542969 211.210938 203.613281 211.054688 C 204.496094 211.050781 205.386719 211.03125 206.300781 210.980469 C 269.699219 207.378906 261.300781 176.28125 285.300781 172.679688 C 287.160156 172.398438 289.125 172.28125 291.171875 172.28125 C 291.410156 172.28125 291.652344 172.285156 291.894531 172.289062 C 292.019531 172.292969 292.144531 172.292969 292.269531 172.292969 C 298.21875 172.429688 304.820312 173.476562 311.664062 174.507812 C 332.78125 177.714844 356.3125 180.855469 370.300781 156.578125 C 383.101562 134.179688 385 111.179688 381 94.179688 C 384.699219 94.179688 389.300781 94.480469 394.5 95.378906 C 406.398438 82.878906 422 64.179688 431.699219 42.980469 L 447.601562 47.078125 C 444 61.378906 436.5 80.980469 421.199219 105.378906 C 445.699219 120.378906 469.601562 154.878906 467.101562 232.578125" fill="#eadaa0"/></g><g id="change4_1"><path d="M 122.5 118.679688 C 122.5 118.679688 122 73.78125 92.199219 118.679688 C 92.199219 118.679688 114.398438 94.480469 122.5 118.679688 Z M 66.300781 111.878906 C 66.300781 111.878906 66 82.179688 46.300781 111.878906 C 46.300781 111.878906 61 95.878906 66.300781 111.878906 Z M 64.800781 192.28125 C 64.800781 192.28125 60.101562 200.378906 44.398438 201.078125 C 44.398438 201.078125 33.800781 201.578125 26.101562 198.480469 C 26 198.480469 25.898438 198.480469 25.800781 198.480469 C 25.5 198.480469 25.199219 198.378906 24.898438 198.179688 C 24.398438 197.878906 23.898438 197.480469 23.398438 197.078125 C 15.898438 190.480469 16 176.179688 16.898438 167.980469 C 3.300781 171.179688 0.199219 157.578125 0.199219 157.578125 C -0.699219 143.378906 6.199219 142.28125 6.199219 142.28125 C 45.699219 142.28125 41.699219 160.480469 41.699219 160.480469 C 38 175.578125 21 166.679688 21 166.679688 C 20.800781 166.78125 20.699219 166.78125 20.5 166.878906 C 19.601562 173.980469 19.300781 189.179688 26 194.679688 C 26.300781 194.878906 26.601562 195.179688 26.898438 195.28125 C 27 195.28125 27 195.378906 27 195.378906 C 29 196.578125 34 198.878906 44.199219 198.378906 C 44.199219 198.378906 55.699219 197.78125 62.699219 189.878906 C 62.699219 189.878906 64 188.578125 65 189.878906 C 64.800781 189.980469 65.800781 191.179688 64.800781 192.28125" fill="#12100f"/></g><g id="change5_1"><path d="M 25.566406 197.414062 C 22.148438 199.640625 9.523438 206.992188 3.25 194.816406 C 2.917969 222.535156 13.300781 237.78125 13.300781 237.78125 C 21.101562 256.78125 51.101562 247.78125 51.101562 247.78125 C 69.917969 242.519531 74.792969 225.199219 75.316406 210.449219 C 56.855469 211.03125 37.65625 208.3125 25.566406 197.414062 Z M 31.667969 126.8125 C 40.46875 126.113281 60.765625 123.011719 71.667969 108.914062 C 71.667969 108.914062 77.003906 85.941406 93.570312 65.644531 C 93.558594 65.628906 93.546875 65.609375 93.535156 65.589844 C 76.996094 85.875 71.667969 108.8125 71.667969 108.8125 C 60.765625 122.914062 40.46875 126.011719 31.566406 126.714844 C 33.765625 125.3125 36.167969 123.914062 38.667969 122.414062 C 38.667969 122.414062 57.46875 91.714844 67.667969 74.714844 C 67.667969 74.714844 74.664062 67.238281 86.523438 60.335938 C 78.640625 57.90625 70.398438 64.078125 70.398438 64.078125 L 35.800781 106.679688 C 30.753906 114.226562 26.460938 121.488281 22.8125 128.460938 C 25.527344 127.285156 27.367188 127.011719 27.367188 127.011719 C 27.367188 127.011719 28.96875 127.011719 31.667969 126.8125 Z M 209.101562 112.78125 C 255.699219 199.980469 217.601562 245.378906 217.601562 245.378906 C 207.898438 263.578125 179 251.578125 179 251.578125 C 145.5 238.480469 163.101562 189.28125 163.101562 189.28125 C 174.5 159.378906 144.898438 79.480469 155.101562 66.980469 C 165.300781 54.480469 179 66.980469 179 66.980469 L 209.101562 112.78125" fill="#5f2c17"/></g></g></svg>