<?xml version="1.0" encoding="UTF-8"?><svg xmlns="http://www.w3.org/2000/svg" xmlns:xlink="http://www.w3.org/1999/xlink" height="378.4" preserveAspectRatio="xMidYMid meet" version="1.0" viewBox="0.0 -52.8 358.4 378.4" width="358.4" zoomAndPan="magnify"><defs><clipPath id="a"><path d="M 90 132 L 328.980469 132 L 328.980469 325.621094 L 90 325.621094 Z M 90 132"/></clipPath></defs><g><g id="change1_1"><path d="M 194.128906 293.457031 C 124.515625 305.832031 85.414062 284.597656 63.699219 253.324219 C 101.027344 235.070312 98.671875 180.40625 153.066406 147.007812 C 211.578125 111.078125 157.171875 40.246094 157.171875 40.246094 L 147.203125 31.347656 C 148.335938 31.769531 148.960938 32.035156 148.960938 32.035156 C 268.035156 -52.824219 315.941406 125.105469 315.941406 125.105469 C 358.371094 297.5625 194.128906 293.457031 194.128906 293.457031" fill="#e88621"/></g><g id="change2_1"><path d="M 222.1875 10.136719 C 222.1875 10.136719 289.9375 77.886719 291.988281 77.886719 C 294.042969 77.886719 312.519531 91.574219 317.992188 51.195312 L 322.101562 20.398438 C 322.101562 20.398438 300.199219 -2.183594 276.25 12.1875 C 276.25 12.1875 248.191406 -13.816406 222.1875 10.136719 Z M 63.699219 253.324219 C 27.773438 201.589844 39.464844 122.367188 39.464844 122.367188 C 39.464844 -4.269531 133.1875 26.097656 147.203125 31.347656 L 157.171875 40.246094 C 157.171875 40.246094 211.578125 111.078125 153.066406 147.007812 C 98.671875 180.40625 101.027344 235.070312 63.699219 253.324219" fill="#783f1a"/></g><g clip-path="url(#a)" id="change3_1"><path d="M 328.90625 248.5 C 331.375 329.507812 267.71875 277.402344 267.71875 277.402344 C 227.265625 341.003906 162.828125 303.25 162.828125 303.25 C 111.738281 360.792969 92.316406 289.152344 92.316406 289.152344 C 78.601562 200.683594 162.804688 151.785156 162.804688 151.785156 C 180.445312 117.101562 217.566406 140.355469 217.566406 140.355469 C 320.640625 147.992188 328.90625 248.5 328.90625 248.5" fill="#fdf2d4"/></g><g id="change4_1"><path d="M 275.402344 142.746094 C 255.746094 70.609375 224.863281 122.496094 224.863281 122.496094 C 261.761719 119.597656 275.402344 142.746094 275.402344 142.746094 Z M 140.746094 141.871094 C 140.746094 141.871094 91.472656 106.972656 102.765625 180.882812 C 102.765625 180.882812 105.84375 154.191406 140.746094 141.871094 Z M 291.035156 235.347656 C 289.886719 234.019531 287.878906 233.878906 286.554688 235.027344 C 258.703125 259.164062 213.003906 218.089844 207.375 212.832031 L 205.058594 205.308594 L 202.3125 193.097656 C 226.683594 185.363281 242.472656 185.132812 229.714844 173.011719 C 229.714844 173.011719 220.132812 152.480469 186.597656 162.746094 C 186.597656 162.746094 157.171875 168.21875 161.277344 195.59375 C 161.277344 195.59375 169.199219 204.152344 195.367188 195.414062 L 198.917969 206.941406 L 201.109375 216.691406 C 198.835938 224.050781 179.589844 282.410156 143.414062 275.285156 C 141.691406 274.945312 140.023438 276.066406 139.683594 277.789062 C 139.347656 279.507812 140.464844 281.179688 142.1875 281.515625 C 144.773438 282.027344 147.277344 282.265625 149.703125 282.265625 C 184.269531 282.265625 202.367188 233.484375 206.53125 220.648438 C 216.328125 229.222656 241.585938 249.046875 265.753906 249.046875 C 274.476562 249.046875 283.0625 246.460938 290.714844 239.824219 C 292.039062 238.675781 292.183594 236.671875 291.035156 235.347656 Z M 94.832031 26.078125 C 94.832031 26.078125 44.589844 107.664062 42.59375 108.140625 C 40.597656 108.613281 25.785156 126.207031 11.117188 88.191406 L 0 59.179688 C 0 59.179688 16.082031 32.144531 42.707031 40.585938 C 42.707031 40.585938 63.988281 8.792969 94.832031 26.078125" fill="#181211"/></g></g></svg>