<?xml version="1.0" encoding="UTF-8"?><svg xmlns="http://www.w3.org/2000/svg" xmlns:xlink="http://www.w3.org/1999/xlink" height="492.1" preserveAspectRatio="xMidYMid meet" version="1.0" viewBox="0.0 0.0 315.5 492.1" width="315.5" zoomAndPan="magnify"><defs><clipPath id="a"><path d="M 0 379 L 315.488281 379 L 315.488281 477 L 0 477 Z M 0 379"/></clipPath><clipPath id="b"><path d="M 28 0 L 299 0 L 299 492.148438 L 28 492.148438 Z M 28 0"/></clipPath></defs><g><g clip-path="url(#a)" id="change1_1"><path d="M 265.824219 451.636719 C 267.9375 441.359375 280.699219 435.300781 294.335938 438.101562 C 307.964844 440.90625 317.304688 451.511719 315.191406 461.789062 C 313.078125 472.066406 300.3125 478.125 286.679688 475.324219 C 273.046875 472.519531 263.710938 461.914062 265.824219 451.636719 Z M 87.996094 379.003906 C 87.996094 379.003906 41.097656 381.902344 49.699219 450.902344 C 49.699219 450.902344 -38.402344 403.003906 19.996094 469.101562 C 19.996094 469.101562 53.496094 487.300781 121.597656 458.601562 L 87.996094 379.003906" fill="#392923"/></g><g clip-path="url(#b)" id="change2_1"><path d="M 119.996094 66.800781 C 113.695312 67.402344 106.695312 68.601562 99.496094 70.503906 C 94.496094 56.203125 75.996094 0.00390625 75.996094 0.00390625 C 75.996094 0.00390625 42.296875 28.300781 54.996094 99.203125 C 47.796875 108.902344 42.597656 121.300781 40.496094 137.300781 L 40.496094 162.503906 C 40.496094 162.503906 14.699219 202.902344 39.796875 228.800781 C 35.597656 167.003906 68.597656 169.203125 68.597656 169.203125 L 78.898438 125.703125 C 77.296875 98.902344 100.597656 78.800781 119.996094 66.800781 Z M 197.796875 149.601562 C 200.292969 173.96875 193.910156 190.21875 184.835938 201.039062 C 169.179688 219.710938 145.496094 222.203125 145.496094 222.203125 C 145.398438 222.300781 145.398438 222.300781 145.296875 222.402344 C 146.382812 219.898438 147.308594 217.234375 148.070312 214.398438 C 148.925781 211.230469 149.574219 207.84375 149.996094 204.203125 C 149.996094 204.203125 158.695312 184.101562 119.695312 186.203125 C 119.695312 186.203125 110.695312 172.703125 102.898438 170.601562 L 107.398438 125.902344 C 107.398438 125.902344 117.097656 87.503906 132.496094 66.203125 C 140.496094 66.101562 145.597656 66.703125 145.597656 66.703125 C 147.097656 66.902344 148.398438 67.203125 149.796875 67.503906 C 159.996094 48.800781 185.195312 6.203125 196.796875 1.402344 C 196.796875 1.402344 233.597656 81.402344 194.296875 119.300781 C 198.296875 135.800781 197.898438 149.703125 197.796875 149.601562 Z M 298.296875 423.800781 C 303.898438 385.601562 223.296875 262.902344 218.996094 256.402344 C 225.195312 244.300781 212.195312 217.800781 186.898438 224.402344 L 175.398438 226.503906 L 173.195312 226.402344 C 122.996094 231.003906 49.496094 237.902344 49.199219 239.703125 C 34.296875 322.703125 57.597656 408.003906 80.097656 436.800781 L 82.496094 459.003906 C 61.496094 455.101562 62.199219 476.703125 62.199219 476.703125 L 105.496094 476.703125 C 105.496094 476.703125 106.898438 472.101562 109.097656 464.703125 C 111.296875 466.203125 112.496094 466.902344 112.496094 466.902344 L 121.296875 467.101562 C 109.898438 471.101562 110.398438 486 110.398438 486 L 157.796875 486 C 157.796875 486 159.195312 481.503906 161.296875 474.203125 C 211.398438 504.800781 257.097656 487 257.097656 487 C 306.898438 479.402344 298.296875 423.800781 298.296875 423.800781" fill="#685647"/></g><g id="change3_1"><path d="M 191.496094 223.503906 C 163.597656 252.902344 135.898438 254.902344 135.898438 254.902344 C 127.867188 256.964844 120.507812 258.527344 113.753906 259.6875 C 93.417969 263.171875 78.652344 262.9375 68.195312 261.339844 C 51.671875 258.816406 45.898438 252.902344 45.898438 252.902344 L 48.664062 236.128906 C 52.890625 238.804688 57.925781 241.21875 63.898438 243.300781 C 63.898438 243.300781 113.597656 258.003906 145.496094 222.601562 C 145.558594 222.464844 145.609375 222.320312 145.671875 222.183594 C 147.738281 221.925781 169.921875 218.824219 184.835938 201.039062 L 191.496094 223.503906" fill="#ee2446"/></g><g id="change4_1"><path d="M 119.796875 186.203125 C 119.796875 186.203125 110.796875 172.703125 102.996094 170.601562 L 107.496094 125.902344 C 107.496094 125.902344 117.195312 87.503906 132.597656 66.203125 C 128.898438 66.203125 124.695312 66.402344 120.097656 66.902344 C 100.695312 78.902344 77.398438 99.003906 78.898438 125.902344 L 68.597656 169.402344 C 68.597656 169.402344 35.597656 167.101562 39.796875 229.003906 C 42.238281 231.535156 45.175781 233.921875 48.664062 236.128906 C 52.890625 238.804688 57.925781 241.21875 63.898438 243.300781 C 63.898438 243.300781 113.597656 258.003906 145.496094 222.601562 C 145.558594 222.464844 145.609375 222.320312 145.671875 222.183594 C 147.875 216.980469 149.417969 211.023438 150.195312 204.402344 C 150.097656 204.203125 158.796875 184.101562 119.796875 186.203125 Z M 113.753906 259.6875 C 98.105469 304.757812 120.496094 419.601562 120.496094 419.601562 L 104.195312 403.902344 C 70.011719 364.589844 68.960938 285.355469 68.195312 261.339844 C 78.652344 262.9375 93.417969 263.171875 113.753906 259.6875" fill="#f4e0d6"/></g><g id="change5_1"><path d="M 124.496094 221.300781 C 123.898438 220.503906 122.695312 220.402344 121.996094 221.003906 C 103.695312 236.003906 78.699219 214.402344 74.699219 210.800781 L 74.699219 193.003906 C 79.296875 192.503906 91.398438 190.101562 91.398438 177.402344 C 91.398438 177.402344 77.996094 163.300781 59.996094 177.402344 C 59.996094 177.402344 59.296875 191.300781 71.199219 192.902344 L 71.199219 210.601562 C 67.996094 215.003906 59.296875 225.003906 51.796875 224.601562 C 48.296875 224.402344 45.296875 222.003906 42.796875 217.300781 C 42.296875 216.402344 41.199219 216.101562 40.398438 216.601562 C 39.496094 217.101562 39.199219 218.203125 39.699219 219.003906 C 42.796875 224.800781 46.898438 227.902344 51.699219 228.101562 C 51.898438 228.101562 52.097656 228.101562 52.296875 228.101562 C 61.199219 228.101562 69.796875 218.203125 73.097656 214.003906 C 77.496094 217.902344 92.199219 229.800781 107.496094 229.800781 C 113.195312 229.800781 118.996094 228.101562 124.398438 223.703125 C 124.996094 223.203125 125.097656 222.101562 124.496094 221.300781 Z M 137.496094 142.800781 C 141.308594 142.800781 144.398438 148.085938 144.398438 154.601562 C 144.398438 161.117188 141.308594 166.402344 137.496094 166.402344 C 133.6875 166.402344 130.597656 161.117188 130.597656 154.601562 C 130.597656 148.085938 133.6875 142.800781 137.496094 142.800781 Z M 61.699219 140.902344 C 65.507812 140.902344 68.597656 146.183594 68.597656 152.703125 C 68.597656 159.21875 65.507812 164.503906 61.699219 164.503906 C 57.886719 164.503906 54.796875 159.21875 54.796875 152.703125 C 54.796875 146.183594 57.886719 140.902344 61.699219 140.902344 Z M 115.898438 387.503906 C 115.996094 387.503906 116.296875 388.601562 116.695312 390.601562 C 117.097656 392.601562 117.695312 395.503906 118.296875 399.101562 C 119.597656 406.300781 121.097656 416.300781 122.597656 427.402344 C 123.296875 432.902344 123.996094 438.203125 124.496094 443.003906 C 124.796875 445.402344 124.996094 447.703125 125.195312 449.800781 C 125.398438 451.902344 125.695312 453.902344 125.695312 455.800781 C 125.796875 457.703125 125.597656 459.402344 125.296875 460.800781 C 124.996094 462.300781 124.398438 463.503906 123.796875 464.300781 C 123.195312 465.203125 122.496094 465.601562 121.996094 465.902344 C 121.496094 466.101562 121.195312 466.300781 121.195312 466.203125 C 121.097656 466.101562 122.296875 465.703125 123.296875 464.003906 C 123.796875 463.203125 124.296875 462.003906 124.496094 460.601562 C 124.695312 459.203125 124.796875 457.601562 124.695312 455.800781 C 124.597656 454.003906 124.296875 452.003906 123.996094 449.902344 C 123.695312 447.800781 123.398438 445.503906 123.097656 443.101562 C 122.496094 438.300781 121.796875 433.003906 121.097656 427.503906 C 119.597656 416.402344 118.195312 406.402344 117.195312 399.203125 C 116.695312 395.601562 116.296875 392.601562 115.996094 390.601562 C 115.898438 388.703125 115.796875 387.503906 115.898438 387.503906 Z M 75.398438 398.503906 C 75.398438 398.503906 75.199219 398.402344 74.796875 398.003906 L 75.097656 397.800781 C 75.296875 398.402344 75.699219 399.300781 76.097656 400.601562 C 76.296875 401.300781 76.496094 402.003906 76.699219 402.800781 C 76.898438 403.601562 77.097656 404.503906 77.296875 405.503906 C 78.097656 409.402344 78.398438 414.300781 78.699219 419.703125 C 78.796875 422.902344 78.996094 425.902344 79.199219 428.601562 C 79.398438 431.300781 79.597656 433.800781 79.996094 435.800781 C 80.597656 439.902344 81.296875 442.300781 81.097656 442.402344 C 80.996094 442.402344 79.898438 440.101562 79.097656 436.003906 C 78.597656 434.003906 78.296875 431.503906 77.996094 428.703125 C 77.796875 426.003906 77.597656 422.902344 77.398438 419.800781 C 77.199219 414.402344 76.898438 409.503906 76.296875 405.703125 C 76.097656 404.703125 75.996094 403.800781 75.898438 403.003906 C 75.699219 402.203125 75.597656 401.402344 75.496094 400.800781 C 75.199219 399.503906 74.898438 398.503906 74.796875 397.902344 L 74.699219 397.203125 L 75.097656 397.800781 C 75.296875 398.203125 75.398438 398.503906 75.398438 398.503906 Z M 162.695312 456.703125 C 162.597656 456.703125 162.898438 455.601562 163.398438 453.601562 C 163.695312 452.601562 163.996094 451.402344 164.296875 450.003906 C 164.597656 448.601562 164.996094 447.003906 165.398438 445.300781 C 166.195312 441.800781 167.097656 437.601562 167.996094 432.902344 C 168.898438 428.203125 169.796875 423.003906 170.796875 417.601562 C 171.796875 412.203125 172.796875 407.003906 173.796875 402.300781 C 174.898438 397.601562 175.898438 393.402344 176.898438 390.003906 C 177.398438 388.300781 177.898438 386.703125 178.296875 385.300781 C 178.695312 383.902344 179.097656 382.800781 179.496094 381.800781 C 180.195312 379.902344 180.695312 378.902344 180.695312 378.902344 C 180.796875 378.902344 180.496094 380.003906 179.898438 382.003906 C 179.597656 383.003906 179.296875 384.101562 178.898438 385.503906 C 178.496094 386.902344 178.097656 388.402344 177.695312 390.203125 C 176.796875 393.703125 175.898438 397.902344 174.898438 402.503906 C 173.898438 407.203125 172.996094 412.300781 171.996094 417.800781 C 170.996094 423.203125 169.996094 428.402344 169.097656 433.101562 C 168.097656 437.800781 167.195312 442.003906 166.296875 445.503906 C 165.898438 447.300781 165.398438 448.800781 164.996094 450.203125 C 164.597656 451.601562 164.195312 452.800781 163.898438 453.703125 C 163.195312 455.703125 162.796875 456.703125 162.695312 456.703125 Z M 161.695312 474.800781 C 161.695312 474.800781 161.195312 474.402344 160.398438 473.402344 C 159.597656 472.402344 158.496094 471.003906 157.097656 469.101562 C 155.695312 467.203125 154.097656 464.800781 152.398438 461.902344 C 151.996094 461.203125 151.496094 460.402344 151.195312 459.503906 C 150.898438 458.601562 150.597656 457.703125 150.695312 456.601562 C 150.695312 456.101562 150.796875 455.503906 151.097656 455.003906 C 151.296875 454.503906 151.695312 454.101562 152.195312 453.703125 C 153.195312 453.003906 154.398438 453.003906 155.496094 453.203125 C 156.597656 453.402344 157.597656 453.800781 158.695312 454.203125 C 159.695312 454.601562 160.796875 455.003906 161.796875 455.503906 C 163.898438 456.503906 165.996094 457.703125 167.996094 459.203125 C 170.097656 460.601562 171.996094 462.300781 173.898438 464.203125 C 174.195312 464.503906 174.496094 464.800781 174.796875 465.101562 C 174.898438 465.203125 174.898438 465.101562 174.898438 465.003906 C 174.996094 463.703125 174.996094 462.503906 175.097656 461.203125 C 175.296875 455.601562 175.597656 449.800781 175.898438 443.800781 C 176.195312 437.800781 176.296875 431.503906 177.097656 425.003906 C 177.496094 421.800781 178.195312 418.601562 179.195312 415.601562 C 180.195312 412.601562 181.597656 409.703125 183.496094 407.203125 C 185.398438 404.703125 187.796875 402.703125 190.398438 401.203125 C 192.996094 399.703125 195.796875 398.800781 198.597656 398.203125 C 204.195312 397.101562 209.597656 397.300781 214.496094 397.902344 C 219.398438 398.503906 223.996094 399.703125 227.996094 401.101562 C 235.996094 403.902344 241.796875 407.800781 245.398438 410.902344 C 246.296875 411.703125 247.097656 412.402344 247.695312 413.003906 C 248.296875 413.601562 248.898438 414.203125 249.296875 414.703125 C 250.097656 415.601562 250.496094 416.101562 250.496094 416.203125 C 250.496094 416.203125 249.996094 415.800781 249.097656 414.902344 C 248.695312 414.503906 248.097656 413.902344 247.398438 413.300781 C 246.695312 412.703125 245.898438 412.003906 244.996094 411.300781 C 241.398438 408.402344 235.597656 404.601562 227.597656 402.003906 C 223.597656 400.703125 219.195312 399.601562 214.296875 399.003906 C 209.398438 398.402344 204.097656 398.300781 198.796875 399.402344 C 196.097656 400.003906 193.496094 400.902344 190.996094 402.300781 C 188.496094 403.703125 186.296875 405.601562 184.496094 408.003906 C 180.898438 412.703125 179.195312 418.902344 178.398438 425.101562 C 177.597656 431.402344 177.496094 437.703125 177.195312 443.703125 C 176.898438 449.703125 176.597656 455.601562 176.296875 461.101562 C 176.195312 462.601562 176.195312 464.003906 176.097656 465.503906 C 176.097656 466.101562 175.996094 466.800781 175.996094 467.402344 L 175.996094 467.902344 C 175.898438 467.800781 175.796875 467.703125 175.695312 467.601562 L 175.097656 466.902344 L 174.496094 466.203125 L 174.195312 465.800781 L 173.296875 464.902344 C 171.496094 463.003906 169.597656 461.402344 167.597656 460.003906 C 165.597656 458.601562 163.597656 457.402344 161.496094 456.402344 C 160.496094 455.902344 159.496094 455.503906 158.496094 455.003906 C 157.496094 454.601562 156.496094 454.203125 155.496094 454.003906 C 154.496094 453.800781 153.597656 453.902344 152.796875 454.300781 C 152.398438 454.503906 152.195312 454.902344 151.996094 455.203125 C 151.796875 455.601562 151.695312 456.003906 151.695312 456.402344 C 151.695312 457.300781 151.898438 458.101562 152.097656 459.003906 C 152.398438 459.800781 152.796875 460.601562 153.195312 461.300781 C 154.796875 464.203125 156.398438 466.601562 157.695312 468.601562 C 158.996094 470.503906 160.097656 472.003906 160.796875 473.003906 C 161.296875 474.300781 161.695312 474.800781 161.695312 474.800781 Z M 108.996094 419.601562 C 109.097656 419.601562 109.296875 420.402344 109.695312 421.800781 C 110.097656 423.203125 110.496094 425.300781 110.996094 428.003906 C 111.996094 433.203125 112.996094 440.601562 112.796875 448.703125 C 112.695312 456.902344 110.898438 464.203125 108.796875 469.101562 C 108.296875 470.402344 107.796875 471.402344 107.398438 472.402344 C 106.996094 473.402344 106.597656 474.203125 106.398438 474.902344 C 105.996094 476.300781 105.898438 477.101562 105.796875 477.101562 C 105.695312 477.101562 105.597656 476.300781 105.898438 474.800781 C 106.097656 474.101562 106.296875 473.203125 106.695312 472.203125 C 107.097656 471.203125 107.496094 470.101562 107.898438 468.902344 C 109.695312 464.003906 111.296875 456.800781 111.398438 448.800781 C 111.597656 440.800781 110.695312 433.503906 109.898438 428.300781 C 109.296875 422.902344 108.796875 419.601562 108.996094 419.601562" fill="#563e32"/></g><g id="change6_1"><path d="M 88.796875 74.101562 C 88.796875 74.101562 72.398438 84.003906 65.296875 93.800781 C 65.296875 93.800781 56.398438 44.503906 71.597656 26.203125 C 71.597656 26.101562 76.796875 23.003906 88.796875 74.101562 Z M 189.898438 109.503906 C 189.898438 109.503906 179.996094 79.503906 160.796875 71.902344 L 193.496094 18.601562 C 193.496094 18.503906 217.195312 74.503906 189.898438 109.503906" fill="#fab9c8"/></g></g></svg>