<?xml version="1.0" encoding="UTF-8"?><svg xmlns="http://www.w3.org/2000/svg" xmlns:xlink="http://www.w3.org/1999/xlink" height="355.3" preserveAspectRatio="xMidYMid meet" version="1.0" viewBox="0.0 -3.1 453.1 355.3" width="453.1" zoomAndPan="magnify"><defs><clipPath id="a"><path d="M 0 0 L 453.078125 0 L 453.078125 352.191406 L 0 352.191406 Z M 0 0"/></clipPath></defs><g><g id="change1_1"><path d="M 382.960938 317.464844 C 382.589844 309.359375 379.207031 301.703125 375.339844 294.574219 C 363.5625 272.882812 343.824219 252.597656 319.164062 251.574219 C 301.578125 250.851562 285.210938 260.042969 270.621094 269.890625 C 265.605469 273.277344 260.019531 279.089844 262.847656 284.441406 L 265.140625 282.628906 C 268.367188 291.507812 276.523438 297.914062 285.414062 301.105469 C 294.304688 304.296875 303.9375 304.679688 313.382812 304.597656 C 327.023438 304.476562 342.027344 303.878906 352.671875 312.414062 C 357.476562 316.269531 360.988281 322.070312 360.972656 328.234375 C 360.96875 331.628906 360.015625 335.414062 362.035156 338.144531 C 364.507812 341.488281 369.835938 340.855469 373.339844 338.609375 C 380.171875 334.234375 383.335938 325.566406 382.960938 317.464844 Z M 188.546875 252.339844 C 192.070312 256.78125 195.046875 262.148438 194.605469 267.804688 C 193.894531 276.910156 185.039062 282.863281 177.121094 287.417969 C 167.132812 293.15625 157.140625 298.898438 147.152344 304.636719 C 137.929688 309.9375 128.585938 315.289062 118.332031 318.128906 C 108.078125 320.964844 96.65625 321.0625 87.242188 316.105469 C 84.414062 314.617188 81.472656 311.863281 82.257812 308.765625 C 83.007812 305.820312 86.523438 304.730469 89.472656 303.996094 C 119.648438 296.503906 145.792969 274.273438 158.046875 245.695312 L 156.257812 246.808594 C 159.691406 241.398438 167.117188 239.523438 173.3125 241.171875 C 179.503906 242.816406 184.566406 247.316406 188.546875 252.339844" fill="#dbddbf"/></g><g clip-path="url(#a)" id="change2_1"><path d="M 453.078125 301.839844 C 453.019531 303.484375 452.203125 305.003906 451.308594 306.386719 C 448.550781 310.667969 444.851562 314.335938 440.554688 317.0625 C 436.195312 319.828125 429.667969 321.253906 426.449219 317.21875 C 423.722656 313.796875 425.230469 308.800781 424.683594 304.460938 C 424.035156 299.289062 420.382812 295.027344 416.5625 291.480469 C 410.804688 286.128906 404.269531 281.613281 397.238281 278.089844 C 396.628906 278.457031 395.96875 278.765625 395.316406 279.046875 C 382.523438 284.554688 367.949219 285.835938 354.394531 282.640625 C 352.277344 282.140625 350.089844 281.53125 347.96875 282.003906 C 345.667969 282.515625 343.84375 284.199219 341.996094 285.660156 C 331.714844 293.789062 318.101562 296.15625 305.054688 297.355469 C 282.636719 299.417969 259.972656 298.8125 237.695312 295.5625 C 236.59375 295.402344 235.453125 295.199219 234.324219 294.933594 C 234.066406 295.625 233.796875 296.308594 233.511719 296.988281 C 223.503906 320.878906 199.183594 334.996094 176.449219 347.410156 C 173.621094 348.957031 170.761719 350.515625 167.644531 351.339844 C 164.46875 352.183594 161.140625 352.230469 157.855469 352.171875 C 148.492188 352.011719 139.144531 351.035156 129.949219 349.257812 C 132.871094 339.480469 140.988281 331.417969 150.785156 328.566406 C 155.347656 327.234375 160.238281 326.953125 164.539062 324.9375 C 168.738281 322.964844 172.015625 319.5 175.1875 316.113281 C 182.453125 308.363281 189.71875 300.613281 196.980469 292.867188 C 198.519531 291.222656 200.183594 289.097656 199.488281 286.957031 C 198.941406 285.273438 197.160156 284.375 195.5625 283.613281 C 181.714844 277.023438 169.304688 267.421875 159.441406 255.675781 C 153.050781 248.0625 147.75 239.605469 142.472656 231.179688 C 138.761719 225.257812 134.992188 219.089844 131.976562 212.703125 C 131.585938 212.402344 131.386719 212.226562 131.386719 212.226562 L 131.21875 211.046875 C 127.441406 202.617188 125.085938 193.816406 126.003906 184.691406 L 127.367188 184.289062 L 126.636719 179.191406 C 107.53125 190.660156 89.582031 178.792969 89.582031 178.792969 C 95.375 188.980469 89.929688 193.570312 89.929688 193.570312 C 81.152344 203.574219 54.671875 182.28125 54.671875 182.28125 C 58.199219 198.296875 47.839844 196.703125 47.839844 196.703125 C -4.453125 169.636719 0.101562 114.066406 0.101562 114.066406 C -2.421875 92.347656 91.570312 51.46875 91.570312 51.46875 C 93.386719 50.304688 95.214844 49.257812 97.058594 48.316406 L 102.777344 37.984375 C 87.328125 33.796875 82.855469 29.617188 82.855469 29.617188 C 92.785156 -3.726562 119.949219 0.140625 119.949219 0.140625 C 132.542969 1.1875 129.992188 29.417969 128.359375 41.257812 C 129.207031 41.269531 130.046875 41.292969 130.882812 41.328125 C 118.210938 50.726562 93.03125 72.863281 111.589844 88.992188 C 111.589844 88.992188 130.5625 109.191406 156.523438 108.316406 C 182.484375 107.441406 186.859375 135.378906 186.859375 135.378906 C 186.859375 135.378906 192.390625 156.496094 212.503906 160.449219 C 212.765625 166.371094 212.890625 171.914062 212.917969 176.878906 C 214.914062 180.742188 218.375 183.769531 222.4375 185.792969 C 222.15625 188.613281 222.183594 191.449219 222.671875 194.289062 C 224.476562 204.851562 235.242188 214.570312 245.382812 211.101562 C 251.640625 208.957031 255.894531 202.570312 262.328125 201.011719 C 268.265625 199.570312 274.234375 202.613281 279.933594 204.820312 C 286.847656 207.496094 294.378906 209.023438 301.714844 207.917969 C 312.15625 206.339844 321.234375 199.527344 327.753906 191.214844 C 331.890625 185.933594 335.136719 180.058594 338.039062 173.992188 C 341.074219 174.191406 344.09375 174.585938 347.046875 175.3125 C 354.878906 177.238281 362.070312 181.558594 367.574219 187.441406 C 369.699219 189.714844 371.578125 192.210938 373.136719 194.902344 C 374.832031 197.84375 376.144531 200.992188 377.066406 204.257812 C 379.183594 211.738281 379.242188 219.816406 377.082031 227.289062 C 386.78125 228.566406 396.117188 232.480469 403.828125 238.503906 C 403.796875 238.792969 403.765625 239.085938 403.734375 239.375 C 408.105469 241.003906 412.28125 244.277344 415.675781 247.574219 C 430.371094 261.84375 442.597656 278.648438 451.648438 297.027344 C 452.398438 298.542969 453.140625 300.148438 453.078125 301.839844" fill="#fbfce4"/></g><g id="change3_1"><path d="M 126.226562 179.0625 C 126.933594 179.054688 127.820312 179.003906 128.851562 178.738281 C 129.363281 178.59375 129.914062 178.402344 130.46875 178.078125 C 131.015625 177.75 131.566406 177.28125 131.972656 176.644531 C 132.371094 176.015625 132.652344 175.226562 132.65625 174.394531 C 132.679688 173.5625 132.472656 172.734375 132.164062 171.953125 C 131.851562 171.171875 131.429688 170.417969 130.941406 169.710938 C 130.46875 168.992188 129.921875 168.289062 129.335938 167.585938 C 126.964844 164.796875 123.582031 162.199219 119.351562 160.652344 L 118.761719 162.65625 C 121.773438 163.398438 125.195312 163.851562 128.726562 163.0625 C 129.605469 162.863281 130.480469 162.582031 131.328125 162.207031 C 132.1875 161.816406 133.003906 161.316406 133.753906 160.730469 C 135.257812 159.558594 136.503906 157.988281 137.261719 156.128906 C 137.808594 154.769531 138.054688 153.257812 137.859375 151.78125 C 137.691406 150.300781 137.109375 148.984375 136.449219 147.824219 C 135.109375 145.523438 133.308594 143.605469 131.308594 142.136719 C 129.300781 140.671875 127.097656 139.628906 124.875 139.039062 C 124.597656 138.96875 124.324219 138.878906 124.046875 138.828125 L 123.691406 138.757812 L 123.640625 138.753906 L 123.414062 138.742188 C 123.328125 138.738281 123.230469 138.738281 123.125 138.746094 L 123.046875 138.746094 L 123.007812 138.75 L 123.027344 138.742188 L 123.109375 138.714844 C 123.207031 138.675781 123.320312 138.613281 123.441406 138.523438 C 123.585938 138.414062 123.726562 138.308594 123.863281 138.203125 C 124.183594 137.953125 124.484375 137.695312 124.765625 137.421875 C 125.910156 136.335938 126.730469 135.03125 127.199219 133.703125 C 127.667969 132.371094 127.761719 130.980469 127.476562 129.765625 C 127.21875 128.550781 126.484375 127.503906 125.683594 126.898438 C 124.0625 125.621094 122.300781 125.589844 121.308594 125.929688 C 120.292969 126.296875 119.992188 126.824219 120.042969 126.863281 C 120.113281 126.964844 120.542969 126.617188 121.441406 126.476562 C 122.3125 126.347656 123.765625 126.566406 124.980469 127.71875 C 125.589844 128.285156 126.042969 129.042969 126.191406 130.023438 C 126.351562 130.988281 126.21875 132.085938 125.773438 133.164062 C 125.328125 134.242188 124.601562 135.296875 123.601562 136.164062 C 123.355469 136.386719 123.089844 136.59375 122.8125 136.792969 L 122.582031 136.953125 L 122.207031 137.195312 C 122.089844 137.277344 121.910156 137.363281 121.765625 137.449219 C 121.613281 137.535156 121.453125 137.621094 121.265625 137.699219 C 121.078125 137.777344 120.929688 137.863281 120.710938 137.941406 L 120.003906 138.179688 C 119.902344 138.214844 119.726562 138.261719 119.558594 138.304688 L 119.0625 138.433594 L 117.953125 138.71875 C 116.050781 139.199219 114.121094 139.6875 112.171875 140.179688 L 113.152344 140.214844 L 113.511719 140.230469 L 113.683594 140.242188 L 113.851562 140.253906 L 114.253906 140.261719 L 115.082031 140.273438 C 116.320312 140.296875 117.574219 140.316406 118.84375 140.339844 C 119.578125 140.339844 120.082031 140.394531 120.675781 140.429688 L 121.554688 140.488281 C 121.847656 140.507812 122.15625 140.519531 122.394531 140.566406 C 122.652344 140.601562 122.902344 140.652344 123.144531 140.710938 L 123.578125 140.808594 C 123.828125 140.859375 124.070312 140.945312 124.316406 141.015625 C 126.285156 141.589844 128.238281 142.5625 130.003906 143.890625 C 131.765625 145.21875 133.332031 146.933594 134.484375 148.945312 C 135.046875 149.945312 135.484375 150.996094 135.59375 152.058594 C 135.730469 153.117188 135.554688 154.226562 135.132812 155.273438 C 134.550781 156.707031 133.558594 157.992188 132.339844 158.941406 C 131.734375 159.421875 131.082031 159.828125 130.398438 160.144531 C 129.695312 160.460938 128.964844 160.703125 128.21875 160.882812 C 125.21875 161.589844 122.089844 161.261719 119.246094 160.621094 L 118.65625 162.628906 C 122.539062 163.957031 125.730469 166.246094 128.027344 168.742188 C 129.15625 170.003906 130.183594 171.292969 130.769531 172.550781 C 131.367188 173.8125 131.433594 175.0625 130.890625 175.996094 C 130.390625 176.941406 129.421875 177.476562 128.554688 177.808594 C 127.664062 178.132812 126.84375 178.285156 126.171875 178.394531 C 124.824219 178.601562 124.066406 178.648438 124.066406 178.777344 C 124.0625 178.882812 124.804688 179.0625 126.226562 179.0625 Z M 222.671875 194.289062 C 224.476562 204.851562 235.242188 214.570312 245.382812 211.101562 C 251.640625 208.957031 255.894531 202.570312 262.328125 201.011719 C 268.265625 199.570312 274.234375 202.613281 279.933594 204.820312 C 286.847656 207.496094 294.378906 209.023438 301.714844 207.917969 C 312.15625 206.339844 321.234375 199.527344 327.753906 191.214844 C 331.890625 185.933594 335.136719 180.058594 338.039062 173.992188 C 334.542969 173.761719 331.015625 173.789062 327.515625 173.890625 C 304.664062 174.546875 281.898438 177.957031 259.859375 184.015625 C 250.886719 186.480469 241.757812 189.417969 232.484375 188.617188 C 229.050781 188.320312 225.566406 187.351562 222.4375 185.792969 C 222.15625 188.613281 222.183594 191.449219 222.671875 194.289062 Z M 188.808594 64.367188 C 189.777344 59.242188 200.21875 2.023438 184.980469 0.753906 C 184.980469 0.753906 157.816406 -3.113281 147.886719 30.230469 C 147.886719 30.230469 152.355469 34.410156 167.808594 38.597656 L 162.382812 48.398438 C 154.167969 45.148438 143.078125 41.867188 130.882812 41.328125 C 118.210938 50.726562 93.03125 72.863281 111.589844 88.992188 C 111.589844 88.992188 130.5625 109.191406 156.523438 108.316406 C 178.238281 107.585938 184.851562 127.007812 186.433594 133.382812 C 186.742188 134.628906 186.859375 135.378906 186.859375 135.378906 C 186.859375 135.378906 192.390625 156.496094 212.503906 160.449219 C 211.0625 127.933594 205.445312 84.183594 188.808594 64.367188 Z M 373.136719 194.902344 C 371.578125 192.210938 369.699219 189.714844 367.574219 187.441406 C 381.503906 183.265625 394.265625 174.917969 404.011719 164.046875 C 418.199219 148.214844 426.253906 127.445312 428.640625 106.320312 C 433.285156 107.851562 436.453125 112.96875 435.753906 117.808594 C 438.175781 112.757812 441.699219 108.238281 446.003906 104.65625 C 448.273438 114.21875 446.554688 124.664062 441.34375 132.992188 C 443.46875 132.148438 445.59375 131.300781 447.714844 130.449219 C 448.203125 135.773438 445.6875 141.269531 441.339844 144.375 C 444.886719 142.089844 450.097656 144.980469 451.074219 149.082031 C 452.054688 153.1875 449.703125 157.503906 446.367188 160.085938 C 443.03125 162.671875 438.863281 163.878906 434.808594 165.03125 C 439.4375 166.003906 443.679688 168.722656 446.492188 172.519531 C 439.679688 177.714844 431.773438 181.46875 423.441406 183.46875 C 426.152344 183.945312 428.570312 185.851562 429.671875 188.371094 C 421.785156 194.179688 411.949219 197.289062 402.160156 197.078125 C 404.035156 197.5 405.761719 198.566406 406.976562 200.058594 C 403.242188 204.019531 397.199219 204.503906 391.753906 204.554688 C 386.855469 204.601562 381.960938 204.496094 377.066406 204.257812 C 376.144531 200.992188 374.832031 197.84375 373.136719 194.902344" fill="#b08150"/></g><g id="change4_1"><path d="M 53.058594 181.101562 C 51.660156 180.238281 49.621094 179.03125 47.246094 177.351562 C 44.859375 175.6875 42.167969 173.5 39.164062 171.015625 C 36.128906 168.570312 32.960938 165.824219 29.992188 162.539062 C 28.511719 160.902344 27.144531 159.230469 25.882812 157.5625 C 24.648438 155.945312 23.675781 154.242188 22.898438 152.527344 C 21.34375 149.09375 20.523438 145.722656 19.957031 142.878906 C 19.660156 141.332031 19.441406 139.941406 19.261719 138.722656 C 22.277344 137.617188 39.855469 130.523438 40.367188 115.25 C 40.367188 115.25 18.296875 100.253906 4.230469 111.703125 C 4.230469 111.703125 2.40625 127.78125 17.996094 138.335938 C 18.035156 139.691406 18.140625 141.304688 18.355469 143.128906 C 18.734375 146.089844 19.410156 149.644531 20.964844 153.375 C 21.738281 155.230469 22.769531 157.128906 24.082031 158.90625 C 25.355469 160.640625 26.757812 162.382812 28.296875 164.078125 C 31.363281 167.476562 34.742188 170.316406 37.847656 172.664062 C 40.921875 175.0625 43.792969 177.171875 46.359375 178.707031 C 48.917969 180.257812 51.117188 181.269531 52.65625 181.898438 C 54.199219 182.523438 55.097656 182.753906 55.160156 182.617188 C 55.230469 182.46875 54.460938 181.964844 53.058594 181.101562 Z M 93.441406 55.699219 C 89.050781 53.988281 83.324219 58.179688 80.648438 65.054688 C 77.972656 71.925781 79.359375 78.886719 83.746094 80.59375 C 88.136719 82.300781 93.863281 78.113281 96.539062 71.238281 C 99.214844 64.363281 97.828125 57.40625 93.441406 55.699219 Z M 144.140625 82.148438 C 141.296875 89.460938 134.71875 93.726562 129.453125 91.679688 C 124.1875 89.628906 122.226562 82.035156 125.074219 74.722656 C 127.921875 67.410156 134.496094 63.140625 139.765625 65.191406 C 145.027344 67.242188 146.988281 74.832031 144.140625 82.148438" fill="#2b1814"/></g><g id="change3_2"><path d="M 228.640625 164.613281 C 228.742188 164.59375 228.84375 164.574219 228.941406 164.550781 C 229.117188 164.152344 229.289062 163.75 229.460938 163.351562 L 228.640625 164.613281" fill="#b08150"/></g></g></svg>