<?xml version="1.0" encoding="UTF-8"?><svg xmlns="http://www.w3.org/2000/svg" height="471.35pt" version="1.1" viewBox="0 0 482.45 471.35" width="482.45pt">
 <g id="surface1">
  <g id="change1_1"><path d="m316.25 471.35c44.18-3.19 122.13-34.36 56.57-149.16-62.07-108.7-114.94-116.17-114.94-116.17-10.91-3.8-23.36 0-23.36 0s-41.41 4.72-114.94 116.17c-77.123 116.9 17.06 142.94 62.02 148.17 8.85 1.04 36.06-1.06 36.06-1.06s26.76-6.59 62.68 0l35.91 2.05" fill="#c0dece"/></g>
  <g id="change1_2"><path d="m99.504 182.7s75.306 61.44 13.876 109c-61.442 47.56-105.04-41.43-99.095-89.09s33.375-68.03 85.219-19.91" fill="#c0dece"/></g>
  <g id="change1_3"><path d="m219.03 67.383s61.13 99.207-27.15 128.92c-88.29 29.71-102.68-88.24-77.2-139.88 25.47-51.635 64.55-63.928 104.35 10.963" fill="#c0dece"/></g>
  <g id="change1_4"><path d="m275.89 67.383s-61.14 99.207 27.15 128.92c88.29 29.71 102.68-88.24 77.2-139.88-25.47-51.635-64.55-63.928-104.35 10.963" fill="#c0dece"/></g>
  <g id="change1_5"><path d="m396.69 182.7s-75.3 61.44-13.87 109 105.04-41.43 99.09-89.09-33.37-68.03-85.22-19.91" fill="#c0dece"/></g>
  <g id="change2_1"><path d="m87.117 176.9c17.983 14.72 35.923 37.69 36.523 61.75 0.52 21.16-16.21 38.05-33.824 47.21-15.218 7.93-32.175 6.01-45.504-4.61-13.246-10.56-21.984-26.32-27.601-42.03-5.516-15.44-8.3516-32.24-5.902-48.56 2.109-14.08 7.105-33.87 22.55-38.83 7.383-2.37 15.543-0.21 22.395 2.81 11.769 5.2 21.976 13.63 31.363 22.26 4.735 4.36 11.824-2.69 7.071-7.07-15.032-13.83-35.895-31.29-57.969-28.72-17.324 2.02-26.996 17.15-31.828 32.52-10.922 34.72-0.6019 74.8 21.457 103.02 10.304 13.19 24.879 23.09 41.882 24.23 20.29 1.35 40.34-12.02 52.82-26.95 12.25-14.64 15.78-33.19 10.57-51.43-4.35-15.22-13.86-28.74-24.33-40.38-3.91-4.34-8.079-8.58-12.602-12.28-4.946-4.06-12.063 2.97-7.071 7.06" fill="#343334"/></g>
  <g id="change2_2"><path d="m205.86 60.574c9.77 15.895 16.49 34.571 19.15 52.976 2.04 14.05 0.58 28.94-6.53 41.41-9.3 16.29-27.42 25.14-44.95 29.57-72.76 18.38-85.561-83.42-65.05-131.31 7.19-16.794 21.23-40.806 41.64-42.97 9.81-1.0391 18.84 3.844 26.11 9.98 12.79 10.801 21.81 25.762 29.63 40.344 3.05 5.688 11.68 0.637 8.64-5.047-10.52-19.617-24.36-42.293-45.59-51.789-15.15-6.7771-30.43-2.9372-42.93 7.262-13.55 11.051-23.25 28.25-29.05 44.52-5.215 14.621-7.239 30.5-7.379 45.96-0.274 30.19 7.613 64.86 32.679 84.17 27.91 21.51 73.2 9.32 96.1-14.06 30.36-31 16.33-83.235-3.83-116.06-3.38-5.483-12.02-0.468-8.64 5.044" fill="#343334"/></g>
  <g id="change2_3"><path d="m262.73 55.527c-9.89 16.09-16.92 35.063-19.91 53.653-2.4 14.88-1.91 30.35 4.08 44.36 7.01 16.42 21.1 27.92 37.22 34.88 16.54 7.15 35.43 10.91 53.13 6.02 14.3-3.95 25.73-13.96 33.73-26.19 17.35-26.52 19.48-62.46 14.36-92.898-2.24-13.379-6.74-25.918-13.3-37.782-7.29-13.187-17.25-26.535-31.05-33.394-35.63-17.723-64.2 25.121-78.26 51.351-3.05 5.684 5.58 10.735 8.63 5.047 9.9-18.465 23.63-42.644 45.16-49.285 15.44-4.7617 28.67 5.957 37.76 17.313 20.66 25.8 26.11 60.343 22.27 92.428-3.37 28.11-17.14 59.89-48.06 65.12-17.91 3.03-38.28-3.97-53.07-13.71-12.97-8.54-21.4-22.21-23.42-37.58-3.3-25.11 6.28-52.997 19.36-74.282 3.39-5.516-5.27-10.531-8.63-5.051" fill="#343334"/></g>
  <g id="change2_4"><path d="m384.31 169.83c-18.67 15.29-35.98 38.42-39.01 62.8-2.53 20.44 7.38 38.37 22.69 51.31 14.62 12.35 33.34 20.3 52.54 15.41 16.63-4.24 29.43-17.58 38.46-31.53 9.83-15.21 16.08-33.18 18.54-51.07 3.96-28.85-5.41-81.22-44.89-75.4-18.69 2.75-34.9 16.12-48.33 28.48-4.76 4.38 2.33 11.43 7.07 7.07 13.41-12.33 35.25-31.71 55.35-24.53 15.56 5.57 20.06 28.61 21.52 42.68 1.78 17.06-2.45 34.66-8.84 50.38-6.35 15.64-16.64 31.26-31.41 40.02-15.07 8.94-31.76 5.65-45.9-3.41-16.52-10.58-28.74-27.19-27.02-47.41 1.9-22.33 19.49-43.97 36.3-57.73 4.99-4.09-2.13-11.12-7.07-7.07" fill="#343334"/></g>
  <g id="change2_5"><path d="m379.17 334.16c-1.27-2.8-2.71-5.5-4.13-8.23-1.26-2.41-4.58-3.11-6.84-1.79-2.44 1.43-3.06 4.42-1.8 6.84 1.42 2.73 2.87 5.43 4.14 8.23 1.12 2.49 4.67 3.06 6.84 1.8 2.53-1.49 2.91-4.36 1.79-6.85" fill="#343334"/></g>
  <g id="change2_6"><path d="m368.29 313.3c-21.97-38.32-48.68-76.66-85.17-102.54-13.41-9.51-30.09-18.24-47.02-17.75-3.89 0.11-7.92 0.74-11.67 1.79 2.59-0.73 0.36-0.06-0.53 0.1-1.26 0.24-2.5 0.63-3.71 1.05-6.79 2.34-13.11 5.99-19.06 9.97-30.94 20.73-55.15 51.53-76.75 81.33-16.2 22.34-32.099 45.52-41.556 71.64-5.906 16.3-8.644 34.35-4.203 51.35 7.149 27.37 32.809 43.14 58.119 51.29 11.5 3.71 23.43 5.95 35.41 7.4 8.5 1.03 17.36 0.19 25.88-0.29 4.43-0.25 9.02-0.24 13.38-1.16 7.38-1.56 14.97-2.13 22.5-2.39 6.33-0.23 12.68-0.02 19 0.43 6.32 0.46 12.6 2.07 18.89 2.43 11.86 0.68 23.71 1.35 35.57 2.03 5.12 0.29 10.91-1.16 15.92-2.12 6.12-1.17 12.15-2.85 18.01-4.96 12.27-4.42 23.77-11.01 33.09-20.2 25.39-25.07 22.41-62.46 11-93.45-2.2-5.99-11.87-3.4-9.64 2.66 7.3 19.84 11.87 41.74 5.03 62.36-4.79 14.44-15.89 25.48-28.87 32.88-11.94 6.81-25.73 10.72-39.33 12.34-12.17 1.46-25.04-0.64-37.23-1.33-9.78-0.56-19.39-2.6-29.22-3.02-10.53-0.46-21.08 0.17-31.5 1.67-2.18 0.31-4.34 0.69-6.5 1.15-1.49 0.33 0.8-0.03 0.49-0.01-1.08 0.08-2.17 0.16-3.26 0.23-8.88 0.61-17.79 1.14-26.7 1.1-11.59-0.05-23.57-2.85-34.81-6.05-12.46-3.54-24.5-8.69-34.99-16.39-10.383-7.61-17.942-18.38-21.016-30.9-4.254-17.34 0.812-36.05 7.597-52.04 11.099-26.16 28.519-49.81 45.529-72.38 12.9-17.11 26.87-33.56 42.42-48.32 8.73-8.29 18.06-16.05 28.43-22.22 2.94-1.75 5.98-3.34 9.13-4.69-1.32 0.57 1.48-0.56 2.12-0.77 0.76-0.27 1.54-0.5 2.32-0.71 3.23-0.84-1.57 0.56 1.97-0.44 7.15-2.01 13.57-1.15 20.7 0.17 1.55 0.28 3.07 0.74 4.57 1.22 3.81 1.23 5.22 1.9 8.61 3.54 15.35 7.45 28.7 18.59 40.72 30.54 23.12 22.96 41.55 50.35 57.7 78.51 3.21 5.59 11.85 0.55 8.63-5.05" fill="#343334"/></g>
 </g>
</svg>