<?xml version="1.0" encoding="UTF-8"?><svg xmlns="http://www.w3.org/2000/svg" enable-background="new 0 0 1890.575 1682.732" version="1.1" viewBox="0 0 1890.575 1682.732">
 <g id="change1_1"><path d="m1810.1 398.88c-0.238-1.001-6.104-20.003-10.265-25.554-3.562-4.829-5.054-10.753-8.203-15.814-7.796-12.685-7.917-20.382-11.855-28.059-2.617-5.061-2.969-10.843-3.247-16.421-1.02-7.888-3.074-15.604-3.989-23.5-1.573-14.71-5.385-17.33-0.952-25.944 0.742 1.23 1.5 2.467 2.31 3.674 0.172-0.96 0.36-1.92 0.555-2.879 0.66 0.068 1.342 0.135 2.047 0.203 0.285-2.909 0.502-5.976-1.17-8.548-1.582-2.047 0.18-4.379-0.143-6.629-0.667-4.791-2.137-9.485-4.641-13.647 0.69-3.082-1.14-6.021-0.577-9.05 1.747 0.592 3.434 2.489 5.421 1.612-1.245-1.777-2.954-3.194-3.989-5.099-0.218-1.29-0.18-2.602-0.232-3.899 1.455 0.06 2.917 0.12 4.409 0.188-1.987-1.05-3.929-2.159-5.819-3.329 0.315-0.51 0.952-1.53 1.267-2.04 2.744 1.852 5.781 3.554 9.238 3.277-2.542-1.68-5.676-2.714-7.288-5.474 3.922 0.562 7.318 2.737 11.045 3.952-5.196-4.724-12.995-6.838-16.211-13.519 4.957 1.852 10.138 4.567 15.589 3.344-5.796-2.534-12.942-2.789-17.396-7.783 2.002-0.165 4.027-0.345 6.059-0.48-2.025-0.87-4.192-1.35-6.389-1.275-0.9-1.35-1.807-2.684-2.654-4.049 3.487 0.203 6.883 1.147 10.04 2.647-1.387-2.902-4.611-3.982-6.643-6.276-3.754-4.112-5.384-9.42-19.286-13.894-1.297-0.48-1.125-2.167-1.575-3.224 3.764 0.78 7.618 1.185 11.48 0.765-0.473-0.488-1.41-1.477-1.882-1.965-3.232-0.39-6.876 0.21-9.501-2.182 1.53-1.177 3.314-0.015 4.964 0.278 1.455 0.442 2.992 0.157 4.507 0.03-3.292-1.77-7.348-2.249-9.958-5.099-1.117-1.207-2.602-1.912-4.049-2.602-1.455-0.555-1.995-2.129-2.962-3.202-1.522-2.062-4.701-2.31-5.631-4.874-6.571-13.426-11.039-15.578-13.339-17.209 6.306-6.556 17.703-8.976 14.814-50.988-1.39-20.219-6.784-31.939-12.444-40.061-4.437-6.367-13.025 0.806-16.925 7.225-5.616 9.243-5.909 20.767-13.79 28.509-16.371 16.081-9.389 15.361-14.861 12.965-14.009-11.125-42.136-6.708-50.696 2.842-1.432 1.515-1.297 3.704-1.935 5.556-0.712 0.727-1.545 1.32-2.295 1.95-2.822-18.277-11.56-19.359-6.096-42.861 1.069-4.642 9.123-8.662-3.652-12.53-5.581-1.688-40.033 20.676-46.784 75.089-7.111 1.445-8.294-1.57-11.537 0.404-11.857 5.576-10.176 2.804-23.432 6.509-2.984 0.457-6.111-0.3-8.99 0.795-10.276 3.675-13.603 3.928-21.145 10.168-2.79 2.252-20.335 13.061-28.374 22.637-3.637 4.454-8.833 7.138-13.175 10.798-3.367 2.572-6.149 5.834-9.643 8.218-2.864 0.322-5.796-0.075-8.623 0.615-6.973 1.248-35.14 26.733-35.857 27.744-10.897 15.433-12.102 11.696-16.182 13.834-2.909 1.545-5.151 4.094-8.158 5.451-1.717 0.915-3.712 0.255-5.511 0.637-24.316 9.036-19.299 3.724-30.781 14.704-1.389 1.53-21.346 21.738-24.1 25.359-2.475 2.879-3.899 6.689-7.108 8.893-1.627 0.487-3.389 0.285-4.934 0.99-12.783 5.537-18.062 11.363-25.277 19.586-5.016 4.447-10.205 8.871-13.842 14.584-1.762 2.242-2.819 5.601-5.954 6.209-14.149 3.589-20.86 14.402-24.085 16.691-1.197 0.212-8.38-1.137-19.871 8.983-4.019 3.472-8.233 6.778-11.66 10.85-2.579 3.064-2.183 5.673-5.532 8.474-10.181 8.514-10.504 1.864-22.451 16.773-13.653-0.413-44.921 12.505-48.837 15.611-5.204 3.562-8.031 9.463-12.83 13.444-1.007 0.841-17.379 14.281-23.665 17.771-3.22 1.799-28.703 32.247-38.789 34.815-42.61 10.885-83.515 112.91-462.12 14.774-11.33-2.937-0.862-4.092-24.187-9.488-2.647-0.612-20.995-4.842-27.539-6.467-76.283-18.944-125.36-11.553-135.96-1.96-10.696 2.416-71.606 29.73-77.585 31.051-21.533 5.212-51.252 22.806-81.784 39.389-1 0.236-18.606 2.564-41.001 14.862 0.757 0.585 1.807 0.997 2.047 2.047-2.969 0.765-6.239 0.682-8.811 2.58-2.744 1.867-5.811 3.277-9.193 3.322-0.172 0.637-0.345 1.282-0.517 1.942-8.167 2.904-15.876 7.279-23.192 11.99 1.455 0.255 2.917 0.48 4.372 0.75-9.411 4.216-10.648 5.066-17.524 13.055 2.714-0.532 5.316-1.485 7.986-2.19-8.029 9.79-21.125 5.585-34.057 28.576 3.434-5.084 7.843-10.49 14.284-11.495-4.725 10.232-14.206 9.803-20.29 26.544 3.547-5.751 7.543-11.66 13.399-15.252-2.203 6.864-14.715 15.41-20.545 34.185 3.134-8.353 8.616-15.491 14.734-21.873-1.62 6.756-7.671 11.442-8.706 18.386 2.864-3.217 5.511-6.659 7.566-10.453 0.742-1.402 1.71-2.677 2.902-3.719-1.087 4.566-5.024 7.528-7.168 11.54-12.964 23.475-5.526 19.92-22.435 48.732-5.395 9.109 1.159 7.704-9.628 17.741 0.675 0.038 2.017 0.113 2.684 0.15-3.187 3.457-7.183 6.081-11.607 7.671 4.177-0.93 8.023-2.804 11.765-4.814-0.375 1.162-0.772 2.332-1.162 3.509 1.792-1.14 3.599-2.257 5.489-3.224-0.525 3.427-3.419 5.579-4.934 8.518 1.545-0.682 3.022-1.5 4.492-2.317-4.653 8.739-16.286 19.363-27.669 23.762 12.147-2.347 11.907-5.371 18.416-8.87-2.752 7.183-8.99 12.357-11.9 19.458 5.885-5.011 17.793-24.616 20.096-27.294-4.675 13.789-13.052 20.542-15.941 26.049-3.029 7.521-6.359 15.154-6.494 23.417 3.239-4.158 2.085-8.812 6.096-16.496 0.515 20.449-22.771 48.142-32.1 67.672 0.402-0.657 23.264-34.853 24.437-35.879-0.525 2.549-1.425 5.009-2.092 7.536 0.832-0.72 1.657-1.44 2.489-2.145-14.143 33.713-23.9 32.027-23.17 42.808 1.215-1.882 2.279-3.854 3.517-5.714-0.217 3.854-2.939 7.056-2.789 10.962 7.02-9.434 6.197-13.838 19.916-34.027-0.303 1-8.382 29.431-12.86 34.297-3.089 3.487-5.616 7.918-5.226 12.74 2.16-3.052 2.879-6.883 5.301-9.778-0.165 5.789-1.8 11.637-0.255 17.389 0.6 3.172 2.579 5.961 3.029 9.155-1.357 6.531-6.051 12.132-6.104 18.986 1.177-2.062 2.159-4.229 3.172-6.374-0.022 10.31-0.607 20.995 3.337 30.766 0.855 0.63 1.897 1.11 2.519 2.025 1.455 6.943-1.665 13.669-1.342 20.598 0.071 8-6.275 20.955-1.042 30.421 0.84-5.986-2.336-6.678 2.287-23.95 1.237 7.506 3.509 15.109 2.047 22.765-0.72 7.093-3.854 13.752-4.087 20.913l-0.637 0.075c0.105-4.769-0.682-9.778 1.672-14.164-0.772 0.405-1.537 0.817-2.302 1.252-1.897 8.713-0.262 17.689-1.567 26.462-0.382 3.457 1.957 6.756 0.802 10.198-0.72 3.044 0.045 6.156-0.075 9.245-0.17 8.084-3.305 8.896-0.195 17.651 0.247-4.027-0.367-8.226 1.432-11.99 3.396 16.571-8.269 26.117-0.045 58.839 1.135 4.2-2.877 8.161-4.117 20.988 0 0 0.434 5.107 0.375 21.145-0.202-1.83-0.48-3.637-0.652-5.451 0.789 19.891 1.922 21.585 3.847 23.305-0.315-6.291-2.04-12.477-1.485-18.828 4.142 10.514 1.467 13.504 5.534 27.174 3.737 12.246 0.461 8.974 2.459 20.141 0.81 4.851-0.945 9.583-1.395 14.382-0.226 1.286-1.982 16.174-0.742 27.646 1.806 29.554 3.667 2.337-3.172 47.217-0.877 4.986-0.495 10.07-0.217 15.102 1.181-11.229 5.306-35.171 6.374-39.239 1.489 6.152 0.343 2.024 0.045 26.424 0.008 6.636 2.789 12.89 3.149 19.473-1.102 8.885-12.296 37.624-12.267 48.747-0.157 2.894 0.412 5.796 0.262 8.706-3.112 4.304-6.494 8.443-9.238 13.032 3.644-3.854 7.071-7.933 10.94-11.555 8.885 17.873 4.69 15.824 5.009 22.045-0.157 5.721 2.782 10.79 4.611 16.031 1.29 6.029 2.092 12.335 5.226 17.778-0.81-2.654-1.792-5.309-1.717-8.113 12.573 12.182 3.406 7.843-3.262 26.919 4.199-4.109 6.494-9.65 9.86-14.382 1.522 1.71 2.939 3.517 4.394 5.294-0.795-3.517-3.262-7.348-1.147-10.858 3.989-6.883 7.378-14.112 11.787-20.755 1.207 4.026 1.402 8.811 4.829 11.75-1.44-5.399-2.894-10.858-2.647-16.504 2.092 3.599 2.429 8.181 5.789 11-2.577-9.304-5.33-11.948-0.735-24.819 4.632 6.223 5.847 29.534 11.975 34.56-0.147-8.016-4.714-5.125-2.999-25.832 3.624 4.638 1.247 5.413 2.122 14.749 0.915-2.714 1.29-5.556 1.717-8.361 4.169 6.688 6.913 14.172 10.85 21.01-2.834-5.939-4.184-12.447-7.056-18.371-2.294-5.342-5.163-7.162-5.894-22.592 3.359 5.361 3.344 12.095 6.988 17.329 0.218-4.701-3.95-15.209-5.691-19.503-1.192-2.699 1.312-5.069 2.444-7.303 1.47 2.812 2.085 6.036 3.974 8.631 0.772 1.327 1.987 2.527 2.19 4.124-0.315 3.494-1.71 6.921-1.117 10.49 0.825 4.349-0.51 9.313 2.744 12.935 0.023-7.071-2.204-14.382 0.232-21.273 4.761 6.246 9.463 12.537 14.359 18.678-2.969-5.421-6.419-10.55-9.83-15.694 0.322-0.248 0.96-0.735 1.282-0.982-1.612-3.044-3.727-6.006-4.319-9.44 1.815-6.778 4.042-13.474 7.146-19.781 3.809 5.159-1.395 11.165 0.562 16.699 1.695 5.556 4.019 11.203 8.016 15.529-0.225-2.819-1.455-5.369-2.227-8.031-0.727-2.099 0.652-4.012 1.17-5.954-0.103-3.07-2.268-6.146 1.837-13.115 0.442 2.31-0.067 5.001 1.665 6.906 1.707-8.959-3.134-6.164 1.987-20.171 0.502 2.962 0.435 6.029 1.297 8.938 0.81 2.872 2.317 5.534 2.759 8.526 0.787 8.106-0.472 16.309 0.51 24.4 0.232-0.322 0.697-0.975 0.93-1.297 5.753-40.699-10.733-35.479 2.28-62.626 2.664 28.627 3.429 18.991 5.676 33.54 0.187 3.224-0.292 6.456-0.008 9.688 4.837-6.423 1.667-5.457 3.344-9.815 1.035-2.909 2.16-5.834 2.43-8.923 0.217-3.269-1.417-6.561-0.24-9.755 6.217-18.35-1.29-17.923-0.127-39.771 0.087-0.901 2.924-63.766 2.924-63.766 0.607 2.737 0.772 5.534 0.712 8.346-0.082 3.802 1.185 7.438 1.807 11.15-0.795-1.47-1.635-2.932-2.602-4.274-0.452 7.836 2.842 16.998 2.632 20.815 0.51-0.607 1.027-1.2 1.545-1.777 1.38 10.16-1.92 20.156-1.23 30.316-0.142 4.784 1.575 9.395 1.455 14.179 0.175 8.228-5.286 76.045-5.429 77.045-2.061 11.456 2.246 51.432-5.669 80.06-0.877 4.012-2.152 8.166-1.237 12.297 1.806 10.479-2.262 8.211-6.336 21.858 0.39 8.661-3.517 16.826-3.299 25.487-0.384 6.958 5.573 19.857 9.875 24.122-1.605 0.697-3.217 1.372-4.799 2.115 2.489-0.367 4.926-1.357 7.483-1.125 0.877 0.63 1.665 1.395 2.474 2.152-0.435 0.232-1.305 0.697-1.74 0.93 2.827-0.323 5.624 0.12 8.278 1.117 4.029 1.857 7.174-3.913 11.54 2.669 4.095 8.831 14.498 14.327 9.785 29.146-1.642 5.601-2.467 11.465-4.761 16.871-2.138 5.178-12.476 15.792 2.534 26.709 2.992 2.067 3.676 10.075 8.826 18.214 3.512 4.89 19.087 5.552 31.021 10.13 9.057 3.555 58.756 3.24 71.991-2.234 1.935-1.012 3.569-2.49 5.256-3.839-16.884-48.978-2.831-6.579-21.753-53.546-0.382-3.622 0.667-7.183 0.81-10.775-0.705-0.382-1.402-0.735-2.1-1.072-2.991-11.238-12.07-9.111-25.517-31.478-2.714-6.778-7.303-12.567-10.108-19.301-2.823-6.978-5.574-5.578-7.423-16.167-15.154-86.761 0.618-144.25 1.14-154.94 0.891-16.242 5.491-40.057 5.931-41.668 1.838-6.095-1.83-2.341 8.001-20.995 2.917-6.224 6.839-12.072 8.233-18.896 13.594-46.093 2.699-13.771 10.648-53.568 0.945-3.907 3.959-6.816 5.474-10.468 1.507-3.658 3.258-7.021 4.609-10.749 7.805-21.535 13.961-32.037 15.242-35.216 0.913-2.264 1.082-4.862 2.186-7.071 0.001-0.002 20.523-39.373 20.523-39.374-1.5 5.669-4.904 10.723-5.751 16.586 5.507-4.66 27.562-65.818 35.317-75.456 9.259-11.615 18.331-30.036 23.102-34.417 1.59 0.42 2.632 1.867 2.587 3.509-0.208 7.6 7.123 44.915-16.129 91.42-20.042 48.024-40.183 61.348-45.044 86.547-5.253 27.228-3.467 24.461 18.948 53.704 32.516 42.421 123.97 197.24 124.26 198.25 1.605 4.836-1.582 9.38-2.977 13.857 1.117-0.802 2.234-1.59 3.352-2.377 0.083 0.285 0.24 0.855 0.315 1.14 0.75 0.825 2.002 1.537 1.942 2.842 0.345 3.082-1.74 5.654-3.119 8.226 0.712 0.495 1.417 0.997 2.137 1.53 1.057-1.342 2.092-2.699 3.164-4.004-0.345 1.672-0.705 3.367-1.042 5.061 1.23 2.324-0.57 4.529-1.402 6.644 1.417 0.015 2.842 0.03 4.267 0.03-0.172 0.84-0.345 1.695-0.502 2.572 0.742-0.72 1.477-1.44 2.227-2.122-0.945 3.404-2.392 6.681-2.992 10.19 0.945-0.098 1.897-0.173 2.857-0.24-1.477 2.085-2.864 4.267-3.712 6.703 2.04-1.432 3.772-3.239 5.594-4.926-0.24 4.102-2.242 7.918-2.077 12.042 0.892-1.155 1.725-2.324 2.557-3.494-0.277 2.639-0.63 5.286-1.177 7.903 0.435-0.015 1.312-0.045 1.747-0.068 0.817 4.732 2.947 9.71 7.146 12.387 0.135-1.072 0.292-2.13 0.465-3.157 0.757 0.967 1.5 1.979 2.234 2.999 0.465-0.727 0.937-1.447 1.417-2.13 0.75 1.005 1.515 2.04 2.279 3.074 0.855-3.682 2.317-7.206 4.641-10.198 0.367 0.083 1.095 0.233 1.462 0.315 1.372-0.382 2.737-0.787 4.109-1.17 0.765 1.327 1.77 2.579 2.227 4.079 0.037 2.399-0.87 4.679-1.387 7.011-0.525-1.14-0.96-2.28-1.387-3.412-0.412 2.999-0.397 6.194 1.215 8.878 1.47-3.457 2.384-7.086 3.517-10.648 2.175 3.509 0.772 7.753 1.005 11.607 1.08-0.375 2.129-0.81 3.194-1.215-0.068 0.78-0.135 1.582-0.195 2.392 1.335 0.232 2.669 0.547 3.989 0.922 0.645-0.93 1.26-1.882 1.882-2.812 0.307 2.767 0.27 5.564 0.315 8.361 1.402-0.78 2.812-1.522 4.244-2.22 0.03 1.92 0.045 3.854 0.015 5.804 0.315-0.052 0.952-0.157 1.267-0.21-0.382 3.292-0.442 7.033-2.954 9.545-2.639 2.834-3.239 6.958-6.059 9.665-1.979 1.918-9.203 13.124-6.374 18.971 4.433 9.781 6.266 25.387 18.453 32.123 3.802 2.092 6.771 5.444 10.708 7.318 14.93 5.133 41.181 7.296 42.448 7.288 32.739 0.791 29.553-1.065 44.503-5.391 0.922-3.262 3.142-6.464 2.1-9.965-9.967-34.929-12.071-26.309-20.118-43.52 12.667-14.35-4.552-23.625-4.626-35.482-0.285-0.075-0.862-0.225-1.155-0.3-0.037 0.502-0.112 1.5-0.157 2.002-2.047-0.622-4.634-0.63-5.954-2.572-15.483-19.606-13.386-38.34-23.515-45.987 0.315-2.812 4.109-3.906 3.382-6.921-2.736-23.006-4.026-21.899-6.951-26.492-121.78-185.43-94.275-164.9-108.58-189.5-1.347-2.316-1.937-4.91-3.598-7.132-1.837-2.362-0.48-5.324 0.495-7.716 1.289-3.162 1.731-6.347 3.287-9.38 4.053-7.899 11.451-17.62 8.215-31.719-0.607-2.489 1.147-4.694 2.047-6.868 3.69-6.568 4.618-16.125 10.233-29.387 8.153-19.261 15.389-28.056 21.262-41.485 5.49-12.554 5.357-22.044 14.388-28.503 8.6-5.597 10.635-24.405 13.819-30.749 32.154-64.068 24.72-41.362 35.748-60.53 5.706-9.917 6.645-18.698 14.538-28.52 2.033-2.53 1.973-5.697 3.162-8.678 1.2-3.187 3.127-6.014 5.076-8.773 2.428 1.597 20.81 11.554 36.337 23.162 3.097 2.37 7.071 2.827 10.565 4.357 7.807 3.306 5.483 12.155 37.792 19.44 28.384 6.4 37.629 16.116 51.811 19.33 3.078 0.697 6.245 0.985 9.282 1.844 6.571 1.858 12.027 5.327 19.072 5.299 4.836 0.075 9.365 1.927 13.969 3.194 2.894 0.847 5.961 0.39 8.923 0.9 4.297 0.577 8.346 2.257 12.657 2.797 15.953 3.288 68.567 2.761 84.004-0.142 6.514-1.231 33.561-1.457 36.659-1.875 1.067-0.368 18.91-3.334 19.293-3.367 9.953-0.405 24.596-6.548 38.252-7.016 12.752-0.437 25.36 1.968 37.331-3.969 14.992-6.819 56.37-12.376 65.452-12.919 12.496-0.747 24.431-5.321 37.024-5.952 10.543-0.528 9.026 2.038 15.592-1.96 2.639 0.165 5.301 0.052 7.941 0.345 1.837 0.42 3.472 1.492 5.346 1.83 1.845 0.27 3.742 0.127 5.594 0.495 6.631 3.869 2.404 17.953 6.943 42.351 0.251 1.247 1.13 19.852-0.052 27.099-0.764 5.288 5.181 44.531 3.119 57.22-1.824 14.235-0.508 43.678 0.907 49.796 4.306 17.976 1.646 24.816 1.92 63.181 0.203 6.297-8.148 6.079-1.447 19.481 2.752 5.039 3.809 10.82 6.749 15.784 7.682 12.594 5.737 26.237 5.909 33.51-0.577 6.831 1.252 13.842-0.862 20.508 0 0-6.264 47.429-10.505 69.195-1.952 7.482 0.735 17.601-4.964 37.754-1.087 4.274-1.725 8.638-2.714 12.942-1.042 3.854 0.285 8.091-1.597 11.765-2.444 5.294-5.631 10.678-4.934 16.766 0.6-1.372 1.132-2.767 1.732-4.132 0.885 6.141-2.932 11.555-2.677 17.643 0.697-1.05 1.38-2.107 2.07-3.149-0.743 7.237-5.875 24.285-1.77 38.879 0.892 0.375 1.912 0.675 2.542 1.507 18.523 21.714 8.886 12.073 23.477 22.48 0.112-1.155 0.12-2.302 0.142-3.434 1.05 0.315 2.1 0.645 3.179 0.967 0.09 0.285 0.27 0.847 0.367 1.125 3.277-1.537 6.006 1.852 9.058 2.58 0.952 1.425 2.204 2.662 3.862 3.247 0.165 0.233 0.487 0.697 0.652 0.93 0.93 0.135 1.882 0.24 2.819 0.51 0.96 1.904 2.347 4.079 1.687 6.306-1.785 4.994-5.099 9.253-8.855 12.92-3.952 3.674-4.432 9.343-6.134 14.172-3.476 9.071 4.878 10.827 8.676 14.022 4.894 3.565 9.373 14.533 10.393 15.881 3.569 4.555 10.08 14.437 13.939 15.019 6.447 0.962 53.742-1.565 75.493-10.843 5.016-1.747 8.451-6.749 9.305-11.855 0.933-6.961-8.821-19.252-10.992-25.367 39.579 22.974 55.009 13.419 59.424 12.837 22.642-3.873 28.495-9.855 32.528-14.134-6.16-16.77-7.216-13.108-11.345-22.105-4.736-11.176-14.359-20.964-13.242-24.272 0.99-3.457 2.377-7.221 0.592-10.678-1.429-2.964-5.912-16.12-14.457-17.568-4.102-0.855-8.173-2.369-11.203-5.354-20.659-20.212-11.844-14.046-21.708-27.789-2.257-3.144-10.57-21.921-11.172-24.977-4.355-22.104-5.258-20.206-6.651-26.477-2.176-9.787 0.101-69.633 0.158-70.634 0.202-2.872 1.665-5.556 1.417-8.458-0.172-5.196-0.435-10.46 0.652-15.574 6.247-34.354-1.104-12.562 8.263-38.226 0.355-1.002 9.579-65.121 12.207-115.87-0.315 0.022 2.347-26.986 5.781-40.236 5.441-26.383 4.216-13.561 10.97-49.654 4.244-24.523 2.115-25.321 8.301-49.841 0.253-1 13.19-56.547 13.145-63.008 0.442-6.119 4.334-11.12 6.089-16.849 1.245-2.752 1.604-6.366 4.507-7.963 23.869-14.963 60.808-41.64 70.394-68.122 0.187 0.255 4.424-9.238 5.391-14.629 2.544-12.336 13.249-35.317 13.669-36.322 6.425-17.283 9.045-15.548 11.113-20.073 5.289-10.596 15.471-107.25 15.536-108.25 0.083-2.205 1.792-3.817 3.209-5.309 33.267-32.651 32.092-39.136 45.879-62.196 75.972-127.07 91.491-194.1 91.491-194.1 1.777 0.435 3.374 1.387 5.039 2.175 7.239 3.639 24.995 4.993 25.997 5.144 6.441 2.927 13.018 14.729 27.774 23.68 8.735 4.986 16.564 11.54 25.929 15.432 9.253 3.922 17.884 9.2 26.214 14.787 4.394 1.8 9.395 3.367 12.192 7.528 8.094 18.003 10.731 30.174 19.818 36.922 20.847 8.181 24.115 0.999 36.082 1.125 3.892-0.037 6.906-2.924 10.535-3.929 3.892-1.265 14.54 0.497 17.929-7.701 1.402-3.787 6.583-3.172 8.398-6.591 6.677-10.754 7.446-6.913 15.267-25.044 13.167-31.836 6.942-11.508 13.235-38.249 2.668-12.504-31.065-61.238-33.739-73.519zm-36.472-186.92c-2.205-0.15-3.697-1.312-3.862-3.569 1.568 0.839 2.948 2.002 3.862 3.569zm-1678.9 1064.1c0.772 2.167 0.922 4.469 1.02 6.764-0.285 0-0.862 0.007-1.155 0.015-0.098-2.265-0.098-4.537 0.135-6.779zm-1.17-546.33c-1.365 4.971-3.254 10.025-6.883 13.819 1.012-5.144 4.004-9.553 6.883-13.819zm-3.937 617.47c-0.285-3.037-0.51-6.359 1.335-8.968 0.285 3.037 0.12 6.209-1.335 8.968zm-5.773-72.419c3.497 5.879 1.391 10.558 0.165 26.582-3.607-8.526-1.035-17.801-0.165-26.582zm0.48-22.57c0.03 3.869 0.33 7.851-0.712 11.637-0.676-3.883-0.031-7.82 0.712-11.637zm1.439 80.915c1.042 3.802 1.357 7.903 0.247 11.735-0.539-3.892-0.487-7.828-0.247-11.735zm1.208-15.379c2.055 4.184 1.072 9.111 0.645 13.579-0.945-4.416-2.745-9.215-0.645-13.579zm1.574 30.976c0.037 2.557-0.367 5.099-0.547 7.656-0.21-0.008-0.63-0.03-0.84-0.037-0.06-2.618-0.128-5.362 1.387-7.619zm-1.799-75.179c-0.99-2.302-1.627-4.776-1.447-7.288 1.357 2.182 1.619 4.761 1.447 7.288zm-0.638-524.42c-1.02 4.574-2.557 9.11-5.189 13.04 0.24-4.8 2.67-9.089 5.189-13.04zm-8.555 554.82c3.236 14.903 2.458 17.761 0.51 22.143-1.185-7.318-0.398-14.772-0.51-22.143zm0.599 40.049c0.008-3.637-0.157-7.356 0.945-10.865 0.113 3.637-0.157 7.303-0.945 10.865zm-1.934-93.317c1.215 2.894 1.44 6.036 0.877 9.118-0.675-2.999-1.2-6.043-0.877-9.118zm-1.41-449.04c-0.3 3.547-1.41 7.041-3.584 9.89 0.712-3.449 2.115-6.711 3.584-9.89zm-3.779 13.279c-0.832 4.619-3.239 8.803-5.976 12.552-0.098-4.941 2.767-9.087 5.976-12.552zm-6.194 16.489c1.545-2.684 3.862-4.859 5.084-7.731 2.377-4.379 2.894-9.455 5.249-13.834 0.528 9.296-4.634 18.794-10.01 27.324-0.225-1.905-0.795-3.869-0.323-5.759zm10.153 448.9c0.247 2.707-0.195 5.421-0.832 8.061-1.417-2.654-1.44-5.886 0.832-8.061zm-2.107-0.772c-0.052-2.302 0.532-4.529 1.8-6.441 0.232 2.317-0.293 4.619-1.8 6.441zm-2.204-20.306c-0.592-2.602-0.772-5.271-0.697-7.926 1.701 2.355 1.851 5.295 0.697 7.926zm-10.97-193.89c6.315 7.057 4.054 6.903 1.11 12.492-0.93-4.094-1.56-8.301-1.11-12.492zm-0.293-7.791c0.06-1.785-0.105-3.659 0.802-5.256 1.582-3.014 2.339-6.381 3.989-9.35-1.199 4.978-3.164 9.747-4.791 14.606zm5.751 17.299c2.225 7.261 1.543 8.141-0.945 13.774-3.365-6.267-2.557-8.002 0.945-13.774zm-1.199-7.431c-3.953-5.308-5.215-2.817 3.337-26.859 2.378 6.004-1.3 9.526-3.337 26.859zm2.744-45.373c-1.155-2.422-1.942-5.016-2.1-7.701 3.891 3.034 3.836 3.664 2.1 7.701zm1.215 35.197c1.057 5.834 1.042 11.907 0.135 17.764-1.929-3.437-1.263-13.67-0.135-17.764zm-2.25-56.882c0.862-5.804 0.96-11.802 3.089-17.336-0.045 3.562-1.32 7.078-0.615 10.663 0.952 7.281 1.522 14.629 1.23 21.978-2.661-4.582-4.281-9.974-3.704-15.305zm-0.367-155.7c0.337 0.045 0.997 0.142 1.335 0.188-0.322 1.162-0.66 2.332-1.035 3.487-0.09-1.238-0.18-2.46-0.3-3.675zm1.589-2.16c-0.3-3.202 0.795-6.291 2.654-8.863-0.179 3.105-0.944 6.231-2.654 8.863zm-6.463 59.687c-1.912-6.381-1.522-13.437 0.735-19.676-0.225 6.554-0.075 13.145-0.735 19.676zm-0.195-38.594c-0.217-0.008-0.66-0.015-0.877-0.023-3.633-8.15-3.109-22.29 2.25-28.921 4.328 9.115 1.082 8.432 1.965 13.512 1.288 5.414-1.966 10.363-3.338 15.432zm3.614 78.163c0.06-2.647 0.06-5.294 0.082-7.933l0.825-0.037c-0.067 2.654-0.225 5.309-0.57 7.956l-0.337 0.014zm-3.756 70.994c3.344 5.294 3.457 12.327 1.125 18.018 0.097-6.043-1.44-11.974-1.125-18.018zm-1.35 37.394c1.33-6.719 4.933-20.817 5.931-23.11 2.183 9.25 0.936 7.252-5.931 23.11zm-2.272 54.648c-0.24-5.766 1.342-11.397 3.187-16.804 0.322 5.766-1.043 11.487-3.187 16.804zm6.193-7.896c-0.03 4.829-1.98 9.328-3.352 13.887-0.907 2.819 0.157 5.759 0.112 8.646-4.116-6.164 0.817-18.636 3.24-22.533zm0.99 31.156c-0.814-5.293-3.995-13.958 2.534-30.316 0.371 4.956-2.403 29.315-2.534 30.316zm2.685 61.906c-0.702 9.339 2.923 32.699 1.072 41.248-2.069-6.142-3.368-32.681-1.072-41.248zm0.742 60.354c0.135-0.008 0.412-0.015 0.547-0.015 0.232 6.276 2.309 12.53 1.17 18.813-2.399-5.991-1.522-12.522-1.717-18.798zm3.442 37.769c0.952 6.096 1.777 12.425 0.18 18.498-2.28-5.841-3.772-12.852-0.18-18.498zm-0.788 38.152c-1.35-3.359-0.292-6.899 1.537-9.815 0.398 3.328-0.284 6.71-1.537 9.815zm-3.246-27.249c1.582 6.261 4.821 13.062 1.657 19.391-3.532-5.527-5.144-13.415-1.657-19.391zm-3.652 10.715c0.825 4.439 3.779 8.51 3.457 13.092-2.092 4.514-4.581 8.976-7.971 12.665-1.29-8.834 1.62-17.547 4.514-25.757zm-3.172 28.186c2.437-4.341 5.331-8.413 7.843-12.71 4.589 7.009-1.552 23.117-2.827 25.757-1.574-4.394-3.261-8.736-5.016-13.047zm12.32-8.323c0.172-2.324 0.352-4.641 0.99-6.883 2.312 10.057-0.819 27.745-0.48 39.149 0.27 4.334-1.822 8.331-3.719 12.087-8.895-13.741 2.369-28.976 3.209-44.353zm0.922 40.858c-0.592 4.686-1.05 9.463 0.165 14.119-4.435-8.259-3.055-10.187-0.165-14.119zm5.864 23.38c-3.547-5.721-5.339-12.567-4.829-19.278 0.937 0.84 1.875 1.702 2.842 2.557-0.375-2.842-1.207-5.631-1.245-8.488 0.442-3.899 2.827-7.221 3.434-11.068 0.69-4.304 1.335-8.946 4.334-12.327 0.045-1.56 0.09-3.112 0.225-4.641 4.266 18.343-3.822 43.456-4.761 53.245zm13.099-28.254c-0.022 1.882 1.012 3.937 0.023 5.729-1.77 3.172-4.229 5.954-5.646 9.343-1.597 3.704-3.007 7.588-5.639 10.73 0.967-8.908 4.581-17.314 5.271-26.274 0.63 0.09 1.26 0.203 1.89 0.323 0 0 3.071-12.133 4.461-20.006 0.585 0.33 1.177 0.682 1.762 1.05 0.705 6.501-2.954 12.589-2.122 19.105zm2.205 1.132c-0.562-4.274-0.045-8.646 1.515-12.65 0.135 4.23 0.367 8.714-1.515 12.65zm2.272-22.772c-1.5-3.382-1.815-7.146-0.765-10.7 2.047 3.232 1.575 7.146 0.765 10.7zm50.231-77.863c-2.145-4.327 0.36-8.848 1.485-13.07 0.112 4.402-0.368 8.804-1.485 13.07zm-1.409-37.236c2.062 2.804 2.647 6.381 1.402 9.673-0.39 0.022-1.177 0.075-1.567 0.105 0.127-3.262-0.023-6.524 0.165-9.778zm-4.964 60.481c0.712 3.494 0.555 7.123-0.15 10.61-1.965-3.224-1.545-7.378 0.15-10.61zm-2.647 11.36c1.47 2.152 1.41 4.649-0.03 6.808-0.24-2.271-0.248-4.558 0.03-6.808zm-0.555 15.507c0.764-2.907 1.835-6.08 3.149-8.796 2.707 3.914-0.735 8.436-2.287 12.147-0.555-1.049-1.334-2.144-0.862-3.351zm-2.37-55.008c1.567 4.401-0.352 8.916-1.462 13.19-0.412-4.454 0.12-8.938 1.462-13.19zm-17.298 29.821c0.135 3.104-1.05 6.029-2.534 8.706 0.224-3.045 0.757-6.172 2.534-8.706zm-15.004 0.157c3.18 4.402 3.354 4.519 0.022 9.23-0.157 0.547-0.465 1.642-0.622 2.189 0.15-1.522 0.652-2.984 1.26-4.364-0.458-2.331-0.698-4.7-0.66-7.055zm-4.222-597.11c0.142-2.137 1.087-4.057 2.984-5.129-0.307 2.04-1.364 3.839-2.984 5.129zm5.241 662.67c-1.11-1.935-1.995-3.989-2.474-6.156 0.907 0.69 1.845 1.38 2.669 2.204 0.48 1.253-0.112 2.64-0.195 3.952zm1.62-8.72c-1.252-2.069-1.755-4.581-0.412-6.726 0.532 2.189 0.727 4.461 0.412 6.726zm3.472-78.545c0.045 7.243-0.435 14.532-2.294 21.565-4.309-4.281-4.194-0.923 2.294-21.565zm-0.893 101.66c-1.657-4.297-2.662-9.028-2.07-13.632 1.718 4.312 2.333 9.006 2.07 13.632zm-0.164-36.689c0.277-4.776 1.695-9.41 1.837-14.194 0.51-0.345 1.02-0.675 1.53-0.99-0.292-2.385 0.172-4.732 0.982-6.951 0.51 2.369 1.56 4.814 0.922 7.273-1.462 5.039-2.43 10.355-5.271 14.862zm1.867 5.188c0.517-4.386 1.665-8.781 4.004-12.545-0.24 4.432-1.53 8.826-4.004 12.545zm4.251-78.409c0.825 2.279 1.012 4.716 0.795 7.131-0.825-2.288-0.9-4.74-0.795-7.131zm0.383 48.431c0-3.742 1.665-7.191 3.599-10.295-0.075 3.719-1.582 7.221-3.599 10.295zm2.421 10.048c1.222-0.083 1.147 2.692-0.06 2.624-0.704-0.667-0.629-2.009 0.06-2.624zm0.72 20.973c-1.56-3.164 1.185-6.284 2.579-8.983-1.256 12.26 0.766 7.439 1.477 17.801-2.046-2.595-2.736-5.864-4.056-8.818zm3.862-22.878c-0.082-3.704 0.51-7.386 1.515-10.94 0.465 3.704 0.225 7.566-1.515 10.94zm1.455 23.238c-0.697-0.637-0.72-1.987-0.007-2.587 1.236-0.128 1.221 2.662 0.007 2.587zm1.792-3.944c-0.862-1.852-1.897-3.824-1.402-5.924 1.035-6.681 3.472-13.145 6.748-19.031 0.584 3.019 3.553 8.961-5.346 24.955zm5.226-716.53c0.787-2.842 2.639-5.196 4.851-7.078-1.087 2.669-2.594 5.226-4.851 7.078zm2.392 680.15c0.045-2.37 0.315-4.814 1.71-6.801 0.607 2.46-0.083 4.889-1.71 6.801zm3.899 19.203c2.017 2.242 0.735 4.986-0.78 7.071-0.202-2.399 0.165-4.776 0.78-7.071zm1.507 16.332c-1.642-3.637-0.862-7.618 0.84-11.052 3.319 0.048 0.186 8.416-0.84 11.052zm3-11.518c-1.432-3.959 0.922-7.768 2.737-11.135 0.12 3.84-0.188 8.039-2.737 11.135zm3.846-13.684c0.405-4.199 1.807-8.196 2.714-12.282 0.001 4.221-0.802 8.473-2.714 12.282zm-1.649-3.854c-2.279-4.986 0.48-10.31 1.275-15.334 1.822-5.414 1.147-11.143 1.77-16.714 4.501 8.52-1.963 29.677-3.045 32.048zm7.108-8.098c-0.112-5.331-0.157-10.693 0.69-15.964 0.937-5.961-3.877-11.51-1.522-17.404 0.787 4.102 0.532 8.338 1.567 12.402 1.816 9.206 2.643 11.223-0.735 20.966zm51.424-407.71c2.152 4.919 1.117 10.445 1.005 15.642-2.752-4.837-2.078-10.446-1.005-15.642zm-0.713 63.068c2.002-5.864 0.3-12.11 1.29-18.124 1.365 3.569 1.612 7.423 2.684 11.075 0.387-4.078-1.747-19.502-1.02-23.8 4.051 11.933 2.11 18.73 1.897 59.139-4.452-7.568-8.542-12.749-4.851-28.29zm5.324 40.439c-3.142-5.346-6.126-11.225-6.366-17.531 3.832 4.971 7.693 10.925 6.366 17.531zm-11.015-23.117c0.892 3.059 1.02 6.284 0.802 9.463-1.154-3.022-1.004-6.307-0.802-9.463zm-1.874 9.387c2.204 5.249 2.789 11.375 0.187 16.609-1.672-5.384-2.017-11.21-0.187-16.609zm-4.987 21.491c0.292 4.514 1.387 9.043 0.3 13.557-0.892-4.469-1.177-9.066-0.3-13.557zm2.07 50.276c2.029 11.011 0.783 27.92-1.335 34.17-4.776-12.404 0.223-31.358 1.335-34.17zm-28.576 145.14c3.754 5.175-1.206 13.152-2.025 23.35-0.127-0.008-0.375-0.015-0.502-0.022-0.666-12.161-0.269-12.668 2.527-23.328zm-1.223-33.517c0.015 3.659 0.06 7.326 0.067 11-2.514-3.281-2.952 0.081-0.067-11zm-0.067-20.411c0.33 6.433 0.63 13.099-1.935 19.173 0.195-6.381-1.724-13.429 1.935-19.173zm-3.584 91.675c2.584 13.905 6.904 10.1 0.667 37.694 0.142-7.963 0.292-15.941 0.045-23.882-1.402-4.499-0.675-9.201-0.712-13.812zm-1.65 24.227l0.375 0.007c0.135 7.528-0.457 15.102-1.807 22.51-1.689-7.287 1.857-6.828 1.432-22.517zm1.702 56.965c-1.695-7.971-3.119-16.256-1.485-24.362 2.107 7.955 1.373 16.226 1.485 24.362zm1.335-24.333c-0.172 0.008-0.51 0.015-0.682 0.015-0.032-8.242 0.944-18.646 3.434-24.272 0.817 8.189-1.298 16.264-2.752 24.257zm1.657 11.653c-1.012-3.299-1.065-6.861-0.052-10.16 0.224 3.374 0.269 6.771 0.052 10.16zm-0.802 4.071c1.485 3.472 2.392 7.408 0.885 11.06-1.643-3.449-0.923-7.393-0.885-11.06zm1.304 21.483c-0.78-3.239-0.78-6.726 1.08-9.598 0.218 3.225 0.27 6.584-1.08 9.598zm1.657-106.74c0.045-3.104-0.052-6.254 0.885-9.238 0.037 8.878-0.038 17.756-0.06 26.649-4.166-11.03-0.825-10.056-0.825-17.411zm0.803 87.146c-1.027-6.449-1.05-13.062-0.337-19.533 3.201 5.939 2.091 13.279 0.337 19.533zm0.067-144.69c-0.81-6.066 0.93-11.93 2.857-17.599 2.989 3.929 2.175 8.091-2.857 17.599zm5.954-17.163c-1.935-2.399-2.22-5.661-0.36-8.196 0.427 2.699 0.502 5.451 0.36 8.196zm0.15-18.716c-0.817-4.942 0.217-9.875 1.327-14.674-0.33 4.873 1.29 10.205-1.327 14.674zm1.732 11.21c-0.712-3.434-0.817-7.003 0.082-10.408 2.662 3.015 1.523 7.176-0.082 10.408zm1.02 10.348c-0.262-4.289 0.412-8.646 2.497-12.432 0.285 4.296-1.058 8.442-2.497 12.432zm4.289-24.52c2.527 3.697 0.577 8.391-1.207 11.982-0.368-4.041 0.419-8.045 1.207-11.982zm0.765 16.264c0.135-3.569 1.26-6.974 2.369-10.325 0.592 1.327 1.477 2.632 1.567 4.139-0.765 2.354-2.407 4.281-3.936 6.186zm3.696-14.794c-0.757-2.819-0.397-5.751-0.765-8.601-2.809-13.214-0.325-24.551 3.809-39.501 2.145 4.499 6.096 9.245 4.207 14.524-1.604 5.233-6.954 32.306-7.251 33.578zm41.684-85.116c-11.145 27.848-17.605 39.873-21.957 53.293-4.266 13.156-11.144 24.757-17.853 36.734-1.567-5.266 2.158-10.991 4.566-27.182 0.465-3.014 9.43-28.601 5.226-56.792-0.78-6.501 1.567-12.957 0.442-19.443-0.817-2.685-2.677-5.189-2.115-8.136-0.277-1.942 1.335-3.082 2.639-4.161 0.847 2.459 1.717 4.926 2.827 7.288 0.577-6.404-3.599-12.402-1.912-18.783 0.877-4.034 1.335-8.308 3.697-11.825 3.192 8.579 3.068 14.133 8.668 34.665 0.21-1.5-0.585-2.879-0.825-4.312-1.852-5.834-2.617-11.93-3.682-17.943 0.405 0.075 1.222 0.225 1.627 0.3-1.027-5.826-2.804-11.547-3.052-17.486 3.172 4.132 5.406 8.863 7.408 13.64 0.083-3.794-0.127-7.581-0.27-11.368 0.75 0.105 1.5 0.218 2.257 0.345-3.478-6.367-2.481-5.785-1.942-52.241 0.727-11.09-4.709-21.76-2.774-32.873 2.145 3.089 2.617 6.876 3.299 10.483 0.502-8.241-3.254-16.046-3.022-24.272 1.185 3.719 1.387 7.678 2.692 11.382 17.412 52.238 18.502 45.542 18.683 78.012 0.123-5.23 0.246-10.459 0.369-15.689 2.092 54.233 3.158 56.015-4.996 76.364zm1001.5 467.79c0.315 6.021 3.007 11.585 3.299 17.606-3.381-5.264-3.464-11.585-3.299-17.606zm16.211 29.986c-0.952-0.9-1.867-1.777-2.767-2.669 0.165 1.087 0.315 2.175 0.487 3.307-3.712-2.302-6.681-5.661-8.653-9.531 0.21-0.855 0.57-1.65 0.922-2.429-1.725-5.204-2.497-10.655-3.817-15.957 3.157 3.382 4.297 7.941 6.059 12.095 0.712 0.007 1.447 0.037 2.189 0.097 0.487-0.952 0.937-1.904 1.35-2.864 0.218 1.335 0.457 2.692 0.712 4.072 1.02-1.567 2.062-3.119 2.992-4.732 0.233 0.697 0.48 1.41 0.742 2.145 0.487-0.412 0.99-0.802 1.507-1.177 0.42 0.412 0.855 0.847 1.312 1.297 0.607-0.615 1.23-1.207 1.867-1.784 0.322 1.522 0.967 3.022 0.727 4.649 0.937-0.712 1.867-1.432 2.827-2.115-1.685 5.78-6.469 9.927-8.456 15.596zm482.61-1397.9c-1.657-1.335-3.022-3.029-3.479-5.144 4.027 3.232 7.626 7.408 9.185 12.41-1.874-2.445-3.292-5.279-5.706-7.266zm46.445 65.385c-0.982 0.72-2.932-0.532-2.28-1.695 0.945-0.742 2.909 0.518 2.28 1.695zm-1.762-5.571c-1.822-1.035-3.419-2.384-4.792-3.937 2.047 0.66 3.952 1.837 4.792 3.937zm-1.148-12.17c-2.715-0.24-5.234-1.5-6.651-3.877 2.542 0.6 5.009 1.747 6.651 3.877zm-3.756-4.582c-2.1-0.765-4.207-1.627-5.939-3.052-0.82-2.049 1.755-2.566 5.939 3.052zm-5.977 3.135c2.077 0.81 4.004 1.987 5.661 3.509-1.14-0.127-2.242-0.202-3.307-0.45-1.147-0.705-1.671-1.994-2.354-3.059zm3.72 11.045c2.114 1.035 4.042 2.557 5.136 4.701-2.31-0.802-3.944-2.662-5.136-4.701zm4.026 11.615c1.687 0.397 3.479 0.705 5.084 1.5 0.502 0.975 0.72 2.062 1.072 3.119-2.557-0.75-5.136-1.965-6.156-4.619z" fill="inherit"/></g>
</svg>