<?xml version="1.0" encoding="UTF-8"?><svg xmlns="http://www.w3.org/2000/svg" enable-background="new 0 0 3166 2668" version="1.1" viewBox="0 0 3166 2668">
 <g id="change1_1"><path d="m888.1 60.15c0.1-4.73 0.57-9.56-0.68-14.18-0.81 4.69-0.68 9.47-0.55 14.21l1.23-0.03z" enable-background="new " fill="inherit"/></g>
 <g id="change1_2"><path d="m572.61 581.38c-3.43 2.44-6.32 5.63-8.76 9.05 3.48-2.23 7.88-4.72 8.76-9.05z" enable-background="new " fill="inherit"/></g>
 <g id="change1_3"><path d="m514.65 1080.7l0.07-0.72-0.77-0.26c-8.48 3.624-29.618 13.874-37.9 21.19 3.823-0.487 25.154-14.285 38.6-20.21z" enable-background="new " fill="inherit"/></g>
 <g id="change1_4"><path d="m584.19 1294.9c-3.07 0.85-5.91 2.33-8.84 3.56-4.08 1.7-8.48 2.39-12.67 3.72 0.34 0.24 1.02 0.73 1.36 0.98 5.63 0.508 18.296-5.431 20.15-8.26z" enable-background="new " fill="inherit"/></g>
 <g id="change1_5"><path d="m2854 1334.2c8.55 12.814 18.99 26.659 19.82 27.66-1.937-5.779-14.789-24.131-19.82-27.66z" enable-background="new " fill="inherit"/></g>
 <g id="change1_6"><path d="m3051.6 2200.7c-30.713-5.625-32.615-5.401-51.394-16.369-3.65-3.95-8.23-6.77-12.62-9.75-1.62-3.27-5.03-5.15-7.2-7.99-2.79-2.97-4.88-6.93-8.07-9.26-4.18-5.8-4.41-13.01-5.61-19.77-1.04-6.87 0.11-13.8-0.54-20.67-0.52-3.2 1.4-6.09 1.27-9.25 0.24-0.09 0.71-0.29 0.95-0.38 0.78-4.35 1.2-8.75 1.33-13.15 2.252-3.57 2.263-12.834 1.63-27.85 7.647-10.196-2.345-47.116-2.29-57.45 4.84 5.68 6.23 13.34 9.02 20.11 7.251 18.602 2.862 43.703 3.37 49.09 3.96-11.24 2.37-23.47 1.52-35.11-2.79-21.36-16.27-39.04-22.45-59.33-2.34-4.36-1.55-9.79-4.48-13.81-0.33-0.85-0.64-1.67-0.94-2.45 0.88-5.15-1.11-10.24-0.7-15.41-1.06-11.26-1.35-22.73 0.68-33.88 2.761-6.289 0.741-12.018 1.81-22.13 0.39 0.48 1.17 1.44 1.56 1.92 0.5 15.84 0.26 32.44 7.22 47.08-0.1-2.37-0.06-4.75-0.82-6.99-4.942-16.344-4.436-55.117-1-66.97 2.9-3.72 3.12-8.44 4.95-12.63 1.64 5.59 5.08 10.41 7.18 15.83 2.46 6.44 7.33 11.38 11.74 16.52 3.186 2.916 13.75 19.88 14.18 20.89 0.32 0.96 0.54 2.11 1.3 2.96 0.37 3.96 3.45 6.84 4.86 10.45 2.55 6.08 5.25 12.12 7.64 18.29 2.509 6.291 5.384 22.863 8.86 27.82 1.45-11.11-7.38-34.227-12.22-44.75 0.39-0.15 1.18-0.44 1.58-0.59 2.55 4.71 7.43 7.97 8.86 13.32 4.548 16.423 9.918 19.992 4.57 54.92 4.32-5.46 2.5-13.1 3.91-19.5-0.09-5.18 1.97-10.36 0.51-15.45-1.13-6.03-3.01-11.89-3.77-17.97-2.03-4.55-3.97-9.18-4.84-14.11 3.52 3.34 5.34 7.93 7.8 12.03 1.608-6.432-13.329-22.721-16.28-35.74-4.52-9.01-10.04-17.49-14.7-26.42-3.25-6.44-3.12-13.92-5.82-20.5-0.71-10.39-2.86-20.65-3.28-31.07 2.122-3.525-0.676-13.111 1.72-21.46 0.87 6.08 1.23 12.29 3.17 18.19 0.95-3.32-0.08-6.72-0.37-10.04-1.306-9.207-1.937-34.99 4.18-58.86 0.33 4.85 4.53 8.02 4.74 12.86 1.03 4.94 2.41 9.82 2.92 14.88-0.51 7.72 3.24 14.8 3.48 22.46 0.65 2.5-0.18 5.85 2.02 7.7-0.36-2.98-0.68-5.96-0.67-8.94 0.68 0.64 1.4 1.3 2.16 1.98 1.503 14.064 0.962 14.784 2.06 19.68-1.453 7.006 3.946 25.31 6.65 29.47 1.34 5.57 3.75 10.83 5.5 16.29 1.73 5.49 2.47 11.34 5.23 16.48-0.07-3.5-1.93-6.67-1.75-10.17 5.25 8.02 8.82 17.61 16.84 23.5 1.81 1.11 3.73 4.8 6.09 3.2-2.45-3.03-5.7-5.31-7.91-8.51-1.49-2.13-2.95-4.26-4.61-6.22-8.392-10.063-14.916-28.568-15.38-29.57-0.253-10.141-1.876-9.089-6.26-31.67-0.51-3.47 0.07-7.04-1.01-10.41 0.23-0.51 0.71-1.52 0.95-2.03 2.641 4.469 4.075 22.912 9.24 22.95-1.56-5.64-4.1-11.06-4.56-16.96 3.303 6.131 14.405 44.568 26.83 54.01-2.336-5.898-14.96-21.339-19-46.11-1.7-6.414-6.619-43.998-10.33-48.32-2.078-9.579-5.944-26.062-6.06-26.5 0.13-0.9 0.38-2.68 0.5-3.58 0.88 1.43 1.82 2.87 2.74 4.34-11.153-35.971-23.895-58.295-21.5-69.02-3.29-8.52-6.42-17.13-8.2-26.1 0.87 0.64 1.81 1.28 2.7 2.05 0.212 1.761 16.991 26.618 39.16 41 5.24 3.45 9.8 8.28 15.97 10.1-5.153-4.491-21.43-14.19-24.4-19.79-1.6-3.09-5.29-4.29-6.87-7.39 9.04 3.77 16.83 11.75 27.16 11.91-2.572-1.192-31.278-12.33-37.15-23.55 6.013 4.332 24.639 13.892 32.14 13.59-12.24-4.83-24.79-9.7-35.13-18.02l-0.43-0.11c-4.25-4.65-7.15-10.22-10.29-15.6-1.604-9.192-4.29-5.257-4.29-19.47 2.796-5.439 0.679-17.467 1.58-26.65 5.442 23.073 5.146 36.035 5.17 36.15 2.519-19.647-8.138-69.613-27.88-89.04-19.055-27.217-19.557-25.298-19.17-28.45 7.55 8.34 16.21 15.67 24.49 23.31 0 0-33.928-39.569-33.93-39.57-0.842-1.997-13.893-20.778-14.67-21.78 2.17-0.02 3.15 2.15 4.47 3.56 11.177 13.534 24.781 25.757 30.09 28.01-10.796-12.333-20.497-12.817-50.06-58.8 0.46-4.77-2.74-8.71-4.2-13.01-3.83-7.78-5.15-16.65-10.06-23.88-6.93-12.324-5.15-21.734-9.85-24.95 0.28 2.9 2.4 5.68 1.24 8.64 1.11 3.53 3.15 6.81 3.51 10.57 0.27 2.89 2.05 5.39 2.19 8.34-2.91-5.33-5.84-10.8-6.78-16.86-0.7-2.12-0.73-5.16-3.06-6.11-0.33-2.08-0.21-4.22-0.7-6.24-1.9-3.96-4.98-7.42-5.61-11.9-1.02-5.23-4.84-9.33-6.06-14.48 4.04 1.86 5.69 6.29 9.15 8.87 2.06 1.65 2.67 4.39 3.9 6.65 1.94-1.98-0.86-4.7-2.03-6.38-3.55-2.23-5.03-6.38-8.46-8.7-3.76-2.96-5.89-7.37-9.16-10.76-3.35-3.55-6.75-7.45-7.88-12.32 3.24 2.9 4.69 7.21 7.84 10.22-2.97-9.17-11.75-14.87-14.93-23.96-1.13-3.78-3.91-6.95-4.36-10.9 0.65 0.14 1.94 0.41 2.58 0.55-6.5-8.36-12.46-17.32-20.76-24.03-1.61-1.98-4.69-3.32-4.87-6.08 11.24 5.9 22.03 12.61 32.64 19.56 1.21 2.01 3.44 3.02 5.33 4.34 52.699 36.117 84.4 64.57 84.4 64.57-17.413-20.271-88.19-70.044-89.19-71.04 9.366 2.958 28.484 16.894 35.24 18.85-45.467-29.631-44.687-27.928-47.33-26.75-5.32-3.66-10.9-6.94-16.48-10.15-5.914-7.573-29.866-18.878-36.17-23.76 40.603 15.095 74.94 39.201 75.94 39.78-26.747-24.229-94.167-47.953-119.1-64.84 19.105 3.899 51.673 21.201 57.42 23.14-3.047-4.398-31.706-16.17-38.41-19.22 7.993 0.163 47.929 16.215 53.36 17.04-4.407-3.573-50.617-20.912-94.01-28.81-1.41-1.01-2.78-1.96-4.16-2.9 6.56 0.08 12.96 1.99 19.53 1.77-0.92-1.08-2.21-1.38-3.39-1.83 3.04 0.25 6.14 0.19 9.15-0.58 5.23 0.54 10.22 2.27 15.41 3.09 2.547 3.079 24.371 5.235 41.56 9.68 19.79 6.75 41.32 5.09 61.1 11.94 10.63 3.74 21.56 6.62 32.51 9.3-11.792-5.254-26.804-7.275-31.22-10.69 12.534-0.136 30.569 9.548 119.28 3.4 5.16-1.03 10.43-0.84 15.69-0.84 0.01-0.3 0.03-0.88 0.04-1.17-24.507 0.529-113.6 10.694-172.71-13.39-4.79-0.85-8.29-4.76-13.13-5.32-4.84-1.1-9.52-2.9-13.77-5.42 1.6 0.02 3.28 0.04 4.92 0.33 37.803 7.677 29.436 12.57 43.06 9.95-2-0.56-4.06-0.84-6.07-0.9-5.65-0.19-10.47-3.55-15.8-4.97-26.417-7.661-28.217-5.372-46.68-10.7 2.99-1.48 6.37 0.08 9.56-0.2-5.54-2.1-11.44-2.82-17.11-4.35 0.81-0.25 2.42-0.76 3.23-1.01 15.8 2.35 31.22 6.67 46.72 10.39-72.072-22.598-127.5-18.315-146.33-19.52 3.37-0.51 6.8-0.76 10.16-1.5 7.07 1.756 46.516-4.146 72.17-0.29 5.71 0.37 11.24 2.43 17.02 2.12-15.49-3.05-31.2-5.53-46.97-6.09 7.754-1.646 68.728 1.954 71.35 6.2-4.34 1.06-8.72 3.31-13.25 2.06-5.03-1.25-10.05 0.96-15.08 0.16-3.32-0.25-6.87-1.21-9.93 0.53 1.005 0.036 26.724 2.554 31.21 0.97 2.52-2.56 6.47-2.62 9.74-3.74 7.39-0.41 14.54 2.53 21.91 2.91-18.01-5.29-36.74-7.43-55.32-9.67 4.103-1.961 25.444 1.487 31.36 0.72-11.217-3.872-52.818-6.331-65.08-6.85 2.19-3.35 6.84-1.3 10.18-2.39-4.996-0.21-53.996-1.012-58.35 1.57-3.392 0.615-35.999 4.716-43.09 8.96-6.14 0.79-12.22 2.06-18.3 3.13 0.13-0.37 0.4-1.12 0.53-1.5 4.12-0.92 8.39-1.54 12.28-3.33-9.27-0.27-18.23 2.5-27.17 4.52-11.88 2.11-24.03-0.13-35.97 1.18-3.82 0.34-7.64-0.99-11.4 0-2.392-0.568-25.59-3.531-28.33-3.57 4.75-2.96 10.56-1.7 15.8-2.95-11.39-2.01-22.98 2.07-34.25-0.76 1.59-1 3.33-1.72 5.16-2.24-11.653-1.513-37.967 6.896-60.95 6.18-7.33 0.25-14.64-2.17-21.93-0.55-2.01 0.48-3.88 1.68-5.96 1.56-4.79-2.3-8.09-7.29-13.35-8.69-10.13-8.32-19.99-17.01-30.66-24.62-4.458-9.038-117.53-77.923-127.19-78.19-44.57-22.285-120.11-55.872-169.37-61.81-0.03-0.14-0.08-0.42-0.11-0.57-1.545-0.156-62.813-11.837-134.3-13.46 1.26-0.27 2.54-0.53 3.85-0.77-3.599 0.232-60.241-1.005-61.25-1.05l-0.05-0.89c-43.502-1.095-104.47-4.766-109.1-3.8-4.43-0.32-8.86-0.09-13.28-0.32 0 0-253.58-12.029-313.5-61.99-0.99-2.06-2.8-3.99-2.48-6.41 1.274-15.091 2.628-14.206 6.5-21.27 2.28-3.81 3.09-8.49 6.51-11.56 0.36 1.26 0.85 2.48 1.47 3.67 0.94-3.34 1.82-6.69 2.6-10.06 12.573-77.629 16.615-62.31-9.28-127.77 0.05-1.03 0.64-2.18-0.11-3.07-17.019-25.035-4.792-2.125-16.76-27.57-1.98-5.38-5.61-9.98-7.25-15.49-4.731-12.692-10.28-29.65-10.28-29.65 1.995-7.306-16.602-49.391-17.3-52.7-0.038-1.015 3.928-19.467-1.41-39.59-4.663-24.47-26.664-66.762-29.6-70.27 0.76-1.45 1.56-2.95 1.33-4.64-0.81 0.89-1.57 1.81-2.32 2.74-0.59-1.03-1.17-2.04-1.74-3.04 0.17-0.78 0.5-2.32 0.67-3.1-1.09 0.6-2.11 1.25-3.14 1.91 2.4-5.51 1.7-13.54-4.67-15.94-0.383-8.488-8.042-9.527-9.62-14.57-0.12-4.1-4.06-6.05-6.99-8.08-3.18-1.72-0.13-5.81-1.53-8.49-1.53-6.26-8.38-8.22-13.56-10.55-0.18-1.23-0.32-2.45-0.41-3.67-1.51-1.17-3.07-2.32-4.57-3.45 5.671-4.527 6.571-3.32 7.6-11.78-0.64-2.65-2.58-4.75-3.9-7.08 2.44-5.61-3.02-9.92-5.88-14.02-2-1.28-4.13-2.34-6.09-3.65-0.69-2.73-0.52-5.72-1.71-8.27-11.851-12.707-10.113-4.437-13.52-13.64-1.18-3.69-4.07-6.44-5.89-9.79 0.34-0.42 1.02-1.27 1.36-1.7-1.71-1.82-3.52-3.56-5.53-5.02-1.49-4.84-5.06-8.63-9.71-10.58-1.381-6.79-2.896-5.781-8.4-9.64 1.178-10.083-5.668-13.183-14.58-15.76 0.25-3.24-2.73-4.78-5.24-5.88 0.36-0.51 1.08-1.54 1.43-2.05 3.235-0.334 8.344-9.287 1.24-15.33 0.62-6.9-4.84-13.3-11.2-15.38-0.62-0.83-1.22-1.65-1.82-2.46 0.17-5.08-3.84-8.78-7.95-11.01-1.65-0.74-3.42-1.09-5.09-1.67-1.55-6.67-6.81-12.06-12.84-15.07-0.95-4.99-6.96-2.94-10.45-3.51-1.65-2.52-4.04-4.41-6.83-5.5-0.68-4.31-5.47-5.95-9.14-6.93-0.15-0.31-0.44-0.91-0.59-1.21-0.43-4.06-5.03-4.55-7.84-6.32-2.115-4.396-0.576-11.781-14.39-11.55-0.9-2.81-3.41-4.58-5.81-6.02 2.768-3.666 4.731-5.81 4.09-10.99-3.402-5.694-3.245-0.444-5.44-11.79 1.66 0.52 2.29 2.18 3.08 3.56-0.11-0.58-0.34-1.74-0.46-2.32-0.97-1.05-1.96-2.06-2.9-3.1-0.12 0.38-0.36 1.13-0.47 1.51-0.94-0.32-1.85-0.64-2.75-0.96-0.94-1.74-2.58-2.68-4.42-3.17-0.16-0.28-0.48-0.85-0.64-1.14-0.7-0.07-2.09-0.2-2.79-0.27-0.33-0.36-0.98-1.08-1.31-1.44-1.28-3.13-2.38-7.39-6.3-7.99-1.87-2.76-5.72-2.93-8.64-3.87-2.17-3.35-4.21-7.25-8.1-8.84-6.1-3.51-13.06-5.5-20.12-4.9-6.802-9.553-7.059-2.471-15.41-9.67-1.51-0.21-3.01-0.39-4.49-0.6l-0.75-0.79c-1.19 0.08-2.37 0.16-3.53 0.24-4.579-8.395-2.127-1.987-8.74-7.93-2.22-0.04-4.38-0.42-6.54-0.85-1.35-2.5-3.92-3.64-6.62-3.96 1.01-3.63 1.03-7.6-0.6-11.06-1.71-1.99-4.17-3.16-6.25-4.69-2.11-5.46-8.57-8.28-14.1-8.52-2.16 0.11-3.27-2.12-4.89-3.15-3.81-6.36-12.7-3.99-17.94-8.3-11.019-8.351-22.864-4.621-27.69-4.74l0.73-0.79c-3.81-1.81-7.9-2.4-12.03-1.69-3.48-1.8-7.34-1.67-11.13-1.3-7.038-5.481-7.39-6.233-14.95-4.25-3.27 1.23-6.52-0.84-9.85-0.63-1.248-1.712-3.444-13.157-12.33-11.37-4.03-5.14-11.68-7.43-17.78-4.88-1.25-0.46-2.48-1.03-3.78-1.26-4.27-5.32-11.82-3.33-17.52-5.8-1.641-4.354-1.344-12.35-1.4-35.31-1.073-12.174-7.879-28.669-12.37-22.03-4.69 6.33-0.78 14.88-3.45 21.88-5.22 16.24-13.15 32.12-25.74 43.9-0.11 0.2-0.33 0.6-0.44 0.81-5.58-0.01-12.53-1.46-16.9 2.87-1.08-0.11-2.17-0.21-3.22-0.33l0.44-1.47c-9.623-4.649-7.85 0.405-16.8 0.63-2.53-1.41-5.34-0.17-7.99 0-1.31-1.01-2.27-2.41-3.63-3.33-12.572-6.19-44.482 5.357-46.4 11.36-1.03 0.27-1.75 1.1-2.51 1.76-8.67-63.503-28.003-57.638-32.01-27.41-0.22-0.49-0.42-0.97-0.6-1.46-1.225 14.969-21.938 38.715-31 62.65-4.36 11.77-6.59 24.17-10.1 36.2-3.01 10.02-7 20.07-7.04 30.67-2.818 1.715 1.554 11.246-5.29 12.88 0.43 0.15 1.29 0.45 1.72 0.59-3.21 4.25-5.19 9.34-8.59 13.4 0.27 0.84 0.54 1.68 0.83 2.53-3.48 6.77-8.03 12.98-13.66 18.12-5.19 2.05-9.17 6.08-12.47 10.46-8.5 0.695-1.52 2.204-17.3-2.64 1.11 0.88 2.19 1.78 3.31 2.68-4.32 1.66-8.73-1.18-13.18-0.51 5.77 3.14 12.57 3.09 18.89 4.26 0.34 0.35 1.02 1.06 1.37 1.41-4.75 0.84-9.64-0.11-14.35 0.87-2.49 1.04-5.18 0.79-7.8 0.71 5.576 2.727 11.341 0.361 20.8 1.61-0.97 1.97-1.9 3.95-2.77 5.97-15.595 2.326-24.155 0.4-33.91 2.42 1 0.085 29.964 2.741 31.61 3.33-4.11 4.97-8.63 9.89-14.44 12.85l-1.01-0.37c-2.17 1.72-4.38 3.5-5.65 6.03 2.15-0.9 4.07-2.38 6.33-3 1.67 1.49 3.35 3 5.41 3.96-0.64 1.32-1.21 2.73-0.29 4.12-1.84 2.25-4.4 3.88-5.77 6.5-6.299 4.203-13.851 13.64-15.53 17.87-2.44 3.25-5.58 6.14-9.61 7.17-3.1 0.11-5.98 1.45-9.08 1.51 2.26 0.45 4.63 0.89 6.42 2.48-4.29 2.48-7.11 6.67-10.57 10.08-1.83 1.87-4.59 1.99-6.99 2.56 2.73-0.35 5.89 0.43 8.19-1.45 9.216-6.671 10-10.376 21.9-12.11-3.487 4.194-5.414 7.802-9.92 10.42 0.63 0.01 1.9 0.02 2.54 0.03-0.35 0.65-1.06 1.94-1.41 2.59 2.89-2.42 6.6-4.4 8.48-7.66 3.05-3.8 5.21-8.34 9.06-11.45 5.47-4.21 9.13-10.49 15.66-13.32 0.32 0.28 0.95 0.85 1.27 1.13-1.47 1.35-2.84 2.82-3.19 4.87 0.51 0.58 1.55 1.76 2.07 2.34-7.42 6.69-12.72 15.39-16.26 24.66-3.7-1.54-7.61-2.43-11.46-3.43 3.82 1.35 7.79 2.21 11.58 3.67-0.43 2.36-1.48 4.47-3.3 6.05-2.65-0.36-5.32-0.44-7.98-0.24 0.65 0.52 1.94 1.56 2.59 2.08-4.65 6.64-13.69 3.72-20.51 4.58 0.15 0.49 0.43 1.46 0.57 1.95l-0.66-0.04-0.07 0.38c4.75 1.17 9.67 0.87 14.52 1.09-1.99 2.64-4.05 5.26-5.54 8.23 0.3 0.49 0.92 1.45 1.23 1.93-0.65 1.21-1.27 2.44-1.9 3.66-0.67 0.01-1.33 0.04-1.98 0.09-0.37 0.35-1.13 1.06-1.51 1.41-1.03 0.21-2.05 0.44-3.06 0.67 4.28 0.29 8.29-1.35 12.42-2.18 0.05 0.6 0.15 1.8 0.21 2.39-1.33 1.97-2.8 3.83-4.07 5.83-2.34 1.87-1 5.25-0.22 7.6-3.12 2.837-41.199 13.028-42.2 13.25 1.31 0.18 2.62 0.37 3.95 0.56-1.03 0.54-2.01 1.15-3.02 1.71 7.18-0.69 14.22-2.4 21.29-3.81l1.6 0.6c5.79-0.18 11.4-1.93 17-3.16 1.26-0.47 5.05 1.33 4.12-1.28 0.334-0.057 25.021-4.601 25.35-4.52-2.23 3.57-3.31 7.71-5.61 11.24-0.97 1.57-2.03 3.11-2.7 4.84-0.88 0.42-1.46 1.08-1.72 1.99-2.64 2.95-4.95 6.17-7.44 9.24-4.01 2.27-6.19 6.45-9.3 9.67-1.79 2.01-4.34 3.81-4.24 6.79-3.01 4.42-6.98 8.96-7.2 14.54 2.83-4.61 5.04-9.7 8.98-13.53 0.06 0.63 0.19 1.87 0.26 2.5 5.48-7.452 12.815-12.995 30.03-31.83 0.01 4.62-1.05 9.11-2.08 13.59-2.23 2.02-2.58 5.17-3.68 7.82-1.12 3.77-3.58 6.93-4.76 10.67 1.96-1.72 3.33-3.96 4.74-6.12 0.15 0.47 0.45 1.4 0.6 1.87-9.024 25.175-23.317 35.468-26.56 48.28l-0.25 0.19c-3.69 8.08-7.57 16.13-9.89 24.74-6.635 19.794-20.463 21.874-25.67 26.18-4.35 0.1-8.39 2.08-12.76 2.15 3.8 0.34 7.61 0.18 11.42 0.23-0.87 1.04-2 1.69-3.41 1.95 2.87 0.09 5.51-1.03 8.06-2.23 0.3 0.72 0.91 2.14 1.21 2.85-4.48 5.65-8.52 11.76-11.25 18.44-2.32 2.35-4.63 5.01-5.1 8.41-0.82 0.78-1.62 1.59-2.41 2.41-0.844 0-8.157 3.59-11.74 7.39 2.64-0.01 5.3-0.15 7.93-0.42 5.687-4.097 8.385-4.883 10.86-7.95 3.83-5.16 8.94-9.35 11.66-15.29 1.99-4.59 6.41-7.33 8.87-11.54 2.78-1.16 5.12-3.1 7.45-4.97l0.06-0.24c3.04-0.59 5.65-2.28 8.33-3.72l-0.16-1c0.4 0.52 1.19 1.56 1.58 2.08-0.78 1.22-1.37 2.55-1.84 3.92l-0.319 0.15c-1.672 5.521-2.201 5.787-8.62 17.55 1.49-0.86 2.98-1.72 4.48-2.57-2.55 5.72-6.74 10.6-11.04 15.1 2.71-1.89 4.8-4.61 7.87-5.99 1.37-1.75 9.035-9.285 15.08-24.9 2.61-3.22 3.71-7.33 5.43-11.04 0.21 1.94 0.61 3.85 1.5 5.63-3.679 13.65-23.538 69.727-29.91 86.95-4.467 12.628-4.316 19.016-19.12 40.29-2.31 3.03-2.1 6.89-2.59 10.45-1.31 3.45-4.25 5.99-5.51 9.48-5.822 15.652 2.108 23.412 11.54 34.5 2.152 9.629-0.891 12.917 10.52 31.85 10.01 14.929 9.087 49.968 57.5 43.06 1.12 1.23 1.28 3.04 2.01 4.52-0.44 0.99-0.87 1.99-1.3 3 2.15 1.94 4.08 4.47 7.09 5.05 5.17 3.68 11.38 5.72 17.58 6.8l-0.91 0.48c7.346 1.128 31.234 9.419 32.25 9.81 0.49 1.52 1 3.06 1.51 4.6-3.86 2.68-8.5 2.16-12.79 0.99-0.31 0.95-0.6 1.9-0.9 2.87-28.593-7.046-38.541-10.423-49.14-12.16 5.178 3.996 44.084 14.543 48.16 15.42-4.03 1.66-8.47 0.56-12.59 1.74-5.86-1-12.41-0.86-17.79 1.83-8.07-0.71-16.14-2.61-24.27-1.42 0.01 0.54 0.03 1.61 0.04 2.14-0.75-1.04-1.51-2.06-2.28-3.06-0.16 0.64-0.46 1.91-0.61 2.55-1.58 0.2-3.16 0.37-4.72 0.61-4.819-0.712-22.989-0.942-55.75-9.86 2.463 5.141 53.547 13.974 60.25 12.58 0.29 0.12 0.85 0.36 1.13 0.48 24.065 1.81 12.869 3.275 64.52 0.94-1.02 5.1-3.93 9.44-6.7 13.74-4.4 0.35-7.88 3.45-12.12 4.45-4.087 1.615-19.937 1.566-23.29 3.09 4.29 1.221 25.129 1.863 26.13 1.91-14.461 6.919-82.8 10.4-83.8 10.53-3.426-0.989-14.713 1.567-20.25 1.73 2.229 0.986 84.065-3.504 96.53-8.08 1.12 0.64 2.27 1.31 3.38 2.03-22.26 25.521-27.436 36.344-47.73 39.86-3.04 0.22-6.12 0.4-8.98 1.54-4.53 1.8-9.55 1.13-14.12 2.78-11.93 3.9-24.35 6.14-36.86 6.95-3.45-0.07-7.07-0.21-10.07 1.79-4.35-1.17-8.76-2.17-13.26-2.39 2.65 2.47 6.52 2.43 9.39 4.49-3.47 0.27-7.07-0.43-10.38 0.86 7.02 1.2 14.18 0.28 21.25 0.98-10.947 4.928-19.025 1.519-25.24 6.14 7.05-0.27 14.02-1.6 21.08-1.71 5.11-1.06 10.45 0.76 15.39-1.31 8.46 2.36 17.19 3.71 25.77 5.67-4.65 3.12-10.66 4.47-14.32 8.85-29.055 0.786-8.584-0.164-42.68-0.78 2.093 0.638 30.911 3.075 35.43 3.53-5.41 3.71-12.14 4.93-17.39 8.83 19.423-5.919 22.086-8.94 27.02-8.63-2.464 6.949-50.405 24.255-90.77 23.33-0.27 0.29-0.83 0.87-1.1 1.16 45.362-0.594 66.696-6.284 97.35-23.93 6.39-0.56 12.88-0.31 19.32-0.21-2.24 1.62-4.54 3.15-6.88 4.62 0.85 0.49 1.71 0.99 2.59 1.51-3.98 0.52-9.24 1.33-10.88 5.57 1.33 0.11 2.66 0.23 4 0.35-1.56 1-3.58 1.84-3.64 4.02-2.77 1.39-5.3 3.29-7.42 5.56-1.773-0.274-32.872 14.627-34.9 16.78 4.69-0.42 9.17-2.19 13.88-2.24-25.79 18.924-56.052 26.703-73.94 36.04-39.348 13.719-114.96 74.042-123.56 83.29 45.731-32.863 54.569-53.014 163.99-98.75 48.73-25.667 77.53-48.09 77.53-48.09 3.149 0.547 2.52-0.145 19.27-4.09 1.82-0.6 3.97 0.79 5.42-0.92 0.37 0.11 1.1 0.32 1.47 0.43-12.479 17.857-33.033 43.339-50.89 58.16l-0.38-0.76c-8.02 6.55-15.73 13.51-24.41 19.19-2.18 1.88-5.45 2.87-6.7 5.6-6.24 3.71-38.01 22.04-47.61 27.59-2.93-0.4-5.15 1.65-7.56 2.92-2.5 1.47-5.48 2.28-7.36 4.62 4.65 0.51 8.36-4.22 12.9-2.94-4.595 2.646-49.145 25.228-50.76 26.2-21.638 11.7-81.256 60.738-81.91 62.84 16.193-12.253 61.586-52.078 89.69-65.25 25.528-12.469 61.487-31.741 64.17-33.59 11.91-5.36 24.34-9.88 35.19-17.3 0.09 0.36 0.28 1.07 0.37 1.42-7.09 6.32-15.79 10.22-24.46 13.83-0.15 0.58-0.44 1.74-0.59 2.32 7.601-2.534 86.319-41.368 87.32-41.9 0.51 0.25 1.53 0.76 2.04 1.01-1.6 1.15-3.08 2.47-4.47 3.87-0.68-0.02-1.35-0.02-2.01-0.02-5.661 6.259-26.104 14.897-41.13 24.7 0.46 0.93 1.06 1.82 1.65 2.7 3.46-0.07 6.93-1.39 9.31-3.94 13.521-4.999 26.693-14.474 47.93-23.89-0.59 1.1-1.1 2.26-1.56 3.44 6.828 12.78-68.649 52.353-71.53 55.42 20.58-6.694 68.74-44.162 69.75-44.91-0.35 3.37-0.56 6.76-0.46 10.16 1.14-4.52 1.64-9.42 4.22-13.41 15.305-12.088 67.595-59.268 67.6-59.27-5.163 28.576-13.746 40.732-15.94 45.45 9.442-10.882 12.509-29.27 15.89-34.2-6.459 57.889-27.684 71.132-31.83 82.37-3.98 8.41-10.51 15.78-12.25 25.14-0.73 1.001-17.588 39.513-18.56 61.11l-0.33 0.62c-3.665 2.068-6.264 29.708-37.11 40.2-4.64 1.43-8.17 5.26-13.09 5.91-24.454 6.57-47.499 0.41-77.92-3.38-4.32 0.76-8.68-0.92-13.04-0.13 60.762 6.501 25.579 3.348 73.12 11.62l0.43 0.99c-1.96 3.01-6.69 1.8-8.62 4.62 4.86 0.54 9.26-2.26 14.1-2.01 2.33-0.19 5.01 0.47 6.96-1.17-4.23-0.57-8.36 0.78-12.57 0.76 1.203-3.124 6.885-2.994 12.61-2.57 0.57 0.57 1.11 1.18 1.63 1.84 3.48-1.41 7.21-1.97 10.73-3.24 1.99-0.66 4.13-1.65 6.21-0.67-1.72 4.3-3.72 8.48-5.44 12.79l0.93-0.43c-0.619 1.003-8.772 12.366-15.16 30.43l-0.64-0.61s-11.189 19.558-11.19 19.56c-1.08 0.75-2.09 1.63-2.85 2.73-5.615 1.694-17.707 10.826-23.21 11.3-3.36 0.14-6.72 0.3-10 1.1 3.9-0.13 7.96 2.07 11.64 0.04 5.21-2.64 11.1-1.04 16.6-2.31-2.06 1.86-4.18 3.66-6.31 5.45 4.93 0.06 7.58-5.08 11.77-6.92 3.28-1.43 5.97-4.13 9.36-5.18 0.11 0.57 0.35 1.7 0.46 2.27 2.2-6.31 8.97-9.35 11.17-15.61 10.401-6.756 15.248-22.778 23.13-33.31 2.04-2.72 5.26-4.64 6.23-8.05 8.791-7.854 29.164-17.326 33.99-19.9 0.04 1.37 0.08 2.75 0.12 4.15-0.53 1.9-1.48 3.74-1.52 5.76 0 0.001-6.94 20.709-6.94 20.71h-0.62c-2.39 5.24-5.46 10.11-8.44 15.03-4.42 4.01-7.07 9.64-12.02 13.11-5.32 3.88-9.65 8.99-15.55 12.07 10.833-2.741 25.979-18.929 33.74-28.36 2.41-0.6 4.01-2.57 5.7-4.23 0.22 0.45 0.68 1.34 0.9 1.79-15.203 25.053-22.289 32.276-40.37 43.07-0.76 2.29-2.84 3.43-4.91 4.36l-0.85 0.01c-5.738 4.881-0.161 2.282-32.25 2.46-18.786 0.235-42.344-5.141-47.3-3.69-17.22-2.17-33.73-8.1-50.98-10.01 0.37-0.17 1.09-0.52 1.45-0.69-13.22-1.61-26.66-3.24-39.92-1.08l0.02 0.91c-21.29 3.37-40.38 14.22-58.52 25.31-7.444 4.733-29.696 8.615-53.22 55.97-6.551 11.117-11.135 30.301-32.77 57.2-4.253 4.991-56.078 72.768-65.68 84.28-107.01 130.54-97.825 78.424-137.75 196.83-4.06 12.34-8.73 24.57-11.09 37.38l-0.8-0.04c-2.51 13.05-3.27 26.36-4.63 39.56-1.474 3.336 0.313 15.915 0.9 18.64l0.8-0.08c0.129 7.005 1.584 88.826 10.74 99.12 4.116 0.754 1.133 1.973 53.5-37.09 68.196-53.477 84.292-56.233 85.11-70.37 0.86-9.75-0.77-19.69-4.04-28.89-2.299-6.43 4.777-17.042-20.81-28.51-5.635-2.894-7.819 0.738-14.9-19.44-2.14-5.65 0.35-11.75 3.24-16.63 3.99-2.99 9.22-2.01 13.55-0.39 39.187 14.284 79.314-98.488 159.71-187.18 3.3-1.26 4.99-4.61 7.19-7.12 12.481-17.354 20.038-24.722 21.14-29.08 13.454-16.16 47.781-50.951 68.43-46.97 4.976 0.959 12.91-0.432 31.49 4.28 133.11 29.496 73.211 20.533 187.47 45.57 0.04 0.14 0.12 0.41 0.16 0.55 8.06 1.15 15.81 3.82 23.76 5.57 0.729 3.37 3 7.436 5.96 9.47-0.84-2.43-1.98-4.72-3.2-6.94 1.37-0.26 2.76-0.5 4.15-0.73 1 0.29 93.671 26.643 111.43 29.08-8.946 19.773-24.729 61.356-31.38 93.97-8.882 9.664-17.423 91.659-18.93 105.76-0.14 0.04-0.43 0.12-0.57 0.16-1.061 8.907-14.523 58.643-24.51 83.17-1.21 1.04-2.04 2.43-2.61 3.92-10.651 25.89-36.603 62.449-48.01 111.45-3.627 14.717-14.915 34.459-14.43 42.85-4.28 12.23-4.34 25.38-8.09 37.74-2.8 3.25-3.11 7.79-4.7 11.66-4.131 13.499-31.212 62.486-31.23 69.78-29.693 64.67-93.151 159.05-108.12 175.88-43.349 40.1-86.004 47.491-102.35 75.72-1.735 2.393-35.898 42.081-51.09 63.83-6.704 9.667-33.469 31.888 55.24 47.57 26.689 4.393 87.303 10.273 106.24 2.63 10.085-4.126 21.628-22.709 26.25-37.08 14.729-13.527-0.455-36.44-1.97-42.72-2.7-5.74 0.29-11.87 2.26-17.32 2.66-7.69 9.74-12.26 15.1-17.93 4.12-4.36 9.89-6.24 15.02-9.06 5.72-0.42 11.52-2.45 17.22-0.61 3.94 0.54 8.47 2.79 12.18 0.42 48.21-11.059 47.232-88.126 131.43-229.33 2.65-1.64 3.85-4.64 5.37-7.19 5.798-11.091 18.98-42.119 40.59-63.29 26.563-28.586 39.461-55.77 41.26-67.79 77.174-153.38 70.239-131.07 142.31-240.81 16.736-23.452 14.663-30.417 33.67-47.2 17.455-17.132 31.553-21.801 51.73-51.31 3.78-5.46 9.32-9.25 14.18-13.65 24.137-7.919 9.515-4.833 31.22-5.16 27.59 7.81 54.45 17.96 82.07 25.67 380.14 102.9 405.87 80.456 500.2 79.14-0.35-0.19-1.07-0.55-1.42-0.73 69.118-4.063 168.44-35.964 202.77-41.6 15.59 53.144 26.02 103.26 26.02 103.26-0.945 5.736 25.654 80.056 30.65 83.78 88.488 207.59 147.5 194.17 0.76 334.7-13.6 11.97-25.59 25.66-39.61 37.17-85.083 76.263-111.04 73.816-143.83 103.5-11.704 12.4-25.909 14.52-56.56 23.88-23.657 6.533-57.271 18.693-71.99 38.46-5.22 7.15-12.66 12.65-16.51 20.79-3.31 7.15-9.32 12.53-13.78 18.94-7.44 9.92-14.81 19.92-21.42 30.43-4.93 7.89-9.14 16.21-13.48 24.44-1.7 3.9-4.53 8.25-2.63 12.61 12.32 18.48 111.96 21.798 134.89 17.33 5.29 0.17 10.42-1.76 15.72-1.08-0.57-0.31-1.11-0.59-1.63-0.83 6.61-0.7 14.15-1.2 19.08-6.27 11.255-11.125 14.98-29.519 18.58-34.21 5.22-7.06 4.28-17.82-1.81-24.07-3.48-3.53-5.91-8.15-6.68-13.02-1.799-11.464 40.589-10.703 42.74-10.51 12.429 2.414 13.691 10.476 22.06 12.29 5.49 1.14 11.37 2.15 16.88 0.51 28.166-11.266 44.533-32.132 53.38-40.99 61.944-66.733 10.737-6.469 251.2-222.48 21.986-1.764 94.686-19.501 117.08-22.19 7.93 1.34 16.04-2.33 23.88 0.22-2.39 2.67-6.08 3.23-8.8 5.34-5.314 1.233-31.26 6.658-39.99 12.72-14.489 5.145-66.633 22.103-73.87 36.15 1.864 3.746 6.356-6.865 13.19-8.06-2.23 4.54-8 6.33-9.79 11.3-0.88 2.99-4.54 3.98-5.16 7.1-5.53 3.83-7.22 10.74-10.06 16.47-3.61 4.31-6.34 9.21-7.41 14.78-0.78 4.72-4.69 8.5-4.4 13.38 4.64-4.41 5.89-11.09 9.53-16.22 0.71 4.31 0.81 8.7 1.48 13.04l2.52 0.04c-0.58-4.26-1.53-8.58-0.75-12.86 0.5-2.8 1.01-5.64 0.64-8.46 2.05-4.22 3.8-8.6 6.41-12.52 4.81-6.53 12.78-9.83 17.85-16.03 7.95-6.08 16.96-10.5 25.85-15.01 1.43 0.13 2.88 0.29 4.36 0.48-0.97 1.8-2.74 2.77-4.46 3.76l-0.92-0.12c-4.04 1.26-5.53 5.72-9.31 7.35-3.3 2.31-7.06 4.78-8.68 8.6 5.321-2.35 7.9-6.471 17.09-11.01-2.03 2.98-6 4.77-6.61 8.55-4.53 4.46-10.44 8.19-12.91 14.25-8.817 2.853-13.527 50.624 3.57 64.01-2.527-6.249-14.075-24.345-5.63-51.7 1.05-0.46 2.18-0.72 3.38-0.8 1.42-5.54 4.72-10.35 6.17-15.81 1.031-1.056 17.964-16.701 18-16.75 0.51 0.44 1.52 1.33 2.03 1.77 4.48-3.11 9.92-4.51 14.29-7.75 3.52-1.22 6.91-2.81 10.3-4.37 10.84-4.67 22.47-6.95 33.67-10.54 2.26-0.08 4.53-0.48 6.71-1.19 1.37 0.07 2.76 0.17 4.19 0.31-2.653 16.1-2-0.551-2.66 22.83 0.696 35.747-29.779 38.333-31.32 45.51-2.09 0.52-4.18 1.21-5.87 2.56-13.06 4.353-25.418 16.27-27.22 20.94-1.68 4.78-6.69 7.34-8 12.35-3.42 0.9-6.23 3.12-8.85 5.38 2.96-0.99 6.05-1.51 9.18-1.78-2.24 4.87-1.12 10.16-0.23 15.21-1.94 14.711-2.658 18.242 0.12 21.6 0.95-4.57 1.16-9.35 3.03-13.67 1.61 1.41 2.61 3.35 3.9 5.09 1.92 4.63 5.3 8.4 8.8 11.92 0.684 1 18.391 32.982 27.89 37-6.17-8.11-13.83-15.21-18.2-24.56 1.28-3.47 0.17-7.04-0.31-10.51 6.23 6.15 9.95 14.51 16.77 20.1-2.647-6.761-15.035-20.063-19.25-31.89 0.18-3.09-0.1-6.31 1.01-9.22 0.905-1 13.989-13.425 16.32-18.01 3.37-2.54 6.99-4.74 10.09-7.63 2.58-2.43 6.52-2.81 8.83-5.56 1.22-0.46 2.47-0.93 3.63-1.57 6.548 1.525 19.365-7.206 25.36-9.97 4.34-2.07 7.39-5.94 11.3-8.6 3.15-1.32 6.48-2.2 9.66-3.49 0.24 2.19 0.41 4.41 0.42 6.65 0.29-0.01 0.88-0.04 1.17-0.05 0.1-3.84-0.35-8.48 3.21-10.98 2.15 2.81 0.46 7.21 3.83 9.27 0.22-2.75-0.67-5.88 1.1-8.23 6.135 9.377 6.874 22.141 17.12 36.41 19.228 28.53 18.109 29.371 22.97 29.77-7.428-11.47-4.062-8.65-6.75-17.99 2.768 1.659 30.634 28.826 35.972 32.363 0.629-1.046 1.342-2.046 2.129-2.989-10.354-12.117-47.995-53.905-44.871-69.304 0.92-3.61-1.31-6.87-2.04-10.27-3.565-11.533 1.599-32.132 1.74-33.92 12.174-16.03 30.775-21.149 38.15-25.8 2.81-1.71 6.16-3.74 9.47-1.9 5.19-1.87 11.43-2.35 15.39-6.56 6.4-3.21 13.5-4.74 19.62-8.55l0.09-0.47c5.724-0.131 15.47-7.222 19.9-10.81 7.699 0.47 34.74-19.841 41.87-25.87 5.046-1.537 15.199-15.41 19.83-19.44l1.88 0.96c3.66-2.95 5.41-7.45 7.99-11.25 1.66-2.81 4.23-5.19 4.83-8.51 2.6-2.13 4.54-4.99 5.96-8.01 2.5-1.61 4.42-4 5.99-6.5 3.99-1.28 6.77-4.58 9.95-7.12 12.14-9.76 24.5-19.41 38.4-26.54 0.16 1.95 0.18 3.93-0.01 5.92 1.04-0.71 2.14-1.36 3.27-1.99 0.13 0.38 0.38 1.13 0.5 1.5-8.66 6.316-16.066 18.869-16.85 19.87 0.51-0.12 1.52-0.35 2.02-0.46 3.667-5.62 14.973-18.907 21.6-19.84 25.054 26.412 30.122 28.212 42.36 43.45-11.707 27.376-16.165 29.515-20.37 35.86-2.99 4.35-7.06 8.03-8.7 13.21 11.933-2.625 26.85-32.131 32.03-42.5 0.56 0.01 1.66 0.02 2.22 0.03-1.52 5.18 0.43 10.91-2.02 15.86-2.77 4.73-7.18 8.96-7.56 14.74-3.59 5.17-8.53 9.12-12.56 13.89-0.092 0.026-21.883 12.56-24.54 13.77-2.13 1.06-5.04 1.32-5.94 3.87 10.34-0.749 39.613-18.311 46.16-30.47 2.56-2.47 5.02-5.1 7.34-7.78 1.68-4.21 4.31-7.89 6.69-11.7 0.52 1.01 1.03 2.08 1.54 3.18-0.77 4.19-2.52 8.05-5.34 11.25-2.4 5.11-5.34 9.94-8.03 14.91-2.27 4.02-6.43 7.21-7.01 12.02 3.862-1.531 16.906-25.499 17.52-26.5 1.78-1.61 3.93-2.79 5.63-4.52 5.35 17.12 13.44 33.29 18.12 50.64-0.26 4.36 1.5 8.44 2.43 12.64 1.18 3.76 0.5 7.85 2.02 11.56 1.48 3.89-0.53 7.92-0.88 11.86-2.512 4.76-16.89 48.816-22.71 58.48-2.659 4.705-17.245 34.911-17.44 40.35 2.89-2 3.77-5.62 5.14-8.66 3.908-11.666 21.333-45.666 31.96-52.92 1.43 2.98-0.04 6.19 0.25 9.34-4.377 8.564-14.155 31.352-13.54 41.02-2.64 2.67 1.06 7.81-1.9 9.61 0.38-1.75 0.26-3.54 0.25-5.26-1.822 2.218-12.943 43.943-6.4 62.39 2.151-4.25-1.531-8.865 0.04-16.24 2.19 6.71 1.6 14.26 5.31 20.52 0.4 9.87 5.62 18.53 9.27 27.46 0.339 6.688 9.533 22.473 10.61 24.18-0.18-5.44-3.76-9.88-4.85-15.08 4.708 4.35 7.308 10.431 9.87 9.96 0.4-1.84-1.68-2.89-2.57-4.17-3.95-3.79-6.48-8.66-9.32-13.24l-0.76-0.06c-9.339-16.071-9.795-31.854-9.3-45.17 2.16-2.43 0.91-6.05 1.39-8.99 0.32-0.26 0.98-0.79 1.3-1.06 0.487 6.717 3.197 27.01 7.24 32.85-0.44-5.98-2.45-11.7-2.83-17.67 0.84 0.32 1.66 0.8 2.47 1.46 3.903 24.717 27.012 51.79 35 58.4 2.05 1.81 5.02 3.54 4.8 6.74 0.93 5.88-0.33 11.98 0.92 17.77-2.595 10.49-15.423 38.647-21.28 45.08-7.517 7.326-22.926 3.154-31.49 21.38 0 0-21.819 34.2-39.54 65.38-5.002 10.28-14.469 21.548 0.16 30.41 11.73 6.96 25.41 9.69 38.75 11.64 3.476 4.353 98.912 7.36 116.75-3.16 13.574-2.546 17.49-12.66 25.22-31.45 2.52-1.85 2.41-5.37 3.26-8.09 0.63-4.22 4.02-7.56 3.81-11.96-0.19-2.99 1.01-6.78-1.18-9.16-0.88-8.18-5.4-15.37-10.15-21.85-0.1-3.4-2.87-5.81-3.66-8.97-1.04-3.95-1.46-8.02-2.42-11.96-0.97-4.11-1.46-8.48-0.04-12.53 2.18-6.24 3.6-12.75 6.38-18.78 1.04-2.36 2.64-4.49 3.11-7.07 0.906-1 11.268-16.998 22.52-20.53 10.363-3.375 18.883-17.531 19.22-20.89 2.06-2.48 1.64-6.01 2.15-9 0.23-0.33 0.7-0.98 0.93-1.31 3.073-41.327-9.592-51.802-11.67-65.81 4.49 2 8.99 4.48 14.04 4.65-4.36-2.25-9.01-3.89-13.11-6.57 5.4-0.61 11.26 2.75 16.32 0.15-0.788-0.34-21.45-6.34-21.45-6.34-5.224-13.698-7.799-24.768-24.94-109.68 0.882-1.096 1.844 2.283-13.84-71.35-2.248-9.197 0.479-26.703-7.78-55.14-0.91-2.76-0.65-6.08-2.65-8.31-0.32-5.54-1.92-10.91-2.28-16.43-5.688-33.052 14.754-83.015 14.79-84.03 0.44-0.99 0.89-1.96 1.35-2.91l-0.39-0.58c0.58-1.95 1.23-3.86 1.91-5.76 0.46-0.1 1.37-0.31 1.83-0.42-0.76 7.9-2.54 15.66-3.67 23.51-1 5.66-0.78 11.42-1.59 17.11 0.9 4.24 0.8 8.64 1.93 12.86 0.34-9.29-0.41-18.69 1.56-27.85 1.45-10.46 5.18-20.49 5.88-31.05 2.22-7.22 5.01-14.37 9.61-20.44 3-3.99 4.69-8.72 7.4-12.85 7.579 32.374 2.138 13.082 23.11 64.07-0.99 5.7 2.54 10.78 3.25 16.32 1.92 11.3 4.61 22.61 4.4 34.15 0.86 6.57-0.23 13.37 1.87 19.77 4.536-9.22 0.26-38.894-1.45-49.04 0.25-0.72 0.77-2.16 1.03-2.87 2.261 6.548 19.231 27.056-1.95 76.86 4.17-2.661 0.718 3.895 11.74-28.55 1.99 2.4 1.39 5.61 1.53 8.52 0.61-3.68 1.6-7.42 0.89-11.15-0.504-2.646-1.808-21.423 0.75-22.28 3.476 1.373 4.465 22.394 4.33 26.2 0.32 0.29 0.95 0.86 1.26 1.15-0.246-26.014-5.82-55.349-9.74-60.12-3.571-36.508-23.016-44.873-5.12-118.24 3.25 6.182 1.019 4.051 2.64 18.46 2.04-8.85 1.76-18.04 4.13-26.83 1.68 6.1 3.35 12.28 6.4 17.89 8.454 19.007 2.564 27.983 3.93 35.04 0.81 4.69-0.22 10.32 3.01 14.25 0.21-3.09 0.36-6.18 0.48-9.25 0.47 1.75 0.03 4.16 1.85 5.31 1.42 10.17 5.28 19.77 9.11 29.24-0.8 6.49 3.27 11.92 5.36 17.74 2.25 4.36 5.71 7.97 8.84 11.73 0.16-0.81 0.5-2.43 0.67-3.24 2.42 1.57 4.46 3.65 6.84 5.33-0.51-4.01-5.54-6.56-4.39-10.74 2.752 3.943 5.075 6.131 7.51 9.25 2.1 6.71 6.51 12.37 8.86 19-0.599 3.414 3.118 17.621 2.78 25.54-2.737-3.295-1.023-1.49-6.56-18.1-0.41 1.06-1.3 2.12-0.58 3.32 4.996 13.702 8.664 35.183 9 42.5 9.792 9.533-10.616 92.374-13.38 114.12 4.717-6.553 8.005-52.336 21.63-64.29 0.99 2.95 1.36 6.06 1.24 9.19-3.98 8.724-7.116 64.851-2.05 81.59-1.073 7.252 5.667 21.726 8.84 24.67-0.69-2.87-1.79-5.59-2.72-8.34 3.02 1.01 2.69 5.16 5.77 6.31 2.99 7.25 8.38 13.24 13.1 19.42 0.71 5.09 4.93 8.49 8.05 12.23 2.78 2.91 4.54 6.75 7.86 9.18-1.66-5.73-6.37-9.75-9.1-14.87 5.031 3.453 9.941 8.864 10.34 5.78-3.38-3.6-7.75-6.1-11.48-9.29l-0.46-0.17c-14.019-14.628-15.79-24.423-19.4-37.12 0.47-4.19-1.24-8.21-0.86-12.37 4.35 8.64 6.43 18.69 12.85 26.15-1.02-4.47-3.84-8.24-4.92-12.68 0.57 0.02 1.7 0.06 2.27 0.08 6.833 19.324 38.347 45.802 51.62 46.08-17.167-4.801-43.2-29.796-46.03-41.52-3.4-4.63-4.02-10.41-6.43-15.48-3.153-6.973-3.148-32.425-3.69-36.86 0.79-7.87 2.14-15.67 3.03-23.51 0.72-1.3 1.48-2.58 2.29-3.82 17.292 17.249 13.398 6.114 33.61 36.35-0.15 3.36 1.24 6.49 2.01 9.72 1.41 6.47 2.94 12.94 3.54 19.56 0.659 9.51 7.99 27.603 9.53 29.39 0.34 4.93 2.65 9.37 4.93 13.67-0.11 1.26 0.01 2.51 0.38 3.75 0.41-0.38 1.24-1.14 1.65-1.52 3.77 5.15 8.94 8.92 13.71 13.09-0.264 1.677 6.684 9.482 10.64 10.83-2.31-3.61-5.25-6.74-7.88-10.07 0.77-0.13 2.3-0.38 3.06-0.51 0.74 0.61 1.58 1.13 2.53 1.56 1.58 0.92 3.34 1.44 5.22 1.6 4.29 0.32 8.06 2.58 11.97 4.21 5.63 2.64 11.97 2.79 18.03 3.72-0.1-0.38-0.3-1.15-0.4-1.53-8.152-2.276-15.446-0.595-22.88-10.25 5.49 0.29 10.64 2.71 16.2 2.67-7.34-2.14-14.62-4.45-21.94-6.6-3.32-2.28-6.19-5.07-9.23-7.66 0.17-6.37-3.56-11.87-5.32-17.78-2.25-4.76-1.88-10.28-4.37-14.89-1.891-8.304 1.286-21.626-2.91-34.29 0.39-2.43 0.06-4.85-0.61-7.14 0.25-2.42 0.4-4.82 0.43-7.22 0.38-0.4 1.15-1.2 1.54-1.6-1.15-1.76-2.1-3.63-2.55-5.65 2.76 0.56 4.25 3.38 7 4.12-1.73-1.98-3.56-3.84-5-5.99 6.3 1.71 11.38 6.17 17.39 8.64 10.12 5.64 22.02 6.65 32.28 11.93 0.71-0.5 2.45-0.63 1.95-1.86-4.4-1.71-8.86-3.92-11.78-7.74 3.94-0.49 7.83 1.21 11.78 0.45 4.513-0.83 9.008 0.712 13.543 0.422-0.298-1.329-0.484-2.683-0.56-4.043zm-31.653-270.85c-3.396-3.053-17.37-21.13-21.85-29.68 7.092 6.731 18.483 20.422 21.85 29.68zm-2419.3-1579.4c11.757-14.991 13.676-15.611 15.92-16.9-8.716 15.073-12.216 15.328-15.92 16.9zm11.06 34.33c0.75 2.25 1.55 4.49 2.49 6.68-2.51 0.39-5.04 0.84-7.57 0.59 1.23-2.72 2.94-5.18 5.08-7.27zm-20.79 14.67c0.96-6.01 5.37-10.39 10.45-13.31 0.01 1.68 0 3.37-0.04 5.06-0.9 2.55-2.16 4.97-3.55 7.29-2.29 0.32-4.58 0.65-6.86 0.96zm1.88 17.76c-0.44-2.02-0.94-4.03-1.09-6.09 2.32-5.32 7.29-8.65 10.64-13.24 4.45 0.63 7.97-3.17 12.39-2.95 0.839 2.296-2.792 5.368-3.36 7.82 0.41 1.29 1.51 2.22 2.32 3.29 1.56-0.94 3.12-1.88 4.66-2.86 0.25 0.67 0.76 2.01 1.02 2.68 0.03 0.52 0.09 1.56 0.13 2.08-8.248 4.314-23.749 8.32-26.71 9.27zm9.29 88.48c-4.239 8.322-10.593 38.264-27.72 44.1 10.508-10.537 10.188-19.159 25.85-44.15 0.5-0.13 1.49-0.38 1.98-0.51l-0.86 0.84 0.75-0.28zm30.22 507.71c-6.04 3.87-8.93 11.13-15.46 14.34-7.99 4.68-15.68 9.92-24.06 13.89-8.64 4.55-17.94 7.77-26.29 12.88-0.114-3.763 9.038-5.237 17.18-14.7-0.19-0.57-0.58-1.72-0.77-2.29 14.274-11.069 6.582-8.927 26.02-17.55 8.2-2.72 15.69-7.16 23.91-9.83-0.18 1.07-0.36 2.16-0.53 3.26zm34.63-48.06c-3.779 12.04-17.164 25.766-17.97 27.96-6.714 4.197-9.903 5.171-17.89 9.24-1.047 2.413 0.192 3.555-13.95 9.37 9.921-16.001 18.688-20.433 21.04-27.33 22.536-28.084 29.148-29.667 36.05-32.68-1.75 4.75-2.87 10.34-7.28 13.44zm-97.89 263.89c-3.28 0.62-5.96-2.62-9.22-1.64-5.73 1.34-12.2 0.5-17.16-2.68 5.47-0.58 10.94 0.5 16.41-0.15 3.27-0.52 6.4 1.12 9.67 0.7 3.52-0.39 7.06-0.86 10.61-0.45-2.82 2.54-6.72 3.38-10.31 4.22zm134.95-242.75c1.8-6.54 3.12-13.27 6.13-19.41 2.84-3.13 5.5-8.79 10.58-7.5-16.364 26.788-5.825 6.874-16.65 45.1-0.94-6.03 0.66-12.11-0.06-18.19zm-23.45-143.74c-6.6-0.76-12.8-3.69-18.44-7.06 1.762-0.522 17.474-6.468 23.55-9.71 0.61 0.08 1.85 0.24 2.46 0.32-3.984 9.115-4.102 7.271-7.57 16.45zm-57.94 356.9c0.41-3.84 2.68-7.13 3.73-10.79 8.816-11.011 15.835-45.892 26.79-62.69 1.98-1.47 3.19-3.58 3.33-6.06 2.74-3.1 5.23-6.41 7.48-9.89 0.53-0.04 1.58-0.11 2.11-0.14-22.466 55.301-8.003 46.697-29.84 75.94-1.532 2.734-11.363 12.147-13.6 13.63zm69.71 84.22c-1.155 3.456-11.684 20.266-16.45 22.73-1.8 0.29-3.63 0.18-5.43 0.23 0.6-1.35 1.18-2.71 1.78-4.03-3.38 1.65-5.96 4.95-9.86 5.41-10.105 1.431-30.993 4.822-77.38 2.84 7.984-11.423 17.3-11.201 30.48-26.6 1.08-0.02 2.17-0.01 3.27 0.01-0.04 0.9-0.07 1.82-0.09 2.75 26.216-25.465 33.869-74.841 38.28-82.21 0.61 1.21 1.24 2.47 1.85 3.72 0.02-3.54-0.96-7.66 1.52-10.61 2.74-3.29 4.31-7.34 7.02-10.64 0.064 6.776-5.585 29.005-7.01 32.37-2.16 8.97-2.14 18.42-5.07 27.23-0.8 2.23-0.77 4.62-0.66 6.98 8.597-28.246 2.604-33.792 22.06-84.59 0.68 0.34 1.37 0.73 2.03 1.2 4.72-9.09 7.34-19.07 12.17-28.09 10.332-21.123 8.032-10.645 17.25-24.08 3.051-2.11 4.365-3.09 6.4-4.2 0.12 1.87-1.21 3.25-2.28 4.62 1.95-0.73 3.95-1.42 6.05-1.62-3.38 5.44-5.41 11.55-8.55 17.12-1.81 3.23-2.15 6.98-2.42 10.6 1-3.16 1.9-6.36 3.26-9.39 0.771 6.942-4.567 24.823-3.54 31.28 0 0 0.497 22.353 1.64 31.92 0.373-7.22-1.392-6.322 3.42-23.47-1.06 0.62-1.94 1.44-2.63 2.45-2.513-23.805 3.939-26.653 4.58-35.19 1.48-3.66 2.64-7.56 5.18-10.66 1.3 6.18-2.32 11.96-2.06 18.16 0.86-1.69 1.72-3.37 2.59-5.04 0.23 1.33 0.45 2.69 0.67 4.06-2.818 11.151-3.875 8.32-5.73 14.19-0.3 3.21 0.44 6.41 0.46 9.64-3.467 11.916-7.93 38.06-4.65 49.27 0.55-3.83 0.73-7.69 1.03-11.52 6.067 40.658-20.249 58.272-19.18 73.16zm32.61 22.48c-4.15 0.3-8.3 0.19-12.45 0.19 0.29-1.05 0.59-2.1 0.9-3.13 0.758-1.002 19.387-25.622 20.87-28.11 0.94 3.01 1.86 6.04 3.01 9-2.875 7.242-7.109 11.257-12.33 22.05zm32.43-195.3c-1.76 3.14-4.78 5.33-6.75 8.34-3.517 5.596-6.119 3.763-13.82 14.19-0.02-1.76-0.08-3.5-0.22-5.23 0.95-2.66 1.39-6.02 4.31-7.28 3.49-2.3 5.38-6.25 8.6-8.87 2.71-2.71 3.95-6.45 6.25-9.47 0.78 2.69 1.98 5.44 1.63 8.32zm694.51-197.3c-0.44-2.17-0.82-4.34-1.13-6.51 4.539-9.936-1.811-10.763 7.64-27.13 0.29 0.76 0.86 2.27 1.15 3.02 0.016-0.032 5.001-22.384 6.98-27.61 0.203 1.364 8.196 27.012-3.02 43.92-3.02 4.26-4.37 9.35-6.66 13.99-1.66 0.11-3.32 0.19-4.96 0.32zm699.73 882.67c0.48 0 1.44-0.01 1.92-0.01 62.992 32.031 26.733 21.116 85.17 46.65 46.144 22.952 79.827 70.977 179.59 127.44 0.61 1.19 1.23 2.41 1.91 3.64-1.019 0.709-25.05 16.748-28.91 23.96-3.69 6.6-11.24 10.71-13.45 18.12 5.721-3.675 14.159-19.271 23.2-23.4-18.818 21.865-34.182 52.419-32.91 66.56 2.33-3.27 3.13-7.33 5.49-10.58 0.25 1.72 0.51 3.48 0.72 5.27-2.612 11.242-6.11 11.711-8.4 19.75-0.51 1.01-1.04 2.02-1.6 3.03-5.27 3.74-9.04 9.19-14.35 12.87-4.77 2.9-9.2 6.3-13.46 9.9-0.604-4.965 5.186-7.141 12.76-16.9-3.98-0.89-5.8 3-8.02 5.43-8.1 8.45-17.86 15.07-26.38 23.06-33.051 21.804-154 30.471-157.45 29.93 2.08-1.89 3.88-4.06 5.6-6.27 22.717-15.259 30.641-38.467 27.5-61.92-0.47 4.05-0.82 8.03-0.79 5.96 0.53-11.25-5.53-21.18-8.53-31.68-1.38-9.05-4.71-17.63-7.21-26.4-14.871-44.598-19.83-137.93-19.95-138.93-1.16-8.42 0.11-17.18-2.5-25.37-0.65-20.02-0.49-40.08 0.05-60.11zm158.32 389.92c-0.1 2.66-0.75 5.26-1.47 7.83-0.49 0.16-1.47 0.47-1.96 0.62-0.23-2.03-0.41-4.04-0.62-6.02 0.563-1 1.053-1.864 1.94-2.98 0.53 0.14 1.58 0.41 2.11 0.55zm-29.62-48.2c-5.33 3.3-9.43 8.82-15.83 10.13-9.92-1.09-19.81 0.19-29.65 1.19 1.75-2.13 4.64-2.2 7.13-2.79 3.093-0.626 22.594-7.487 26.07-8.86 4.4-1.87 9.42-1.11 13.77-3.22 4.79-1.29 8.85-4.3 13.56-5.78-3.62 5.08-10.28 5.8-15.05 9.33zm-159.01 31.51c8.459-11.056 14.953-13.359 27.74-24.31 2.9-1.19 5.81-2.69 9.02-2.82 100.41-7.132 144.7-23.06 144.7-23.06-14.559 18.866-165.14 49.324-181.46 50.19zm185.59 108.02c4.99 3.78 8.01 9.6 12.53 13.95 3.7 3.4 5.18 8.36 5.37 13.27-3.506-2.753-16.86-22.488-17.9-27.22zm38.44 33.06c4.85 5.15 10.3 9.96 13.86 16.17-4.33-2.97-7.48-7.23-10.9-11.1-4.69-1.096-20.946-16.762-24.07-23.01-1.74-3.72-2.78-7.73-3.25-11.78 2.294 2.212 22.755 27.891 24.36 29.72zm-24.41-20.76c-3.301-2.43-23.715-25.125-19.85-32.32 2.303 2.001 17.779 20.533 19.85 32.32zm97.41-165.76c-2.75 3.3-4.29 7.55-7.72 10.28-3.97 3.19-8.29 5.95-11.89 9.57-0.69 0.39-1.33 0.82-1.93 1.29-6.61-2.12-11.17 4.36-16.05 7.62-2.87 1.66-5.83 3.22-8.27 5.49-3.346 0.126-28.189 12.831-29.2 13.35-16.535 4.252-22.897 14.932-31.55 18.98-0.1-2.99-0.08-5.95 0.17-8.89 3.055-6.526 18.682-22.681 23.45-26.22 24.659-11.309 69.227-24.883 90.67-44.87 0.53 0.07 1.59 0.19 2.11 0.25-2.74 4.75-6.38 8.88-9.79 13.15zm206.94-430.44c2.336 4.839 2.357 25.676-0.07 34.99-1.31 3.12-2.56 6.26-3.88 9.38-0.56-5.81 1.59-11.4 1.37-17.19 0.882-26.598 3.546-16.845 2.58-27.18zm-47.24-269.88c23.492 44.453 8.378 15.813 23.55 52.5 3.64 6.44 7.33 13 12.54 18.35-0.51 0.06-1.52 0.17-2.03 0.22-13.692-11.675-16.512-20.616-28.23-37.57-16.399-29.848-13.89-31.899-21.42-58.4 6.284 13.349-1.477-3.318 15.59 24.9zm55.94 372.91c-5.05 12.82-14.32 23.47-24.52 32.51-1.32 0.15-2.6 0.32-3.86 0.52 3.309-14.977 16.637-34.155 17.67-37.05 7.747-8.764 13.44-13.654 16.48-15.89-0.88 6.93-5.29 12.87-5.77 19.91zm1.61-49.83c-0.75 7.85-6.35 13.87-8.72 21.16-0.261 0.308-5.63 6.62-5.63 6.62-11.292 7.382-10.313 11.432-26.63 37.76-7.21 7.52-8.71 18.57-15.44 26.32-22.316-27.613-59.091-59.757-68.44-99.96-0.82-4.51-2.58-8.73-4.69-12.75-2.579-32.776 7.878-55.82 6.22-91.16-3.816-72.642 8.412-83.123 7.43-142.98 4.064-10.357 3.295-53.838 2.98-65.04 0.05-7.74-2.08-15.27-2.11-23-0.15 0.72-0.44 2.17-0.59 2.89-1.561-18.016-5.72-47.1-5.72-47.1 4.552 1.366 6.693 11.249 11.74 20.24-1.18-6.58-5.04-12.23-6.78-18.63 1.27 1.22 2.58 2.41 3.49 4.01 1.511 9.594 22.137 43.655 27.08 47.56 3.19 4.66 4.54 10.49 8.6 14.56-0.22-3.95-2.59-7.17-4.23-10.6l-0.16-1.64c0.58 0.12 1.75 0.36 2.33 0.48 28.892 55.247 29.909 62.063 36.27 69.53 25.055 35.587 24.5 45.811 28.72 83.51-1.702 35.448 2.39 39.01 1.77 52.17 0.33 7.67-4.63 14.08-5.8 21.47-1.58 9.57-8.25 17.44-9.45 27.06 3.49-3.24 4.75-7.94 6.66-12.13 2.193-5.26 6.361-11.939 9.38-16.81-0.82 7.077-7.625 29.063 0.22 47.62 0.19 1.4 0.41 2.82 0.68 4.27-4.73 16.533-2.304 34.233-9.36 58.36 0.63 1.05 1.26 2.11 1.96 3.21-4.11 9.539-40.146 68.328-42.38 73.67h2.59c9.16-21.001 23.467-27.481 26.64-43.61 1.86-4.64 4.23-9.22 7.9-12.7 0.16 1.51 0.34 3.04 0.55 4.6 7.078-22.76 6.344-15.505 10.35-27.09 1.14-0.25 2.31-0.46 3.5-0.66 1.196-1.917 11.021-22.759 13.29-24.65 1.96 8.2-3.56 15.45-4.22 23.44zm0.06 515.17c-1.64-2.4 0.78-4.74 1.61-6.93 9.358-23.369 7.853-23.753 11.25-26.86 1.6-4.03 3.25-8.16 4.26-12.41 0.6 4.48-1.74 8.56-1.83 12.99-0.46 4.51 0.21 9.08-0.3 13.6-1.815 6.307-5.869 5.866-14.99 19.61zm13.29 111.75c-0.004-0.037-3.504-21.681-3.93-23.81 1.108-21.124 6.211-50.787 18.22-68.19 2.5 3.07 4.06 6.77 6.26 10.08 12.987 71.185 10.232 99.428 11.11 113-0.06 5.51 1.18 10.94 1.03 16.47-14.425-9.688-31.741-38.787-32.69-47.55zm187.4-313.94c-0.63-0.24-1.89-0.7-2.52-0.93-1.554-14.254-0.573-7.169-1.36-16.05 2.78 5.16 4.99 11.01 3.88 16.98zm-8.45-15.83c-5.18-6.81-6.86-15.49-11.08-22.85-2.64-5.05-4.34-10.51-5.5-16.06 2.063 3.916 15.153 25.178 16.58 38.91zm21.36-141.27c-0.7 0.6-1.37 1.21-2.01 1.85-13.034-20.282-8.675-30.517-6.82-36.82 1.23 2.54 2.03 5.28 2.59 8.07 1.65-1.37 3.32-2.72 5-4.07 0.05-1.26 0.14-2.5 0.26-3.71 0.64 0.57 1.31 1.16 2.01 1.78 1.111 17.388 1.468 20.904-1.03 32.9zm-11.18-574.75c-5.738-8.185-2.785-9.492-13.27-20.57-7.16-7.83-14.06-15.99-22.56-22.43 2.56 1.15 5.08 2.41 7.56 3.8 7.353 8.097 13.703 8.95 25 26.3 9.07 14.034 17.069 30.402 17.79 32.43-1.968-0.117-2.202-0.499-14.52-19.53zm23.08 32.71c4.39 3.656 11.17 18.238 12.09 21.2-5.36-6.15-9.25-13.6-12.09-21.2zm121.41 223.82c5.56 9.38 6.13 20.83 5.14 31.44-0.62-3.38-0.97-6.79-1.16-10.2-0.65 7.02-1.1 14.26 1.21 21.06-0.9 0.43-1.76 0.89-2.58 1.38-2-15.6-3.6-31.43-9.13-46.28 0.06-0.75 0.16-2.26 0.22-3.01 0.93 1.69 1.87 3.39 2.89 5.09 0.28-5.94-3.33-10.9-4.9-16.39 4.07 4.92 5.44 11.31 8.31 16.91zm-19.32-3.39c1.04 2.482 8.555 14.809 7.43 31.6-4.106-8.453-9.971-30.875-11.45-35.94 1.32 1.44 2.67 2.86 4.02 4.34zm-16.77 118.76c9.096 16.912 7.75 39.472 12.61 52.9-0.12 2.04-0.27 4.1-0.4 6.17-6.25-9.482-15.189-41.85-12.21-59.07zm-46.4 449.93c-2.16 3.03-2.73 6.95-5.27 9.73-0.73-3.94 1-7.8 1.34-11.69 1.91-8.42 1.16-17.56 5.72-25.22 0.7 5.8 2.02 11.5 3.19 17.23-0.62 3.68-3.33 6.65-4.98 9.95zm9.23-676.18c-1.78-3.07-3.15-6.34-4.39-9.63-1.05-3.56-4.45-5.61-5.93-8.9-1.91-4.15-4.32-8.02-6.99-11.7-5.88-8.85-8.7-19.16-13.26-28.65 6.89 6.94 7.37 17.55 13.22 25.22 15.781 25.865 41.2 63.84 41.2 63.84-8.99-9.21-14.98-20.86-23.85-30.18zm24.35 375.78c-5.502-17.883-1.124-10.678-5.91-14.98-0.7-1.52-1.35-3.03-2-4.5 0.18-0.42 0.54-1.27 0.72-1.69 0.51 0.43 1.53 1.28 2.04 1.71-1.465-10.068-10.227-25.095-11.96-36.01 33.509 49.779 20.545 74.645 17.94 93.83-1.801-30.303 1.433-25.615-0.83-38.36zm17.44 292.51c-6.035-4.293-6.385-3.88-11.34-10.9 0.125-8.589-1.44-4.515-4.35-20.8 0.805-54.708 5.692-37.573 4.07-73.32 0.02-3.18-1.82-6.88 0.92-9.4 4.11 13.964 10.579 26.608 9.27 38.49-0.51 2.77-1.41 5.54-0.93 8.41 3.05 23.517-2.948 32.016 2.54 63.15-0.07 1.43-0.13 2.88-0.18 4.37zm41.51 49.56c5.794-0.184 22.142 4.864 25.81 9.36-3.121 0.314-19.13-1.735-25.81-9.36zm35.5 16.35c-1.569 0.192-15.717-3.466-20.31-6.86 4.47 0.13 8.82 1.33 13.25 1.95 2.76 0.62 6.23 1.85 7.06 4.91zm-13.21-12c10.91 1.13 21.39 4.88 32.4 5.36-7.619 2.892-24.603 3.226-32.4-5.36z" enable-background="new " fill="inherit"/></g>
</svg>