<?xml version="1.0" encoding="UTF-8"?><svg xmlns="http://www.w3.org/2000/svg" height="405.05mm" version="1.1" viewBox="0 0 1576.5238 1435.1999" width="444.93mm">
 <g fill-rule="evenodd" id="change1_1" stroke="#000" stroke-width="1px" transform="translate(-407.02 95.25)">
  <path d="m939.82 355.97c-25.663-0.21308-68.656 8.6562-68.656 8.6562l-5.6562 53.74h-49.396c-3.407 4.2798-29.668-3.6295 2.8281 19.799h52.225l8.4863 14.143-14.627 21.283 11.799 7-5.6582 14.143 8.4863 2.8281v11.314l11.312 5.6562-14.141 14.143-39.6 65.053-25.455 53.74s-29.746 4.0038-42.426 11.314c-12.706 7.326-23.402 18.637-31.113 31.113-6.2699 10.145-11.314 33.941-11.314 33.941l-149.91 104.65 22.627 42.428 500.63 50.91s31.028-28.5 26-45.111c-3.1072-10.264-28.828-14.285-28.828-14.285h-25.457s3.2469-17.616 0-25.455c-4.592-11.087-25.455-25.457-25.455-25.457l22.627-19.799 25.457-62.225-2.83-82.025-31.111-84.852-31.113-70.711-14.142-39.598v-34.285l36.77-5.3125 14.143-11.314-59.396-5.6582-5.6582-25.455s-37.173-12.879-56.568-14.143c-1.539-0.10025-3.1719-0.15572-4.8828-0.16992zm-253.82 412.7l4 6-86 58-8-6 90-58zm-1.5078 23.053 22.627 16.971-31.111 28.285h-56.568l65.053-45.256z" fill="inherit" transform="translate(384.92 -450.72)"/>
  <path d="m427.36 290.09c-19.536 25.135-21.069 59.396-19.284 87.196l13.627-24.971v56.569l2.8284 70.711-5.6569 56.569-11.314 39.598 14.142 53.74 36.77 36.77s13.859 15.636 22.627 14.142c5.9512-1.0138 11.314-14.142 11.314-14.142s29.552-0.71376 36.77-11.314c6.9183-10.161-2.8284-36.77-2.8284-36.77l65.054-104.65s23.124-13.869 28.284-25.456c1.5343-3.445 0-11.314 0-11.314l16.971 8.4853 59.397 87.681 59.397 101.82 22.627 65.054s-1.6486 33.693 5.6568 48.083c8.1537 16.061 39.598 36.77 39.598 36.77v33.941l-8.4853 110.31-14.142 36.77-14.142 67.882-11.314 50.912-16.971 73.539v22.627l-16.971 8.4853-31.113 59.397 48.083 8.4853 50.912-2.8285v-50.912l14.142-31.113 14.142-70.711 11.314-53.74 36.77-98.995 31.113-82.024 2.8284 79.196-8.4853 82.024 5.6569 36.77 8.4853 33.941 42.426 33.941 42.426 50.912 33.941 31.113h31.113l33.941 5.6569 28.284 14.142 14.142-16.97 5.6569-28.284-16.971-25.456-28.284-28.284-16.97 11.314h-19.799l-73.539-62.225-14.142-19.799v-42.426l31.113-53.74 28.284-121.62s165.59 21.583 246.07 5.6568c41.413-8.1947 115.97-50.912 115.97-50.912l28.284-14.142 16.97 14.142 22.628 87.681 14.142 79.196 11.314 59.397v45.255l-36.77 39.598-39.598 48.083-65.054 73.539-48.083 22.628 5.6568 22.627 25.456 19.799 73.539-5.6569 11.314-11.314 8.4853-31.113 65.054-87.681 53.74-56.569 48.083-42.426-14.142-79.196 14.142-73.539 36.77 65.054 50.912 53.74 42.426 70.711 33.941 104.65 10.828 17.74c-15.687 15.492-21.666 61.082-22 71.456l56.426 4.1422 36.77-14.142 1.3137-19.627-21.113-25.627-33.941-138.59-14.142-73.539-8.4853-36.77-76.368-101.82 48.083-118.79s27.886-53.106 28.284-82.024c0.4764-34.586-31.113-98.995-31.113-98.995s2.0702-9.097 5.6569-11.314c4.812-2.974 16.97 0 16.97 0s33.621 34.705 42.426 56.569c20.226 50.224 19.799 161.22 19.799 161.22l5.6569-33.941 14.142 67.882 11.314-70.711 16.971 84.853 5.6568-56.569 14.142 115.97s2.7521 104.28 11.314 155.56c8.5107 50.977 39.598 149.91 39.598 149.91l-11.314-90.51 28.284 90.51c-10.027-54.768-5.7146-99.976 0-144.25l16.971-121.62-2.8284-127.28 5.6568 31.113s0.9132-57.278-5.6568-84.853c-15.666-65.753-79.196-186.68-79.196-186.68s-38.465-45.668-65.054-56.569c-27.969-11.467-90.51-5.6568-90.51-5.6568l-39.598 2.8284-93.338-36.77-98.995-39.598-432.75-84.853h-67.882l-175.36-76.368 22.627-2.8284c-20.338-11.692-41.202-22.334-69.397-18.314l26.971-7.1421c-26.399-15.033-52.797-17.73-79.196-14.142l48.083-5.6568-73.539-11.314 25.456-8.4853c-36.824-7.215-73.705-14.091-113.14-5.6569l33.941-19.799c-35.827 6.4799-71.653 9.249-107.48 28.284l-42.426 36.77s-8.6902-38.638-22.627-50.912c-7.3871-6.5054-28.284-8.4853-28.284-8.4853v22.627l-25.456-8.4853h-16.971l19.799 33.941z" fill="inherit"/>
 </g>
</svg>