<?xml version="1.0" encoding="UTF-8"?><svg xmlns="http://www.w3.org/2000/svg" xmlns:xlink="http://www.w3.org/1999/xlink" height="500.0" preserveAspectRatio="xMidYMid meet" version="1.0" viewBox="0.0 0.0 376.1 500.0" width="376.1" zoomAndPan="magnify"><defs><clipPath id="a"><path d="M 84 0 L 376.109375 0 L 376.109375 500 L 84 500 Z M 84 0"/></clipPath></defs><g><g id="change1_1"><path d="M 108.265625 130.277344 L 68.964844 169.578125 L 56.019531 156.636719 L 56.019531 135.808594 L 56.035156 135.808594 L 56.035156 112.429688 C 57.355469 111.226562 58.1875 109.503906 58.1875 107.578125 C 58.1875 103.953125 55.25 101.015625 51.625 101.015625 C 48 101.015625 45.0625 103.953125 45.0625 107.578125 C 45.0625 109.503906 45.894531 111.226562 47.214844 112.429688 L 47.214844 134.078125 C 44.738281 134.292969 42.410156 135.015625 40.34375 136.15625 L 25.28125 121.597656 C 25.320312 121.316406 25.34375 121.035156 25.34375 120.75 C 25.34375 117.125 22.40625 114.1875 18.78125 114.1875 C 15.15625 114.1875 12.21875 117.125 12.21875 120.75 C 12.21875 124.277344 15 127.144531 18.492188 127.300781 L 33.953125 142.25 C 32.304688 144.90625 31.335938 148.03125 31.335938 151.386719 L 31.335938 151.851562 L 11.765625 152.804688 C 10.566406 151.242188 8.6875 150.230469 6.5625 150.230469 C 2.9375 150.230469 0 153.171875 0 156.796875 C 0 160.417969 2.9375 163.355469 6.5625 163.355469 C 8.25 163.355469 9.789062 162.714844 10.949219 161.664062 C 10.984375 161.664062 11.019531 161.675781 11.058594 161.671875 L 31.378906 160.683594 L 64.960938 194.261719 C 69.484375 198.789062 76.824219 198.789062 81.351562 194.261719 L 109.011719 166.601562 C 109.011719 166.601562 108.640625 130.648438 108.265625 130.277344 Z M 264.203125 161.671875 C 264.242188 161.675781 264.273438 161.664062 264.3125 161.664062 C 265.476562 162.714844 267.011719 163.355469 268.699219 163.355469 C 272.324219 163.355469 275.261719 160.417969 275.261719 156.796875 C 275.261719 153.171875 272.324219 150.230469 268.699219 150.230469 C 266.574219 150.230469 264.695312 151.242188 263.496094 152.804688 L 243.925781 151.851562 L 243.925781 151.386719 C 243.925781 148.03125 242.957031 144.90625 241.308594 142.25 L 256.769531 127.300781 C 260.261719 127.144531 263.046875 124.277344 263.046875 120.75 C 263.046875 117.125 260.105469 114.1875 256.480469 114.1875 C 252.855469 114.1875 249.917969 117.125 249.917969 120.75 C 249.917969 121.035156 249.941406 121.316406 249.980469 121.597656 L 234.917969 136.15625 C 232.851562 135.015625 230.523438 134.292969 228.046875 134.078125 L 228.046875 112.429688 C 229.367188 111.226562 230.199219 109.503906 230.199219 107.578125 C 230.199219 103.953125 227.261719 101.015625 223.636719 101.015625 C 220.011719 101.015625 217.074219 103.953125 217.074219 107.578125 C 217.074219 109.503906 217.90625 111.226562 219.226562 112.429688 L 219.226562 135.808594 L 219.242188 135.808594 L 219.242188 156.636719 L 206.296875 169.578125 L 166.996094 130.277344 C 166.621094 130.648438 166.25 166.601562 166.25 166.601562 L 193.910156 194.261719 C 198.4375 198.789062 205.777344 198.789062 210.304688 194.261719 L 243.882812 160.683594 Z M 322.050781 337.082031 C 320.363281 337.082031 318.828125 337.726562 317.664062 338.773438 C 317.628906 338.773438 317.59375 338.765625 317.558594 338.769531 L 297.234375 339.757812 L 263.65625 306.179688 C 259.128906 301.652344 251.789062 301.652344 247.265625 306.179688 L 219.601562 333.839844 C 219.601562 333.839844 219.976562 369.789062 220.347656 370.164062 L 259.652344 330.859375 L 272.597656 343.808594 L 272.597656 364.636719 L 272.578125 364.636719 L 272.578125 388.011719 C 271.261719 389.214844 270.425781 390.9375 270.425781 392.863281 C 270.425781 396.488281 273.363281 399.425781 276.988281 399.425781 C 280.613281 399.425781 283.554688 396.488281 283.554688 392.863281 C 283.554688 390.9375 282.71875 389.214844 281.402344 388.011719 L 281.402344 366.359375 C 283.875 366.148438 286.203125 365.425781 288.273438 364.28125 L 303.332031 378.84375 C 303.296875 379.121094 303.273438 379.402344 303.273438 379.6875 C 303.273438 383.3125 306.210938 386.253906 309.835938 386.253906 C 313.460938 386.253906 316.398438 383.3125 316.398438 379.6875 C 316.398438 376.160156 313.613281 373.292969 310.125 373.140625 L 294.664062 358.191406 C 296.308594 355.53125 297.277344 352.410156 297.277344 349.054688 L 297.277344 348.589844 L 316.847656 347.636719 C 318.046875 349.195312 319.929688 350.210938 322.050781 350.210938 C 325.675781 350.210938 328.613281 347.269531 328.613281 343.644531 C 328.613281 340.019531 325.675781 337.082031 322.050781 337.082031 Z M 132.695312 381.585938 L 132.238281 399.890625 L 146.589844 414.980469 L 146.601562 414.972656 L 162.714844 431.910156 C 164.496094 431.871094 166.289062 432.546875 167.613281 433.941406 C 170.113281 436.570312 170.007812 440.722656 167.382812 443.222656 C 164.753906 445.71875 160.601562 445.613281 158.101562 442.988281 C 156.777344 441.59375 156.191406 439.769531 156.320312 437.988281 L 141.402344 422.300781 C 139.460938 423.851562 137.273438 424.933594 134.988281 425.53125 L 134.109375 446.460938 C 134.328125 446.636719 134.539062 446.824219 134.738281 447.03125 C 137.234375 449.65625 137.128906 453.8125 134.503906 456.308594 C 131.878906 458.808594 127.722656 458.703125 125.226562 456.078125 C 122.792969 453.519531 122.835938 449.523438 125.257812 447.007812 L 126.160156 425.519531 C 123.136719 424.730469 120.28125 423.132812 117.96875 420.699219 L 117.648438 420.363281 L 102.808594 433.15625 C 103.015625 435.117188 102.351562 437.148438 100.8125 438.609375 C 98.183594 441.105469 94.03125 441.003906 91.535156 438.378906 C 89.035156 435.75 89.140625 431.597656 91.765625 429.097656 C 92.992188 427.933594 94.546875 427.34375 96.109375 427.300781 C 96.136719 427.273438 96.15625 427.246094 96.183594 427.222656 L 111.59375 413.933594 L 112.785156 366.460938 C 112.949219 360.0625 118.265625 355.003906 124.664062 355.164062 L 163.773438 356.148438 C 163.773438 356.148438 188.277344 382.457031 188.261719 382.984375 L 132.695312 381.585938" fill="#ab7d6b"/></g><g clip-path="url(#a)" id="change2_1"><path d="M 374.765625 444.746094 L 358.207031 485.714844 C 354.71875 494.347656 346.335938 500 337.023438 500 L 324.457031 500 C 293.851562 500 264.28125 488.917969 241.210938 468.808594 L 237.546875 465.613281 C 225.984375 455.535156 215.882812 443.894531 207.527344 431.03125 L 171.179688 375.0625 L 170.902344 375.207031 L 108.746094 276.558594 C 103.246094 267.828125 100.378906 257.699219 100.488281 247.382812 L 101.832031 119.460938 L 101.511719 119.476562 L 90.558594 103.882812 C 84.503906 95.261719 82.6875 84.359375 85.613281 74.238281 L 97.980469 31.480469 C 100.667969 22.195312 106.191406 13.980469 113.777344 7.988281 L 117.566406 4.992188 C 125.808594 -1.519531 137.402344 -1.675781 145.816406 4.613281 L 148.324219 6.488281 C 155.136719 11.578125 160.417969 18.449219 163.589844 26.339844 L 180.976562 69.621094 C 185.386719 80.597656 183.914062 93.054688 177.074219 102.699219 L 167.53125 116.15625 C 167.789062 116.363281 167.980469 116.648438 168.0625 116.984375 L 222.101562 342.269531 L 242.863281 412.308594 C 247.054688 426.453125 254.808594 439.28125 265.378906 449.570312 L 269.621094 453.699219 C 285.800781 469.445312 307.484375 478.257812 330.058594 478.257812 C 335.757812 478.257812 340.902344 474.84375 343.117188 469.589844 L 355.871094 439.34375 C 356.671875 437.441406 355.273438 435.339844 353.210938 435.339844 L 335.777344 435.339844 C 331.480469 435.339844 328 431.855469 328 427.558594 C 328 423.265625 331.480469 419.78125 335.777344 419.78125 L 357.925781 419.78125 C 370.800781 419.78125 379.589844 432.808594 374.765625 444.746094" fill="#d0a893"/></g><g id="change3_1"><path d="M 212.652344 420.605469 C 222.199219 423.84375 231.4375 412.164062 231.4375 412.164062 Z M 219.601562 377.394531 L 195.84375 388.074219 C 207.914062 392.171875 219.601562 377.394531 219.601562 377.394531 Z M 210.035156 327.605469 L 169.257812 345.933594 C 189.980469 352.960938 210.035156 327.605469 210.035156 327.605469 Z M 192.523438 284.019531 L 151.75 302.347656 C 172.46875 309.371094 192.523438 284.019531 192.523438 284.019531 Z M 132.398438 258.355469 C 151.636719 268.773438 175.679688 247.171875 175.679688 247.171875 Z M 166.316406 206.730469 L 121.859375 211.445312 C 139.359375 224.574219 166.316406 206.730469 166.316406 206.730469 Z M 163.808594 169.953125 L 119.101562 169.953125 C 135.121094 184.855469 163.808594 169.953125 163.808594 169.953125 Z M 158.59375 134.1875 L 113.886719 134.1875 C 129.90625 149.089844 158.59375 134.1875 158.59375 134.1875 Z M 101.347656 39.441406 C 99.5 38.988281 97.324219 41.371094 96.488281 44.769531 C 95.652344 48.164062 96.472656 51.285156 98.320312 51.742188 C 100.167969 52.195312 102.34375 49.8125 103.179688 46.414062 C 104.015625 43.019531 103.195312 39.898438 101.347656 39.441406 Z M 162.585938 46.464844 C 161.886719 43.039062 162.835938 39.949219 164.699219 39.570312 C 166.5625 39.191406 168.640625 41.664062 169.339844 45.09375 C 170.035156 48.519531 169.089844 51.605469 167.222656 51.984375 C 165.359375 52.363281 163.28125 49.894531 162.585938 46.464844" fill="#fff"/></g><g id="change4_1"><path d="M 123.609375 12.886719 L 128.53125 5.277344 C 122.042969 6.621094 123.609375 12.886719 123.609375 12.886719 Z M 135.976562 5.277344 L 140.898438 12.886719 C 140.898438 12.886719 142.464844 6.621094 135.976562 5.277344 Z M 100.777344 41.765625 C 100.222656 41.628906 99.261719 43.199219 98.738281 45.320312 C 98.21875 47.445312 98.339844 49.285156 98.890625 49.421875 C 99.445312 49.558594 100.40625 47.980469 100.929688 45.863281 C 101.453125 43.738281 101.328125 41.898438 100.777344 41.765625 Z M 166.746094 49.644531 C 166.1875 49.757812 165.289062 48.144531 164.855469 46.003906 C 164.421875 43.859375 164.617188 42.027344 165.175781 41.914062 C 165.734375 41.800781 166.628906 43.410156 167.066406 45.554688 C 167.5 47.695312 167.304688 49.527344 166.746094 49.644531" fill="#7e584e"/></g></g></svg>