<?xml version="1.0" encoding="UTF-8"?><svg xmlns="http://www.w3.org/2000/svg" xmlns:xlink="http://www.w3.org/1999/xlink" height="446.2" preserveAspectRatio="xMidYMid meet" version="1.0" viewBox="0.0 0.0 300.5 446.2" width="300.5" zoomAndPan="magnify"><defs><clipPath id="a"><path d="M 0 0 L 274 0 L 274 446.230469 L 0 446.230469 Z M 0 0"/></clipPath><clipPath id="b"><path d="M 207 23 L 278.519531 23 L 278.519531 89 L 207 89 Z M 207 23"/></clipPath></defs><g><g clip-path="url(#a)" id="change1_1"><path d="M 272.835938 24.453125 C 271.816406 20.242188 266.796875 15.386719 262.902344 12.6875 C 245.957031 0.972656 219.847656 -5.386719 198.964844 5.917969 C 191.261719 10.089844 172.519531 24.625 164.601562 35.332031 C 140.832031 67.453125 116.042969 122.480469 89.914062 161.417969 L 90.390625 162.378906 C 80.519531 178.378906 73.207031 196.609375 66.773438 215.53125 C 50.359375 262.308594 33.125 313.191406 29.84375 363.25 C 29.84375 363.25 26.824219 370.246094 26.820312 370.25 C 19.765625 386.566406 -10.898438 420.515625 4.0625 439.976562 C 14.03125 452.9375 46.128906 442.152344 59.132812 439.535156 C 99.125 431.492188 107.90625 398.40625 118.8125 362.960938 L 130.652344 364.785156 C 138.347656 368.152344 156.429688 350.460938 173.40625 331.136719 L 173.492188 331.308594 C 172.367188 338.484375 179.898438 349.738281 185.8125 357.289062 C 174.320312 362.003906 168.039062 372.78125 180.175781 378.207031 C 180.308594 380.394531 180.910156 382.4375 182.152344 384.179688 C 187.15625 391.203125 203.816406 387.570312 203.816406 387.570312 L 192.496094 378.027344 C 192.496094 378.027344 203.484375 367.199219 208.816406 365.199219 C 221.484375 361.867188 223.816406 378.027344 223.816406 378.027344 C 223.816406 378.027344 230.152344 368.238281 228.152344 359.570312 C 226.382812 351.902344 218.480469 347.113281 210.96875 347.484375 C 216.546875 338.925781 233.585938 310.125 247.085938 259.128906 C 252.652344 238.933594 269.253906 179.863281 265.839844 143 C 266.207031 129.46875 262.816406 118.203125 254.816406 111.144531 L 254.816406 96.089844 L 256.039062 88.804688 L 264.925781 54.886719 L 264.941406 54.808594 C 265.117188 54.851562 265.289062 54.878906 265.464844 54.917969 C 270.265625 55.835938 273.855469 28.664062 272.835938 24.453125" fill="#45b671"/></g><g clip-path="url(#b)" id="change2_1"><path d="M 278.480469 43.457031 C 278.464844 43.207031 278.449219 42.949219 278.429688 42.691406 C 278.390625 42.214844 278.347656 41.730469 278.289062 41.242188 C 278.273438 41.085938 278.253906 40.929688 278.230469 40.769531 C 278.183594 40.382812 278.128906 39.988281 278.0625 39.601562 C 278.03125 39.410156 278.003906 39.230469 277.96875 39.046875 C 277.9375 38.847656 277.898438 38.652344 277.863281 38.460938 C 277.6875 37.511719 277.472656 36.558594 277.226562 35.601562 C 277.035156 34.851562 276.820312 34.101562 276.589844 33.355469 C 276.523438 33.140625 276.457031 32.929688 276.382812 32.714844 C 276.261719 32.328125 276.128906 31.949219 275.996094 31.570312 C 275.996094 31.566406 275.996094 31.558594 275.992188 31.558594 C 275.132812 29.117188 274.066406 26.714844 272.835938 24.453125 C 271.367188 32.480469 267.824219 39.546875 258.835938 39.773438 C 251.019531 39.972656 243.671875 36.707031 236.152344 35.136719 C 229.109375 33.664062 212.941406 27.527344 207.835938 23.144531 C 210.109375 31 220.03125 48.265625 239.613281 52.980469 C 245.546875 54.414062 258.832031 54.253906 264.921875 54.882812 L 259.082031 74.226562 L 256.039062 88.800781 C 260.59375 86.980469 265.457031 84.246094 269.101562 80.601562 L 264.941406 54.808594 L 264.941406 54.8125 L 264.941406 54.804688 C 265.117188 54.84375 265.289062 54.875 265.464844 54.914062 C 270.269531 55.835938 276.378906 54.886719 277.261719 52.65625 C 278.285156 50.066406 278.660156 46.890625 278.480469 43.457031" fill="#eda214"/></g><g id="change2_2"><path d="M 252.242188 108.730469 L 251.558594 108.839844 C 280.28125 134.28125 253.070312 173.671875 236.65625 197.476562 C 213.675781 231.121094 135.226562 347.367188 118.8125 362.960938 L 130.65625 364.785156 C 145.230469 371.160156 197.144531 301.9375 208.074219 289.1875 C 208.074219 289.1875 300.476562 139.71875 252.242188 108.730469" fill="#eda214"/></g><g id="change2_3"><path d="M 14.246094 411.117188 C 5.617188 424.3125 7.144531 427.628906 10.160156 429.597656 C 13.171875 431.566406 16.53125 431.441406 25.160156 418.246094 C 33.792969 405.054688 41.417969 381.820312 41.417969 381.820312 C 41.417969 381.820312 22.878906 397.925781 14.246094 411.117188" fill="#eda214"/></g><g id="change2_4"><path d="M 36.539062 413.582031 C 28.789062 426.667969 30.40625 429.800781 33.398438 431.566406 C 36.386719 433.335938 39.617188 433.066406 47.363281 419.980469 C 54.449219 408.015625 54.847656 407.84375 61.457031 384.175781 C 61.457031 384.175781 44.285156 400.492188 36.539062 413.582031" fill="#eda214"/></g><g id="change2_5"><path d="M 64.203125 411.082031 C 56.1875 424.011719 57.738281 427.175781 60.691406 429 C 63.644531 430.828125 66.878906 430.628906 74.894531 417.703125 C 82.910156 404.777344 89.71875 382.191406 89.71875 382.191406 C 89.71875 382.191406 72.21875 398.15625 64.203125 411.082031" fill="#eda214"/></g><g id="change2_6"><path d="M 179.644531 165.929688 C 178.578125 173.019531 179.101562 181.5 190.0625 184.382812 L 190.164062 184.410156 C 197.757812 186.160156 207.3125 181.570312 213.8125 175.941406 C 214.894531 179.78125 217.195312 182.972656 220.515625 185.003906 C 222.902344 186.464844 225.597656 187.183594 228.402344 187.183594 C 232.609375 187.183594 237.0625 185.570312 241.101562 182.429688 L 236.800781 176.902344 C 232.359375 180.359375 227.636719 181.152344 224.167969 179.03125 C 220.835938 176.992188 219.421875 172.738281 220.390625 167.65625 L 213.878906 165.324219 C 210.410156 171.683594 198.425781 179.078125 191.785156 177.601562 C 185.214844 175.851562 185.402344 171.8125 187.460938 162.363281 C 187.808594 160.757812 188.167969 159.101562 188.410156 157.53125 L 182.882812 154.179688 C 180.914062 155.621094 178.933594 157.324219 177.015625 158.972656 C 167.660156 167.007812 161.511719 171.539062 153.425781 163.859375 C 149.046875 159.480469 148.316406 152.722656 151.46875 145.78125 L 145.097656 142.886719 C 140.753906 152.445312 142.046875 162.378906 148.539062 168.871094 C 160.707031 180.425781 171.453125 172.839844 179.644531 165.929688" fill="#eda214"/></g><g id="change2_7"><path d="M 149.316406 289.914062 C 149.910156 289.976562 150.515625 290.003906 151.128906 290.003906 C 159.507812 290.003906 169.375 284.328125 172.867188 271.132812 L 166.101562 269.34375 C 163.386719 279.59375 156.0625 283.5625 150.019531 282.949219 C 144.738281 282.414062 138.890625 278.21875 138.308594 268.039062 L 131.320312 268.4375 C 132.15625 283.03125 141.535156 289.128906 149.316406 289.914062" fill="#eda214"/></g><g id="change3_1"><path d="M 266.351562 55.0625 C 266.050781 55.019531 265.113281 54.847656 264.941406 54.804688 L 264.925781 54.882812 C 264.925781 54.882812 262.3125 61.449219 260.480469 67.78125 C 258.648438 74.113281 258.148438 78.683594 258.148438 78.683594 C 265.1875 82.746094 268.105469 94.164062 274.375 98.34375 C 279.761719 86.496094 276.746094 63.554688 266.351562 55.0625" fill="#ee4c1e"/></g><g id="change4_1"><path d="M 223.816406 39.617188 C 229.816406 52.367188 242.03125 56.011719 255.695312 52.367188 C 254.78125 39.617188 232.816406 28.816406 223.816406 38.835938 L 223.816406 39.617188" fill="#fff"/></g><g id="change5_1"><path d="M 238.824219 39.257812 C 241.632812 39.257812 243.90625 41.53125 243.90625 44.335938 C 243.90625 47.140625 241.632812 49.414062 238.824219 49.414062 C 236.019531 49.414062 233.746094 47.140625 233.746094 44.335938 C 233.746094 41.53125 236.019531 39.257812 238.824219 39.257812" fill="#35328d"/></g><g id="change5_2"><path d="M 124.097656 322.03125 C 115.015625 318.28125 118.683594 303.238281 118.722656 303.089844 L 115.328125 302.230469 L 111.9375 301.359375 C 111.71875 302.21875 106.730469 322.4375 121.425781 328.5 C 123.421875 329.324219 125.355469 329.6875 127.210938 329.6875 C 136.40625 329.6875 143.667969 320.800781 146.589844 315.1875 L 140.378906 311.953125 C 140.308594 312.089844 133.03125 325.714844 124.097656 322.03125" fill="#35328d"/></g><g id="change5_3"><path d="M 242.707031 117.769531 C 241.945312 121.921875 239.214844 125.101562 235.21875 126.496094 C 231.109375 127.929688 226.617188 127.121094 223.496094 124.394531 C 219.484375 120.890625 217.980469 114.625 219.167969 106.605469 C 219.363281 105.75 219.515625 104.878906 219.625 103.996094 L 212.722656 102.867188 C 212.550781 103.710938 212.402344 104.53125 212.277344 105.332031 C 210.679688 111.933594 205.675781 117.058594 198.535156 119.265625 C 192.234375 121.210938 185.964844 120.199219 182.933594 116.75 C 180.574219 114.066406 180.226562 109.84375 181.867188 104.640625 C 182.527344 103.300781 183.082031 101.878906 183.511719 100.386719 L 176.964844 97.960938 C 176.328125 99.363281 175.800781 100.695312 175.378906 101.964844 C 173.304688 105.90625 169.957031 108.664062 166.101562 109.441406 C 148.289062 113.039062 140.074219 88.976562 142.023438 75.230469 C 142.308594 73.230469 142.644531 71.203125 143.042969 69.171875 C 125.921875 98.863281 71.75 185.816406 65.316406 204.738281 C 48.902344 251.515625 33.128906 313.191406 29.84375 363.25 C 38.324219 370.03125 55.800781 377.625 77.445312 378.023438 C 85.652344 378.171875 87.289062 369.816406 90.574219 362.429688 C 93.855469 353.402344 88.113281 341.914062 88.933594 332.886719 C 103.707031 341.09375 106.566406 316.40625 104.613281 299.433594 C 102.660156 282.460938 102.0625 266.410156 106.167969 263.949219 C 111.089844 260.667969 118.476562 273.796875 126.683594 268.871094 C 131.21875 265.851562 131.753906 252.71875 131.164062 238.394531 C 130.953125 233.296875 130.605469 228.046875 130.242188 223.042969 C 132.847656 224.828125 135.6875 226.042969 138.503906 226.65625 C 144.179688 227.898438 151.390625 226.960938 157.375 221.898438 C 158.054688 226.566406 159.964844 229.960938 161.910156 232.3125 C 167.003906 238.460938 174.613281 240.605469 180.917969 240.605469 C 181.9375 240.605469 182.917969 240.546875 183.851562 240.445312 C 195.5625 239.210938 201.9375 228.164062 207.5625 218.417969 C 208.996094 215.925781 210.355469 213.570312 211.730469 211.511719 L 205.90625 207.628906 C 204.40625 209.878906 202.992188 212.324219 201.496094 214.917969 C 196.476562 223.621094 191.28125 232.621094 183.097656 233.484375 C 178.402344 234.011719 171.441406 232.84375 167.304688 227.847656 C 163.8125 223.636719 163.1875 217.441406 165.496094 209.933594 L 158.894531 207.617188 C 154.519531 218.699219 146.269531 221.1875 139.996094 219.820312 C 136.097656 218.96875 132.128906 216.449219 129.46875 212.40625 C 128.996094 205.632812 128.730469 200.167969 129.148438 197.472656 C 130.230469 182.292969 133.417969 167.300781 137.757812 152.734375 C 140.164062 144.664062 143.21875 136.816406 146.335938 129 C 147.859375 125.1875 148.332031 119.117188 151.738281 116.367188 C 156.386719 112.617188 162.078125 117.394531 167.488281 116.304688 C 169.851562 115.828125 172.078125 114.894531 174.097656 113.578125 C 174.695312 117.277344 176.308594 119.816406 177.679688 121.371094 C 182.574219 126.941406 191.570312 128.738281 200.601562 125.953125 C 205.320312 124.496094 209.394531 121.988281 212.558594 118.726562 C 213.910156 124.371094 216.742188 127.785156 218.890625 129.664062 C 222.28125 132.628906 226.648438 134.191406 231.125 134.191406 C 233.265625 134.191406 235.429688 133.835938 237.523438 133.105469 C 243.871094 130.890625 248.382812 125.628906 249.59375 119.03125 L 242.707031 117.769531" fill="#35328d"/></g></g></svg>