<?xml version="1.0" encoding="UTF-8"?><svg xmlns="http://www.w3.org/2000/svg" enable-background="new 144.0179 202.0055 1736.9821 1465.9899" version="1.1" viewBox="144.0179 202.0055 1736.9821 1465.9899">
 <g id="change1_1"><path d="m1631.2 256.09c1.25-0.04 2.53-0.08 3.8301-0.1 0.7 1 1.4199 2.01 2.1799 3.01-0.0299 11.01 0.2201 22.04-0.1 33.03-2.53 3.16-1.1799 7.2-1.85 10.84-0.36 0.32-1.0699 0.96-1.4301 1.28-0.47 2.66 1.0601 6.19-1.4399 8.11-0.7 3.16 1.55 7.76-1.79 9.8-0.02 1.72 0 3.45 0.0701 5.18-0.65 0.48-1.29 0.96-1.9 1.44 0.02 0.8 0.0599 2.4 0.0699 3.19-1.6 1.22-1.46 3.21-1.6499 4.99-2.1801 1.46-1.05 4.45-2.7101 6.25-0.28 1.75-0.0399 3.79-1.71 4.91-0.09 2.52-1.17 4.76-2.45 6.86-0.52 0.99-1.04 1.99-1.4601 3.02-1.4299 1.37-1.28 3.32-1.4399 5.12-3.0701 4.82-5.35 10.3-9.5901 14.25-0.0199 0.5-0.0499 1.51-0.0699 2.02-1.99 1.7-3.86 3.55-5.39 5.67 2.65 2.16 4.6 5.31 7.92 6.56 2.22 0.54 2.22 3.21 3.53 4.7 1.6699 1.92 3.6499 3.56 5.48 5.34 0.0399 0.51 0.12 1.53 0.1599 2.04 1.5701 1.29 3.0801 2.77 3.3601 4.91 0.36 0.32 1.1 0.96 1.46 1.28 0.01 0.78 0.02 2.35 0.03 3.13 0.6899 1.16 1.23 2.41 1.6799 3.71 0.38 0.28 1.16 0.85 1.54 1.13-0.1 1.18-0.1801 2.37-0.24 3.56 0.4399 0.37 1.34 1.12 1.7899 1.49-0.09 0.83-0.2599 2.48-0.35 3.31l1.88 1.32c0.22 2.25-1.02 5.44 1.67 6.65 0.11 4.43 0.0499 8.86-0.01 13.29 0.4 0.34 1.21 1.02 1.61 1.35-0.16 3.84-0.14 7.68-0.16 11.52 0.4601 0.32 1.39 0.96 1.86 1.27-0.0399 3.37-0.33 6.75 0.03 10.11 0.4 0.37 1.1901 1.12 1.59 1.49 0.38 3.26-1.0699 7.16 1.41 9.84 0.4301 2.67-1.11 6.37 1.75 8.05 0.42 2.65-1.11 6.22 1.49 8.08-0.02 0.81-0.0699 2.43-0.09 3.24 0.48 0.35 1.4301 1.06 1.9 1.41v2.05c2.3099 1.38 1.1 4.59 3.01 6.33 0.0399 0.43 0.13 1.31 0.1699 1.74 1.04 0.78 1.7001 1.87 2.0601 3.14 0.85 1.6 1.6799 3.23 2.49 4.88 0.39 1.19 0.96 2.3 1.87 3.22 0.0601 0.44 0.17 1.31 0.23 1.75 1.3 2.3 2.6801 4.61 4.73 6.37 0.02 0.4901 0.0801 1.4901 0.11 1.9901 4.1101 2.58 5.2301 7.63 9.13 10.43 1.4801 5.37 7.63 7.41 9.4501 12.62 9.45 9.92 19.5 19.32 28.95 29.27 0.51 0.04 1.53 0.11 2.03 0.15 2.0599 2.19 4.1899 4.33 6.3 6.5 0.5499 0.06 1.6599 0.17 2.21 0.22 2.3199 2.45 4.39 5.41 7.6799 6.66 1.4601 1.26 2.9701 2.54 4.89 3.13 1.02 0.87 2.05 1.76 3.12 2.64 1.88 0.54 3.3301 1.88 4.8101 3.13 1.98 0.61 3.45 2.09 4.84 3.59 0.4501 0 1.36 0.01 1.8101 0.02 0.9199 0.95 1.8999 1.92 2.88 2.89 3.1 1.06 6.11 2.57 8.2799 5.13 0.4501 0.03 1.3401 0.08 1.78 0.11 6.0801 6.25 15.03 8.43 21.09 14.7 0.4601-0.01 1.38-0.01 1.8301-0.01 1.53 1.62 3.08 3.23 4.63 4.86 0.51 0.03 1.53 0.11 2.03 0.15 1.6499 1.9 3.2999 3.97 5.71 4.97 2.8199 1.27 4.2 4.37 6.95 5.77 3.5 1.66 6.6 4.53 7.8101 8.3 2.21 2.42 5.12 4.36 6.36 7.52 0.47 1.4 1.7999 2.16 2.89 3.07-0.0601 0.85-0.17 2.54-0.22 3.39 0.36 0.37 1.08 1.1 1.4399 1.47-0.1 4.35 0.25 8.73-0.2 13.07-0.5 2.93-2.8301 4.93-4.2201 7.4-1.6799 3.31-4.83 5.47-7.23 8.2-0.47-0.01-1.4299-0.04-1.9-0.05-1.5299 1.61-3.0599 3.22-4.5599 4.85-0.47 0.06-1.39 0.19-1.86 0.25-4.04 2.63-8.5701 4.4-12.84 6.59-2.71 1.51-5.5699 2.73-8.1499 4.43-1.1801 0.01-2.3401 0.03-3.4601 0.06-0.3099 0.45-0.9299 1.35-1.23 1.8-1.2999-0.03-2.58-0.05-3.84-0.07-0.3 0.4-0.91 1.18-1.22 1.58-1.8101 0.18-3.64 0.32-5.11 1.47-1.0601 0.09-2.0801 0.2-3.0801 0.32-1.5499 2.3-4.4299 1.41-6.73 1.6-0.3 0.37-0.9 1.11-1.2 1.48-0.86-0.04-2.5901-0.12-3.4601-0.17-0.2999 0.47-0.9199 1.4-1.22 1.86-1.34-0.03-2.64-0.06-3.92-0.07-0.3099 0.45-0.9199 1.34-1.23 1.78-1.14 0.02-2.24 0.07-3.3199 0.13-1.41 1.14-3.21 1.3199-4.89 1.63-1.71 2.06-4.51 1.27-6.8101 1.46-0.2999 0.4-0.8999 1.22-1.2 1.63-2.29 0.14-4.9-0.4-6.67 1.39-1.73 0.05-3.47 0.07-5.1399 0.1-0.27 0.44-0.8 1.33-1.0701 1.77-2.79-0.04-5.5599-0.05-8.3099 0.08-1.88 1.79-4.5801 1.2599-6.9 1.36-8.37-0.11-16.73 0.01-25.09-0.03-1.48 0.14-2.7599-0.47-3.86-1.33-4.3099-0.21-8.62 0-12.92-0.2-2.79-3.19-7.61-1.02-11.28-1.73-2.77-2.32-6.64-1.0601-9.9-1.33-0.36-0.45-1.09-1.37-1.45-1.83-3.42 0.08-6.8301 0.08-10.23 0.1-0.26-0.45-0.79-1.33-1.05-1.77-2.8101-0.16-6.01 0.75-8.3-1.31-1.1499-0.05-2.2699-0.09-3.37-0.11-0.3099-0.44-0.9199-1.3-1.23-1.7401-1.7999-0.03-3.5599-0.05-5.3199-0.12-1.5-1.13-3.12-2.07-4.73-2.98-2.25-0.21-5.0701 0.59-6.4501-1.72-1.1799-0.05-2.34-0.08-3.48-0.09-0.28-0.36-0.85-1.1-1.13-1.46-1.8 0.01-3.5699 0.03-5.3199 0.06-0.3101-0.48-0.9301-1.42-1.24-1.9-1.75 0.09-3.5 0.17-5.2101 0.28-0.33-0.48-1.01-1.46-1.35-1.94-2.83 0.03-5.64 0.04-8.45 0.03-0.64 2.32-2.0701 4.22-3.9 5.73-0.03 0.42-0.1 1.24-0.13 1.65-0.9501 1.67-1.8201 3.39-3.0701 4.85-0.0599 1.66-0.08 3.32-0.09 5-4.01 2.49 0.41 8.3-3.0599 11.21-0.16 4.42-0.0601 8.86-0.01 13.29-0.4701 0.3-1.41 0.9-1.88 1.2 0.0499 2.28 0.09 4.55 0.1799 6.85-0.4199 0.32-1.25 0.96-1.6599 1.29 0.0599 0.86 0.1799 2.58 0.25 3.45-0.5 0.34-1.49 1.02-1.99 1.3701 0.0599 1.21 0.1399 2.43 0.24 3.66-0.4 0.3-1.1901 0.89-1.5901 1.18-0.72 2.41-1.6499 4.8-3.3099 6.73-0.03 0.44-0.0801 1.34-0.11 1.79-0.92 0.91-1.8101 1.84-2.6901 2.79-3.0399-1.4-4.7999-4.49-7.7999-5.94-1.38-0.53-2.8201-1.02-4.2001-1.44-0.28 2.59 0.76 5.76-1.45 7.76-0.02 1.12-0.01 2.25 0.03 3.4-0.37 0.29-1.12 0.88-1.4901 1.17-0.2899 1.29-0.84 2.44-1.6599 3.47-0.0601 0.4-0.17 1.22-0.23 1.63-0.92 0.92-1.5801 2.02-2.03 3.23-1.14 3.22-3.4301 5.74-5.89 8.02-0.35 3.12-3.5699 4.4-4.8 7.03-0.7799 1.76-2.1899 3.08-3.5399 4.41-0.02 0.58-0.05 1.75-0.0701 2.33-0.96-0.01-1.9-0.01-2.83 0-0.34-1.45-0.77-2.81-1.74-3.93-0.3301-1.69-0.65-3.35-1.3301-4.91-0.4399-1.18-1.08-2.22-2.0299-3-0.05-0.85-0.15-2.55-0.2001-3.4-4.3099 4.3-8.5599 8.66-12.95 12.88 0.01 0.47 0.01 1.39 0.02 1.86-2.86 2.72-4.9401 6.23-6.85 9.65-1.4 1.3-1.29 3.22-1.4601 4.97-2.88 2.24-0.49 6.64-3.22 9.16-0.54-0.39-1.61-1.17-2.14-1.56-2.99-0.84-4.51-3.77-7.14-5.17-2.1799-1.27-4.0399-3.04-6.39-3.96-1.45-1.34-2.83-2.72-4.1599-4.14-0.8201-0.02-1.62-0.03-2.39-0.02-0.36 1.38-0.8201 2.76-1.74 3.9 0.01 0.79 0.0399 2.38 0.0599 3.18-0.49 0.36-1.47 1.09-1.95 1.45 0.0599 1.23 0.14 2.46 0.24 3.71-0.46 0.3-1.39 0.91-1.85 1.21-0.05 0.49-0.14 1.47-0.1901 1.96-0.71 1.0099-1.2999 2.1-1.74 3.2599-1.72 1.38-1.22 3.63-1.34 5.57-1.64-0.02-3.26-0.02-4.86-0.02 0.0299-0.65 0.08-1.97 0.1-2.62-3.37-2.83-6.03-6.41-9.5701-9.03-0.2799 1.48-0.5499 3.01-1.5099 4.24-0.26 1.81-0.1201 3.9-1.9 5.02-0.01 0.48-0.04 1.43-0.0601 1.91-1.12 0.87-2.2 1.76-3.27 2.65-0.01 0.52-0.0199 1.56-0.0199 2.08-1.4601 0.81-1.7301 2.35-1.9 3.86-1.4601-0.03-2.9-0.05-4.3201-0.07-0.37-4.53-5.12-6.55-7.51-9.93-2.51 2.7-5.0699 5.36-7.74 7.89-1.2799 0.63-2.51 1.3-3.71 2.0099-1.17 0.02-2.3101 0.05-3.4301 0.09-0.3099 0.44-0.9099 1.32-1.22 1.75-1.13 0.03-2.25 0.07-3.34 0.13-1.42 1.1-3.22 1.3-4.9 1.65-1.22 0.85-2.61 1.39-4.01 1.78-0.02 0.51-0.0599 1.52-0.08 2.02-1.2001 0.87-1.75 2.14-1.89 3.59-0.4 0.32-1.1901 0.97-1.59 1.29 0.0599 0.86 0.1799 2.58 0.24 3.45-0.42 0.33-1.25 0.9901-1.67 1.32 0.02 1.12 0.05 2.25 0.11 3.4-2.66 1.4-1.58 4.59-1.77 7.01-0.39 0.18-1.1599 0.54-1.5499 0.72 0.0599 0.89 0.2 2.67 0.26 3.56-0.5 0.35-1.49 1.05-1.99 1.4 0.0699 1.22 0.1599 2.45 0.26 3.69-0.4901 0.32-1.4701 0.98-1.9601 1.31 0.02 1.08 0.04 2.17 0.0801 3.28-2.3601 2.14-1.1901 5.55-1.39 8.34-0.48 0.32-1.4301 0.97-1.9 1.29 0.0599 1.22 0.15 2.45 0.25 3.7-0.48 0.32-1.46 0.96-1.9501 1.27 0.02 0.85 0.0601 2.54 0.0801 3.38-2.13 1.61-0.5801 4.9-2.9301 6.32-0.2999 1.67-0.02 3.63-1.4399 4.88-0.1801 1.84-0.34 3.77-1.9501 4.98-0.01 1.15 0.01 2.32 0.0601 3.51-0.45 0.3-1.34 0.89-1.79 1.19-0.0399 0.49-0.13 1.47-0.1799 1.96-0.77 0.96-1.3501 2.02-1.75 3.19-0.8501 1-1.3301 2.18-1.52 3.48-0.38 0.34-1.15 1-1.54 1.33 0.01 0.8 0.03 2.39 0.04 3.19-0.84 1.03-1.39 2.24-1.6801 3.54-0.9199 0.82-1.86 1.62-2.76 2.45-0.0699 0.53-0.21 1.59-0.2799 2.13-1.53 1.42-3.16 2.88-3.64 5.02-2.3401 3.91-4.53 8.04-7.75 11.31 0.01 0.46 0.02 1.38 0.02 1.85-4.39 2.72-5.42 8.22-9.8401 10.92-0.02 0.59-0.08 1.75-0.11 2.33-1.0699 0.83-2.11 1.6801-3.15 2.52 0.03 0.54 0.11 1.62 0.14 2.16-1.1599 0.88-2.28 1.78-3.4099 2.69 0.0499 0.52 0.1499 1.5699 0.2 2.09-1.11 0.86-2.1901 1.75-3.27 2.64 0 0.51 0 1.51-0.01 2.01-2.04 1.73-3.53 3.94-4.5 6.42-1.4299 2.89-3.52 5.37-5.2 8.1-0.05 0.4501-0.15 1.3301-0.2001 1.78-0.9199 0.87-1.5499 1.96-1.98 3.16-0.5 1.14-0.97 2.3099-1.41 3.49-0.2599 0.2899-0.7799 0.88-1.0399 1.1699-0.35 1.3101-0.9501 2.52-1.92 3.49-0.0699 0.4501-0.21 1.3401-0.28 1.79-1.6599 1.0701-1.25 3.14-1.5599 4.8201-2.39 1.3999-0.75 4.75-2.9501 6.3099 0.04 0.8201 0.1201 2.46 0.16 3.28-0.7 0.47-1.38 0.96-2.0499 1.45 0.08 0.92 0.23 2.75 0.3099 3.67-0.5 0.3199-1.5 0.96-2 1.28 0.0701 0.88 0.21 2.63 0.28 3.51-0.4 0.2899-1.2001 0.88-1.6 1.1799-0.2201 2.27 0.9399 5.42-1.7201 6.64-0.0299 1.76 0 3.54 0.04 5.33-0.46 0.3201-1.38 0.9701-1.83 1.29-0.01 1.67 0 3.35-0.01 5.05-2.3201 1.4199-1.14 4.36-1.37 6.5599-0.4501 0.3-1.37 0.89-1.8301 1.1801 0.03 2.34 0.0801 4.6899 0.14 7.0499-0.5499 0.3101-1.6599 0.9501-2.21 1.26 0.61 0.4501 1.84 1.3401 2.46 1.79-2.84 1.39-1.5 4.87-1.74 7.36-0.26 2.34 1.02 5.72-1.73 6.96-0.0599 4.4701-0.03 8.9301 0.05 13.41-0.4701 0.3101-1.4 0.9401-1.86 1.26 0.13 7.24-0.0601 14.49 0.13 21.74-0.38 0.11-1.16 0.3201-1.54 0.4301 0.1 17.04-0.04 34.09 0.0699 51.13 1.05 0.74 1.52 1.75 1.41 3.0199 0.14 7.66-0.33 15.35 0.15 23 0.51 0.3201 1.51 0.9701 2.01 1.29-0.92 0.61-1.8301 1.22-2.7201 1.86 0.77 0.4301 1.55 0.87 2.3501 1.3401-0.0901 5.5499-0.1001 11.1-0.05 16.66 0.37 0.3 1.1 0.88 1.47 1.1801 0.8201 5.5-0.27 11.15 0.4401 16.68 0.4299 0.3401 1.27 1.02 1.6899 1.3601-0.63 0.4399-1.9099 1.3099-2.5399 1.75 0.5299 0.33 1.6 0.98 2.1399 1.3099-0.08 5.04-0.0299 10.08-0.1 15.13 0.4601 0.29 1.39 0.87 1.86 1.16-0.0699 3.9-0.0599 7.8099-0.1399 11.73 0.3999 0.34 1.1899 1.02 1.59 1.36-0.12 4.36-0.1801 8.73-0.03 13.11 0.39 0.37 1.15 1.12 1.53 1.5 0.63 4.4301-0.4 8.99 0.4199 13.39 0.3601 0.33 1.0701 1 1.42 1.33 0.12 6.7001 0.0601 13.42 0.01 20.14 0.4 0.12 1.1801 0.37 1.58 0.5 0.02 4.01-0.51 8.0901 0.15 12.08 0.36 0.3199 1.0801 0.96 1.4401 1.2899 0.1 4.04 0.0299 8.0901 0.01 12.15 0.46 0.12 1.37 0.35 1.83 0.46 0.23 3.42-1.15 7.49 1.34 10.35 0.0601 2.73 0.03 5.48-0.02 8.23 0.4601 0.28 1.39 0.84 1.8501 1.12-0.0601 3.84-0.1101 7.6899-0.01 11.55 2.12 2.24 1.25 5.5 1.35 8.3 0.47 0.3199 1.39 0.9399 1.86 1.25-0.0601 2.35-0.12 4.7-0.15 7.0699 0.46 0.29 1.38 0.88 1.84 1.17 0.2301 2.77-1.0299 6.1901 1.38 8.29 0.04 2.74 0.01 5.5-0.0399 8.26 0.47 0.3099 1.4 0.9399 1.86 1.25-0.0701 2.7999-0.11 5.62-0.0701 8.45 3.0601 1.6 1.3401 5.54 1.7001 8.28 0.39 0.3199 1.1799 0.95 1.5699 1.26-0.0699 1.84-0.11 3.71-0.14 5.59 0.4701 0.14 1.42 0.41 1.9 0.55-0.1 1.24-0.1799 2.51-0.24 3.7999 0.41 0.3201 1.22 0.98 1.62 1.3 0.3101 2.73-1.36 6.62 1.6801 8.28-0.03 1.1899-0.05 2.3999-0.05 3.6399 0.45 0.27 1.34 0.8101 1.78 1.0801 0.04 0.5 0.11 1.49 0.14 1.98 1.73 1.71 0.86 4.54 2.6 6.3 0.4 1.1 0.85 2.2899 1.71 3.1899 2.12 5.2 4.55 10.36 9.2001 13.78 2.5599 1.4 5.3999 1.9299 8.33 1.7 1.42-1.53 2.89-3.21 5.11-3.5 0.87-1.03 1.75-2.0499 2.64-3.0499 3.0699 1.5199 6.46 1.7899 9.86 1.73 2.46 2.87 6.62 1.22 9.91 1.73 1.4299 2.22 4.15 1.53 6.4 1.83 1.8099 1.6001 4.2999 1.15 6.5399 1.4501 0.98 0.8099 2.0801 1.47 3.28 1.99 3.4401 1.24 6.09 3.7899 8.48 6.48 0.97 2.29 2.25 4.54 2.11 7.14 0.4401 0.3199 1.3301 0.95 1.77 1.27-0.0599 0.87-0.1799 2.61-0.25 3.48 0.4301 0.33 1.27 1 1.6901 1.33-0.0601 1.0801-0.1001 2.2001-0.12 3.3301 1.75 1.46 3.2899 3.1899 3.89 5.48 2.21 2.2899 4.49 4.5299 6.72 6.83 0.52 0.03 1.5399 0.08 2.0599 0.11 2.4501 2.36 4.37 5.65 7.86 6.6 2.65 2.77 6.0801 5 7.5601 8.7001 0.6 1.28 1.8199 2.08 2.87 3.03-0.02 2.7799-0.03 5.5699-0.14 8.38-0.8199 1.11-1.4399 2.34-1.92 3.6599-1.0699 1.03-2.36 1.76-3.73 2.3-1.5 1.29-2.97 2.6899-4.95 3.1699-0.3201 0.3301-0.97 0.9801-1.29 1.3101-1.1799 0.01-2.33 0.05-3.46 0.12-1.21 1.84-3.4 1.61-5.29 1.8-0.21 0.4399-0.61 1.33-0.8199 1.7699-2.4601-2.5599-4.9301-5.1-7.4301-7.61-0.1 1.5901-0.1699 3.16-0.1899 4.79-2.3301 2.3101-4.6 4.6901-7.03 6.91-1.3 0.38-2.53 0.95-3.5699 1.8199-0.41 0.13-1.2201 0.38-1.6201 0.5-2.3999 1.8-5.5 1.03-8.25 1.16-0.34 0.46-1.0199 1.37-1.36 1.83-9.49-0.21-18.99-0.01-28.48-0.11 0.04-0.97 0.12-2.9199 0.15-3.89-0.86-0.95-1.71-1.9099-2.53-2.84-1.2 0.54-2.37 1.11-3.5 1.74-3.74 0.09-7.48 0.2-11.2 0.1-1.4501 0.26-2.37-0.72-3.14-1.73-0.9401 0.66-1.87 1.34-2.78 2.04-4.14-3.9401-10.2-0.89-15.23-1.7101-0.34-0.45-1.01-1.35-1.34-1.7999-2.8201 0.03-5.63 0.04-8.42-0.0601-2.72-3.26-7.6-1-11.25-1.75-1.4299-1.2899-3.34-1.39-5.12-1.5199-0.28-0.39-0.85-1.1801-1.14-1.5801-1.2899 0-2.5699 0.02-3.84 0.0601-0.3101-0.41-0.95-1.2201-1.26-1.62-3.6899 0.1699-6.5699-2.24-9.78-3.5801-2.4299-1.0399-4.62-2.49-6.5699-4.22-4.39-2.33-8.3-6.23-10.12-10.91-0.5601-1.2799-1.26-2.4399-2.17-3.4399 0.08-2.72 0.91-5.9-1.37-7.97-0.11-3.3601-0.26-6.7101-0.04-10.05 0.15-1.6899 1.63-2.89 1.65-4.58-0.22-4.3501-0.36-8.7001-0.2999-13.05-2.5-1.9301-1.05-5.4399-1.4501-8.08-2.99-1.66-0.7899-5.65-2.73-8.05-0.52-1.1899-1.16-2.27-2.0699-3.12-0.03-0.46-0.0901-1.38-0.12-1.84-1.9801-0.9501-1.6801-3.15-1.91-4.9301-1.66-1.8099-0.55-4.7899-2.71-6.23-0.2401-1.8 0-3.83-1.7001-4.96-0.27-1.78-0.36-3.63-1.62-5-0.47-2.6801 1.08-6.3401-1.77-8.02-0.1-3.34-0.02-6.67-0.09-9.99-1.88-0.97-1.33-3.23-1.4301-4.9 0.12-10.76-0.0299-21.52 0.0801-32.28-0.4601-0.3199-1.39-0.95-1.86-1.27 0.0599-2.8099 0.09-5.61 0.0399-8.3899-3.11-1.78-0.4199-6.1101-3.11-8.17-0.01-1.16 0.01-2.3 0.05-3.42-0.48-0.2999-1.4401-0.9099-1.92-1.21 0.03-1.15 0.0801-2.27 0.15-3.38-1.05-1.6-2.0699-3.2-3.2-4.7 0-1.2101 0.0399-2.41 0.1-3.5901-1.0801-0.9-2.16-1.8099-3.22-2.6599-0.02-0.55-0.0701-1.67-0.0901-2.2201-0.46-0.33-1.39-0.98-1.85-1.2999 0.0699-1.25 0.16-2.4701 0.26-3.6801-0.49-0.33-1.47-1.01-1.96-1.34 0.0299-0.83 0.08-2.49 0.11-3.3201-1.64-1.2-1.4501-3.23-1.63-4.98-1.12-0.75-1.64-1.76-1.5601-3.0299-0.0399-7.38 0.01-14.76-0.02-22.13-0.25-1.67 0.39-3.05 1.6901-4.05 0.12-3.9 0.05-7.8 0.04-11.69 0.3999-0.23 1.21-0.6899 1.62-0.9199-0.12-1.53-0.2001-3.02-0.28-4.51-2.96 0.01-5.92 0.01-8.87 0.03-0.5701-0.55-1.72-1.66-2.29-2.2101 0.1-13.67-0.0599-27.34 0.09-41-0.47-0.3099-1.3999-0.9299-1.87-1.24 0.04-2.99 0.0701-5.96 0.12-8.9299-3.48-0.03-6.9399-0.03-10.4-0.04-1.04-0.87-2.0701-1.72-3.1001-2.54 0.5701-0.3199 1.7001-0.9399 2.26-1.26-0.0599-3.34-0.2699-6.6899 0.04-10.01 0.39-0.42 1.1801-1.25 1.58-1.66 0.13-21.65 0.02-43.31 0.0601-64.96 0.1-1.3899-0.47-2.4199-1.71-3.0699-0.2001-3.89 0.24-7.79-0.17-11.65-0.39-0.36-1.17-1.0599-1.5601-1.4099-0.11-3.3601-0.0699-6.7201 0.04-10.07-0.4-0.3-1.1799-0.89-1.5699-1.1899 0.0399-2.8301 0.08-5.64 0.01-8.4401-4.1101-2.47 0.58-8.48-3.1001-11.24-0.08-2.72-0.0299-5.4301 0.03-8.13-0.46-0.33-1.4-1-1.86-1.33 0.02-1.78 0.03-3.55 0.03-5.3-2.54-1.21-1.1801-4.45-2.91-6.24-0.29-1.8199 0.0601-4-1.9399-4.88-0.05-1.67-0.0601-3.3199-0.0701-4.96-1.21-1.61-2.1899-3.37-3.21-5.0701 0.04-0.7999 0.13-2.3999 0.1699-3.2-0.37-0.3-1.11-0.89-1.47-1.1901-0.53-1.2899-1.1-2.5-1.74-3.7v-3.12c-0.48-0.34-1.4399-1.01-1.9199-1.35 0.0599-1.24 0.1399-2.47 0.23-3.6801-0.38-0.2999-1.14-0.9099-1.52-1.21-0.4401-1.1901-0.9-2.35-1.41-3.47-0.47-1.2001-1.0599-2.3101-1.96-3.1801-0.05-0.45-0.16-1.34-0.2101-1.78-2.0099-2.24-3.1499-5.09-3.2899-8.0699-0.8101-0.98-1.4-2.08-1.8101-3.23-0.88-1.6801-1.8099-3.3101-2.84-4.86-0.04-0.4401-0.13-1.3201-0.17-1.76-2.38-1.3401-0.89-4.64-2.98-6.13-0.0499-0.47-0.1699-1.4301-0.23-1.91-1.1801-0.86-1.7-2.14-1.85-3.53-0.38-0.33-1.15-0.99-1.54-1.3199 0.01-0.8 0.03-2.39 0.03-3.1901-0.8201-1.08-1.38-2.2999-1.71-3.58-0.38-0.3-1.13-0.89-1.51-1.1899 0.0299-1.75 0.08-3.4801 0.14-5.2101-0.8401-0.85-1.65-1.6899-2.4501-2.52-2.1799 2.3401-5.34 3.28-8.11 4.7101-1.17 0.5-2.26 1.12-3.26 1.88-0.41 0.13-1.23 0.39-1.65 0.5199-2.8999 1.25-6.08 1.8401-8.72 3.67-3.91 2.87-9.04 2.1-13.17 4.51 0.02 1.8101 0.0601 3.63 0.12 5.47-0.47 0.3-1.3999 0.91-1.87 1.2201 0.0901 6.6399 0.0901 13.29 0.01 19.94 0.4601 0.3 1.38 0.89 1.8401 1.1801-0.0901 8.7799-0.05 17.57-0.0701 26.36-0.1899 1.24 0.76 2.1499 1.41 3.1 0.21 8.0699-0.23 16.15 0.17 24.22 0.3999 0.42 1.2 1.26 1.6 1.6901 0.25 6.58-0.4 13.24 0.26 19.79 0.36 0.3201 1.08 0.9601 1.4299 1.29-0.03 6.53 0.41 13.11-0.3199 19.63 0.47 0.3 1.41 0.89 1.88 1.1899-0.1 4.51-0.04 9.02-0.11 13.54 0.46 0.3101 1.38 0.92 1.85 1.22-0.0801 3.9601-0.0701 7.92-0.12 11.89 0.46 0.3101 1.38 0.92 1.84 1.22-0.05 3.3201-0.09 6.66 0.01 10 1.86 1.13 1.33 3.3601 1.4301 5.2001 0.08 4.24-0.4601 8.54 0.1899 12.76 0.37 0.3099 1.11 0.95 1.48 1.27 0.04 2.7799 0 5.5699-0.0599 8.37 0.3999 0.33 1.1899 0.98 1.59 1.3099-0.08 2.8101-0.11 5.62-0.14 8.4501 0.46 0.2899 1.38 0.87 1.84 1.1699-0.0399 3.4-0.0499 6.8201-0.1499 10.24 0.48 0.3101 1.45 0.9501 1.9399 1.26-0.0699 2.76-0.13 5.52-0.26 8.3 0.42 0.36 1.25 1.09 1.67 1.45-0.0901 4.41-0.15 8.8301-0.01 13.26 4.14 2.42-0.84 8.87 3.39 11.25 0.0399 2.37 0.02 4.76 0 7.16 0.38 0.1 1.1599 0.3199 1.5499 0.4299-0.1 3.39-0.14 6.8-0.0299 10.21 3.0699 2.51 1.24 6.99 1.6 10.41 0.39 0.1001 1.1699 0.3 1.5599 0.4-0.0599 4.03-0.13 8.0601 0 12.1 4.1901 2.38-0.7799 8.77 3.37 11.26 0.0601 2.67 0.04 5.3401 0.11 8.03 2.2401 2.13 1.0801 5.34 1.42 8.0601-0.02 1.6599 1.3 2.9399 1.67 4.5599 0.15 2.36 0.0299 4.75 0.0499 7.15 2.77 1.33 1.49 4.7 1.75 7.12 0.17 3-0.9099 6.5699 1.36 9.04 0.0901 3.85 0.04 7.6899-0.0099 11.55 0.47 0.29 1.3999 0.85 1.87 1.13 0.45 3.74-1.4901 8.39 1.2799 11.48 0.12 3.3201 0.0701 6.66 0.03 10.01 0.46 0.28 1.38 0.8501 1.85 1.13 0.15 3.9701-1 8.3401 1.23 11.95 1.0701 2.47-0.47 5.6699 1.63 7.8199 0.2101 1.8101 0.12 3.88 1.9301 4.98 0.02 1.5801 0.05 3.1801 0.09 4.8 1.73 1.3199 1.74 3.41 1.8 5.4399 0.3199 0.11 0.95 0.3401 1.27 0.4601 0.1499 1.89-0.4301 4.35 1.74 5.36 0.03 0.4399 0.11 1.3199 0.15 1.76 0.95 1.5499 1.85 3.1599 2.7699 4.7799 3.2201 8.4301 9.8401 14.73 16.29 20.77 3.61 2.61 7.75 4.5601 10.92 7.77 0.49 0.02 1.47 0.0801 1.96 0.11 0.85 1 1.72 2.03 2.6 3.0801 0.53 0.0199 1.5701 0.0499 2.0901 0.0699 2.73 4.39 8.21 5.45 11.08 9.72 0.52 0.05 1.5699 0.14 2.09 0.1901 3.49 3.76 7.3101 7.22 10.74 11.06 0.49 0.04 1.49 0.1001 1.98 0.13 2.3201 2.91 5.7001 4.98 7.3501 8.41 1.71 3.54 5.7699 5.17 7.58 8.67 1.2 3.2799 4.63 4.9399 5.87 8.22 1.11 2 0.3 4.9 2.55 6.23 0.0399 0.4401 0.12 1.3101 0.1599 1.75 1.55 1.2 1.3 3.21 1.5901 4.97 0.35 0.3401 1.0399 1.02 1.38 1.35 0.4099 4.4501-0.01 8.9301 0.1799 13.41-0.4 0.29-1.2 0.86-1.6 1.15 0.05 0.87 0.16 2.62 0.21 3.49-1.46 0.63-2.88 1.3101-4.22 2.13-3.96 0.1801-7.89 1.45-11.38 3.26-5.9 0.22-11.8 0.14-17.69 0.12-2.67 0.1-4.87-1.6899-6.8201-3.27-1.02 0.8301-2.0599 1.65-3.14 2.41-2.6 1.34-6.1899-0.08-8.1 2.51-4.9 0.15-9.8 0.1699-14.69-0.02-1.9901-1.5699-4.29-2.67-6.7301-3.28-0.33-0.49-1-1.47-1.33-1.96-2.52 0.62-4.3 2.59-4.29 5.26-0.5699 0.03-1.72 0.09-2.2899 0.11-2.41 3.25-6.5601 3.99-9.62 6.39-7.7201 0.22-15.45 0.03-23.17 0.11-0.27-0.4-0.8-1.2-1.0699-1.61-1.17-0.05-2.3301-0.0801-3.4601-0.1-1.1599-1.7201-3.1799-1.74-5-1.89-1.01-0.5901-2.02-1.14-3.02-1.67-1.1399-0.5699-2.2699-1.12-3.3999-1.61-1.6001-0.89-3.2001-1.76-4.74-2.6801-0.42-0.0299-1.27-0.09-1.7001-0.12-4-4.0299-7.95-8.11-12.07-12.01-0.01-0.47-0.03-1.4299-0.04-1.8999-4.37-4.02-6.55-9.67-9.6899-14.53-0.0601-0.4401-0.17-1.3201-0.2201-1.77-0.9299-0.9-1.5399-2-1.97-3.15-0.51-1.1699-0.98-2.33-1.41-3.48-0.27-0.29-0.8099-0.88-1.08-1.17-0.34-1.33-0.79-2.5299-1.78-3.46-0.2999-1.76-0.27-3.71-1.72-4.95 0.01-1.16 0.04-2.29 0.09-3.4-0.47-0.3101-1.4099-0.91-1.88-1.21 0.01-1.7301 0.02-3.4601 0.02-5.14-2.13-1.53-1.23-4.3201-1.41-6.49-0.45-0.3201-1.35-0.9601-1.7999-1.29 0.0399-2.35 0.08-4.71 0.15-7.03-0.4701-0.2899-1.4-0.88-1.87-1.1699 0.0399-3.37 0.08-6.7301 0.0199-10.08-3.6599-2.64 0.9801-8.76-3.09-11.13-0.08-3.0699-0.0599-6.12-0.09-9.1699-0.4401-0.05-1.3201-0.14-1.76-0.1901-0.53-3.91 1.71-8.64-1.3201-11.79-0.1-3.2799-0.0399-6.5499-0.1-9.8099-0.39-0.4401-1.1899-1.3201-1.58-1.76-0.34-4.48-0.04-8.97-0.0601-13.44-0.3899-0.13-1.1599-0.38-1.5499-0.5 0.08-3.4301 0.12-6.8501 0.02-10.25-1-0.76-2.04-1.54-1.7101-2.9401-0.1-2.91 0.02-5.83 0.0801-8.72-0.4601-0.3-1.4-0.91-1.86-1.2101 0.0299-2.84 0.0599-5.6699 0.1499-8.49-0.3999-0.2899-1.1899-0.88-1.58-1.1699 0.05-2.8201 0.08-5.62 0.01-8.42-3.1801-2.17-1.22-6.66-1.64-9.87-0.8199-0.72-1.62-1.42-2.4-2.11-1.5599 0.01-3.08 0.0599-4.61 0.11-1.45-1.33-2.88-2.66-4.2999-3.97-0.03-0.52-0.0901-1.5601-0.1201-2.0701-4.08-2.47 0.8201-8.7799-3.33-11.26 0.23-2.7-1.24-6.36 1.66-8.0199 0.14-5.9801-0.02-11.96 0.02-17.93-0.3-1.45 0.52-2.47 1.7-3.14 0.0601-1.73 0.09-3.46 0.15-5.16-0.47-0.2999-1.4301-0.9099-1.9-1.21 0.04-2.33 0.09-4.63 0.16-6.9299-0.4-0.3201-1.1901-0.9601-1.59-1.28-0.02-2.86 0.96-6.27-1.6101-8.36-0.0499-1.66-0.0499-3.28-0.0699-4.9-2.63-1.25-1.52-4.39-1.73-6.67-0.37-0.27-1.12-0.8099-1.5-1.08 0.02-1.73 0.0499-3.45 0.0599-5.15-2.7-1.25-1.48-4.47-1.71-6.74-0.45-0.3-1.35-0.92-1.8-1.22 0.04-3.34 0.0901-6.6801-0.0199-10.01-3.9301-3.8 1.4199-11.03-3.05-14.35-0.0699-2.4701-0.05-4.9301-0.01-7.39-5.41-0.02-10.82-0.02-16.22-0.01 0.0099-2.46 0.02-4.92-0.04-7.35-2.3-1.24-1.99-3.65-0.01-4.9601 0.44-2.72-1.19-6.5199 1.82-8.1599-0.12-0.79-0.36-2.3501-0.49-3.14 0.49-0.3301 1.47-0.98 1.96-1.3101-0.04-1.7899-0.06-3.58-0.03-5.34 3.42-2.54 1.03-7.73 1.75-11.4-0.47-0.29-1.39-0.87-1.86-1.16 0.04-1.8999 0.09-3.7699 0.15-5.6399-0.42-0.1801-1.26-0.53-1.6801-0.7101 0.1-0.88 0.3-2.65 0.4-3.5399-0.51-0.3401-1.53-1.02-2.04-1.3601-0.27-2.7999 1.3-6.6399-1.57-8.4399-0.01-0.62-0.03-1.86-0.05-2.48-1.42 0.02-2.82 0.0599-4.21 0.13-5.19-3.79 0.68-11.71-3.87-15.54-0.08-7.16-0.07-14.33 0.02-21.48-0.48-0.3201-1.45-0.97-1.9301-1.29 0.77-6.48 0.16-13 0.52-19.49-0.47-0.33-1.41-0.98-1.88-1.2999 0.06-3.42 0.1-6.8301 0-10.23-3.34-2.01-1.1-6.61-1.6-9.74-0.4-0.2999-1.19-0.9099-1.59-1.21 0.06-2.84 0.08-5.66 0.14-8.48-0.47-0.3201-1.41-0.96-1.88-1.28 0.04-2.36 0.09-4.71 0.15-7.05-0.47-0.2999-1.41-0.8999-1.88-1.2-0.48-3.73 1.47-8.39-1.3-11.42-0.45-2.6699 1.12-6.2999-1.66-8.0299-0.19-2.01 0.1-4.15-0.91-5.9601-1.66-2.1699 0.57-5.5399-2.2-7.01-0.25-1.83 0.15-4.0699-1.91-4.95-0.05-2.24-0.04-4.47-0.1-6.6899-2-1.63-0.71-4.78-2.88-6.26-0.25-1.8101-0.08-3.8201-1.68-5.04-0.27-1.77-0.37-3.65-1.7-4.97 0.01-1.12 0.03-2.2201 0.07-3.3101-0.48-0.3099-1.45-0.9399-1.93-1.26 0.03-1.1699 0.07-2.33 0.13-3.47-1.1-1.58-2.12-3.1899-3.21-4.74 0.01-1.1901 0.04-2.35 0.08-3.5-0.37-0.3101-1.12-0.9401-1.49-1.26-0.42-1.15-0.9-2.26-1.42-3.34-0.44-1.22-0.9901-2.37-1.9301-3.23-0.06-0.4401-0.18-1.3101-0.23-1.74-1.2-1.4801-2.03-3.1801-2.77-4.89-0.36-1.27-1.04-2.36-1.96-3.25-0.02-0.49-0.04-1.4801-0.06-1.9701-1.13-0.8899-2.23-1.77-3.33-2.65 0.03-0.48 0.11-1.46 0.15-1.94-1.69-1.6-3.35-3.21-5.01-4.81 0.04-1.34 0.09-2.66 0.15-3.97-1.0099-0.05-3.03-0.15-4.04-0.21-0.4 0.38-1.2 1.13-1.6 1.51-1.11 0.46-2.19 0.95-3.26 1.49-0.4 0.13-1.21 0.4-1.62 0.53-1.09 0.64-2.19 1.2599-3.3 1.83-1.64 0.78-3.26 1.58-4.8 2.51-1.69 0.8-3.36 1.6-5.07 2.35-2.24 1.0099-4.24 2.41-6.1299 3.97-2.77 1.62-6.1201 2.36-8.14 5.0699-0.44 0.08-1.3 0.24-1.74 0.3199-1.45 1.51-3 2.9601-4.9301 3.8501-0.35-0.4701-1.05-1.42-1.41-1.9-2.75-0.6901-4.63-2.99-7.15-4.16-3.22-2.3099-5.58-5.62-8.64-8.12-0.01-0.51-0.02-1.55-0.03-2.06-1.07-0.95-2.13-1.9-3.17-2.82-0.02-0.45-0.05-1.35-0.07-1.79-1.08-1.62-2.08-3.28-3.15-4.87 0.02-1.16 0.06-2.31 0.12-3.44-0.47-0.31-1.41-0.93-1.8799-1.23 0.03-2.58 0.04-5.14 0.04-7.7-0.94 0.04-2.81 0.11-3.75 0.15-2.37 1.32-4.74 2.7-6.6 4.73-0.46 0.02-1.3701 0.06-1.83 0.08-0.95 0.93-1.86 1.88-2.78 2.83-1.24 0.6-2.46 1.24-3.66 1.91l-1.68 0.44c-1.02 0.7401-2.12 1.36-3.28 1.87-1.61 0.77-3.19 1.57-4.77 2.38-1.21 0.6-2.38 1.27-3.5 2.02-1.67 0.06-3.34 0.09-4.9901 0.13-0.23 0.36-0.68 1.09-0.9 1.46-1.73-0.05-3.45-0.08-5.15-0.1-2.1-1.16-4.38-2.12-5.91-4.02 0.42-0.4301 1.26-1.29 1.68-1.71 0.18-6.87 0.05-13.75-0.01-20.61-1.57 0.34-2.9 1.16-4.16 2.08-0.76 0.05-2.27 0.15-3.02 0.19-1.66 1.75-4.13 1.56-6.28 2.09-4.83 1.76-10.05 0.73-15.06 0.92-1.22-1.27-2.46-2.5-3.72-3.7 0.4-3.27-1.32-7.47 1.4-9.99-0.03-1.09-0.06-2.17-0.0699-3.23 1.79-0.84 1.79-3.05 2.12-4.68-0.7401 0.54-2.22 1.64-2.95 2.19-1.01 0.08-2.01 0.17-2.99 0.28-2.17 1.92-5.22 1.12-7.83 1.29-5.05-0.28-10.45 0.94-15.05-1.71-1.3-1.26-2.58-2.53-3.77-3.85-0.46-1.16-1.04-2.26-1.7-3.28-0.17-4.21-0.02-8.42-0.1-12.62-1.56 0.36-3.01 0.97-4.27 1.95-1.07 0.07-2.13 0.15-3.17 0.24-1.61 0.98-3.24 1.93-4.81 2.99-1.19 0.02-2.38 0.05-3.56 0.09-0.3 0.44-0.9 1.32-1.2 1.76-2.78 0.12-5.97-0.76-8.25 1.3-3.51 0.16-7.01 0.11-10.51 0.1-0.03 1.41-0.05 2.83-0.08 4.27-2.43 1.26-1.3 4.23-2.12 6.36-1.61 3.09-0.93 6.64-0.91 9.98-0.47 0.28-1.4 0.83-1.87 1.11 0.03 2.2 0.03 4.41-0.01 6.63-2.11 2.27-1.28 5.48-1.33 8.28-0.63 0.46-1.26 0.93-1.87 1.41 0.03 1.73 0.07 3.47 0.09 5.23-3.28 1.51-0.46 5.91-3.13 8.05-0.08 2.74-0.06 5.5 0 8.26-0.47 0.26-1.4 0.79-1.87 1.06 0.06 1.27 0.12 2.56 0.2 3.86-0.48 0.3199-1.4301 0.97-1.9 1.2899-0.14 2.24 0.74 5.03-1.38 6.62 0.01 1.13 0.03 2.26 0.08 3.42-0.48 0.3-1.42 0.91-1.9 1.22 0.01 1.0801 0.03 2.1801 0.06 3.3-1.41 1.39-1.49 3.3099-1.57 5.1699-0.41 0.3101-1.23 0.92-1.64 1.2201v3.51c-0.9901 0.86-1.61 1.99-1.98 3.24-0.78 1.63-1.61 3.24-2.48 4.83-0.53 1.0601-1.08 2.11-1.63 3.17-0.53 1.12-1.09 2.26-1.85 3.26-0.07 1.13-0.12 2.2599-0.16 3.4199-1.61 1.3201-3.03 2.88-3.66 4.92-0.81 0.98-1.24 2.13-1.44 3.39-0.96 0.85-1.92 1.6899-2.88 2.5399-0.02 0.52-0.08 1.5601-0.11 2.0801-3.08 2.1799-3.65 6.27-6.8 8.39-1.85 3.7-4.77 6.61-7.8799 9.3099 0.0099 0.48 0.05 1.4301 0.0699 1.91-7.83 7.67-15.59 15.42-23.26 23.25-0.5 0.02-1.4901 0.0599-1.9901 0.08-3.67 3.55-7.0099 7.48-10.93 10.75-4.67 1.78-6.68 6.92-11.14 8.97-3.8 1.9701-5.94 5.9401-9.35 8.42-5.92 3.17-9.89 8.77-14.77 13.23-13.99 14.07-28.13 27.98-42.02 42.13-1.43 5.23-7.36 7.3201-9.73 12-1.68 3.66-5.24 5.88-7.84 8.8301-0.85 2.83-3.08 4.8199-5.29 6.62-0.01 0.5299-0.02 1.6-0.03 2.13-2.09 1.8199-4.38 3.61-5.4 6.3099-1.27 2.6901-4.39 3.89-5.67 6.58-0.8 1.88-2.1 3.4701-3.65 4.8101 0.02 0.46 0.05 1.37 0.06 1.83-3.15 2.4301-4.95 6.2101-6.85 9.63-1.38 1.49-2.76 3.05-3.45 5.01-1.1 2.0801-2.19 4.1801-3.07 6.38-0.91 1.6-1.8199 3.2001-2.81 4.77-0.04 0.4301-0.12 1.3-0.16 1.73-2.47 1.3301-0.96 4.64-3.01 6.3-0.04 1.6699-0.03 3.35-0.01 5.0499-0.45 0.3101-1.34 0.9401-1.79 1.25-0.23 2.28 0.98 5.4801-1.71 6.6801-0.04 2.36 0 4.74 0.09 7.13-0.4 0.12-1.19 0.38-1.59 0.5 0.15 12.1-0.05 24.21 0.1 36.32 2.52 2.63 1 6.5701 1.42 9.8301 3 1.6699 1.33 5.58 1.63 8.35 0.49 0.34 1.46 1.01 1.95 1.35-0.1 2.1901-0.17 4.4-0.27 6.62 0.4 0.3 1.21 0.9 1.61 1.2001-0.05 2.8199-0.08 5.6499-0.01 8.5 2.7 1.1399 1.42 4.2999 1.6801 6.5299 0.39 0.3301 1.19 0.98 1.59 1.3101-0.06 0.86-0.18 2.59-0.24 3.46 0.47 0.3201 1.42 0.96 1.9 1.28-0.03 1.75-0.05 3.52-0.02 5.3099 2.65 1.2001 0.94 4.64 3.07 6.28 0.06 1.5701 0.09 3.17 0.17 4.78 0.95 1.1 1.6 2.42 1.97 3.86 0.37 0.28 1.12 0.84 1.49 1.12-0.05 0.85-0.15 2.53-0.2 3.38 0.32 0.33 0.95 1 1.27 1.34 0.3199 1.3301 0.93 2.5901 1.91 3.6001 0.05 0.98 0.09 1.98 0.13 3 0.95 1.6699 1.92 3.35 3.05 4.9399 0.06 0.4401 0.17 1.3199 0.22 1.76 0.92 0.86 1.5099 1.96 1.97 3.16 0.49 1.1499 0.97 2.3099 1.43 3.51 0.27 0.2799 0.79 0.85 1.05 1.1399 0.36 2.15 1.9901 3.6001 3.54 4.9901-0.01 0.4399-0.03 1.3199-0.04 1.7599 2.17 1.6201 3.4901 3.9801 4.51 6.4601 0.95 2.73 3.28 4.5499 5.35 6.4399-0.01 0.4701-0.05 1.41-0.07 1.88 7.28 6.42 13.06 14.89 22.22 18.79 0.28 0.26 0.84 0.78 1.12 1.05 2.47 0.7699 4.78 2.0099 6.91 3.48 3.21 0.2899 7.23-1.11 9.67 1.6499 6.24 0.2401 12.49 0.02 18.74 0.0801 1.48-0.2001 2.75 0.51 3.93 1.33 6.55 0.25 13.1 0.1 19.66 0.09 0.28 0.4501 0.84 1.3701 1.12 1.8201 2.3-0.05 4.61-0.08 6.92-0.13 0.33 0.4399 0.98 1.33 1.3 1.77 2.31 0.0599 4.9-0.3101 6.82 1.3199 1 0.0901 2.01 0.2001 3.03 0.35 2.73 2.2201 6.63 2.6001 8.91 5.4601 2.44 2.85 6.24 4.86 7 8.83 0.31 0.16 0.92 0.48 1.22 0.64-0.07 0.9-0.2 2.71-0.27 3.61 0.48 0.33 1.44 0.99 1.92 1.33-0.09 7.17-0.1 14.35 0 21.54-0.78 0.75-1.55 1.53-2.31 2.3301-3.79 0.45-8.52-1.4701-11.54 1.5199-2.23 0.2001-4.68-0.12-6.53 1.4301-1.02 0.1-2.02 0.24-3.02 0.4-1.14 0.83-2.43 1.4-3.75 1.88-0.33 0.2899-0.97 0.88-1.29 1.1699-1.77 0.2101-3.6 0.36-5.02 1.55-3.04 0.67-7.71-1.48-9.3 2.04-1.2-1.17-2.67-2.05-4.33-2.3-0.03 1.52-0.03 3.0699-0.01 4.64 3.35 2.22 1.13 7.0499 1.71 10.41-1.48 0.01-2.95 0.0399-4.41 0.09-0.26-0.42-0.79-1.25-1.06-1.67-4.39-0.6899-8.62-2.2899-13.17-1.45-0.52-0.64-1.03-1.26-1.53-1.86-8.34 0.08-16.67-0.03-25.01 0.0699-1.86-0.0699-3.88 0.14-5.5-0.9399-3.15-2.03-7.46 0.48-10.39-2.12-1.04-0.12-2.07-0.2101-3.09-0.27-1.53-1.6801-3.35-3.01-5.4-3.9401-1.9-0.83-1.99-3.2-3.23-4.6-1.87-2.14-4.03-3.99-5.95-6.0499-0.44-0.04-1.33-0.1201-1.77-0.16-2.07-1.26-4.09-3.13-6.64-3.04-9.25-0.02-18.51-0.03-27.76 0.04-0.27-0.4501-0.8-1.37-1.07-1.8201-1.23 0-2.44 0.03-3.65 0.0701-1.55-1.65-3.1201-3.27-4.68-4.89-0.63-0.04-1.88-0.1-2.51-0.13 0.01-0.63 0.04-1.89 0.05-2.51-1-0.88-1.97-1.73-2.93-2.59-0.27-1.4-0.72-2.72-1.86-3.6-0.05-0.4501-0.16-1.3401-0.21-1.78-1.17-1.5601-2.12-3.25-3.06-4.92-0.03-1.08-0.05-2.14-0.08-3.1699-2.56-1.3701-1.5-4.4601-1.68-6.77-0.38-0.25-1.13-0.75-1.5-1 0.03-1.75 0.06-3.4701 0.05-5.1801-4.03-2.4399 0.34-8.28-2.99-11.25-0.43-1.15-1-2.22-1.7-3.2-0.06-0.4701-0.19-1.4301-0.26-1.91-0.34-0.29-1.01-0.88-1.35-1.17-0.44-1.35-1.07-2.5599-1.75-3.76 0-1.0599 0.03-2.08 0.06-3.1-0.46-0.2899-1.38-0.88-1.85-1.1699 0.01-0.52 0.01-1.54 0.02-2.0601-2.13-1.71-3.5-4.04-4.52-6.51-0.4-1.13-0.95-2.1699-1.68-3.08-0.74-1.6901-1.47-3.37-2.17-5.04-1.59-1.53-2.96-3.25-3.58-5.37-0.82-0.84-1.63-1.66-2.43-2.48-0.18-1.1801-0.74-2.1901-1.27-3.1901-0.69-1.23-1.37-2.4199-2.1-3.58-0.04-0.42-0.12-1.27-0.16-1.6899-2.23-1.5601-3.45-3.9601-4.5-6.3601-1.28-2.9199-2.59-5.8999-5-8.0599-0.71-1.7-1.45-3.38-2.15-5.05-1.48-2.1-2.58-4.4299-3.37-6.84-0.97-0.92-1.94-1.83-2.9-2.7v-1.6801c-1.06-1.64-2.04-3.2999-3.1-4.9-0.01-0.48-0.03-1.4199-0.04-1.8999-1.04-0.8501-2.08-1.6901-3.11-2.52-0.02-0.5701-0.07-1.73-0.09-2.3101-1.13-1-2.25-1.98-3.37-2.95-0.08-0.48-0.24-1.4401-0.33-1.92-0.65-1.03-1.22-2.08-1.7-3.16-0.69-0.97-1.23-2.0299-1.65-3.11-0.59-1.25-1.19-2.5-1.8-3.72-1.27-1.3099-2.49-2.6801-3-4.45-0.83-1.64-1.65-3.24-2.45-4.86-0.44-1.14-0.98-2.1901-1.7-3.13-0.76-1.6801-1.5-3.3501-2.18-5.03-2.98-2.5701-4.01-6.4401-5.94-9.72-0.51-1.0601-1.01-2.12-1.51-3.15-0.43-1.2101-1.01-2.3301-1.92-3.2001-0.06-0.4399-0.18-1.3199-0.24-1.76-1.18-1.47-2.03-3.1399-2.76-4.85-0.49-1.2-1.11-2.3099-1.88-3.2999-0.08-0.4301-0.22-1.29-0.3-1.7101-1.66-1.84-1.14-4.6699-2.92-6.4199-0.05-0.42-0.16-1.25-0.21-1.66-2.29-1.37-1.08-4.4-2.7-6.1901-1.28-2.11-2.33-4.35-2.39-6.85-3.52-2.7799 0.47-8.26-2.84-11.2-0.08-3.75-0.25-7.5 0.03-11.23 0.32-0.4301 0.97-1.3 1.29-1.73 0.07-2.76 0.04-5.51-0.02-8.2401 0.47-0.3199 1.41-0.97 1.88-1.2899-0.03-1.15-0.04-2.28-0.05-3.38 1.07-1.6 1.98-3.28 2.9-4.9401 0.22-1.3099 0.78-2.47 1.9-3.22 0.01-0.49 0.02-1.47 0.02-1.96 1.99-1.6 4.1-3.22 5.05-5.6801 1.35-3.0699 4.83-4.49 6.16-7.58 1.04-2.79 3.64-4.39 5.54-6.5 2.38-4.37 5.72-8.14 8.04-12.54 0.98-2.4399 2.26-4.8099 4.51-6.2899-0.03-0.4501-0.08-1.3401-0.1-1.79 2.19-1.63 3.47-4.02 4.48-6.48 0.66-1.9701 2.15-3.42 3.66-4.75-0.02-0.48-0.07-1.4301-0.1-1.91 1.02-0.86 2.05-1.6901 3.09-2.52 0.05-0.5499 0.16-1.64 0.22-2.1899 0.44-0.3401 1.32-1 1.76-1.3401-0.04-0.49-0.1-1.46-0.13-1.95 0.98-0.96 1.97-1.88 2.93-2.8199 0.34-1.39 0.82-2.7201 1.98-3.6001 0.01-0.49 0.02-1.45 0.02-1.9299 1.09-0.9 2.18-1.79 3.28-2.66-0.03-0.5-0.09-1.49-0.12-1.99 0.93-0.92 1.87-1.8 2.8-2.7 0.64-1.3 1.31-2.55 2.03-3.78 0.07-0.41 0.21-1.25 0.28-1.67 0.92-1.11 1.91-2.25 1.77-3.77 0.99-0.8199 2-1.62 3.02-2.39v-1.9299c0.99-1.05 1.94-2.17 1.9-3.6801 0.97-0.87 1.95-1.71 2.95-2.5299 0.02-0.4701 0.05-1.42 0.07-1.89 1.01-1.5701 1.92-3.1901 2.84-4.8 0.71-1.76 1.56-3.46 2.44-5.13 0.54-0.99 1.02-2.04 1.53-3.02 0.52-1.1 1.04-2.1799 1.55-3.26 0.87-1.6699 1.78-3.3099 2.79-4.88 0.04-0.4399 0.13-1.3099 0.17-1.74 2.5-1.36 0.7-4.85 3.06-6.33-0.03-0.8101-0.1-2.4301-0.13-3.24 0.49-0.35 1.47-1.0601 1.95-1.41 0-0.5-0.01-1.5-0.01-2 2.6-1.27 0.89-4.74 3.09-6.33-0.03-0.86-0.07-2.59-0.1-3.4601 0.48-0.2999 1.44-0.8999 1.92-1.2-0.05-1.76-0.08-3.51-0.09-5.25 2.09-0.84 1.71-3.1 1.94-4.9 2.05-1.58 0.99-4.4 1.24-6.5599 0.45-0.3 1.33-0.9 1.78-1.1901 0.05-2.22-0.39-4.5299 0.34-6.6599 1.83-3.7201 0.86-7.9601 1-11.93 0.46-0.12 1.39-0.37 1.85-0.5-0.1-5.51-0.07-11.02 0.02-16.53-1.74 1.37-3.37 2.87-4.97 4.41l0.04 2c-2.43 2.47-5.61 4.4301-6.9 7.8099-1.96 3.0601-5.05 5.1901-7.53 7.8201-0.03 0.52-0.09 1.5699-0.11 2.1-4.69 4.41-9.09 9.12-13.75 13.56-2.16 1.64-2.58 4.5599-4.6 6.3199-7.59 7.24-14.74 14.93-22.39 22.1 0.05 0.55 0.15 1.63 0.2 2.17-1.56 1.16-3.31 2.04-5.16 2.64 0.03 0.6699 0.1 2.02 0.14 2.6899-0.81 0.01-2.43 0.03-3.24 0.04 0.04 3.02 0.06 6.04 0.12 9.08-0.46 0.3-1.39 0.91-1.86 1.2101 0.06 3.8199 0.11 7.6499 0 11.49-1.93 1.73-1.31 4.37-1.5 6.6699-2.07 0.9701-1.62 3.1901-1.72 5.0601-1.05 0.88-2.09 1.79-3.13 2.6899 0.01 0.49 0.03 1.4701 0.05 1.9701-2.49 2.2999-4.57 5.4299-8.12 6.1399 0.13 8.2301-0.02 16.47 0.1 24.71-0.47 0.3199-1.4 0.96-1.86 1.2899 0.06 2.8601 0.08 5.7401 0.14 8.63-0.45 0.3-1.35 0.92-1.8 1.2301-0.03 2.1899 0.28 4.5499-0.9 6.5599-0.79 1.78-2.07 3.25-3.51 4.55-0.18 0.72-0.54 2.1699-0.72 2.9-0.53-0.04-1.59-0.1201-2.12-0.16-1.02 1.08-2.04 2.16-3.04 3.27-3.02-0.02-6.04-0.03-9.06-0.02 0 16.76-0.01 33.52 0.01 50.28-0.67-0.04-2.02-0.13-2.69-0.17-1.96-2.23-4.62-3.54-7.26-4.76 0.02 1.14 0.06 3.41 0.08 4.55 0.46 0.2899 1.37 0.86 1.82 1.1499-0.13 7.12 0.02 14.26-0.05 21.39 0.1 1.3401-0.47 2.35-1.7 3.03-0.34 3.76 0.84 7.84-1.02 11.34-0.66 1.5701-0.34 3.3301-0.4 5.02-0.48 0.34-1.44 1.03-1.92 1.38 0.03 0.5 0.08 1.5 0.11 2-2.05 1-1.71 3.3101-1.83 5.23-1.99 1.54-3.79 3.3201-5.44 5.23-0.48 0.04-1.42 0.12-1.9 0.16-1.93 1.16-3.86 2.35-5.66 3.74-0.25 3.24 1.35 7.27-1.25 9.85-0.47 2.63 1.2 6.4701-1.79 8-0.01 1.7401 0.01 3.51 0.05 5.28-0.44 0.3201-1.34 0.9601-1.79 1.28-0.14 2.17 0.56 4.77-1.2 6.5-0.25 1.8-0.05 3.9301-1.93 4.96-0.03 1-0.05 2.03-0.06 3.0701-1.21 2.11-2.4 4.26-3.95 6.1699-3.13-3.5599-6.53-6.86-9.84-10.24-0.99-1.26-2.65-1.4099-4.06-1.8099-0.03 0.7-0.07 2.09-0.09 2.7899-1.99 2.9501-3.75 6.1901-3.2 9.89-3.06 1.7101-0.46 6-3.09 8.12 0.02 1.0701 0.05 2.17 0.08 3.28-0.48 0.3101-1.44 0.9401-1.93 1.26 0.07 1.79 0.14 3.61 0.24 5.4401-1.28 0.9299-2.62 1.7699-3.99 2.58-0.36-0.4501-1.08-1.35-1.44-1.8-1.96-0.7999-3.88-1.6799-5.83-2.46-0.83-0.9301-1.65-1.84-2.47-2.73l-2.08-0.12c-1.44-1.6-2.68-3.51-4.66-4.4401-2.92-1.14-4.73-3.7899-7.16-5.61 0.15 2.5801-0.72 5.67 1.43 7.6801 0.13 3.36 0.08 6.73 0 10.1 0.48 0.25 1.43 0.74 1.91 0.98-0.08 2.22-0.12 4.46-0.07 6.71 2.61 2.12-0.04 6.4701 3.16 8.0901-0.01 1.73-0.05 3.47-0.09 5.24 0.47 0.2999 1.41 0.89 1.87 1.1899-0.06 2.8-0.1 5.61-0.03 8.4301 2.12 1.5599 1.23 4.33 1.39 6.58 0.47 0.3101 1.41 0.92 1.88 1.22-0.09 1.2201-0.17 2.4501-0.24 3.7101 0.46 0.33 1.38 0.99 1.85 1.3199 0.11 2.15-0.59 4.75 1.21 6.4501 0.24 1.7799-0.11 4 1.92 4.8899 0.35 2.6001-0.87 5.8401 1.13 7.9901 0.84 1.6799 1.67 3.3899 2.3 5.1899 0.64 0.64 1.3 1.3199 1.96 2.02 1.34 0.26 2.54 0.9 3.57 1.8199 2.2 0.1901 4.57-0.02 6.5 1.28 2.35 0.5699 4.62 1.45 6.85 2.4 0.29 0.2999 0.87 0.9 1.16 1.1899 2.36 0.24 4.6 1.01 6.79 1.88 0.3 0.29 0.89 0.86 1.19 1.14 3.5 0.96 5.46 4.27 7.94 6.66 0.51 0.03 1.54 0.09 2.05 0.12 6.03 6.14 12.14 12.21 18.26 18.26 1.28 1.13 1.93 2.72 2.52 4.3099 1.8 1.76 4.11 3.3101 4.57 5.99 1.05 1.0701 2.12 2.13 3.2 3.2101-0.01 0.83-0.03 2.49-0.04 3.3199 2.1 1.4301 1.24 4.13 1.47 6.3 1.95 1.26 2.35 3.77-0.01 4.9299-0.05 1.6001-0.07 3.2201-0.11 4.86-0.67 1.04-1.26 2.15-1.74 3.3201-2.33 3.01-5.33 5.36-8.67 7.17-2.27 0.0499-4.53 0.09-6.79 0.1399-0.31-0.45-0.93-1.35-1.23-1.7999-1.18-0.03-2.36-0.05-3.52-0.04-1.29-1.2999-2.6-2.5699-3.92-3.79-0.08 2.7101-0.06 5.4401 0.01 8.1801-0.8 0.76-1.59 1.54-2.38 2.35-3.92-0.0599-7.84-0.0499-11.76-0.0499-0.33 0.4399-0.99 1.34-1.33 1.7799-4.73-0.7-10.44 1.5901-14.44-1.63-2.22-0.13-4.43-0.1799-6.64-0.2799-2.19-2.28-5.77-1.5-8.17-3.49-3.58-2.9-6.55-6.4601-9.83-9.67-1.45 1.8-2.98 3.53-4.56 5.23-0.43 0.04-1.29 0.13-1.73 0.1801-2.86 2.14-6.64 0.96-9.94 1.24-3.71-0.3201-7.79 0.89-11.18-1.0601-4.18-0.08-7.06-4.08-11.33-3.59-0.36-0.42-1.07-1.26-1.42-1.6801-0.52-0.0199-1.57-0.0399-2.09-0.0499-0.84-0.9601-1.68-1.89-2.51-2.8-1.92-0.8099-3.81-1.65-5.75-2.38-0.86-0.95-1.72-1.88-2.57-2.7899l-2.08-0.16c-0.82-0.89-1.65-1.75-2.48-2.59-3.63-1.14-5.94-4.26-8.53-6.8101-3.07-3.09-6.13-6.16-9.26-9.16-0.03-0.4399-0.08-1.2999-0.11-1.74-0.74-1.08-1.3-2.23-1.7-3.45-0.27-0.3-0.81-0.89-1.08-1.1901-0.26-1.34-0.73-2.5399-1.76-3.4299-0.28-1.77-0.35-3.64-1.65-4.99-0.48-2.67 1.15-6.4-1.78-8.01 0-1.1801 0.01-2.35 0.03-3.49-0.4-0.29-1.18-0.86-1.58-1.15-0.31-2.76 1.37-6.62-1.62-8.3-0.46-2.7 1.26-6.5-1.72-8.11-0.13-3.89 0-7.78-0.1-11.65-1.08-0.7799-1.66-1.84-1.41-3.1699-0.01-8.74 0.1-17.49 0.01-26.22 0.06-1.28-0.5-2.2201-1.69-2.8201-0.12-11.99 0.03-23.97-0.05-35.95 0.03-1.8401-1.79-3.1001-1.74-4.91 0.23-7.02 0.51-14.05 0.12-21.06-0.17-4.33 0.68-8.6899 0.03-12.99-0.5-0.2999-1.5-0.89-2.01-1.1799 0.64-0.51 1.91-1.53 2.55-2.04-0.55-0.3199-1.63-0.9399-2.17-1.26 0.08-5.53 0.11-11.06 0.02-16.58-4.11-2.36 0.57-8.51-3.1-11.14-0.06-2.83-0.03-5.65 0.04-8.45-0.47-0.27-1.41-0.8101-1.88-1.0801 0.03-1.7899 0.06-3.58 0.07-5.34-2.06-0.87-1.72-3.1-1.96-4.9-1.86-1.73-1.09-4.35-1.2-6.5599-0.45-0.3-1.36-0.91-1.82-1.2201 0.06-2.7799 0.1-5.5599 0.07-8.3199-1.08-0.72-1.6-1.7-1.56-2.9301-0.12-7.7999 0.03-15.6-0.04-23.39 0.43-0.3099 1.29-0.9199 1.72-1.22-0.06-1.14-0.1-2.25-0.13-3.35 2.57-1.92 1.71-5.67 3.57-8.14 2.32-3.7 4.35-7.71 7.44-10.81 0.26-0.89 0.52-1.76 0.78-2.61 3.29-3.2201 6.99-6.16 8.9-10.45 6.1-6.0499 12-12.33 18.36-18.11-0.03-0.5-0.08-1.49-0.11-1.99 1.18-0.99 2.35-1.98 3.53-2.9401-0.21-1.84-0.42-3.6799-1.64-5.13-0.06-0.4099-0.17-1.25-0.22-1.6599-1.92-1.39-1.45-3.97-2.58-5.8201-0.59-1.09-0.86-2.25-0.82-3.46 0.02-13.63 0.07-27.25 0.08-40.87 3.23-2.21 1.12-6.72 1.75-9.9401 2.95-1.61 1.29-5.3999 1.74-8.0399 2.15-1.52 1.17-4.36 1.38-6.54 0.45-0.3099 1.36-0.9399 1.81-1.25-0.04-1.76-0.06-3.52-0.05-5.25 3.73-2.4 0.48-7.61 2.1-11.07 1.41-2.63 1.08-5.65 1.01-8.5 0.46-0.3 1.37-0.9 1.82-1.1901 0.06-2.65-0.56-5.52 0.82-7.9199 1.11-2.15 0.47-4.64 0.44-6.92 0.65-0.47 1.31-0.92 1.97-1.36 0.26-2.74-1.39-6.62 1.6-8.27 0.08-3.3199 0.01-6.63 0.08-9.9301 2.65-2.5 0.93-6.59 1.45-9.7799 3.37-2.6801 1.07-7.8101 1.61-11.54 0.47-0.33 1.41-0.98 1.88-1.3-0.05-4.38-0.13-8.76 0.02-13.13 1.01-0.85 1.47-1.9199 1.37-3.22-0.02-16.87-0.06-33.73 0.01-50.59l-1.56-1.12c0.16-6.05 0.15-12.09 0.05-18.14-0.39-0.36-1.18-1.09-1.57-1.46-0.39-4.97-0.02-9.97-0.07-14.95-0.46-0.3-1.38-0.91-1.85-1.21 0.05-5.49 0.1-10.98 0.02-16.46-0.99-0.79-1.45-1.8-1.4-3.02 0.02-25.03 0.01-50.07 0.01-75.1-0.07-1.19 0.4-2.13 1.38-2.81 0.08-2.82 0.04-5.63-0.01-8.43 0.46-0.31 1.39-0.94 1.86-1.25-0.04-1.78-0.06-3.55-0.05-5.31 2.97-1.56 1.34-5.38 1.78-8.04 2.11-1.65 1.21-4.44 1.37-6.71 0.45-0.27 1.35-0.8 1.8-1.06-0.03-1.73-0.05-3.46-0.02-5.17 1.6-1.19 1.33-3.25 1.61-4.98 2.52-1.36 0.62-4.96 3.17-6.29 0.04-0.43 0.13-1.31 0.17-1.74 2.08-1.6 1.17-4.4 1.37-6.62 0.45-0.3 1.35-0.91 1.8-1.22-0.04-1.76-0.07-3.5-0.07-5.24 2.46-1.31 1.11-4.61 3.08-6.3 0.01-0.49 0.02-1.48 0.02-1.97 0.48-0.27 1.44-0.8 1.92-1.07-0.04-1.1899-0.07-2.37-0.09-3.54 2.19-1.48 1.21-4.32 1.42-6.49 0.46-0.34 1.39-1 1.85-1.34-0.08-1.24-0.16-2.47-0.24-3.69 0.45-0.3199 1.33-0.96 1.78-1.29 0-2.88 1.43-5.46 1.87-8.26 1.5-1.28 1.39-3.26 1.63-5.02 2.01-1.55 1.05-4.48 2.7-6.27 0.25-1.81-0.16-4.07 1.99-4.83-0.05-1.17-0.09-2.33-0.13-3.47 0.42-0.33 1.25-0.99 1.66-1.32-0.06-0.86-0.18-2.6-0.24-3.46 0.5-0.34 1.49-1.02 1.98-1.36-0.09-1.25-0.17-2.48-0.25-3.71 0.49-0.32 1.47-0.98 1.97-1.31-0.03-0.82-0.08-2.46-0.1-3.29 1.95-1.75 0.67-4.98 3.04-6.39 0.02-0.53 0.07-1.6 0.09-2.13 0.47-0.32 1.42-0.97 1.89-1.3-0.06-0.86-0.18-2.6-0.24-3.46 0.42-0.34 1.26-1 1.67-1.33-0.05-1.15-0.09-2.29-0.13-3.42 2.26-0.92 1.65-3.39 1.8-5.31 0.27-0.12 0.8-0.36 1.07-0.47 1.04-2.32 2.15-4.63 2.39-7.19 0.66-1.04 1.26-2.11 1.85-3.17 0.81-1.51 1.04-3.2 1.29-4.85 2.03-1.63 0.76-4.67 2.69-6.34 0.52-1.17 1.01-2.34 1.52-3.5 0.54-1.08 1.11-2.14 1.71-3.18 0.52-1.05 1.07-2.09 1.63-3.11 0.23-1.83 0.11-3.92 1.91-5 0.04-1.07 0.08-2.14 0.11-3.19 1.05-1.61 2.02-3.24 3.06-4.84 0.04-0.44 0.14-1.33 0.18-1.78 0.97-0.85 1.53-1.97 1.88-3.19 0.86-1.63 1.79-3.22 2.86-4.71 0.05-1.1 0.11-2.18 0.17-3.25 1.02-1.61 1.92-3.29 2.79-4.98 0.37-1.2 0.92-2.33 1.87-3.18 0.05-0.44 0.17-1.32 0.22-1.76 1.21-1.44 2.03-3.14 2.77-4.84 0.49-1.11 1.02-2.18 1.57-3.24 0.42-1.16 0.98-2.2401 1.81-3.15 0.8-1.72 1.56-3.45 2.17-5.24 0.28-0.3 0.82-0.89 1.09-1.18 0.4-1.22 0.95-2.35 1.67-3.39l0.2-1.76c2.03-1.68 3.45-3.89 4.51-6.28 0.27-1.27 0.8-2.43 1.88-3.2 0.07-0.42 0.2-1.26 0.27-1.68 0.72-1.27 1.38-2.58 2.03-3.88 0.92-0.89 1.84-1.78 2.78-2.64 0-0.43 0.01-1.28 0.01-1.71 1.98-4.0099 5.72-7.04 6.58-11.6 1.38-1.56 2.93-2.96 4.59-4.22l0.2-2c1-1 1.58-2.2401 1.87-3.6 1.46-1.56 3-3.05 4.57-4.49 0.04-0.58 0.1-1.73 0.14-2.3 1.04-0.84 2.09-1.67 3.15-2.49-0.01-0.54-0.04-1.63-0.06-2.1801 1.71-1.36 3.33-2.81 4.92-4.31-0.01-0.5-0.02-1.52-0.03-2.02 2.62-2.54 5.72-4.8 7.13-8.3 2.62-3.44 6.06-6.19 9.12-9.23-0.01-0.48-0.04-1.45-0.05-1.94 6.77-6.07 12.78-12.97 19.51-19.08 3.49-1.64 5.97-4.59 8.69-7.21 3.76-0.81 5.29-4.81 8.55-6.46 4.46-2.48 8.19-6.14 12.95-8.07 1.9-0.71 3.26-2.26 4.72-3.6 0.44-0.08 1.33-0.24 1.77-0.32 0.97-0.58 1.96-1.14 2.96-1.68 1.13-0.57 2.26-1.15 3.4-1.72 2.65-1.49 5.55-2.5 8.08-4.21 0.44-0.13 1.3-0.37 1.74-0.5 3.28-2.63 8.09-1.84 11.29-4.49 1.01-0.13 2.04-0.24 3.07-0.34 1.46-1.17 3.32-1.28 5.11-1.47l1.16-1.52c1.76-0.03 3.53-0.07 5.31-0.13 2.16-3.12 6.34-0.82 9.37-1.94 5.22-2.26 11.06-0.59 16.56-1.23 0.8-1.11 1.85-1.66 3.17-1.63 5.7-0.06 11.42-0.01 17.13-0.03 1.65-0.21 3.12 0.36 4.17 1.66 34.17 0.23 68.35 0.05 102.52 0.09 0.31 0.52 0.93 1.55 1.23 2.07 0.42-0.61 1.2599-1.83 1.68-2.43 0.78 1.24 1.89 1.84 3.32 1.8 4.81 0.2 9.64-0.29 14.45 0.13 0.4301 0.38 1.27 1.14 1.7 1.52 2.84 0.12 5.7 0.1 8.55 0.09 0.28 0.44 0.84 1.32 1.11 1.76 2.73-0.03 5.46-0.03 8.2 0.12 3.39 2.45 7.83 0.92 11.71 1.25 0.27 0.45 0.81 1.35 1.07 1.8 4.75 0.07 9.5-0.22 14.24 0.06l2.24 1.2c6.38 0.43 12.8-0.16 19.18 0.26 0.47 0.38 1.4 1.14 1.86 1.52 9.8 0.19 19.62 0.18 29.42 0 0.92-0.84 1.87-1.92 3.28-1.66 5.63-0.39 11.54 1.08 16.91-1.2 5.63-0.57 11.32 0.08 16.97-0.3 1.45-1.98 3.94-1.66 6.1-1.68 12.61 0.16 25.23-0.1 37.84 0.14 1 1.39 2.47 1.9 4.17 1.67 22.52-0.03 45.04-0.05 67.56 0 0.29-0.43 0.87-1.31 1.16-1.75 1.11-0.05 2.24-0.1 3.39-0.14 1.39-1.03 3.06-1.36 4.73-1.69 1.21-0.64 2.44-1.23 3.75-1.7 0.31-0.3 0.93-0.88 1.24-1.18 2.36-0.14 4.58-0.98 6.75-1.88 0.3-0.31 0.89-0.92 1.18-1.23 3.3-1.45 6.82-2.32 10.13-3.78 2.08-2.42 5.77-0.52 8.05-2.69 1.09-0.07 2.19-0.13 3.31-0.18 0.3-0.43 0.88-1.3 1.17-1.74 2.38 0.02 4.76 0.03 7.16 0.06 0.29-0.45 0.89-1.36 1.18-1.82 2.2401 0.03 4.48 0.05 6.7401 0.09 0.31-0.37 0.94-1.13 1.2599-1.5 2.84 0.02 5.6801 0.03 8.53 0.06 0.27-0.45 0.81-1.34 1.08-1.79 6.1-0.02 12.22 0.14 18.33-0.1 1.34-1.91 3.6201-1.74 5.69-1.8 0-0.93-0.0099-2.81-0.0099-3.75-1.38-1.27-2.7401-2.56-4.08-3.85 1-1.19 2.02-2.36 3.06-3.53 1.7599 0.02 3.55 0.05 5.34 0.07 0.2899-0.43 0.86-1.3 1.15-1.74 1.6599-0.04 3.3099-0.1 4.99-0.18 3.23-3 8.5499 0.69 11.38-2.88 3.58 0.11 7.1499-0.3 10.42-1.9 0.0601-2.32 0.0701-4.63-0.01-6.94-1.48-1.55-1.4399-3.68-1.59-5.66 6.4-0.1 12.8-0.01 19.2-0.07 0.1901 0.36 0.5601 1.09 0.74 1.46 4.03-0.01 8.0601-0.01 12.09-0.05 2.15 0.07 4.7999-0.5 6.1899 1.67 3.4501 0.15 6.91 0.1 10.38 0.14-0.2999-2.65 0.42-5.09 2.6801-6.64 1.6799-0.05 3.53-0.07 4.86-1.34 2.6799-0.46 6.24 0.94 8.0699-1.77 8.4301-0.24 16.86-0.02 25.29-0.12-0.05-1.44-0.08-2.86-0.09-4.29 0.35-0.27 1.0399-0.81 1.39-1.08 0.4299-2.48 2.2799-4.21 4-5.88 1.24 0.02 2.51 0.03 3.7899 0.06 0.28-0.46 0.85-1.37 1.13-1.82 3.92 0.06 7.85 0.06 11.78-0.09 0.3199 0.47 0.95 1.41 1.27 1.88 5.03-0.92 9.47 2.14 14.49 1.45 1.78 2.58 4.59 1.5 6.2-0.64-0.1499-2.94-0.1499-5.89-0.1699-8.83 0.7-0.04 2.12-0.13 2.8199-0.17l0.88 1.6c4.46-0.19 8.95 0.17 13.4-0.42-0.88-0.67-1.74-1.34-2.6-2-0.2001-2.19 0.61-4.89-1.36-6.48-0.05-0.42-0.14-1.26-0.1901-1.69-1.4-0.99-1.76-2.58-1.99-4.16 2.15 0.34 4.1899 1.11 6.25 1.86 0.3 0.34 0.91 1 1.22 1.34 4.1901 0.7 8.22 2.34 12.58 1.56-0.0601-1.49-0.1101-2.98-0.14-4.47 2.45-0.12 5.0499 0.38 7.4099-0.57 3.41-2.06 7.53-1.09 11.3-1.11 2.73 3.66 8.15-0.17 11.31 2.92 2.1499 0.11 4.3199 0.15 6.5 0.25 0.96 0.87 2.0499 1.58 3.24 2.15 1.1 0.4 2.21 0.81 3.35 1.23 1.49-4.9 6.21-7.62 9.5-11.24 1.12-0.52 2.27-1.06 3.4-1.63 0.7899-0.03 2.38-0.09 3.1699-0.12 0.3401-0.44 1.02-1.33 1.36-1.77 1.27 0.01 2.5601 0.03 3.87 0.06 0.29-0.43 0.8601-1.28 1.15-1.71 1.63-0.12 3.37 0.1 4.98-0.46 3.6101-1.72 7.6901-0.92 11.56-1.01 0.29-0.45 0.87-1.35 1.16-1.8 7.74 0.1 15.49-0.09 23.24 0.12 0.3199-0.46 0.98-1.4 1.2999-1.86 4.88-0.55 10.43 1.39 14.86-1.22 2.1801-0.32 4.9601 0.44 6.37-1.8 5.13 0.55 9.75-2.34 14.91-1.56 0.23-0.43 0.7101-1.31 0.9501-1.75 2.3899 0.01 4.7899 0.02 7.21 0.04 0.25-0.43 0.75-1.28 1-1.71 4.13 0.53 7.76-2.04 11.89-1.55 0.2999-0.43 0.89-1.3 1.1899-1.73 1.85 0.02 3.73 0.05 5.61 0.07 0.2201-0.44 0.64-1.34 0.8601-1.79 4.6299 0.67 9-0.73 13.48-1.61 0.2799-0.38 0.84-1.13 1.12-1.51 1.1899-0.05 2.4-0.1 3.64-0.15 1.2699-1.17 3-1.31 4.6499-1.6 1.7201-0.98 3.4401-1.98 5.13-3.04 1.01-0.1 2.05-0.21 3.11-0.31 0.9801-0.51 2-0.99 3.05-1.45 0.95 0.71 1.95 2.24 3.3 1.27 2.11-1.13 4.48-1.17 6.84-1.14 0.3099-0.44 0.92-1.31 1.23-1.74 1.1801-0.01 2.37-0.01 3.6-0.02 2.16-3.09 6.4701-1.21 9.64-1.7 0.34 0.56 1.02 1.67 1.36 2.23 3.2101-3.39 6.4601-6.74 9.88-9.93 3.5-0.95 5.4-4.3 7.89-6.66 0.48-0.01 1.4401-0.02 1.92-0.03 0.9199-0.95 1.89-1.88 2.87-2.79 1.2-0.49 2.39-1.04 3.53-1.71 2.21-1.11 4.47-2.17 6.6-3.48 1.12-0.05 2.27-0.09 3.4399-0.12 0.3101-0.44 0.9301-1.33 1.24-1.78 3.8301 0.08 7.67 0.01 11.52 0.17 1.29 1.74 3.4 1.63 5.37 1.8 0.16 0.22 0.48 0.66 0.64 0.87 3.13 0.75 5.01 3.45 7.1901 5.59 2.1799 2.2 4.37 4.39 6.49 6.66 0.3099-0.51 0.9199-1.55 1.22-2.07 1.27 0.02 2.55 0.03 3.86 0.06 0.29-0.44 0.85-1.3 1.14-1.73 2.17-0.11 4.5699 0.29 6.5-1.02 3.17-1.92 6.8099-2.97 9.8099-5.17 0.4301-0.11 1.27-0.34 1.6901-0.45 1.09-0.84 2.36-1.39 3.6899-1.83 0.8601-0.91 1.7201-1.83 2.5901-2.75 0.5299-0.03 1.59-0.08 2.12-0.1 0.83-1.05 1.6899-2.08 2.5599-3.12 0.52-0.01 1.55-0.04 2.0701-0.05 2.84-4.33 8.37-5.38 11.15-9.76 0.51-0.02 1.52-0.07 2.02-0.1 1.4701-1.65 2.98-3.26 4.5-4.88 0.49 0.01 1.4601 0.03 1.9501 0.04 1.52-1.63 3.08-3.23 4.64-4.85 0.51-0.04 1.5299-0.12 2.0399-0.16 1.9301-2.07 3.9-4.1 5.8301-6.19 0.5-0.03 1.51-0.1 2.0199-0.13 1.52-1.64 3.0701-3.25 4.6101-4.88 0.49 0.02 1.48 0.04 1.97 0.05 1.49-1.63 3.02-3.24 4.53-4.87 0.5299-0.02 1.5699-0.07 2.09-0.09 0.84-1.05 1.6899-2.08 2.5699-3.12 0.5-0.01 1.5-0.02 2-0.03 0.89-0.94 1.8501-1.87 2.8101-2.78 1.23-0.48 2.46-1.05 3.53-1.9 0.46-0.12 1.36-0.35 1.8099-0.47 2.01-1.41 4.23-2.51 6.62-3.17 0.3-0.3 0.89-0.89 1.1901-1.19 2.3711-0.828 4.8912-1.718 6.521-3.768z" fill="inherit"/></g>
</svg>