<?xml version="1.0" encoding="UTF-8" standalone="no"?>
<svg
   xmlns:dc="http://purl.org/dc/elements/1.1/"
   xmlns:cc="http://creativecommons.org/ns#"
   xmlns:rdf="http://www.w3.org/1999/02/22-rdf-syntax-ns#"
   xmlns:svg="http://www.w3.org/2000/svg"
   xmlns="http://www.w3.org/2000/svg"
   xmlns:sodipodi="http://sodipodi.sourceforge.net/DTD/sodipodi-0.dtd"
   xmlns:inkscape="http://www.inkscape.org/namespaces/inkscape"
   sodipodi:docname="Baseball Player Clipart Silhouette.svg"
   inkscape:version="1.0 (4035a4fb49, 2020-05-01)"
   id="svg2622"
   version="1.1"
   viewBox="0 0 48.603367 74.101128"
   height="74.101128mm"
   width="48.603367mm">
  <title
     id="title3201">Baseball Player Clipart Silhouette</title>
  <defs
     id="defs2616" />
  <sodipodi:namedview
     inkscape:window-maximized="1"
     inkscape:window-y="-8"
     inkscape:window-x="-8"
     inkscape:window-height="705"
     inkscape:window-width="1366"
     fit-margin-bottom="0"
     fit-margin-right="0"
     fit-margin-left="0"
     fit-margin-top="0"
     showgrid="false"
     inkscape:document-rotation="0"
     inkscape:current-layer="layer1"
     inkscape:document-units="mm"
     inkscape:cy="111.49248"
     inkscape:cx="329.12081"
     inkscape:zoom="0.35"
     inkscape:pageshadow="2"
     inkscape:pageopacity="0.0"
     borderopacity="1.0"
     bordercolor="#666666"
     pagecolor="#ffffff"
     id="base" />
  <metadata
     id="metadata2619">
    <rdf:RDF>
      <cc:Work
         rdf:about="">
        <dc:format>image/svg+xml</dc:format>
        <dc:type
           rdf:resource="http://purl.org/dc/dcmitype/StillImage" />
        <dc:title>Baseball Player Clipart Silhouette</dc:title>
        <cc:license
           rdf:resource="http://creativecommons.org/publicdomain/zero/1.0/" />
        <dc:description>Black silhouette of a retro, vintage baseball player</dc:description>
      </cc:Work>
      <cc:License
         rdf:about="http://creativecommons.org/publicdomain/zero/1.0/">
        <cc:permits
           rdf:resource="http://creativecommons.org/ns#Reproduction" />
        <cc:permits
           rdf:resource="http://creativecommons.org/ns#Distribution" />
        <cc:permits
           rdf:resource="http://creativecommons.org/ns#DerivativeWorks" />
      </cc:License>
    </rdf:RDF>
  </metadata>
  <g
     transform="translate(-18.753452,-118.66762)"
     id="layer1"
     inkscape:groupmode="layer"
     inkscape:label="Lager 1">
    <path
       id="path3199"
       d="m 18.755083,192.69497 c 0.250307,-0.75351 0.384123,-0.96776 0.997111,-1.59643 0.407976,-0.41842 0.491994,-0.5367 0.491994,-0.69268 0,-0.0852 0.04946,-0.19719 0.139369,-0.31557 0.07665,-0.10093 0.150503,-0.2403 0.164112,-0.30971 0.01361,-0.0694 0.127626,-0.34193 0.253372,-0.60561 0.125745,-0.26368 0.242312,-0.57339 0.259039,-0.68825 0.01673,-0.11485 0.06346,-0.27461 0.103848,-0.35501 0.116596,-0.23209 0.211092,-0.58002 0.249563,-0.91886 0.08973,-0.79029 0.175709,-1.37939 0.237733,-1.6288 0.03714,-0.14936 0.08078,-0.55349 0.09697,-0.89806 0.0222,-0.47245 0.06073,-0.76 0.1567,-1.16946 0.07,-0.29863 0.139587,-0.71211 0.154644,-0.91886 0.01506,-0.20674 0.08263,-0.60815 0.150173,-0.89203 0.06754,-0.28387 0.122981,-0.58459 0.123205,-0.66826 2.05e-4,-0.0837 0.04637,-0.25084 0.102543,-0.3715 0.05617,-0.12066 0.115233,-0.28982 0.131241,-0.3759 0.04154,-0.22336 0.476329,-1.12277 0.655046,-1.35504 0.083,-0.10787 0.191145,-0.27499 0.240318,-0.37137 0.04917,-0.0964 0.248789,-0.34343 0.443591,-0.54899 0.382292,-0.40339 1.058131,-1.2838 1.058131,-1.37843 0,-0.13414 -0.650807,-0.59394 -0.909315,-0.64244 -0.148355,-0.0279 -0.468623,-0.27717 -0.469379,-0.36543 -2.06e-4,-0.026 -0.06554,-0.12928 -0.145147,-0.22942 -0.182631,-0.22974 -0.212829,-0.39261 -0.145632,-0.78545 0.0675,-0.39462 0.124996,-0.46535 0.416483,-0.51242 0.126344,-0.0204 0.314292,-0.0855 0.417663,-0.14472 0.103372,-0.0592 0.231997,-0.10786 0.285833,-0.10814 0.0625,-4.1e-4 0.105782,-0.0307 0.119729,-0.084 0.01202,-0.046 0.03787,-0.0835 0.05745,-0.0835 0.04297,0 0.65756,-0.39805 0.747285,-0.48399 0.113695,-0.1089 0.387434,-0.30958 0.422292,-0.30958 0.01869,0 0.104192,-0.12686 0.190008,-0.28192 0.08582,-0.15505 0.196415,-0.33831 0.245777,-0.40722 0.134321,-0.18754 0.236606,-0.49723 0.205353,-0.62175 -0.03494,-0.13922 0.05812,-0.80604 0.132981,-0.95285 0.03163,-0.062 0.05751,-0.1639 0.05751,-0.22637 0,-0.0895 0.1178,-0.23364 0.556552,-0.68078 0.713903,-0.72755 0.779426,-0.81625 1.024412,-1.38679 0.112216,-0.26133 0.264716,-0.60672 0.338887,-0.76752 0.30754,-0.66674 0.442906,-1.15232 0.479042,-1.71843 0.01605,-0.25139 0.242315,-0.96311 0.384329,-1.20889 0.05426,-0.0939 0.09865,-0.2189 0.09865,-0.27777 0,-0.0589 0.0468,-0.20758 0.104008,-0.33046 0.121029,-0.25999 0.127652,-0.34653 0.04217,-0.55111 -0.03446,-0.0825 -0.06265,-0.19106 -0.06265,-0.24131 0,-0.0503 -0.04895,-0.15556 -0.108785,-0.234 -0.187333,-0.24561 -0.17716,-0.38961 0.06387,-0.90414 0.12419,-0.26511 0.270048,-0.5085 0.350404,-0.58473 0.244585,-0.232 0.387371,-0.45873 0.463633,-0.73619 0.04104,-0.14931 0.09332,-0.31846 0.116186,-0.3759 0.02286,-0.0574 0.106831,-0.32995 0.186598,-0.6056 0.07977,-0.27567 0.226651,-0.68008 0.326408,-0.89872 0.345315,-0.75682 0.314087,-0.89429 -0.311524,-1.37139 -0.24241,-0.18487 -0.370483,-0.55461 -0.292468,-0.84433 0.03723,-0.13825 0.145003,-0.27717 0.493306,-0.63585 0.245118,-0.25242 0.52085,-0.51356 0.612736,-0.58029 0.09189,-0.0667 0.345616,-0.29066 0.563845,-0.49762 0.2314,-0.21944 0.570865,-0.48479 0.814443,-0.63662 0.353239,-0.22019 0.435158,-0.29231 0.531083,-0.46759 0.06238,-0.11398 0.134753,-0.31061 0.160826,-0.43696 0.02607,-0.12634 0.08495,-0.27048 0.130846,-0.32031 0.130717,-0.14193 0.486269,-0.27445 0.796905,-0.29701 0.254274,-0.0185 0.292006,-0.033 0.370158,-0.14278 0.04786,-0.0672 0.122384,-0.28403 0.165605,-0.48181 0.04322,-0.19778 0.129111,-0.51476 0.190868,-0.7044 0.09377,-0.28792 0.103297,-0.35562 0.05778,-0.41046 -0.07046,-0.0849 -0.24851,-0.0836 -0.591452,0.004 -0.226863,0.0581 -0.297581,0.0616 -0.399263,0.0195 -0.166876,-0.0691 -0.264785,-0.24894 -0.264785,-0.48631 0,-0.25894 0.08679,-0.4303 0.31418,-0.62038 0.152108,-0.12715 0.187016,-0.18204 0.187016,-0.29407 0,-0.11376 -0.04309,-0.17885 -0.247496,-0.37382 -0.180728,-0.17238 -0.27932,-0.23614 -0.365456,-0.23633 -0.06488,-1.2e-4 -0.171793,-0.0283 -0.237589,-0.0626 -0.157531,-0.0822 -0.569513,-0.0851 -0.569513,-0.004 0,0.0321 -0.0507,0.11614 -0.112677,0.18676 -0.06197,0.0706 -0.160645,0.20974 -0.219272,0.30914 -0.20526,0.34801 -0.303086,0.4899 -0.337765,0.4899 -0.01923,0 -0.07641,0.0705 -0.127065,0.15663 -0.05065,0.0861 -0.212425,0.25999 -0.359494,0.38633 -0.528103,0.45368 -0.939706,0.85847 -1.022245,1.00533 -0.185223,0.32956 -0.939055,0.51923 -1.176621,0.29605 -0.05278,-0.0496 -0.116426,-0.0902 -0.141433,-0.0902 -0.02501,0 -0.133234,-0.0916 -0.240505,-0.20351 -0.127615,-0.13316 -0.320325,-0.26583 -0.557454,-0.38378 -0.42742,-0.2126 -0.455909,-0.23279 -1.065973,-0.75515 -0.353834,-0.30296 -0.524071,-0.48458 -0.687378,-0.73333 -0.119386,-0.18185 -0.217065,-0.35143 -0.217065,-0.37685 0,-0.0847 -0.262081,-0.74082 -0.341335,-0.8546 -0.04295,-0.0617 -0.106689,-0.19321 -0.141648,-0.29236 -0.03496,-0.0992 -0.126465,-0.24605 -0.20335,-0.32645 -0.07688,-0.0804 -0.169092,-0.20447 -0.204906,-0.27572 -0.03581,-0.0713 -0.110939,-0.15956 -0.166943,-0.19626 -0.056,-0.0367 -0.144635,-0.13816 -0.196957,-0.22547 -0.138789,-0.23162 -0.304797,-0.37373 -0.624782,-0.53487 -0.184317,-0.0928 -0.337751,-0.20871 -0.437505,-0.33045 -0.0845,-0.10312 -0.231971,-0.23346 -0.327716,-0.28965 -0.344923,-0.20241 -0.403799,-0.28563 -0.403799,-0.57073 0,-0.15851 0.03091,-0.32948 0.08152,-0.45098 0.04484,-0.10763 0.10204,-0.27592 0.12712,-0.37398 0.05724,-0.22382 -4.94e-4,-0.32115 -0.278321,-0.46909 -0.294985,-0.15709 -0.343658,-0.2494 -0.374389,-0.71003 -0.02259,-0.3386 -0.04932,-0.44577 -0.182283,-0.73091 -0.0857,-0.18377 -0.16774,-0.39739 -0.182318,-0.47471 -0.01458,-0.0773 -0.08265,-0.20453 -0.151276,-0.28269 -0.06863,-0.0782 -0.137379,-0.19234 -0.152788,-0.25373 -0.0449,-0.17889 0.05734,-0.47616 0.221989,-0.64544 l 0.148794,-0.15298 -0.04745,-0.2725 c -0.03389,-0.1946 -0.03493,-0.32835 -0.0037,-0.46789 0.04142,-0.18482 0.03639,-0.20692 -0.09271,-0.40811 -0.131013,-0.20417 -0.139219,-0.24008 -0.156421,-0.6846 -0.0011,-0.0279 -0.06099,-0.11799 -0.133138,-0.20016 -0.125298,-0.14271 -0.130071,-0.16121 -0.106555,-0.41304 0.02185,-0.23398 0.01076,-0.29295 -0.09854,-0.52407 -0.06774,-0.14323 -0.123161,-0.30796 -0.123161,-0.36606 0,-0.0581 0.06711,-0.21612 0.149135,-0.35115 0.121892,-0.20066 0.202475,-0.27665 0.441146,-0.41604 0.160607,-0.0938 0.301746,-0.19591 0.313642,-0.22691 0.0119,-0.031 -0.0097,-0.20985 -0.04793,-0.39743 -0.03826,-0.18759 -0.07551,-0.43794 -0.08278,-0.55633 -0.01848,-0.3009 -0.08556,-0.71415 -0.162994,-1.00411 -0.03611,-0.13524 -0.08619,-0.40777 -0.111286,-0.60562 -0.02509,-0.19785 -0.07128,-0.4349 -0.102644,-0.52679 -0.03136,-0.0919 -0.069,-0.32364 -0.08363,-0.51501 -0.01464,-0.19137 -0.05491,-0.4545 -0.08948,-0.58473 -0.03458,-0.13023 -0.08138,-0.39653 -0.103994,-0.59179 -0.07417,-0.6403 -0.105291,-0.85363 -0.152322,-1.04416 -0.04531,-0.18355 -0.121511,-0.75182 -0.151221,-1.12769 -0.0195,-0.24672 -0.08963,-0.74651 -0.152384,-1.08593 -0.0276,-0.14931 -0.06566,-0.41244 -0.08456,-0.58473 -0.01891,-0.17228 -0.05399,-0.4542 -0.07797,-0.62649 -0.02398,-0.17229 -0.06049,-0.473 -0.08115,-0.66826 -0.07267,-0.68693 -0.133196,-1.1931 -0.174814,-1.46182 -0.02313,-0.14931 -0.06088,-0.41245 -0.08389,-0.58473 -0.02302,-0.17229 -0.05844,-0.40722 -0.07873,-0.52208 -0.06706,-0.37974 -0.170327,-1.53967 -0.167329,-1.87948 0.0044,-0.49964 0.150908,-0.82087 0.503641,-1.10433 0.249561,-0.20055 0.790829,-0.32604 1.144781,-0.26542 0.404276,0.0692 0.940371,0.37508 0.940371,0.53646 0,0.027 0.05502,0.1704 0.122266,0.31871 0.120122,0.26492 0.177,0.56886 0.233073,1.24549 0.01428,0.17228 0.0454,0.42601 0.06915,0.56384 0.02376,0.13783 0.06022,0.40096 0.08102,0.58473 0.02081,0.18377 0.05707,0.46569 0.08059,0.6265 0.02352,0.1608 0.05972,0.4991 0.08044,0.75179 0.08397,1.02392 0.134892,1.48348 0.212549,1.91811 0.04484,0.25096 0.08153,0.56442 0.08153,0.69657 0,0.13214 0.01973,0.38211 0.04384,0.55548 0.06255,0.44969 0.117469,1.1009 0.165904,1.96709 0.02312,0.41349 0.06057,0.80629 0.08321,0.87289 0.02264,0.0666 0.04117,0.22049 0.04117,0.34198 0,0.12149 0.02916,0.34662 0.0648,0.50029 0.03564,0.15367 0.05423,0.32869 0.04131,0.38893 -0.01292,0.0602 -0.003,0.29748 0.02202,0.52719 0.02503,0.22972 0.05303,0.57571 0.06222,0.76888 0.0092,0.19316 0.0359,0.45504 0.05936,0.58195 0.02346,0.12691 0.04266,0.3507 0.04266,0.49731 0,0.1466 0.02041,0.30468 0.04535,0.35129 0.02494,0.0466 0.05607,0.26445 0.06917,0.48409 0.01742,0.29199 0.04172,0.41447 0.09039,0.45557 0.03661,0.0309 0.145345,0.12314 0.241631,0.20496 0.106095,0.0901 0.203609,0.22349 0.247513,0.33845 l 0.07245,0.1897 0.202892,-0.0269 c 0.269702,-0.0358 0.46667,0.006 0.595479,0.12492 0.147698,0.13688 0.136857,0.32272 -0.04041,0.69261 -0.0804,0.16777 -0.146182,0.33497 -0.146182,0.37158 0,0.0366 -0.09383,0.25327 -0.20851,0.48149 -0.159912,0.31823 -0.208584,0.45998 -0.208831,0.60822 -2.05e-4,0.11899 -0.02398,0.21291 -0.06188,0.24436 -0.05342,0.0443 -0.04855,0.0685 0.03683,0.18263 0.05412,0.0723 0.131454,0.1973 0.171855,0.27771 0.0404,0.0804 0.118495,0.20013 0.173542,0.26608 0.05505,0.0659 0.125896,0.17871 0.15744,0.2506 0.0705,0.16066 0.6006,0.70539 1.041684,1.07044 0.561052,0.46433 0.609969,0.47344 0.756998,0.14098 0.05827,-0.13177 0.103889,-0.31396 0.103889,-0.41494 0,-0.099 0.02042,-0.23295 0.04537,-0.29761 0.02495,-0.0647 0.0734,-0.33372 0.10766,-0.59789 0.03426,-0.26417 0.07822,-0.60248 0.0977,-0.7518 0.01947,-0.14931 0.05292,-0.34832 0.07433,-0.44223 0.0228,-0.10001 0.0256,-0.4461 0.0068,-0.83533 -0.04,-0.8266 0.01642,-1.65973 0.129214,-1.90821 0.04405,-0.097 0.0805,-0.24796 0.081,-0.3354 0.0012,-0.20625 0.251361,-0.80865 0.436609,-1.05134 0.07968,-0.10438 0.175759,-0.24125 0.213517,-0.30417 0.09894,-0.16486 0.616798,-0.56594 1.313808,-1.01755 0.333086,-0.21582 0.652599,-0.41662 0.710027,-0.44624 0.306219,-0.15794 0.365302,-0.19497 0.480313,-0.30107 0.06891,-0.0636 0.200479,-0.15334 0.292364,-0.19948 0.09189,-0.0461 0.242244,-0.14467 0.334131,-0.21897 0.271699,-0.21971 0.90769,-0.62501 0.980745,-0.62501 0.03717,0 0.09001,-0.0224 0.117418,-0.0498 0.02752,-0.0275 0.176147,-0.0522 0.332041,-0.055 0.38847,-0.007 0.714772,-0.15785 0.996493,-0.46008 l 0.213083,-0.2286 h 0.322183 c 0.352283,0 0.436785,-0.0293 0.640713,-0.22235 0.103284,-0.0978 0.169436,-0.12656 0.274542,-0.11948 0.151171,0.0102 0.415564,-0.13869 0.436149,-0.24558 0.0095,-0.0493 -0.07252,-0.0724 -0.392044,-0.11043 -0.236861,-0.0282 -0.428828,-0.0728 -0.463918,-0.1079 -0.122439,-0.12244 -0.114372,-0.38083 0.02272,-0.72767 0.153301,-0.38786 0.195505,-0.55117 0.256732,-0.99345 0.09215,-0.66564 0.174913,-0.98065 0.279201,-1.06268 0.05386,-0.0424 0.09793,-0.0953 0.09793,-0.1176 0,-0.091 0.188185,-0.26988 0.39046,-0.37122 0.326698,-0.16368 0.370757,-0.21213 0.296275,-0.3258 -0.03352,-0.0512 -0.11639,-0.25704 -0.184156,-0.45753 -0.135931,-0.40213 -0.232351,-0.5796 -0.399716,-0.73571 -0.06115,-0.057 -0.177837,-0.20375 -0.259302,-0.32604 l -0.148121,-0.22234 0.02572,-0.39162 c 0.01988,-0.3026 0.01121,-0.42635 -0.03811,-0.5444 -0.04406,-0.10546 -0.05598,-0.2193 -0.03849,-0.36755 0.02158,-0.1829 -0.0028,-0.30099 -0.164623,-0.79597 -0.221994,-0.67919 -0.231453,-0.83252 -0.08297,-1.34491 0.05885,-0.20307 0.133762,-0.49646 0.166476,-0.65198 0.08393,-0.39897 0.160498,-0.56026 0.374669,-0.78923 0.102951,-0.11007 0.187207,-0.21502 0.187232,-0.23323 1.25e-4,-0.10082 0.573436,-0.55509 1.023229,-0.81079 0.724009,-0.4116 0.991296,-0.46004 2.544291,-0.4611 1.226713,-8.2e-4 1.623872,0.0337 2.020466,0.17581 0.131103,0.047 0.340433,0.11417 0.465179,0.14934 0.301776,0.0851 0.78314,0.33037 0.833679,0.42481 0.02226,0.0416 0.143247,0.12594 0.268862,0.18745 0.243294,0.11913 0.533916,0.41317 0.648741,0.65638 0.04787,0.1014 0.113717,0.16145 0.21492,0.19603 0.206397,0.0705 0.778856,0.0657 0.991528,-0.008 0.09755,-0.034 0.333952,-0.0738 0.525336,-0.0885 0.380241,-0.0292 0.594963,0.0163 0.717978,0.15223 0.06534,0.0722 0.06758,0.1029 0.02045,0.28035 -0.02911,0.1096 -0.09745,0.26606 -0.151857,0.3477 -0.05441,0.0816 -0.09893,0.17639 -0.09893,0.21057 0,0.0789 -0.292417,0.3599 -0.563844,0.5418 -0.114859,0.077 -0.290149,0.2018 -0.389537,0.2774 -0.09939,0.0756 -0.205158,0.13744 -0.235043,0.13744 -0.124673,0 -0.157137,0.11167 -0.102909,0.35399 0.05091,0.22752 0.04959,0.23531 -0.0592,0.34887 -0.110765,0.11562 -0.149102,0.25777 -0.06952,0.25777 0.08461,0 0.03849,0.12858 -0.06265,0.17466 -0.125865,0.0573 -0.129808,0.0908 -0.02249,0.19077 0.04506,0.042 0.127733,0.17991 0.183725,0.30652 0.05599,0.1266 0.187278,0.33033 0.291748,0.45272 0.204734,0.23985 0.319697,0.4475 0.319697,0.57744 0,0.12043 -0.171886,0.35397 -0.314188,0.42689 -0.179699,0.0921 -0.18883,0.11497 -0.183755,0.46051 0.0058,0.39235 -0.06021,1.0273 -0.122879,1.18261 -0.02609,0.0647 -0.04744,0.25766 -0.04744,0.42888 0,0.30805 -0.127362,0.90074 -0.216686,1.00837 -0.04997,0.0602 0.0098,0.15424 0.14357,0.22582 0.06261,0.0335 0.115207,0.0194 0.242696,-0.0649 0.228544,-0.15124 0.588481,-0.15274 0.791046,-0.003 0.112895,0.0833 0.190857,0.10442 0.385353,0.10442 0.134104,0 0.311298,-0.0282 0.393766,-0.0626 0.08247,-0.0345 0.24632,-0.0629 0.364115,-0.0631 0.117794,-2.6e-4 0.303282,-0.0275 0.412194,-0.0605 0.496615,-0.1507 1.493322,-0.0652 1.789124,0.15353 0.112296,0.083 0.167914,0.0919 0.511755,0.0816 0.357856,-0.0107 0.397751,-0.003 0.551435,0.0994 0.240443,0.16089 0.363579,0.28621 0.457621,0.46574 0.04572,0.0873 0.106798,0.17371 0.135739,0.19208 0.02894,0.0184 0.05262,0.0655 0.05262,0.10482 0,0.0393 0.03898,0.0958 0.08662,0.1255 0.04764,0.0297 0.111723,0.11415 0.142409,0.18755 0.03068,0.0734 0.113876,0.20653 0.184866,0.29583 0.07099,0.0893 0.12907,0.17887 0.12907,0.19903 0,0.0348 0.129872,0.24822 0.400477,0.65813 0.2342,0.35476 0.305946,0.48466 0.30774,0.55715 8.22e-4,0.0402 0.01633,0.0731 0.0341,0.0731 0.06015,0 0.170178,0.27025 0.22106,0.54297 0.05869,0.31458 0.05108,1.02713 -0.01222,1.14545 -0.02382,0.0445 -0.04812,0.21688 -0.05404,0.38308 -0.0059,0.16621 -0.02308,0.32217 -0.03817,0.34659 -0.02431,0.0394 -0.07334,0.35404 -0.134052,0.86057 -0.01102,0.0919 -0.04599,0.22345 -0.07771,0.29236 -0.07276,0.15802 -0.260683,0.85811 -0.297097,1.10681 -0.01514,0.10337 -0.0531,0.2387 -0.08436,0.30073 -0.03126,0.062 -0.05684,0.18139 -0.05684,0.26524 0,0.15118 -0.126264,0.93303 -0.215502,1.3344 -0.02555,0.11485 -0.04858,0.38836 -0.0512,0.60778 -0.0047,0.39346 -0.0071,0.40234 -0.17184,0.64443 -0.213571,0.31382 -0.393178,0.49427 -0.685213,0.68845 -0.128505,0.0854 -0.340394,0.25727 -0.470862,0.38184 l -0.237218,0.22648 -0.0203,0.68853 c -0.02016,0.68384 -0.0655,1.14783 -0.120721,1.23542 -0.07974,0.12647 -0.251454,0.91851 -0.270797,1.24905 -0.03061,0.52299 0.03667,0.81918 0.236035,1.03907 0.184196,0.20316 0.6399,0.90173 0.73195,1.12203 0.102064,0.24428 0.08336,0.51301 -0.05041,0.72428 -0.06317,0.0998 -0.132414,0.18208 -0.15387,0.18292 -0.08627,0.003 -0.661236,0.64228 -0.744873,0.82771 -0.07988,0.17709 -0.09014,0.28489 -0.101142,1.06207 -0.01616,1.14195 0.03611,1.46541 0.290763,1.79927 0.218444,0.2864 0.147178,0.51769 -0.25949,0.84216 -0.162151,0.12938 -0.294818,0.26388 -0.294818,0.29889 0,0.035 0.04699,0.12526 0.104415,0.20055 0.05743,0.0753 0.104415,0.15781 0.104415,0.18337 0,0.0255 0.131751,0.15291 0.292777,0.28302 0.26839,0.21684 0.634394,0.62771 0.741235,0.83208 0.151369,0.28956 0.08728,0.87707 -0.11888,1.08977 -0.123274,0.12719 -0.12606,0.13778 -0.06644,0.25241 0.03423,0.0658 0.106306,0.16075 0.160174,0.21099 0.119984,0.1119 0.992809,0.63956 1.057924,0.63956 0.02583,0 0.132506,0.0543 0.237083,0.12059 0.104582,0.0663 0.230415,0.13337 0.279631,0.14899 0.09607,0.0305 0.483018,0.27163 0.598007,0.37267 0.03846,0.0338 0.254595,0.16081 0.480311,0.28226 0.225717,0.12145 0.47201,0.26242 0.547315,0.31327 0.07531,0.0508 0.216268,0.13129 0.313247,0.17877 0.09698,0.0475 0.285921,0.18047 0.419866,0.29552 0.133945,0.11505 0.26081,0.20919 0.281921,0.20919 0.0211,0 0.03838,0.0253 0.03838,0.0562 0,0.0309 0.0376,0.0902 0.08354,0.13177 0.04594,0.0416 0.08353,0.10797 0.08353,0.14754 0,0.0396 0.02818,0.0953 0.06265,0.12394 0.03447,0.0286 0.06265,0.0811 0.06265,0.11669 0,0.0356 0.02752,0.0951 0.06112,0.13221 0.03361,0.0371 0.102586,0.22249 0.153271,0.41187 0.08777,0.32792 0.08883,0.35129 0.02242,0.49058 -0.09896,0.20752 -0.08863,0.27373 0.07644,0.48991 0.09898,0.12963 0.146208,0.2361 0.146262,0.3297 8.2e-5,0.11274 0.04437,0.18225 0.240155,0.37674 0.233175,0.23163 0.757721,0.61131 1.054522,0.76328 0.0804,0.0412 0.270362,0.20381 0.42214,0.36142 0.151777,0.15762 0.289922,0.28657 0.306982,0.28657 0.05843,0 1.317425,1.22309 1.317425,1.27985 0,0.0312 0.02427,0.0567 0.05395,0.0567 0.02966,0 0.13696,0.0846 0.238411,0.18794 0.101452,0.10338 0.209633,0.18795 0.240407,0.18795 0.07409,0 0.208978,0.14759 0.574934,0.62911 0.280782,0.36944 0.692868,0.79095 0.773274,0.79095 0.01884,0 0.095,0.12686 0.169277,0.28192 0.103903,0.2169 0.146739,0.38253 0.185728,0.71814 0.03114,0.26817 0.03661,0.48528 0.01415,0.56357 -0.02007,0.07 -0.03678,0.23085 -0.03706,0.35734 -8.23e-4,0.31889 -0.176365,0.84523 -0.354622,1.06277 -0.235154,0.28697 -0.328032,0.54214 -0.319324,0.8773 0.0051,0.19423 0.03266,0.3326 0.08357,0.41891 0.04182,0.0709 0.08778,0.17569 0.10215,0.23291 0.04579,0.18243 0.607074,0.7292 0.894788,0.87164 0.142917,0.0708 0.293275,0.12867 0.334132,0.12869 0.04085,3e-5 0.130666,0.0562 0.199579,0.12474 0.119329,0.11872 0.682012,0.632 1.048042,0.95601 0.09402,0.0832 0.33644,0.26409 0.538721,0.40191 0.202273,0.13783 0.399309,0.28023 0.437854,0.31644 0.03854,0.0362 0.101534,0.0779 0.13998,0.0927 0.03846,0.0148 0.0699,0.0536 0.0699,0.0863 0,0.0327 0.04229,0.0703 0.09397,0.0835 0.11749,0.0301 0.323688,0.21938 0.323688,0.29707 0,0.032 0.0355,0.0694 0.07886,0.0832 0.109958,0.0349 0.297019,0.3311 0.297109,0.47046 0,0.0805 0.03299,0.13485 0.108099,0.1784 0.121736,0.0706 0.348217,0.53669 0.350085,0.72047 8.23e-4,0.0632 0.01995,0.11485 0.04294,0.11485 0.02295,0 0.04177,0.0487 0.04177,0.10811 0,0.0594 0.05842,0.2333 0.129823,0.38634 0.318743,0.68314 0.426163,1.30195 0.313683,1.80705 -0.102817,0.46174 -0.166447,0.53822 -0.675394,0.81181 -0.0701,0.0377 -0.145282,0.10179 -0.167064,0.14245 -0.02176,0.0406 -0.08836,0.14702 -0.147964,0.23636 -0.0596,0.0893 -0.141243,0.26581 -0.181421,0.39215 -0.04019,0.12634 -0.111974,0.28482 -0.159536,0.35216 -0.06003,0.085 -0.09635,0.22549 -0.118753,0.45943 -0.01773,0.18534 -0.03344,0.34638 -0.03488,0.35787 -0.0012,0.0115 -0.144287,0.15368 -0.317443,0.31597 l -0.314827,0.2951 0.126861,0.15963 c 0.09416,0.11849 0.127125,0.20392 0.127857,0.3314 0.0012,0.23127 0.144081,0.56244 0.415661,0.96431 0.233331,0.34528 0.56474,1.03895 0.738801,1.54637 0.07528,0.21946 0.115475,0.47985 0.161182,1.04416 0.05426,0.66996 0.05374,0.84272 -0.0048,1.58712 -0.03612,0.45943 -0.07462,0.95749 -0.08555,1.10681 -0.03344,0.45688 0.166904,2.00294 0.319323,2.46421 0.05981,0.181 0.0831,0.33319 0.06988,0.45661 -0.02464,0.22994 0.0516,0.52978 0.247861,0.97496 0.288421,0.65421 0.380563,0.91014 0.433995,1.20546 0.01929,0.10654 0.05521,0.26629 0.07984,0.35501 0.02464,0.0887 0.0449,0.2506 0.04502,0.35971 l 4.11e-4,0.19839 h -2.84011 c -2.466586,0 -2.840107,-0.008 -2.840107,-0.0612 0,-0.11056 -0.132221,-0.45918 -0.206481,-0.54442 -0.104898,-0.12042 -0.241912,-0.53627 -0.293732,-0.89155 -0.0246,-0.16875 -0.07249,-0.36046 -0.1064,-0.42603 -0.0339,-0.0656 -0.06165,-0.18719 -0.06165,-0.27026 0,-0.0968 -0.03752,-0.20023 -0.104413,-0.28793 -0.05743,-0.0753 -0.104417,-0.15392 -0.104417,-0.17473 0,-0.0208 -0.09397,-0.24842 -0.208831,-0.50582 -0.114857,-0.2574 -0.208834,-0.49801 -0.208834,-0.53469 0,-0.0367 -0.03706,-0.13619 -0.08238,-0.22114 -0.04532,-0.085 -0.132563,-0.27217 -0.193897,-0.41603 -0.09577,-0.22465 -0.202105,-0.35142 -0.753237,-0.89798 -0.352944,-0.35002 -0.745351,-0.73977 -0.872014,-0.86611 -0.12666,-0.12635 -0.229897,-0.25348 -0.229419,-0.28252 4.11e-4,-0.029 -0.08242,-0.15504 -0.184202,-0.28001 -0.259523,-0.31862 -0.381719,-0.54479 -0.457645,-0.84703 -0.03604,-0.14353 -0.103545,-0.33543 -0.149972,-0.42643 -0.04642,-0.091 -0.08441,-0.21444 -0.08441,-0.27429 0,-0.0599 -0.02102,-0.14814 -0.04675,-0.19619 -0.02571,-0.048 -0.05257,-0.18306 -0.05969,-0.30005 -0.0071,-0.11699 -0.03517,-0.37788 -0.06232,-0.57976 -0.03871,-0.28783 -0.03793,-0.47713 0.0037,-0.87709 0.02917,-0.28052 0.06075,-0.66212 0.07018,-0.84799 0.01572,-0.30953 0.0086,-0.34816 -0.08394,-0.45943 -0.0556,-0.0668 -0.123488,-0.16405 -0.15086,-0.21607 -0.02736,-0.052 -0.122645,-0.14059 -0.211722,-0.19682 -0.08908,-0.0562 -0.173288,-0.13794 -0.187139,-0.18158 -0.01386,-0.0436 -0.08582,-0.0967 -0.159935,-0.11792 -0.08108,-0.0232 -0.155855,-0.0825 -0.187727,-0.14878 -0.07153,-0.14881 -0.361813,-0.25844 -0.601665,-0.22723 -0.743314,0.0967 -1.431143,0.15108 -1.642512,0.12976 -0.596604,-0.0601 -1.007654,-0.52902 -0.983091,-1.1214 0.03032,-0.73157 0.01345,-0.97207 -0.09676,-1.37908 -0.170511,-0.62963 -0.652735,-1.45099 -1.130907,-1.92622 -0.263985,-0.26236 -0.637787,-0.52896 -0.817301,-0.5829 -0.05743,-0.0173 -0.198391,-0.0746 -0.313247,-0.12744 -0.11948,-0.055 -0.476885,-0.14158 -0.835327,-0.20246 -1.074939,-0.18255 -1.526041,-0.39937 -1.698086,-0.81616 -0.04336,-0.10505 -0.119177,-0.26601 -0.168487,-0.35769 -0.08995,-0.16724 -0.247292,-0.65358 -0.425773,-1.316 -0.05261,-0.19526 -0.124246,-0.4114 -0.159193,-0.48032 -0.03495,-0.0689 -0.103827,-0.25993 -0.153066,-0.42448 -0.09737,-0.32539 -0.302863,-0.62325 -0.588156,-0.85251 -0.09235,-0.0742 -0.27632,-0.27391 -0.408824,-0.44378 -0.154237,-0.19773 -0.365376,-0.39953 -0.586838,-0.56091 -0.190258,-0.13864 -0.499617,-0.38445 -0.687464,-0.54625 -0.187847,-0.1618 -0.440713,-0.36906 -0.561922,-0.46057 -0.12121,-0.0915 -0.261671,-0.23481 -0.312133,-0.31843 -0.05047,-0.0836 -0.196382,-0.28503 -0.324262,-0.44759 -0.12788,-0.16255 -0.292447,-0.38232 -0.365706,-0.48837 -0.07326,-0.10604 -0.189717,-0.22203 -0.258798,-0.25776 -0.115989,-0.06 -0.136163,-0.0589 -0.263583,0.0137 -0.07589,0.0432 -0.215742,0.09 -0.310783,0.10407 -0.350395,0.0517 -0.694751,0.25704 -1.073558,0.64026 -0.489567,0.49528 -0.670346,0.79441 -1.155568,1.91215 -0.396172,0.91261 -0.661231,1.43009 -0.780066,1.52294 -0.06465,0.0505 -0.156964,0.15653 -0.20514,0.23557 -0.140471,0.23048 -0.573125,0.75733 -0.6642,0.80881 -0.04594,0.026 -0.19568,0.21806 -0.332748,0.42687 -0.137068,0.2088 -0.411433,0.59796 -0.609699,0.8648 -0.516458,0.69507 -0.843438,1.27786 -1.022083,1.82168 -0.17831,0.5428 -0.353248,1.18011 -0.353396,1.28744 -1.58e-4,0.14761 -0.363417,0.64276 -0.59934,0.81705 -0.126407,0.0934 -0.240784,0.20429 -0.25417,0.24647 -0.01339,0.0422 -0.127566,0.17453 -0.253729,0.29411 -0.19736,0.18706 -0.229526,0.23919 -0.230379,0.3733 -4.94e-4,0.0857 -0.04745,0.26864 -0.104222,0.40647 -0.05678,0.13783 -0.103319,0.2829 -0.103425,0.3224 -3.15e-4,0.12748 -0.16052,0.38414 -0.364812,0.58457 -0.164201,0.1611 -0.26164,0.21512 -0.55424,0.30727 -0.326887,0.10295 -0.375471,0.10805 -0.613208,0.0643 -0.225784,-0.0415 -0.283453,-0.0377 -0.459429,0.0307 -0.110679,0.043 -0.225685,0.0695 -0.255567,0.059 -0.09684,-0.0342 -0.279857,0.0717 -0.3336,0.19314 -0.08484,0.19166 -0.436846,0.52264 -0.684919,0.64401 -0.126627,0.062 -0.250251,0.11265 -0.274719,0.11265 -0.08875,0 -0.337798,0.40491 -0.462393,0.75179 -0.216547,0.60288 -0.514666,1.31082 -0.59501,1.41298 -0.04211,0.0535 -0.194827,0.1901 -0.339379,0.30348 -0.144553,0.11338 -0.338003,0.29368 -0.429889,0.40068 -0.323825,0.37706 -0.863464,0.89027 -0.962168,0.91504 -0.05493,0.0138 -0.110683,0.0591 -0.123888,0.10071 -0.0132,0.0416 -0.07447,0.10872 -0.136152,0.14913 -0.137448,0.09 -0.144078,0.0954 -0.423887,0.3411 -0.275438,0.24188 -0.280867,0.24767 -0.596549,0.63704 -0.13968,0.17229 -0.331251,0.39966 -0.425714,0.50528 -0.259616,0.29027 -0.510461,0.65529 -0.650169,0.9461 -0.06897,0.14358 -0.1446,0.26104 -0.168065,0.26104 -0.02346,0 -0.04266,0.0382 -0.04266,0.0848 0,0.0467 -0.02927,0.0961 -0.06505,0.1098 -0.03578,0.0137 -0.05465,0.0521 -0.04193,0.0852 0.01272,0.0332 -0.02161,0.11999 -0.07628,0.193 -0.05467,0.073 -0.113168,0.17973 -0.129986,0.23717 -0.01682,0.0574 -0.0718,0.16079 -0.12219,0.22971 -0.128154,0.17528 -0.274336,0.46915 -0.275918,0.55469 -7.41e-4,0.0395 -0.02892,0.10828 -0.06265,0.15288 -0.03373,0.0446 -0.06132,0.11138 -0.06132,0.14843 0,0.037 -0.06329,0.12869 -0.140637,0.20366 -0.119295,0.11563 -0.143967,0.17305 -0.162587,0.37839 -0.01207,0.13314 -0.0646,0.33391 -0.116732,0.44617 -0.11577,0.24929 -0.176637,0.70922 -0.181777,1.37355 l -0.0039,0.5012 -2.897264,0.0107 c -2.747726,0.0102 -2.896006,0.007 -2.872888,-0.0626 z"
       style="fill:#000000;stroke-width:0.0417664" />
  </g>
</svg>
