<?xml version="1.0" encoding="UTF-8" standalone="no"?>
<!-- Created with Inkscape (http://www.inkscape.org/) -->

<svg
   xmlns:dc="http://purl.org/dc/elements/1.1/"
   xmlns:cc="http://creativecommons.org/ns#"
   xmlns:rdf="http://www.w3.org/1999/02/22-rdf-syntax-ns#"
   xmlns:svg="http://www.w3.org/2000/svg"
   xmlns="http://www.w3.org/2000/svg"
   xmlns:sodipodi="http://sodipodi.sourceforge.net/DTD/sodipodi-0.dtd"
   xmlns:inkscape="http://www.inkscape.org/namespaces/inkscape"
   width="72.344864mm"
   height="147.00772mm"
   viewBox="0 0 72.344864 147.00772"
   version="1.1"
   id="svg6680"
   inkscape:version="0.92.4 (5da689c313, 2019-01-14)"
   sodipodi:docname="Basketball Player.svg">
  <title
     id="title6695">Basketball Player</title>
  <defs
     id="defs6674" />
  <sodipodi:namedview
     id="base"
     pagecolor="#ffffff"
     bordercolor="#666666"
     borderopacity="1.0"
     inkscape:pageopacity="0.0"
     inkscape:pageshadow="2"
     inkscape:zoom="0.35"
     inkscape:cx="2150.9786"
     inkscape:cy="900.37033"
     inkscape:document-units="mm"
     inkscape:current-layer="layer1"
     showgrid="false"
     fit-margin-top="0"
     fit-margin-left="0"
     fit-margin-right="0"
     fit-margin-bottom="0"
     inkscape:window-width="1920"
     inkscape:window-height="986"
     inkscape:window-x="-11"
     inkscape:window-y="-11"
     inkscape:window-maximized="1" />
  <metadata
     id="metadata6677">
    <rdf:RDF>
      <cc:Work
         rdf:about="">
        <dc:format>image/svg+xml</dc:format>
        <dc:type
           rdf:resource="http://purl.org/dc/dcmitype/StillImage" />
        <dc:title>Basketball Player</dc:title>
        <cc:license
           rdf:resource="http://creativecommons.org/publicdomain/zero/1.0/" />
      </cc:Work>
      <cc:License
         rdf:about="http://creativecommons.org/publicdomain/zero/1.0/">
        <cc:permits
           rdf:resource="http://creativecommons.org/ns#Reproduction" />
        <cc:permits
           rdf:resource="http://creativecommons.org/ns#Distribution" />
        <cc:permits
           rdf:resource="http://creativecommons.org/ns#DerivativeWorks" />
      </cc:License>
    </rdf:RDF>
  </metadata>
  <g
     inkscape:label="Layer 1"
     inkscape:groupmode="layer"
     id="layer1"
     transform="translate(463.27976,-240.04859)">
    <path
       style="fill:#000000;stroke-width:1"
       d="m -450.66356,387.03998 c -0.31069,-0.0634 -0.81701,-0.41891 -0.96364,-0.67663 -0.0741,-0.13018 -0.15931,-0.23693 -0.18944,-0.23721 -0.0584,-9.2e-4 -0.55153,-1.00386 -0.55153,-1.12223 0,-0.0387 -0.0749,-0.23961 -0.16638,-0.44648 -0.0915,-0.20688 -0.25636,-0.76628 -0.36632,-1.24311 -0.40252,-1.74548 -0.33269,-4.98174 0.13894,-6.43833 0.0876,-0.27045 0.19175,-0.67361 0.23153,-0.89592 0.0398,-0.22232 0.11524,-0.60429 0.1677,-0.84883 0.0684,-0.31871 0.0814,-1.18658 0.046,-3.06429 -0.0715,-3.78899 0.0627,-4.98932 0.67639,-6.05045 0.143,-0.24725 0.38583,-0.51712 0.58193,-0.64673 l 0.33653,-0.22242 h 1.62229 c 1.41652,0 1.70432,0.0224 2.26902,0.17655 2.40101,0.65546 2.98434,0.59752 3.8354,-0.38097 l 0.41986,-0.48273 h 0.67876 c 0.57623,0 0.69077,-0.0224 0.75832,-0.14868 0.0898,-0.16786 0.36168,-0.49954 0.90072,-1.09899 0.61279,-0.68146 1.78806,-2.23819 2.07914,-2.75396 0.15056,-0.26678 0.32539,-0.54248 0.38851,-0.61267 0.0631,-0.0702 0.11476,-0.16837 0.11476,-0.21815 0,-0.0498 0.0918,-0.18961 0.20406,-0.3107 0.11222,-0.1211 0.22306,-0.31396 0.2463,-0.42859 0.12068,-0.59516 1.59468,-3.1591 1.81615,-3.1591 0.031,0 0.15428,-0.1479 0.2739,-0.32866 0.32642,-0.49326 2.01074,-2.19332 2.82478,-2.85116 0.39425,-0.31861 1.08929,-0.83394 1.54454,-1.14518 0.45525,-0.31124 1.06033,-0.74969 1.34463,-0.97434 0.2843,-0.22464 0.88069,-0.64001 1.32532,-0.92304 1.25756,-0.80052 2.06144,-1.63569 2.06144,-2.14167 0,-0.2103 -0.11189,-0.36958 -0.63037,-0.89734 -1.0305,-1.04893 -1.3375,-1.82279 -1.62314,-4.09155 -0.0877,-0.69695 -0.19808,-1.33919 -0.24517,-1.42719 -0.0471,-0.088 -0.24617,-0.66368 -0.44239,-1.2793 -0.46601,-1.46207 -0.6511,-2.80736 -0.53772,-3.90833 0.11857,-1.15142 0.0966,-1.87368 -0.0908,-2.99113 -0.24515,-1.46133 -0.26479,-1.91311 -0.10743,-2.47153 0.22721,-0.80631 0.22573,-0.85147 -0.0502,-1.5301 -0.27524,-0.67697 -0.41922,-1.65725 -0.24341,-1.65725 0.0496,0 0.0903,-0.0546 0.0903,-0.12126 0,-0.0667 0.0416,-0.12126 0.0924,-0.12126 0.0644,0 0.0774,-0.14345 0.0429,-0.47329 -0.0722,-0.69031 -0.1703,-0.90101 -0.41968,-0.90101 -0.14548,0 -0.31863,-0.12053 -0.57868,-0.40285 -0.35184,-0.38195 -0.42817,-0.42123 -1.47186,-0.75733 -0.60543,-0.19498 -1.20109,-0.37824 -1.32369,-0.40726 -0.22995,-0.0544 -0.42338,-0.24503 -1.6546,-1.63034 -1.30161,-1.46452 -2.07718,-2.82139 -2.66239,-4.65795 -0.3965,-1.24431 -0.66609,-1.85154 -0.89746,-2.02147 -0.14427,-0.10597 -0.70536,-0.91465 -0.79291,-1.14282 -0.0251,-0.0656 0.0749,-0.35037 0.2224,-0.63289 l 0.26815,-0.51368 0.0224,-1.85935 c 0.0123,-1.02264 0.0276,-1.96848 0.034,-2.10187 0.006,-0.13339 -0.0309,-0.61926 -0.083,-1.07971 -0.0521,-0.46045 -0.0947,-1.06765 -0.0947,-1.34932 0,-0.28167 -0.0364,-0.53461 -0.0808,-0.56209 -0.10543,-0.0652 -0.10543,-1.30914 0,-1.3743 0.0445,-0.0275 0.0808,-0.12107 0.0808,-0.20797 0,-0.0869 0.0438,-0.22815 0.0973,-0.31387 0.0763,-0.12209 0.0749,-0.24351 -0.006,-0.56045 -0.16786,-0.65496 -0.0321,-1.38436 0.52334,-2.81188 0.22414,-0.57604 0.24163,-0.86325 0.0723,-1.18785 -0.0664,-0.12736 -0.12076,-0.2882 -0.12076,-0.35742 0,-0.0692 -0.0576,-0.18948 -0.12792,-0.26722 -0.1895,-0.2094 -0.28543,-1.52534 -0.25876,-3.54965 l 0.0229,-1.73809 -0.34357,-0.73498 c -0.18897,-0.40425 -0.34358,-0.84774 -0.34358,-0.98554 0,-0.1378 -0.0311,-0.26976 -0.0691,-0.29325 -0.038,-0.0235 -0.14691,-0.2561 -0.242,-0.5169 -0.15314,-0.42001 -0.3271,-0.71453 -1.04618,-1.77124 -0.25243,-0.37095 -0.52102,-0.4861 -0.84693,-0.36308 -0.2123,0.0801 -0.28559,0.073 -0.45914,-0.0448 -0.11358,-0.0771 -0.29756,-0.18019 -0.40885,-0.22917 -0.11128,-0.049 -0.40585,-0.27504 -0.65459,-0.50237 -0.40826,-0.37313 -0.47706,-0.4864 -0.70723,-1.16429 -0.371,-1.09265 -0.4943,-1.77382 -0.49588,-2.73957 -9.2e-4,-0.47127 -0.0247,-1.13252 -0.0532,-1.46944 -0.0486,-0.57465 -0.0648,-0.61585 -0.26273,-0.6651 -0.26469,-0.0659 -1.18344,-0.61178 -1.6661,-0.98995 -0.28372,-0.22231 -1.44035,-0.83961 -2.87032,-1.53191 -0.91174,-0.4414 -1.86738,-0.93668 -2.12365,-1.10062 -0.25627,-0.16393 -0.48577,-0.29806 -0.51,-0.29806 -0.0822,0 -2.78387,-1.37072 -3.00606,-1.52515 -0.12144,-0.0844 -0.49328,-0.33055 -0.82631,-0.54699 -0.33302,-0.21643 -0.97043,-0.68454 -1.41646,-1.04024 -0.44603,-0.3557 -1.02383,-0.79224 -1.28402,-0.97009 -0.26018,-0.17785 -0.53747,-0.40522 -0.6162,-0.50526 -0.0787,-0.10004 -0.16286,-0.18189 -0.18696,-0.18189 -0.0241,0 -0.27351,-0.16372 -0.55425,-0.36381 -0.28075,-0.20009 -0.69966,-0.49111 -0.93093,-0.6467 -0.448,-0.3014 -1.38071,-1.34945 -1.61876,-1.81893 -0.0789,-0.15562 -0.23988,-0.39831 -0.35771,-0.53931 -0.38604,-0.46191 -0.50294,-1.60303 -0.27341,-2.66884 0.1147,-0.53266 0.78616,-2.58214 1.04705,-3.19592 0.0703,-0.16531 0.12775,-0.38756 0.12775,-0.4939 0,-0.10634 0.10677,-0.40763 0.23725,-0.66954 0.13049,-0.2619 0.38804,-0.83997 0.57235,-1.2846 0.6783,-1.63636 2.85281,-5.61846 3.06808,-5.61846 0.0358,0 0.12465,-0.11823 0.19741,-0.26273 0.0727,-0.14451 0.19921,-0.35368 0.28102,-0.46484 0.0818,-0.11116 0.29927,-0.45894 0.48324,-0.77285 0.28334,-0.48347 0.33449,-0.63935 0.33449,-1.01936 0,-0.44712 -0.002,-0.44968 -0.42442,-0.76505 l -0.42441,-0.31643 -0.0625,-0.60439 c -0.0344,-0.33242 -0.0526,-1.46755 -0.0404,-2.52251 l 0.0221,-1.91811 0.24539,-0.22418 c 0.21651,-0.1978 0.27147,-0.34785 0.46707,-1.27511 0.16686,-0.79098 0.27844,-1.13093 0.45112,-1.3743 0.12617,-0.17785 0.25562,-0.40736 0.28766,-0.51002 0.16613,-0.5324 1.69493,-2.3823 2.20289,-2.66558 0.1022,-0.057 0.18583,-0.15704 0.18583,-0.22231 0,-0.0653 0.0719,-0.11868 0.1597,-0.11868 0.0878,0 0.4688,-0.16168 0.84657,-0.35929 1.1042,-0.57759 1.58868,-0.69659 3.11663,-0.76555 0.99754,-0.045 1.39911,-0.0942 1.59259,-0.19525 0.30409,-0.15874 0.92498,-0.17324 2.13775,-0.0499 0.77787,0.0791 1.27987,0.23708 1.76686,0.55606 0.25772,0.16882 1.35753,0.65228 1.48383,0.65228 0.0731,0 0.13299,0.0364 0.13299,0.0808 0,0.0445 0.0439,0.0808 0.0976,0.0808 0.099,0 1.159,0.52115 2.40852,1.18413 0.68498,0.36345 0.89993,0.43466 1.81893,0.60265 0.28502,0.0521 0.96883,0.31871 1.65818,0.6465 0.64522,0.30681 1.21818,0.55784 1.27325,0.55784 0.0551,0 0.10011,0.0364 0.10011,0.0808 0,0.0445 0.0748,0.0808 0.16622,0.0808 0.0914,0 0.38618,0.10914 0.65502,0.24253 0.26885,0.13338 0.55238,0.24252 0.63007,0.24252 0.0777,0 0.55597,0.16363 1.06285,0.36363 0.50687,0.19999 0.9733,0.3637 1.03651,0.36378 0.18986,2.5e-4 1.12532,0.38446 2.02117,0.8301 0.91848,0.4569 1.967,1.09391 3.67671,2.23372 0.5869,0.39127 1.56399,1.41473 1.97929,2.07322 0.19509,0.30933 0.54765,0.85345 0.78347,1.20915 0.46023,0.69419 0.99482,1.84241 1.21177,2.60269 0.0736,0.2581 0.19838,0.57841 0.27719,0.7118 0.0788,0.13338 0.27962,0.58812 0.44626,1.01051 0.16665,0.4224 0.36579,0.85894 0.44254,0.97009 0.33039,0.47849 0.98955,1.97397 1.26495,2.86986 0.38203,1.24282 0.55971,2.08719 0.71443,3.39533 0.18987,1.6053 0.28146,2.09397 0.44186,2.35775 0.0809,0.133 0.28053,0.58458 0.44365,1.00349 0.16311,0.41891 0.34844,0.8567 0.41183,0.97285 0.0634,0.11616 0.18934,0.68003 0.27988,1.25304 0.0905,0.57302 0.27782,1.64209 0.41618,2.37573 0.32434,1.71966 0.30024,2.40882 -0.13571,3.88037 -0.47166,1.59207 -0.48003,1.6411 -0.37636,2.20449 0.0988,0.53711 0.23317,0.69803 1.36463,1.63455 0.63895,0.52885 0.85022,0.81569 0.89528,1.21547 0.0232,0.20611 0.002,0.40663 -0.0487,0.46814 -0.0491,0.0592 -0.2394,0.39428 -0.42288,0.74467 -0.30009,0.57312 -0.3284,0.67609 -0.28202,1.02576 0.0284,0.21377 0.009,0.69214 -0.0428,1.06304 -0.0903,0.64525 -0.085,0.70233 0.12151,1.32249 0.12948,0.38879 0.24215,0.95987 0.28158,1.42722 0.0409,0.48498 0.11082,0.83226 0.18516,0.91993 0.17779,0.20967 1.68299,3.5414 1.68299,3.72528 0,0.0871 0.14353,0.34946 0.31896,0.58294 0.26872,0.35763 0.35787,0.58534 0.56589,1.44546 0.13581,0.56154 0.24717,1.20177 0.24747,1.42275 3.1e-4,0.24438 0.15943,0.94023 0.40608,1.77609 0.22305,0.75586 0.46062,1.64714 0.52793,1.98061 0.1601,0.79312 0.28434,1.21634 0.41465,1.4125 0.0583,0.0877 0.10629,0.23321 0.10672,0.32336 3.1e-4,0.0901 0.0853,0.3458 0.18861,0.56811 0.10329,0.22231 0.21033,0.54401 0.23787,0.71488 0.0275,0.17086 0.14495,0.43508 0.26094,0.58715 0.17408,0.22823 0.22491,0.41387 0.29125,1.06363 0.0442,0.43293 0.12928,0.96904 0.18906,1.19135 0.21611,0.80369 0.37704,1.62725 0.41861,2.14229 0.0233,0.28901 0.0839,0.6107 0.13458,0.71488 0.0763,0.15677 0.0613,0.24312 -0.0872,0.50106 -0.20678,0.35928 -0.22095,0.54126 -0.0589,0.75538 0.0635,0.0838 0.13965,0.32027 0.16931,0.52546 0.0297,0.2052 0.0856,0.41302 0.12428,0.46184 0.0387,0.0488 0.0674,0.32166 0.0638,0.60631 -0.004,0.28465 0.0186,0.69235 0.0492,0.906 0.0632,0.44083 -0.0887,0.70291 -0.40752,0.70291 -0.0983,0 -0.26543,0.0677 -0.37147,0.15056 -0.10603,0.0828 -0.27278,0.17561 -0.37055,0.20623 -0.28866,0.0904 -0.34748,0.53246 -0.0709,0.53246 0.0581,0 0.35607,0.12054 0.66216,0.26787 1.27775,0.61499 1.63361,0.77381 2.13295,0.95191 0.289,0.10308 0.72554,0.30255 0.97009,0.44326 0.37676,0.21679 0.5506,0.26214 1.13897,0.29715 0.5798,0.0345 0.7494,0.0777 1.02803,0.26214 0.18352,0.12144 0.40397,0.33996 0.4899,0.48559 0.11781,0.19969 0.26257,0.29942 0.5888,0.40564 0.23791,0.0775 0.48838,0.18928 0.55658,0.24846 0.0682,0.0592 0.32431,0.19618 0.56913,0.30445 0.24481,0.10827 0.49573,0.25784 0.5576,0.33239 0.0619,0.0746 0.21177,0.17843 0.3331,0.23084 0.12134,0.0524 0.37035,0.28644 0.55337,0.52006 0.32399,0.41358 0.55256,0.59549 1.41409,1.12538 0.22954,0.14119 0.69182,0.54399 1.02729,0.89513 0.54135,0.56662 0.62615,0.69828 0.75403,1.17074 0.16616,0.61383 0.1386,1.60398 -0.0749,2.6896 -0.07,0.3557 -0.15925,0.91957 -0.19844,1.25304 -0.26975,2.29477 -0.9993,5.56127 -1.42765,6.39223 -0.12013,0.23304 -0.2443,0.86985 -0.60576,3.1066 -0.13651,0.84479 -0.33661,1.80049 -0.44464,2.12379 -0.10805,0.32328 -0.19644,0.66027 -0.19644,0.74887 0,0.0886 -0.0321,0.22425 -0.0714,0.30146 -0.0393,0.0772 -0.14428,0.39502 -0.23339,0.70625 -0.0891,0.31124 -0.2022,0.67503 -0.2513,0.80842 -0.51268,1.3926 -0.76401,2.23892 -0.82279,2.77064 -0.11564,1.0461 -0.20424,1.41647 -0.43448,1.81633 -0.12137,0.21078 -0.25412,0.40391 -0.29502,0.42919 -0.0409,0.0253 -0.0743,0.15079 -0.0743,0.27893 0,0.12814 -0.0364,0.25547 -0.0808,0.28295 -0.0445,0.0275 -0.0808,0.12394 -0.0808,0.21436 0,0.18859 -0.39551,1.36387 -0.4978,1.47926 -0.0374,0.0422 -0.0681,0.14879 -0.0681,0.23678 0,0.088 -0.0364,0.2808 -0.0808,0.42846 -0.20007,0.66444 -0.23838,0.81112 -0.28129,1.07689 -0.0251,0.15561 -0.0962,0.39208 -0.15805,0.52546 -0.2219,0.47884 -0.39225,1.41913 -0.57486,3.17302 -0.0513,0.49314 -0.048,0.50525 0.14003,0.50525 0.17963,0 0.31175,-0.09 0.97996,-0.66765 0.4021,-0.3476 1.07308,-0.63869 1.40651,-0.61019 0.44644,0.0382 0.50534,0.21238 0.27509,0.81367 -0.23057,0.6021 -0.44245,1.25914 -0.56683,1.75763 -0.0499,0.20009 -0.21953,0.84998 -0.37691,1.44421 -0.16966,0.6406 -0.27621,1.21651 -0.26174,1.41472 l 0.0244,0.3343 0.4391,0.044 c 0.2415,0.0242 0.45303,0.0858 0.47006,0.13692 0.017,0.0511 0.15381,0.13343 0.30396,0.18298 0.2068,0.0682 0.29591,0.15948 0.36742,0.37615 0.0519,0.15732 0.14476,0.38257 0.20631,0.50054 0.0616,0.11798 0.11214,0.38096 0.11242,0.5844 3e-4,0.29043 -0.0429,0.4107 -0.20161,0.55977 -0.26593,0.24984 -0.25442,0.52476 0.0402,0.95951 0.2137,0.31535 0.98686,0.98068 1.13962,0.98068 0.16153,0 1.49201,1.08304 2.13469,1.73768 1.46643,1.49371 1.73086,1.61905 3.9208,1.85831 0.6447,0.0704 1.25576,0.16325 1.35789,0.20623 0.10213,0.043 0.25297,0.0782 0.3352,0.0782 0.18911,0 0.58682,0.44814 0.72132,0.8128 0.0565,0.1532 0.21679,0.51501 0.35617,0.80402 0.15979,0.33128 0.26502,0.68978 0.28477,0.97009 0.0289,0.40999 0.0103,0.46849 -0.23876,0.75082 -0.24049,0.27264 -0.36682,0.33215 -1.15247,0.54283 -1.68038,0.45064 -2.37941,0.51479 -5.58492,0.51242 -3.02787,-0.002 -3.74522,-0.0537 -5.94183,-0.42651 -0.289,-0.0491 -1.0541,-0.16072 -1.7002,-0.24817 -0.64611,-0.0874 -1.41006,-0.21226 -1.69767,-0.27737 -0.2876,-0.0651 -1.2323,-0.23153 -2.09932,-0.36983 -0.86702,-0.13829 -1.68554,-0.28822 -1.81893,-0.33316 -0.13339,-0.0449 -0.74398,-0.16802 -1.35687,-0.27351 -0.61288,-0.1055 -1.22781,-0.24842 -1.3665,-0.31761 -0.1387,-0.0692 -0.31983,-0.1258 -0.40253,-0.1258 -0.0827,0 -0.21353,-0.0319 -0.29074,-0.0709 -0.0772,-0.039 -0.28588,-0.11572 -0.46373,-0.17048 -0.37607,-0.11577 -1.03512,-0.54133 -1.16938,-0.75508 -0.0727,-0.11579 -0.0574,-0.25529 0.0709,-0.64673 0.09,-0.27449 0.20263,-0.74921 0.25024,-1.05492 0.0476,-0.3057 0.13484,-0.65129 0.19384,-0.76799 0.059,-0.11668 0.13322,-0.35767 0.1649,-0.53552 0.0317,-0.17785 0.1275,-0.4826 0.21291,-0.67722 0.0854,-0.19461 0.15529,-0.40786 0.15529,-0.47386 0,-0.066 0.31637,-0.90719 0.70304,-1.86929 0.59065,-1.46962 0.70854,-1.83863 0.73745,-2.30828 0.0498,-0.80882 -0.0982,-1.37152 -0.46711,-1.77586 -0.53962,-0.59148 -0.6248,-0.94448 -0.30123,-1.24846 0.13849,-0.13011 0.28799,-0.17577 0.5754,-0.17577 0.34213,0 0.42499,0.0367 0.69691,0.30861 0.16973,0.16973 0.3322,0.41529 0.36102,0.54568 0.0922,0.41699 0.11037,0.43917 0.35974,0.43917 0.27443,0 0.54371,-0.22427 0.60422,-0.50321 0.0219,-0.10117 0.0938,-0.42041 0.15974,-0.70941 0.0659,-0.28901 0.1974,-1.07115 0.2922,-1.73809 0.0948,-0.66694 0.22264,-1.46726 0.28409,-1.7785 0.0614,-0.31124 0.15141,-1.14795 0.19991,-1.85935 0.0982,-1.43994 0.2908,-3.23947 0.3585,-3.34901 0.0759,-0.12283 0.37261,-4.08753 0.4451,-5.94772 0.0662,-1.69851 0.25353,-3.45389 0.4055,-3.79953 0.0391,-0.0889 0.0935,-0.3072 0.12088,-0.48505 0.0458,-0.29708 0.19768,-0.9024 0.48697,-1.94019 0.062,-0.22231 0.15372,-0.5861 0.20388,-0.80841 0.0502,-0.22231 0.17443,-0.62248 0.27614,-0.88925 0.10172,-0.26678 0.23053,-0.64875 0.28626,-0.84884 0.0557,-0.20008 0.13051,-0.43654 0.1662,-0.52546 0.0357,-0.0889 0.083,-0.23444 0.10523,-0.32337 0.0222,-0.0889 0.11969,-0.36176 0.21666,-0.60631 0.22071,-0.55658 0.31433,-0.98625 0.31885,-1.46322 l 0.004,-0.37187 -0.50525,-0.21446 c -0.27789,-0.11795 -0.56677,-0.21436 -0.64196,-0.21423 -0.0752,0 -0.15919,-0.0362 -0.18666,-0.0806 -0.0275,-0.0445 -0.14124,-0.0808 -0.2528,-0.0808 -0.27396,0 -1.94772,-0.39508 -2.2655,-0.53476 -0.14011,-0.0616 -0.41669,-0.11197 -0.61464,-0.11197 h -0.3599 l -0.0493,0.74778 c -0.0271,0.41128 -0.11041,0.94786 -0.1851,1.19241 -0.10899,0.3568 -0.1501,1.01149 -0.20811,3.31448 -0.0982,3.8983 -0.0961,3.8646 -0.24738,3.98236 -0.0707,0.0551 -0.14726,0.26383 -0.17005,0.46391 -0.0228,0.20008 -0.0976,0.87308 -0.16634,1.49556 -0.0687,0.62248 -0.16692,1.36824 -0.21828,1.65724 -0.0514,0.28901 -0.12443,0.8165 -0.16237,1.1722 -0.038,0.3557 -0.10165,0.82862 -0.14157,1.05094 -0.0399,0.22231 -0.15078,0.85025 -0.24636,1.39542 -0.0956,0.54517 -0.21262,1.09085 -0.26009,1.21262 -0.0475,0.12177 -0.1161,0.40329 -0.15252,0.6256 -0.11719,0.71546 -0.41047,1.68277 -0.58705,1.93621 -0.0945,0.13558 -0.42244,0.5073 -0.72884,0.82606 l -0.5571,0.57956 -0.0249,0.99684 c -0.0401,1.60281 -0.31713,2.20491 -1.69388,3.68148 -0.69281,0.74305 -3.34135,3.2372 -4.11171,3.87204 -0.4431,0.36514 -1.33377,1.29945 -2.79155,2.92834 -0.25185,0.2814 -0.53066,0.57242 -0.61958,0.64673 -0.0889,0.0743 -0.38925,0.36082 -0.66739,0.63673 -0.54368,0.53931 -2.25712,1.94476 -2.8872,2.36821 -0.1725,0.11594 -0.28759,0.19204 -0.93644,0.61925 -0.15801,0.10405 -0.33081,0.18916 -0.384,0.18916 -0.0532,0 -0.0967,0.0546 -0.0967,0.12127 0,0.0667 -0.0503,0.12126 -0.11167,0.12126 -0.0614,0 -0.20878,0.12732 -0.32748,0.28294 -0.11869,0.15562 -0.26407,0.28295 -0.32306,0.28295 -0.059,0 -0.15717,0.0603 -0.2182,0.13406 -0.061,0.0737 -0.32038,0.23319 -0.57634,0.35434 -0.25597,0.12116 -0.52479,0.27001 -0.59738,0.33078 -0.0726,0.0608 -0.28568,0.20144 -0.47355,0.31259 -1.45921,0.8634 -2.3858,1.52274 -4.2358,3.01411 l -1.38231,1.11435 0.006,0.38122 c 0.008,0.51617 0.21126,0.84105 0.60636,0.96922 0.40135,0.13019 0.57114,0.33242 0.64339,0.76631 0.0699,0.41973 0.30575,0.9016 0.61457,1.25562 0.38134,0.43715 0.27974,0.74019 -0.31144,0.92892 -0.57003,0.18199 -0.73156,0.20554 -2.35898,0.34405 -0.81803,0.0696 -1.60187,0.17443 -1.74185,0.23292 -0.28493,0.11905 -0.71446,0.5848 -0.66825,0.72461 0.0322,0.0975 0.261,0.22393 0.6866,0.37946 0.39794,0.14542 0.25701,0.18078 -0.34624,0.0869 -0.84572,-0.13166 -0.85986,-0.12224 -1.92203,1.2818 -0.92443,1.22195 -0.93921,1.2428 -1.03105,1.45514 -0.12014,0.27772 -0.50058,0.83481 -0.62383,0.91348 -0.0557,0.0356 -0.10289,0.16287 -0.10484,0.28294 -0.006,0.37198 -0.19188,0.76908 -0.58685,1.25399 -0.20872,0.25625 -0.45142,0.6069 -0.53933,0.77923 -0.22325,0.4376 -0.62426,1.7174 -0.84699,2.70311 -0.10321,0.45676 -0.2431,0.93669 -0.31087,1.06651 -0.14261,0.27317 -0.49349,0.61528 -0.78437,0.76473 -0.11116,0.0571 -0.32943,0.20375 -0.48505,0.32587 -0.22918,0.17984 -0.39048,0.22959 -0.84883,0.26185 -0.31124,0.0219 -0.65371,0.0219 -0.76105,2e-5 z m 7.29264,-113.09799 c 0.33169,-0.22987 0.57529,-0.25753 1.2802,-0.1454 0.24163,0.0384 0.48523,0.023 0.68688,-0.0436 0.17186,-0.0567 0.53087,-0.10018 0.79779,-0.0966 0.40672,0.005 0.60969,-0.0496 1.25331,-0.34043 0.42239,-0.19084 0.89531,-0.38799 1.05093,-0.43812 0.32939,-0.10609 1.45514,-1.12398 1.45514,-1.31572 0,-0.0717 -0.0602,-0.18026 -0.13378,-0.24128 -0.0736,-0.061 -0.18523,-0.22009 -0.2481,-0.35347 -0.22448,-0.47623 -0.37584,-0.73457 -0.72212,-1.23247 -0.19312,-0.27769 -0.35114,-0.58983 -0.35114,-0.69365 0,-0.10383 -0.0916,-0.36774 -0.20362,-0.58647 -0.11199,-0.21873 -0.22547,-0.59891 -0.25219,-0.84484 -0.0445,-0.40973 -0.0292,-0.47021 0.18341,-0.72278 0.26361,-0.31322 0.27817,-0.54431 0.11469,-1.8212 -0.0512,-0.40016 -0.0822,-1.346 -0.0688,-2.10187 0.0239,-1.34911 0.0292,-1.38554 0.28915,-1.9876 0.14563,-0.33731 0.38968,-0.81023 0.54234,-1.05093 0.34418,-0.54267 0.40644,-0.67427 0.52081,-1.10097 0.0501,-0.18698 0.13858,-0.38742 0.19659,-0.44542 0.058,-0.058 0.13042,-0.20489 0.16092,-0.32641 0.10196,-0.40626 0.99481,-1.20964 1.75032,-1.57494 1.04126,-0.50346 1.65142,-0.59124 2.65073,-0.38137 0.19843,0.0417 0.30616,0.0194 0.42442,-0.0876 0.14768,-0.13365 0.16858,-0.13431 0.30633,-0.01 0.0813,0.0736 0.21955,0.1338 0.3072,0.1338 0.0876,0 0.19392,0.0334 0.23615,0.0743 0.0422,0.0409 0.29209,0.11351 0.55523,0.16145 0.47214,0.086 0.77461,0.26271 0.77461,0.45255 0,0.0535 0.12699,0.25708 0.2822,0.4523 0.15522,0.19523 0.33615,0.53917 0.40209,0.76432 0.0659,0.22515 0.224,0.55309 0.35126,0.72876 0.16266,0.22455 0.24523,0.45377 0.27807,0.77194 0.0257,0.2489 0.1408,0.63823 0.2558,0.86517 0.115,0.22694 0.20909,0.4702 0.20909,0.54058 0,0.0704 0.0559,0.23605 0.1242,0.36815 0.0683,0.13211 0.21325,0.77424 0.32207,1.42698 0.15164,0.90956 0.231,1.20533 0.33973,1.26618 0.078,0.0437 0.31904,0.24511 0.53557,0.44765 l 0.39369,0.36825 -0.0327,0.72849 c -0.0294,0.65586 -0.0609,0.77685 -0.31572,1.21354 -0.21735,0.37248 -0.38127,0.54133 -0.70633,0.72757 l -0.4233,0.24252 0.0229,1.27115 c 0.0214,1.18762 0.0346,1.28289 0.20151,1.44964 l 0.17864,0.17849 0.42767,-0.21019 c 0.46657,-0.22931 0.78981,-0.53424 0.96332,-0.90878 0.0685,-0.1479 0.2631,-0.32084 0.50461,-0.44851 0.45837,-0.24231 0.60313,-0.42755 0.8512,-1.08928 0.39139,-1.04403 0.39484,-0.98382 -0.12188,-2.12387 -0.10625,-0.23441 -0.19318,-0.4803 -0.19318,-0.54642 0,-0.0661 -0.16174,-0.49889 -0.35943,-0.96172 -0.52299,-1.22444 -1.26808,-3.5804 -1.37493,-4.34749 -0.0292,-0.20924 -0.10914,-0.493 -0.17778,-0.63058 -0.0686,-0.13758 -0.15634,-0.47569 -0.19491,-0.75134 -0.13091,-0.93558 -0.2514,-1.95424 -0.30792,-2.60307 -0.0602,-0.69177 -0.26461,-1.13267 -0.86882,-1.87446 -0.31762,-0.38995 -1.45289,-1.26905 -1.85679,-1.43781 -0.35152,-0.14687 -0.9222,-0.59137 -2.18244,-1.69988 -1.88477,-1.65784 -2.69729,-2.25532 -3.5097,-2.58084 -0.0667,-0.0267 -0.28496,-0.14281 -0.48504,-0.25797 -0.58826,-0.33858 -1.84,-0.8399 -2.23092,-0.89348 -0.46662,-0.064 -0.64828,0.0976 -0.99837,0.88767 -0.14161,0.31959 -0.34628,0.78115 -0.45482,1.0257 -0.10855,0.24454 -0.26977,0.68511 -0.35827,0.97905 -0.14851,0.49326 -0.47196,0.96113 -0.66443,0.96113 -0.15895,0 -1.14853,1.03308 -1.53205,1.5994 -0.3827,0.56511 -1.06732,1.29778 -2.01808,2.15972 -0.91209,0.82688 -2.79385,1.55303 -4.22927,1.63202 -0.95041,0.0523 -2.13242,-0.0757 -2.81145,-0.30444 -0.55821,-0.18804 -0.70982,-0.15805 -1.04106,0.20595 -0.13359,0.14682 -0.4059,0.32919 -0.60514,0.40527 -0.33137,0.12656 -0.39008,0.19373 -0.68902,0.78828 -0.49235,0.97923 -0.95321,2.04489 -1.21116,2.80059 -0.31384,0.91942 -1.20808,5.96735 -1.32747,7.4934 l -0.0565,0.7226 0.31511,0.1771 c 0.17332,0.0974 0.60476,0.25648 0.95876,0.35349 0.88001,0.24114 3.47279,1.28834 4.31744,1.74376 0.6089,0.32831 1.2215,0.71265 2.05974,1.29227 0.13679,0.0946 0.55792,0.44876 0.93585,0.78706 0.8966,0.80257 1.14553,0.91814 2.27091,1.05432 1.5104,0.18276 1.90956,0.16706 2.28008,-0.0897 z"
       id="path6693"
       inkscape:connector-curvature="0" />
  </g>
</svg>
