<?xml version="1.0" encoding="utf-8"?>

<!DOCTYPE svg PUBLIC "-//W3C//DTD SVG 1.1//EN" "http://www.w3.org/Graphics/SVG/1.1/DTD/svg11.dtd">
<svg version="1.1" id="Layer_1" xmlns="http://www.w3.org/2000/svg" xmlns:xlink="http://www.w3.org/1999/xlink" x="0px" y="0px"
	 viewBox="-28.933 35.971 1875.479 1229.534" enable-background="new -28.933 35.971 1875.479 1229.534" xml:space="preserve">
<path enable-background="new    " d="M1803.25,278.72c-4.17-3.44-10.01-2.81-15.01-2.29c-10.75,2.52-21.16,6.67-32.21,7.79
	c-9.68,1.45-18.81,6.36-28.76,5.75c0.74-1.4,1.76-2.69,3.37-3.16c5.66-2.23,11.09-5.76,14.14-11.18c4.83-0.38,8.84-3.45,12.36-6.54
	c3.78-2.97,3.14-9.05,0.07-12.29c-4.06-2.21-9.01-3.16-13.5-1.84c-7.22,1.84-14.16,4.64-20.83,7.91c-5.05,2.4-8.37,7.21-13.36,9.68
	c-5.14,3.12-11.25,3.84-16.59,6.47c-6.21,3.04-11.91,7.03-18.3,9.71c-6.36,2.75-12.04,6.77-18.25,9.8
	c-5.21,2.48-8.79,7.13-13.11,10.78c-3.03,2.6-5.81,5.48-8.56,8.37c-3.46,3.61-7.71,6.31-11.54,9.49
	c-4.04,3.32-6.84,7.83-10.59,11.44c-5.64,5.52-12.59,9.39-18.71,14.3c-6.78,5.03-14.52,8.58-21.25,13.7
	c-10.38,6.48-21.35,11.99-31.88,18.23c-6.66,4.22-13,8.89-19.43,13.43c-4.3,2.92-8.19,6.68-13.35,7.98
	c0.35-6.4,4.06-11.79,6.98-17.26c2.26-4.23,5.26-8.08,9.11-10.97c7.36-5.59,13.31-12.77,18.83-20.13
	c8.22-11.6,15.49-24.01,20.57-37.32c6.25-18.59,11.81-37.45,19.48-55.53c4.64-10.58,7.52-21.85,12.69-32.21
	c3.46-8.62,7.56-17.03,10.19-25.95c0.26-0.47,0.78-1.41,1.03-1.88c5.17-4.69,8.24-11.11,12.95-16.21
	c6.32-7.34,12.91-14.46,20.53-20.48c14.37-14.01,31.02-25.39,48.05-35.9c3.43-1.93,6.97-3.78,9.9-6.48c1.55-0.6,3.13-1.17,4.7-1.82
	c7.11-0.23,12.88-4.76,18.32-8.85c7.94-5.23,16.64-9.15,25.54-12.44c4.34-2.41,9.38-2.59,14.02-4.05c4.24-2.7,4.03-8.49,6.64-12.37
	c3.3-2.65,7.87-2.59,11.67-4.27c3.11-1.32,6.56-3.5,7.41-7c-0.88-2.5-2.32-4.75-3.61-7.05c-1.24-2.6-4.25-3.61-6.9-3.92
	c-5.93-0.69-11.99-0.72-17.86,0.37c-7.13,1.6-14.03,4.08-21.18,5.53c-5.12,1.16-10.03-1.13-14.99-1.92c-6.05-1.2-12.02,0.88-18,1.42
	c-8.45,0.37-14.84,6.51-21.46,10.99c-5.66,4.21-13.07,3.86-19.42,6.41c-8.29,2.85-15.43,8.11-23.32,11.81
	c-10.14,5.56-20.56,11-28.84,19.24c-5.4,5.5-11.62,10.87-14.32,18.3c-7.57,3.99-11.59,12.12-14.64,19.74
	c-2.73,6.53-7.67,11.74-11.11,17.87c-6.03,8.49-13.9,15.49-20.01,23.93c-3.96,5.64-9.24,10.12-13.89,15.15
	c-4.01,4.35-9.24,7.47-12.59,12.41c-3.82,5.47-8.55,10.2-12.47,15.59c-7.14,8.87-13.54,18.32-21.16,26.8
	c-5.97,6.39-10.89,13.7-17.23,19.75c-5.77,5.68-11.38,11.63-15.32,18.77c-3.93,7.25-11.93,12.85-11.81,21.8
	c0.63,11.11,1.92,23.28-4.05,33.27c-4.62,8.51-7.81,17.67-11.29,26.67c-3.29,8.49-5.4,17.42-9.33,25.66
	c-3.84,7.98-7.6,16-10.81,24.26c-3.15-0.05-6.31-0.49-9.21-1.71c-8.37-3.43-16.9-6.59-24.6-11.39c-7.83-4.38-14.66-10.36-22.7-14.35
	c-7.54-4.03-14.91-8.57-23.16-11.02c-4.34-1.27-8.55-3.35-13.14-3.4c-9.37-1.29-18.95-3.74-28.4-1.82c-2.16-1.91-5.1-2.1-7.82-2.33
	c-11.08-0.56-21.03-6.13-31.8-8.19c-9.33-1.77-18.7-4.44-28.28-3.47l-0.85-0.06c-7.91-2.46-16.26-1.87-24.41-2.61
	c-26.23-2.53-52.97-1.07-78.54,5.41c-17.94,3.39-36.18,4.69-54.16,7.75c-4.38,0.99-9.04,0.34-13.29,1.81
	c-10.67-0.89-21.28,1.19-31.73,3.08c-13.29,1.94-26.07,6.19-39.14,9.13c-6.57,1.46-12.95,4.03-19.62,4.82
	c-4.22-1.78-8.84-2.32-13.12-3.64c-3.9-8.83-8.86-17.31-11.19-26.76c-2.62-9.53-5.76-19.3-11.87-27.21
	c-3.55-4.15-8.19-8.2-13.93-8.37c-4.07,0.19-8.27,2.47-10.06,6.23c-1.39,3.83-0.68,8.27,1.56,11.64c3.36,5.64,9.89,8.51,12.75,14.53
	c-2.12-0.62-4.23-1.26-6.34-1.84c-1.37-1.37-2.58-2.89-4-4.19c-1.24-1.32-2.33-2.86-3.9-3.79c-2.94-0.74-6.38-0.18-8.68-2.57
	c-10-8.67-20.22-17.09-30.15-25.84c-2.4-2.02-5.06-3.66-7.6-5.46c-4.44-2.99-7.59-7.72-12.76-9.6c0.5,1.77,0.83,3.79,2.39,5
	c3.49,3.17,7.38,6.05,9.84,10.18c3.2,5.38,8.56,8.79,13.12,12.89c6.57,5.76,13.2,11.45,19.83,17.15
	c9.47,8.51,19.69,16.14,29.26,24.53c-1.39,1.48-2.9,2.87-3.95,4.6c2.15,6.94,10.1,8.65,14.53,13.65c-1.92,0.88-3.7,2.14-5.78,2.55
	c-7.46-2.86-14.76-6.92-22.88-7.37c-5.32-1.95-11.12-1.71-16.46-3.53c-3.18-0.97-6.36-1.89-9.51-2.92
	c-4.01-1.31-7.83-3.44-12.12-3.61c-5.39-0.25-10.8-0.31-16.18-0.05c-3.98,0.11-7.08,3.04-10.89,3.74
	c-3.66,0.62-7.46,0.83-10.83,2.53c-11.88,5.52-23.47,11.68-34.77,18.29c-10.49,7.07-21.58,13.13-32.53,19.43
	c-6.41,3.44-13.03,6.74-18.56,11.52c-6.08,6.31-9.72,14.42-14.09,21.9c-1.82,3.02-3.43,6.45-6.57,8.32
	c-4.15,2.44-8.87,3.69-13.02,6.11c-8.21,4.93-17.11,8.55-25.16,13.77c-10.18,5.27-19.3,12.31-29.43,17.66
	c-6.05,3.06-11.12,7.67-16.96,11.07c-16.17,10.75-31.61,22.59-48.14,32.8c-6.03,4.37-12.74,7.69-18.77,12.07
	c-7.83,5.15-15.84,10.08-24.46,13.81c-17.51,9.06-33.86,20.31-48.91,33.02c-3.38,2.57-2.65,7.23-3.13,10.95
	c-7.09,3.62-14.1,7.47-21.67,10.01c-6.86,2.23-13.63,5.28-19.03,10.15c-3.86,3.87-6.88,8.47-10.4,12.65
	c-3.9,5.23-8.65,10.1-10.57,16.5c-0.76,1.24-1.37,2.56-1.96,3.89c-1.6,2.09-3.11,4.24-4.49,6.49c-4.59,7.7-10.02,14.89-14.18,22.86
	c-2.91,5.84-6.89,11.25-8.35,17.72c-1.08,1.95-2.05,3.97-2.85,6.07c-1.57,2.18-3.02,4.44-4.16,6.88
	c-6.11,13.3-14.05,25.66-22.23,37.76c-8.33,11.62-17.73,22.47-25.58,34.44c-9.15,14.85-18.36,29.66-27.22,44.68
	c-8.74,16.08-18.21,31.74-27.47,47.52c-3.15,5.58-7.26,10.67-9.38,16.8c-5.43,9.05-11.59,17.64-17.01,26.69
	c-2.05,2.08-3.88,4.37-5.44,6.84c-7.51,12.01-16.15,23.26-23.68,35.26c-7.24,11.61-15.34,22.64-23.1,33.9
	c-4.34,6.21-9.49,11.79-14.48,17.48c-6.91,8.12-13.47,16.53-20.47,24.57c-6.42,7.35-14.71,12.63-22.17,18.81
	c-10.71,9.28-21.39,18.6-31.97,28.03c-9.97,8.34-17.41,19.2-27.25,27.68c-2.24,1.69-5.2,1.8-7.81,2.59
	c-4.56,0.98-8.75,3.11-13.26,4.27c-7.01,1.69-14.01-2.68-20.99-0.73c-2.18,1.5-4.29,3.68-4.69,6.41c0,5.22,2.98,10.01,2.67,15.24
	c-0.09,1.98-2.3,2.62-3.61,3.71c-5.56,3.23-9.61,8.32-13.81,13.07c-3.85,4.82-8.77,8.97-10.97,14.92c-1.4,3.91-4.73,6.96-5.79,10.95
	c1.12,5.02,5.84,8.02,9.16,11.6c7.29,8.07,19.31,10.95,29.69,8.34c6.73-2.21,12.77-6.1,18.34-10.4c3.89-3.1,9.23-2.5,13.61-4.51
	c7.17-3.25,14.99-5.06,21.7-9.27c3.52-2.09,5.27-6.02,8.36-8.57c2.72-1.26,5.88-0.81,8.8-1.12c12.72-0.25,25.35-2,38.06-2.51
	c7.14,0.08,14.28-0.13,21.35-1.21c8.9-1.44,17.93-1.89,26.84-3.29c4.94-0.73,9.82,0.79,14.76,0.62c4.61,0.11,9.36-1.15,13.84,0.46
	c4.83,1.83,10.05,0.96,15.04,1.79c13.45,2.32,27.67,4.43,40.86-0.33c11.24-3.38,18.14-15.21,18.39-26.51
	c1.52-10.95-0.34-22.07,1.72-32.97c2.39-11.87,5.04-23.85,10.19-34.87c2.32-5.13,5.65-9.85,6.75-15.46
	c0.25-0.46,0.74-1.38,0.99-1.84c0.91-1.11,1.81-2.21,2.64-3.36c11.03-18.31,23.88-35.44,36.08-52.98
	c9.41-12.99,18.04-26.53,27.8-39.27c14.19-17.52,27.51-35.73,42.17-52.87c10.97-12.52,20.22-26.4,30.55-39.43
	c8.06-10.29,14.84-21.53,20.77-33.16c8.42-15.77,14.42-32.68,22.31-48.7c7.15-13,14.49-25.95,20.35-39.61
	c1.62-3.78,3.43-7.73,6.88-10.19c5.8-4.25,11.79-8.24,17.83-12.13c5.42-3.32,10.03-7.82,15.74-10.7
	c6.65,7.25,13.35,14.52,19.14,22.48c4.71,6.48,3.29,14.78,1.93,22.1c5.55,2.85,11.88,0.86,17.72,2.13
	c3.94,2.72,6.47,6.97,9.71,10.43c4.22,4.63,7.18,10.17,10.7,15.3c1.06,1.27,2.03,3.32,4.04,2.9c4.89-0.41,9.45-2.45,14.21-3.55
	c7.77-1.63,13.39-7.75,18.57-13.33c5.47-7.45,12.35-13.68,18.31-20.71c4.23-4.79,7.83-10.11,12.39-14.61
	c2.42-2.58,5.43-5.11,5.99-8.81c0.7-4.36,0.2-8.79,0.06-13.17c0.31-0.18,0.92-0.54,1.23-0.72c7.02-1.65,13.35-5.57,18.43-10.63
	c3.56-3.45,2.45-8.82,3.69-13.19c2.37-2.15,5.41-3.33,8.16-4.91c5.91-3.18,11.01-7.6,16.15-11.87c4.96-4.17,10.4-7.72,15.92-11.11
	c3.3-2.01,6.81-3.96,10.73-4.3c4.35-0.37,8.66,0.67,13.01,0.76c5.96,0.33,11.69-1.65,17.57-2.32c8.85-1.13,17.6-2.89,26.36-4.55
	c6.78-1.34,13.65-2.42,20.18-4.76c7.78-2.76,15.92-4.25,23.96-6.03c9.83-2.01,19.29-5.65,29.32-6.72
	c6.33-1.26,12.97,0.34,19.16-1.76c4.25-1.4,8.54-2.71,12.69-4.4c5.5-2.21,9.87-6.56,15.53-8.44c5.2-1.79,10.41-3.8,14.87-7.09
	c4.26-3.17,8.96-5.66,13.31-8.69c4.75-3.29,6.63-9.28,11.41-12.53c2.76-1.91,5.5-3.93,7.55-6.63c5.24-4.03,9.75-8.95,13.72-14.22
	c3.41-4.56,8.25-7.76,13.13-10.56c4.01-1.8,8.23-3.13,12.2-5.03c6.46-1.05,12.38-4.04,18.78-5.36c5.06-1.07,10.07-2.38,15.01-3.95
	c5.23-1.7,10.84-1.39,16.19-0.47c5.23,0.87,9.83,3.77,14.97,4.96c3.7,1.02,7.55,1.07,11.31,1.78c13.38,3.01,23.36,13.25,36.02,17.95
	c7.89,5.13,16.96,8.1,24.93,13.12c5.32,3.42,11.09,6.06,17.11,8.01c8.69,2.8,17.02,6.6,25.13,10.81
	c15.04,5.86,29.75,12.81,45.52,16.57c10.19,2.36,20.05,6.1,30.44,7.57c11.79,1.79,23.72,2.25,35.63,2.69
	c7.47,0.41,14.96-0.84,22.42,0c-7.85,0.65-15.75-0.33-23.57,0.88c9.07,0.41,18.17,0.34,27.22,1.13c11.04,0.95,21.79,4.59,32.95,4.19
	c5.66-0.15,11.33-0.11,17,0.03c9.01,0.27,18.49-1.66,25.87-7.07c6.96-2.74,13.45-6.56,20.44-9.24c4.76-1.98,9.95-0.61,14.88-0.17
	c0.15,2.66,0.91,5.23,2.36,7.49c0.24,4-1.39,7.68-2.79,11.32c-1.2,2.78,0.44,5.63,1.24,8.28c-0.21,0.32-0.64,0.96-0.85,1.28
	l0.36,0.6c-1.07,2.46-0.08,4.99,0.92,7.27c-2.22,0.18-4.44,0.39-6.63,0.61c2.18,2.9,3.18,6.4,4.08,9.87
	c-0.87,0.27-2.59,0.81-3.45,1.08c1.59,5.44,1.99,11.17,3.93,16.54c3.34,8.92,4.28,18.64,8.76,27.15c0.22,1,0.55,1.97,0.98,2.92
	c0.63,2.86,1.53,5.68,2.83,8.33c4.07,8.19,7.27,16.88,12.71,24.31c4.88,6.74,8.62,14.42,14.8,20.15
	c5.05,4.72,10.47,9.15,16.57,12.46c5.79,3.11,11.46,6.75,18.02,7.99c0.5,0.21,1.5,0.63,2,0.84c3.44,2.47,7.55,3.72,11.73,4.27
	c7.62,1.03,15.43,2.07,23.07,0.52c6.46-1.33,13.2-0.37,19.58-2.23c5.42-1.56,10.9-2.96,16.21-4.9c1.65-0.5,2.75-1.87,3.76-3.19
	c0.37-0.22,1.11-0.66,1.48-0.88c3.58-0.27,6.99,0.9,10.33,2.06c3.33,1.26,6.94,0.76,10.44,0.68c-1.23-1.21-2.31-2.53-2.91-4.13
	c0.24-0.6,0.72-1.81,0.97-2.41c2.54-0.86,5.08-1.76,7.6-2.72c2.34,0.6,4.75,1.28,7.22,1.18c5.47,1.1,11.04,1.62,16.61,0.94
	c-1.63-1.21-3.19-2.48-4.67-3.84c1.31-1.2,2.62-2.4,3.98-3.57c-1.81-0.51-3.5-1.28-5.08-2.25c1.18-0.61,2.38-1.21,3.61-1.79
	c2.99-0.09,5.05-2.38,7.27-4.09c-1.42,0.3-2.82,0.62-4.2,0.93c-0.76-0.61-1.49-1.21-2.21-1.8c-0.52-2.03,0.43-5.42-2.29-5.96
	c-1.88,0.05-3.71,0.55-5.52,0.9c1.22-4.93,5.85-7.37,8.65-11.24c6.62-3.93,10.1-12.04,17.77-14.29c5.79-1.85,12.28,1.92,14.19,7.54
	c-0.73,5.94-0.85,11.94-0.28,17.89c3.38-5.37,2.55-12.01,4.09-17.96c1.5-0.06,3.02-0.12,4.56-0.17c-1.09-3.46-2.38-6.93-2.54-10.57
	c0.1-5.43,2.99-10.58,2.08-16.06c-0.64-3.52-2.13-7.03-4.68-9.58c-2.55-1.99-5.77-2.73-8.79-3.65c3.54-2.36,7.48-4.61,9.31-8.67
	c-5.05,1.79-9.53,5.29-15.07,5.42c-0.17-2.48-0.33-4.95-0.51-7.42l0.2-0.86c0.54-4.12,0.38-8.27,0.55-12.41
	c1.12-2.7,2.01-5.57,1.76-8.54c-0.36-5.99-0.41-11.99-0.64-17.98c-0.03-4.5-5.4-6.09-6.69-10.08c-2.99-6.5-0.54-13.68,2.27-19.76
	c2.38-4.95,2.31-10.52,3.15-15.83c0.59-4.16,2.73-7.85,3.88-11.85c1.59-5.31-2.43-10.97-7.46-12.55c-3.72-1.49-8.19-0.85-11.52-3.24
	c-4.77-4.47,2.46-11.99-2.58-16.43c-3.82-3.04-9.06-2.98-13.63-3.93c0.83-3.07,1.65-6.15,1.99-9.32c0.26-2.71-1.64-5.48-4.41-5.86
	c-2.35-1.95-5.66-2.8-7.48-5.26c-1.75-5.82-0.66-12.27-3.21-17.9c-1.81-3.91-5.71-6.67-9.95-7.26c-4.62-0.65-9.25,0.6-13.46,2.43
	c-5.7,0.7-11.24,2.19-16.73,3.78c-5.2,0.08-10.15,1.88-15.22,2.76c-3.87-0.89-7.78-0.24-11.6,0.45c-5.37,0.95-10.71-0.75-16.08-0.56
	c-1.19-1.23-3.04-1.45-4.53-2.12c-4.83-1.52-8.95-4.7-13.88-5.94c-7.63-2.02-15.44-3.35-22.89-5.99c-6.2-2.22-13.14-2.04-18.94-5.33
	c-1.06-3.02,0.63-5.98,1.81-8.67c1.81-3.66,3.38-7.8,7.03-10.02c15.26-9.94,30.07-21.56,39.65-37.34
	c4.85-8.24,11.59-15.06,17.5-22.5c7.16-8.59,13.76-17.62,20.43-26.59c4.44-6.14,9.99-11.35,14.87-17.12
	c6.26-7.11,11.51-15.08,18.34-21.69c4.88-5.19,10.5-9.58,16.31-13.69c6.7-4.7,12.19-11.71,20.53-13.58
	c11.08-2.97,22.54-0.99,33.79-1.51c9.86-1.45,20.04-0.28,29.72-2.88c3.62-2.19,0.81-7.76,3.49-10.54c4.3-2.94,9.62-3.67,14.66-4.47
	c8.38-0.98,16.65-2.96,25.13-3.15c4.61-0.04,7.07-6.38,4.35-9.83c-1.26-1.76-2.87-3.22-4.37-4.73c8.13-2.64,15.74-6.69,24.02-8.96
	c2.99-0.65,3.84-4.21,3.37-6.85c-1.87-3.16-5.49-5.16-9.13-5.26c-1.79-0.39-3.56-0.77-5.3-1.17c4.37-2.92,9.14-5.28,13.13-8.75
	c1.76-0.42,4.22,0.21,5.35-1.61C1804.52,283.98,1804.72,280.97,1803.25,278.72z M926.78,370.14c1.37,4.98,2.38,10.05,3.12,15.16
	c-3.94-3.56-6.93-7.94-10.01-12.2c-4.12-5.55-10.94-8.38-14.78-14.15c-2.22-2.92-0.41-6.48,0.37-9.55c3.52,0.35,7.4,0.4,10.34,2.67
	C921.76,356.31,924.47,363.5,926.78,370.14z"/>
</svg>
