<?xml version="1.0" encoding="utf-8"?>

<!DOCTYPE svg PUBLIC "-//W3C//DTD SVG 1.1//EN" "http://www.w3.org/Graphics/SVG/1.1/DTD/svg11.dtd">
<svg version="1.1" id="Layer_1" xmlns="http://www.w3.org/2000/svg" xmlns:xlink="http://www.w3.org/1999/xlink" x="0px" y="0px"
	 viewBox="0 0 2560 1415.82" enable-background="new 0 0 2560 1415.82" xml:space="preserve">
<path d="M2560,1320.392v-12.954c-2.458-0.631-6.434,0.213-7.091-3.021c-1.963-5.419-4.121-10.812-5.103-16.512
	c-0.742-4.156-2.014-8.226-4.164-11.853c-1.613-2.705-2.253-5.794-3.439-8.653c-2.842-5.76-6.221-11.221-9.677-16.606
	c-0.887-5.248-0.427-10.658-1.246-15.923c-0.487-4.079-2.466-7.731-3.695-11.588c-4.757-12.93-3.59-10.316-16.435-15.215
	c-3.789-1.502-7.894-1.451-11.844-2.014c-4.437-0.93-8.926-1.792-13.022-3.78c-2.884-1.562-6.349-0.469-9.242-1.869
	c-3.797-1.988-8.192-1.758-12.151-3.209c0.478,0.64,0.99,1.297,1.536,1.971c-4.83-0.521-9.745-1.254-14.515-0.077
	c-3.294,0.862-6.443-0.7-9.6-1.323c-7.322-1.57-14.891-2.867-22.366-1.783c-4.454,0.657-9.063-0.247-13.338,1.408
	c-4.898,1.758-10.137,1.007-15.07-0.043c-2.722-1.067-4.326-3.772-6.81-5.18c-3.302-0.981-6.792-1.118-10.086-2.108
	c-3.567-0.853-6.827-2.918-10.556-2.918c-8.073-0.068-16.282-0.657-23.945-3.345c-2.441-0.76-5.009-1.843-7.561-1.007
	c-8.636,2.876-18.569,0.666-26.513,5.734c-4.659-5.769-8.431-12.356-14.131-17.195c-4.309-2.969-9.856-2.756-14.549-4.821
	c-3.678-0.76-5.726-4.104-8.627-6.118c-13.289-10.656-18.028-4.524-25.063-3.251c-21.121,1.24-28.87-3.819-38.042-7.859
	c-3.055-1.271-5.487,2.184-8.508,1.681c-2.654-0.392-5.666,0.213-7.876-1.562c-3.277-2.458-7.577-3.311-11.571-2.611
	c-4.437,1.041-8.866-0.674-13.329-0.333c-3.61-0.205-6.63,2.517-10.231,2.133c-5.052-0.316-10.214,0.717-15.13-0.785
	c-3.951-1.075-8.004-1.69-12.083-1.809c-5.265-0.162-10.282-1.911-15.479-2.432c-2.33-0.384-4.941-0.094-6.835-1.707
	c-4.523-3.797-10.735-3.738-16.273-4.471c-4.633-0.12-9.003-2.082-13.645-1.843c-5.239,0.375-9.497-3.123-14.139-4.873
	c-3.951-0.998-7.987-1.553-11.921-2.552c-5.239-1.348-10.803-0.486-15.923-2.321c-4.984-1.792-10.163-2.867-15.266-4.19
	c-2.825-0.776-5.922-0.333-8.559-1.707c-3.379-1.621-7.006-3.456-10.854-3.072c-4.634,0.99-9.506-0.034-13.952,1.911
	c-5.299,2.202-11.486,0.811-16.401,3.985c-3.302,1.289-7.134-0.043-10.343,1.724c-4.71,2.372-9.975,0.171-14.908,0.034
	c-3.516-0.546-6.605,1.442-9.839,2.372c-4.19,1.417-8.815,1.34-12.732,3.55c-3.43,1.92-7.45,2.099-11.093,3.371
	c-3.422,2.705-4.241,7.552-7.646,10.3c-2.338,1.903-4.796,4.122-7.97,4.224c-7.467,1.195-15.07,0.631-22.502,1.954
	c-4.702,0.862-9.481-0.512-14.157,0.461c-4.036,0.614-7.987,1.783-12.04,2.039c-8.414-0.691-16.845,0.043-25.242-0.026
	c-6.34-0.008-12.109-3.063-18.389-3.328c-4.872-0.043-9.643-1.246-14.515-0.913c-6.938,0.051-12.817,4.599-19.72,4.89
	c-5.103,0.145-10.189,0.649-15.283,0.836c-3.575,0.008-6.827,1.656-10.197,2.568c-1.468-3.738-1.519-7.774-2.449-11.622
	c-1.468-4.173-2.91-8.576-6.033-11.836c-2.474-2.662-4.599-5.862-8.013-7.373c-4.011-1.903-8.047-3.746-11.605-6.409
	c-0.776-4.966,0.171-9.89,1.126-14.746c0.717-3.294-0.674-6.656,0.256-9.916c1.169-5.094,3.32-10.01,3.507-15.292
	c0.418-6.784,3.669-14.003,0.265-20.506c-1.135-3.157-4.309-4.89-7.484-5.239c-7.765-0.751-15.548-1.4-23.347-0.956
	c-8.533-0.384-17.041-1.203-25.583-1.442c-4.864,0.094-9.685,1.143-14.558,0.751c-6.536-0.538-13.252,1.271-19.601-0.964
	c-2.219-0.87-4.506-0.128-6.306,1.254c-1.596-3.123-5.197-1.041-7.868-1.382c-6.63-0.981-13.321,0.034-19.968-0.683
	c-5.308-0.649-11.221,2.338-16.051-0.836c-3.091-3.771-8.573-17.652-17.092-16.051c-6.34,1.22-12.911,1.741-18.859,4.463
	c-3.456,1.715-7.356,1.894-11.128,1.664c-2.969-0.213-5.76,1.016-8.678,1.229c-4.958,0.401-9.993,0.478-14.831,1.724
	c-4.463,1.169-8.337,4.599-13.175,4.045c-2.406,0.102-3.354-2.731-5.436-3.337c-2.082-0.589-4.258-0.486-6.366-0.555
	c-1.357-3.021-3.448-5.606-5.837-7.842c-2.022-1.783-2.082-4.676-3.183-6.955c-4.982-9.835-7.732-8.927-11.187-10.402
	c-3.106-1.084-5.513-3.482-8.482-4.787c-2.97-0.102-5.931-0.008-8.883-0.154c-5.069-0.188-9.472,2.842-14.438,3.243
	c-2.705,0.256-5.248,1.28-7.893,1.775c-2.867-0.009-5.521-1.229-8.303-1.647c-3.174,1.911-6.093,4.599-7.245,8.218
	c-2.167,0.845-4.36-0.572-6.374-1.203c-3.703-1.86-8.013-1.101-11.819-2.5c-3.439-1.365-6.417-3.729-10.052-4.591
	c-6.472-1.634-14.279-8.419-28.706-6.255c-4.745,0.862-8.875-2.731-13.619-2.389c-2.978-0.529-5.461,2.688-8.371,1.476
	c-3.618-0.947-6.477-4.275-10.428-3.814c-4.702,0.521-9.993,1.331-13.329,5.035c-1.997,2.039-4.343,3.678-6.46,5.581
	c-4.446-0.683-8.951-0.623-13.423-0.495c-3.575,0.222-7.407,0.009-10.547,2.014c-3.738,2.432-8.303,2.193-12.561,2.253
	c-5.764-7.356-8.424-7.628-16.213-7.509c-4.582,0.264-9.165,0.367-13.73,0.683c-5.658,0.674-10.197-3.499-14.976-5.82
	c-4.437-2.722-9.651-3.465-14.507-5.094c-2.961-0.896-5.777-2.193-8.755-2.978c-8.738-1.673-15.309-8.576-23.936-10.479
	c-4.042-0.116-9.289-7.113-16.154-9.233c-2.978-1.032-6.212-1.425-8.917-3.115c-2.842-1.664-4.574-4.548-6.852-6.818
	c-5.427-5.504-7.048-13.372-8.465-20.685c-1.724-11.093-4.053-22.153-4.215-33.417c-0.836-10.871,0.776-21.692,1.707-32.495
	c0.776-18.33,6.519-36.079,6.63-54.468c1.094-20.893-5.198-48.906-5.188-54.648c-0.222-7.305,2.364-14.549,0.802-21.828
	c-2.33-11.324-4.796-22.622-6.904-33.997c-3.74-21.958-20.405-39.487-45.474-40.755c-6.571,0.495-13.082-0.768-19.644-0.461
	c-26.348-2.592-51.545,5.617-73.549-0.196c3.022-8.765,5.185-6.76,2.773-15.428c8.67-4.181,18.176-6.007,27.093-9.523
	c2.116-0.572,2.859-2.654,2.859-4.642c-0.794-0.179-2.372-0.546-3.166-0.725c1.886-1.545,4.13-2.722,6.545-3.166
	c1.988-0.034,3.729,1.57,5.751,1.306c2.082-1.289,1.758-4.105,1.681-6.195c-0.358-3.49-0.282-7.108-1.493-10.445
	c-0.427-1.442-1.877-1.997-3.021-2.722c1.323-5.103-3.669-8.235-6.716-11.392c-1.792-1.451-3.533-4.139-6.178-3.328
	c-1.51,1.186-1.655,3.294-2.278,4.983c-1.072-0.116-1.992-0.465-2.824-0.95c-2.174-3.597-7.707-11.472-16.048-14.58
	c-8.891-3.311-4.073,12.373-0.658,21.222c-4.546,2.114-14.279,7.227-14.424,7.781c-3.533-0.077-8.448,1.34-10.803-2.074
	c-2.65-7.627,2.954-13.878-1.041-25.805c4.966,0.179,9.677-2.449,12.484-6.477c1.801-2.756,1.502-6.17,0.853-9.233
	c4.685-4.284,11.358-4.804,16.418-8.448c2.901-1.937,6.332-2.79,9.481-4.224c9.052-3.897,10.531-6.427,17.313-4.265
	c1.124,0.358,2.346-0.117,2.934-1.14c6.653-4.44,48.848-18.721,59.139-21.953c3.296-0.793,3.286-4.935,5.538-6.93L1374.24,425.99
	c2.773,1.364,10.106,5.297,16.146,11.412c0.49,7.976,3.966,16.618,10.371,23.578c0.878-8.152-0.243-15.732-8.823-24.565
	c-0.159-5.846,1.329-12.494,5.959-19.48l205.646-78.73c1.632,0.788,6.601,3.38,10.674,7.504c0.315,5.141,2.546,10.765,6.738,15.32
	c0.573-5.294-0.16-10.225-5.733-15.962c-0.104-3.859,0.898-8.254,4.019-12.871l182.766-69.971c1.352,0.681,4.416,2.383,6.964,4.963
	c0.216,3.53,1.752,7.36,4.599,10.457c0.39-3.597-0.1-6.97-3.913-10.895c-0.068-2.529,0.564-5.397,2.5-8.411l186.609-71.442
	c1.085,0.578,2.988,1.72,4.601,3.354c0.154,2.495,1.234,5.239,3.286,7.468c0.278-2.567-0.069-4.977-2.796-7.784
	c-0.045-1.683,0.352-3.578,1.523-5.57l187.287-71.702l-0.119,0.272c0.031,0.013,1.807,0.801,3.206,2.218
	c0.091,1.473,0.732,3.077,1.923,4.372c0.149-1.377,0.037-2.819-1.612-4.532c-0.045-1.243,0.302-2.677,1.46-4.164l-0.022-0.017
	l160.549-61.465l-1278.057,480.05c-0.021-0.584-2.483-1.645-3.721-2.13c-10.838-2.187,9.98-4.787-66.5,22.716
	c-2.517,0.691-3.285,3.703-5.7,4.497c-5.265,1.877-10.735,3.2-15.855,5.47c-2.876,1.314-6.05,1.51-9.088,2.185
	c-7.023,2.193-13.577,5.871-20.779,7.458c-1.92-0.905-3.303-2.62-5.197-3.541c-2.543-1.271-5.248-2.15-7.799-3.354
	c-4.07-1.792-7.876-4.403-12.373-4.966c-5.214-0.725-10.479-0.956-15.659-1.886c-6.656-1.519-13.32,1.69-19.985,0.196
	c-4.062-0.879-8.201,0.444-12.245-0.29c-1.382-1.775-1.818-4.045-2.91-5.965c-1.417-2.483-3.379-4.582-4.873-7.006
	c-1.638-2.654-0.947-5.897-1.331-8.84c-0.649-5.154-1.638-10.257-2.466-15.386c-0.546-3.268,0.188-6.562,0.128-9.839
	c-0.179-5.794-0.316-11.631-1.399-17.34c-1.135-5.675-4.574-10.82-4.412-16.751c0.473-14.406-2.267-36.508-9.958-47.232
	c-1.417-2.065-3.268-4.036-3.482-6.656c-0.367-1.109-0.145-2.5-0.99-3.379c-2.901-1.741-6.391-2.44-8.986-4.693
	c-2.874-7.064,2.826-8.819-9.865-17.664c6.955-6.349,13.474-13.688,22.161-17.732c4.267-2.389,9.088,0.614,13.525-0.939
	c13.976-4.285,8.755-13.745,9.788-20.13c0.759-3.379,3.934-5.265,5.632-8.081c0.836-3.388-1.98-5.675-4.087-7.748
	c-0.77-4.052,6.352-3.616,5.393-9.975c-0.614-2.85-1.51-5.615-2.381-8.388c4.429-1.562,9.344-4.471,10.129-9.523
	c0.717-6.238-4.122-10.803-6.613-15.991c-1.655-3.43-3.738-6.648-5.257-10.138c-0.879-4.258,1.289-8.38,3.9-11.597
	c2.147-16.065-4.829-14.15-7.612-24.508c3.695-2.5,7.782-4.506,11-7.654c3.618-3.516,7.305-7.057,9.873-11.443
	c1.732-2.551,2.867-5.564,5.111-7.731c4.224-2.586,9.515-3.661,12.766-7.671c1.536-1.357,1.024-3.524,0.76-5.291
	c-4.847-0.555-9.515,1.058-14.2,1.963c-11.58,2.236-23.1,4.753-34.594,7.356c-2.79-2.739-7.347-3.012-9.429-6.528
	c-2.227-3.49-5.905-5.521-9.114-7.97c-6.997-4.881-13.662-10.641-22.101-12.877c-15.988-5.556-37.855,6.717-52.693,13.218
	c-2.569-0.521-5.316-1.766-7.672,0.128c-2.859,0.836-2.15,4.07-3.311,6.127c-16.139,8.704-19.038,15.833-24.269,30.302
	c-1.442,2.884-0.691,6.144-1.212,9.207c-0.776,4.779-0.853,9.634-1.408,14.438c-0.401,5.12,1.707,9.899,4.036,14.31
	c0.614,3.174-3.951,3.012-4.787,5.504c-0.478,1.493-0.87,3.021-1.246,4.548c1.041,0.853,1.826,1.98,2.876,2.842
	c-3.004,5.683,2.295,11.008,5.786,15.01c-0.998,1.911-2.355,3.883-2.074,6.144c0.529,5.18,2.577,10.061,5.018,14.609
	c2.406,5.171,1.246,10.974,0.546,16.375c-2.381,0.222-5.094,0.085-7.04,1.673c-3.516,3.866-2.594,9.771-5.692,13.867
	c-1.229,1.579-2.517,3.174-4.19,4.301c-1.664,1.067-3.934,0.879-5.41,2.253c-1.86,2.492-1.894,6.383-5.094,7.782
	c-5.359,2.671-9.847,6.656-14.771,10.01c-10.672,9.124-21.016,13.878-31.42,36.019c-10.564,17.792-15.155,38.332-18.321,58.564
	c-2.116,8.081-2.62,16.486-2.807,24.806c0.307,7.441-1.664,14.729-1.69,22.153c0,5.871-1.348,11.605-2.423,17.34
	c-1.937,16.077-3.004,32.503,0.017,48.521c2.094,14.231,5.843,22.163,5.47,28.058c-0.239,7.117-1.143,14.208-1.186,21.342
	c-0.134,24.217-3.736,17.806,2.424,39.313c-3.132,1.306-6.494,2.057-9.489,3.669c-5.274,3.703-5.18,11.998-0.486,16.128
	c2.97,1.758,6.63,1.323,9.95,1.741c-3.285,3.951-9.011,4.19-13.346,6.485c-3.473,1.596-4.25,5.683-5.53,8.9
	c-2.074-0.887-4.855-1.843-6.596,0.196c-3.029,2.099-0.179,5.811-0.461,8.704c-0.717,5.914-0.393,11.921-1.297,17.826
	c-0.162,1.493-1.613,2.176-2.671,2.978c1.34,5.393,1.169,11.034,2.5,16.435c1.22,5.035,0.879,10.803,4.224,15.061
	c-2.432,0.401-4.745,1.297-7.151,1.775c-5.103,0.401-10.283-0.358-15.334,0.64c-1.937,0.273-3.934,0.725-5.879,0.324
	c-2.825-2.338-5.231-5.956-9.429-5.316c-4.284-1.05-6.673,2.961-8.644,5.965c-1.801,0.077-3.669-0.162-5.393,0.461
	c-0.171,0.819-0.154,1.672-0.23,2.517c-4.582,0.222-9.293-1.118-13.705,0.546c-3.482-1.092-7.125-1.357-10.718-0.623
	c0.768-2.005,1.783-3.891,2.714-5.811c-7.791,1.621-15.753,2.509-23.697,1.707c-6.775,1.741-13.696,2.944-20.463,4.762
	c-10.078,2.662-20.736,2.807-30.916,0.666c-2.423-0.58-4.855,0.068-7.236,0.478c-5.214,1.109-10.778,0.486-15.71,2.833
	c-14.882,6.332-32.043,6.528-47.275,1.289c-3.601-1.69-7.339,0.341-11.008,0.649c-2.85,2.193-6.665,1.997-10.044,2.594
	c-9.463,0.649-18.526,4.267-28.092,3.925c-10.155-0.333-20.634-1.852-29.611-6.895c-2.816-1.348-5.427-3.772-8.764-3.405
	c-4.983,0.205-9.941-0.367-14.865-0.998c-2.645-0.589-4.753,1.357-6.921,2.509c-5.743,3.439-12.271,5.146-18.722,6.707
	c-5.197,1.195-10.556,0.939-15.846,0.973c-7.91,0.094-15.496-2.517-22.912-4.966c-1.186,0.64-2.287,1.408-3.439,2.099
	c0.649-0.905,1.263-1.826,1.92-2.705c-3.797-1.852-7.245-4.318-10.974-6.272c-2.978-0.836-6.434,1.229-9.165-0.853
	c2.338-0.282,4.685-0.401,7.04-0.563c-0.358-0.751-0.785-1.451-1.28-2.099c-4.258,0.418-9.429-1.963-12.911,1.382
	c0.282-1.135,1.041-2.014,1.545-3.021c-3.183-0.41-6.34-1.135-9.566-1.058c-3.738,0.034-7.33-1.161-11.051-1.254
	c-2.978-0.171-5.922,0.35-8.858,0.717c-16.614,1.313-18.237-1.083-60.134,0.043c-1.911-0.119-3.823-0.29-5.709-0.649
	c-0.205-2.27-1.05-5.171-3.908-4.89c-2.876-0.742-4.13,1.92-5.359,3.908c-3.004,0.597-6.084,0.23-9.122,0.392
	c-4.898-0.06-9.796,1.92-14.635,0.427c-9.233,0.179-18.261,3.226-27.554,2.406c-5.009-0.623-9.933,0.905-14.942,0.742
	c-8.533-0.196-17.058,0.384-25.574,0.649c-8.004-0.623-15.94,0.811-23.919,1.161v632.661h2560v-93.884
	C2558.601,1321.424,2558.601,1320.912,2560,1320.392z M1019.588,629.328c-0.009,1.092-0.009,2.202-0.009,3.311
	c0.956-0.239,1.92-0.461,2.901-0.683c-0.469,0.973-0.486,2.398-1.681,2.807c-1.596-1.528-2.867-3.354-3.789-5.342
	C1017.856,629.593,1018.735,629.507,1019.588,629.328z M1012.89,616.067c2.236,0.794,4.036,2.466,5.094,4.599
	c-1.613-0.802-2.961-1.98-4.48-2.876c-0.102,1.835,1.843,2.68,2.039,4.429C1013.436,621.017,1011.328,618.534,1012.89,616.067z
	 M985.025,600.007c8.027,2.99,13.397,10.569,15.553,14.115c-0.108,0.18-0.231,0.35-0.369,0.506c0.378,0.755,0.669,1.56,0.82,2.446
	c-2.688,1.101-5.274-0.051-7.816-0.87c-2.58,0.249-4.822,1.846-7.257,2.68c-0.237,0.199-0.503,0.359-0.781,0.495
	C982.407,612.045,977.571,597.226,985.025,600.007z M1399.385,456.795c-2.17-2.865-6.248-9.205-7.243-17.498
	C1396.298,444.051,1399.461,449.933,1399.385,456.795z M1620.059,358.31c-1.411-1.861-4.06-5.982-4.707-11.37
	C1618.052,350.029,1620.108,353.852,1620.059,358.31z M1812.956,275.79c-0.963-1.27-2.771-4.083-3.213-7.76
	C1811.587,270.138,1812.989,272.747,1812.956,275.79z M2006.212,196.394c-0.688-0.908-1.979-2.915-2.295-5.541
	C2005.233,192.359,2006.235,194.223,2006.212,196.394z M2197.417,118.743c-0.391-0.53-1.12-1.693-1.314-3.203
	C2196.857,116.414,2197.427,117.49,2197.417,118.743z M1390.325,434.843c-5.067-4.744-10.69-8.013-13.915-9.682l18.85-7.216
	C1391.765,423.909,1390.412,429.641,1390.325,434.843z M1614.172,344.046c-3.392-3.176-7.16-5.329-9.219-6.381l12.544-4.802
	C1615.136,336.812,1614.229,340.607,1614.172,344.046z M1808.938,266.054c-2.153-2.016-4.527-3.427-5.981-4.193l8.045-3.08
	C1809.546,261.346,1808.975,263.811,1808.938,266.054z M2003.341,189.439c-1.368-1.281-2.862-2.22-3.907-2.798l5.156-1.974
	C2003.721,186.346,2003.365,187.961,2003.341,189.439z M2195.736,114.679c-1.337-1.251-2.873-1.946-3.05-2.023l4.319-1.654
	C2196.095,112.303,2195.755,113.557,2195.736,114.679z M977.101,626.504c-2.091,1.57-4.531,2.56-6.997,3.328
	C971.733,627.622,974.481,626.794,977.101,626.504z M900.651,992.729c-2.918,1.331-5.606,3.456-8.951,3.465
	c-3.763,0.051-6.963,3.669-10.769,2.219c-3.78-1.331-7.603,0.503-11.443,0.384c-2.133-0.205-4.079,0.657-5.845,1.741
	c-2.79-0.998-4.659-3.951-7.748-3.994c-3.951-0.64-7.441-2.85-10.658-5.112c-3.089-0.742-6.332-0.597-9.344-1.681
	c-3.405-0.913-7.697-2.338-10.667,0.324c-3.2,2.227-7.262,3.226-9.796,6.357c-1.545,2.116-4.105,2.953-6.596,3.243
	c-3.831-1.126-7.637-2.458-11.187-4.292c-4.19-2.022-8.926-0.307-13.227-1.732c-2.552,1.246-4.693,3.174-6.938,4.89
	c-4.25-3.115-9.114-5.547-14.43-6.008c0.478-7.646-2.825-14.814-4.727-22.05c-1.075-4.864,0.145-10.863-4.07-14.49
	c-10.405-3.551-10.372-6.484-19.746-19.584c2.901,0.785,5.163,2.842,7.808,4.156c3.652,1.075,6.477,3.729,9.702,5.632
	c1.826,1.109,4.019,1.493,5.803,2.722c1.886,1.229,3.14,3.157,4.497,4.915c1.109,1.442,2.901,2.176,4.045,3.61
	c0.922,1.485,1.766,3.021,2.739,4.497c-0.256,0.751-0.529,1.502-0.836,2.253c1.442-0.307,3.055-1.408,4.454-0.358
	c2.679,1.749,5.683,2.867,8.866,3.328c1.212-1.126,2.406-2.449,4.07-2.876c3.878-0.941,8.439,1.389,12.928-13.705
	c1.34-4.898,5.487-8.124,8.926-11.554c1.886-1.801,2.475-4.42,3.601-6.673c1.894-2.099,4.565-3.328,6.323-5.572
	c1.425-1.092,0.469-2.927,0.341-4.369c-0.213-1.775-1.109-3.302-1.92-4.83c-1.51-3.482,1.493-7.339-0.546-10.667
	c-0.717-2.423,0.964-4.796,0.981-7.228c-0.623-2.253-1.434-4.48-2.654-6.46c-1.024-2.33-4.258-0.853-5.862-2.5
	c0.888,0.085,1.792,0.162,2.697,0.23c3.874-4.292,5.427-10.402,4.949-16.085c0.051-1.109-0.802-1.894-1.314-2.748
	c1.928-2.406,3.695-5.658,7.211-5.675c0.785-2.039-0.853-3.789-1.271-5.683c4.019-1.084,6.605-4.514,9.967-6.699
	c1.545-1.34,3.234,0.375,4.668,1.041c3.115,1.98,6.699,2.961,10.103,4.352c7.014,3.021,14.293,5.41,21.589,7.697
	c0.667,9.704-2.68,15.398-0.341,42.658c2.097,22.575,12.268,42.045,23.006,61.457c3.704,6.281,6.758,12.979,11.068,18.884
	C900.463,990.834,902.033,992.217,900.651,992.729z M923.912,683.532c-3.669,2.466-7.748-0.503-11.622-0.452
	c-2.372-0.282-4.147,1.544-6.144,2.458c-2.765,0.282-5.547-0.026-8.286,0.495c-0.597-3.379-3.132-5.632-6.195-6.861
	c1.672-2.953,2.569-6.34,4.096-9.276c6.426-1.766,13.304-1.604,19.917-2.594c2.97-0.256,6.059-1.254,9.003-0.418
	c2.534,2.748,4.983,5.581,7.586,8.286C929.442,677.934,926.268,680.323,923.912,683.532z M930.628,626.854
	c-4.241-1.331-8.218-3.354-12.407-4.813c-7.057-1.527-14.532-2.978-20.173-7.842c-0.452-2.15,3.063-2.637,4.685-2.833
	c6.059,1.229,10.445,6.007,15.735,8.832c4.471,1.69,9.515,4.693,14.251,2.014c2.5-1.05,3.012-3.831,4.378-5.862
	c2.628-1.562,5.137-3.268,7.253-5.495c3.439-1.434,6.409-3.669,9.489-5.734c-0.051,1.775,0.205,3.712-0.674,5.35
	c-2.517,4.873-5.291,9.651-7.142,14.839C940.834,625.42,935.723,629.251,930.628,626.854z M949.692,626.538
	c-1.476-0.41-1.024-2.978,0.247-3.379C951.347,623.526,951.031,626.222,949.692,626.538z M1070.097,1002.67
	c-1.638,4.736-1.186,9.737-1.741,14.626c-2.568,0.026-5.137-0.085-7.688-0.282c-3.84-0.333-7.168,2.202-10.974,2.176
	c-2.005,0.375-3.866-0.631-5.606-1.425c-5.427-2.671-11.495-3.917-17.519-3.55c-9.02-2.381-18.33-3.533-27.665-3.2
	c-2.876-4.267-7.518-6.895-11.315-10.223c-1.195-2.782-3.243-5.274-3.507-8.363c-0.512-2.867-3.183-4.838-5.922-5.316
	c-2.432-0.777-5.299-0.196-7.416-1.775c-6.759-31.405-0.567-16.018-8.021-55.364c-2.696-9.011-4.386-18.304-7.731-27.11
	c-1.63-6.17-5.368-11.443-7.322-17.485c-2.859-6.195-4.139-12.928-6.391-19.337c-5.818-16.963-3.32-22.453-5.359-37.402
	c4.369,0.819,8.815,4.386,13.235,1.911c3.703-1.954,7.646-3.482,11.204-5.7c2.645-1.596,4.224-4.796,7.441-5.41
	c32.441-9.474,47.679-20.689,69.845-28.382c-2.106,31.929-6.424,33.973,9.677,91.085c1.434,6.63,4.139,12.919,5.205,19.644
	c1.075,6.571,4.25,12.518,5.649,19.012C1063.163,944.229,1076.67,981.358,1070.097,1002.67z"/>
</svg>
