<?xml version="1.0" encoding="utf-8"?>

<!DOCTYPE svg PUBLIC "-//W3C//DTD SVG 1.1//EN" "http://www.w3.org/Graphics/SVG/1.1/DTD/svg11.dtd">
<svg version="1.1" id="Layer_1" xmlns="http://www.w3.org/2000/svg" xmlns:xlink="http://www.w3.org/1999/xlink" x="0px" y="0px"
	 viewBox="0 0 797.067 1646.671" enable-background="new 0 0 797.067 1646.671" xml:space="preserve">
<g>
	<path d="M661.162,323.443c5.592-1.915,12.585-1.844,16.775-5.297c23.054-18.999,21.989,41.294,91.199-48.041
		c11.128-14.363-14.507-24.084-27.422-66.256c-0.633-2.066-1.441-5.263-5.453-3.942c-12.407,4.084-25.667,3.549-38.238,7.581
		c-27.633,8.863-27.77,8.435-48.781-12.339c-31.5-31.154-23.799-6.002-93.113-35.105c-18.37-7.713-39.042-9.253-55.585-22.009
		c-11.12-8.575-23.175-9.781-35.22-0.164c-8.019,6.403-20.713,5.02-33.106,49.084c-4.404,15.66-11.132,19.498-26.222,13.456
		c-6.15-2.462-9.525,2.992-8.676,4.689c2.304,4.607,0.376,10.235,3.502,14.614c3.654-2.686,3.657-8.066,10.045-8.511
		c-9.302,13.457,9.752,21.665,4.592,27.534c-7.551,8.59-11.407,20.031-22.349,26.15c-10.761,6.017-10.314,6.816-17.462-3.727
		c-6.763-9.976-13.693-12.833-24.798-9.454c-5.084,1.547-11.617,2.473-8.02,11.194c0.934,2.264-0.81,17.023-7.314,11.702
		c-12.684-10.377-22.204-1.001-39.501-9.577c-7.802-3.869-14.887-7.927-23.832-1.241c-3.886,2.905-10.656,1.453-14.691-2.298
		c-3.926-3.651,0.048-7.53,1.46-11.21c3.68-9.593,3-19.285-0.939-28.425c-8.481-19.683-24.75-8.075-33.582-12.998
		c1.908-3.21,3.317-6.784,5.743-9.421c20.524-22.307,8.934-43.452,10.487-65.771c0.879-12.625-5.851-25.227,1.938-38.122
		c4.104-6.795,0.208-10.441-7.817-9.406c-5.242,0.676-14.865-4.839-14.617-9.991c0.382-7.948-4.608-8.36-11.313-8.876
		c3.982-3.132,6.752-5.041,9.181-7.313c4.189-3.919-0.209-10.762-4.884-5.593c-4.809,5.318-11.942,3.89-17.757,6.287
		c-1.983,0.818-6.164,1.475-6.714-1.803c-0.731-4.355,1.566-3.814,21.414-5.946c0.062-0.934,0.124-1.867,0.186-2.801
		c-9.693-4.131-20.145-4.655-30.693-4.722c1.703-9.753,15.065-2.144,14.379-10.491c-0.328-3.988-13.932-4.497-22.141,2.602
		c-0.77,0.666-1.676,1.542-2.993,0.745c-0.836-2.974,3.984-4.554,2.12-7.766c-4.642-3.298-8.057,4.825-9.047,2.878
		c-4.223-8.307-20.362,1.337-26.699-8.934c-1.604-2.601-3.916,0.279-5.927,0.727c-14.454,3.216-23.844,15.489-37.238,20.677
		c-8.909,3.451-5.2,15.378-11.466,19.572c-7.054,4.721-15.993,8.973-15.472,17.454c1.092,17.761-12.855,25.29-14.811,35.059
		c-6.874,34.342-12.882,37.669-7.717,44.26c6.739,8.599-3.847,12.935-14.71,30.916c-11.251,18.626,17.009,8.4,13.444,28.89
		c-2.226,12.795,15.07,8.977,9.67,15.559c-5.707,6.956-2.824,12.255,2.016,17.723c1.355,1.531,0.659,3.38,0.377,5.298
		c-4.423,30.073,24.806,19.986,46.948,26.928c8.856,2.777,11.976,12.854,0.012,13.25c-2.226,0.073-3.573,2.131-6.254,1.699
		c-5.348-0.86-5.913,1.21-3.554,6.126c5.851,12.197,17.111,16.841,28.378,21.49c3.869,1.597,9.685-0.164,10.086,6.493
		c0.978,16.241-6.652,16.757-6.661,30.298c-0.009,14.23-7.058,26.445-11.167,39.503c-1.428,4.539-3.794,6.023-8.33,3.399
		c-2.262-1.309-15.042-1.429-15.844,3.991c-0.744,5.03,4.753,11.131,12.752,11.483c14.891,0.656,2.137,7.747-0.455,27.64
		c-3.271,25.1-15.811,43.954-17.52,54.062c-17.241,101.953-11.904,98.79,4.734,154.264c3.553,11.846,6.84,24.995,21.946,28.165
		c-0.449,4.18-0.399,2.675-32.05,19.19c-16.328,8.519-15.995,25.426-27.932,50.951c-13.235,28.3,19.645,26.224,10.711,45.537
		c-1.126,2.434-4.948,6.517-0.534,8.856c3.194,1.693,7.138,4.275,11.454,0.884c11.945-9.385,16.59,9.392,23.006-9.618
		c0.831-2.461,0.901-5.127,4.323-6.297c0,30.923-1.88,34.039,6.704,37.101c5.599,1.997,12.115,5.728,6.632,14.14
		c-1.542,2.366-0.22,5.254,0.394,7.725c5.446,21.899-1.839,64.74,6.245,96.363c2.651,10.37,8.659,20.122,7.408,31.468
		c-0.103,0.936,0.606,2.429,1.4,2.926c18.101,11.331,5.514,24.837,4.606,40.627c-1.171,20.373,4.857,40.108,4.926,60.298
		c0.084,24.857,20.527,24.728,22.423,43.471c1.909,18.87,15.958,4.406,22.185,17.459c4.222,8.849,10.75,16.642,12.685,26.501
		c0.479,2.443,1.283,3.893,3.192,2.933c3.388-1.703,6.794,0.285,10.632-1.75c8.13-4.311,25.967,3.209,28.301,11.351
		c5.923,20.661,19.796,36.414,32.158,53.047c17.497,23.542,22.347,104.315,35.508,174.574c12.928,69.017,6.995,70.279,0.602,72.144
		c-10.261,2.993-16.053,10.129-16.666,21.056c-12.4-4.289-14.418-8.918-21.462-4.703c-4.916,2.941-2.632,8.084-2.845,12.397
		c-0.055,1.115-0.123,2.444,0.397,3.337c8.957,15.403-18.873,6.732-19.585,26.897c-0.586,16.608-37.079,16.217-51.182,13.43
		c-24.864-4.915-48.22-3.071-51.468,22.047c-4.293,33.203,12.002,39.649,37.693,39.657c0.003,0,213.181-7.43,213.182-7.43
		c71.816-7.109,19.808-94.166,10.797-97.092c-5.77-1.874-9.003,0.793-11.197-7.66c-3.803-14.647,0.395-29.179,0.489-43.757
		c0.181-28.039-2.496-56.303,4.793-83.963c0.952-3.612,2.063-7.322,2.127-11.005c1.808-102.806-3.908-103.029-27.409-171.588
		c-6.721-19.608,11.091-29.118-2.296-51.096c-5.472-8.984-0.504-19.719,2.493-29.192c3.55-11.218-12.291-151.223-12.423-153.485
		c-0.427-7.316-5.696-13.478-3.408-21.265c11.425-38.895,3.19-50.468,9.768-63.759c21.198-42.835-4.319-45.594,33.143-39.039
		c2.262,0.396,30.99,22.04,70.173-10.645l-0.153,0.137c0.894-0.152,1.801-0.978,2.67,0.056l-0.092-0.239
		c4.435-5.936,11.854-9.569,13.617-17.552c0.686-3.106,23.605-10.723,25.867-11.354c13.853-3.862,25.964-11.756,32.817-23.186
		c8.78-14.644,20.319-28.472,22.839-46.389c0.353-2.512,2.247-5.069,4.273-3.399c6.317,5.208,10.281,1.779,15.382-2.101
		c5.889-4.479,16.234,7.013,18.984,11.719c4.82,8.246,12.993,2.095,13.226-3.87c0.362-9.229-1.439-15.163,8.497-13.197
		c57.934,11.462,75.346-13.946,84.859-18.089c20.023-8.719,32.634-52.405,31.222-73.725c-0.243-3.676-1.083-7.712,1.047-11.078
		c11.295-17.837,1.959-38.383,7.628-56.931c-8.13-20.762,9.956-104.739-71.182-133.511c-4.145-1.47-8.012-1.945-7.464-8.695
		c0.601-7.407-13.823-16.2-19.075-11.953c-10.875,8.794-14.528-0.076-27.811-14.426c-3.589-3.878-1.932-16.299,11.458-23.917
		c16.036-9.123,1.578-10.656,5.045-17.272c3.985,0.289,3.884,6.688,8.776,5.758c2.108-4.084-1.055-7.176-2.741-10.11
		c-4.407-7.668-2.414-14.02,1.355-21.41C652.705,321.507,657.364,324.743,661.162,323.443z M267.671,799.405
		c-0.631,2.967-2.334,3.255-4.711,1.908c-0.137-0.078-0.352-0.027-0.48-0.112c-2.501-1.676-5.427-3.623-5.755-6.469
		c-0.316-2.74,3.249-3.215,5.357-4.351c2.599-1.4,5.248-2.707,7.831-4.135c1.057-0.585,2.023-1.153,3.415-0.182
		C270.7,790.172,268.695,794.592,267.671,799.405z M360.593,594.202c-0.991,0.341-1.895-0.192-2.649-0.971
		c-2.267-2.339-4.579-4.635-7.695-7.776c6.915,0,12.647,0.008,18.379-0.004c2.436-0.005,5.465,0.546,5.371,3.013
		c-0.077,2.022-2.436,4.406-5.08,4.708C366.142,593.491,363.318,593.264,360.593,594.202z M375.018,618.768
		c-1.154-2.35-2.245-4.561-3.326-6.777c-0.385-0.79-1.558-1.442-0.469-2.509c1.198-1.173,2.708-1.024,4.197-1.01
		c1.142,0.011,1.835,0.422,1.967,1.667C377.712,613.196,377.136,615.999,375.018,618.768z M422.844,829.12
		c-5.291,3.749-11.482,3.62-17.65,3.157c-1.112-0.083-2.1-0.577-2.496-1.385c-2.456-5.013-7.206-6.797-11.874-8.749
		c-0.602-0.252-1.197-0.587-1.692-1.005c-0.548-0.462-0.623-1.184-0.404-1.828c0.263-0.772,0.863-0.744,1.583-0.557
		c7.476,1.943,14.998,3.055,22.807,3.031c6.536-0.02,12.898-0.727,19.729-1.197C429.528,823.454,426.406,826.597,422.844,829.12z
		 M497.787,649.067c-2.039,1.102-3.822-0.063-5.391-1.441c-1.208-1.061-2.13-1.912-0.302-3.469c1.037-0.883,1.409-2.467,1.55-4.056
		c0.314-3.541,1.216-3.867,4.211-1.959c1.598,1.018,2.615,2.493,3.623,4.447C499.384,644.185,500.374,647.67,497.787,649.067z
		 M504.003,644.945c-0.1-0.243-0.23-0.481-0.281-0.734c-0.017-0.083,0.172-0.208,0.266-0.314c0.103,0.245,0.206,0.491,0.31,0.736
		C504.198,644.737,504.101,644.841,504.003,644.945z M499.669,613.714c-3.319-7.508-3.224-7.934,4.468-10.172
		c-3.704,4.01-3.696,4.033,1.481,5.878C503.267,610.546,501.096,611.464,499.669,613.714z"/>
	<path d="M299.089,481.502C298.938,481.496,299.004,481.189,299.089,481.502L299.089,481.502z"/>
	<path d="M430.552,827.305c-0.355,0.143-0.706,0.492-1.072,0.02l-0.068,0.06c0.393,0.008,0.787,0.016,1.18,0.025L430.552,827.305z"
		/>
</g>
</svg>
