<?xml version="1.0" encoding="UTF-8" standalone="no"?>
<!-- Created with Inkscape (http://www.inkscape.org/) -->

<svg
   xmlns:dc="http://purl.org/dc/elements/1.1/"
   xmlns:cc="http://creativecommons.org/ns#"
   xmlns:rdf="http://www.w3.org/1999/02/22-rdf-syntax-ns#"
   xmlns:svg="http://www.w3.org/2000/svg"
   xmlns="http://www.w3.org/2000/svg"
   xmlns:sodipodi="http://sodipodi.sourceforge.net/DTD/sodipodi-0.dtd"
   xmlns:inkscape="http://www.inkscape.org/namespaces/inkscape"
   width="58.493191mm"
   height="75.793503mm"
   viewBox="0 0 58.493191 75.793503"
   version="1.1"
   id="svg1984"
   inkscape:version="0.92.3 (2405546, 2018-03-11)"
   sodipodi:docname="Kung Fu Pose.svg">
  <title
     id="title2542">Kung Fu Pose</title>
  <defs
     id="defs1978" />
  <sodipodi:namedview
     id="base"
     pagecolor="#ffffff"
     bordercolor="#666666"
     borderopacity="1.0"
     inkscape:pageopacity="0.0"
     inkscape:pageshadow="2"
     inkscape:zoom="0.35"
     inkscape:cx="-211.0145"
     inkscape:cy="340.43302"
     inkscape:document-units="mm"
     inkscape:current-layer="layer1"
     showgrid="false"
     fit-margin-top="0"
     fit-margin-left="0"
     fit-margin-right="0"
     fit-margin-bottom="0"
     inkscape:window-width="1920"
     inkscape:window-height="986"
     inkscape:window-x="1589"
     inkscape:window-y="-11"
     inkscape:window-maximized="1" />
  <metadata
     id="metadata1981">
    <rdf:RDF>
      <cc:Work
         rdf:about="">
        <dc:format>image/svg+xml</dc:format>
        <dc:type
           rdf:resource="http://purl.org/dc/dcmitype/StillImage" />
        <dc:title>Kung Fu Pose</dc:title>
        <cc:license
           rdf:resource="http://creativecommons.org/publicdomain/zero/1.0/" />
        <dc:subject>
          <rdf:Bag>
            <rdf:li>Kung fu</rdf:li>
            <rdf:li>kungfu</rdf:li>
            <rdf:li>martial arts</rdf:li>
            <rdf:li>stances</rdf:li>
            <rdf:li>silhouette</rdf:li>
            <rdf:li>wushu</rdf:li>
            <rdf:li>shaolin</rdf:li>
            <rdf:li>action</rdf:li>
            <rdf:li>active</rdf:li>
            <rdf:li>concentration</rdf:li>
            <rdf:li>culture</rdf:li>
            <rdf:li>exercise</rdf:li>
            <rdf:li>body</rdf:li>
            <rdf:li>pose</rdf:li>
            <rdf:li>attacking</rdf:li>
            <rdf:li>defending</rdf:li>
            <rdf:li>asian</rdf:li>
            <rdf:li>shallow</rdf:li>
            <rdf:li>standing</rdf:li>
            <rdf:li>squat</rdf:li>
            <rdf:li>sign</rdf:li>
            <rdf:li>sport</rdf:li>
          </rdf:Bag>
        </dc:subject>
      </cc:Work>
      <cc:License
         rdf:about="http://creativecommons.org/publicdomain/zero/1.0/">
        <cc:permits
           rdf:resource="http://creativecommons.org/ns#Reproduction" />
        <cc:permits
           rdf:resource="http://creativecommons.org/ns#Distribution" />
        <cc:permits
           rdf:resource="http://creativecommons.org/ns#DerivativeWorks" />
      </cc:License>
    </rdf:RDF>
  </metadata>
  <g
     inkscape:label="Layer 1"
     inkscape:groupmode="layer"
     id="layer1"
     transform="translate(-22.19104,-163.11273)">
    <path
       style="fill:#000000;stroke-width:1"
       d="m 53.246577,238.88011 c -0.746908,-0.1033 -1.274528,-0.38029 -2.133979,-1.12031 -0.249721,-0.21502 -0.689002,-0.55899 -0.976181,-0.76439 -0.683024,-0.48851 -0.887004,-0.68077 -0.97965,-0.92336 -0.172668,-0.45213 0.05251,-1.06632 0.574511,-1.56703 l 0.318971,-0.30595 -0.01378,-0.67397 -0.01378,-0.67396 -0.401027,-1.27131 c -1.271879,-4.03203 -1.977046,-6.97181 -2.16187,-9.01265 -0.06054,-0.66849 -0.06121,-2.09592 -0.0012,-2.57446 0.11585,-0.92393 0.385982,-1.56932 1.020944,-2.4392 0.463402,-0.63485 0.567199,-0.81838 0.567199,-1.00292 0,-0.18891 -0.08157,-0.29085 -0.453131,-0.5663 -0.373843,-0.27714 -0.379149,-0.30026 -0.182522,-0.79524 0.157284,-0.39594 0.170468,-0.63212 0.0641,-1.14836 -0.150612,-0.73099 -0.556516,-1.78541 -0.706555,-1.83542 -0.03047,-0.0102 -0.133248,0.002 -0.228386,0.0277 -0.283857,0.0758 -0.285485,0.0681 -0.220176,-1.03479 0.03179,-0.53678 0.04483,-1.02763 0.02898,-1.09077 -0.02027,-0.0807 -0.07242,-0.12604 -0.175798,-0.15268 -0.192013,-0.0495 -0.203123,-0.14258 -0.07493,-0.62783 0.140591,-0.5322 0.11923,-0.55098 -0.457986,-0.40269 -0.53852,0.13834 -0.697742,0.14135 -0.823562,0.0155 -0.0897,-0.0897 -0.09498,-0.12862 -0.06927,-0.51079 0.01574,-0.23386 0.09452,-0.67237 0.181237,-1.00879 0.173862,-0.67445 0.187293,-0.58684 -0.181994,-1.187 l -0.202548,-0.32918 h -0.463715 -0.463714 l -0.244197,-0.24727 c -0.134308,-0.13599 -0.297065,-0.26791 -0.36168,-0.29313 -0.06462,-0.0252 -0.617922,-0.15049 -1.229571,-0.27836 -0.61165,-0.12787 -1.122442,-0.24295 -1.135096,-0.25573 -0.109084,-0.11021 0.176826,-3.06406 0.414266,-4.27993 0.266046,-1.36236 0.604892,-2.28972 1.492285,-4.08414 0.526892,-1.06544 0.590338,-1.21898 0.590199,-1.42822 -1.72e-4,-0.26199 -0.08013,-1.22348 -0.11472,-1.37943 -0.01512,-0.0682 -0.150592,-0.17623 -0.419117,-0.33437 -1.007855,-0.59353 -1.7983,-1.18805 -2.168275,-1.63081 -0.481468,-0.57618 -0.753292,-1.26725 -0.950329,-2.41606 -0.03732,-0.21757 -0.129749,-1.06549 -0.205404,-1.88425 -0.307003,-3.32254 -0.539045,-4.52614 -1.069596,-5.54797 -0.453804,-0.87402 -0.736038,-1.15524 -3.202014,-3.19052 -1.073365,-0.8859 -1.285444,-1.10798 -1.845743,-1.93279 -0.507537,-0.74713 -0.660646,-1.17636 -0.720832,-2.02078 -0.01735,-0.24348 -0.04774,-0.44268 -0.06752,-0.44268 -0.01978,0 -0.05991,-0.11749 -0.08918,-0.26108 -0.04557,-0.22354 -0.08699,-0.29371 -0.288126,-0.48809 -0.139476,-0.13479 -0.492692,-0.37308 -0.86943,-0.58655 -1.186859,-0.67252 -1.76531,-1.08279 -2.337506,-1.65791 -0.737497,-0.74128 -0.934308,-1.01333 -2.645052,-3.65625 l -0.397911,-0.61473 h -0.180988 c -0.118588,0 -0.211358,0.0304 -0.269079,0.0881 -0.21031,0.21031 -1.167381,1.71791 -1.521934,2.39738 -0.225638,0.43242 -0.460456,0.64739 -0.707157,0.64739 -0.369371,0 -0.694037,-0.21232 -1.094444,-0.71571 -0.336614,-0.4232 -0.549635,-0.80944 -0.682037,-1.23665 -0.08842,-0.2853 -0.105537,-0.43995 -0.105537,-0.95348 0,-1.2473 0.29939,-1.7121 1.641644,-2.54867 1.427311,-0.88958 2.007055,-1.07359 2.763686,-0.87718 0.822172,0.21342 1.418815,0.63877 5.991489,4.27132 2.055133,1.6326 2.839934,2.20507 3.836621,2.79861 1.249704,0.74421 2.092941,1.07349 3.564199,1.3918 2.075668,0.44908 2.332595,0.52818 3.70041,1.13923 0.461982,0.20639 1.013639,0.43781 1.225902,0.51428 0.368206,0.13265 0.419298,0.13915 1.112393,0.14146 0.466935,0.002 0.757783,-0.0161 0.814138,-0.0494 0.04822,-0.0285 0.255894,-0.36562 0.46149,-0.74916 0.377603,-0.70443 0.396621,-0.72536 0.60863,-0.6698 0.05765,0.0151 0.06707,-0.0553 0.06136,-0.45889 -0.0088,-0.62351 -0.07381,-0.85509 -0.558454,-1.98977 -0.520845,-1.21945 -0.562543,-1.36553 -0.5596,-1.96036 0.0054,-1.09251 0.644241,-2.70605 1.450255,-3.66298 0.278721,-0.33091 0.689847,-0.62846 1.218268,-0.88173 1.384567,-0.6636 2.830179,-0.68792 4.052927,-0.0682 0.891709,0.45195 1.776413,1.32941 2.203793,2.18574 0.325303,0.6518 0.44034,1.26808 0.44034,2.35899 v 0.63798 l 0.345812,0.33939 c 0.190195,0.18666 0.435375,0.45912 0.544845,0.60546 0.340636,0.45535 0.249311,0.62937 -0.369379,0.70386 -0.161154,0.0194 -0.306425,0.0487 -0.322822,0.0651 -0.01639,0.0164 -0.0064,0.1464 0.02222,0.28889 0.04843,0.24113 0.04526,0.26629 -0.04572,0.36313 -0.08691,0.0925 -0.08944,0.10724 -0.02284,0.1328 0.102843,0.0395 0.09418,0.0965 -0.0386,0.25432 -0.14105,0.16763 -0.147024,0.37309 -0.02256,0.77606 0.208944,0.67649 0.202363,0.97836 -0.02654,1.21729 -0.219833,0.22945 -0.68117,0.33101 -1.829459,0.40273 -0.771603,0.0482 -0.732916,0.0327 -1.061761,0.425 l -0.183276,0.21864 0.208939,0.2127 c 0.247249,0.25169 0.34934,0.47348 0.34934,0.75893 v 0.20861 l 0.283773,0.1282 c 0.593645,0.26819 1.024306,0.28403 1.977228,0.0727 0.993946,-0.22039 1.300458,-0.19902 1.968036,0.13716 0.315088,0.15868 0.339633,0.16367 0.658149,0.13382 0.247914,-0.0232 0.395477,-0.0122 0.588625,0.0439 0.298298,0.0867 0.305109,0.0908 1.085038,0.65085 0.637913,0.45807 1.420507,0.86905 1.871684,0.98293 0.935551,0.23614 2.410965,0.2681 5.029692,0.10896 0.894173,-0.0543 2.135173,-0.098 2.837738,-0.0999 1.22055,-0.003 1.269009,2.3e-4 2.15668,0.15163 0.834285,0.1423 0.98371,0.15478 1.838853,0.15347 0.78185,-0.001 1.054281,-0.0209 1.702644,-0.12293 1.493186,-0.23507 1.842031,-0.31147 1.912375,-0.41883 0.08057,-0.12297 0.756641,-2.80092 0.853805,-3.38198 0.03979,-0.23795 0.102563,-0.74874 0.139494,-1.1351 0.126959,-1.32812 0.232259,-1.5803 0.707273,-1.69383 0.08422,-0.0201 0.152557,-0.0985 0.244687,-0.28058 0.07031,-0.13896 0.165851,-0.273 0.212321,-0.29787 0.252237,-0.13499 0.528536,0.36872 0.627654,1.14425 0.16555,1.29532 0.279209,4.48902 0.186491,5.24028 -0.1378,1.11654 -0.517136,1.62879 -1.519079,2.05136 -0.201353,0.0849 -0.534704,0.19371 -0.740782,0.24176 -0.270407,0.063 -0.592942,0.19878 -1.158932,0.48772 -0.638573,0.32599 -0.990883,0.46901 -1.896643,0.76996 -1.721976,0.57213 -2.583081,0.76528 -4.001878,0.89761 -1.930928,0.18009 -4.118497,0.44826 -4.176905,0.51203 -0.01617,0.0176 -0.135544,0.36919 -0.265303,0.78123 -0.402749,1.27889 -0.717521,1.80774 -1.230765,2.06782 -0.516459,0.26171 -0.50692,0.26112 -4.567481,0.281 l -3.731355,0.0183 -0.04836,0.22547 c -0.06872,0.32042 -0.182179,0.5159 -0.521317,0.89815 -0.375947,0.42375 -0.393648,0.50672 -0.234474,1.09905 0.228528,0.85041 0.195261,1.5143 -0.108396,2.1632 -0.174792,0.37352 -0.558598,0.7568 -1.168832,1.16721 -0.494167,0.33236 -0.522178,0.3863 -0.270542,0.52097 0.09612,0.0514 0.145679,0.0495 0.32943,-0.0131 0.307811,-0.10488 0.500788,-0.095 0.62799,0.0322 l 0.105918,0.10591 0.05553,-0.24813 c 0.103631,-0.46307 0.581492,-0.83937 1.510444,-1.18944 0.804901,-0.30331 1.194642,-0.37848 1.808212,-0.34875 l 0.525397,0.0255 1.063734,-0.69344 c 1.366741,-0.89097 1.876154,-1.19549 2.63017,-1.57231 1.128402,-0.56392 1.955438,-0.80723 2.8835,-0.84834 1.042017,-0.0462 1.693876,0.16108 2.251465,0.71576 0.672454,0.66894 1.018543,1.56854 1.353075,3.51711 0.501689,2.92221 0.715023,5.90874 0.865877,12.12172 0.02547,1.04883 0.05517,2.12534 0.066,2.39224 0.01375,0.33862 0.0035,0.49845 -0.03375,0.52888 -0.0294,0.024 -0.633229,0.10861 -1.341856,0.18807 -0.708622,0.0794 -1.316464,0.15522 -1.350763,0.16837 -0.04602,0.0177 -0.06236,0.12377 -0.06236,0.40501 0,0.20959 0.0051,0.38168 0.01134,0.38243 0.0062,6.8e-4 0.154372,0.0488 0.329177,0.10673 l 0.317826,0.10538 -0.01273,0.48953 c -0.01627,0.62552 0.03634,0.92233 0.508572,2.86948 0.493222,2.03371 0.585497,2.48878 0.55014,2.71308 -0.04294,0.2724 -0.156574,0.4736 -0.33655,0.59589 -0.416949,0.28333 -0.820333,0.0661 -2.179818,-1.17384 -1.188287,-1.08379 -3.090814,-3.27941 -4.264575,-4.92152 -0.529445,-0.74071 -0.72399,-1.10713 -0.762703,-1.43652 -0.05658,-0.48136 0.05609,-0.69774 0.593159,-1.13916 0.211488,-0.17382 0.215497,-0.18186 0.181153,-0.36323 -0.01931,-0.10201 -0.03526,-0.29183 -0.03544,-0.42183 -5.15e-4,-0.28125 0.127516,-0.49581 0.696936,-1.1692 0.277399,-0.32804 0.362562,-0.46077 0.362562,-0.56504 0,-0.20427 -0.49669,-5.49392 -0.534689,-5.69433 l -0.03286,-0.17329 -2.701526,2.20759 c -1.485839,1.21418 -2.754326,2.26431 -2.818858,2.33363 -0.338422,0.36348 -1.35387,5.0588 -1.857,8.58654 -0.351325,2.46335 -0.430872,3.60162 -0.431537,6.17492 l -5.14e-4,2.06587 0.215623,1.97507 c 0.231931,2.12442 0.432585,4.21467 0.575329,5.9933 0.176582,2.20024 0.167283,2.86039 -0.04829,3.42799 -0.125514,0.33047 -0.478737,0.70397 -0.87622,0.92653 -0.29156,0.16325 -2.016955,1.31435 -2.44311,1.62993 -0.143589,0.10633 -0.260917,0.22844 -0.260728,0.27135 0.0015,0.33766 0.29901,1.66341 0.390305,1.73918 0.05452,0.0453 0.101535,0.0368 0.245826,-0.0443 0.302555,-0.17005 0.421892,-0.0317 0.798716,0.92578 0.117932,0.29967 0.253624,0.60151 0.301536,0.67076 0.04791,0.0693 0.233511,0.23496 0.412445,0.36823 0.589211,0.43886 1.215014,1.17893 1.371173,1.62152 0.05589,0.15842 0.05606,0.20527 0.0012,0.3366 -0.17644,0.42229 -1.479236,0.80396 -2.687384,0.78731 -0.271487,-0.004 -0.55491,-0.0153 -0.629826,-0.0256 z M 24.230923,167.73662 c 0.116126,-0.29019 0.203683,-0.53507 0.19457,-0.54418 -0.0091,-0.009 -0.127538,0.0502 -0.263168,0.1318 l -0.246601,0.14837 0.0061,0.3268 c 0.0057,0.30519 0.0327,0.46483 0.07851,0.46483 0.01067,0 0.114416,-0.23743 0.230541,-0.52762 z"
       id="path2540"
       inkscape:connector-curvature="0" />
  </g>
</svg>
