<?xml version="1.0" encoding="utf-8"?>

<!DOCTYPE svg PUBLIC "-//W3C//DTD SVG 1.1//EN" "http://www.w3.org/Graphics/SVG/1.1/DTD/svg11.dtd">
<svg version="1.1" id="Layer_1" xmlns="http://www.w3.org/2000/svg" xmlns:xlink="http://www.w3.org/1999/xlink" x="0px" y="0px"
	 viewBox="0 0 888 1652" enable-background="new 0 0 888 1652" xml:space="preserve">
<g>
	<path d="M836.389,1335.786c-20.116,0.071-48.743-11.309-67.686-19.548c-11.515-5.009-21.014-15.301-37.978-45.927
		c-20.188-36.448-6.941-134.592,7.216-169.466c15.437-38.028,9.204-68.192,16.737-97.191c5.072-19.525,8.459-39.355,16.341-58.196
		c5.107-12.209,10.946-24.683,11.632-38.125c0.888-17.407,5.605-38.377-1.689-55.323c-3.94-9.153-11.188-12.917-18.507-18.897
		c-48.872-39.932-6.657-6.639-112.575-63.982c-2.907-1.574-5.957-3.057-9.118-3.957c-13.814-3.933-16.984-13.685-7.789-25.112
		c11.458-14.24-2.407-35.219,10.476-53.776c0.878-1.264,0.205-3.533,0.477-5.302c9.503-61.884-1.818,1.185,52.022-143.335
		c6.57-17.637,21.495-27.803,31.356-42.291c1.68-2.468,6.326-3.649,6.116,2.407c-0.113,3.284,1.771,5.804,2.877,8.657
		c3.312,8.543,7.304,17.01,9.075,25.897c2.854,14.32,8.887,17.392,12.113,25.312c29.309,71.953,28.094,83.271,59.266,102.753
		c4.186,2.616,8.999,3.642,13.201,1.067c9.353-5.732,18.016-13,20.16-24.156c4.279-22.259,20.544-61.738,1.58-86.152
		c-8.983-11.563-22.437-51.16-23.454-53.964c-9.209-25.395,6.792-29.881,15.271-54.947c8.506-25.143,3.63-34.751-7.477-48.746
		c-10.392-13.093-9.538-42.997-26.806-27.524c-26.386,23.642-3.668-23.162-21.479-23.822c-11.846-0.439-5.461,16.015-9.797,17.086
		c-1.86,0.459-3.589-0.74-4.673-2.154c-2.864-3.739-8.804-23.926-32.72-27.378c-46.131-6.659-60.429-29.51-49.046-28.309
		c8.358,0.881,16.214-1.91,24.304-3.034c29.734-4.131,11.937-39.727,19.207-54.636c7.4-15.176,5.096-31.926,7.544-47.91
		c0.178-1.165-0.437-2.523-0.903-3.704c-8.073-20.481,19.615-40.395-10.892-74.365c-16.696-18.591,5.6-27.174-7.997-46.971
		c-8.351-12.159-16.506-37.909-37.824-40.78c-30.724-4.138-53.257-7.43-62.533,1.989c-5.662,5.749-11.738,13.049-18.894,14.946
		c-13.614,3.61-18.73,13.24-23.209,24.297c-6.556,16.186-12.664,7.695-15.377,17.945c-3.316,12.522-10.425,12.809-10.572,21.045
		c-0.205,11.46,8.709-0.218,11.334,4.281c2.689,4.609-7.276,11.745-8.211,20.094c-7.662,68.419,64.304,120.032-6.048,138.133
		c-57.538,14.803-53.57,17.874-58.239,15.788c-10.604-4.738-22.64-0.563-33.243-5.427c-1.2-0.551-3.032,0.041-4.511,0.371
		c-34.274,7.655-45.865,22.49-67.655,20.999c-20.166-1.38-39.041,9.638-50.412,11.868c-32.14,6.301-62.331,18.424-92.762,29.982
		c-14.475,5.498-25.877,14.508-37.215,24.906c-18.867,17.304-52.877,68.98-53.495,70.09
		c-17.399,31.254-53.424,120.16-71.744,140.231c-21.214,23.242-39.759,48.077-56.489,74.505c-3.278,5.178-2.393,10.186,3.336,11.683
		c6.842,1.787,6.395,4.25,3.297,9.275c-4.463,7.239-1.929,12.504,6.548,13.217c4.8,0.404,6.041,2.12,6.12,6.556
		c0.088,4.953,3.151,8.571,8.06,8.783c5.424,0.234,9.785,2.4,14.41,4.73c12.057,6.076,24.536-1.232,25.169-14.653
		c0.373-7.898,2.424-5.487,15.765-22.958c3.163-4.142,6.412-10.774,12.512-7.535c5.869,3.117,1.932,9.207,0.185,13.769
		c-5.209,13.598,1.209,36.271,11.062,34.34c6.198-1.215,5.501-7.103,5.31-22.993c-0.404-33.726,10.662-27.964,5.326-43.472
		c-5.319-15.46,1.408-20.462-5.729-32.908c-10.114-17.635,6.135-32.935,33.546-84.056c3.254-6.069,6.476-12.461,11.085-17.433
		c9.43-10.171,17.381-21.568,27.373-31.311c25.541-24.903,43.533-78.089,70.09-71.443c18.336,4.588,67.494,2.967,71.355,2.233
		c21.178-4.026,42.827-2.421,64.102-5.407c4.895-0.687,8.201,2.454,9.845,7.061c3.548,9.944,6.123,20.33,6.191,30.728
		c1.293,198.642,0.607,187.193-2.581,191.616c-7.712,10.697,1.095,24.437-7.188,36.218c-4.275,6.08,5.313,12.286,5.236,18.122
		c-0.145,10.854-13.412,9.998-18.99,17.569c-9.924,13.471-35.838,34.592-37.812,73.455c-0.399,7.856-1.479,61.694,1.214,69.265
		c11.964,33.629,20.788,36.329,41.739,57.716c19.51,19.915-12.679,38.856-21.755,54.941c-13.854,24.556-4.426,19.75-50.255,167.124
		c-2.784,8.951-3.212,5.502-44.162,50.955c-31.258,34.694-49.906,78.213-66.434,121.469c-5.369,14.051-16.883,23.7-24.371,36.219
		c-9.779,16.35-18.639,33.104-36.734,43.189c-8.98,5.005-17.413,11.251-26.899,15.754c-14.744,6.999-29.018,25.501-19.18,45.855
		c6.485,13.418,13.525,26.347,23.126,37.905c16.664,20.059,8.167,33.746,7.419,70.413c-1.286,39.368,7.983,29.499,12.232,41.67
		c3.793,10.867,11.462,10.791,15.163,18.012c10.803,21.078,42.989,16.518,43.132,0.313c0.144-16.376,2.317-32.87-1.53-49.135
		c-2.374-10.037-3.87-16.631-2.543-26.366c4.436-32.547-11.047-47.938,3.045-67.749c11.505-16.174-3.89-15.86,4.77-34.784
		c5.721-12.501,15.654-22.432,21.538-34.408c8.977-18.27,22.731-32.848,33.999-49.274c30.497-44.461,38.048-24.873,74.3-85.572
		c15.35-25.701,31.781-50.079,53.498-70.747c6.27-5.967,14.031-10.117,18.916-17.838c33.854-53.509,30.174-58.36,42.209-71.076
		c38.226-40.387,21.231-8.575,77.73-84.826c26.586-35.88,42.298-66.639,49.053-86.314c1.289-3.753,4.563-5.182,8.443-5.731
		c19.335-2.737,38.745-3.693,58.262-3.132c9.816,0.282,11.69,1.823,9.082,11.307c-22.64,82.339-27.395,73.323-27.395,170.699
		c-2.566,86.878,7.509,31.109,6.046,125.88c-0.58,37.581-13.739,60.31-18.29,76.397c-1.071,3.785-3.238,6.912-6.633,9.201
		c-12.604,8.502-4.114,32.753-2.143,44.415c1.257,7.438,16.869,10.099,24.147,9.991c89.048-1.318,52.904,21.349,135.05,14.791
		c19.13-1.527,27.962,0.117,70.026-22.497C872.933,1355.664,863.198,1335.691,836.389,1335.786z"/>
</g>
</svg>
