<?xml version="1.0" encoding="utf-8"?>

<!DOCTYPE svg PUBLIC "-//W3C//DTD SVG 1.1//EN" "http://www.w3.org/Graphics/SVG/1.1/DTD/svg11.dtd">
<svg version="1.1" id="Layer_1" xmlns="http://www.w3.org/2000/svg" xmlns:xlink="http://www.w3.org/1999/xlink" x="0px" y="0px"
	 viewBox="0 0 1995 2036" enable-background="new 0 0 1995 2036" xml:space="preserve">
<g>
	<path d="M1911.837,629.9481c-6.7219-18.9023-22.5837-36.0425-38.5305-47.8436c-16.938-12.5345-37.2007-19.672-57.228-25.5648
		c-23.5615-6.9329-47.5234-12.5045-71.7253-16.6847c-9.4497-1.6322-18.9702-2.9962-28.5337-4.1566
		c-54.1792-6.5737-108.7947-9.5437-163.3673-8.9004c-27.2863,0.3218-54.5619,1.5466-81.767,3.676
		c-26.3643,2.0637-52.8862,2.8881-79.1626,6.1324c-6.7813,0.8372-6.8152,0.4846-7.5679-5.9017
		c-0.0549-0.465-0.5204-0.8822-0.5726-1.3467c-0.6005-5.3324-1.87-10.5066-3.0282-15.7393
		c-1.9976-9.0251-5.0281-17.7085-9.072-25.7506c-4.5372-9.0228-8.1128-18.5096-13.2927-27.2445
		c-3.1348-5.2861-5.4061-11.5515-8.8198-16.177c-3.0944-4.1924-6.5566-8.791-10.1489-12.9016
		c-9.413-10.7712-18.6023-21.6997-29.1245-31.4265c-9.4362-8.7227-18.7875-17.537-29.524-24.7297
		c-3.3308-2.2314-7.1095-4.476-9.2269-7.6776c-3.1774-4.8041-7.8444-8.6327-11.9633-11.2546
		c-10.2977-6.5552-17.2693-15.6333-24.1356-25.0521c-10.5511-14.4734-13.4387-31.556-15.8162-48.718
		c-0.4327-3.1237-2.3467-6.4965-0.017-9.5411c2.2543-2.9462,2.3531-6.161,2.0271-9.5643c-0.1125-1.1758,0.5232-2.2275,0.734-3.2977
		c1.0083-5.1178,4.3984-9.5258,4.109-15.0447c-0.4409-8.4105,1.455-16.4391,5.0867-23.984
		c3.5671-7.411,7.4994-14.3197,7.3427-23.271c-0.1259-7.1973,2.9662-14.4019,4.1079-21.6851
		c1.0302-6.5718,3.6361-13.0938,1.5376-19.9194c-2.006-6.5248-2.6454-13.2501-1.7825-19.939
		c0.5206-4.0354-0.0398-7.2775-2.3999-10.5625c-2.1096-2.9365-2.7357-6.6511-4.0688-9.9325
		c-2.5161-6.1924-2.4536-13.2916-7.3209-18.7823c-2.3392-2.6389-4.0071-6.9933-3.8064-10.4445
		c0.1954-3.3628-1.5326-4.6376-3.0828-6.4576c-3.8888-4.5664-10.5706-4.9081-14.5089-9.4807
		c-2.481-2.8802-5.6456-4.4266-9.317-5.677c-5.1334-1.748-8.5599-5.6631-12.8972-8.6227
		c-4.8136-3.2845-10.2937-4.1996-15.8536-5.6571c-5.9448-1.5585-11.8896-3.1169-17.8345-4.6753
		c-2.0222-0.5303-4.1099-1.0647-6.1799-0.7728c-2.5825,0.3641-4.3875,1.9906-7.0725,0.8456
		c-1.6194-0.6907-3.0706-1.8245-4.7979-2.165c-3.2096-0.6326-6.1864,1.5859-8.967,3.3092c-5.908,3.6615-12.72,5.4347-19.5156,6.5616
		c-3.2454,0.5383-6.5542,1.0249-9.8046,1.4319c-2.9453,0.3687-6.0437,0.1936-8.4639,2.2449
		c-3.1168,2.6421-6.969,3.6353-10.7422,2.3298c-7.6248-2.6382-14.0594,0.5031-19.9996,4.1682
		c-9.381,5.788-16.4861,14.3171-22.3123,23.4103c-3.2378,5.0532-6.5942,11.3601-3.4341,18.2324
		c0.854,1.8574,0.1151,8.1445-0.9464,10.0415c-0.4679,0.8361-0.6306,1.8419-0.9382,2.7686
		c-2.0818,6.2709-4.0118,12.598-6.311,18.7882c-1.1981,3.2256-7.0765,5.5479-1.5581,9.8329c0.067,0.052-0.1364,0.6298-0.3422,0.8287
		c-2.9103,2.8119-2.6564,6.9404-4.1978,10.3438c-1.5791,3.4871-2.7043,7.6294,1.2152,10.8413
		c1.1606,0.9512,1.6703,2.448,1.0048,3.5991c-2.9036,5.0229-3.3077,11.0157-6.3821,15.9502
		c-5.7952,9.3008-14.5005,16.7224-17.5679,27.8259c-0.796,2.8817-1.2454,5.2805,0.214,8.0139
		c2.3218,4.3486,5.8136,6.3048,10.6906,6.1313c2.5941-0.0923,4.333-0.3165,5.0559,3.7964
		c1.0173,5.7881,3.0209,12.1732,9.2185,15.0522c4.3445,2.0183,2.8558,3.8492,0.1985,5.4288
		c-4.0154,2.3869-4.0836,5.2802-2.2439,9.0449c1.521,3.113,3.0889,6.5731,1.2007,9.9039c-1.5267,2.6932-1.9117,5.522-2.7332,8.3561
		c-3.9407,13.5953,8.5159,24.8197,17.9689,25.9785c8.8687,1.087,16.6506,5.4882,25.536,6.0826
		c7.046,0.4712,14.0157,2.8142,21.1112,2.1331c5.1149-0.491,6.6602-0.1765,6.8265,4.8521
		c0.2378,7.1804,4.4928,12.171,8.5852,17.2983c3.5664,4.468,8.6323,7.4534,10.4287,13.723c1.11,3.8741,4.5355,8.2462,8.0953,9.9689
		c4.655,2.2529,2.6373,3.6594,0.7264,5.5955c-1.4794,1.499-3.2318,2.9001-5.1237,3.7915
		c-9.899,4.6641-17.0042,12.062-23.0839,21.0792c-1.9391,2.8759-2.6594,6.7559-5.5626,8.7393
		c-7.2137,4.9281-10.2452,11.5629-8.6871,19.709c1.7461,9.1285,1.9974,18.291-0.2507,27.3861
		c-0.7217,2.9199-0.1268,6.8571,1.1361,7.9993c4.1078,3.7152,1.9717,7.1875,0.1523,9.9883
		c-2.459,3.7856-4.4995,7.9882-6.3812,11.8254c-4.6185,9.4185-7.725,19.6841-10.5247,29.8608
		c-3.1257,11.3624-8.7896,21.6812-12.3544,32.7844c-1.9169,5.969-3.7683,11.6204-4.5522,17.863
		c-3.15,5.042-4.355,12.0999-3.8982,18.0054c0.2135,2.7617-0.5901,5.6643-0.8481,8.4036c-0.3776,4.0095-3.1229,4.948-6.74,3.7742
		c-0.6436-0.2087-1.5687,0.3671-2.3391,0.645c-0.9869,0.3562-1.9857,0.6782-2.9919,0.9752
		c-6.0386,1.7819-12.3558,2.5172-18.3997,4.1537c-6.6157,1.7915-13.446,3.0034-20.1389,4.4873l-10.217,2.2654l-30.3413,6.7273
		c-26.5076,5.8774-52.7208,12.6251-79.0425,19.3469c-15.1318,3.8641-30.4894,6.9614-45.6758,10.7229
		C717.3109,663.64,617.7034,699.8289,520.7601,739.2674c-95.5554,38.8738-188.4071,84.395-277.645,136.151
		c-19.9061,11.5452-39.4346,27.1829-58.0914,41.0027c-11.8455,8.6471-23.3845,17.7274-34.5787,27.2562
		c-12.7693,10.8696-25.5222,21.7021-37.5063,33.4721c-10.028,9.8485-19.7857,19.9046-28.5284,30.888
		c-2.241,2.8154-5.0095,5.494-5.479,9.5765c-1.0223,8.8904,2.8082,15.2576,9.8883,20.0148
		c13.835,9.296,27.4753,18.8389,41.7333,27.5565c65.1592,39.8401,138.7236,59.4974,212.8332,74.6736
		c0.7847,0.1606,1.5696,0.3206,2.3547,0.4795c78.6936,15.9386,160.306,24.3549,240.5942,23.6823
		c81.979-0.6868,163.9196-5.8997,245.3259-15.5958c76.141-9.069,152.5658-20.7257,227.006-39.3358
		c7.776-1.9915,14.1089-1.193,20.3739,3.3654c2.3644,1.7202,5.1895,3.8552,4.6436,6.5055
		c-0.3961,1.9222-3.2032,3.8744-6.2551,3.9697c-1.0342,0.0325-3.4686-0.0741-3.0759,2.2267
		c1.4106,8.2649-6.0632,16.828-9.9623,23.4568c0.632-1.6588-2.1473-2.8339-3.5319-1.7228c-1.3843,1.111-1.5833,3.0962-1.8246,4.8549
		c-0.8959,6.5286-3.7928,12.5884-6.6517,18.5256l-21.2856,44.2032c-4.2375,8.8-6.5109,17.5939-9.3742,26.7627
		c-3.7953,12.152-7.2024,24.4247-10.8296,36.6298c-0.8848,2.9777-2.8823,5.6501-2.9739,8.821
		c-0.0848,2.9343,0.3567,5.8356,4.6646,4.8778c1.0759-0.2391,3.0913-0.4231,3.208-0.101c0.5713,1.5771-1.1501,2.2389-2.0525,2.8896
		c-3.1721,2.2876-6.6045,4.2098-9.8411,6.4135c-5.87,3.996-6.0526,7.9424-1.905,13.5111c2.1024,2.8228,4.952,1.0245,7.0432,2.5277
		c0.6563,0.4717,1.6997,0.6688,1.7297,1.5393c0.0337,0.9744-0.9395,1.1125-1.7712,1.3577
		c-5.813,1.7115-10.1301,5.8358-14.7822,9.3835c-1.7167,1.3092-3.0044,3.1838-3.0659,5.4441
		c-0.0669,2.4603-1.8745,5.0717,2.1729,7.0109c1.8292,0.8762,0.5088,5.0234-0.6736,7.6661
		c-2.887,6.4528-2.7549,7.0424,1.0261,11.9619c0.5388,0.7012,0.1625,1.1437-0.3662,1.6487
		c-4.405,4.209-8.2742,9.0074-12.5701,13.1918c-3.7863,3.688-5.4763,7.2007-6.1887,12.1466
		c-0.6666,4.6262,0.9084,6.4617,5.2245,6.5007c2.9073,0.0264,4.9679,0.8989,6.0535,3.9253
		c2.8892,8.0553,6.9135,15.5935,10.9999,23.0902c1.6284,2.9873,4.1943,5.7665,4.8223,8.9396
		c1.8938,9.5697,7.7024,16.8053,13.26,24.2252c1.5244,2.035,2.3988,3.8798,3.1262,6.4735
		c2.7936,9.9609,5.0809,19.9535,5.0111,30.2762c-0.0358,5.2589,0.4781,10.7471,1.6164,15.4327
		c1.6885,6.9503,1.1313,13.8798,2,20.7375c2.5424,20.0717,3.0562,40.3734,2.2054,60.5753
		c-0.4258,10.1106-1.2003,20.2057-2.2681,30.2683c-0.9353,8.8134-0.719,17.3586-0.5781,26.2521
		c0.2091,13.1978-0.9783,26.379-0.9246,39.5996c0.0681,16.7794,1.0359,33.5695-3.7458,50.1536
		c-2.9142,10.1074-4.9397,20.5087-7.6968,30.717c-2.1692,8.0315-5.0963,15.827-7.5564,23.7688
		c-1.1438,3.6929-1.6938,7.7131-2.9307,11.3318c-3.0488,8.9181-7.839,17.1951-13.6842,24.5667
		c-2.6439,3.3344-5.4781,7.0862-8.8794,9.6654c-2.681,2.0331-4.9432,3.6912-7.0229,6.4359
		c-3.4269,4.5228-5.035,9.0306-10.1794,12.1731c-3.7943,2.3176-8.0634,3.7155-12.256,5.1951
		c-11.2664,3.976-21.9719,9.484-33.3147,12.9354c-3.0669,0.9332-6.8931,0.9277-10.5452,0.4792
		c-4.9873-0.6123-8.8074-4.627-13.9447-4.1951c-4.0214,0.3383-6.6224-1.6182-8.3214-4.9596
		c-1.949-3.8331-5.2596-6.4888-8.1442-9.4564c-3.3453-3.4418-9.2845-2.5137-12.812,1.0878
		c-3.6809,3.7582-3.3994,8.5293-4.34,13.1146c-1.808,8.8148,1.8064,18.1592,9.8964,22.1379
		c6.1527,3.026,9.8102,7.6971,11.2058,14.0543c3.363,15.3199,19.9308,23.7802,32.0104,24.1222
		c5.7938,0.1642,10.9534-1.7721,16.3738-3.0281c4.6812-1.0845,8.7839,1.7821,13.1719,2.7843
		c13.6997,3.1287,27.6213,4.2947,41.7019,4.2562c6.9984-0.019,14.9128-1.8141,19.5088,6.4331
		c0.8524,1.5295,3.0438,2.4462,4.7783,3.3291c12.3403,6.2811,25.0652,10.5386,39.282,8.1866
		c7.3706-1.2194,14.5033-3.012,18.0365-10.1667c6.3986-12.9569,7.5677-26.9137,5.0514-40.9414
		c-1.8741-10.4478-3.6909-20.9807-3.3955-31.4598c0.424-15.0381,1.9075-29.9988,5.1068-44.9226
		c2.1537-10.046,4.9478-19.8517,7.7753-29.6394c2.6481-9.1663,4.1631-18.573,6.8579-27.7043
		c2.7844-9.4347,5.2798-18.9706,8.0397-28.3883c3.2135-10.9655,6.601-21.9584,9.5909-32.951
		c4.2104-15.48,7.7023-31.1802,12.0905-46.6426c4.0386-14.2308,6.5453-28.8292,10.1207-43.1851
		c4.1647-16.7222,7.7203-33.7241,8.6239-50.9547c0.6458-12.3142,2.8174-24.7645-0.4464-37.1362
		c-3.1885-12.0853-6.0768-24.2522-8.9398-36.4203c-1.4717-6.2552-2.9531-12.5129-4.0931-18.8391
		c-0.4503-2.4984-0.5382-4.9865-1.5184-7.3453c-1.1846-2.8505-2.6805-5.1648-1.0359-8.205c0.7661-1.416,1.9175-2.5784,3.053-3.7196
		c1.5442-1.552,3.1091-3.1204,4.9834-4.2521c1.3223-0.7982,2.7744-1.3638,4.0947-2.165c2.2205-1.3474,3.7067-3.8536,5.5156-5.7103
		c3.5675-3.6615,7.1937-7.3016,10.1592-11.4846c7.2584-10.2388,16.9426-18.5587,23.2112-29.6172
		c4.9237-8.6864,10.3204-17.1034,15.3479-25.7328c1.5195-2.6085,3.1039-3.9895,4.8373-0.6855
		c4.2378,8.0776,9.0364,16.0281,11.9418,24.5952c3.556,10.4863,6.3826,21.2764,9.3409,31.9751
		c4.9716,17.9789,9.0767,36.2021,17.2819,53.1106c1.9297,3.9763,5.2533,7.6174,6.3832,11.4963
		c1.6696,5.7303,4.6742,4.8514,8.0151,3.3978c4.6387-2.0183,9.7767-2.4756,14.2432-5.1294c1.515-0.9001,4.5962-2.2333,6.0571,0.6545
		c1.9059,3.7672,4.9192,7.0209,7.5891,9.7306c8.3695,8.4941,11.049,20.2312,18.4543,29.2075
		c8.1556,9.8856,9.8668,22.7902,12.6838,34.6541c3.8444,16.1903,10.0247,31.416,15.5696,46.9318
		c1.6467,4.608,3.3807,9.217,6.8052,12.9873c2.6157,2.88-1.4797,9.0024,4.7883,10.345c0.1654,0.0355,0.2997,0.958,0.1936,1.4066
		c-1.425,6.0251,2.8755,10.4404,4.3624,15.6407c2.6012,9.0969,7.5051,17.2377,10.8124,26.075
		c4.3287,11.5673,10.6154,22.3198,14.697,34.0729c2.6672,7.6799,7.1276,14.7335,9.8444,22.401
		c2.8667,8.0903,6.0115,16.1327,7.6985,24.6399c1.2996,6.5521,5.5244,12.2137,6.505,18.8625
		c0.4916,3.334,1.5469,6.5494,2.1339,9.8412c2.0571,11.5338,10.5938,31.8829,12.145,43.479
		c2.3159,17.3131,0.0366,24.7667,3.3093,41.7957c0.8379,4.3593,0.1527,10.1072-3.038,13.3479
		c-4.3304,4.3981-10.1708,7.9608-15.1069,11.6619c-8.1096,6.0803-16.3556,11.979-24.7296,17.6898
		c-7.946,5.4191-16.1676,9.4634-24.8615,13.5387c-9.0817,4.0306-16.9835,8.874-27.4523,8.326
		c-1.3446-0.0704-2.6968-0.2273-4.0327-0.0583c-1.8716,0.2368-2.917,1.4797-4.5469,2.1866
		c-1.9972,0.8662-4.1949,0.9442-6.3361,1.0715c-6.3324,0.3767-12.6249,1.4102-18.7467,3.0719
		c-5.7599,1.5636-11.4688,5.1045-17.5818,3.6078c-5.9048-1.4457-10.028,3.4508-9.0773,9.7664
		c0.3198,2.1259-0.733,3.8798-1.4364,5.626c-2.2719,5.6398,2.1436,12.6594,6.7419,15.5195
		c3.7439,2.3286,8.1548,3.3024,12.4927,4.0903c4.45,0.8082,8.9346,2.3745,13.3326,2.9507
		c5.3866,0.7057,10.9755,0.0391,16.3934,0.2228c7.0781,0.2399,14.1484,0.7083,21.1962,1.4043
		c3.1761,0.3137,6.8392,1.3171,10.0081,1.0416c3.0697-0.267,6.2168-0.9696,9.2938-1.3735
		c5.0586-0.6669,10.1213-1.3029,15.1877-1.9073c12.6897-1.5138,25.4045-2.8428,38.1453-3.847
		c12.5232-0.9871,25.1107-1.7472,37.6785-1.5261c7.0975,0.1248,14.7139,0.2535,21.524,2.4991
		c25.4779,8.401,43.4832,3.1302,53.9779,0.0416c9.2622-3.0293,11.5079-22.4172,11.8379-29.7075
		c0.2578-5.694-2.2859-11.5297-3.3081-17.0663c-1.1025-5.9719-0.197-12.2775-1.6399-18.0334
		c-3.8418-15.3264-12.1052-30.3214-16.8721-45.5333c-6.7156-21.4302-11.8972-43.3412-15.4863-65.5104
		c-2.8451-17.5737-5.5415-35.208-9.9177-52.4824c-4.3657-17.2325-6.8868-34.5031-10.6361-51.8573
		c-5.1774-23.9644-6.9694-48.1859-8.3024-72.4713c-0.6716-12.2391-2.4268-24.1783-5.5548-35.9229
		c-4.7479-17.8273-10.6917-35.3134-17.1913-52.5532c-6.3376-16.8102-11.9685-33.9307-20.344-49.949
		c-5.8842-11.2534-11.1556-22.8258-16.8201-34.1964c-2.8506-5.7217-2.7672-6.3477,2.9197-8.8287
		c13.26-5.7855,23.842-14.4305,33.0765-25.8787c7.0276-8.7119,12.386-18.5142,19.7134-26.9138
		c2.0503-2.3503,4.5254-4.965,2.6903-8.3223c-4.7068-8.6111-9.3788-17.1786-12.3682-26.6176
		c-2.0571-6.4952-7.2562-11.3337-10.3134-17.4363c-1.3224-2.6398,2.772-1.369,1.0348-3.5197
		c-2.3214-2.8743-5.2346-5.5769-8.1011-6.7433c-3.3375-1.3584-4.9922-4.131-5.0292-6.0466
		c-0.0585-3.0259-1.7119-4.7963-2.7229-7.1033c-1.2642-2.8845-4.3833-4.2961-5.8341-6.4073
		c-3.2505-4.7303-7.6185-8.3378-11.0593-12.8315c-5.6542-7.3843-13.5167-12.822-19.1877-20.3213
		c-2.9498-3.9009-6.5404-7.3071-7.2506-12.5363c-0.2386-1.7574-1.0441-3.1252-3.5415-3.2384
		c-4.1664-0.1887-7.411-2.0865-6.5696-7.046c0.845-4.9797-1.2886-9.0724-3.1027-13.3871c-0.9789-2.328-1.8887-4.551-3.8107-6.2727
		c-1.2949-1.1599-1.4744-2.3607-1.1312-4.3254c0.6805-3.897,3.8228-7.1011,2.8793-11.4369
		c-0.5061-2.3254-0.4132-4.7859-0.5343-7.1884c-0.0637-1.2617,0.1952-2.5905,1.8695-2.056
		c6.7123,2.1426,10.8794-1.2186,14.3313-6.3549c0.6495-0.9662,1.4647-1.8671,2.837-1.7092
		c1.4209,0.1637,1.7909,1.2427,2.1476,2.4072c0.8721,2.8483,1.9235,5.6456,2.7039,8.5175
		c2.4646,9.0693,3.9626,18.3789,8.8315,26.7426c4.166,7.1564,11.429,9.2627,15.5958,2.9518
		c2.4597-3.7247,2.4603-9.2539,1.5376-14.2798c-0.9896-5.3909-4.5721-9.8839-4.7869-15.5527
		c-0.0929-2.4539,0.955-4.7445,0.1001-7.3522c-2.2292-6.7991-2.7009-13.9879-3.9865-21.0007
		c-0.4462-2.4332,0.3796-3.8276,2.7871-4.3549c2.34-0.5123,3.6903,0.0096,4.1876,2.7207
		c1.1858,6.4646,2.8269,12.8365,3.9839,19.3069c0.5577,3.1191,1.1136,6.2646,1.0846,9.4229
		c-0.0311,3.3837,0.3005,6.7605,0.8038,10.1035c0.3768,2.5026,0.8516,4.9889,1.3494,7.4698
		c0.1997,0.9952,0.2405,1.8372,0.2755,2.8235c0.0389,1.0945,0.4513,2.1389,0.4253,3.2507
		c-0.1301,6.0287,2.3788,8.6666,8.2866,9.4969c4.5591,0.6409,7.1523-1.6488,8.6515-7.5889c0.2407-0.9537,0.7448-1.851,0.9114-2.8116
		c0.7794-4.4954,2.9795-6.6084,7.8483-5.4905c1.5247,0.3499,4.6624,1.1805,4.7856-0.7639c0.2399-3.7848,3.1765-5.7233,4.4679-8.7017
		c2.0201-4.6593,0.1023-9.6808,1.8492-14.4076c0.9937-2.6887,1.153-4.5979,4.4496-2.1709c2.5504,1.8774,6.9069,2.5714,7.9064-0.087
		c2.1833-5.8065,6.6132-10.642,6.0167-17.8682c-0.4122-4.9945-0.8003-9.9917-1.3384-14.9746
		c-0.4594-4.2517-1.1483-8.4739-1.8687-12.6879c-0.6814-3.9866-1.283-8.0138-2.5441-11.8917
		c-0.8534-2.624-1.9252-5.1842-2.5554-7.8768c-0.3138-1.3413-0.3528-2.7017-0.5791-4.0409
		c-0.2435-1.4409-0.6617-2.8969-1.2108-4.2502c-2.931-7.2261-4.3374-15.0552-6.9449-22.432
		c-2.6682-7.5481-5.942-14.7928-9.9645-21.8621c-4.808-8.4495-6.2856-18.257-7.6843-28.0609
		c-2.3016-16.1332-4.3828-32.1532-3.7408-48.5237c0.1956-4.9855,2.1582-6.7461,6.2201-8.4047
		c10.1584-5.0792,21.8247-8.0195,32.542-11.7113c10.416-3.5881,20.6682-7.783,30.9321-11.7985
		c25.0588-9.8036,49.9314-20.0832,74.6001-30.8312c1.0049-0.4378,2.0093-0.8763,3.0135-1.3157
		c48.5082-21.2239,96.7646-43.9648,142.3583-71.0199c21.6985-12.9018,42.668-26.894,63.2866-41.4453
		c20.7725-14.6598,40.5344-30.7512,59.103-48.1177c18.2007-17.0225,36.1472-34.2188,50.8186-54.4965
		c6.72-9.2876,12.8303-19.0167,18.27-29.1078c2.7195-5.0453,5.2737-10.1807,7.6477-15.3975
		C1917.9618,669.2501,1918.5536,648.835,1911.837,629.9481z M1353.9938,1114.7803c-0.9122,2.4817-1.3099,5.106-1.6378,7.7181
		c-0.2087,1.663-0.4626,3.3185-0.7395,4.9712c-0.2612,1.5596-0.6748,3.0945-1.0118,4.6498
		c-0.7108,3.2805-1.2308,6.6024-1.5563,9.9434c-0.0585,0.6005-0.111,1.2015-0.1566,1.8032
		c-0.0376,0.4961-0.2295,1.0258-0.2295,1.515c-0.2811,1.4091-0.0334,3.0923,0.1586,4.5115
		c0.2166,1.6014,0.5656,3.1812,0.9327,4.7538c0.4795,2.0544,0.9963,4.104,1.3098,6.1924c1.203,8.015,2.0328,16.6587,0.432,24.9967
		c-0.6107,3.1815-0.6387,6.2899,0.2654,9.3688c1.2727,4.334-0.7693,7.7985-2.9438,11.1342
		c-1.2207,1.8724-2.5946,2.1267-4.0587-0.2784c-2.4835-4.08-3.4928-9.1213-6.0221-12.6915
		c-3.5227-4.9722-2.8899-12.0745-8.9103-15.6133c-4.1573-2.4437-3.0463-7.2009-3.4515-11.1029
		c-0.8494-3.5334,0.9414-6.2023,2.4622-9.113c1.568-3.0012,3.0372-6.0524,4.5098-9.1012c0.7362-1.5243,1.4731-3.0483,2.2239-4.5656
		c0.7004-1.4155,1.3253-2.9546,2.2225-4.251c1.3204-1.9076,2.9928-3.5653,4.1212-5.6058c0.6805-1.2307,1.1407-2.568,1.496-3.9248
		c0.324-1.2373,0.3606-2.7687,1.0522-3.8574c2.5272-3.9786,4.2122-8.3739,6.7925-12.2856c0.4198-0.6364,0.7407-1.6057,1.8031-1.2145
		C1353.9792,1113.0728,1354.2761,1114.0125,1353.9938,1114.7803z"/>
	<path d="M1866.601,574.5856c0.1133-0.1094,0.3125-0.2159,0.3164-0.329s-0.188-0.2324-0.3179-0.3757
		c-0.1064,0.1189-0.2935,0.2368-0.2932,0.3542C1866.3065,574.3522,1866.495,574.4688,1866.601,574.5856z"/>
</g>
</svg>
