<?xml version="1.0" encoding="utf-8"?>

<!DOCTYPE svg PUBLIC "-//W3C//DTD SVG 1.1//EN" "http://www.w3.org/Graphics/SVG/1.1/DTD/svg11.dtd">
<svg version="1.1" id="Layer_1" xmlns="http://www.w3.org/2000/svg" xmlns:xlink="http://www.w3.org/1999/xlink" x="0px" y="0px"
	 viewBox="0 0 1630.801 1655.023" enable-background="new 0 0 1630.801 1655.023" xml:space="preserve">
<path d="M857.614,30.023c6.103-3.292,10.029-5.004,30.41,5.493c0.004,0.003,29.57,21.206,30.158,21.852
	c19.047,20.947,39.331,40.736,56.179,63.596c6.701,9.093,13.153,18.79,16.278,29.761c1.918,6.733,2.654,13.642,5.323,20.173
	c3.182,7.783,6.571,14.622,9.255,22.711c5.492,16.546,14.013,32.087,25.028,45.6c4.232,5.192,4.88,6.783,4.989,13.419
	c-6.986,1.849-8.624-5.523-19.255-8.763c-2.485-1.271-3.989-3.681-6.138-5.307c-4.335-1.535-31.547-7.448-32.045-7.661
	c-2.681,2.653-2.607,6.68-4.344,9.866c-5.157,0.28-10.165-1.224-15.294-1.271c-2.664,8.306-17.759,29.86-24.767,30.765
	c-8.855,12.074-6.682,4.345-13.164,21.525c-2.672,7.885-8.959,14.565-8.745,23.3c-0.57-0.084-1.71-0.262-2.289-0.355
	c0.346,1.803,0.439,3.634,0.42,5.465c-2.205-0.364-4.419-0.71-6.624-0.962c-0.131,1.439,0.047,2.868,0.383,4.27
	c1.915,0.775,3.952,0.944,6.017,0.803c-3.356,16.915-16.929,31.585-20.217,34.343c-0.523-0.467-1.57-1.42-2.093-1.897
	c-0.43,1.429-0.785,2.887-1.196,4.335c1.803,2.494,3.718,4.914,5.774,7.212c13.547,2.486,2.473-2.985,106.981,20.862
	c0.504,0.382,28.294,11.964,28.551,12.052c1.001,0.721,15.165,8.694,17.583,9.174c3.279-1.728,6.596-3.373,9.903-5.064
	c0.037-2.074,0.262-4.148,1.037-6.082c11.628-4.228,12.792,4.374,24.272-3.774c10.693-0.077,16.649,0.549,20.871,12.145
	c6.642-0.841,13.098,1.196,19.722,1.018c5.325,1.308,10.202,4.559,12.584,9.642c0.42,2.579,0.925,5.138,1.214,7.745
	c6.867,1.542,13.883,2.644,20.535,5.026c1.056,5.933-0.42,12.837-5.241,16.845c-6.22-0.105-20.532-6.445-25.16-5.288
	c-3.877,0.905-22.322-3.985-25.739-4.942c-2.438-0.962-4.363,1.018-6.297,2.102c-2.952,1.859-6.484,2.345-9.828,3.046
	c0.001,0.001,25.178,31.409,25.178,31.41c0,0,25.367,40.263,42.167,73.964c10.471-0.717,20.8-8.599,30.422-12.229
	c9.138-3.448,19.318-9.26,28.899-10.996c10.304-6.51,55.614-7.171,56.616-7.231c0.481-0.374,28.315,0.945,28.924,0.962
	c1,0.321,29.525,3.128,29.952,12.192c0.663,14.071-15.549,24.411-25.538,30.988c-18.37,12.095-36.505,24.205-52.766,39.003
	c-7.754,6.635-15.628,13.143-22.946,20.265c-2.245,2.184-24.721,21.977-23.763,23.518c12.1,19.457,23.756,38.753,34.982,58.694
	c11.324,20.115,22.868,40.204,36.902,58.585c4.682,6.133,5.819,7.719,12.078,5.063c2.336-0.991,3.954-1.91,6.652-1.672
	c5.705,1.534,2.226,3.556,9.632,1.831c3.75-20.457,23.659-3.8,29.588-10.081c3.074-10.181,13.001-9.797,22.132-5.297
	c4.34,1.944,3.862,2.247,8.67-4.176c10.968-6.165,23.091,3.961,26.028,3.522c15.693-10.948,25.032,1.56,27.944,2.952
	c1,0.041,21.601-6.294,26.776,7.24c0.934,0.327,1.887,0.663,2.859,1.009c24.378-1.283,22.687,8.729,23.16,12.967
	c4.992,2.588,21.818-1.537,25.748,12.183c-0.439,0.542-1.308,1.626-1.738,2.158c1.046,3.858,5.148,5.839,8.773,4.017
	c17.671,3.628,14.442,14.939,14.472,16.733c0.645,1.037,1.308,2.083,1.981,3.148c1.812-0.028,3.662-0.149,5.475-0.598
	c7.723,1.681,14.233,11.715,14.098,16.966c0.196,2.223-0.785,5.353,1.84,6.484c1.243,1.196,2.849,0.262,4.344,0.262
	c7.905,2.513,11.071,11.481,12.192,19.236c2.044,8.923,6.616,5.101,10.819,11.043c3.258,4.114,4.363,19.085,8.1,23.693
	c2.672,3.784,7.521,6.157,8.343,11.108c0.458,4.85-0.146,19.479,1.719,22.59c15.203,10.811,7.359,9.385,7.81,21.329
	c0.448,0,1.336-0.009,1.775-0.009c-1.107,1.726,3.054,16.977,7.68,20.591c-2.417,4.616,1.602,3.872-4.13,10.006
	c-0.224,2.719,0.738,5.288,1.962,7.689c2.317,4.428,1.99,9.604,3.588,14.275c3.116,9.205-0.405,9.819-3.466,15.518
	c5.989,17.54,2.468,8.086,3.214,18.031c0.636,4.789,3.926,5.374,0.477,13.977c-1.271,0.383-2.513,0.794-3.737,1.214
	c-0.299,3.438-0.065,7.147,2.756,9.567c0.028,0.822,0.075,1.672,0.14,2.541c-5.742,11.873-0.881,10.838-0.972,16.546
	c-0.561,3.597-2.765,6.941-6.063,8.586c-0.205,3.849,2.42,7.53,0.925,11.389c-0.467,3.774-4.671,5.979-4.316,9.95
	c0.757,1.14,1.887,1.99,2.896,2.952c0.346,3.569-0.822,7.035-3.12,9.782c-8.532,2.814-3.401,0.956-7.764,13.948
	c-1.364,2.831-2.681,5.736-2.868,8.932c1.177,0.579,2.364,1.196,3.56,1.831c-0.009,3.943-0.495,8.464-3.849,11.062
	c-4.045,3.298-2.719,9.623-6.671,12.958c-2.083,1.7-3.597,3.924-4.503,6.456c3.242,4.055,2.177,10.137-1.934,13.182
	c-4.139,2.831-4.428,8.474-8.1,11.697c-2.429,2.214-4.643,4.905-5.008,8.306c6.127,7.173-14.907,19.734-17.358,28.056
	c-2.13,13.6-1.073,6.544-17.209,21.208c0.009,0.607,0.028,1.822,0.037,2.429c-0.542,0.271-1.616,0.813-2.158,1.084
	c-8.128,16.364-4.641,11.289-16.2,16.387c-5.937,4.093-8.621,15.531-15.154,18.676c-4.204,3.055-10.763-0.402-13.902,4.559
	c-1.233,3.494-2.607,6.969-5.129,9.782c-6.94,4.231-3.793,5.602-15.303,5.998c-0.757-0.738-1.504-1.467-2.242-2.177
	c-1.224,0.766-2.429,1.542-3.606,2.336c-0.177,3.205-1.224,6.269-3.111,8.875c-1.729,0.682-3.382,1.504-4.998,2.41
	c-16.037,7.207-10.284-5.002-20.768,3.616c0.178,0.299,0.533,0.887,0.71,1.177c-3.745,5.961-2.181,8.283-19.124,7.988
	c-1.598-0.887-3.205-1.747-4.746-2.672c-9.108,3.574-1.691,9.722-15.284,10.763c-4.279-0.617-8.661-0.411-12.827-1.626
	c-0.402-0.439-1.224-1.327-1.625-1.775c-1.037-0.028-2.055-0.037-3.055-0.019c-7.785,10.496-10.325,6.965-19.031,6.362
	c-3.083-0.42-6.147-1.766-7.913-4.41c-0.532-0.019-1.588-0.056-2.111-0.075c-1.598,1.242-3.074,2.7-4.914,3.578
	c-6.166,0.794-12.444,0.084-18.33-1.831c-2.429-1.728-3.662-4.933-6.717-5.69c-5.196,4.358-24.981,2.913-25.599-8.165
	c-0.944-0.308-1.878-0.579-2.793-0.822c-6.27,3.627-26.352-0.304-24.104-12.248c-6.239-3.702-22.449,5.412-25.15-16.527
	c-0.607-0.327-1.813-0.962-2.42-1.28c-2.074-0.047-4.129,0.094-6.11,0.673c-5.335-1.196-9.669-4.961-13.22-8.922
	c-2.317-2.616-1.467-6.222-1.523-9.371c-0.159-2.186-2.756-2.653-4.288-3.587c-9.548,3.642-19.127-12.812-15.499-17.891
	c-0.645-4.662-6.362-4.185-9.8-5.026c-8.094-6.314-10.038-17.726-10.062-21.983c-3.194-6.065-16.03-7.61-13.668-20.021
	c1.447-13.381-16.867-16.505-12.276-30.56c1.786-8.699-11.148-17.42-11.239-30.821c0.972-1,1.962-1.99,2.98-2.943
	c0.346-5.26-5.176-8.035-5.633-12.995c-1.062-8.796-3.685-4.564-3.887-17.452c0.785-1.037,1.551-2.158,2.859-2.588
	c2.442-6.315-4.114-6.762-3.98-16.966c-0.224-2.663-0.616-5.409-2.392-7.502c-0.159-3.662-1.345-8.156,1.607-11.024
	c8.378-0.105,0.068-8.333-0.411-9.333c-1.756-4.998,1.364-10.305-0.682-15.2c-1.261-3.429-0.701-7.175,0.589-10.501
	c1.513-0.523,3.064-0.944,4.671-1.224c0.29-1.317,0.523-2.635,0.766-3.943c-8.192-4.219-2.574-13.917-1.364-18.834
	c-7.513-5.386,2.691-15.349,3.008-16.349c-0.561-3.587-1.971-7.268-0.467-10.837c0.589-3.513,5.353-4.653,4.755-8.52
	c-6.936-5.379,1.02-14.135,1.981-16.527c1.858-13.166,2.403-12.207,7.278-14.004c0.374-0.448,1.13-1.345,1.504-1.784
	c-0.019-1.028-0.009-2.027,0.009-3.027c-1.299-0.57-2.579-1.13-3.849-1.672c0.032-9.982,3.579-10.162,5.858-14.481
	c1.009-2.27,1.214-4.821,2.373-7.035c2.227-5.139,12.885-6.11,4.858-12.799c-0.121-3.765,2.046-6.895,3.429-10.211
	c-2.656-37.64-4.052-43.29-22.011-69.882c-5.708,0.299-11.286-3.289-13.528-8.511c-9.293,1.226-6.052,1.752-6.082,9.66
	c-5.307,5.584,5.34,44.87-12.145,56.504c-6.33,1.422-9.562,3.751-29.392,0.234c-5.193,6.856-14.284-1.912-18.545,6.082
	c-14.155,27.543-38.216,26.76-47.525,31.269c0.206,3.251,0.589,6.502,1.252,9.707c3.7,1.112,3.961,5.512,3.522,8.735
	c-0.766,0.813-2.195,1.401-1.803,2.765c0.738,0.878,1.672,1.691,2.803,2.083c18.102-4.143,6.992-4.612,25.627-4.578
	c16.918,7.98,33.105,18.182,24.917,68.098c-3.007,48.578-2.644,94.094-30.924,108.486c-22.178,11.42-24.254,7.022-51.991-8.399
	c-0.448-0.009-1.345-0.047-1.794-0.065c-10.916,22.432-28.332,48.19-81.243,71.629c-95.86,46.157-83.961,29.054-132.197,20.89
	c-3.289,0.374-6.278,2.429-9.707,1.766c-11.11-4.88-27.993-4.677-35.978-3.494c-7.578,4.198-12.641,7.911-8.362,22.076
	c-1.299,0.467-2.616,0.934-3.914,1.401c-0.112,2.99-0.056,5.998,0.103,9.006c-1.485,0.598-3.055,0.953-4.615,1.261
	c-2.878-5.008-1.579-11.033-3.074-16.443c-7.77,3.765-7.29-1.645-7.325,31.148c-0.29,7.082,1.607,14.079,0.766,21.17
	c-1.093,2.046-3.522,1.794-5.4,1.289c-1.724-15.746-0.539-39.053-1.897-43.396c-1.047,0.541-68.64,54.577-72.264,60.241
	c-0.383,3.69,0.234,7.474-0.626,11.164c-3.569,2.635-8.231,2.569-12.061,4.643c-0.224,1.298-0.448,2.606-0.682,3.924
	c3.485,2.27,7.838,2.233,11.622,3.83c3.249,9.707-1.861,24.222-4.569,27.598c-2.308,0.738-4.671,1.243-7.044,1.682
	c-1.364,0.729-1.616,2.569-2.401,3.83c2.971,1.812,6.848,1.887,9.455,4.279c0.62,4.338-0.327,30.967-5.671,36.081
	c-3.578,0.14-7.156,0.215-10.688,0.85c-0.738,0.803-1.476,1.625-2.205,2.448c-0.028,0.57-0.075,1.7-0.094,2.261
	c3.326,1.7,7.381,2.093,10.239,4.634c1.513,7.677-8.139,25.866-11.902,31.269c-0.719,6.811-2.943,13.472-7.306,18.807
	c0.701,6.353-2.747,11.977-5.82,17.265c-1.457,2.737-4.979,2.579-7.586,3.279c0.234,3.102,2.186,6.287,0.42,9.296
	c-2.504,4.737-4.531,10.445-9.501,13.145c-1.531,6.402-11.754,22.595-24.197,24.029c0.551,0.29,1.644,0.878,2.186,1.177
	c-0.121,0.234-0.374,0.719-0.495,0.962c1.831,1.728,2.149,4.139,1.728,6.549c-3.924,3.999-6.147,10.454-12.192,11.697
	c-2.55,0.224-3.242,2.924-4.615,4.634c-2.793,3.812-5.979,7.381-9.679,10.342c-2.336,0.15-4.671,0.168-7.007,0.056
	c0.934,3.354,1.943,7.689-1.149,10.305c-9.884,8.215-9.324,9.109-23.169,7.605c1.504,1.915,1.962,4.241,1.784,6.652
	c-19.646,21.654-34.24,15.764-40.313,15.312c0.673,3.56,1.56,7.941-1.271,10.847c-12.633,8.843-21.48,6.267-25.673,5.26
	c-4.326,1.355-8.754,2.672-12.846,4.671c-1.033,7.969-18.884,6.098-26.869,5.092c-6.905,3.145-19.044,5.746-26.841,2.438
	c-3.055-0.177-6.26,0.234-9.146-1c-1.84-0.598-3.578-1.663-5.521-1.784c-8.738,4.628-27.909-1.469-30.802-4.083
	c-1.476-1.934-2.663-4.765-5.624-4.316c-5.269,0.523-9.969-2.27-15.191-2.308c-6.708-2.27-13.575-4.97-18.62-10.146
	c0.019-0.645,0.056-1.924,0.075-2.569c-6.909-3.033-20.1-2.642-23.917-14.911c-0.308-3.008-4.027-3.223-5.671-5.307
	c-0.411-0.159-1.224-0.476-1.635-0.635c-1.429-1.859-2.98-3.597-4.625-5.241c-7.661-0.411-12.893-6.839-17.648-12.099
	c-1.756-1.831-1.065-4.419-0.878-6.633c0.486-3.111-1.102-5.979-2.579-8.567c-2.924-0.794-6.026-1-8.791-2.233
	c-1.006-0.857-14.13-17.934-16.144-23.039c-1.401-5.204,4.961-7.194,5.867-11.66c-1.7,0.346-3.391,0.785-5.064,1.252
	c-4.531-0.486-8.287-3.289-11.174-6.633c-2.026-8.103-4.052-4.233-2.7-17.115c1.775-1.654,3.83-2.952,6.157-3.653
	c0.505-3.317-1.803-5.867-3.214-8.595c-3.531-2.56-8.221-2.962-11.295-6.222c-0.121-0.486-0.355-1.467-0.476-1.953
	c-7.623-6.359-4.072-3.397-8.352-17.676c1.308-4.288,5.465-6.68,9.343-8.315c0.476-1.233,0.916-2.504,1.364-3.7
	c-0.785-1.112-1.467-2.298-2.42-3.242c-3.289-0.318-6.643-0.159-9.828-1.196c-0.682-0.748-1.364-1.476-2.055-2.177
	c-1.013-9.855-4.221-11.641,0.402-18.844c2.392-2.588,7.268-3.12,8.025-7.026c-0.561-2.466-1.504-4.802-2.354-7.156
	c-2.252-0.589-4.531-1.056-6.839-1.224c-4.263-2.497-7.082-18.899-5.279-28.915c-0.14-0.364-0.439-1.093-0.589-1.448
	c4.122-7.127,11.865-2.142,13.294-10.37c-2.943-4.41-10.118-1.794-12.276-6.773c-0.429-15.495,1.92-14.224,3.186-18.816
	c2.372-8.596,5.55-6.78,10.707-8.614c-0.438-7.082-3.055-3.257-9.455-8.044c0.543-19.499,5.382-31.671,5.811-33.717
	c5.604-5.162,15.143-0.053,13.93-6.577c-2.027-2.382-5.101-3.391-8.081-3.896c-0.775-0.71-1.542-1.401-2.317-2.083
	c0.501-2.909,1.692-13.675,11.996-29.485c0.738-6.465,2.579-12.911,6.568-18.162c2.41-2.849-0.047-6.979,1.971-10.025
	c2.252-3.662,3.662-7.894,6.708-11.005c2.195-0.308,4.372-0.701,6.558-1.065c-0.009-0.719-0.028-2.158-0.037-2.878
	c-3.695-4.903,4.851-17.729,10.146-20.339c-0.607-7.992,14.793-22.376,18.293-23.281c1.7-0.168,3.401-0.476,4.896-1.355
	c-1.177-1.719-2.345-3.429-3.662-5.026c0.888-4.456,4.419-7.689,7.11-11.136c1.999-3.205,6.951-1.756,8.763-5.138
	c9.887-17.422,14.792-12.293,20.012-11.902c-0.299-2.532-0.906-5.008-1.953-7.325c0.14-0.953,0.299-1.878,0.458-2.793
	c2.746-2.473,12.08-13.684,24.029-6.502c-0.14-3.12-1.532-6.045-1.28-9.174c3.737-4.101,8.511-6.96,13.369-9.53
	c17.136-11.267,18.629-2.419,27.093-3.886c1.85-9.76-6.526-10.83,12.173-16.658c7.365-1.631,7.339,2.34,27.262-4.167
	c3.55-11.438,24.362-1.821,28.457-5.69c5.384-4.676,24.013-1.659,30.924,0.056c2.653,0.458,4.849,2.13,7.381,2.943
	c3.703-0.466,0.527-6.098,23.898,0.177c3.672,1.046,7.53,2.579,9.296,6.26c2.577,0.462,29.562,2.135,37.286,15.929
	c3.478,1.258,14.082,2.216,22.917,11.435c0.224,1.028,0.467,2.065,0.729,3.111c-0.196,1.037-0.402,2.055-0.598,3.12
	c5.448,3.591,5.558,1.05,11.314,9.184c4.26-2.345,8.296,1.336,11.538,3.756c0,0,4.427-33.549,9.595-50.468
	c1.719-3.718,4.998-6.521,6.185-10.52c2.009-1.243,4.223-2.055,6.344-3.046c2.653-3.466,4.55-7.455,6.577-11.304
	c-72.294-2.266-61.311-14.477-72.517-18.087c-3.868,4.952-9.978,7.091-15.06,10.492c-9.435,0.28-11.786,1.136-30.746-13.537
	c-1.336-0.818-38.106-23.924-40.257-25.645c-41.766-4.311-77.238,31.995-110.401-67.406c-1.829-7.493-38.375-18.181-45.629-36.66
	c-15.023-40.434,5.085-41.205,14.911-49.646c-9.368-3.343-18.936-2.174-19.46-14.322c15.383-5.94,11.906-4.513,17.741-3.298
	c0.953-0.972,1.897-1.943,2.84-2.896c0.495-0.075,1.476-0.224,1.962-0.299c6.1-4.035,13.413-5.838,20.475-7.473
	c11.007-2.548,22.084-4.772,33.171-6.937c5.552-1.084,11.108-2.151,16.661-3.231c4.139-0.806,9.381-3.368,13.374-2.37
	c1.803-0.747,3.634-1.448,5.456-2.158c0.065,1.448,0.635,2.803,1.158,4.148c0.477-0.028,1.42-0.093,1.897-0.131
	c1.074-0.551,2.214-0.878,3.419-0.981c-0.121-1.121-0.252-2.242-0.374-3.345c2.336-0.159,4.634-0.598,6.923-1.102
	c5.568-1.177,11.407,0.925,16.817-1.233c-0.392-1.644-0.794-3.27-1.169-4.899c-0.804-3.553,20.79-3.317,22.264-3.108
	c0.187,0.458,0.579,1.364,0.775,1.822c0.439-0.075,1.308-0.224,1.738-0.299c0,0,25.337,0.757,35.175-1.112
	c-0.019-0.533-0.056-1.607-0.075-2.149c-5.493,0.075-10.987,0.402-16.48,0.131c1.924-5.281,34.757-38.663,40.341-39.323
	c29.802-4.555,110.574-161.003,147.154-158.029c3.868-3.952,8.464-6.988,13.612-8.997c1.831-4.092,3.802-8.137,5.12-12.435
	c-3.896-4.167-7.539-8.548-11.314-12.818c-32.754,6.959-46.232,16.191-50.581-17.265c-1.173-10.316-26.781-29.294-32.297-36.37
	c-1.14-1.479-14.034-18.583-18.508-20.993c-4.372,19.942-12.235,36.152-59.979,51.16c19.866,11.248,22.219,1.541,49.002,32.83
	c5.663,6.682,9.248,5.11,4.877,11.734c-5.932,1.112-11.613-1.037-17.115-2.952c1.663,2.84,4.456,4.867,5.811,7.922
	c-4.484-0.663-7.988-3.728-11.874-5.792c-25.33-13.668-16.271-5.041-31.709-3.008c-29.625,6.709-44.283-18.222-52.206-15.901
	c-4.101-1.485-7.661-4.167-11.893-5.325c-3.008,0.542-6.063,0.869-9.072,1.411c-5.634,1.271-11.136-2.915-16.723-0.831
	c-3.457,0.411-5.064,3.886-7.969,5.325c-4.12,2.269-38.909,8.759-44.115,9.595c-27.427-0.478-6.005-3.023-67.481,4.662
	c-0.007,0.001-22.535-2.897-38.155-0.626c-4.549,3.297-4.517,6.42-19.274,10.735c-7.577,5.344-13.005,13.229-20.909,18.209
	c-7.697,7.202-18.054,3.775-21.236,9.501c-10.809,20.587-0.906,12.406-15.359,31.475c-7.641,8.061-8.093,52.662-20.311,65.416
	c-0.112,1.317-0.234,2.644-0.346,3.989c0.626,1.224,1.243,2.457,1.859,3.728c-2.672,2.382-5.213,5.774-9.118,5.876
	c-3.064,0.215-6.857,1.252-8.997-1.672c-10.063-10.697-57.888-70.967-60.979-123.125c0.75-2.433,0.144-13.729-0.411-16.789
	c-7.685-10.377-5.613-10.385-6.745-16.359c0.682-6.543-2.556-7.089,1.616-19.647c0.635-0.766,1.261-1.532,1.897-2.289
	c0.467-0.149,1.411-0.448,1.878-0.598c2.282-1.908,19.398-8.619,20.339-8.847c2.943,0.056,4.839,3.186,7.922,2.681
	c4.035-3.894,14.583-6.494,20.591-6.418c0.29-2.513,2.906-1.747,4.69-1.99c0.617-2.849,4.232-1.429,6.344-1.971
	c1.87-3.233,19.645-13.384,35.782-13.042c0.075-0.626,0.215-1.878,0.29-2.494c2.055-0.869,4.26-1.121,6.474-1.102
	c0.065-0.355,0.196-1.074,0.271-1.439c1.149-0.757,2.111-1.766,3.195-2.616c0.243-1.84,2.074-1.644,3.485-1.906
	c3.668-8.064,7.591,8.828,18.339,3.298c8.922-5.419,19.956-3.494,29.522-6.867c0.075-3.457,1.373-6.615,2.812-9.698
	c1.485-0.878,3.139-1.364,4.83-1.644c0.505-1.14,1-2.27,1.504-3.391c0.663-0.047,1.99-0.149,2.653-0.196
	c-0.364-1.14-0.747-2.28-1.121-3.401c4.387-1.967,3.901-1.862,9.511-2.41c1.336-2.252,4.213-1.906,6.409-1.495
	c2.793,0.598,3.653,3.7,5.11,5.774c10.884-7.334,23.926-10.025,35.801-15.247c4.195-1.56,4.148-7.035,8.072-8.997
	c0.486-0.075,1.467-0.215,1.953-0.28c0.533-0.962,1.252-1.766,2.149-2.392c0.047-0.822,0.103-1.635,0.159-2.438
	c0.327-0.607,0.962-1.822,1.28-2.429c0.533,0,1.579-0.009,2.102-0.019c0.831-0.934,1.672-1.85,2.513-2.765
	c1.056,0.738,2.308,0.719,3.541,0.626c1.476-2.485,4.839-2.7,7.399-2.308c2.177,0.486,2.803,2.868,3.746,4.587
	c1.532-0.308,3.064-0.635,4.578-1.018c0.038-1.029,4.177-23.124,5.213-24.86c2.13-0.364,4.363-0.654,6.4,0.28
	c13.704,5.395,14.246,1.639,17.452,15.191c0.916,0.607,1.85,1.215,2.784,1.822c10.215-3.834,19.182,4.695,23.926-0.832
	c6.557,0,9.256,3.248,12.155,0.757c0.402,0.037,1.205,0.103,1.607,0.14c-1.224-4.597-5.325-7.624-7.091-11.986
	c1.818-1.933,0.546-3.653-0.953-9.006c-1.011-0.534-21.504-34.752-23.618-43.901c-1.906-2.719-3.13-5.82-4.531-8.81
	c-0.411,0-1.233,0-1.644,0c-0.019-0.448-0.037-1.345-0.056-1.794c-0.355-0.019-1.056-0.065-1.411-0.093
	c-0.514-3.569-3.363-6.157-4.008-9.698c-1.271-4.746-6.913-3.83-10.566-5.064c-0.663-4.185,3.214-6.867,3.102-10.856
	c-1.317-1.644-2.046-3.616-2.139-5.718c-1.915-2.083-0.99-4.578-0.953-7.044c-1.784-2.98-2.999-6.213-2.681-9.754
	c-1.093-1.953-1.999-3.989-2.765-6.082c0.579-1.205,1.168-2.41,1.747-3.616c-11.057-27.128,7.979-87.203,13.407-92.687
	c2.653-2.859,5.316-5.904,6.68-9.613c-9.071-7.769,0.595-14.171,11.603-18.713c0.888-2.971,1.812-5.97,1.925-9.1
	c7.581-16.647,7.622-11.021,13.724-19.246c6.011-2.939,9.15-11.155,31.821-14.528c9.441-3.179,11.289-9.503,17.386-10.996
	c4.879-1.838,37.52,5.091,53.449,6.362c0.383,0.252,1.13,0.766,1.513,1.028c5.228-0.337,17.888,4.09,38.314-5.69
	c16.056-8.965,9.641-7.974,38.248-1.364c4.485,1.184,18.691-3.086,22.347-6.147c9.531-8.112,18.396-2.677,27.943-3.84
	c3.55-1.093,5.017-5.129,8.212-6.839c4.895-2.354,9.819-4.681,14.92-6.596c3.32-1.147,7.721-6.741,16.434-6.26
	c31.784,1.481,23.517,8.231,33.157,12.099c7.307,3.01,30.556,13.814,30.924,13.883c7.688,1.777,16.186,1.659,28.327,11.874
	c2.621,2.114,18.396,11.372,21.74,12.51c2.569,2.747,6.54,3.335,9.296,5.839c1.925,1.7,3.924,3.307,5.97,4.858
	c1.271,0.149,2.56,0.28,3.868,0.42c1.551-4.073,2.859-8.259,4.802-12.183c0.847-4.867,33.233-75.785,69.191-75.553
	c0.99,0.028,1.682-0.439,2.055-1.383c4.326-9.912,10.137-19.33,17.91-26.916C854.138,34.04,855.269,31.415,857.614,30.023
	 M870.721,387.982c0.096,0.829,26.921,24.72,30.429,26.168c0.822,1.093,1.663,2.186,2.532,3.279
	c0.504,0.056,1.523,0.187,2.037,0.252c1.89,1.718,10.501,8.092,19.862,10.959c2.523-4.242,5.372-8.315,9.501-11.155
	c-1.962-1.719-3.971-3.373-5.932-5.073c-0.495-0.047-1.495-0.149-1.999-0.206c-1.191-3.613-16.483-17.867-22.235-24.216
	c-3.139,0.009-6.278,0.047-9.399-0.056c-1.999-3.233-6.39-1.149-9.417-2.195c-3.765-0.682-2.354-6.185-6.063-6.96
	C877.476,382.376,874.337,385.441,870.721,387.982 M674.276,380.461c1.202,4.874,8.212,18.48,8.212,18.48
	c0.972,0.037,1.962,0.075,2.952,0.131c6.981,14.259,1.781,0.19,10.566,18.825c1.598,1.962,3.821,3.326,5.381,5.363
	c1.635,0.019,3.27,0.028,4.924,0.028c1.495-2.589,13.206-25.316,14.247-28.719c-14.087-0.177-17.984,10.31-40.808-11.753
	C678.265,381.339,676.471,380.162,674.276,380.461 M825.186,387.608c-0.336,2.336-0.635,4.69-1.009,7.026
	c-11.197,3.273-2.39,4.65-23.216,25.393c-1.003,0.925-28.875,26.465-32.923,34.455c0,0.001-20.367,44.759-20.367,44.76
	c7.588,15.405,19.522,43.271,19.797,60.381c12.173-3.933,24.365-8.296,37.137-9.828c10.649,0.729,12.636,13.889,10.258,21.432
	c-1.187,3.176-3.354,5.951-3.952,9.352c0.912-0.402,10.719-5.047,12.369-6.362c0.318,1.485,0.663,2.98,1.028,4.475
	c-0.271,0.439-0.803,1.317-1.065,1.756c-9.629,3.811-5.229,3.44-26.654,18.386c-10.858,8.687-6.412,10.056-11.099,16.013
	c-1.766,4.942-6.017,8.38-9.997,11.547c-28.969,20.392-42.068,1.597-51.711,14.397c-8.343,7.259-18.414,12.155-28.56,16.368
	c-24.843,49.921-20.586,4.852-52.803,91.665c-0.2,0.539,1.199,4.911,1.206,6.002c0.016,2.62-0.708,5.241-1.113,7.812
	c-0.532,3.38-2.279,8.447,1.742,9.967c5.245,1.982,18.693-8.747,22.794-11.113c22.719-13.103,40.614-30.908,59.863-48.384
	c18.798-17.067,37.519-34.235,55.884-51.768c11.642-11.115,22.969-22.554,34.238-34.046c6.397-6.523,13.112-13.766,20.058-20.127
	c7.119-6.519,15.823-11.017,22.877-17.424c0.962-0.262,1.962-0.495,2.962-0.719c-1.906-4.643-0.224-9.557-0.028-14.331
	c-0.196-3.578,3.373-5.344,5.512-7.614c5.237-3.959-1.935-3.597,19.451-12.706c4.517-32.105,18.513-33.153,28.896-55.971
	c-7.02-10.294-11.517-17.175-10.183-29.083c-0.246-6.649-3.546-6.418,4.475-15.91c0.682-0.934,1.896-1.728,1.672-3.036
	c-25.684-7.092-51.84-53.558-78.412-64.576C831.268,386.431,828.343,387.655,825.186,387.608 M910.857,387.562
	c7.988,9.24,16.723,17.854,25.925,25.879c1.813,1.915,4.531,1.542,6.923,1.57c2.737,4.092,6.502,8.847,11.996,8.408
	c3.466-0.234,6.988,1.504,10.314-0.084c5.409,3.13,11.734,3.139,17.713,4.354c4.541,1.336,7.969-2.775,12.295-3.307
	c1.411,1.56,2.569,3.307,3.485,5.213c0.336,0.103,1,0.318,1.336,0.42c5.797-15.514-4.268-15.482,35.203-9.249
	c0.411-1.336,0.822-2.672,1.243-3.999C1009.727,394.775,946.112,388.789,910.857,387.562 M922.469,505.025
	c-0.88,1-25.287,30.85-27,46.46l0.495,0.757c3.523,0.829,23.981-1.253,30.597,10.744c2.56,0.336,5.671-0.43,7.596,1.747
	c2.373,0.28,4.765,0.476,7.166,0.691c0.925,1.168,1.887,2.308,2.831,3.485c0.533,0.047,1.598,0.131,2.139,0.177
	c9.47-25.116,19.026,7.008-17.938-62.137C926.477,506.072,924.497,505.39,922.469,505.025 M1168.804,658.317
	c-0.396,5.192,20.966,39.494,22.058,40.126c2.494,5.483,2.618,6.351,5.708,9.389c0.781,4.589,8.558,15.835,9.389,16.835
	c1.569,3.616,3.83,6.885,5.437,10.501c0.541,0.487,31.548,52.479,32.624,54.392c7.192,1.535,5.487-8.462,21.338-10.501
	c0.766,0.944,1.532,1.906,2.317,2.896c1.289-0.448,2.597-0.878,3.924-1.308c0-0.001-82.214-132.832-82.214-132.832
	C1182.332,650.937,1175.727,654.954,1168.804,658.317 M1150.11,729.853c-5.474,8.678-12.072,19.22-19.731,26.159
	c0.989,3.931,6.782,13.366,7.595,14.369c0.037,0.477,0.112,1.429,0.14,1.906c0.271,0.598,0.813,1.784,1.074,2.382
	c2.261-0.299,4.587-1.084,6.829-0.149c13.62-27.866,25.313,18.107,35.651,29.55c0.671,1.952,13.688,22.832,14.369,23.833
	c2.691-1.719,5.325-3.569,7.698-5.727c-0.168-3.223,1.523-6.446,0.841-9.557c-7.803-13.632-48.993-79.747-51.543-83.728
	C1152.165,727.284,1150.614,728.854,1150.11,729.853 M600.161,738.691c-4.849,4.279-10.333,7.745-15.322,11.837
	c0.364,4.139,5.045,5.166,8.352,5.989c9.074-11.342,4.352-9.188,8.567-15.705C602.955,739.943,601.329,737.421,600.161,738.691
	 M573.844,758.254c-1.261,2.214-3.634,3.261-5.774,4.428c-1.187,2.653-3.616,4.326-6.372,5.054c0.691,4.952-1.869,9.24-3.13,13.827
	c15.185,0.806,2.137,1.827,29.046,1.981c0.355-0.589,1.065-1.756,1.42-2.345c-0.019-2.242,0.178-4.466,0.383-6.689
	c0.42-0.224,1.261-0.682,1.682-0.906c-0.065-2.261,0.486-4.615-0.056-6.811c-3.485-4.242-7.717-8.212-8.857-13.827
	C578.431,752.621,575.656,755.302,573.844,758.254 M1369.743,830.014c-0.055,1.011-10.271,107.055-8.193,117.099
	c0.99,1.355,1.915,2.765,2.831,4.204c1.476-0.14,2.971-0.28,4.475-0.43c21.425-126.291,19.722-116.922,19.974-120.117
	C1382.608,829.575,1376.012,828.501,1369.743,830.014 M1345.35,831.827c-2.578,0.43-5.026,1.42-7.222,2.803
	c-0.265,5.827-0.573,3.854-1.14,8.072c-0.421,0.374-1.252,1.121-1.672,1.495c-0.034,0.469-2.688,18.761-2.812,19.04
	c-1.131,13.626-0.184,0.472-1.616,13.537c1.134,4.437-2.267,10.133-1.14,16.63c0.464,1,4.943,7.927,6.885,12.725
	c0.318,0.374,0.944,1.13,1.252,1.513c0.131,0.514,0.402,1.551,0.532,2.065c5.492,7.044,15.632,26.089,18.863,28.962
	c0.357-4.785,6.802-95.703,6.699-108.794C1357.719,829.958,1351.488,830.706,1345.35,831.827 M1394.183,833.938
	c-0.411,2.28-0.934,4.55-1.317,6.848c-0.383,0.392-1.14,1.177-1.523,1.56c-2.31,10.231-16.553,95.678-18.181,106.524
	c3.238-1.746,37.871-46.193,39.64-49.385c0.511-2.239,5.558-46.05,6.306-58.802c-0.841-0.953-1.644-1.897-2.42-2.849
	c-6.484-3.083-13.537-4.942-20.638-5.904C1395.585,832.425,1394.65,833.434,1394.183,833.938 M1321.031,838.862
	c2.793,5.391,5.036,11.146,6.232,17.116c0.495-0.019,1.485-0.075,1.981-0.103c0.234-4.326,0.775-8.633,1.317-12.93
	c0.28-0.439,0.85-1.308,1.14-1.747c-0.075-1.99-0.234-3.971-0.42-5.932C1327.702,835.919,1324.095,836.834,1321.031,838.862
	 M1425.985,841.777c-0.953,2.336-1.233,4.83-1.298,7.343c-4.714,5.75-0.448-3.179-6.605,39.491c0.617,0.028,1.84,0.075,2.457,0.093
	c2.115,0.064,5.172-4.691,6.23-5.971c4.662-5.643,12.982-14.951,13.764-22.448c1.252-1.56,2.42-3.186,3.681-4.737
	c0.028-1.663,0.383-3.606-1.364-4.503C1437.617,847.326,1431.89,844.28,1425.985,841.777 M1310.39,846.691
	c-0.411,2.896,1.28,5.493,2.093,8.193c-0.495-0.075-1.485-0.215-1.981-0.29c-0.897-1.439-1.728-2.896-2.466-4.4
	c-4.581,1.129-3.584,0.802-3.317,5.213c1.289,1.887,2.616,3.756,4.204,5.437c0.42,3.849,6.293,11.646,9.585,14.107
	C1321.081,871.12,1316.182,841.322,1310.39,846.691 M1420.146,897.178c-1.775,2.242-4.064,4.466-4.073,7.539
	c-1.308,14.425-3.541,28.775-4.41,43.237c1.364,0.467,2.756,0.981,4.139,1.542c0.861-1.002,54.817-73.513,52.402-78.02
	c-4.615-5.4-10.211-9.819-15.546-14.462C1441.4,870.038,1431.077,883.865,1420.146,897.178 M1465.728,885.948
	c-48.382,68.228-46.192,64.247-45.293,66.005c0,0,5.015,1.756,13.762,7.801c2.278-2.462,45.071-50.118,53.336-61.352
	c-0.299-1.869-1.102-3.531-2.27-4.979c-1.364,0.019-2.7,0.037-4.008,0.075c-2.691,1.943-4.839,4.503-6.474,7.381
	c-0.561,0.037-1.691,0.112-2.252,0.159c-1.744-3.084-4.698-1.717,2.401-9.978c0.1-1.349,0.339-4.649,2.074-8.866
	c-0.682-1.822-2.083-3.167-3.644-4.232C1471.38,881.183,1467.718,882.753,1465.728,885.948 M1242.741,906.39
	c2.149,5.961,7.203,10.398,8.95,16.546c7.019,9.174,19.148,34.989,24.496,37.688c3.578-6.119,6.829-12.426,9.903-18.806
	c-10.342-16.826-19.909-34.119-30.672-50.674C1249.813,894.842,1247.01,901.373,1242.741,906.39 M1489.243,903.606
	c-0.918,1.003-50.084,55.335-51.552,58.961c5.016,3.968,11.63,11.462,14.434,16.751c16.066-4.631,13.9,1.028,51.888-50.057
	C1502.171,923.409,1491.904,897.905,1489.243,903.606 M1390.287,934.576c-2.943,4.027-6.699,7.493-8.894,12.014
	c29.481-1.86,15.047,0.192,26.636,0c1.196-12.93,3.092-25.795,4.027-38.734C1404.339,916.358,1397.603,925.729,1390.287,934.576
	 M965.978,918.451c-2.765,12.016,0.814,7.99-0.215,16.097c2.205,1.822,3.672,4.279,4.54,6.998c2.504,0.243,4.839,1.187,6.923,2.607
	c0.028-8.903-1.728-17.667-3.261-26.393C971.265,917.255,968.594,917.928,965.978,918.451 M1502.585,937.369
	c-9.501,11.828-19.161,23.515-28.607,35.38c13.173-3.952,26.355-7.885,39.491-11.958c-0.392-2.354-0.897-4.671-1.607-6.942
	c-2.074,0.916-3.989,2.121-5.848,3.391c-1.018-0.869-2.037-1.728-3.018-2.56c0.019-2.448,0.103-5.409,2.653-6.605
	c0.738-1.317,1.467-2.625,2.252-3.905c-0.037-2.308-0.206-4.587-0.532-6.848C1505.742,937.313,1504.163,937.341,1502.585,937.369
	 M1385.7,954.765c0.458,0.308,1.364,0.944,1.822,1.252c0.551-0.14,1.663-0.43,2.224-0.57c0.794-1.822,0.897-3.756-0.29-5.437
	C1386.868,950.393,1385.448,952.159,1385.7,954.765 M1400.443,950.159c-0.42,1.719-0.803,3.447-1.14,5.204
	c4.691,0.931,4.437,0.102,4.354-3.672C1402.704,950.953,1401.489,950.627,1400.443,950.159 M1291.116,953.345
	c-1.876,3.183-8.811,15.337-9.221,19.647c0.476,1.093,0.841,2.233,1.112,3.419c3.807,2.719,4.099,2.17,28.906,13.313
	c-0.037-4.167-2.597-7.521-4.774-10.828c-0.15-0.477-0.439-1.439-0.589-1.925c-0.719-0.989-12.124-20.754-13.042-23.655
	C1292.91,953.317,1291.714,953.336,1291.116,953.345 M1371.5,958.521c1.934,1.205,3.877,0.701,5.4-0.916
	c-0.112-1.569-0.215-3.139-0.308-4.69C1374.48,954.373,1372.836,956.354,1371.5,958.521 M1392.277,955.914
	c0,1.476-0.019,2.971,0.159,4.466c1.224,0.85,2.551,0.075,3.84-0.262c0.028-1.654,0.065-3.298,0.103-4.933
	C1394.987,955.391,1393.623,955.643,1392.277,955.914 M1380.048,962.454c1.093-0.533,2.943-0.542,3.13-2.111
	c0.514-1.243,0.308-3.774-1.57-3.251C1378.712,957.017,1379.702,960.632,1380.048,962.454 M1404.31,956.989
	c0.29,1.728-0.729,4.456,1.635,5.017C1405.749,960.156,1407.702,956.223,1404.31,956.989 M965.539,962.482
	c3.578,0.71,7.128,1.626,10.23,3.625c0.355-2.149,0.364-4.335,0.402-6.493C972.592,960.324,968.612,960.277,965.539,962.482
	 M1425.518,959.679c-0.775,2.364-0.645,5.026,2.224,5.718c0.318-1.756,0.505-3.541,0.598-5.316
	C1427.629,959.978,1426.219,959.782,1425.518,959.679 M1417.951,961.37c-0.598,1.42-0.495,3.018-0.626,4.54
	c0.906,0.29,1.831,0.589,2.775,0.897C1421.948,959.748,1418.53,960.369,1417.951,961.37 M1386.027,962.015
	c-0.019,1.252-0.028,2.523-0.009,3.802c1.168,0,2.364,0.009,3.569,0.028c0.121-1.373,0.243-2.747,0.383-4.101
	C1388.634,961.8,1387.326,961.894,1386.027,962.015 M1398.836,961.772c-0.028,1.308-0.019,2.625,0.019,3.961
	c0.607,0.009,1.822,0.009,2.429,0.009c0.243-1.205,0.448-2.429,0.701-3.625C1400.919,961.987,1399.863,961.875,1398.836,961.772
	 M1410.066,965.322c-0.075,1.084-0.056,2.177,0.047,3.279c1.065,0.037,2.149,0.084,3.251,0.14c-0.075-1.672-0.168-3.335-0.271-4.98
	C1412.037,964.145,1410.327,963.893,1410.066,965.322 M1374.489,964.622c0.028,1.037,0.075,2.083,0.14,3.139
	c0.607,0.065,1.831,0.187,2.438,0.243c0.047-1.233,0.103-2.466,0.168-3.672C1376.554,964.397,1375.18,964.547,1374.489,964.622
	 M1470.026,978.009c-4.026,4.036-7.474,8.689-10.847,13.285c2.871,5.184,1.831,2.966,7.147,17.611
	c16.835-2.504,33.727-4.634,50.562-7.194c-0.026-2.638,0.293-27.511-2.55-34.661c-1.458,0.168-2.887,0.374-4.232,0.925
	c-0.925-0.495-1.831-0.99-2.719-1.476C1494.97,970.442,1482.349,973.805,1470.026,978.009 M1436.215,967.331
	c-0.831,1.943-0.916,4.064-0.271,6.091c1.084-0.019,2.186-0.028,3.298-0.019c0.14-1.542,0.28-3.074,0.448-4.587
	C1438.532,968.293,1437.364,967.789,1436.215,967.331 M1381.739,969.947c-3.76,0.722-2.285,1.957-2.317,16.125
	c2.513,1.822,5.484,2.616,8.567,2.728c4.708-6.334,9.24-12.818,13.677-19.348C1395.099,967.873,1388.251,968.443,1381.739,969.947
	 M1420.604,969.358c-0.318,1.84-0.243,3.718-0.252,5.596c1.794-1.57,3.391-3.354,4.877-5.223
	C1423.911,968.882,1421.725,967.508,1420.604,969.358 M1427.798,973.142c0.271,0.346,0.803,1.018,1.074,1.364
	c1.028-0.262,2.289-0.159,3.111-1.018c0.196-1.626,0.065-3.27,0.037-4.877C1430.357,969.863,1428.994,971.451,1427.798,973.142
	 M1409.075,971.143c-1.271,6.512-1.654,13.173-2.345,19.769c4.466-4.681,8.661-9.604,12.902-14.49
	C1416.39,974.198,1412.878,972.152,1409.075,971.143 M1400.602,977.748c-2.326,3.485-5.017,6.736-6.923,10.473
	c3.055,0.888,6.213,1.289,9.399,1.42c0.607-5.447,1.401-10.884,1.654-16.368C1402.947,974.357,1401.713,976.038,1400.602,977.748
	 M1430.806,976.702c-0.065,1.551-0.084,3.12-0.065,4.69c0.673,0.234,2.018,0.701,2.691,0.934c0.177-1.495,0.514-2.999,0.299-4.484
	C1432.758,977.384,1431.778,977.047,1430.806,976.702 M1438.513,983.353c1.018-0.533,2.065-1.056,3.12-1.57
	c-0.271-1.485-0.42-2.99-1.065-4.344C1437.299,977.271,1438.205,981.279,1438.513,983.353 M1445.39,978.364
	c-0.383,1.121-0.719,2.252-1.037,3.41c2.149-0.551,4.428-1.121,6.073-2.737C1448.725,978.766,1447.053,978.561,1445.39,978.364
	 M1336.288,979.85c-1.289,1.373-0.916,3.588-0.374,5.241c1.056,0.206,2.139,0.28,3.242,0.411
	C1340.458,981.483,1341.153,978.835,1336.288,979.85 M1454.461,982.447c0.738,1.7,1.663,3.335,2.868,4.783
	c1.934-2.158,3.821-4.4,5.148-6.998C1459.749,980.803,1457.096,981.588,1454.461,982.447 M1289.883,984.699
	c10.106,23.256,12.733,20.839,15.789,24.412c2.681-0.308,6.371-0.383,7.203-3.597c0.467-0.206,1.401-0.626,1.869-0.831
	c1.513-2.607,1.458-5.634,1.598-8.53C1307.625,992.126,1298.908,987.978,1289.883,984.699 M1439.093,988.567
	c-0.504,1.943,1.299,3.036,2.532,4.148c0.598-2.055,0.616-4.176,0.103-6.222C1440.896,987.1,1438.915,987.1,1439.093,988.567
	 M1446.875,989.435c-0.607,2.177-0.467,4.494,1.243,6.166c1.271-1.542,1.513-3.485,1.523-5.4
	C1448.949,990.015,1447.566,989.632,1446.875,989.435 M1453.462,998.591c0.701,0.037,2.121,0.121,2.821,0.168
	c0.075-1.355,0.15-2.7,0.224-4.027C1455.311,995.872,1454.302,997.171,1453.462,998.591 M1435.767,996.312
	c-2.065,2.906-3.457,6.661-6.82,8.333c0.719,2.99,1.065,6.063,1.112,9.156c1.99-0.336,3.989-0.635,5.979-1.084
	c2.551-2.373,4.419-5.4,6.624-8.091c-0.962-2.868-2.055-5.783-4.055-8.091C1437.645,996.414,1436.692,996.339,1435.767,996.312
	 M1005.384,1001.048c-0.845,2.912-7.559,33.349-8.128,38.912c1.439,3.868,4.475,7.324,8.119,9.324
	c2.337-8.634,9.196-41.937,9.969-52.271C1011.896,998.021,1008.673,999.619,1005.384,1001.048 M1453.293,1002.281
	c-1.243,2.018-1.448,7.035,2.111,5.792c1.13-1.915,0.43-4.129-0.234-6.045C1454.704,1002.094,1453.76,1002.216,1453.293,1002.281
	 M1200.942,1002.73c-0.542,4.783-1.775,9.445-2.728,14.154c4.214,3.13,9.8,2.961,14.696,4.363
	c-2.513-6.558-6.895-12.192-10.361-18.265C1202.147,1002.917,1201.344,1002.795,1200.942,1002.73 M1405.366,1005.486
	c-0.383,3.961,1.532,7.624,2.7,11.304c4.26-0.579,8.801-0.439,12.827-2.065C1420.442,1013.001,1413.575,997.988,1405.366,1005.486
	 M1466.924,1012.605c2.251,10.109,3.905,20.404,3.774,30.784c15.359-2.822,30.709-5.727,46.059-8.623
	c0.336-9.763,0.299-19.526,0.177-29.289C1500.277,1007.915,1483.582,1010.138,1466.924,1012.605 M1458.796,1006.813
	c-0.075,1.056-0.14,2.121-0.187,3.195c1.542-0.355,3.083-0.719,4.662-1.065c-0.467-0.766-0.925-1.523-1.355-2.27
	C1460.851,1006.71,1459.814,1006.756,1458.796,1006.813 M1450.911,1014.922c0.103,0.645,0.318,1.934,0.42,2.579
	c0.99-0.028,1.999-0.037,3.027-0.047c0.047-0.71,0.14-2.13,0.187-2.84C1453.312,1014.698,1452.107,1014.8,1450.911,1014.922
	 M1438.112,1016.837c-1.56,2.046-3.12,4.092-4.541,6.241c1.233,3.046,1.738,6.315,2.784,9.436c1.121,1.915,2.625,3.588,3.672,5.587
	c-1.925,2.672-2.504,5.867-1.897,9.1c0.421,0.42,1.271,1.261,1.7,1.682c4.017-0.476,7.997-1.224,11.94-2.158
	c0.14-10.445-0.776-21.021-4.055-30.989C1444.474,1015.707,1441.279,1016.211,1438.112,1016.837 M1457.413,1017.08
	c-0.682,2.476-1.532,6.241,2.121,6.586c0.71-2.083,0.766-4.26,0.215-6.362C1459.16,1017.248,1458.002,1017.136,1457.413,1017.08
	 M1411.411,1021.228c2.102,3.074,6.11,3.41,9.361,2.102c-0.047-1.233-0.065-2.457-0.075-3.662c-2.093-0.15-4.185-0.29-6.25-0.374
	C1413.419,1019.939,1412.411,1020.583,1411.411,1021.228 M1197.205,1022.218c-2.046,10.137-3.457,20.423-4.045,30.746
	c15.303,2.196,30.634,4.316,46.003,6.017c-3.008-7.867-7.46-10.996-10.978-19.246
	C1216.881,1037.629,1228.699,1025.917,1197.205,1022.218 M1462.991,1023.685c-0.757,2.037-0.729,4.204-0.374,6.334
	c0.579,0.103,1.747,0.29,2.326,0.383c0.906-2.13,0.785-4.428,0.486-6.671C1464.822,1023.722,1463.598,1023.694,1462.991,1023.685
	 M1454.629,1026.282c-0.355,1.953-0.523,3.924-0.607,5.914c1.093,0.084,2.196,0.178,3.326,0.28c0.215-1.897,0.364-3.793,0.486-5.671
	C1456.75,1026.619,1455.685,1026.441,1454.629,1026.282 M1459.721,1033.046c-0.234,2.074-0.243,4.176-0.028,6.269
	c0.832-0.355,1.672-0.729,2.513-1.121c0.224-1.607,0.15-3.223,0.187-4.821C1461.487,1033.252,1460.59,1033.14,1459.721,1033.046
	 M1497.736,1042.146c-9.006,1.869-18.153,3.064-27.056,5.353c0.561,8.483-1.523,16.77-2.7,25.103
	c0.187,0.523,0.542,1.551,0.729,2.065c15.125,0.476,30.27-0.009,45.405-0.009c1.719-11.809,2.158-23.777,2.149-35.688
	C1510.012,1039.549,1503.911,1041.109,1497.736,1042.146 M1462.916,1044.753c1.523-0.355,3.074-0.691,4.597-1.177
	c-0.467-0.916-1.009-1.869-1.682-2.578C1463.645,1040.819,1463.495,1043.258,1462.916,1044.753 M1455.9,1042.323
	c-1.084,0.99-0.887,2.644-1.243,3.971c1.514-0.28,3.036-0.57,4.578-0.841c-0.15-1.103-0.28-2.196-0.392-3.27
	C1457.834,1042.109,1456.853,1042.155,1455.9,1042.323 M1458.964,1050.629c-0.243,1.653-0.159,3.335-0.149,5.026
	c1.065,0.009,2.149,0.047,3.26,0.084c0.589-2.27,0.738-4.643,0.084-6.904C1461.094,1049.414,1459.637,1049.555,1458.964,1050.629
	 M1193.328,1056.945c-2.385,5.865-2.116,28.397-1.943,34.689c23.291-7.876,46.274-16.611,69.406-24.935
	C1259.207,1064.941,1194.341,1057.069,1193.328,1056.945 M1437.486,1059.205c-0.738,1.85-0.439,3.905-0.495,5.867
	c0.719,0.047,2.149,0.15,2.868,0.206c1.766-2.775,1.719-6.082,0.831-9.137C1439.569,1057.103,1438.224,1057.897,1437.486,1059.205
	 M1453.733,1061.307c0.598,1.112,1.112,2.569,2.728,2.018c1.093-1.747,0.897-3.961-0.065-5.699
	C1454.788,1058.196,1454.461,1059.981,1453.733,1061.307 M1462.589,1059.318c0.028,1.803-1.345,5.316,1.196,5.867
	c1.812-1.57,1.794-4.083,1.569-6.25C1464.411,1059.047,1463.486,1059.177,1462.589,1059.318 M1457.04,1066.894
	c-0.15,1.896-0.178,3.802-0.103,5.718c0.878-0.149,1.775-0.29,2.691-0.42c0.187-1.943,0.29-3.877,0.252-5.811
	C1458.917,1066.539,1457.965,1066.707,1457.04,1066.894 M1254.793,1072.659c-63.215,22.966-53.569,18.675-58.316,23.3
	c-2.055,0.476-5.353,0.981-4.905,3.849c0.831,8.866,1.196,17.872,3.494,26.523c2.169-1.516,66.807-53.384,68.49-56.532
	C1260.538,1070.454,1257.67,1071.575,1254.793,1072.659 M1270.021,1070.192c-3.161,2.53-59.048,48.016-68.359,56.13
	c0,0.561-0.019,1.691-0.028,2.261c-1.243,0.897-2.476,1.784-3.746,2.635c-0.075,1.018-0.121,2.055-0.159,3.102
	c0.43,0.047,1.308,0.131,1.747,0.168c0.084,1.626,0.308,3.279,1.121,4.755c-0.495-0.037-1.485-0.112-1.99-0.159
	c0.112,1.205,0.234,2.429,0.374,3.662c1.532-0.028,3.083-0.065,4.643-0.131c1.289-0.542,2.672-0.775,4.064-1
	c0.402-0.411,1.196-1.224,1.598-1.626c1.028-0.047,2.083-0.075,3.148-0.084c0.411,0.505,1.233,1.504,1.644,2.009
	c-1.504,2.41-3.877,4.008-5.951,5.886c-0.019,0.551-0.065,1.654-0.084,2.205c-1.215,1.158-2.42,2.317-3.625,3.494
	c-0.028,2.065-0.028,4.139,0.009,6.222c90.154-44.122,87.272-42.954,86.577-46.451c-1.99-1.682-4.774-2.009-6.745-3.662
	c-0.803-1.215-1.13-2.644-1.654-3.943c1.205-1.13,2.42-2.261,3.653-3.373c-0.019-0.467-0.056-1.392-0.066-1.859
	c-2.121-0.673-4.157-1.532-6.138-2.476c-0.439-1.336-0.878-2.644-1.336-3.933c2.111-2.803,5.045-4.774,7.932-6.708
	c-2.662-10.346-12.867-14.063-14.612-17.087C1271.534,1070.22,1270.526,1070.202,1270.021,1070.192 M1466.326,1078.825
	c-0.691,2.158-1.439,4.297-2.326,6.4c14.5,8.483,29.177,16.677,43.817,24.945c3.821-10.146,4.55-21.133,6.222-31.765
	C1498.128,1078.46,1482.227,1078.619,1466.326,1078.825 M1416.316,1101.667c-2.55,2.457-3.793,5.876-4.568,9.268
	c1.682,3.158,2.411,6.689,3.223,10.146c1.074,0.29,2.177,0.579,3.307,0.878c10.127-8.707,18.61-19.75,23.646-32.101
	c-3.148-3.952-6.96-7.343-10.651-10.772C1427.555,1087.345,1422.837,1095.296,1416.316,1101.667 M1437.439,1079.311
	c2.326,2.812,4.849,5.465,7.624,7.866c0.093-2.691,0.607-5.325,1.224-7.923C1443.344,1078.871,1440.354,1078.806,1437.439,1079.311
	 M1458.376,1079.17c0.028,0.663,0.093,1.981,0.121,2.644c0.514,0.402,1.551,1.196,2.074,1.588c0.579-1.364,1.121-2.747,1.663-4.12
	C1460.936,1079.226,1459.646,1079.189,1458.376,1079.17 M1451.985,1082.917c0.028,1.85,0.093,3.709,0.187,5.587
	c0.906-0.103,1.84-0.196,2.784-0.271c0.215-1.065,0.448-2.121,0.71-3.158C1454.424,1084.328,1453.209,1083.617,1451.985,1082.917
	 M1399.079,1091.12c0.43,4.204,0.43,8.446,0.607,12.678c8.373-2.165,7.264-6.713,9.016-12.668
	C1405.833,1089.139,1401.937,1089.148,1399.079,1091.12 M1462.655,1089.307c-1.401,3.737-2.457,7.82-5.428,10.688
	c1.449,1.777,28.585,30.365,39.5,40.976c3.223-9.09,8.464-17.508,10.296-27.056
	C1468.337,1092.057,1468.094,1091.328,1462.655,1089.307 M1412.037,1093.801c-0.505,1.99-2.037,4.541,0.355,5.961
	c2.691-0.897,2.747-3.793,2.214-6.073C1413.961,1093.717,1412.681,1093.773,1412.037,1093.801 M1388.447,1097.071
	c-0.673,1.644,1.411,2.205,2.345,3.064c2.485,1.233,2.195,4.344,2.56,6.68c0.589-0.037,1.775-0.112,2.364-0.149
	c0.234-4.475,0.019-8.96-0.682-13.369C1392.604,1093.988,1389.96,1094.941,1388.447,1097.071 M1445.763,1098.537
	c0.037,1.635-0.43,3.569,0.859,4.896c2.392-0.589,1.953-3.569,2.42-5.409C1447.931,1098.173,1446.838,1098.351,1445.763,1098.537
	 M1438.682,1107.282c3.363,0.663,2.765-3.737,2.98-5.839C1438.542,1101.48,1437.42,1104.806,1438.682,1107.282 M1453.508,1109.814
	c-3.411,7.41-14.798,22.239-23.609,29.373c1.475,1.364,46.402,33.857,49.926,34.595c19.093-36.68,21.816-22.433-14.182-59.755
	c-3.102-2.849-5.521-6.54-9.137-8.735C1454.947,1106.357,1454.33,1108.207,1453.508,1109.814 M1444.708,1113.626
	c0.495-0.065,1.476-0.205,1.962-0.271c0.86-1.738,1.626-3.634,0.99-5.577C1444.624,1106.666,1444.427,1111.617,1444.708,1113.626
	 M1437.224,1116.615c0.944-0.168,1.896-0.318,2.878-0.458c0.159-1.999,0.215-4.008,0.187-5.988
	C1437.542,1111.225,1436.935,1113.934,1437.224,1116.615 M1401.91,1112.673c-1.243,2.728-1.345,5.97,0.925,8.25
	c2.887-2.168,2.354-6.101,1.654-9.184C1403.843,1111.972,1402.554,1112.439,1401.91,1112.673 M1430.301,1113.448
	c-0.448,1.766-0.57,3.588-0.43,5.428c0.523,0.019,1.551,0.075,2.065,0.093c0.925-1.663,1.149-3.541,1.121-5.409
	C1432.375,1113.532,1430.993,1113.476,1430.301,1113.448 M1379.777,1117.475c-0.346,0.981-0.626,1.99-0.832,3.036
	c-4.354,3.41-10.174,3.961-15.509,4.017c-3.587,6.518-3.882,6.46-0.887,7.913c9.156,3.905,19.61,4.811,29.289,2.429
	C1384.504,1114.809,1385.052,1115.817,1379.777,1117.475 M1389.204,1117.344c5.65,15.251,5.656,14.381,7.25,15.649
	c0.121-3.419,0.841-7.24-1.112-10.296C1393.847,1120.39,1392.287,1117.493,1389.204,1117.344 M1434.478,1126.845
	c4.008,0.448,4.419-3.625,3.943-6.521C1434.879,1120.268,1434.375,1124.108,1434.478,1126.845 M1285.175,1126.565
	c-65.465,69.647-61.343,66.313-61.343,66.313c0.436,6.047,12.633,20.805,15.976,24.533c0.318-0.047,0.953-0.14,1.28-0.187
	c48.453-70.238,44.802-63.083,50.552-96.368C1289.005,1122.174,1287.164,1124.491,1285.175,1126.565 M1426.985,1124.37
	c-0.168,1.504-0.066,3.018-0.009,4.55c3.429-0.262,4.382-3.606,3.943-6.521C1429.423,1122.576,1427.62,1122.763,1426.985,1124.37
	 M1420.744,1123.958c-0.738,1.588-1.093,3.317-0.476,5.026c2.438-0.859,2.878-3.176,2.495-5.484
	C1422.257,1123.613,1421.249,1123.846,1420.744,1123.958 M1265.368,1133.89c-9.766,4.407-19.277,9.348-28.745,14.356
	c-4.737,2.506-9.463,5.034-14.209,7.523c-4.746,2.489-11.366,7.086-13.419,12.137c0.615,4.316,3.271,7.782,11.258,21.899
	c1.362-1.293,54.665-57.107,56.373-60.175C1272.413,1129.536,1269.04,1132.273,1265.368,1133.89 M1408.122,1132.993
	c0.916,1.233,1.85,2.495,2.812,3.746c1.168-1.345,1.513-3.046,1.598-4.755c-0.477-0.327-1.42-0.962-1.897-1.28
	C1409.776,1131.442,1408.944,1132.217,1408.122,1132.993 M1422.641,1134.319c1.532,1.074,3.083,2.14,4.681,3.158
	c0.019-1.99,0.028-3.971,0.009-5.942C1425.284,1131.638,1423.407,1132.255,1422.641,1134.319 M1361.578,1140.523
	c0.934-0.009,1.887-0.009,2.859,0.009c0.103-1.429,0.196-2.859,0.299-4.251C1361.961,1135.814,1361.241,1138.29,1361.578,1140.523
	 M1295.853,1141.971c-8.047,12.735-6.873,8.164-9.268,18.564c-18.726,84.044-19.689,83.312-16.424,85.325
	c5.381,3.681,11.043,7.072,17.218,9.296c49.257-89.897,40.308-67.837,45.153-104.954c-2.326,0.458-4.531,1.299-6.801,1.887
	c-8.53-0.262-16.947-2.485-24.618-6.175c-2.999-2.345-0.617-6.082-0.561-9.1C1298.198,1137.683,1297.152,1140.037,1295.853,1141.971
	 M1372.779,1140.999c0.374,0.766,0.775,1.56,1.187,2.364c0.486-0.028,1.457-0.075,1.943-0.094c0.009-1.504,0-3.018,0.009-4.484
	C1374.844,1139.495,1373.798,1140.233,1372.779,1140.999 M1385.093,1139.383c-0.084,1.579-0.14,3.176-0.168,4.793
	c0.972-0.056,1.953-0.094,2.962-0.112c0.42-1.57,0.785-3.148,1.112-4.727C1387.672,1139.327,1386.373,1139.346,1385.093,1139.383
	 M1404.74,1139.448c-1.093,1.373-0.916,3.214-1.084,4.867c1.018-0.037,2.055-0.065,3.111-0.075c0.476-1.682,0.794-3.401,1.009-5.12
	C1406.74,1139.168,1405.731,1139.28,1404.74,1139.448 M1366.221,1143.438c-0.047,1.542-0.084,3.092-0.075,4.662
	c0.972-0.028,1.962-0.056,2.98-0.056c0.803-1.84,1.13-3.821,0.523-5.764C1368.501,1142.653,1367.342,1143.026,1366.221,1143.438
	 M1392.165,1143.755c-1.551,1.448-0.626,3.662-0.486,5.465c2.98-0.747,4.176-3.746,3.13-6.474
	C1393.875,1142.989,1392.997,1143.326,1392.165,1143.755 M1425.303,1142.877c-1.896,1.756-4.073,3.176-6.39,4.298
	c2.332,3.928,18.699,24.888,40.799,54.28c0.383-0.009,1.14-0.019,1.523-0.028c15.405-21.381,16.833-23.877,14.939-24.954
	C1424.139,1139.487,1429.163,1142.855,1425.303,1142.877 M1379.422,1144.437c-0.738,1.766-1.028,3.653-1.13,5.578
	c1.261-0.075,2.541-0.131,3.84-0.196c0.177-1.943,0.336-3.877,0.495-5.802C1381.543,1144.148,1380.478,1144.288,1379.422,1144.437
	 M1360.419,1145.699c-1.495,1.298-1.897,3.092-1.691,5.008c0.645,0.103,1.925,0.308,2.56,0.42c0.271-1.476,0.514-2.962,0.785-4.41
	C1361.662,1146.465,1360.83,1145.951,1360.419,1145.699 M371.951,1150.706c0.691,13.95-3.342-5.777,3.008,63.623
	c1.986-1.966,11.285-53.829,11.463-54.831c-1.093-3.186-0.663-6.558-0.663-9.847C381.145,1149.51,376.427,1149.37,371.951,1150.706
	 M1372.051,1149.594c-0.196,0.729-0.589,2.195-0.785,2.934c0.243,0.542,0.729,1.635,0.972,2.177
	c2.737-0.299,2.803-2.999,2.906-5.185C1374.097,1149.52,1373.06,1149.548,1372.051,1149.594 M1384.448,1150.51
	c-0.065,1.607-0.065,3.205,0.019,4.83c1.345-0.486,2.569-1.233,3.746-2.065c-0.047-1.345-0.075-2.691-0.084-4.008
	C1386.887,1149.669,1385.653,1150.08,1384.448,1150.51 M1415.4,1149.277c-1.719,1.71-3.905,2.784-6.213,3.429
	c-0.392,0.299-1.168,0.878-1.56,1.177c-5.09,0.843-5.225-3.971,20.712,60.951c1.046,2.392,1.57,5.213,3.69,6.979
	c0.346,2.083,0.785,4.167,1.355,6.222c5.641-2.2,19.995-17.19,23.581-22.086C1458.886,1203.856,1416.324,1150.278,1415.4,1149.277
	 M379.323,1216.608c2.41,0.701,4.849,1.364,7.343,1.738c2.732-2.408,27.702-30.142,31.624-35.352
	c-0.969-32.23,2.692-30.547-25.963-33.194C387.824,1172.035,383.499,1194.308,379.323,1216.608 M341.243,1160.516
	c-1.364,9.698-4.232,19.236-4.97,28.98c12.741,19.763,11.957,15.996,16.48,18.424c8.079,0.133,4.803,2.5,17.284,3.111
	c1.141-4.957-4.067-57.912-4.017-58.914C357.246,1152.761,348.922,1156.424,341.243,1160.516 M421.729,1155.845
	c0.056,6.904-1.102,13.883,0.243,20.74c0.682-0.103,2.037-0.308,2.719-0.411c3.335-5.017,9.016-8.203,11.762-13.631
	C434.593,1159.809,423.99,1156.427,421.729,1155.845 M1356.374,1155.069c-0.764,26.714-5.475,5.986,26.589,100.974
	c2.16-0.658,23.465-8.769,22.749-12.229c-1.813-28.999-4.017-57.97-5.942-86.96
	C1384.477,1160.49,1374.822,1161.535,1356.374,1155.069 M1344.733,1157.797c-15.179,25.931-12.065,11.596-23.562,106.916
	c9.371,2.018,19.049,1.233,28.56,1.056c2.808-95.175,4.179-86.79-3.69-107.757
	C1345.714,1157.956,1345.06,1157.853,1344.733,1157.797 M324.314,1170.849c-0.084,3.345,3.018,5.624,4.475,8.418
	c1.364,1.467,2.074,4.214,4.204,4.587c1.308-6.521,3.064-13.117,2.074-19.825C331.069,1165.467,327.266,1167.784,324.314,1170.849
	 M439.47,1165.617c-5.783,6.353-11.473,12.781-17.265,19.124c0.794,5.662,1,11.37,1.448,17.059c1.588-0.43,3.176-0.916,4.765-1.373
	c9.613-6.783,19.657-12.911,29.27-19.694C458.579,1177.132,441.579,1162.146,439.47,1165.617 M1276.869,1170.587
	c-45.774,68.923-15.99,25.385-31.606,51.459c1.37,4.527,14.562,16.127,19.414,19.152c0,0,13.275-58.813,17.097-76.385
	C1279.401,1166,1278.298,1168.504,1276.869,1170.587 M1404.217,1167.663c1.429,25.122,3.317,50.216,5.157,75.319
	c5.393-1.311,18.755-9.684,21.039-12.379c-0.463-3.389-9.247-23.553-24.393-61.885
	C1405.572,1168.457,1404.666,1167.924,1404.217,1167.663 M316.214,1176.884c-6.736,5.783-12.902,12.257-18.311,19.292
	c4.27,7.381,9.109,14.406,13.556,21.684c3.139-0.888,5.783-3.139,9.128-3.354c7.35-1.883,8.036,0.164,11.062-24.038
	c-2.635-6.119-8.165-10.492-11.706-16.088C318.634,1175.099,317.335,1175.875,316.214,1176.884 M402.959,1205.892
	c-4.298,5.26-9.417,9.847-13.341,15.406c-0.757,2.102,1.719,2.485,3.176,2.915c1.224-0.944,2.466-1.859,3.69-2.793
	c0.533-0.121,1.588-0.355,2.121-0.467c2.635-2.784,5.932-4.755,9.072-6.895c4.839-1.514,8.875-4.858,12.734-8.044
	c-0.682-5.886-0.962-11.79-1.401-17.676C413.423,1193.962,408.387,1200.109,402.959,1205.892 M1355.804,1189.963
	c-1.014,15.697-2.078,61.862-2.242,74.927c8.081-1.168,15.892-3.644,23.59-6.316c-0.094-2.018-1.168-3.718-1.887-5.512
	c1.364-11.06,3.749,8.305-17.284-59.204C1357.542,1192.383,1356.888,1191.028,1355.804,1189.963 M1318.275,1206.378
	c-0.002,0.003-19.255,35.969-19.255,35.969c-0.383,0.972-0.766,1.943-1.14,2.934c-0.065,1.485-0.112,2.98-0.159,4.494
	c-2.373,2.093-3.186,5.148-2.775,8.231c7.399,2.466,14.883,4.896,22.646,5.942c0.14-2.513-0.084-5.008-0.318-7.483
	c2.38-2.431,9.488-64.365,9.595-65.37C1323.675,1195.989,1321.153,1201.287,1318.275,1206.378 M332.096,1210.424
	c1.981-0.663,3.905-1.476,5.718-2.504c2.409-4.9,7.111,0.754-2.737-13.061C333.675,1199.96,332.853,1205.192,332.096,1210.424
	 M294.455,1199.932c-4.251,5.157-8.997,10.071-12.304,15.91c4.378,7.912,18.064,24.18,20.423,26.981
	c1.476-0.794,2.952-1.551,4.447-2.28c0.262-0.495,0.785-1.495,1.046-1.999c0.243-4.494,1.626-8.847,3.999-12.65
	c-5.213-8.791-10.753-17.386-16.396-25.888C295.361,1199.988,294.754,1199.951,294.455,1199.932 M261.383,1247.037
	c-1.449,2.427,14.272,21.048,15.172,22.048c2.915-0.495,3.466-4.092,5.353-5.951c3.662-3.84,6.699-8.249,10.679-11.79
	c7.735-7.812,12.319,0.069-13.687-31.858C271.996,1227.922,266.25,1237.302,261.383,1247.037 M483.968,1242.637
	c-2.102,3.494-4.251,6.979-5.886,10.725c6.4-2.083,13.696-3.167,18.657-8.091c0.514-2.14-0.392-4.251-0.953-6.26
	C491.517,1239.077,488.154,1242.123,483.968,1242.637 M466.591,1253.595c-2.532,1.7-6.988,1-7.259,4.989
	c4.793-1.084,9.389-2.868,14.163-3.999c0.953-1.766,1.794-3.588,2.354-5.493C472.374,1249.69,469.506,1251.764,466.591,1253.595
	 M297.146,1252.147c-0.719,1.243-1.859,2.513-1.457,4.092c1.14,0.318,2.364,0.205,3.56,0.299c0.579-1.345,1.177-2.672,1.775-3.98
	C299.724,1252.409,298.435,1252.278,297.146,1252.147 M478.718,1257.295c-2.737,2.532-4.559,6.39-4.821,10.137
	c3.971,2.289-1.429,7.736,1.794,10.389c9.819,0.923,16.781-7.358,25.561-12.939c0.009-4.447-0.747-9.044-2.214-13.276
	C492.209,1253.287,485.389,1255.09,478.718,1257.295 M254.077,1264.797c5.755,1.401,11.333,3.55,17.237,4.307
	c-3.494-5.83-8.119-10.875-12.005-16.424C256.179,1255.847,254.656,1260.434,254.077,1264.797 M301.331,1258.855
	c0.42,2.298,2.878,0.981,4.456,1.065c0.243-1.317,0.486-2.635,0.719-3.924C304.433,1256.267,301.696,1256.127,301.331,1258.855
	 M289.905,1258.93c-1.177,1.177-0.355,3.064-0.505,4.559c6.26-1.552,3.938-1.951,4.858-5.521
	C292.811,1258.173,290.84,1257.407,289.905,1258.93 M467.647,1260.032c-0.897,2.401-1.243,4.933-1.028,7.493
	c2.476-2.186,3.578-5.428,4.522-8.483C469.964,1259.35,468.806,1259.687,467.647,1260.032 M295.772,1261.948
	c-0.542,1.252-0.888,2.569-1.056,3.961c1.822,1.467,4.298-0.019,6.278-0.523c0.411-1.57,0.542-3.195,0.775-4.765
	C299.762,1260.901,297.445,1260.565,295.772,1261.948 M296.324,1274.065c-0.047,0.523-0.131,1.57-0.168,2.083
	c7.091,1.971,14.229,3.831,21.301,5.895c0.598-2.625,0.981-5.288,0.944-7.96c-1.215-1.187-2.42-2.382-3.616-3.569
	c-0.43-1.934-0.869-3.868-1.243-5.802c-0.785-1.046-1.57-2.074-2.326-3.102C304.844,1263.611,300.406,1269.076,296.324,1274.065
	 M283.347,1265.965c-0.019,1.196-0.028,2.41-0.037,3.634c1.261-0.065,2.532-0.094,3.802-0.121c0.71-1.177,1.42-2.336,2.139-3.485
	c-0.719-0.514-1.439-1.018-2.149-1.504C285.841,1264.956,284.589,1265.451,283.347,1265.965 M436.032,1272.355
	c-3.018,1.99-6.474,3.447-9.006,6.101c-0.15,2.971,2.019,11.192,14.135,7.614c6.11-4.288,10.146-12.472,7.726-19.844
	c-0.308-0.131-0.925-0.374-1.233-0.504C443.413,1267.217,439.89,1270.132,436.032,1272.355 M592.202,1273.757
	c0.691,4.223,5.381,3.391,8.446,4.522c1.439,0.467,1.728,2.793,3.345,2.784c11.334-10.479,7.253-1.82,12.323-12.014
	c-4.737-0.364-9.081-2.934-13.771-2.915C598.854,1268.151,594.5,1270.076,592.202,1273.757 M289.504,1269.964
	c0.271,0.439,0.813,1.308,1.084,1.738c1.168-0.121,2.336-0.234,3.513-0.336c0.402-1.401,0.785-2.812,1.14-4.204
	C292.979,1267.292,290.475,1267.563,289.504,1269.964 M244.211,1292.236c6.829,0.093,13.668,0.065,20.498,0.458
	c1.28-2.793,2.719-5.531,3.606-8.464c0.346-0.402,1.037-1.196,1.383-1.598c0.065-0.523,0.187-1.579,0.252-2.102
	c0.42-0.383,1.252-1.14,1.672-1.523c0.598-1.663,1.037-3.363,1.355-5.082c-7.007-1.495-13.724-4.438-20.909-4.97
	C248.761,1276.457,246.407,1284.351,244.211,1292.236 M449.579,1295.945c-0.121,1.579,1.831,1.663,2.934,2.018
	c3.064-6.587,6.755-12.911,9.296-19.731C453.792,1279.325,448.906,1288.387,449.579,1295.945 M465.498,1281.062
	c-2.083,3.653-3.924,7.483-5.148,11.529c4.195-1.327,7.68-4.064,11.276-6.493c-0.019-2.083-0.635-4.008-1.925-5.624
	C468.338,1280.661,466.264,1279.446,465.498,1281.062 M272.855,1285.687c1.654-0.112,3.307-0.224,4.961-0.336
	c0.43-1.672,0.85-3.345,1.271-4.97c-1.803,0.14-3.625,0.262-5.391,0.673C272.865,1282.436,273.014,1284.117,272.855,1285.687
	 M294.418,1281.399c0.25,12.146,5.868,13.091,13.519,12.482c2.224-2.027,4.4-4.12,6.801-5.923c0.065-0.551,0.206-1.654,0.271-2.196
	C296.982,1281.264,299.54,1280.998,294.418,1281.399 M269.931,1289.471c-0.617,0.972-0.467,2.196-0.654,3.317
	c1.383-0.009,2.765-0.019,4.148-0.028c0.075-1.009,0.121-2.009,0.121-2.99C272.584,1288.751,271.071,1288.901,269.931,1289.471
	 M276.667,1288.994c-0.252,1.214-0.476,2.457-0.701,3.709c0.953,0.047,1.906,0.103,2.868,0.177c0.514-0.299,1.542-0.916,2.046-1.214
	c0.056-0.972,0.112-1.925,0.178-2.859C279.591,1288.854,278.124,1288.91,276.667,1288.994 M285.533,1288.209
	c-0.514,1.71-1.215,3.419-1.327,5.241c2.102,0.215,4.214,0.224,6.325,0.318C289.065,1291.732,287.588,1289.667,285.533,1288.209
	 M243.267,1297.141c-1.747,4.494-2.821,9.221-3.541,13.986c2.158,0.99,4.326,1.999,6.493,2.999
	c-0.766,1.355-1.663,2.653-2.747,3.793c-1.719-0.14-3.419-0.215-5.129-0.28c-1.018,3.513-1.672,7.128-2.055,10.772
	c6.512,1.243,12.781,3.905,19.442,4.232c1.496-11.966,5.898-34.075,5.895-34.455c-1.495-0.224-3.027-0.327-4.41-0.99
	C252.563,1296.982,247.92,1297.767,243.267,1297.141 M265.811,1298.365c-0.383,1.588-0.747,3.176-1.112,4.802
	c1.915-0.028,3.83-0.047,5.746-0.065c0.271-1.672,0.542-3.326,0.766-4.97C269.408,1298.178,267.605,1298.271,265.811,1298.365
	 M283.029,1299.813c-4.139,1.018-4.055,6.082-4.895,9.436c0.187,0.579,0.561,1.738,0.747,2.317c2.195,0.645,4.494,1.654,6.829,1.074
	c2.392-1.439,4.111-3.709,5.839-5.849c-0.131-1.868-0.271-3.728-0.411-5.568C288.831,1299.374,285.813,1298.477,283.029,1299.813
	 M269.567,1305.876c0.019,0.916,0.047,2.747,0.065,3.662c5.753-0.393,4.432-0.117,4.877-5.092
	C272.837,1304.83,271.183,1305.306,269.567,1305.876 M263.167,1307.829c-0.149,1.401-0.299,2.793-0.439,4.232
	c4.919,0.175,3.896,0.286,5.213-4.475C266.344,1307.623,264.755,1307.707,263.167,1307.829 M268.231,1313.948
	c-0.327,1.355-0.626,2.719-0.906,4.101c2.691,0.29,5.484-0.906,5.568-3.961C271.342,1314.004,269.782,1313.958,268.231,1313.948
	 M260.859,1317.928c0.028,1.373,0.084,2.756,0.159,4.167c2.027-0.589,4.849-0.953,4.783-3.662
	C265.381,1316.088,262.345,1317.695,260.859,1317.928 M276.144,1320.74c-3.289,5.073-2.083,11.37-2.336,17.078
	c6.138,1.495,12.239,3.148,18.395,4.578c0.467-1.289,0.934-2.56,1.383-3.821c-0.486-0.374-1.467-1.13-1.953-1.504
	c-0.664-2.168-4.843-15.009-7.969-17.097C281.366,1318.797,277.816,1318.292,276.144,1320.74 M266.652,1322.506
	c-0.505,1.476-1,2.952-1.476,4.466c1.607,0.037,3.214,0.168,4.83,0.065c1.504-1.084,1.056-3.279,1.364-4.858
	C269.791,1322.254,268.221,1322.375,266.652,1322.506 M259.168,1327.878c0.028,1.074,0.093,2.158,0.196,3.251
	c1.327,1.579,3.158-0.187,4.699-0.514c0.093-0.71,0.271-2.139,0.364-2.859c-0.355-0.43-1.056-1.289-1.411-1.719
	C261.71,1326.579,260.42,1327.196,259.168,1327.878 M265.521,1331.849c-0.037,0.654-0.103,1.943-0.14,2.597
	c0.916,1.523,2.924,0.374,4.335,0.505c0.056-1.14,0.112-2.27,0.178-3.373C268.427,1331.643,266.979,1331.736,265.521,1331.849
	 M235.457,1333.465c-1.999,7.997-2.214,16.331-2.429,24.543c7.988-0.411,16.004-0.14,23.945-1.261
	c-1.859-5.932-0.719-12.183-1.327-18.246C254.547,1336.263,239.601,1333.197,235.457,1333.465 M264.914,1340.229
	c-0.121,1.467-0.243,2.934-0.346,4.438c1.934-0.14,3.868-0.336,5.783-0.645c0.037-0.766,0.103-2.289,0.131-3.046
	C268.632,1340.649,266.773,1340.397,264.914,1340.229 M273.818,1342.76c-0.561,4.307,0.738,8.352,2.317,12.295
	c1.794,0.308,3.625,0.42,5.456,0.448c1.018-0.327,2.046-0.626,3.074-0.897c2.653-2.392,4.924-5.138,7.044-7.988
	C285.767,1345.255,279.956,1343.003,273.818,1342.76 M259.15,1349.973c0.785,1.934,3.064,0.131,4.073-0.682
	c0.093-1.28,0.14-2.532,0.121-3.775C260.645,1345.283,258.898,1347.357,259.15,1349.973 M266.325,1349.487
	c-0.234,1.028-0.448,2.065-0.663,3.13c1.308-0.075,2.625-0.121,3.952-0.15c0.121-1.028,0.252-2.037,0.383-3.027
	C268.763,1349.44,267.539,1349.459,266.325,1349.487 M457.641,1362.24c1.934,2.84,4.587,5.166,7.212,7.371
	c0.327,0.019,0.99,0.037,1.317,0.056c2.691-2.074,5.97-4.531,5.764-8.315c-0.561-0.859-1.102-1.7-1.635-2.532
	C465.956,1358.727,461.079,1359.446,457.641,1362.24 M233.495,1362.305c-1.046,7.857-0.056,15.817,0.71,23.674
	c8.52-4.008,17.097-7.876,25.617-11.856c-0.28-3.961-1.766-7.689-2.298-11.594c-6.895,0.075-13.864-0.57-20.703,0.458
	C235.709,1362.735,234.598,1362.511,233.495,1362.305 M262.803,1364.66c-1.417,6.89,4.193,4.451,3.363-0.15
	C265.045,1364.538,263.924,1364.594,262.803,1364.66 M269.249,1365.435c-0.187,1.392-0.336,2.821-0.402,4.241
	c1.598-0.617,3.186-1.271,4.765-1.934c0.009-0.635,0.028-1.896,0.037-2.522C272.173,1365.257,270.706,1365.332,269.249,1365.435
	 M279.713,1371.227c0.542,4.298,3.485,7.876,5.307,11.734c3.737-0.028,5.082-3.812,6.792-6.446c0.738-2.326,1.299-4.718,1.112-7.156
	c-0.859-0.981-1.654-1.999-2.345-3.074C286.598,1366.397,281.88,1367.677,279.713,1371.227 M454.558,1366.827
	c-1.392,4.242-2.298,9.258,0.196,13.294c2.466-2.121,6.568-3.756,6.811-7.418C459.958,1370.059,457.389,1368.042,454.558,1366.827
	 M300.715,1368.574c-3.046,7.455-7.885,14.892-7.091,23.263c2.308,3.363,5.512,5.83,8.567,8.464
	c1.056,0.168,2.102,0.346,3.158,0.542c1.454-2.423,4.316-28.035,4.428-29.037c-1.448-1.457-3.046-2.747-4.755-3.858
	C303.583,1368.144,302.144,1368.35,300.715,1368.574 M436.602,1373.002c1.616,0.112,3.242,0.205,4.877,0.299
	c0.075-1.149,0.168-2.289,0.252-3.41C439.367,1369.966,436.527,1369.779,436.602,1373.002 M271.734,1377.393
	c4.389-1.13,4.606,0.725,4.606-5.138C274.406,1373.563,272.893,1375.366,271.734,1377.393 M313.196,1376.347
	c-0.71,5.764-1.654,11.519-2.121,17.33c4.867-3.793,8.464-8.941,12.547-13.509c-0.392-0.383-1.168-1.158-1.56-1.542
	C319.119,1377.795,316.279,1376.524,313.196,1376.347 M247.033,1385.129c-3.317,1.429-7.147,2.635-9.109,5.923
	c-1.056,0.607-2.102,1.205-3.158,1.831c0.476,6.512,1.383,13.005,2.635,19.414c0.874-1.002,24.573-28.485,25.43-32.036
	C257.132,1379.57,251.797,1382.345,247.033,1385.129 M268.987,1380.869c-1.177,1.243-1.654,2.934-2.41,4.456
	c7.492,0.305,5.476-0.419,6.194-4.914C271.51,1380.542,270.155,1380.318,268.987,1380.869 M274.845,1380.42
	c0.075,1.243,0.159,2.532,0.243,3.812c0.458-0.009,1.383-0.037,1.84-0.056c0.86-0.383,1.728-0.757,2.597-1.102
	c0.168-0.953,0.346-1.887,0.523-2.812C278.311,1380.271,276.574,1380.327,274.845,1380.42 M279.46,1386.839
	c-0.215,1.224-0.43,2.466-0.654,3.718c1.299-0.392,2.607-0.748,3.915-1.121c0.056-0.589,0.159-1.775,0.215-2.373
	C281.777,1386.979,280.619,1386.904,279.46,1386.839 M263.036,1387.371c-7.829,10.258-16.732,19.703-24.356,30.102
	c-0.196,3.886,1.056,7.661,1.934,11.417c4.064-0.392,7.203-3.167,10.641-5.045c1,0.467,2.009,0.944,3.027,1.42
	c-0.019,1.298,0.084,2.635-0.14,3.961c-12.644,11.027-10.185,12.242-9.492,17.041c48.122-21.36,47.68-21.865,48.936-27.205
	C277.202,1413.209,268.172,1388.222,263.036,1387.371 M272.416,1388.903c-0.355,1.345-0.701,2.709-1.037,4.092
	c1.691-0.159,3.345-0.57,4.952-1.112c0.047-1.084,0.103-2.149,0.149-3.195C275.125,1388.735,273.771,1388.81,272.416,1388.903
	 M439.386,1391.641c-5.232,4.372-6.334,11.463-6.745,17.881c2.99,1.56,6.007,3.083,9.109,4.428
	c-0.056-2.653,0.448-5.577-1.289-7.829c0.654-6.699,7.147-10.809,8.885-17.162C445.795,1388.371,441.936,1388.857,439.386,1391.641
	 M283.394,1396.387c0.495,0.028,1.476,0.065,1.971,0.084c0.542-0.29,1.635-0.869,2.177-1.158c-0.056-1.028-0.112-2.037-0.168-3.018
	C284.888,1392.248,282.777,1393.631,283.394,1396.387 M275.779,1400.376c0.925-0.047,2.784-0.131,3.718-0.178
	c0.71-0.757,1.429-1.504,2.149-2.224c-0.019-0.729-0.065-2.186-0.084-2.915c-0.869-0.103-2.607-0.29-3.475-0.383
	C275.77,1395.555,276.032,1398.367,275.779,1400.376 M325.491,1395.35c-1.401,3.223-2.354,6.633-2.167,10.183
	c2.784,0.532,5.662,0.177,8.343-0.682c2.336-2.425-1.12-4.654-3.728-9.651C327.332,1395.238,326.098,1395.312,325.491,1395.35
	 M288.896,1398.087c-0.177,1.121-0.336,2.261-0.486,3.419c1.243-0.131,2.485-0.243,3.737-0.336c0.383-1.074,0.775-2.121,1.158-3.158
	C291.83,1398.003,290.363,1398.031,288.896,1398.087 M281.394,1405.636c0.691,0.075,2.074,0.234,2.775,0.308
	c1.196-1.103,2.214-2.382,2.878-3.868c-1.299-0.187-2.607-0.271-3.905-0.234C281.562,1402.328,281.749,1404.318,281.394,1405.636
	 M293.951,1402.674c-0.103,1.196-0.206,2.401-0.308,3.625c1.635-0.215,3.784,0.112,4.69-1.635c0.224-1.074,0.402-2.13,0.523-3.186
	C297.211,1401.805,295.567,1402.207,293.951,1402.674 M301.266,1404.533c-3.852,6.406-2.389,5.276,1.579,5.951
	c0.841-1.429,1.7-2.849,2.438-4.316C304.611,1404.496,302.677,1404.86,301.266,1404.533 M407.397,1412.708
	c-0.154,5.507,8.541,20.772,11.024,22.067c0.299-8.268,0.056-16.536,0.14-24.804c-1.102-1.224-2.195-2.448-3.289-3.653
	C411.947,1407.14,407.612,1408.635,407.397,1412.708 M287.701,1410.877c1.102-0.355,2.214-0.626,3.317-0.953
	c0.103-0.617,0.318-1.831,0.42-2.438c-0.747-0.084-2.242-0.271-2.99-0.364C287.859,1408.289,287.439,1409.522,287.701,1410.877
	 M312.421,1410.419c-0.271,1.345-0.551,2.719-0.822,4.101c1.654-0.112,3.298-0.196,4.961-0.271c0.42-1.682,0.71-3.401,0.962-5.101
	C315.794,1409.438,314.084,1409.859,312.421,1410.419 M332.264,1411.596c0,0.953-0.009,1.915-0.009,2.906
	c6.701-0.609,3.854-0.82,4.877-4.494C335.46,1410.363,333.815,1410.858,332.264,1411.596 M293.568,1411.699
	c-0.196,0.859-0.598,2.579-0.803,3.438c0.654,0.196,1.962,0.589,2.616,0.785c1.046-0.392,2.102-0.776,3.158-1.121
	c0.131-1.644,0.215-3.298,0.271-4.914C296.987,1410.26,295.249,1410.905,293.568,1411.699 M325.033,1414.735
	c1.467-0.066,2.934-0.178,4.41-0.252c0.065-1.196,0.131-2.373,0.187-3.531C327.107,1410.784,325.743,1412.521,325.033,1414.735
	 M383.788,1415.175c-7.749,13.659-6.979,10.876-5.989,18.358c1.794,1.252,3.868,1.943,6.045,2.214
	c1.005-0.636,15.652-5.433,12.668-20.554c-0.589-3.12-4.017-4.316-6.745-4.811C387.068,1410.737,385.274,1413.1,383.788,1415.175
	 M300.322,1415.287c-0.131,1.373-0.252,2.747-0.346,4.167c1.56-0.504,3.12-1.009,4.69-1.485c0.215-1.392,0.271-2.775-0.159-4.101
	C303.106,1414.306,301.714,1414.782,300.322,1415.287 M315.41,1418.117c-2.224,1-1.719,3.774-2.149,5.764
	c2.018-0.093,4.045-0.355,5.82-1.383c0.29-1.102,0.551-2.195,0.794-3.279C319.568,1417.146,316.812,1417.361,315.41,1418.117
	 M422.382,1417.566c0,3.475-0.009,6.951,0.103,10.436c1.42-0.355,2.765-0.925,4.083-1.551c0.886-4.833,2.175-3.727-1.616-8.707
	C424.316,1417.697,423.027,1417.613,422.382,1417.566 M476.223,1419.939c-1.85,2.429-4.316,4.251-6.624,6.231
	c1.401,1.336,3.13,2.214,4.989,2.793c2.074-3.802,4.886-7.325,5.727-11.678C478.783,1417.865,477.195,1418.538,476.223,1419.939
	 M329.284,1419.65c-0.701,1.214-0.056,2.56,0.28,3.802c2.635-0.374,3.915-2.317,3.905-4.839
	C332.05,1418.697,330.293,1418.351,329.284,1419.65 M404.052,1419.874c-3.435,8.333,2.005,16.339,5.643,17.956
	c1.485,0.028,2.98,0.065,4.484,0.131C411.19,1431.739,407.967,1425.554,404.052,1419.874 M291.213,1430.524
	c-9.371,14.229-18.909,28.355-28.233,42.621c-1.925,2.233-0.719,5.456-2.364,7.82c2.803,6.316,9.128,9.922,14.032,14.453
	c0.458,0.103,1.373,0.327,1.831,0.439c27.744-45.374,23.83-30.005,26.066-72.003C298.454,1425.283,293.54,1426.479,291.213,1430.524
	 M323.258,1428.142c-1.092,1.026,0.291-1.094-18.713,29.532c-2.369,3.592-4.926,42.389-4.596,51.786
	c0.327,0.495,0.99,1.504,1.317,1.999c6.456,3.662,13.229,7.044,20.469,8.847c27.355-49.218,24.21-35.154,24.87-90.258
	c-0.467-0.411-1.411-1.243-1.878-1.654c-0.056-1.149-0.103-2.28-0.15-3.391C337.356,1425.274,330.555,1428.347,323.258,1428.142
	 M306.404,1425.984c-1.121,7.53-1.56,15.163-2.139,22.768c2.868-0.942,1.801-0.938,14.313-20.572c-0.589-0.252-1.775-0.747-2.364-1
	C312.916,1426.937,309.712,1426.049,306.404,1425.984 M449.186,1439.101c3.373,4.671,7.409,8.819,11.192,13.164
	c3.597-6.007,8.165-11.575,10.585-18.19C464.007,1423.605,457.604,1430.46,449.186,1439.101 M280.871,1434.504
	c-5.026,1.644-9.109,5.166-14.089,6.858c-1.001,0.732-16.892,9.819-19.161,14.958c0.775,4.41,2.477,8.974,4.51,12.947
	c0.826,1.615,2.033,4.781,4.065,4.486c4.109-0.597,9.439-11.511,11.485-14.587c5.516-8.293,11.011-16.6,16.507-24.906
	C283.076,1434.317,281.974,1434.401,280.871,1434.504 M350.417,1436.205c-0.729,10.398-0.747,20.843-0.925,31.26
	c2.242-1.197,1.648-0.812,11.183-18.423c-2.195-4.307-3.933-8.885-6.792-12.818C352.725,1436.205,351.575,1436.195,350.417,1436.205
	 M438.087,1445.556c-4.372,0.878-7.418,4.447-11.389,6.26c0.003,0.006,13.892,24.842,13.892,24.842
	c4.235-1.734,15.121-17.698,17.218-21.011c-3.989-4.456-7.81-9.053-11.529-13.724
	C442.805,1441.203,441.254,1445.127,438.087,1445.556 M365.309,1448.976c1.682,4.176,3.625,8.24,5.727,12.229
	c0.598,0.019,1.812,0.047,2.42,0.065c0.196-4.017,0.505-8.044,0.346-12.052c-1.607-1.112-3.7-1.663-4.606-3.541
	C367.159,1445.734,366.14,1447.332,365.309,1448.976 M378.005,1451.096c-0.427,27.836-6.61,11.765,17.461,60.988
	c8.558-2.093,15.677-7.708,22.955-12.416c0.364-15.228-0.028-30.475,0.206-45.704c-3.083-1.654-6.446-0.486-9.371,0.85
	C398.755,1455.544,388.049,1454.338,378.005,1451.096 M362.02,1454.292c-14.67,25.384-13.403,17.953-13.976,68.481
	c7.409-0.178,14.78-1.149,22.123-2.14c0.794-15.415,2.037-30.812,2.653-46.217c-2.878-6.932-6.456-13.584-9.679-20.367
	C362.861,1454.105,362.301,1454.226,362.02,1454.292 M422.392,1454.497c-0.075,13.631-0.252,27.271-0.056,40.911
	c3.837-1.462,11.942-9.817,13.79-11.893c3.283-3.086-0.847-7.805-9.688-24.328C425.363,1457.412,424.625,1455.076,422.392,1454.497
	 M294.885,1473.154c-4.599,7.67-14.793,22.998-14.556,26.159c4.391,2.971,8.689,6.203,13.677,8.137
	c0.575-3.977,3.337-11.281,4.447-38.061C296.725,1470.043,295.791,1471.641,294.885,1473.154 M376.118,1482.515
	c-0.944,12.257-1.57,24.534-2.364,36.8c6.409-0.57,12.566-2.784,18.48-5.232C386.416,1503.217,378.948,1484.813,376.118,1482.515
	 M325.911,1521.166c5.97,0.663,12.071,2.158,18.05,0.888c-0.177-1.728-0.364-3.429-0.738-5.082
	c2.438-9.427,1.392-19.246,1.803-28.859C342.183,1488.975,326.418,1520.165,325.911,1521.166z"/>
</svg>
