<?xml version="1.0" encoding="utf-8"?>

<!DOCTYPE svg PUBLIC "-//W3C//DTD SVG 1.1//EN" "http://www.w3.org/Graphics/SVG/1.1/DTD/svg11.dtd">
<svg version="1.1" id="Layer_1" xmlns="http://www.w3.org/2000/svg" xmlns:xlink="http://www.w3.org/1999/xlink" x="0px" y="0px"
	 viewBox="0 0 1514 1640.974" enable-background="new 0 0 1514 1640.974" xml:space="preserve">
<path d="M1464.706,197.673c-19.05-8.624-20.847-5.841-22.603-9.207c-16.431-37.843-44.488-41.336-48.067-42.978
	c-10.484-1.735-4.295,2.765-19.059-3.673c-5.545-13.027-27.243-32.814-34.553-36.8c-6.214-4.8-12.944-6.391-20.158-8.884
	c-5.925-2.047-12.426-0.99-17.825-3.679c-3.328-1.658-6.082-4.244-8.96-6.598c-18.205-14.888-41.023-19.49-63.914-16.496
	c-18.375,2.403-26.506-18.746-43.177-24.092c-15.474-4.962-29.302-4.537-44.944-6.577c-10.351-1.35-19.646-5.758-29.592-7.927
	c-12.803-2.792-26.849-2.934-39.889-2.574c-6.656,0.184-13.087,0.606-19.682,0.324c-2.521-0.108-14.481,1.459-16.185-0.088
	c-3.954-3.591-25.7-9.813-42.274-7.463c-23.265,2.981-26.152-2.257-53.117,0.059c-1.002,0.007-107.737,1.446-128.034,6.049
	c-3.317,0.436-7.069,2.505-9.792-0.416c-47.501-1.471-95.326,5.135-142.664,9.94c-48.573,4.93-97.089,10.435-145.518,16.619
	c-10.769,1.375-21.692,0.962-32.28,3.69c-11.008,2.836-23.117,7.516-32.977,13.143c-13.511,7.71-24.093,6.985-39.205,9.271
	c-13.633,2.063-26.912,5.646-39.617,11.03c-7.789,3.301-14.138,9.261-22.027,11.869c-3.772,1.247-7.702,1.029-11.583,1.485
	c-4.247,2.168-9.148,2.297-13.395,4.465c-15.337,5.771-31.398,12.93-42.864,25.035c-2.543,2.685-4.466,6.118-7.111,8.66
	c-3.942,3.789-5.726,3.199-10.958,4.595c-17.224,4.596-33.595,9.45-48.966,18.786c-7.502,4.557-14.58,9.799-21.21,15.547
	c-5.497,4.766-11.694,14.716-17.915,17.917c-17.987,9.255-30.757,16.344-40.034,35.812c-6.626,13.905-14.132,17.026-28.321,22.62
	c-13.047,5.144-38.108,26.626-46.789,55.217c-0.812,2.99-3.277,5.425-5.911,6.891c-12.293,3.437-19.43,18.94-25.058,29.124
	c-7.039,12.738-11.053,28.392-9.205,43.245c2.193,17.618,15.359,38.016,31.384,46.327c12.325,6.393,25.183,11.756,38.613,15.347
	c0.478,0.128,0.96,0.24,1.439,0.364c49.826,47.929,397.311,382.674,541.313,534.564l39.94,43.484
	c-0.094,0.054-0.191,0.103-0.284,0.157c3.515,3.218,5.109,7.851,5.653,12.484c0.436,4.109,1.782,8.039,2.931,12
	c0.515,1.752-1.218,3.109-1.733,4.683c0.792,1.743,1.643,3.515,2.802,5.069c1.525,1.079,3.891,1.535,4.158,3.752
	c1.525,5.366,4.109,10.475,4.911,16.019c0.683,3.158-2.822,5.455-1.921,8.604c0.238,1.307,0.574,2.614,0.871,3.931
	c-6.247,1.931-11.108,6.495-14.118,12.217c3.554,1.534,8.039,0.921,11.039,3.584c-1.257-6.254,6.96-15.336,6.96-7.554
	c2.016,21.544-15.275,60.822-6.416,88.59c4.583,5.244,12.549,19.681,18.069,22.583c6.802,4.634,12.287,11.099,19.662,14.96
	c3.911,1.852,6.435,5.554,10.118,7.762c11.376,6.931,8.34,14.394,9.792,19.841c0.495,2.891,2.228,5.396,2.574,8.346
	c-1.871,0.525-4.96-0.446-5.98,1.564c-1.168,9.732,0.911,19.385,0.911,29.108c3.208,2.861,7.881,2.129,11.693,1.05
	c2.238,5.366,2.97,11.267,3.059,17.049c0.074,6.962,3.235,7.812,1.812,28.533c-0.772,2.436-2.752,4.406-2.841,7.099
	c-0.528,6.277-8.805,11.614-8.861,14.9c-1.436,6.475-0.376,13.722-4.297,19.455c-4.257,8.831-8.396,17.762-11.554,27.058
	c-19.171,49.921-8.163,23.276-14.326,44.107c-1.934,5.615-7.028,8.514-8.455,19.138c6.41,13.83,10.214,13.814,23.464,24.118
	c11.544,11.633,23.385,23.118,37.117,32.197c6.594,4.416,11.732,10.831,18.91,14.415c-0.436,2.485-2.436,4.099-3.822,6.059
	c-0.913,2.078-1.654,4.226-2.259,6.413c-0.441,1.594-0.458,5.371-1.49,6.572c-1.096,1.275-4.319-0.743-4.768,5.405
	c-2.862,39.169-6.97,21.695-0.394,39.122c3.832,5.869,22.813,9.601,28.702,7.911c5.158-2.97,4.069-9.732,6.485-14.415
	c2.436-4.831,2.891-10.475,5.693-15.098c3.577-2.242,27.909-6.462,28.058-34.197c5.029-13.55,8.804-13.102-7.871-19.187
	c0.752-1.218,1.485-2.426,2.198-3.643c3.851,2.01,7.366-1.109,10.217-3.416c16.254-15.519,30.299-21.572,37.701-54.354
	c1.024-7.943-0.429-24.886-6.891-35.315c-2.223-3.29-0.609-1.899,3.94-37.781c-1.168-6.96-1.762-14.029-3.574-20.86
	c-0.406-9.643-4.732-18.603-5.148-28.236c6.584-0.149,12.138-3.861,18.138-6.049c4.871-1.95,10.475-1.158,15.227-3.544
	c3.594-2.574,5.94-7.435,4.604-11.802c-1.168-5.841-0.01-11.772-0.317-17.653c-2.246-30.303-13.494-35.709-14.93-42.444
	c-2.346-9.742-4.643-19.583-8.851-28.722c1.772-5.554,7.772-7.485,11.643-11.188c34.36-40.412,17.289-17.875,28.377-35.072
	c1.797-2.787,5.595-4.929,6.893-7.663c6.831-14.384-12.537-61.854-15.727-74.32c-0.733-1.653-3.02-3.327-1.188-5.049
	c4.921-5.109,11.178-9.901,12.653-17.257c0.426-2.97-3.267-3.534-5.138-4.841c-4.636-6.502-6.87-15.208-11.978-17.145
	c30.735-47.568,63.35-98.382,96.535-150.88l427.373-524.871c2.054,0.227,4.073,0.638,5.988,1.63
	c3.564-0.733,6.653-3.139,8.336-6.376c9.844-20.621,38.319-36.811,39.177-60.809c-0.135-14.195,6.499-18.623-0.564-42.84
	C1485.904,269.331,1515.995,229.627,1464.706,197.673z M1430.776,384.735c0.276,0.924-2.934,8.936-3.068,8.89
	c0.115,0.04,0.232,0.07,0.348,0.106l-406.648,508.702c41.432-65.765,83.513-133.858,123.708-201.252l248.385-324.736
	C1405.34,377.156,1428.97,378.691,1430.776,384.735z M895.771,1094.199c-2.307,4.851-2.663,10.831-6.564,14.801
	c0.021-0.643,6.715-40.783,7.505-44.483c1.723-3.168,4.307-5.861,5.534-9.307c1.346-5.049,5.534-8.831,9.891-11.425
	c-1.752,8.049-3.445,16.098-5.198,24.147c-1.891,0.02-3.782,0.04-5.653,0.089c-0.069,1.841-0.119,3.693-0.188,5.554
	c-1.663,1.673-3.802,3.148-4.574,5.485C897.246,1084.061,898.236,1089.486,895.771,1094.199z M891.068,1143.464
	c-1.297-1.327-1.693-3.119-2.109-4.841c-1.887-7.317-3.646,0.551-1.337-16.009c0.614-0.03,1.851-0.089,2.475-0.119
	C889.999,1129.494,892.85,1136.514,891.068,1143.464z M967.916,931.221l-30.518,39.899l2.032-6.776l42.732-61.891L967.916,931.221z
	 M986.068,896.796L1253.5,509.453c-33.083,61.22-70.249,125.857-109.198,191.163l-173.254,226.51L986.068,896.796z M917.677,994.109
	l-0.427-10.452c3.299-7.079,6.578-14.126,9.829-21.129l-2.826,22.056L917.677,994.109z M923.979,986.723l-0.299,2.331l-5.895,7.707
	l-0.041-1.008L923.979,986.723z M925.205,984.948l12.398-17.957l-1.905,6.352l-10.819,14.144L925.205,984.948z M938.527,963.911
	l-13.048,18.898l2.979-23.254c11.14-24.009,21.997-47.571,32.576-70.698L938.527,963.911z M927.495,959.283
	c-3.415,7.36-6.864,14.774-10.333,22.219l-1.252-30.637l27.519-115.949L927.495,959.283z M916.808,997.11l0.036,0.882l-6.63,8.668
	L916.808,997.11z M901.226,1017.937c5.093-10.864,10.13-21.637,15.112-32.324l0.403,9.852L901.226,1017.937z M916.25,983.459
	c-5.406,11.599-10.869,23.288-16.405,35.096l15.219-64.125L916.25,983.459z M898.992,1017.863l9.888-214.783l6.035,147.693
	L898.992,1017.863z M899.157,1023.004c0.03,1.485,0.05,2.99,0.079,4.505c-0.593-0.015-1.628-0.045-2.464-0.072l1.907-4.065
	l0.214-0.279C898.983,1023.065,899.06,1023.026,899.157,1023.004z M896.72,1027.435c-0.289-0.009-0.552-0.018-0.761-0.026
	c0.269-1.368,0.668-2.719,1.619-3.586L896.72,1027.435z M910.988,1037.192c-4.366,1.109-6.861,5.317-10.613,7.495
	c-0.436-7.336,0.178-14.692-0.277-22.019c-0.181-0.149-0.369-0.284-0.552-0.428l17.363-22.7l1.185,29.009
	c-0.552-0.128-1.11-0.259-1.66-0.387c-0.723,3.851-1.931,7.584-3.129,11.316C912.542,1038.677,911.78,1037.914,910.988,1037.192z
	 M917.849,998.309l5.581-7.297l-4.458,34.792L917.849,998.309z M924.629,989.445l10.265-13.421l-14.92,49.753L924.629,989.445z
	 M936.594,973.801l29.032-37.957l-44.751,90.371L936.594,973.801z M968.759,931.75l171.093-223.686
	c-40.378,67.522-82.553,135.633-123.984,201.3l-94.667,118.425L968.759,931.75z M1388.162,376.096
	c0.954,0.085,2.39,0.173,4.148,0.278l-242.814,317.452c39.042-65.638,76.202-130.504,109.127-191.792l49.486-71.674l79.272-64.557
	C1390.24,368.702,1391.398,371.686,1388.162,376.096z M1262.785,494.263c8.517-15.951,16.74-31.651,24.623-47.045l17.954-14.621
	L1262.785,494.263z M1364.033,355.923c6.985,1.629,14.3,2.322,19.985,6.926c0.951,0.77,1.847,1.516,2.647,2.26l-76.541,62.332
	l50.018-72.445C1361.437,355.314,1362.735,355.621,1364.033,355.923z M1354.534,353.47c1.514,0.469,3.044,0.883,4.581,1.272
	l-51.738,74.936l-19.103,15.557l44.171-102.452C1339.304,347.366,1346.877,351.101,1354.534,353.47z M1322.676,335.26
	c2.774,2.467,5.773,4.805,8.931,6.965l-43.589,101.103l18.679-133.088C1310.522,319.599,1314.551,328.033,1322.676,335.26z
	 M1294.859,296.038c-2.755-3.052,3.01-2.06,3.845-1.7c1.942,0.836,3.391,4.549,4.132,6.338c1.092,2.638,2.107,5.214,3.12,7.73
	l-19.415,138.337c-9.15,17.872-18.76,36.155-28.758,54.767L989.118,890.636l201.97-407.862l102.137-187.355
	C1293.982,295.536,1294.567,295.729,1294.859,296.038z M1279.454,296.202c1.957-0.019,8.75-1.123,12.704-0.896l-95.406,175.008
	l79.171-174.175C1277.096,296.186,1278.273,296.214,1279.454,296.202z M1258.336,292.879c5.363,1.902,10.896,2.9,16.522,3.211
	l-84.652,186.234L985.212,896.293l-44.859,64.972l23.685-78.98c53.319-116.725,99.554-222.392,139.604-319.148l142.603-276.095
	C1250.084,289.331,1254.065,291.364,1258.336,292.879z M1218.128,268.789c9.588,5.052,18.026,12.12,27.264,17.748l-137.306,265.84
	c42.97-104.296,78.702-198.202,108.348-284.466C1216.998,268.204,1217.567,268.493,1218.128,268.789z M1184.377,250.682
	c9.848,6.359,20.758,11.401,31.168,16.769c-30.66,89.23-67.836,186.639-112.801,295.271l-0.059,0.115l0.01,0.005
	c-39.291,94.918-84.527,198.403-136.574,312.506l130.613-435.541l76.456-197.73C1176.647,245.275,1180.43,248.133,1184.377,250.682z
	 M1156.464,217.028c4.164,3.161,6.495,13.333,10.003,17.814c1.814,2.317,3.81,4.482,5.938,6.512l-73.816,190.903l53.184-216.488
	C1153.466,215.65,1155.07,215.972,1156.464,217.028z M1138.548,220.888c3.221-1.161,7.895-4.269,12.174-4.991l-54.934,223.613
	L963.111,881.934c-11.103,24.306-22.511,49.088-34.236,74.373l16.724-130.53l70.623-297.57l91.731-305.361
	C1117.992,223.223,1129.141,224.279,1138.548,220.888z M1105.611,222.771c0.436,0.011,0.878,0.026,1.318,0.04l-89.268,297.16
	l53.847-308.232C1082.91,215.516,1093.363,221.739,1105.611,222.771z M1057.788,208.904c4.471,0.272,8.686,1.233,12.771,2.529
	l-55.3,316.546l-68.467,288.484l50.299-392.588l47.275-217.464C1048.827,207.741,1053.351,208.634,1057.788,208.904z
	 M1021.851,195.946c6.451,4.102,13.897,7.78,21.563,10.178L997.58,416.961l16.073-227.483
	C1016.269,191.911,1019.007,194.137,1021.851,195.946z M980.87,181.933c6.713-1.821,13.804-7.342,21.238-4.903
	c3.225,3.819,6.782,7.897,10.613,11.57l-16.615,235.149l-51.485,401.854l-28.861,121.607l-6.356-155.54L922.51,507.01
	l41.298-321.887C969.595,184.467,975.311,183.441,980.87,181.933z M918.778,184.045c14.278,1.886,29.37,2.74,44.017,1.192
	l-40.478,315.498l-9.973-317.246C914.502,183.603,916.651,183.764,918.778,184.045z M911.352,183.438l10.17,323.527L908.94,780.269
	l-14.809-362.411l15.228-234.501C910.023,183.381,910.688,183.408,911.352,183.438z M868.98,176.486
	c6.895,1.954,14.098,3.071,20.93,4.892c5.997,1.598,12.238,1.726,18.459,1.943l-14.855,228.774l-25.402-236.057
	C868.399,176.187,868.684,176.334,868.98,176.486z M817.046,174.526c5.617-2.116,13.989-3.248,18.985-6.426
	c12.374-7.87,1.62-7.915,31.026,7.391l26.084,242.394l15.274,373.796l-10.401,225.932l-68.568-508.057L814.11,175.599
	C815.091,175.248,816.07,174.893,817.046,174.526z M788.118,182.829c8.505-1.681,16.85-4.004,25.018-6.881l15.062,328.028
	l-71.058-316.932C767.548,186.392,777.923,184.844,788.118,182.829z M743.382,187.351c1.488,0.036,2.976,0.031,4.465,0.022
	l-32.156,237.372l-9.981-245.781C718.016,183.138,730.207,187.036,743.382,187.351z M670.772,180.103
	c4.136-1.746,8.702-5.949,12.945-6.894c4.955-1.103,10.224,1.781,14.873,3.341c2.046,0.686,4.082,1.382,6.115,2.073l10.224,251.769
	l-27.279,567.28c-1.033-4.314-2.139-8.828-3.311-13.523l-40.363-465.319l7.059-331.764
	C657.738,185.111,664.337,182.819,670.772,180.103z M686.888,1013.532l-1.987-22.903c0.906,3.679,1.765,7.228,2.576,10.646
	L686.888,1013.532z M687.282,1029.532c-0.057-0.003-0.115-0.006-0.172-0.009l0.061-1.27L687.282,1029.532z M525.522,479.921
	c-0.466,2.14-0.883,4.017-1.238,5.602c-0.01-3.042-0.215-6.787-0.59-11.135C524.32,476.263,524.931,478.109,525.522,479.921z
	 M523.297,470.173c-0.836-8.235-2.17-18.219-3.873-29.431l8.851,26.171c-0.861,4.185-1.651,7.917-2.346,11.135
	C525.085,475.482,524.207,472.855,523.297,470.173z M526.127,481.788c6.029,18.665,10.016,33.773,10.784,42.884l-13.038-32.93
	C524.047,491.004,524.868,487.515,526.127,481.788z M526.538,479.908c0.689-3.166,1.487-6.904,2.364-11.14l23.685,70.03
	c1.209,3.859,85.222,272.272,124.177,420.025l8.305,68.746L575.298,621.625l-37.258-94.101
	C538.007,518.642,533.583,501.547,526.538,479.908z M529.298,466.849c2.041-9.934,4.471-22.386,6.965-36.553l15.474,102.899
	L529.298,466.849z M619.613,356.564l23.375,162.32l39.835,459.242c-1.603-6.326-3.315-12.945-5.126-19.826L615.6,444.284
	C618.911,429.386,619.839,395.259,619.613,356.564z M678.612,965.871c1.688,6.477,3.278,12.689,4.763,18.616l3.159,36.413
	l-0.363,7.542L678.612,965.871z M650.039,187.358l-6.925,325.459l-23.556-163.584c-0.572-61.373-3.778-131.682-4.898-154.702
	C626.598,192.955,638.475,190.668,650.039,187.358z M597.86,196.322c5.267-0.433,10.545-0.984,15.814-1.663
	c1.079,22.171,4.072,87.76,4.817,147.167l-20.95-145.484C597.649,196.335,597.753,196.331,597.86,196.322z M596.551,196.41
	l22.023,152.936c0.369,39.63-0.363,75.49-3.471,92.396l-49.199-246.627C575.762,196.601,585.685,197.198,596.551,196.41z
	 M564.862,194.954l49.746,249.362l61.254,507.046C637.008,805.2,558.188,553.359,553.54,538.532l-16.739-111.315
	c2.83-16.304,5.71-34.724,8.165-54.099c7.313-57.696,12.202-135.527-5.003-183.482C548.582,191.811,556.717,193.675,564.862,194.954
	z M514.367,198.358c3.992-1.435,18.817-10.454,22.588-9.486c0.618,0.158,1.224,0.311,1.836,0.466
	c17.416,47.704,12.524,125.8,5.194,183.645c-2.307,18.207-4.99,35.568-7.652,51.121l-33.299-221.441
	C506.826,201.202,510.602,199.712,514.367,198.358z M487.52,208.005c4.897-1.353,9.746-3.129,14.566-4.977l33.711,224.179
	c-2.531,14.573-5.021,27.448-7.13,37.782l-10.125-29.939c-11.583-73.751-37.219-193.484-43.955-224.581
	C478.8,209.138,483.269,209.179,487.52,208.005z M450.255,231.899c6.458-7.347,13.769-17.555,23.386-21.107
	c6.46,29.916,30.899,144.357,42.91,218.366l-66.639-197.038C450.028,232.049,450.139,231.971,450.255,231.899z M449.054,232.674
	l68.437,202.354c1.829,11.587,3.31,22.028,4.32,30.805c-26.083-75.63-75.756-190.844-89.052-221.391
	C438.336,240.729,443.413,236.295,449.054,232.674z M420.009,250.107c2.921-1.733,6.396-2.059,9.415-3.574
	c0.848-0.489,1.676-1.006,2.496-1.535c13.648,31.356,64.791,150.004,90.37,225.233c0.796,7.736,1.15,13.904,0.952,18.05
	c-11.358-58.534-94.497-210.909-105.782-231.414C419.748,255.822,419.348,252.34,420.009,250.107z M408.376,252.433
	c2.663,1.485,5.158,3.267,7.841,4.732c0.092-0.006,0.17-0.026,0.257-0.037c10.917,19.826,96.593,176.703,106.197,233.538
	c-24.073-17.563-61.021-40.068-97.991-61.436l-48.328-145.632C389.127,275.792,399.812,264.91,408.376,252.433z M421.016,481.401
	l16.701,49.462l-90.215-143.766c8.705,4.753,18.208,9.981,28.194,15.533L421.016,481.401z M377.376,403.565
	c6.95,3.868,14.121,7.888,21.413,12.01l20.604,61.018L377.376,403.565z M423.545,485.797l44.586,77.494l194.36,435.931
	L439.988,534.493L423.545,485.797z M421.922,480.989l-21.841-64.683c7.84,4.437,15.808,8.988,23.779,13.593l42.701,128.676
	L421.922,480.989z M361.289,290.947c4.988-1.848,9.719-4.142,14.199-6.811l47.902,144.35c-7.977-4.605-15.948-9.154-23.784-13.585
	l-41.467-122.806C359.189,291.707,360.245,291.334,361.289,290.947z M350.733,295.832c1.945-1.495,4.179-2.508,6.479-3.391
	l41.103,121.729c-7.466-4.218-14.803-8.327-21.897-12.272l-41.96-72.931C340.001,318.215,340.809,303.461,350.733,295.832z
	 M333.713,330.344c0.066-0.115,0.128-0.233,0.193-0.35l40.832,70.971c-10.057-5.586-19.602-10.832-28.312-15.583l-24.031-38.295
	C327.108,341.234,331.056,334.957,333.713,330.344z M321.737,347.9l22.912,36.513c-18.963-10.334-33.743-18.209-40.851-21.975
	C310.216,360.134,316.433,354.342,321.737,347.9z M249.54,430.267c3.206-10.054,7.761-19.631,13.138-28.698
	c2.745-4.628,6.317-8.76,9.688-12.967l122.56,224.092L248.664,433.162C248.945,432.193,249.234,431.227,249.54,430.267z
	 M248.334,434.325L397.55,617.482l254.376,383.068l-301.764-370.46L245.604,475.528c0.034-1.873-0.601-4.141-0.853-7.443
	C243.885,456.741,245.287,445.275,248.334,434.325z M224.027,484.879c4.934,0.07,13.741-1.239,17.939-3.987
	c2.083-1.363,3.055-2.561,3.436-3.895l100.618,148.74L209.87,482.716C214.578,483.518,219.26,484.607,224.027,484.879z
	 M92.651,454.141c6.588,1.651,13.248,3.017,19.96,4.051c4.178,0.643,13.462,0.216,16.968,3.021c4.857,1.929,9.714,3.858,14.57,5.787
	c7.213,5.582,12.239,10.527,20.482,12.354l436.881,475.642C445.244,793.829,143.161,502.735,92.651,454.141z M632.772,987.564
	L166.266,479.67c0.524,0.085,1.054,0.165,1.605,0.225c10.421,1.149,20.85,2.77,31.364,1.964c3.04-0.154,6.036,0.139,9.018,0.596
	l141.138,148.26l308.165,378.316l12.77,19.231C660.348,1016.991,647.644,1003.251,632.772,987.564z M673.741,1030.716
	c-0.146,0.077-0.289,0.162-0.435,0.24l-9.318-14.033l9.837,12.076C673.796,1029.573,673.763,1030.139,673.741,1030.716z
	 M674.006,1027.657l-15.651-19.213L398.37,616.929L273.035,387.762c2.57-3.248,4.982-6.562,6.76-10.204
	c0.934-1.914,0.883-10.739,1.677-11.396c6.31-5.223,11.269-2.036,18.151-2.741c0.954-0.098,1.908-0.292,2.858-0.56
	c6.902,3.654,22.741,12.083,43.244,23.267l93.37,148.794l235.912,492.736C674.675,1027.658,674.336,1027.654,674.006,1027.657z
	 M678.721,1042.043c-1.238-0.465-1.832-2.317-1.049-3.356C679.384,1037.894,680.602,1041.706,678.721,1042.043z M684.78,1048.815
	c-2.218-4.495-3.624-9.386-6.297-13.643c0.782-2.673,0.109-5.247-1.376-7.515c-0.289-0.003-0.567,0.001-0.854,0l-207.22-464.774
	L425.15,430.646c37.06,21.441,73.983,43.968,97.796,61.449l14.127,35.677l146.855,512.636l0.951-0.273L540.798,537.178
	l33.561,84.758l110.331,408.029c-1.106,2.525-1.099,5.444-0.02,7.998c1.643,4.277,2.802,8.811,2.643,13.425
	C686.215,1050.785,685.186,1050.023,684.78,1048.815z M687.275,1046.349c0.069-0.871,0.198-2.614,0.267-3.485
	c0.335,0.111,0.644,0.255,0.933,0.42l0.255,2.943C688.178,1046.275,687.647,1046.32,687.275,1046.349z M689.717,1046.141
	l-0.177-2.036c0.511,0.53,0.904,1.183,1.17,1.947C690.445,1046.077,690.094,1046.108,689.717,1046.141z M694.839,1051.597
	c-2.901-2.267-3.237-6.128-4.495-9.316c-1.673-4.01-0.802-8.445-1.059-12.643c-0.338-0.018-0.668-0.035-1.004-0.053l-0.755-8.7
	l0.775-16.115c3.712,15.883,6.273,28.585,7.342,37.086c-0.482,0.01-0.965,0.012-1.448-0.01
	C694.225,1045.092,694.532,1048.339,694.839,1051.597z M727.283,1159.661c-1.337,1.614-3.564-0.861-2.04-2.138
	C726.55,1156.058,728.649,1158.384,727.283,1159.661z M759.301,1311.843c-2.56-7.739-5.681-48.177-5.633-49.186
	c6.315,8.605,5.051,27.823,7.94,45.968C762.113,1309.962,760.965,1313.902,759.301,1311.843z M765.459,1196.442
	c-3.208-0.931-6.396-0.248-9.594,0.05c-6-2.673-12.366-4.386-18.672-6.208c-0.723-3.723,0.079-8.802-3.663-11.049
	c-4.673-2.752-5.643-8.821-5.584-13.801c4.247-1.257,8.039-3.614,12.237-4.99c5.732-2.574,12.178-0.455,18.098-2.317
	c1.762,5.93,3.02,12.029,5.287,17.801c1.782,4.792,0.317,10.049,2,14.88C765.677,1192.63,767.499,1195.165,765.459,1196.442z
	 M820.912,1456.797c-5.94,3.762-12.9,5.95-18.118,10.772c-1.307,1-2.713,1.861-4.158,2.653c-0.228-1.634-0.327-3.257-0.653-4.841
	c-3.434-4.688-13.373-8.577-21.662-6.346c-4.269-5.789,10.978-11.435,13.772-15.069c3.567-4.577,26.644-8.898,31.207-8.891
	c-0.257,1.901-1.119,3.624-2.158,5.237C820.378,1445.699,821.605,1451.233,820.912,1456.797z M855.693,1199.729
	c-1.505-0.297-1.742-2.515-0.832-3.485C856.753,1195.323,857.782,1199.511,855.693,1199.729z M859.624,1195.086
	c-2.594-0.574-4.564-2.485-6.99-3.366c-3.737-0.96-7.732,11.387-8.376,15.375c-2.049,0.584-4.089,1.168-6.138,1.703
	c-1.554-3.713-4.208-6.683-6.881-9.594c-1.099-1.129,0.317-2.317,0.921-3.218c4.515-5.356,5.109-12.613,6.544-19.187
	c1.059-5.327-1.337-10.623-0.03-15.88c0.445-2.822-0.545-5.564-0.851-8.317c4.297-1.198,8.168-3.455,12.198-5.287
	c4.851-1.099,8.643,3.643,9.495,7.96C860.341,1163.537,856.578,1181.174,859.624,1195.086z M848.337,1128.396
	c-5.812-0.465-8.208-6.97-13.148-9.237c-0.139-0.614-0.406-1.842-0.544-2.455c-6.707-0.718-24.287-7.909-37.662-1.495
	c-5.505,2.703-11.891-0.03-17.484,2.327c-4.336,1.327-7.524,4.732-11.554,6.673c-1.624-1.426-3-3.515-5.297-3.792
	c-17.389-3.55-16.879-1.996-27.029-0.178c-1.059,0.297-2.02,0.119-2.871-0.535c-5.079-2.94-10.326-6.277-16.356-6.544
	c-1.922-4.191-2.36,0.573,0.802-21.484c0.723-3.129-2.564-5.426-2.089-8.505c1.693-1.366,3.901-1.752,5.901-2.485v-2.94
	c-2.96-0.02-5.792,0.762-8.406,2.109c-1.139-2.218-3.218-3.356-5.475-4.119c-1.733,1.297-3.505,2.604-5.534,3.426
	c-1.159-4.544-4.494-25.43-4.691-26.76c0.365-1.644,0.347-4.37-0.019-8.074c1.483-0.647,2.954-1.387,3.839-2.819
	c-1.376,0.1-2.749,0.239-4.122,0.309c-1.147-9.212-3.99-23.178-8.122-40.677l27.444-570.698l32.927-243.063
	c2.432-0.03,4.863-0.133,7.293-0.271l72.326,322.589l68.967,511.015c-0.089-0.059-0.177-0.125-0.266-0.183
	c-1.98,2.802-2.079,6.217-1.99,9.514c-0.911,0.851-1.802,1.723-2.683,2.594c1.099,3.307-0.208,6.623-0.812,9.891
	c-1.233,6.205-8.13,53.062-10.386,64.987c-6.524-0.079-12.98,1.119-19.336,2.435C849.658,1113.65,849.644,1118.863,848.337,1128.396
	z M886.375,1141.266c-0.01,1.297-0.01,2.614,0,3.95c-0.743,0-2.228,0-2.97-0.01c-0.01-1.327-0.01-2.643,0-3.95
	C884.147,1141.256,885.632,1141.256,886.375,1141.266z M876.336,1150.523c-5.589-4.69-7.576-2.454-6.861-12.287
	c5.128-1.158,6.584,4.564,9.98,7c-0.495,0.901-0.98,1.822-1.455,2.752c-0.762-0.139-1.525-0.277-2.267-0.406
	C875.94,1148.543,876.138,1149.523,876.336,1150.523z M867.287,1192.086c-1.574-2.624-0.178-5.633,0.555-8.267
	c2.228-0.188,2.772,2.485,3.94,3.881c1.96,0.059,3.93,0.109,5.911,0.198c0.089,3.505-2.346,6.148-4.525,8.614
	c-2.099,0.99-2.624-1.802-2.416-3.277C869.574,1192.888,868.336,1192.68,867.287,1192.086z M867.841,1180.948
	C870.861,1179.463,867.881,1184.215,867.841,1180.948L867.841,1180.948z M871.158,1182.75c2.535-0.257,5.287,0.099,5.693,3.148
	C874.316,1186.106,871.514,1185.799,871.158,1182.75z M877.672,1174.136c-2.792,0.337-4.732-1.604-4.376-4.386
	C876.068,1169.404,878.009,1171.344,877.672,1174.136z M874.88,1135.405C877.821,1133.87,875.019,1138.672,874.88,1135.405
	L874.88,1135.405z M875.841,1126.544c1.346-1.436,3.554,0.871,2.129,2.198C876.663,1130.187,874.514,1127.801,875.841,1126.544z
	 M862.485,1154.157c3.723,0.772,7.307,2.059,10.98,3.01c-1.139,4.356-1.198,8.93-2.366,13.287c-3.416,3.99-5.198,8.92-7.425,13.603
	c0.327,3.653,0.743,7.485-1.337,10.782C862.087,1191.409,859.648,1180.066,862.485,1154.157z M878.138,1201.531
	c-4.97,0.406-9.841-0.842-14.782-1.089c0.346-1.287,0.733-2.535,1.148-3.772c4.534,1.455,9.267,2.307,14.049,2.069
	C878.455,1199.442,878.247,1200.828,878.138,1201.531z M875.445,1168.166c-0.366-2.564,0.198-5.227,3.247-5.465
	C878.167,1164.711,878.266,1168.097,875.445,1168.166z M906.998,1174.463c-3.99,0.891-5.97,4.832-9.277,6.851
	c-5.653,3.436-11.465,6.614-17.395,9.544c-2.901-6.039-0.069-12.455-0.654-18.761c0.832-4.109,1.436-8.307,2.406-12.346
	c1.891-0.951,3.99-1.396,6.029-1.931c2.099-3.327,2.703-7.227,3.861-10.891c3.515-3.931,8.465-6.059,12.91-8.722
	c2.643,7.465,1.436,15.455,3,23.098C908.513,1165.691,907.998,1170.166,906.998,1174.463z M912.879,1070.457
	c-1.154-0.358-2.52-0.447-3.248-1.525c3.143-10.644,1.865-0.525,11.32-39.203l84.206-103.417
	C973.439,976.424,942.296,1024.93,912.879,1070.457z M1009.6,919.289l-21.81,26.786l23.314-29.165
	C1010.602,917.704,1010.102,918.496,1009.6,919.289z M1014.827,912.87c0.615-0.974,1.231-1.952,1.846-2.927l412.419-515.921
	c2.452,0.597,4.992,0.653,7.501,0.862L1014.827,912.87z"/>
</svg>
