<?xml version="1.0" encoding="utf-8"?>

<!DOCTYPE svg PUBLIC "-//W3C//DTD SVG 1.1//EN" "http://www.w3.org/Graphics/SVG/1.1/DTD/svg11.dtd">
<svg version="1.1" id="Layer_1" xmlns="http://www.w3.org/2000/svg" xmlns:xlink="http://www.w3.org/1999/xlink" x="0px" y="0px"
	 viewBox="0 0 1804.9563 1009.6874" enable-background="new 0 0 1804.9563 1009.6874" xml:space="preserve">
<g>
	<path d="M1264.4078,690.7608c5.5645,1.2816,5.1998,4.6324,4.5931,8.1229c-0.8842,5.0875-0.9098,10.2593-1.4136,15.3669
		c-0.6091,6.1723-0.6028,12.4659-1.9233,18.4985c-0.886,4.0477-0.89,8.1425-1.1947,12.1199
		c-0.6776,8.8476-2.2389,17.652-2.275,26.4887c-0.0199,4.841-1.3848,9.4939-0.9202,14.4363
		c0.286,3.0422-0.4386,6.5187-1.0626,9.7452c-0.8054,4.1645-0.7518,8.342-0.3364,12.5192c0.1973,1.9829-1.1495,3.4819-1.2743,5.3847
		c-0.7974,12.161-1.5801,24.3199-3.0237,36.4354c-0.736,6.1765-3.108,8.6858-9.2357,8.5383
		c-3.8269-0.0921-7.4935-0.4915-11.267-1.5302c-8.3473-2.2979-17.058-2.0321-25.6548-2.512
		c-6.8477-0.3823-13.6809-1.0306-20.5178-1.595c-11.5264-0.9514-23.0999-1.0444-34.6149-0.5724
		c-4.2603,0.1746-9.8322-1.1411-12.7842,4.2278c-0.4702,0.8552-1.7281,0.4352-2.6255,0.4539
		c-9.8295,0.2036-19.5073-1.3483-29.2357-2.4141c-3.3844-0.3708-6.8892-0.9248-10.2042-0.7516
		c-6.4695,0.3377-12.6705-1.3014-18.9598-1.9286c-12.5044-1.2471-24.9645-2.558-37.5355-2.111
		c-11.3783,0.4047-22.8663,0.717-34.0763,1.9462c-11.0572,1.2124-22.0165,0.1526-32.9121,1.2361
		c-9.9141,0.9857-19.9658,0.191-29.7335,4.1866c-8.446,3.4549-18.0035,1.7643-26.9679,1.1837
		c-7.5813-0.491-15.1269-0.4053-22.6829-0.5165c-13.2584-0.1951-26.442-2.0585-39.7211-1.6609
		c-0.5209,0.0156-1.1312,0.015-1.5571-0.2281c-4.8818-2.7872-10.3837-1.7356-15.5226-2.0838
		c-12.1433-0.8225-24.3027-1.6379-36.4983-1.9034c-5.7971-0.1263-11.6467-0.3439-17.4703-0.5791
		c-24.9999-1.0096-50.0257-0.3017-75.0173-0.9813c-16.8398-0.4579-33.6613-1.5802-50.5302-1.5183
		c-7.7039,0.0283-14.4957-3.7583-20.8398-7.4252c-5.9777-3.4548-12.0225-6.8106-18.028-10.2256
		c-8.7786-4.9919-17.9653-9.2466-26.4223-14.8316c-2.5168-1.6621-5.4116-2.7527-8.1351-4.1013
		c-14.1131-6.988-21.7357-21.0182-19.5006-36.5024c0.7758-5.3747,3.5487-9.985,7.2097-14.0019
		c1.5037-1.65,3.0611-3.2511,5.0112-5.316c-2.1017-0.3042-3.5046-0.7863-4.7332,0.7842c-0.3781,0.4833-1.1063,0.9518-1.6915,0.9742
		c-6.4473,0.2457-7.0903,5.1294-8.5948,9.8925c-6.7904,21.4969-14.9265,42.476-27.006,61.6316
		c-7.7097,12.226-16.726,23.4772-26.1921,34.4678c-13.5256,15.7038-28.4311,29.8049-44.5437,42.7286
		c-10.7967,8.6599-22.0944,16.7557-34.125,23.4458c-15.4178,8.5738-31.6257,15.643-48.5785,20.9581
		c-8.9992,2.8214-18.1808,4.9414-27.1642,7.8335c-6.6652,2.1457-13.9657,1.3508-20.966,2.259
		c-11.6945,1.5174-23.374,3.8717-35.2918,2.6816c-9.1092-0.9095-18.2332-1.6889-27.326-2.7394
		c-15.7522-1.8201-31.1819-5.2495-46.6227-8.8502c-7.261-1.6931-14.8192-2.5294-21.4131-5.9652
		c-18.6417-9.7131-38.6739-16.7011-56.1269-28.7471c-8.6444-5.9662-17.6214-11.4586-26.1516-17.5784
		c-3.8498-2.7621-7.0176-6.4907-10.4237-9.8527c-39.4705-38.9599-62.8776-86.397-73.7554-140.3561
		c-2.1445-10.6378-2.929-21.5264-4.5206-32.2419c-1.6273-10.9562-0.5563-21.8382-0.9542-32.7141
		c-0.2273-6.2114,1.1206-12.841,1.9962-19.2477c4.8629-35.5823,15.4093-69.3572,33.1989-100.6371
		c33.4075-58.7412,80.4033-102.2858,143.7673-127.1927c19.5166-7.6715,39.6707-12.8137,60.4991-15.8622
		c14.0936-2.0628,28.136-3.1888,42.2856-2.6825c8.2574,0.2954,16.5121,1.1634,24.7646,2.1227
		c16.8524,1.959,33.3117,5.3899,49.4296,10.4624c27.7361,8.7289,53.5883,21.3611,77.1264,38.5128
		c14.011,10.2096,27.2079,21.3836,38.9041,34.2437c0.2323,0.2554,0.5923,0.3946,1.5598,0.1258
		c-1.9231-2.811-3.8123-5.6458-5.7747-8.429c-10.9929-15.5912-23.5164-29.9248-36.114-44.2133
		c-11.3833-12.9113-23.6987-24.8425-36.6825-36.1071c-3.2114-2.7862-7.132-4.7273-9.8314-8.1226
		c-0.5958-0.7493-2.0279-1.391-1.1636-2.5963c0.5911-0.8243,1.6877-0.3825,2.6004-0.0741
		c20.6794,6.9881,40.8347,15.1389,60.2002,25.3334c6.14,3.2323,12.4198,6.0726,17.7458,10.5594
		c11.5454,9.7261,23.3533,19.1778,34.4101,29.4355c9.6616,8.9633,20.6711,15.6335,32.1028,21.8216
		c2.219,1.2011,3.2114,0.3718,2.9175-2.1506c-0.848-7.2786-1.7169-14.5558-2.452-21.8461
		c-1.7618-17.4705-3.2292-34.9789-7.9016-52.0099c-1.3886-5.0617-3.4302-10.0347-2.6239-15.4749
		c0.1537-1.037,0.0525-2.2726,0.5872-3.0683c8.1032-12.0578,16.399-23.9659,28.2502-32.8005
		c0.1061-0.0791,0.178-0.2253,0.2928-0.2683c4.3746-1.6407,8.9259-0.7811,13.3644-0.6678
		c4.1104,0.1049,8.4348-0.8746,11.9265,3.3521c2.2137,2.6795,6.3881,1.0775,9.8019,0.9962
		c-6.1757-5.0681-11.6396-10.984-19.3428-13.5495c-5.7582-1.9178-10.6454-5.3681-15.8419-8.2933
		c-5.9506-3.3497-12.2223-5.6681-19.1818-5.679c-2.969-0.0046-5.0235-1.9937-6.4865-4.0829
		c-1.9193-2.7408-4.3486-4.683-7.1501-6.2104c-21.4896-11.7171-43.0121-23.3737-64.5241-35.0496
		c-1.6384-0.8893-3.3716-1.6425-4.8957-2.6974c-7.0291-4.865-15.6307-6.549-22.7077-11.2686
		c-4.5835-3.0568-9.5926-5.3306-14.2672-8.2751c-15.321-9.6508-26.163-23.9677-38.7959-36.368
		c-8.2479-8.0959-18.5974-12.1967-28.1833-17.8064c-1.0266-0.6008-1.9077-0.7961-3.1298,0.3241
		c-4.7306,4.3363-11.503,3.4319-15.3043-1.8703c-1.3962-1.9474-2.9964-3.8621-3.8766-6.0446
		c-2.5815-6.4015-7.6724-10.0521-13.1569-13.7562c-14.5634-9.8359-28.4429-20.6142-41.8985-31.9323
		c-4.2405-3.5668-8.671-6.9071-12.9593-10.4184c-1.0049-0.8228-2.0984-1.702-2.2498-3.1823
		c-0.4114-4.0257-3.4142-6.0161-6.3254-8.0979c-11.2734-8.0618-22.5424-16.1299-33.7947-24.221
		c-1.0715-0.7705-2.1213-1.6249-2.9896-2.6093c-0.9174-1.0401-1.3638-2.4083-0.5511-3.6843c0.7308-1.1475,1.9282-0.58,2.9218-0.3052
		c4.2824,1.1844,8.414-0.5907,12.6313-0.5954c9.865-0.0109,19.7604,0.4752,29.5857-0.1498
		c8.3694-0.5324,16.7226-0.8288,25.0741-0.6022c27.4147,0.7439,54.8532,1.1482,82.2053,3.2236
		c8.8312,0.6701,17.6971,0.9681,26.5196,2.2071c14.9739,2.1028,28.4836,8.34,42.4148,13.5362
		c6.3773,2.3786,10.0097,7.225,13.6,12.2456c8.0457,11.2509,16.86,21.9853,23.476,34.2164
		c3.866,7.147,7.7111,14.2962,8.8425,22.5366c0.4123,3.0026,1.917,5.3973,4.5066,7.1891
		c7.3417,5.0797,14.5508,10.3515,21.9075,15.4089c11.986,8.2399,24.8701,14.8558,38.4425,19.9927
		c9.801,3.7095,20.3165,4.2167,30.6318,5.209c11.6198,1.1178,23.3112,1.3998,34.9741,1.9762
		c15.7001,0.7758,31.3861,0.0037,47.0377,0.6131c7.9717,0.3104,16.0165,1.2475,24.0225,1.5607
		c13.3689,0.5231,26.3956,2.961,39.24,6.3118c5.4788,1.4293,10.3534,4.7184,15.1393,7.8632
		c2.9477,1.9369,5.2399,1.3986,5.5084-1.9634c0.3273-4.0981,2.6832-7.052,4.2692-10.3911
		c9.9882-21.0278,23.5137-39.1734,42.7474-52.8424c8.0719-5.7366,16.7772-10.1634,25.3449-14.9802
		c9.7374-5.4743,19.6204-10.6266,29.5858-15.6271c20.134-10.1028,41.1727-17.8972,62.8658-23.929
		c13.3299-3.7064,26.6422-7.1278,40.4935-8.8912c15.2131-1.9368,30.0531-0.7805,45.1127,0.7138
		c8.6155,0.8549,17.2598,1.3524,25.6763,3.3687c23.7952,5.7003,47.9523,9.9685,71.2885,17.4922
		c18.2296,5.8773,36.71,11.2523,52.7844,22.2609c4.3558,2.9831,9.0076,5.655,11.2906,10.8752
		c0.5164,1.1804,1.4307,2.7553,3.3975,1.5562c1.5875-0.9679,1.738-2.2595,1.0428-3.7672c-1.7499-3.7939-4.821-6.3107-8.3057-8.3907
		c-8.1212-4.848-16.4792-9.2338-25.2225-12.8654c-0.6586-0.2736-1.2595-0.6859-1.7715-1.2646
		c5.2734,1.3872,10.3608,3.2573,15.0297,6.0197c6.1816,3.6575,12.0366,3.6862,18.9185,1.1762
		c4.4006-1.605,10.0122-0.7988,14.8741,0.0759c3.4692,0.6241,5.0771,4.4114,6.5647,7.6048
		c2.8535,6.1262,6.5001,11.8682,8.8879,18.2195c1.3799,3.6704,3.8756,4.664,7.7383,4.2283
		c6.4968-0.7326,5.7075-0.6963,7.1584-6.6438c1.379-5.6532,1.5111-12.1201,6.8787-16.3782
		c7.2317-5.7368,13.3307-4.3718,19.6899,0.7398c7.072,5.6844,6.9148,6.078,12.5189-1.0284
		c4.028-5.1074,8.3842-9.9814,11.3195-15.913c1.2753-2.5772,4.6085-3.1185,6.3375-5.7436c1.481-2.2486,2.8938-4.4779,3.6046-6.9739
		c0.6833-2.3996,1.7509-4.3819,3.5103-6.0694c1.4843-1.4236,2.7412-2.8235,1.4049-5.1436c-0.4783-0.8306-0.546-2.3813,0.5586-2.8931
		c3.1476-1.4586,1.4392-2.6179,0.1031-4.2113c-2.1276-2.5374-4.8293-4.6093-6.2589-7.7315
		c-2.4609-5.3749,0.0271-12.9353,5.032-16.1497c4.0985-2.6322,8.0081-5.578,11.8601-8.5667
		c2.2949-1.7805,1.7195-3.1081-0.9414-4.1747c-11.0796-4.4409-20.8932-11.074-30.3627-18.1924
		c-4.1293-3.1041-3.9117-6.0245,0.774-8.3457c6.5143-3.2271,12.2283-7.942,19.3453-10.065c3.333-0.9943,5.724-3.7698,8.4955-5.7817
		c13.1716-9.5618,26.7642-18.4276,41.432-25.5425c2.8617-1.3882,5.8517-2.5837,8.8892-3.5231
		c5.5294-1.7101,10.254-1.0006,15.0763,3.1164c17.9484,15.3237,36.2869,30.2499,53.0905,46.8027
		c21.6366,21.3142,43.7561,42.1862,63.8356,65.0441c2.4562,2.796,5.1825,5.363,7.8718,7.9442
		c11.4718,11.0115,20.814,23.8527,31.1219,35.8659c4.8135,5.6097,9.5392,11.4268,14.9569,16.4456
		c5.9989,5.5572,9.2572,12.94,14.2651,19.0924c3.7413,4.5965,6.9204,9.587,10.7152,14.1684
		c4.7485,5.7326,9.2845,11.7032,13.7635,17.6862c7.583,10.1294,14.6305,20.5787,21.3188,31.2829
		c10.1107,16.1816,18.9775,33.0138,25.6525,50.9334c2.4937,6.6944,3.9568,13.6996,7.4935,20.1028
		c2.7938,5.0581-2.2383,12.0098-8.2561,12.1205c-4.0645,0.0748-7.9967,0.2244-11.3535,2.8717
		c-0.91,0.7177-1.7599,0.1003-2.6537-0.0045c-1.4679-0.1721-2.8328,0.2184-2.8015,1.9571c0.0276,1.5358,0.5588,3.0055,2.7087,2.2176
		c1.8992-0.6961,1.8184,0.5126,1.937,1.8421c0.3164,3.5441-0.8531,6.4478-3.1698,9.1044
		c-6.4684,7.418-12.2003,15.4577-19.0826,22.5339c-2.1348,2.1951-3.8455,4.7379-4.8679,7.6875
		c-2.2262,6.4224-6.5148,10.6859-12.9003,13.2164c-8.7825,3.4803-17.5618,7.0089-26.2266,10.7498
		c-16.478,7.114-32.7472,14.7237-48.9601,22.4288c-3.08,1.4637-5.8541,3.4098-9.2926,4.2439
		c-1.7579,0.4265-4.1174,1.606-3.5917,4.1109c0.4971,2.3686,2.879,2.0173,4.65,1.9843c8.4797-0.1579,16.858,0.9709,25.2841,1.5878
		c18.5598,1.3589,36.7626,4.5327,54.6387,9.4474c9.3354,2.5666,18.2466,6.6712,27.5759,9.2674
		c7.7495,2.1565,14.6096,6.2599,21.4288,9.9016c10.9346,5.8395,21.5499,12.6273,31.0529,20.8344
		c2.1862,1.8879,2.2845,4.1364,0.9722,6.4707c-1.6172,2.8763-0.3965,4.6641,1.9502,6.3151c2.0913,1.4711,3.95,4.1166,5.6073,5.0422
		c13.4327,7.5013,22.5715,19.5834,33.2162,29.9926c13.0792,12.7899,24.163,27.3813,33.8322,42.8046
		c11.3016,18.0266,21.1854,36.9244,27.8251,57.2971c7.5216,23.0786,12.6541,46.6038,14.5347,70.8926
		c0.7108,9.1827,1.0538,18.3429,0.6021,27.4517c-1.0089,20.3347-3.9235,40.3417-10.34,59.8739
		c-4.5959,13.9906-10.764,27.2023-17.1791,40.3212c-2.8788,5.887-6.8175,11.3116-10.6736,16.7355
		c-2.6912,3.7856-6.2267,6.8353-8.556,11.0276c-4.5339,8.1609-11.748,14.3224-18.1296,21.036
		c-6.5637,6.9052-13.4512,13.4902-20.7782,19.6541c-14.1185,11.8777-29.3998,21.7765-45.9877,29.8583
		c-15.4176,7.5118-31.4675,12.9362-48.3284,15.7389c-9.1305,1.5176-18.3151,2.7244-27.6565,2.9998
		c-24.6853,0.7278-48.2869-5.1044-71.8656-11.1024c-19.5442-4.9715-38.1533-12.556-56.1677-21.5537
		c-22.974-11.4749-44.4943-25.3404-63.178-42.9393c-41.1456-38.7561-67.5017-86.2458-80.6776-141.0847
		c-3.3563-13.9692-5.0225-28.2339-6.5293-42.5397c-0.9805-9.3102-1.5291-18.6112-0.7274-27.8255
		c1.063-12.2192,1.7532-24.5226,4.3207-36.5852c7.3333-34.4525,19.7776-66.6613,41.4036-94.8809
		c1.0724-1.3994,2.9484-2.4385,2.624-4.6879c-0.1434-0.9951,0.5315-2.2253-0.7091-2.8813c-1.24-0.6556-1.9733,0.4296-2.7582,1.0622
		c-9.2479,7.452-18.2339,15.175-26.0496,24.1862c-5.0067,5.7727-9.6428,11.9178-12.9099,18.7109
		c-6.1094,12.7028-10.2638,26.1521-12.022,40.2214c-1.3711,10.9725-2.6057,21.9623-3.8584,32.9493
		c-0.1339,1.1754-0.0874,2.3953,0.0518,3.5739C1271.3344,686.3884,1270.0773,688.6513,1264.4078,690.7608z M1534.6998,792.7122
		c-0.0951,0.8887-1.8812,2.3565,0.5703,2.3965c1.4236,0.0233,3.5195,1.3548,4.2095-1.1932c0.1852-0.6839,0.0747-1.6806-0.3208-2.232
		c-0.5283-0.7366-1.4006-0.2136-2.1086,0.0991c-0.8232,0.3635-1.6532,0.7116-2.4802,1.0665
		c0.2083-0.6146,0.5575-1.2198,0.5991-1.8455c0.1388-2.0911-1.1776-3.373-2.745-4.4202c-0.6356-0.4246-1.3646-0.1818-1.6674,0.4728
		c-0.923,1.9957,0.6377,3.1432,1.6823,4.4247C1533.0071,792.1782,1533.5903,792.9669,1534.6998,792.7122z M199.5675,705.6909
		c1.9743,0.3511,3.0925-0.7343,2.5414-3.1905c-1.1663-5.1982-0.2288-10.3475,0.1709-15.5137
		c1.7253-22.297,9.6317-42.1863,23.5345-59.647c9.7958-12.3026,22.4885-21.0837,36.0279-28.7322
		c1.9194-1.0842,2.9183-1.7589,1.2302-4.0964c-9.5136-13.1741-18.7906-26.519-28.2944-39.7003
		c-5.8267-8.0813-9.0008-8.8152-17.338-3.5804c-51.7717,32.507-76.0094,80.4345-78.4943,140.5207
		c-0.1333,3.2235,1.1819,4.7803,3.9959,5.9651c5.4384,2.2896,11.2496,1.8752,16.8802,2.6838
		C172.8726,702.2743,185.9596,703.8961,199.5675,705.6909z M295.1107,852.1577c6.0036,0.4733,14.7975-0.1395,23.4939-1.4155
		c18.2136-2.6727,35.2875-8.8819,51.6528-17.2432c4.3234-2.2089,6.187-5.5498,6.4913-10.0719
		c0.709-10.5317-6.3884-18.3846-9.6619-27.548c-0.7197-2.0146-3.2322-1.4442-4.9948-0.6667
		c-2.5266,1.1146-0.4251,2.2905,0.0862,3.4016c1.3928,3.0267,1.5506,6.0723-0.7632,8.6056
		c-2.1443,2.3476-4.5558,3.228-8.1699,2.1082c-10.9597-3.3957-21.2853-9.1107-33.1213-9.4529
		c-0.7713-0.0223-1.5655-0.3572-2.2914-0.6776c-8.2671-3.6487-17.0419-4.7239-25.9387-5.681
		c-16.3565-1.7598-31.7482-6.5175-45.5408-15.9022c-5.0978-3.4686-9.5973-7.5921-14.2417-11.5688
		c-2.2169-1.8982-3.7092-1.7278-4.7935,1.0385c-6.1241,15.6242-11.9659,31.3398-15.1074,47.901
		c-0.8312,4.3818-0.2565,8.5634,2.8459,11.9825c3.846,4.2385,7.7942,8.3297,13.1511,10.837
		C248.5249,847.3135,269.7558,852.5967,295.1107,852.1577z M140.3967,717.9113c-0.0343,0.6652-0.1914,1.3509-0.0847,1.9926
		c2.2768,13.698,5.9863,27.0055,11.5768,39.7133c1.8497,4.2045,7.1989,5.2084,10.8261,2.1187
		c12.3944-10.558,26.0353-19.4252,39.0094-29.1921c5.6218-4.2321,5.2157-11.4885-0.8798-15.1292
		c-2.1395-1.2778-4.5815-2.1342-6.9797-2.8798c-12.738-3.9598-25.7693-6.546-38.9895-8.2916
		C145.0732,704.9489,141.0276,708.1084,140.3967,717.9113z M164.3607,779.9345c-0.0908,1.5175,0.086,2.8906,1.0246,4.1808
		c6.9037,9.49,14.4253,18.4519,22.7023,26.7756c6.2095,6.2444,10.0265,4.5782,15.9197-3.337
		c0.9784-1.3141,1.2784-3.194,1.6857-4.8628c2.7739-11.366,5.4785-22.7488,8.2351-34.119
		c1.3462-5.5526,3.1549-10.9982,3.8788-16.6937c0.497-3.91-1.2281-7.3564-3.9497-9.4971c-2.3867-1.8772-5.257,0.3781-7.6716,1.7882
		c-4.2507,2.4825-8.4947,4.9769-12.7638,7.4274c-8.3233,4.7779-16.5409,9.7275-23.5354,16.3833
		C166.5176,771.1857,164.6248,775.2302,164.3607,779.9345z M302.0945,576.5894c0,1.0655,0.0277,2.1318-0.0044,3.1964
		c-0.2473,8.1972-0.241,7.9818,7.9655,8.3605c4.1734,0.1926,7.1183-1.0081,10.1628-3.9478
		c8.8068-8.5035,18.0652-16.537,27.0466-24.8628c3.9003-3.6155,7.8519-7.2685,10.0364-12.2967
		c1.8017-4.1473,0.6957-9.5431-2.293-10.5839c-11.2132-3.9049-22.5814-6.9715-34.6249-6.95
		c-13.4482,0.024-17.5209,7.7661-17.4724,17.5373C302.9599,556.9139,302.3634,566.7406,302.0945,576.5894z M285.0271,530.3638
		c-8.9783,0.98-20.5725,3.7352-31.7056,8.2381c-4.7231,1.9105-8.0628,5.5212-10.137,10.2529
		c-1.2673,2.8911-1.3657,5.4011,0.8611,8.072c8.3489,10.0139,16.5025,20.1904,24.7878,30.2579
		c1.1728,1.425,2.5754,2.7037,4.0326,3.8445c5.301,4.1498,12.9536,1.7906,15.2583-4.5332c1.4046-3.8542,0.5849-7.873,1.1234-11.7166
		c1.6762-11.9632,4.0416-23.8281,6.0064-35.7531C296.6147,530.7676,296.1389,530.2988,285.0271,530.3638z M1411.5953,256.937
		c2.1282-0.1191,4.2501,0.239,6.3409-0.5397c5.3588-1.9958,10.7102-4.0275,16.1469-5.7908c2.915-0.9454,3.6093-2.3999,2.7861-5.3215
		c-1.5393-5.4627-2.175-11.0033,0.7101-16.3155c1.0294-1.8958,0.2389-3.4043-1.0758-4.6308
		c-4.9639-4.6306-9.4877-9.7301-14.9545-13.8307c-2.4518-1.839-4.9698-2.9107-8.1012-2.5238
		c-3.405,0.4207-6.4812-0.4905-9.5417-2.1609c-3.2433-1.7701-6.8014-2.9786-10.2615-4.3315
		c-2.3855-0.9328-4.0173,0.592-5.6965,1.9595c-1.7523,1.4271-0.532,2.8274-0.1544,4.3062c1.6627,6.512,4.783,12.9547,2.6039,19.8344
		c-2.1155,6.6792-1.5785,13.3796-1.2959,20.1389c0.0647,1.546,0.1832,2.858,1.9,3.5365
		C1397.6667,253.901,1404.1981,256.9938,1411.5953,256.937z M1654.9784,835.8419c-0.1542-3.6943-1.5162-6.2886-4.9734-8.0389
		c-4.6938-2.3764-8.8013-1.344-12.7423,1.3034c-9.3566,6.2852-18.3544,13.1553-29.0902,17.1007
		c-0.9664,0.3551-1.824,1.0739-2.6499,1.7275c-1.0709,0.8474-1.2959,1.8415-0.5264,3.1254
		c3.6189,6.0383,6.3203,12.615,10.7266,18.1934c4.0605,5.1407,8.5635,5.883,13.1775,1.3118
		c8.5002-8.4213,17.0326-16.8658,23.7329-26.894C1654.231,841.2797,1654.8093,838.5577,1654.9784,835.8419z M1563.9725,895.2795
		c13.7026-0.7264,26.7295-4.2054,39.1935-9.8223c3.8633-1.741,5.1913-5.8803,3.3104-9.6912
		c-3.1257-6.3332-7.1158-12.152-10.88-18.1091c-1.6683-2.6401-2.9908-2.2244-4.9457-0.408
		c-9.5747,8.8962-20.5045,15.5935-32.9504,19.6658c-2.8177,0.9221-4.4467,2.3182-4.9094,5.4171
		C1551.4359,891.4042,1554.7604,895.3676,1563.9725,895.2795z M1455.4409,818.0546c-1.3945-2.3766-2.6495-4.8801-4.2338-7.1542
		c-7.9685-11.439-16.9072-22.1906-24.178-34.1282c-0.5416-0.8892-1.4352-1.5599-2.1382-2.3561
		c-0.9581-1.0854-1.9781-1.2608-3.103-0.2736c-3.5969,3.1571-7.3806,6.1315-10.7229,9.5387
		c-2.4884,2.5368-2.9163,5.4896,0.0361,8.4171c1.5802,1.567,2.8685,3.5272,3.9287,5.5031
		c6.0542,11.2818,14.5792,20.5452,23.7109,29.32c7.2715,6.9872,8.3351,6.777,12.9249-2.1628
		C1452.8124,822.5251,1454.1266,820.3778,1455.4409,818.0546z M1625.7377,801.1083c2.0123-0.125,2.5787-1.1154,3.3047-1.8535
		c6.5814-6.6904,12.1406-14.1077,16.2585-22.5846c5.9391-12.2253,9.951-24.929,10.2368-38.6608
		c0.0708-3.389-1.3026-5.4744-4.5662-5.8876c-3.8164-0.4831-7.6866-0.5256-11.526-0.8484
		c-1.6079-0.1352-2.3323,0.5042-2.8623,2.0071c-2.0784,5.8931-4.3599,11.7147-6.4247,17.6122
		c-0.6063,1.7319-1.3525,3.7537-1.0024,5.4268c2.38,11.3779,0.2614,22.5449-1.2588,33.7375
		C1627.4027,793.6987,1626.4973,797.2847,1625.7377,801.1083z M1544.4724,852.7362c-1.6705-0.6756-2.6125-1.2289-3.626-1.4405
		c-14.9869-3.1301-28.7567-9.4116-42.3315-16.2211c-0.7933-0.3979-1.7704-0.5933-2.6643-0.6014
		c-7.3248-0.0662-14.6508-0.0309-21.9753-0.1129c-1.5374-0.0171-2.4843,0.3454-2.9065,1.9584
		c-0.3683,1.4064-1.0399,2.7311-1.5422,4.1049c-1.6339,4.4691-1.2196,5.6906,3.1014,7.9433
		c4.3699,2.2782,8.9592,4.0011,13.7224,5.3404c12.9098,3.6299,26.1476,4.5045,39.3947,3.9484
		C1531.8037,857.3972,1538.3654,856.9478,1544.4724,852.7362z M388.5314,786.6281c-4.8261-1.4703-8.2954,1.757-12.3709,1.4545
		c-1.6325-0.1212-1.1454,1.5136-0.923,2.4542c1.0715,4.5298,1.8682,9.1695,3.4376,13.527
		c2.9747,8.2592,15.3559,12.7024,22.1871,7.3578c9.226-7.2181,17.0656-15.5782,23.7394-25.1141
		c0.7753-1.1077,2.8976-1.987,1.9048-3.5139c-1.1414-1.7554-3.2648-1.4507-5.1059-0.7272c-2.9218,1.1481-5.8956,1.653-8.9779,0.7728
		c-1.2478-0.3564-2.3879-0.002-3.5009,0.4277C402.1264,785.8903,394.7323,784.2914,388.5314,786.6281z M1646.3018,709.0212
		c6.2828-0.056,7.3638-1.0726,6.4664-5.9598c-2.7378-14.9105-9.6705-28.0607-17.3217-40.894
		c-1.2557-2.1062-3.0868-2.6335-5.4902-1.8369c-4.2856,1.4205-8.6013,2.7783-12.9689,3.9141
		c-3.4124,0.8874-4.0844,2.0256-1.9181,5.22c7.9866,11.777,16.806,22.9985,23.9431,35.3373
		C1640.8529,707.9835,1643.1432,709.5177,1646.3018,709.0212z M571.048,741.6368c0,1.0624-0.0193,2.1254,0.0048,3.1873
		c0.0322,1.411,0.8005,2.0859,2.038,1.3459c3.6246-2.1672,7.6789-1.7319,11.5999-2.2647c4.686-0.6367,8.8024-2.8038,10.4695-7.4541
		c2.3737-6.6216,4.4998-13.3265,7.5891-19.6663c1.1836-2.4288,0.6645-3.4043-2.1694-2.9922
		c-7.4906,1.0892-15.0002,2.0478-22.4915,3.1323c-2.0255,0.2933-4.3099,0.9796-4.3107,3.3852
		C573.7755,727.5475,571.4554,734.4639,571.048,741.6368z M1002.9189,773.7728c7.3279,0.0023,14.6082-0.4013,21.8494-1.7023
		c10.1776-1.8287,20.278-3.5652,29.3307-9.2222c3.7629-2.3515,2.2974-4.5735,1.387-7.3056
		c-1.157-3.4719-3.3394-1.2019-4.8297-0.7377c-8.658,2.6968-16.6373,7.127-25.9778,8.2744
		c-4.5665,0.5609-8.3929,2.511-13.7438,1.571c-6.1705-1.0839-12.9646,1.8337-19.6292,2.1307
		c-1.7898,0.0798-2.9701,1.7976-2.5417,3.8658c0.4102,1.9803,1.3234,3.3107,3.776,3.1744
		C995.9896,773.6296,999.4583,773.7728,1002.9189,773.7728z M1480.296,878.5057c0.2412,1.7691,1.0674,2.2947,1.8831,2.6806
		c5.1392,2.4319,9.9163,5.519,15.2831,7.5967c4.6328,1.7933,9.5806,1.8649,14.0903,3.39
		c8.9016,3.0103,17.9601,3.1371,27.1135,3.2192c1.7192,0.0154,2.8423-0.5943,3.1456-2.3187
		c0.4126-2.3475,0.8431-4.6993,1.0833-7.0677c0.2687-2.6511-0.6418-3.6253-3.6593-3.2066c-6.5563,0.9099-13.2295,2.082-19.776,1.72
		C1506.3654,883.7951,1493.3151,882.1738,1480.296,878.5057z M1417.1067,635.3636c-0.548-5.0326-3.5842-8.4755-5.2648-12.4999
		c-1.0826-2.5925-1.9653-6.0381-6.0265-2.9952c-0.3628,0.2719-1.3822,0.0532-1.8612-0.2783
		c-3.2295-2.2343-5.0398-0.5869-6.6366,2.1809c-1.1288,1.9569-2.4823,3.783-3.6971,5.692c-0.4634,0.728-1.4131,1.5948-0.1271,2.3307
		c5.4752,3.1335,4.08,8.072,3.3341,12.77c-0.2482,1.5641-1.2615,3.0751,1.2166,3.6849c2.1805,0.5364,3.8635,3.4883,6.6667,0.6624
		c3.2721-3.2986,6.9991-6.1464,10.5338-9.1838C1416.1372,636.9603,1417.307,636.3761,1417.1067,635.3636z M1601.5226,642.3071
		c1.0623,4.6036,1.1594,9.6028,3.9098,13.8966c0.9786,1.5279,2.005,2.5835,4.2036,1.9794c5.364-1.474,10.7843-2.757,16.2148-3.9695
		c2.8132-0.6282,2.7786-1.9588,1.1956-3.7672c-4.5443-5.1915-8.9806-10.493-14.286-14.9559
		c-5.7495-4.8364-7.9872-4.1678-10.4323,3.1307C1601.9545,639.7367,1601.8162,640.931,1601.5226,642.3071z M433.1049,762.567
		c3.3371-0.6041,7.6992-1.4055,9.7785-6.388c1.6364-3.9216,3.5962-7.707,5.3033-11.6008c0.9554-2.1791,2.1208-4.3099,2.3612-6.7421
		c0.1211-1.2247,0.0852-2.4755-1.1662-3.158c-1.1982-0.6534-1.9909,0.3209-2.814,0.9341c-3.2017,2.3853-6.3519,4.8405-9.577,7.1933
		c-5.1593,3.764-10.3283,7.5168-15.5627,11.175c-2.6225,1.8328-2.4915,3.2959,0.0758,5.056
		C424.6652,761.2039,428.0266,762.5915,433.1049,762.567z M1607.6188,670.5294c-0.8361,3.9171-1.1589,7.0436-0.6417,10.1706
		c1.1957,7.228,4.5089,13.6198,7.486,20.2449c2.5457,5.6654,6.7954,7.1923,11.8179,8.3807
		c2.9507,0.6982,4.5443-0.8318,4.4135-3.8908c-0.0784-1.8308-1.0336-3.2639-2.0057-4.6907
		c-4.712-6.9152-9.4109-13.8397-14.1715-20.7214C1612.4302,677.0057,1610.2076,674.0824,1607.6188,670.5294z M232.6637,689.3976
		c0,1.3312-0.0541,2.6654,0.0149,3.9931c0.0723,1.3915-0.287,3.3907,1.8469,3.2635c1.7201-0.1024,3.4239-1.0428,2.888-3.4078
		c-0.5976-2.6374,0.2345-4.6852,2.3611-6.3027c1.054-0.8016,1.3602-2.0624,1.2127-3.2413
		c-0.5952-4.7595-0.3274-9.1734,3.2736-12.9458c0.7112-0.7451,0.4252-2.5532,0.4002-3.8674
		c-0.0563-2.9638,1.0224-5.1226,3.8369-6.3727c1.0481-0.4655,2.6152-0.8786,2.6032-2.2166c-0.0476-5.277,3.0674-8.491,6.853-11.4424
		c1.6632-1.2968,0.7783-2.2982-0.8366-2.6913c-2.9402-0.7158-5.3452,0.5911-7.1043,2.6888
		C239.6888,659.1665,231.9657,672.5894,232.6637,689.3976z M1675.733,777.2389c-4.3042,12.6423-11.0275,22.9853-18.6246,32.7894
		c-7.1146,9.1817-7.9155,7.5986,4.1832,12.0369c2.4249,0.8896,3.5099-0.0127,4.5054-2.2463
		c5.0706-11.3765,8.2689-23.2829,10.2367-35.5302C1676.3478,782.3352,1677.4043,780.2245,1675.733,777.2389z M1104.3345,731.0206
		c-0.3501-0.5366-0.548-1.0386-0.9081-1.3582c-1.8112-1.6078-8.6195-1.0637-10.3549,0.8896
		c-5.2778,5.9405-11.4921,10.6808-18.4539,14.4478c-2.92,1.58-5.9664,2.9246-8.9166,4.451c-1.139,0.5893-2.9238,1.6249-1.2,2.8235
		c2.0361,1.4155,4.2748,3.5162,7.2157,2.2501c11.9771-5.1563,24.0552-10.1896,31.5959-21.7863
		C1103.6584,732.2065,1103.9629,731.6478,1104.3345,731.0206z M1548.1138,605.5986c-1.0326,0-1.5634,0.0039-2.0941-0.0005
		c-4.5372-0.0378-4.7908,0.3661-2.8759,4.4246c1.6404,3.4761,3.2181,6.9819,4.8785,10.4482
		c1.0869,2.2694,2.1566,4.561,3.4468,6.7152c1.192,1.9902,3.2946,2.0117,5.3263,1.8182c1.2749-0.1215,1.2865-1.1672,1.2318-2.1009
		c-0.3152-5.364,0.7849-10.5561,1.8147-15.7653c0.4995-2.5273-0.5623-4.3209-3.1615-4.5097
		C1553.6398,606.4076,1550.7155,605.1763,1548.1138,605.5986z M1460.2772,805.0139c-0.3335-0.5885-0.7092-1.6226-1.3865-2.3907
		c-9.3826-10.6391-16.6974-22.6533-23.4913-35.0274c-0.7378-1.3436-1.4045-3.8706-3.6581-2.0887
		c-1.734,1.3712-4.452,2.7115-1.9036,5.976c5.5618,7.1246,10.5496,14.6664,15.5446,22.2048
		c3.0012,4.5291,6.5951,8.6678,9.9675,12.9465c0.7408,0.9398,1.6392,1.877,3.042,1.1026
		C1459.3113,807.2294,1460.3291,806.7615,1460.2772,805.0139z M415.2885,771.6457c2.3109,0.3602,4.1407,0.0938,5.9515-0.3879
		c1.093-0.2906,1.9535-0.7987,2.0867-2.0754c0.1216-1.1652-0.7409-1.5912-1.4988-2.1181
		c-5.9846-4.1603-12.0783-6.9646-19.5069-3.2291c-2.0225,1.017-2.8574,1.9437-2.7466,4.0923
		c0.2825,5.4816,1.7346,6.563,7.318,5.5055C409.8381,772.8751,412.4776,770.7098,415.2885,771.6457z M1593.9897,780.0212
		c-0.9186-5.2832-3.8558-9.8038-5.7722-14.7072c-0.6802-1.7404-2.5211-1.8595-3.4172,0.4489
		c-1.1016,2.8377-2.191,5.6819-3.3809,8.4827c-0.425,1.0004-0.3094,1.7723,0.3612,2.5441c2.5604,2.9474,5.3113,5.4816,9.5872,5.5822
		C1593.1687,782.4143,1594.2596,782.1193,1593.9897,780.0212z M676.6288,537.5577c-2.1125,0.3188-3.6559,1.7631-4.4373,4.0699
		c-0.266,0.7851-0.2306,1.8158,0.9192,1.6767c3.0538-0.3697,4.1285,2.0383,5.5395,3.8463c1.2524,1.6048,2.7419,2.3116,4.4813,1.3909
		c3.0814-1.6312,5.6353-4.0078,7.7896-6.73c0.7002-0.8848,1.2421-2.5375-0.8413-2.5108
		C685.6434,539.3575,681.3656,538.3956,676.6288,537.5577z M1535.6312,802.5181c-1.1943,0-2.3914-0.0467-3.5825,0.0154
		c-0.8834,0.046-1.9769-0.3453-2.5522,0.6307c-0.7163,1.2153,0.3926,1.9434,0.993,2.7448c1.4314,1.9108,2.9558,3.7525,4.3699,5.6756
		c1.5432,2.0986,2.7692,5.2424,5.9719,4.1221c2.8669-1.0029,1.6831-4.1526,1.7018-6.377
		C1542.5912,802.413,1542.4957,802.4122,1535.6312,802.5181z M422.2235,714.3912c-5.2215-0.1655-9.9191,1.2861-14.6339,2.6407
		c-1.4163,0.4069-2.2879,1.1755-2.1483,2.8301c0.1678,1.9882,1.6228,1.6988,2.9155,1.8309
		c4.8681,0.4972,9.4473-1.196,14.1236-2.0021c1.9738-0.3403,5.7182,0.6031,5.3684-3.1003
		C427.5025,712.9268,424.0181,715.0536,422.2235,714.3912z M1595.5096,731.2101c2.2844,0.174,3.6985-1.5822,2.5573-4.5812
		c-1.6978-4.4613-3.6411-8.831-5.5585-13.2051c-0.3214-0.7332-0.3997-2.2042-1.6469-1.7714
		c-1.1307,0.3924-2.0093,1.5616-1.6134,2.8787c1.1049,3.6764,0.5098,7.3948,0.5203,11.1015
		C1589.778,728.9607,1591.4814,730.7895,1595.5096,731.2101z M758.6891,531.9278c1.5586-0.5366,3.4313-1.1982,5.3151-1.8265
		c3.201-1.0674,5.1754-2.7872,4.634-6.652c-0.383-2.7336,0.4293-5.2816,3.2285-6.7105c1.0699-0.5461,1.6821-1.5176,0.9002-2.6048
		c-0.8246-1.1467-1.6776-0.1206-2.3439,0.3755c-5.5208,4.1113-9.579,9.533-13.3393,15.1879
		C756.3287,530.8329,756.3277,532.0759,758.6891,531.9278z M1531.5453,819.4172c-3.2571-4.2745-6.516-8.5478-9.7705-12.8243
		c-0.9084-1.194-1.7758-0.821-2.6499,0.0415c-1.9236,1.8975-1.9205,7.1079,0.3636,8.6662
		C1522.9537,817.6646,1526.9,819.08,1531.5453,819.4172z M1405.864,778.9633c3.6462-3.3865,7.5542-7.0161,11.765-10.9271
		c-5.1837-0.7784-10.3894-0.1108-13.9922,2.3358C1401.6035,771.7526,1405.142,776.4489,1405.864,778.9633z M1246.1179,187.0618
		c-2.8384-0.1511-4.0225,0.9886-4.9493,2.5786c-1.3209,2.2658,0.2747,3.7491,1.426,5.32c0.5839,0.7968,1.2621,2.4692,2.2916,1.6287
		c2.5769-2.1036,5.903-2.3398,8.5974-3.9903c1.219-0.7466,1.7312-1.8759-0.0038-2.6282
		C1250.8142,188.8146,1248.0754,187.8273,1246.1179,187.0618z M980.9446,839.3817c-4.4993-3.5991-8.5193-6.8022-12.5234-10.025
		c-1.3029-1.0488-2.7521-2.1688-4.0144-0.2718c-1.1095,1.6675,0.0901,3.013,1.4194,4.0294
		c1.7858,1.3655,3.8002,2.4946,5.1114,4.3674C973.4088,841.0117,976.5568,841.312,980.9446,839.3817z M1369.636,220.5207
		c-0.106,1.7355,0.4928,3.5996,1.6588,5.2601c0.4647,0.6619,0.53,1.7885,1.8888,1.5559c4.0432-0.6923,5.4382-3.4953,3.4847-7.1691
		c-0.3092-0.5815-0.5397-1.2439-0.9761-1.7101c-0.8789-0.9385-0.9287-3.3831-2.6974-2.5802
		C1371.4083,216.5975,1369.2955,217.6537,1369.636,220.5207z M978.1722,772.9292c4.5732-0.0042,6.5088-1.9681,4.7736-4.888
		c-1.3364-2.2488-4.0151-1.4956-6.1424-1.7305c-4.29-0.4736-5.4018,1.0716-3.642,4.8739
		C974.2604,773.559,976.4852,772.7858,978.1722,772.9292z M1597.5023,647.9072c1.097,0.0052,2.4519,0.2892,2.8103-0.937
		c0.4703-1.6097-0.0916-3.4531-1.5248-4.1484c-2.9374-1.425-6.0679-2.4835-9.1841-3.491c-1.0126-0.3274-2.5631,0.0867-1.3413,1.5876
		C1590.7557,643.9808,1593.4374,646.9404,1597.5023,647.9072z M1579.6563,595.4149c2.5973,4.3373,5.3383,7.3542,10.0067,7.8436
		c1.0884,0.1141,2.5787,0.5525,2.9901-1.078c0.3092-1.2258-0.1627-2.6357-1.2408-3.1298
		C1587.8906,597.4366,1584.6302,594.8821,1579.6563,595.4149z M1492.2301,791.3623c0.8634-0.3517,2.2245,0.4139,2.6698-0.9949
		c0.3625-1.1464-0.2703-2.1851-1.2219-2.6964c-2.553-1.3718-5.1841-2.5698-7.6216-4.1877
		c-0.9744-0.6467-2.3281,0.0765-3.1981,0.9835c-0.5349,0.5575-0.4543,1.4224,0.1257,1.7537
		C1486.0173,787.953,1488.2056,791.2355,1492.2301,791.3623z M664.439,548.7433c-2.6982-2.034-4.6971-3.9683-2.8955-7.2513
		c0.5313-0.9681-0.2129-1.4581-1.1846-1.3585c-1.1881,0.1218-2.3648,0.3517-3.5501,0.5065
		c-1.3352,0.1742-3.1669,0.2914-3.577,1.3715c-0.573,1.5095,1.5131,1.8316,2.3837,2.7219c1.1107,1.1357,2.5676,1.993,3.4682,3.2598
		C660.4328,549.8907,661.8736,550.1221,664.439,548.7433z M1601.627,778.2779c0.4374-0.0538,0.8746-0.1077,1.3119-0.1615
		c0-2.5945-0.2511-5.2202,0.0642-7.7758c0.384-3.1127-1.4497-4.2852-3.7767-5.1839c-1.8724-0.7231-3.0011-0.1008-2.2233,1.9699
		C1598.417,770.8914,1600.0723,774.5658,1601.627,778.2779z M1460.2034,839.3446c0.1277-2.6996-1.0146-4.6539-3.1626-4.6514
		c-3.1334,0.0036-3.2184,3.1593-3.6116,5.3087c-0.4438,2.4257,1.7756,3.108,3.5934,3.131
		C1459.6257,843.1658,1459.9852,840.9946,1460.2034,839.3446z M1594.5537,741.7003c0,0.0091,0,0.0182,0,0.0274
		c1.4563,0,2.9165-0.0688,4.3679,0.0151c2.5105,0.1454,2.975-1.8602,2.884-3.4026c-0.1255-2.1321-2.1061-1.5294-3.4078-1.2134
		c-2.3037,0.5591-4.5518,1.352-6.8132,2.0779c-1.0912,0.3502-2.9474,0.5087-2.7389,1.7349
		c0.3197,1.8822,2.1434,0.6727,3.3262,0.7507C1592.9625,741.7425,1593.7595,741.7003,1594.5537,741.7003z M1602.9346,756.9001
		c1.3785-0.1706,3.0739,0.0319,2.9866-2.1976c-0.1086-2.7784-1.76-4.0652-4.3563-4.1703c-1.9823-0.0803-3.5686,0.8719-3.3412,3.0032
		C1598.4988,756.1153,1600.5481,756.8494,1602.9346,756.9001z M243.5624,768.9599c2.17-0.1112,3.6611-0.9077,3.7469-3.2454
		c0.0773-2.1061-0.7301-3.8317-3.0053-3.7894c-1.9698,0.0366-3.609,1.2585-3.5232,3.4802
		C240.8462,767.1004,241.3514,768.8548,243.5624,768.9599z M1653.337,718.4138c-0.99,0.1843-3.3467-0.2686-3.1552,1.8705
		c0.2314,2.586,2.2377,3.9325,5.0463,3.833c1.588-0.0562,2.9399-0.103,2.7515-2.2275
		C1657.7534,719.3376,1656.395,718.1358,1653.337,718.4138z M1486.6687,828.0497c-1.8597-2.6894-4.2119-3.7144-6.1366-5.2352
		c-0.9584-0.7572-2.0579-2.6368-3.2102-1.5374c-1.3184,1.2584-0.5747,3.1952,0.4435,4.7254
		C1479.9327,829.2601,1483.1499,827.8857,1486.6687,828.0497z M262.2575,608.5496c-0.1935-2.0628-1.7853-2.7802-3.5127-2.8197
		c-2.012-0.0461-3.1687,1.4911-3.197,3.3027c-0.0303,1.9372,1.039,3.8537,3.1672,3.8055
		C261.0324,612.7855,261.6598,610.5892,262.2575,608.5496z M1508.6997,805.623c0.5167-2.1206,0.0077-3.0526-1.8058-3.1173
		c-2.5702-0.0916-3.7069,1.6361-3.9261,3.6698c-0.2137,1.985,1.3553,4.0862,3.0605,4.0017
		C1508.7432,810.0429,1507.9634,806.9039,1508.6997,805.623z M247.2854,628.1353c2.3529-0.3329,3.6144-1.8608,3.751-4.0123
		c0.1169-1.8414-1.3072-2.9899-3.039-3.0834c-2.0431-0.1103-3.187,1.2259-3.2871,3.2329
		C244.6184,626.1168,245.0888,627.7259,247.2854,628.1353z M219.9866,688.8613c1.509-0.7137,3.6181-0.6419,3.6433-3.0419
		c0.0224-2.1375-1.0985-3.8669-3.1133-3.955c-1.6588-0.0724-3.4799,1.1739-3.3511,3.2185
		C217.267,686.695,217.8006,688.5185,219.9866,688.8613z M216.5876,702.3834c-0.4141-1.6642-1.1257-3.188-3.0741-2.9856
		c-2.3194,0.241-3.4499,1.8494-3.2599,4.1302c0.1468,1.7627,1.1557,3.0525,3.104,2.7603
		C215.4826,705.9696,216.3338,704.3597,216.5876,702.3834z M275.9951,779.3163c-1.7437,0.8145-3.4676,1.6324-3.2798,3.9183
		c0.1248,1.5198,0.0928,3.4658,2.4461,3.1797c2.1714-0.264,3.6772-1.5688,3.7409-3.8695
		C278.9533,780.7039,277.561,779.8713,275.9951,779.3163z M228.7818,633.6705c0.018,1.9639,0.0478,3.768,2.3336,3.651
		c2.0479-0.1048,3.6485-1.2627,3.614-3.4665c-0.0293-1.8719-1.1666-3.3356-3.2068-3.4244
		C229.1133,630.3256,228.9376,632.2055,228.7818,633.6705z M1508.7074,866.2584c-0.2788-1.7683-0.6034-3.6636-3.0745-3.6953
		c-1.7649-0.0226-2.7366,1.1979-2.6982,2.7597c0.0521,2.1247,1.1078,3.9191,3.4586,4.0536
		C1508.2673,869.4836,1508.6332,867.923,1508.7074,866.2584z M1587.2897,814.9904c0.1674,1.242,0.303,3.0531,1.5011,2.3343
		c2.2804-1.3679,3.427-3.9609,4.0425-6.5269c0.3571-1.4887-0.9164-2.1311-2.283-1.9329
		C1586.5217,809.4494,1588.6768,813.2134,1587.2897,814.9904z M213.7594,663.1954c-2.2705,0.2799-2.8305,2.0015-2.834,3.9288
		c-0.0023,1.2787,0.1943,2.8253,2.135,2.5207c1.8804-0.2952,3.7143-0.8806,3.5882-3.3104
		C216.5609,664.6442,215.8577,663.2902,213.7594,663.1954z M1571.2915,763.248c-0.6313,3.1053,0.4369,5.3241,1.8289,7.4327
		c0.4453,0.6745,1.1705,1.1462,2.0094,1.003c0.9397-0.1604,0.9982-1.0061,1.205-1.7969
		C1577.4072,765.7844,1574.4839,764.7191,1571.2915,763.248z M229.4547,668.7444c-0.0902-0.5316-0.3336-2.3717-2.4209-2.1962
		c-1.6998,0.1429-3.2083,0.9973-3.1219,3.2897c0.0767,2.0356,1.1894,2.8235,2.9543,2.9436
		C228.917,672.921,229.6891,671.7493,229.4547,668.7444z M1407.0614,805.6849c-2.1605,0.7078-2.6345,2.3271-2.6836,4.0988
		c-0.0476,1.7166,1.1559,2.8471,2.6145,2.964c1.5564,0.1248,2.9121-1.1358,2.7852-2.6976
		C1409.6335,808.2785,1408.6846,806.6303,1407.0614,805.6849z M1529.0818,875.9546c0.03-1.6606-1.6401-2.5051-3.2262-2.7333
		c-1.124-0.162-2.7487,0.5682-2.6395,2.2549c0.1206,1.8664,0.6216,3.7036,2.9919,3.9543
		C1528.3861,879.6611,1528.8002,878.1508,1529.0818,875.9546z M242.753,640.0443c-2.2663,0.032-2.4573,1.7664-2.6492,3.2993
		c-0.1788,1.428,0.1691,2.8141,2.1094,2.4071c1.6219-0.3403,3.7192-0.4525,3.9259-2.6143
		C246.3539,640.8911,244.404,640.4915,242.753,640.0443z M1408.629,799.2095c-0.3496-2.2083-1.5256-3.688-3.7656-3.899
		c-1.4816-0.1395-2.1714,1.0592-1.9785,2.3136c0.3167,2.0582,1.4044,3.7564,3.7147,3.9131
		C1408.0433,801.635,1408.5726,800.5119,1408.629,799.2095z M1425.0927,830.6223c-1.1489,0.2977-2.42,1.4531-2.134,2.5731
		c0.4556,1.7842,1.1942,3.9646,3.4706,4.3088c0.9135,0.138,2.3098-0.6209,2.1606-1.8404
		C1428.3376,833.6033,1427.9697,831.3979,1425.0927,830.6223z M229.4451,650.4406c-2.0625,0.5444-2.3588,2.147-2.289,3.9392
		c0.0535,1.3745,0.1997,2.73,2.1491,2.4526c1.9074-0.2715,3.2276-1.2787,3.2108-3.2878
		C232.5005,651.7038,231.1422,650.8754,229.4451,650.4406z M1621.5009,735.5991c-0.4944-1.9662-1.4541-3.45-3.6541-3.5812
		c-1.8042-0.1077-1.7905,1.225-1.6683,2.4335c0.1965,1.9452,0.8516,3.7646,3.1313,3.8847
		C1620.9934,738.4247,1621.2919,736.9296,1621.5009,735.5991z M1498.7562,876.2652c-0.2125-1.3751,0.5269-3.3933-2.0701-3.3481
		c-1.3839,0.024-2.8196,0.3102-2.7852,2.0878c0.0377,1.9523,0.6991,3.8588,2.9036,4.1548
		C1498.795,879.4269,1498.377,877.4965,1498.7562,876.2652z M1548.4174,600.0405c1.5973-0.0065,2.3575-0.8159,2.2515-2.2159
		c-0.1652-2.1804-1.2712-3.7725-3.5394-4.079c-1.2075-0.1632-2.0591,0.6827-1.9219,1.936
		C1545.4333,597.7447,1546.2769,599.4642,1548.4174,600.0405z M282.8136,739.2366c-2.1749,0.4341-2.4994,2.3842-2.8346,4.1218
		c-0.3353,1.7379,0.8855,2.3815,2.4099,2.2595c2.603-0.2083,2.1396-2.6247,2.6534-4.1701
		C285.5467,739.9307,284.2067,739.486,282.8136,739.2366z M1608.6511,712.9063c-1.5637-0.1625-2.2343,0.732-2.2534,2.1118
		c-0.03,2.1656,1.3468,3.6343,3.2095,3.9999c1.701,0.3339,2.0072-1.4839,2.1288-2.7806
		C1611.9373,714.0931,1610.66,713.1088,1608.6511,712.9063z M1454.616,772.1807c-1.5356-0.1054-2.2278,0.8408-2.1813,1.9184
		c0.0945,2.179,1.2683,3.8451,3.5087,4.1935c1.4745,0.2293,2.1169-0.9058,1.983-2.3028
		C1457.725,773.8885,1456.4456,772.6921,1454.616,772.1807z M1533.14,861.6054c-1.0194,0.8011-2.8265,0.9374-2.8673,2.7625
		c-0.0441,1.9731,0.6915,3.8896,2.835,4.1442c1.7953,0.2132,2.2018-1.5505,2.3315-3.0162
		C1535.5892,863.7985,1535.032,862.395,1533.14,861.6054z M1539.3453,594.3569c1.3019-0.0143,1.832-0.8279,1.6812-2.0606
		c-0.2621-2.1411-1.2596-3.8494-3.5601-4.1284c-1.1942-0.1448-1.9993,0.7529-1.7853,2.0488
		C1536.0239,592.2916,1536.8647,594.0225,1539.3453,594.3569z M1434.7184,835.2706c-0.1842,2.3172,1.2037,3.5162,3.1799,3.7944
		c1.4753,0.2077,2.007-1.0835,1.8311-2.4052c-0.2594-1.9474-1.0635-3.6428-3.2837-3.8479
		C1434.6991,832.6506,1434.8109,834.1126,1434.7184,835.2706z M1458.0537,789.9221c1.1224-0.2772,2.3755-0.6263,2.0331-2.2197
		c-0.451-2.0991-1.6926-3.5575-4.0109-3.653c-1.5173-0.0625-1.6488,1.0497-1.5238,2.162
		C1454.7803,788.2443,1455.7736,789.6329,1458.0537,789.9221z M1594.5582,678.8364c-0.6576-1.5109-1.6761-3.2101-3.422-3.3192
		c-1.8418-0.1151-2.0096,1.8181-2.0803,3.2765c-0.1125,2.3195,1.8783,2.4155,3.3224,2.5706
		C1593.7094,681.5071,1594.4126,680.3467,1594.5582,678.8364z M1669.5034,728.6665c-1.7441,0.0937-2.5598,1.0891-2.5487,2.592
		c0.0127,1.7316,0.8505,3.2856,2.5784,3.6344c1.8688,0.3772,1.9774-1.4082,2.2076-2.6559
		C1672.0831,730.3786,1671.1807,729.1995,1669.5034,728.6665z M1671.7214,752.7018c-0.5366-1.8574-0.7167-4.0858-3.3929-4.1446
		c-1.3118-0.0288-1.8191,0.9761-1.74,2.1693c0.1494,2.2545,1.4858,3.7496,3.573,4.1856
		C1671.5447,755.2011,1671.712,753.8531,1671.7214,752.7018z M1544.6631,869.0721c-0.95-0.8015,1.02-3.3094-1.8362-3.3493
		c-2.0031-0.0277-2.8035,1.3499-2.802,3.123c0.0018,1.9956,1.1698,3.3544,3.1243,3.4435
		C1545.399,872.392,1544.3763,870.4852,1544.6631,869.0721z M1391.1615,779.2237c-1.6155-0.1093-2.0322,0.9755-1.9514,2.0154
		c0.1455,1.8731,0.7623,3.8678,2.8307,4.2151c1.2147,0.204,2.6868-0.9178,2.5282-2.4425
		C1394.3629,781.0304,1392.8536,779.8851,1391.1615,779.2237z M1612.1956,775.8734c1.9052,0.0873,1.7201-1.5199,1.8036-2.5258
		c0.1689-2.034-1.077-3.3864-3.03-3.4537c-1.9021-0.0656-1.6067,1.8668-1.7489,3.0071
		C1608.9637,774.9586,1610.5536,775.5366,1612.1956,775.8734z M1657.7645,777.9769c0.441,1.4976,0.7568,3.5096,3.1672,3.5513
		c1.2634,0.0217,1.8392-1.1394,1.5414-2.2802c-0.4592-1.7576-0.8665-3.7851-3.2665-3.8907
		C1657.5702,775.2854,1657.9113,776.6563,1657.7645,777.9769z M1473.6763,797.7277c-1.4186,0.0533-2.2101,0.6949-2.0404,1.96
		c0.2438,1.8173,0.5524,3.9051,2.7483,4.2548c1.3711,0.2183,2.5731-1.0024,2.5088-2.4158
		C1476.8024,799.5375,1475.4825,798.2585,1473.6763,797.7277z M1661.6145,755.8914c-1.901,0.2117-1.9163,1.3078-1.7634,2.5986
		c0.2404,2.0309,0.9803,3.6071,3.3232,3.504c1.071-0.0472,2.2653-0.6198,1.7734-1.9716
		C1664.3073,758.2627,1663.7932,756.2053,1661.6145,755.8914z M1612.3077,741.9721c-1.5565,0.3495-1.9014,1.4362-1.7046,2.7312
		c0.2955,1.9446,1.5492,3.128,3.4507,3.2849c1.967,0.1623,1.4425-1.5447,1.4673-2.5787
		C1615.5721,743.274,1613.9641,742.5494,1612.3077,741.9721z M1561.9957,862.5731c-0.2859-1.637-0.5607-3.8138-2.8512-3.9778
		c-2.0969-0.1502-1.7813,2.0186-1.8875,3.2997c-0.1704,2.0558,1.5405,2.6058,3.1383,2.9044
		C1561.9591,865.0916,1562.0957,863.9784,1561.9957,862.5731z M1649.1292,803.8264c-0.278-1.8044-1.3909-3.2017-3.3932-3.6326
		c-1.6084-0.3461-1.6283,0.9429-1.5723,2.0183c0.103,1.9774,0.7502,3.7495,2.9324,4.1337
		C1648.6523,806.6198,1649.0626,805.3909,1649.1292,803.8264z M1638.6654,805.8209c-0.3436-1.5539-1.2142-3.1617-3.1652-3.2891
		c-1.6417-0.1073-1.4222,1.6368-1.5627,2.7068c-0.2142,1.6302,0.6283,3.1074,2.1453,3.3087
		C1637.3086,808.71,1638.6025,807.7884,1638.6654,805.8209z M1665.1239,708.9408c-1.5333,0.4042-1.9579,1.433-1.8794,2.7468
		c0.1309,2.1877,1.2999,3.511,3.5007,3.4985c1.1982-0.0068,1.88-0.9357,1.6512-2.2172
		C1668.045,710.9996,1666.8892,709.6733,1665.1239,708.9408z M1517.7427,871.9293c-0.2697-1.7347-1.2368-3.0518-3.2775-3.1179
		c-1.9867-0.0646-1.8442,1.6031-1.8683,2.838c-0.0394,2.0186,1.3552,2.701,3.1302,2.7781
		C1517.3224,874.4968,1517.7354,873.4691,1517.7427,871.9293z M1670.8206,773.1195c-0.3788-1.8199-0.8245-3.8591-2.9982-4.1277
		c-1.2838-0.1586-1.9998,1.3196-1.8722,2.5795c0.1615,1.5927,0.6768,3.2742,2.5289,3.621
		C1669.8129,775.4422,1670.7252,774.6417,1670.8206,773.1195z M1537.9482,837.418c-0.0553-1.8859-0.5588-3.5964-2.7852-3.6111
		c-1.2416-0.0082-2.3724,0.9004-2.0186,2.382c0.3977,1.6655,0.9198,3.5381,3.0466,3.7203
		C1537.873,840.053,1537.9821,838.6954,1537.9482,837.418z M1653.838,798.7552c0.1508,2.0227,1.6859,2.5615,3.3038,2.7267
		c1.3116,0.134,1.9191-0.683,1.6366-2.0423c-0.3676-1.7693-0.9735-3.619-3.0002-3.7085
		C1654.1017,795.6573,1654.0232,797.3922,1653.838,798.7552z M1662.0176,693.8024c-0.4524-1.6561-0.9813-3.4438-3.3733-3.405
		c-1.6232,0.0264-1.8353,1.1692-1.7611,2.4493c0.1136,1.9682,1.0554,3.1754,3.1284,3.2603
		C1661.4821,696.1672,1662.191,695.4702,1662.0176,693.8024z M1624.2327,831.6484c0.2931-2.2877-1.3542-2.5343-2.9547-2.7448
		c-1.6353-0.215-2.0079,0.7936-1.9681,2.1727c0.0505,1.7558,0.6644,3.1288,2.5668,3.3921
		C1624.0465,834.7687,1624.004,833.0579,1624.2327,831.6484z M1442.3146,848.8494c1.4771-0.1257,2.3842-0.6805,2.0276-2.2819
		c-0.3488-1.5669-0.6216-3.253-2.7676-3.2802c-2.0183-0.0255-1.8525,1.6243-1.9032,2.8438
		C1439.599,847.8726,1440.6399,848.7806,1442.3146,848.8494z M1666.1439,740.6884c-0.2721-1.7739-0.7484-3.333-3.1321-3.0778
		c-1.1948,0.1279-2.2275,0.4417-1.712,1.8802c0.5732,1.6,0.4814,3.8542,3.1646,3.7905
		C1666.3431,743.2367,1665.9021,741.8002,1666.1439,740.6884z M1538.4597,577.6738c-2.0134-2.0562-4.218-2.9035-6.625-3.1819
		c-1.1371-0.1313-2.2112,0.0096-2.3824,1.4222c-0.1748,1.441,0.73,1.7863,1.9761,1.769
		C1533.7719,577.6506,1536.1158,577.6738,1538.4597,577.6738z M1652.057,787.1835c1.6261-0.4492,2.2815-1.6575,2.09-3.0392
		c-0.2266-1.6364-1.1962-3.1453-2.9911-3.2342c-1.611-0.0799-1.7032,1.4177-1.6262,2.6425
		C1649.6371,785.2596,1650.4338,786.5438,1652.057,787.1835z M1570.9681,860.0861c-1.9131-0.0488-2.6085,1.0543-2.4919,2.4883
		c0.1112,1.3661,0.2974,3.0825,2.3164,2.9954c1.4313-0.0615,2.4929-0.6906,2.2726-2.4705
		C1572.8809,861.6108,1572.7601,860.1629,1570.9681,860.0861z M278.5491,738.8589c0.004-1.4961-0.8197-2.0496-2.0307-1.9913
		c-2.2228,0.1069-2.8094,1.7933-2.9871,3.567c-0.1746,1.7422,1.3885,1.8635,2.4683,1.8059
		C278.0944,742.1287,277.9847,740.1269,278.5491,738.8589z M1596.2719,689.7921c-0.3729-1.4525-1.4266-2.9921-3.5277-3.1934
		c-1.3842-0.1327-1.088,1.2151-1.1221,2.0803c-0.0878,2.2273,1.4038,2.9867,3.2498,3.2927
		C1596.1346,692.1812,1596.5349,691.4668,1596.2719,689.7921z M1460.3906,857.6703c1.8002-0.0164,2.2081-1.3686,2.1675-2.6836
		c-0.05-1.6191-1.2314-2.7907-2.7697-2.804c-1.8182-0.0157-1.6542,1.8053-1.7369,2.9879
		C1457.9492,856.6278,1458.6884,857.6932,1460.3906,857.6703z M1595.7413,701.6127c0.4716-0.4177,2.1615,0.6683,2.0276-1.1666
		c-0.1102-1.5081-0.3074-3.3206-2.3757-3.4991c-1.4135-0.1219-2.6235,0.4158-2.6721,2.1476
		C1592.6694,700.9395,1593.7023,701.6698,1595.7413,701.6127z M1470.2922,672.1392c-2.1643,3.2407,0.0793,5.117,1.6321,7.1476
		c0.3564,0.4661,0.9968,0.6925,1.3191,0.1582c1.4606-2.4207-0.7108-3.889-1.6326-5.6679
		C1471.3267,673.2289,1470.8282,672.7921,1470.2922,672.1392z M1477.4653,857.1368c-1.2499,0.6874-1.672,1.7809-1.5231,2.9877
		c0.2509,2.034,1.7288,2.8962,3.5819,2.946c1.0602,0.0284,1.7258-0.8814,1.391-1.912
		C1480.3364,859.3781,1479.187,857.9783,1477.4653,857.1368z M238.6515,749.351c-0.4032-0.851,0.1897-2.7362-1.0651-2.5605
		c-2.2227,0.3113-2.7435,2.6291-3.4215,4.4554c-0.3337,0.899,0.2892,1.5927,1.2768,1.4399
		C237.2815,752.4009,238.765,751.6479,238.6515,749.351z M1617.9397,629.2407c0.4739-2.1772-0.3328-3.4098-2.2584-3.6429
		c-1.308-0.1583-1.955,0.8275-1.8734,2.0258c0.118,1.7352,1.0758,3.1094,2.7627,3.5082
		C1618.3981,631.5637,1617.6672,629.8215,1617.9397,629.2407z M227.8636,699.9691c-0.3877-1.1107-1.1109-1.7156-2.3268-1.5961
		c-1.811,0.178-2.8246,1.2661-3.0794,3.0011c-0.1092,0.7437-0.002,1.9066,1.0412,1.6283
		C225.2057,702.5469,227.0162,701.9772,227.8636,699.9691z M1393.0815,769.7681c-1.0417-0.0314-1.7428,0.1768-1.3717,1.3266
		c0.5038,1.5612,1.3116,3.0496,3.0448,3.2581c1.1128,0.1338,1.9834-0.8309,1.7822-2.0795
		C1396.2194,770.3005,1394.4875,770.1317,1393.0815,769.7681z M1607.5712,723.9202c-2.2156-0.0416-3.6492-0.1736-3.4817,1.8478
		c0.0817,0.9861-0.0864,2.3619,1.4739,2.2169c1.469-0.1365,3.3949-0.0578,3.5498-2.1786
		C1609.2213,724.3251,1607.9976,723.9167,1607.5712,723.9202z M1450.7275,856.6032c-0.2585-1.5164-0.9513-2.7091-2.6782-2.8689
		c-1.3948-0.129-2.0568,1.0825-1.9613,1.983c0.1801,1.7001,1.4666,2.7413,3.2251,2.8328
		C1450.5621,858.615,1450.7141,857.6252,1450.7275,856.6032z M1515.7688,832.9562c-0.9796-0.1844-2.2131-0.0878-2.2018,1.6049
		c0.0118,1.7728,1.5946,1.9195,2.8145,2.2092c1.635,0.3884,2.0575-0.7146,2.1133-2.0727
		C1518.5682,832.9144,1517.3479,832.8997,1515.7688,832.9562z M1646.5493,663.4377c-1.0988,0.3688-1.757,0.9166-1.2748,1.8256
		c0.8007,1.5091,0.252,3.9506,2.6906,4.3394c1.0813,0.1724,1.2313-0.8668,1.1516-1.6503
		C1648.9211,666.0328,1647.8558,664.6071,1646.5493,663.4377z M270.0825,738.7073c1.0812-0.4281,1.942-1.2651,2.0302-2.5324
		c0.1096-1.5773-1.1368-1.9836-2.3748-1.9958c-1.4119-0.0139-2.2961,0.944-2.1861,2.2697
		C267.6547,737.6897,268.5576,738.5568,270.0825,738.7073z M1547.5374,845.3214c-0.3053-1.314-0.8228-2.9688-2.5343-3.4026
		c-1.2456-0.3157-1.4093,0.9929-1.3016,1.9c0.1917,1.6155,0.5493,3.2353,2.6683,3.3561
		C1547.4969,847.2393,1547.6521,846.5052,1547.5374,845.3214z M269.5558,625.1378c-0.0469-1.0936-0.7149-1.1752-1.3792-0.999
		c-1.9348,0.5129-2.8817,1.8038-2.7134,3.8192c0.0644,0.7714,0.1662,1.9215,1.2424,1.5443
		C268.7206,628.7958,268.6342,626.5389,269.5558,625.1378z M1617.8516,763.9796c-0.0277-1.0295,0.4581-2.2366-1.2853-2.3097
		c-1.4308-0.0599-2.3754,0.5032-2.4008,1.9221c-0.0269,1.4981,0.9329,2.5291,2.4006,2.6379
		C1618.3278,766.3607,1617.4856,764.7475,1617.8516,763.9796z M1619.3286,784.4683c-0.1846-0.689-0.1515-1.964-1.3611-1.7576
		c-1.3699,0.2338-1.5022,1.623-1.6165,2.7884c-0.0787,0.804,0.0458,1.7244,1.1304,1.5627
		C1618.7698,786.8698,1619.5737,786.077,1619.3286,784.4683z M1610.7155,703.7673c-0.2593-1.4197-1.2992-1.8828-2.5538-1.9417
		c-0.9554-0.0448-2.0029,0.175-1.8065,1.434c0.2292,1.4696,1.4755,1.6641,2.7203,1.6218
		C1609.8287,704.8558,1610.7357,704.982,1610.7155,703.7673z M1529.1289,794.1932c0.6136-0.2734,1.1217-0.6953,0.8687-1.4581
		c-0.4205-1.2677-1.1101-2.5388-2.399-2.9129c-1.0598-0.3075-1.1844,0.8073-1.0192,1.5763
		C1526.871,792.7552,1527.6917,793.7338,1529.1289,794.1932z M1549.8234,821.3807c-0.0227-0.9576-0.5295-1.4373-1.4672-1.3779
		c-1.0714,0.0679-2.3362,0.4037-2.4283,1.4922c-0.104,1.2291,1.292,1.517,2.2582,1.6533
		C1549.3414,823.3116,1549.6637,822.3464,1549.8234,821.3807z M1622.1228,819.7337c1.9542,2.2562,1.9542,2.2562,4.6437,1.0154
		C1625.3319,819.5838,1623.9523,818.9792,1622.1228,819.7337z M1464.0405,661.0701c-0.0496,1.8195-0.4823,3.8171,2.5912,4.6945
		C1466.4319,663.5522,1465.5823,662.1504,1464.0405,661.0701z M1626.672,732.2953c0.0657,2.3104-0.8467,4.0231,0.6449,5.46
		c0.1223,0.1177,0.9369-0.1493,0.9703-0.325C1628.5919,735.8334,1628.4697,734.297,1626.672,732.2953z M1483.6412,803.2056
		c1.5043-0.8823,2.6581-1.6259,2.5044-3.009c-0.0775-0.6977-1.2903-1.0519-1.9625-0.7061
		C1482.6659,800.2709,1483.2761,801.6148,1483.6412,803.2056z M1621.0476,752.235c-1.1863,0.1738-1.2122,1.2172-1.4103,2.0427
		c-0.1392,0.5804-0.2871,1.4739,0.629,1.5406c1.0483,0.0763,1.731-0.7438,1.8403-1.661
		C1622.1893,753.4653,1621.8683,752.6397,1621.0476,752.235z M1382.9773,762.7216c-0.8542,0.0453-1.1658,0.5785-1.199,1.2906
		c-0.0438,0.9359,0.4641,1.4811,1.3785,1.5715c0.6631,0.0655,1.457,0.0116,1.4089-0.8771
		C1384.5135,763.7415,1383.9437,763.0025,1382.9773,762.7216z"/>
</g>
</svg>
