<?xml version="1.0" encoding="utf-8"?>
<!DOCTYPE svg PUBLIC "-//W3C//DTD SVG 1.1//EN" "http://www.w3.org/Graphics/SVG/1.1/DTD/svg11.dtd">
<svg version="1.1" id="Layer_1" xmlns="http://www.w3.org/2000/svg" xmlns:xlink="http://www.w3.org/1999/xlink" x="0px" y="0px"
	 viewBox="0 0 1920 1920" enable-background="new 0 0 1920 1920" xml:space="preserve">
<g id="_x23_000000ff">
	<path stroke="#000000" stroke-width="0.0938" d="M1055.0699,102.06c11.0901-25.41,21.7201-51.05,33.37-76.22
		c0.6201,17.76,2.5701,35.42,4.2101,53.1c1.52,13.39,2.1899,26.87,4.2899,40.19c2.4301,16.22,5.52,32.36,6.6801,48.74
		c5.2,54.12,11.9,108.08,18.1801,162.08c5.1499,43.07,10.1399,86.17,14.86,129.27c2.49-8.54,3.09-17.49,4.2-26.28
		c3.24-29.59,5.52-59.28,7.61-88.97c1.1901-19.65,2.79-39.31,2.66-59.01c6.4399-0.89,14.28-2.91,19.61,2.02
		c-2.01,10.22-1.54,20.7-1.66,31.05c0.04,9.63,0.04,19.27,0.5,28.89c1.76,8.84,4.9401,17.32,7.7301,25.88
		c7.11,20.09,13.2899,40.49,20.2799,60.62c12.92,37.23,24.2201,74.98,36.29,112.48c0.75,2.3,1.39,4.66,2.41,6.87
		c18.88,32.82,36.48,66.37,54.24,99.81c38.1,71.81,75.1,144.19,112.5399,216.34c75.8101,146.48,151.5901,292.9901,227.62,439.36
		c31.8301,61.09,63.4501,122.2899,95.78,183.12c2.4501,4.5699,4.89,9.15,7.48,13.65c-2.0399,5.01,2.54,8.6899,6.0901,11.33
		c3.48-1.5699,7.39-0.8,10.64,0.99c4.59,2.4,8.83,5.74,11.75,10.09c5.7999,8.8301,12.1399,17.29,17.99,26.1001
		c2.73,4.1899,5.64,8.35,7.2699,13.1399c-6.8999,1.9701-13.5499,4.88-20.61,6.2301c-3.98,0.34-5.5699,4.6599-8.0599,7.1799
		c-12.96,17.24-27.67,33.02-41.62,49.4301c-3.24,5.22-7.78,9.3999-11.84,13.96c-20.8701,22.79-42,45.35-63.28,67.76
		c-13.55,14.13-27.0901,28.28-41.27,41.78c-3.61,3.33-7.17,6.7999-11.4,9.36c-0.74,5.6-3.53,11.5499-0.92,17.0499
		c0.38,1.42,1.9701,1.7101,3.29,1.67c5.2001-0.13,10.4-1.5599,15.62-0.7c0.23,0.6599,0.7101,1.98,0.9401,2.63
		c0.58-0.88,1.12-1.78,1.84-2.53c5.95-0.77,11.8199,1.01,17.74,1.48c12.92,1.03,25.99-0.01,38.83,2.0699
		c3.39,0.38,5.66,4.05,9.3301,3.2401c-0.1,0.9399-0.25,1.95,0.1,2.9399c2.83,0.54,5.71,0.97,8.48,1.87
		c-0.36,1.88-0.67,3.79-1.29,5.63c-4.2899,0.58-8.3099-1.54-12.5399-1.66c-1.91-0.09-3.0801,1.5601-4.4,2.64
		c-7.9-5.91-18.4401-2.72-27.48-4.54c0.75-1.25,1.58-2.45,2.46-3.6c-6.48,0.67-12.7999-1.4199-19.26-1.36
		c0.24,0.88,0.7101,2.63,0.9401,3.51c2.0699,0.66,4.2899,1.03,6.1699,2.27c-5.8199,2.91-12.6,3.67-17.8999,7.62
		c11.6799,0.01,23.6899-0.34,34.9399,3.38c-1.2,0.84-2.3199,1.76-3.41,2.73c10.8101-0.48,21.1901-4.12,31.98-4.88
		c6.9701-0.61,14.14,0.9301,20.01,4.84c-2.25,0.62-4.45,1.3501-6.5,2.4601c3.01,0.22,6.05,0.1599,9.1001,0.12
		c-0.28-0.91-0.8301-2.74-1.1101-3.65c10.55,1.4399,22.7301-1.36,31.75,5.6899c-1.4399,0.4701-2.84,0.9801-4.22,1.55
		c5.6901,1.89,11.97,1.52,17.4,4.3101c-2.33,1.1399-4.3101,2.7899-6.3,4.4099c0.25-0.76,0.74-2.27,0.99-3.02
		c-4.1399,1.89-8.61,0.78-12.71-0.5299c-3.13,3.7799-8.39,1.9299-12.5499,3.22c-1.6901-0.09-5.12,1.78-4.17-2.01
		c-0.91,0.8101-1.29,2.64-2.8,2.42c-13.62,0.1899-27.2799-1.14-40.61-3.88c8.8-2.6001,18.0701-1.54,27.09-2.51
		c-2.0399-2.35-5.3099-2.5-7.75-4.15c0.16-1.46,0.53-2.84,0.8601-4.22c-4.63,1.12-9.6101,2.6599-14.14,0.3099
		c-8.66,8.9-23.14,0.87-32.5601,8.4301c-5.4-0.62-10.47-2.9401-15.89-3.22c-2.1599-0.4-3.59,1.33-4.9199,2.6899
		c2.4099,5.41,9.85-0.5599,11.97,5.21c-3.71,1.25-7.52,0.27-11.04-1.0199c-3.33,3.5099-9.02,0.6799-12.9399,3.2799
		c5.3099,0.4501,10.6599-0.1799,15.97,0.51c8.53,0.8101,17.24,3.1,25.77,1.76c6.29-4.86,14.9199-3.09,21.39,0.47
		c-9.5,5.6801-21.01,0.3-31.27,2.39c1.22,1.52,2.49,2.97,3.89,4.42c-1.88,0.2-3.79,0.2-5.65,0.3199
		c2.1801,1.9501,5.5,1.65,7.6,3.8101c-16.63-1.46-33.33-7.28-50.0699-3.24c0.0299,1.74-0.24,3.46-0.48,5.22
		c1.08-0.41,2.21-0.74,3.33-1.1c0.3,0.77,0.91,2.3099,1.21,3.08c-3.22,2.8301-7.5599,3.62-11.71,3.35
		c-7.14-0.21-14.4-2.13-21.4401-0.0199c-0.12-1.16-0.25-2.29-0.36-3.4c-0.95-0.01-2.85-0.03-3.7999-0.04
		c0.08,2.66,1.33,5.04,3.26,6.86c-1.3301,0.71-2.53,1.61-3.3301,2.91c0.73-0.24,2.2001-0.74,2.9301-0.98
		c1.53,1.61,2.73,3.46,3.63,5.5299c-6.59,0.16-13.22,0.6001-19.59,2.3201c4.37,0.99,8.96-0.4,13.2899,0.91
		c1.77,0.5599,2.1901,2.51,2.9601,4.01c-1.2001-0.4501-2.39-0.8401-3.5701-1.1801c-2.35,1-4.08,2.98-6.35,4.08
		c-4.26,0.74-8.96-1.14-12.8,1.52c-1.3199,0.9601-2.6599-0.62-3.98-0.73c-2.61-0.03-5.01,1.17-7.48,1.8
		c-3.12-4.52-8.88-2.6001-12.75-0.24c-2.5601-3.79-7.35-0.65-10.34-3.51c8.58-3.0701,17.6899-0.3201,26.51-1.3401
		c-3.05-3.35-7.87-4.84-12.2201-3.46c-0.84-5.27-7.34-2.6801-10.76-4.88c4.9401-1.9299,10.3301-1.9,15.4401-3.14
		c-1.9-0.89-3.73-1.77-5.51-2.78c2.5,0.4,4.73-0.0199,5.55-2.74c-4.9501,0.4301-9.77,2.3201-14.78,1.4301
		c-0.71,2.02-1.0801,4.76-3.38,5.66c-8.11,3.0199-16.9401,1.6899-25.3,3.22c-2.9099,0.4399-5.36,2.16-7.27,4.33
		c3.5701,0.8301,7.7401-0.38,10.67,2.4401c-1.52,0.7899-3,1.62-4.48,2.47c6.6799-0.1901,11.84-4.86,18.16-6.28
		c1.12,3.7001,4.6799,5.52,7.12,8.24c-4.7001-0.99-9.51-0.84-14.26-0.65c2.4,4.4401,7.3199,1.0701,11.12,1.01
		c1.4,0.7301,2.65,1.74,4.0699,2.53c4.8,0.53,9.4301-1.73,14.24-1.1899c2.29,0.22,3.9,2.0499,5.5,3.5399
		c-7.9299-1.1899-15.85-0.0199-23.6699,1.2101c-3.51,0.7999-6.6901-1.29-10.0801-1.52c-1.6899-0.1-2.5599,1.7-3.76,2.5499
		c4.4801,4.3,10.75,5.75,16.7001,6.65c7.4199,1.11,15,0.79,22.3099-0.86c-2.1499-0.64-4.34-1.2999-5.97-2.9
		c3.23-0.0599,7.47-1.21,9.58,2.0901c-5.2,4.2699-12.2799,4.5499-18.6899,4.25c-10.8-0.53-21.4401-3.24-32.29-2.79
		c1.4401-3.6901,3.26-7.38,3.13-11.4401c-0.8199-0.37-1.63-0.72-2.4199-1.0399c-0.02,0.71-0.0701,2.13-0.0901,2.84
		c-9.9199-0.99-19.63-3.9-29.6599-3.62c6.13,1.79,12.37,3.1801,18.62,4.54c-0.4401,0.5699-0.87,1.1599-1.28,1.77
		c-2.47-0.04-4.74,0.96-6.86,2.09c2.6599,1.52,5.5599,0.2899,8.25-0.4601c0.1599-0.4299,0.46-1.2799,0.62-1.71
		c2.99,1.67,6.1699,3.11,8.7,5.51c-4.99-1.1-4.6799,5.6801-9.21,5.97c1.13,2.88,4.48,3.66,6.11,6.2001
		c-2.84-0.99-5.87-2.15-8.84-0.98c-5.39,1.6399-11.0801,3.8999-16.7201,1.8999c0.39,1.05,0.8,2.13,1.2101,3.24
		c-5.92-0.46-14.05-2.62-18.11,3.0901c0.76,0.38,2.2799,1.14,3.0399,1.51c-1.71-0.2001-3.5599-0.12-5.01-1.12
		c-0.4199-2.1901,1.4401-4.1001,2.03-6.12c-6.23-1.02-13.89,4.4399-18.85-1.2101c3.8101-2.2999,8.53-3.28,11.42-6.9099
		c5.7699,4.0599,11.84-1.9901,17.9099-2.2101c-2.4299-3.2-6.84,1.8-9.46-1.23c0.03-3.27,3.66-1.3099,5.35-0.99
		c0.37-0.6801,0.76-1.34,1.16-1.98c-5.8,0.3199-11.17,2.6899-16.8101,3.78c-3.6899,0.7799-7.4199-0.05-11-0.9
		c-0.47,0.3199-1.4099,0.97-1.88,1.2999c-3.6899-0.21-7.4299-0.46-11.0299,0.4601c-2.2001-2.11-5-3.62-8.11-3.5
		c-8.6001,0.0299-17.0801,3-25.7001,1.4099c-1.13,1.14-1.3199,4.1901-3.4299,3.7201c-2.37-1.11-4.7101-2.28-6.9601-3.5701
		c1.16-0.98,2.4-1.85,3.55-2.84c-4.8-2.13-10.13-1.6801-15.1901-2.4301c1.8-1.2799,3.7201-2.4299,5.2001-4.11
		c-1.85,0.14-3.6901,0.23-5.51,0.28c-2.89-0.88-4.9-3.5699-7.9301-4.08c-0.2899,0.47-0.87,1.39-1.1599,1.86
		c-2.2201-0.11-5.6001-2.03-6.42,1.1599c3.63,0.75,7.36,0.38,11.02,0.92c2.23,0.3201,3.3099,2.5,4.47,4.1901
		c-3.83-0.63-7.4399-2.7101-11.4-2.04c-1.2799,3.36,1.73,5.0699,3.9501,6.92c-5.86,2.0599-12.3501,4-18.52,2.2
		c0.36-2.73,4.08-2.7,6.01-3.85c-3.2001-1.67-6.85-1.8-10.2001-2.9301c0.16-0.89,0.4801-2.6799,0.64-3.58
		c-4.87,0.97-10.22-0.47-14.7,2.09c0.47,1.42,0.88,2.88,1.27,4.38c3.59-1.4399,7.48-2.26,11.26-0.89
		c-1.67,1.63-3.17,3.4501-3.9701,5.6801c3.4401,1.25,4.9601,4.63,6.79,7.52c0.15-1.5701,0.38-3.12,0.6901-4.63
		c0.7,0.0599,2.1,0.1699,2.7899,0.23c-0.14,1.5-0.3199,3.02-0.5399,4.5499c4.9299-1.5599,11.99-3.0399,15.2599,2.1801
		c-3.0499,0.21-6.1399-0.08-9.11,0.66c-4.5699,0.98-8.5,3.97-13.1799,4.4399c-2.8201,0.29-5.42-0.91-7.9501-1.87
		c1.2001-2.11,2.17-4.41,3.92-6.13c2.29-1.29,3.79,2.3,5.9,2.8101c-2.9-6.88-10-10.3401-14.97-15.48
		c-3.4-3.0801-5.4801-7.3401-6.13-11.8401c5.1499,4.6901,12.71,4.4501,19.0499,2.74c-1.51-1.47-2.86-3.0499-4.12-4.7
		c3.96-0.36,8.88,2.17,11.8301-1.55c-3.64,0.66-7.1201-0.26-10.5-1.4299c-3.3201-1.28-3.8301,3.1-5.42,4.96
		c-1.1801-1.17-2.2001-2.48-3.52-3.4399c-1.72-0.4801-3.52-0.4401-5.22-0.77c-1.4501-0.9501-2.62-2.24-3.9-3.3301
		c0.23,2.01,0.7,4.03,0.76,6.1001c-0.95,1.1699-2.42,1.6499-3.88,1.6599c-2.0699-0.76-2.08-4.61-4.62-4.1499
		c-3.89,0.6899-9.16,2.98-11.67-1.4601c4.37-1.1699,9.92,1.77,13.35-2.1c-7.5499-0.05-15.11-0.45-22.58-1.59
		c0.39-1.23,0.9-2.4701,1.41-3.61c-9.3301-1.4701-19.38,0.85-28.03-3.8501c-0.97,0.79-1.91,1.63-2.88,2.4301
		c-1.4299-1.5601-2.45-3.48-4.16-4.72c-1.9099-0.8301-4.08-0.14-6.0599-0.16c-0.16-1.91-0.15-3.79-0.16-5.66
		c-1.46,0.38-2.84,0.9-4.25,1.37c1.8201,1.05,4.17,1.92,4.3101,4.4301c-7.6001-0.08-14.99-2.66-22.61-2.11
		c-3.2001,0.1699-6.25,1.23-9.26,2.21c-0.42-1.7-0.8101-3.38-1.2301-5.03c-6.33,1.74-12.96,2.25-19.48,1.4601
		c-7.4399-0.89-15.01-0.8-22.33,0.89c0.9,0.71,1.8099,1.3899,2.75,2.1399c-1.26,0.3601-3.12,0-3.63,1.5701
		c-1.09,1.4199-1.2,4.3099-3.5699,3.97c-1.4401-1.28-2.4401-3.6899-4.8101-2.9c-0.63,3.42,2.33,6.02,5.4401,6.5601
		c7.9199,1.6,16.1399,0.27,24.0299,2.11c-0.1899,0.75-0.5699,2.25-0.76,3c1.7101-0.38,3.39-1.09,4.92-1.99
		c-3.09-0.46-4.47-3.22-5.77-5.63c1.46,0.09,2.9401,0.21,4.4301,0.35c0.87-1.2,1.7799-2.36,2.73-3.48c-0.03,1.14-0.09,3.4-0.12,4.54
		c1.15-1.6101,2.39-3.15,3.8199-4.5c0.53,2.13,0.0601,4.2699-0.62,6.35c5.55-1.3101,10.41,1.9399,14.99,4.53
		c-0.0399,0.4099-0.14,1.21-0.1799,1.62c1.1899,1.0299,3.0499,1.9399,2.62,3.8899c-3.99,2.4401-9.62-1.6399-12.7001,2.54
		c6.24,1.49,13.8501-1.53,18.91,3.5801c-12.37,5.4099-25.75,9.1899-39.34,8.4299c1.53-1.2,3.1899-2.2,4.7999-3.28
		c-8.0399-1.46-17.1899-5.3199-24.7899-0.47c1.4099,0.6901,2.97,1.33,4.33,2.22c0.74,1.3101-0.03,2.8301-0.02,4.25
		c2.54-0.5299,5.38-1.3999,7.3,1.05c-5.8101,3.0599-12.48,2.86-18.84,2.98c0.5,2.42,1.7899,4.54,3.01,6.6801
		c-0.8301-0.26-2.4801-0.77-3.3-1.03c1.05,3.8099,3.28,7.23,3.9399,11.1799c-1.36,2.9301-6.7,0.8501-7.24,4.1901
		c2.05,0.91,4.13-0.23,6.17-0.5701c-0.36,1.25-0.72,2.51-1.08,3.8c-4.02,0.0601-8.04,0.13-12.04-0.1c0.76-2.65,3.22-3.4301,5.6-4.04
		c-5.15-5.5599-13.9299-5.51-20.41-2.47c0.25-0.91,0.51-1.8,0.77-2.66c-4.64-1.26-9.4299-0.36-14.1,0.1
		c-4.49,0.55-9.03,0.5901-13.49,1.3301c6.78,1.37,13.67-0.11,20.52,0.2899c-0.42,3.3501-4.05,1.9601-6.36,2.51
		c8.9099,2.05,18.0699,2.67,27.2,2.53c-1,0.66-1.35,2.67-2.8,2.54c-10.7999,0-21.6,0.08-32.3899-0.05
		c0.63-3.36,4.46-1.3099,6.7799-1.9199c-5.1699-2.04-10.7799-2.9501-16.3099-3.1101c-2.5-0.3199-4.46,1.29-6.3301,2.66
		c-0.7799-0.91-1.59-1.75-2.4299-2.52c-6.42-1.2699-13.11-0.71-19.4301,0.8401c0.3101-1.54-0.9099-2.75-2.2999-2.79
		c-2.75-0.39-5.62-0.25-8.11-1.61c3.7899-2.51,8.3999-1.6901,12.0599,0.5699c-0.73-1.21-0.9199-3.0599-2.52-3.37
		c-3.58-1.0399-7.2799,0.65-10.9299,0.2101c-17.72-0.7101-35.73,1.33-53.21-2.4801c5.9-1.99,12.2-1.2799,18.24-2.45
		c-7.5-1.87-15.35-2.5-23.01-1.3199c-3.55,0.45-7.07,1.24-10.65,1.1899c1.21-1.4399,5.25-1.83,5.25-3.41
		c-4.63-1.85-9.72,0.74-14.4901,1.0601c2.31-1.0601,1.64-3.74,2.11-5.78c6.33-1.17,12.31,3.96,18.75,2.46
		c1.93-0.47,2.83-2.47,4.05-3.8099c-7.74-2.7001-15.51-5.87-23.77-6.4301c-2.11,2.9401-5.93,3.2001-9.22,3.37
		c-3.99,0.0901-8.24,0.0601-11.76-2.08c2.86-0.35,6.24,0.95,8.51-1.45c2.78-0.05,5.74,0.8899,8.36-0.4801
		c-4.06-0.9299-8.15-0.0299-12.22-0.22c-3.68,0.0601-7.4399-0.3199-10.99,0.8101c-0.19,2.2-1.46,3.98-2.72,5.7
		c8.66,2.79,18.04,1.58,26.71,4.34c-5.45,0.5901-10.97,0.6801-16.34,1.87c-0.05,0.63-0.16,1.9-0.22,2.54
		c-5.73,1.71-11.86,0.92-17.73,0.61c-1.26-5.01-4.9-8.83-8.77-12c-6.69,6.14-16.45,6.24-24.97,5.7101
		c1.19-1.1801,2.37-2.3601,3.54-3.54c-13.87,3.37-28.67,5.0699-42.6,1.0699c7.88-0.95,17.59,0.26,23.16-6.6699
		c2.27,1.87,5.1,1.51,7.8,1.01c-0.73-0.99-1.44-1.9801-2.09-2.9501c2.62,0.48,5.38,2.38,7.75,0.14c0.85,5.21,7.1,5.0701,11.08,4.11
		c-5.27-1.99-10.06-5.21-15.6-6.4299c-4.35-1.17-8.58,1.4399-12.93,0.9099c-2.45-0.6-4.62-2.12-7.13-2.3999
		c-6.87-0.5701-13.8,1.6799-20.6,0.0699c-2.61-0.5-4.06-2.87-5.25-4.97c8.67,0.75,18.31,3.0499,26.21-1.91
		c-4-0.51-7.66-2.21-11.4901-3.28c-0.71,1.05-1.29,2.25-2.13,3.25c-4.6299,1.28-8.96-1.52-13.21-2.9399
		c1.63-0.62,5.08,0.99,5.16-1.78c-4.03-1.87-7.1-5.05-10.07-8.25c4.03-0.35,8.09-0.33,12.09-0.96c-5.75-3.4-14.19-6.75-19.71-1.17
		c2.1,0.6801,4.71,0.76,5.83,3.03c-2.97,0.0499-6.68-0.4-8.56,2.49c0.32,0.8099,0.97,2.41,1.29,3.22c-6-0.36-12.22-3.24-18.06-0.59
		c7.46,1.63,16.43-0.88,22.4,5.1899c-4.21,0.1901-8.41-0.2899-12.6-0.01v1.7401c5.45,0.6599,11.75-0.9,16.3701,2.87
		c-6.91-0.54-13.45,1.9399-20.2,2.87c0.17-0.66,0.5-1.9801,0.67-2.64c-1.4,0.59-2.77,1.24-4.12,1.9099
		c-0.81-2.97-3.46-3.21-6.09-2.9099c0.4-0.6,1.19-1.78,1.59-2.37c-1.33-0.64-2.7-1.2001-4.05-1.7101
		c0.27-0.5299,0.81-1.59,1.07-2.12c-17.14-2.58-34.39-4.3199-51.61-6.26c12.89-5.84,28.13-3.6399,40.48-11
		c-5.7-1.3999-10.7,2.76-16.32,2.55c-10.07,0.09-19.95-2.22-29.98-2.54c-2.36-0.22-4.34,1.26-6.33,2.27
		c-1.91-2.95-5.64-2.84-8.7-3.35c-4.37-0.53-8.76-1-13.15-1.24c-1.2599,2.13-2.96,3.8099-5.62,3.86c1.07-1.3,2.23-2.46,3.3-3.72
		c-9.54-4.15-19.53-7.47-28.27-13.23c1.38-1.17,1.36-2.9801,1.49-4.5801c2.4,1.98,4.94,4.22,8.17,4.61
		c3.28,0.5,6.46-0.6599,9.46-1.86c-2.26-0.6899-4.53-1.26-6.78-1.9099c0.42-1.3,0.88-2.53,1.35-3.77
		c-4.35,0.9299-10.65,1.3199-13-3.25c1.15-2.3301,2.72-4.4301,3.97-6.6901c-12.33,1.36-24.64-3.5599-36.89-0.4
		c0.24-0.5299,0.72-1.58,0.96-2.11c-1.02-0.1599-2.03-0.2899-3.03-0.38c-2.58,5.64-9.91,4.75-14.1,8.5801
		c-2.99-1.4-6.32-2.7001-9.64-1.64c-3.87,1.2-7.61,2.96-11.74,3.09c1.51-3.03,7.02-4.1799,6.18-8.0599
		c-5.94-0.26-12.2,0.5299-18.17,1.46c0.09,1.3099,0.15,2.63,0.07,3.99c-2.08-1.14-4.04-2.7-6.5-2.79
		c-9.99-1.1899-20.27,0.2201-30.07-2.4399c-2.42-0.63-4.57-1.9501-6.52-3.4501c13.79-4.5199,27.05,4.8,40.9,3.99
		c-0.15-4.6599-1.49-9.11-2.71-13.5599c-10.71,2.05-21.73,0.96-32.34-1.17c-2.3,2.3501-6.92,4.1901-8.64,0.24
		c0.82-0.26,2.45-0.7999,3.26-1.0699c-0.45-1.55-0.9-3.1-1.33-4.62c1.47-0.14,2.49-1.11,3.46-2.09
		c5.9,0.8099,14.12,3.0299,17.74-3.3301c-8.3,0.63-16.91-1.8099-24.86,1.53c-0.33-0.2-0.99-0.59-1.32-0.79
		c-0.8,0.89-1.54,1.9-2.54,2.62c-3.21,0.14-6.32-1.01-9.53-1.13c0.84,1.05,1.7,2.14,2.55,3.2401
		c-3.86,0.8099-7.57,5.3099-11.49,2.3999c0.82-0.26,2.47-0.7799,3.29-1.0499c0.25-2.04-0.78-3.89-1.3199-5.77
		c-0.35,1-1.03,2.98-1.38,3.98c-0.94-1.49-1.8-3.02-2.61-4.54c-3.4-0.09-7.65-2.5199-10.39,0.4401c2.0099,0.61,4.08,1.22,5.95,2.26
		c-9.83,2.0599-20.18-1.24-29.77,2.49c-0.76-1.21-1.61-2.29-2.33-3.47c3.13-1.65,4.99-4.67,7.38-7.14
		c-4.97,0.52-10.01,0.15-14.85-1.03c-4.75-1.05-9.27-3.09-14.17-3.3101c0.33-1.2599,0.66-2.49,1-3.6899
		c-2.07,1.54-3.39,4.39-6.35,4.3c-1.51-5.3501-8.25-3.9-12.48-4.04c-0.21,3.0699-2.67,4.66-5.08,6.0599
		c-0.33-0.6399-1-1.9299-1.33-2.58c-1.37,0.67-2.69,1.48-4.15,2c-5.32-0.28-9.71-4.11-15.05-4.41c-10.57-0.85-20.99,2.78-31.56,1.51
		c7.38-5.86,17.41-3.89,26.12-5.09c-6.1-4.76-14.38-3.26-21.49-2.55c-9.25,0.8501-18.64,4.01-27.91,1.7301
		c13.5-6.3201,29.21-0.89,42.87-6.6901c-3.73,0.14-7.38-0.62-11.06-0.95c-2.84,0.1799-5.29,1.7699-8,2.47
		c-2.06,0.4-4.01-0.6-5.91-1.22c-4.75,1.2-9.65,1.6899-14.54,1.51l0.54-1.6901c-4.34,0.66-8.72,0.76-13.09,0.72
		c2.8,3.02,8.76-0.72,9.89,4.3401c-6.87,3.6-14.77,1.6399-21.76-0.5c-4.58-1.54-9.34-2.42-14.11-3.13
		c-0.21,0.59-0.63,1.76-0.83,2.35c-1.23,0.0599-1.28-1.9501-2.04-2.5701c-4.76-0.84-9.53,0.14-14.29,0.3301
		c-0.21-1.25-0.46-2.4601-0.77-3.64c-9.01-0.9501-18.09,1.49-27.07-0.04c-2.77-0.5599-6.05-1.72-6.85-4.75
		c1.47,0.09,2.95,0.1801,4.42,0.26c-2.89-1.75-6.29-0.4399-9.35,0.02c-3.9,0.8-8.04,1.22-11.82-0.29c0.41-1,0.81-1.97,1.17-2.9299
		c-1.21-2.4301-1.93-5.03-2.03-7.7201c-3.09,0.7101-2.89,4.25-4.33,6.4801c-5.2-0.4701-11.61-1.0601-15.15,3.71
		c3.67,0.1,7.46-0.4401,10.58-2.51c-1.95,3.89,3.04,4.99,5.02,7.33c-5.47,0.4801-10.6,2.9601-16.15,2.74
		c1.47-1.48,3.26-2.5299,4.96-3.6899c-8.11-2.1801-17.38-0.4-23.45,5.6c-1.48-0.6-2.97-1.15-4.44-1.73
		c1.52-0.39,3.03-0.78,4.55-1.15c-2.17-1.02-4.41-1.87-6.61-2.7899c4.8-2.1901,10.08-2.67,15.28-2.79c-0.5-1-0.99-1.97-1.49-2.9
		c1.22-0.51,2.36-1.14,3.26-2.11c-1.73-0.48-3.47-0.8-5.21-1.1901c1.05-0.6299,2.08-1.2699,3.1-1.9099
		c0.65-1.65-0.03-4.02,1.58-5.0701c4.14,0.12,7.83,2.39,11.91,2.88c2.9-0.12,5.35-1.89,8-2.84c-1.01,2.17-2.78,3.8199-4.32,5.63
		c5.64,1.85,6.42-6.41,11.45-6.83c7.51-0.39,15.03,0.6899,22.56,0.23l-0.88-1.3301c4.52,0.9401,9.19,0.8101,13.69-0.1699
		c-0.58,1.1-1.15,2.23-1.73,3.37c5.89-0.79,11.74,0.5599,17.26,2.53c7.29-6.63,16.7,1.83,24.71-1.8101
		c-5.52-6.51-9.05-14.37-12.79-21.96c-12.07-25.91-22.81-52.5-31.38-79.78c-1.73-1.85-4.08-3.27-4.9-5.79
		c-1.97-5.0399-0.02-10.39-0.09-15.5399c-3.22-7.0601-7.19-13.75-11.25-20.3401c-2.45-3.6499-4.64-7.61-8.06-10.46
		c-6.24,1.66-11.76,5.21-17.16,8.65c-14.02,9.46-27.18,20.1899-39.47,31.8099c-6.65-0.61-13.31,0.3301-19.97,0.0801
		c0.6-9.17,4.08-17.79,7.04-26.38c10.72-28.89,23.23-57.0801,36.05-85.0801c-2.12-0.51-4.93,0-6.2-2.1799
		c0.81-4.74,4.75-9.09,9.48-10.05c2.71-0.74,4.26,1.8101,5.27,3.86c10.78,19.91,21.72,39.75,31.63,60.11
		c2.69,5.1101,3.98,10.89,7.45,15.6001c7.44,13.08,14.86,26.2899,20.24,40.38c14.85-1.2301,29.12-6.15,43.97-7.42
		c0.61-6.45-1.72-13.54,1.65-19.48c1.52-3.36,5.57-4.02,8.84-4.35c2.83-0.64,4.16,3.1899,6.94,2.58c6.36-1.09,12.86-1.11,19.29-1.04
		c2.68-8.85,6.86-17.13,10.54-25.59c18.71-40.87,38.26-81.35,56.45-122.45c7.19-16.3601,14.33-32.75,20.47-49.54
		c2.59-7.51,5.48-15.0701,6.1-23.0601c-16.05-1.22-31.42-6.3099-46.66-11.12c-1.74-3.2-0.67-7.34,1.33-10.1699
		c2.77-3.9,8.11-4.1,12.44-3.8301c14.03,1.0601,27.99,2.91,42,4.14c7.41,0.6,14.88,1.48,22.3,0.66c5.33-8.74,9.15-18.29,13.56-27.5
		c34.43-76.38,67.46-153.38,100.73-230.27C770.25,770.14,911.95,435.8,1055.0699,102.06 M1170.53,377.6
		c0.5699,20.15,2.03,40.27,2.75,60.41c3.15,338.35,6.4,676.71,9.5,1015.05c-2.02,9.25,0.1899,18.6599,1.21,27.8999
		c3.47,21.87,7.17,43.8201,13.71,65.02c7.65-31.77,15.1801-63.5699,22.62-95.38c1.37-6.87,3.4901-13.6,4.38-20.5499
		c1.99-291.7201,4.13-583.4501,6-875.17c-6.7799-20.96-15.48-41.3-22.0499-62.36C1197.11,453.83,1182.24,416.24,1170.53,377.6
		 M483.3,1397.3101c-23.22,56.9199-46.51,113.8099-69.78,170.71c-1.78,4.52-2.5,9.47-5.13,13.64c5.99,1.27,6.92,8.24,8.94,13.01
		c5.01,8.38,13.63,13.6599,19.52,21.35c35.02-0.7001,70.04-2.23,104.97-4.85c1.48-10.9701,7.2-20.7201,12.21-30.39
		c8.9-15.8301,18.28-31.51,29.65-45.6901c-2.22-6.1899-3.57-12.6699-4.15-19.2c-0.2401-3.0601-0.57-6.4,1.28-9.05
		c3.89-6.52,4.71-14.5599,9.56-20.5299c2.27-2.9301,5.98-4.01,9.53-4.3c-0.2401-0.84-0.73-2.53-0.97-3.38
		c3.56,0.73,7.45-0.02,10.75,1.75c0.72-1.05,1.37-2.14,2.28-3.02c3.67-0.33,7.44,0.3101,10.77,1.9c5.64,2.72,10.23,7.3,16.28,9.28
		c-1.98-0.0901-3.96-0.12-5.92-0.12c-0.94,5.0499-6.21,9.6699-3.65,14.9199c3.75,9.7201,0.59,20.26-0.51,30.1901
		c-0.62,7.1699-3.25,15.5599,2.01,21.6699c4.4,5.25,9.78,10.5,10.26,17.78c0.49,12-1.24,23.97-1.26,35.98
		c34.87-3.76,69.81-6.7999,104.72-10.1599c-0.11-9.3301,0.41-18.66-0.03-27.9801c-3.51-0.33-7.92-0.2699-9.92-3.73
		c4.38-4.5499,10.6-6.72,15.04-11.22c1.76,0.97,3.49,2,5.4,2.7c3.39-2.83,5.75-7.11,10.46-8.0099c-1.77-4.2301-3.57-8.75-1.58-13.26
		c2.98,1.09,5.75,2.6699,8.62,4.0399c-1.23-3.33-2.53-6.73-2.5-10.33c-0.22-7.1,2.8199-13.71,5.87-19.9401
		c1.91-3.7599,2.35-8.3199,5.52-11.35c3.7-3.75,9.47-4.03,14.35-3.01c8.01,1.75,15.36,5.7201,22.15,10.2201
		c4.48,2.86,8.2,7.2599,9.4,12.5199c1.42,7.3101-6.1,12.9701-4.45,20.39c2.57,0.37,5.17,0.65,7.75,1.11
		c-0.87,1.4301-1.71,2.88-2.52,4.3601c2.27,0.5299,4.65,0.59,6.91,1.24c3.17,1.1399,5.85,3.24,8.55,5.21
		c-0.34,1.5599-1.47,3.34-0.19,4.83c3.71,5.1801,8.6,9.39,12.63,14.3301c5.04,5.6599,7.84,13.11,7.78,20.6899
		c4.59-0.98,8.33-4.53,13.02-4.92c41.6,3.65,83.41,2.13,125.09,3.8201c10.98,0.29,21.95,1.65,32.9399,0.74
		c11.4701-0.88,23.1801-1.1,34.27-4.4c-28.0599-1.8199-56.14,1.84-84.22,1.17c-13-0.8301-26-1.77-39.01-2.36
		c-11.28-0.4401-22.58-1.29-33.86-0.4501c-7.24-1.7-14.9-3.1799-21.19-7.34c-1.66-3.74-4.7-6.86-9.15-6.5699
		c-4.23,6.3999-7.72,14.34-15.65,16.9399c-0.52-5.48,2.06-10.5699,5.13-14.91c3.87-5.3099,8.6-10.0699,14.12-13.6599
		c0.57-2.03,1.66-3.9401,3.73-4.7001c6.51-2.88,13.74-3.4,20.73-4.11c25.9901-1.99,52.08-0.96,78.1-0.1
		c31.39,1.17,62.7399,3.11,94.11,4.5699c10.49,0.3401,21.0299,1.13,31.5,0.13c-1.5601-9.7-5.6901-18.73-9.1001-27.87
		c-3.88-9.37-7.46-18.9299-12.26-27.87c-3.71-1.88-8-2.22-11.99-3.24c-49.85-10.13-99.9999-18.71-150.0699-27.64
		c-90.99-15.9099-182.06-31.36-273.23-46.23c-48.61-7.84-97.21-15.77-145.99-22.51C501.74,1398.99,492.57,1397.42,483.3,1397.3101
		 M1244.22,1416.14c-3.8199,13.37-6.14,27.11-8.9299,40.72c-4.8401,25.34-9.64,50.71-13.54,76.22
		c-0.84,9.05-5.3199,17.3501-5.6801,26.49c48.3-0.13,96.6101-0.72,144.92-1.11c94.35-0.9199,188.71-1.7999,283.0601-3.01
		c36.46-0.6,72.9299-0.75,109.38-1.9399c-6.77-6.15-10.4701-14.66-15.42-22.17c-3.96,0.7101-7.45,2.65-10.9,4.5901
		c-1.88-1.7401-3.6799-3.55-5.37-5.4501c2.59-4.22,5.65-8.39,10.28-10.53c-4.9501-3.9199-11.13-5.6799-16.96-7.8099
		c-25.3-8.33-51.17-14.76-76.9701-21.27c-82.97-20.41-166.47-38.63-250.1699-55.79c-22.54-4.22-44.91-9.8199-67.8301-11.5299
		C1294.8101,1421.01,1269.67,1416.49,1244.22,1416.14 M1692.99,1571.3101c-25.01,0.0199-50.03,0.0399-75.03,0.8799
		c-8.23,0.3601-16.5,0.53-24.62,2.02c1.87,19.53,0.4601,39.1801-0.14,58.75c-1.9199,37.4301-3.99,74.9501-9.7799,112.02
		c13.5699-11.5499,26.12-24.23,39.09-36.4199c21.59-20.4901,43.1-41.0801,65.53-60.65c14.87-14.74,29.6899-29.54,44.62-44.2201
		c3.77-3.58,6.8199-7.8199,10.22-11.73c5.99-7.12,12.08-14.1499,18.1899-21.1499
		C1738.39,1571.6899,1715.6801,1570.9399,1692.99,1571.3101 M240.82,1751.47c-0.14,1.12-1.33,2.9401,0.64,2.9501
		c1.62,0.7899,2.8-0.7101,3.91-1.62C243.85,1752.3,242.34,1751.89,240.82,1751.47 M321.72,1751.7c0.53,1.54,3.46,1.4401,4.03-0.0199
		C325.39,1749.99,322.16,1750.1,321.72,1751.7 M419.71,1752.92c2.38,0.76,4.72,1.88,7.21,2.2699c0.79-0.6,1.55-1.21,2.3-1.8199
		C426.08,1752.91,422.88,1752.45,419.71,1752.92 M436.46,1758.1c2.66,0.0701,7.07,2,8.01-1.75
		C441.75,1756.66,439.02,1757.09,436.46,1758.1 M523.77,1757.67c-1.35,1.1-1.25,2.97-1.61,4.5399c3.02,0.03,5.8701-1.71,5.41-5.0499
		C526.29,1757.26,525.01,1757.3199,523.77,1757.67 M491.79,1757.97c0.31,1.55-0.77,4.0701,1.24,4.78
		C495.28,1761.35,494.5,1758.0601,491.79,1757.97 M511.08,1762.42c2.69-0.02,5.47-0.7101,5.58-3.9701
		C513.88,1758.09,511.15,1759.29,511.08,1762.42 M532.01,1760.4301c-2.32,0.8899-2.95,3.48-3.64,5.61
		c4.41,0.1499,5.46-6.62,9.47-5.8501c0.54,1.4901-0.96,4.04,1.33,4.4501c2.48-1.23,4.11-3.53,5.56-5.79
		C540.5,1759.47,536.06,1758.89,532.01,1760.4301 M552.02,1769.87c3.5,1.5601,5.41-2.6899,6.1-5.41
		C554.99,1764.5,551.55,1766.1801,552.02,1769.87 M422.37,1766.53c2.4,0.61,4.99,1.01,7.37,0.03
		C427.33,1765.9301,424.71,1765.3199,422.37,1766.53 M591.16,1766.1801c0.57,2.97,5.38,2.61,6.5,0.0599
		C595.51,1765.97,593.28,1765.52,591.16,1766.1801 M479.42,1769.25c3.07,0.2,6.15,0.38,9.19,0.9399
		C486.58,1766.97,482.33,1767.9301,479.42,1769.25 M758.33,1768.33c-0.3,1.9,1.85,2.13,3.1,2.88c0.25-0.61,0.75-1.8199,1-2.4299
		C761.08,1768.47,759.71,1768.13,758.33,1768.33 M744.18,1771.73c1.82,0.1,3.65,0.16,5.49,0.17c-0.03-0.64-0.11-1.9301-0.14-2.5801
		C747.49,1769.48,745.54,1770.13,744.18,1771.73 M771.42,1771.83c1.74,0.03,3.51,0.05,5.27,0.03c-0.03-0.63-0.1-1.88-0.13-2.51
		C774.73,1769.9301,772.94,1770.64,771.42,1771.83 M445.56,1771.45c4.14,0.27,8.31,0.29,12.45,0.6901
		c5.2,0.26,11.04,0.98,15.47-2.4301C464.16,1769.47,454.75,1769.8,445.56,1771.45 M510.67,1770.3199
		c4.74,1.8301,9.93,3.8101,15.03,2.0701C520.82,1771.02,515.73,1770.27,510.67,1770.3199 M433.37,1777.54
		c2.8,0.58,5.81,1.1899,8.58,0.0599C439.12,1777.03,436.14,1776.41,433.37,1777.54 M528.4,1781.41c3.66,0.22,7.61,1.22,11.11-0.3301
		C535.83,1780.76,531.91,1779.83,528.4,1781.41 M655.52,1784.14c-0.57,1.6,1.73,2.25,2.72,1.29c0.02-0.4701,0.06-1.42,0.09-1.89
		C657.15,1782.8,656.22,1783.01,655.52,1784.14 M1648.0601,1785.98c-0.2401,0.4501-0.7001,1.36-0.9401,1.8101
		c2.22,0.08,4.52,0.4199,6.7-0.3101C1651.92,1786.85,1649.97,1786.41,1648.0601,1785.98 M705.15,1788.51
		c2.79,0.67,5.64,0.9299,8.49,1.3199C711.68,1786.9399,707.98,1787.6,705.15,1788.51 M594.75,1791.74c-1.2,2.7-2.28,5.46-3.33,8.25
		c2.54-0.39,5.06-0.9399,7.45-1.9c-1.67-0.95-3.77-1.39-4.66-3.25c2.13-0.75,4.58-1,6-2.98
		C598.38,1791.76,596.56,1791.74,594.75,1791.74 M1600.01,1796.89c-4.6801,0.51-9.13-0.9401-13.59-2
		c-2.12-0.6801-4.0701,0.4399-5.8201,1.47c9.39,1.41,18.9601,1.4301,28.3101,3.24c1.35,0.14,2.98,0.73,4.08-0.53
		c-1.42-1.1399-2.92-2.1599-4.34-3.2c4.2999-1.24,9.5599,0.77,13.03-2.85c-3.28-0.0701-6.52,0.98-9.76,0.4
		c0.08-0.8,0.24-2.4,0.3099-3.2101C1607.38,1790.26,1601.92,1791.96,1600.01,1796.89 M654.73,1795.5699
		c3.46-0.38,6.64,1.63,10.09,1.2101c0.2-1.2001,0.19-2.7001-1.04-3.28C660.86,1792.1,656.33,1792.33,654.73,1795.5699
		 M665.57,1793.6801c1.39,2.2699,0.43,4.59-1.06,6.5c6.01-0.6801,12.44,1.86,18.07-1.12c-0.11-1.3601-0.24-2.7001-0.25-4.02
		C677.6,1791.17,671.01,1792.13,665.57,1793.6801 M645.86,1795.89c2.11,3.63,8.06,2.5,8.56-1.74
		C651.42,1793.79,648.6,1794.84,645.86,1795.89 M573.52,1799.34c2.08-0.47,4.02-1.35,5.77-2.5499
		C576.99,1796.63,573.36,1795.66,573.52,1799.34 M1575.6801,1800.3c13.0299,2.4199,25.75,9.8999,39.34,6.21
		c3.52,3.37,8.27,5.16,13.04,5.9299c3.84,0.4801,7.5599-1.0199,11.1599-2.1499c-6.4399-0.8401-12.86-1.79-19.15-3.4
		C1605.54,1803.4399,1590.8199,1798.26,1575.6801,1800.3 M742.72,1803.46c2.54,0.39,5.14,0.64,7.71,0.25
		C747.96,1802.74,745.18,1802.17,742.72,1803.46 M610.84,1803.91c-1.73,0.6-1.77,2.77-0.08,3.5299c2.8,0.4501,4.95-1.74,7.18-3.0399
		C615.58,1804.13,613.21,1803.59,610.84,1803.91 M882.66,1808.38c2.4901,0.42,5.05,0.61,7.59,0.23
		C887.83,1807.61,885.07,1807.12,882.66,1808.38 M1231.55,1808.5601c0.0199,0.85,0.0699,2.5599,0.09,3.4099
		c0.85-0.36,1.71-0.6899,2.59-0.99c0.0701,1.35,0.12,2.73,0.16,4.13c0.73-0.13,2.1899-0.39,2.9299-0.53
		C1235.9,1812.17,1234.91,1808.53,1231.55,1808.5601 M1205.6801,1808.64c0.12,3.51,3.6599,3.14,6.0099,2.14
		C1209.72,1809.92,1207.73,1809.2,1205.6801,1808.64 M1570.87,1811.79c2.26,0.6799,4.45,1.6899,6.8,2.2
		c0.0399-0.47,0.12-1.41,0.1599-1.87C1575.6,1811.11,1573.15,1810.9301,1570.87,1811.79 M1708.1,1811.0601
		c-0.62,0.7899-1.1799,1.6499-1.6899,2.5299c1.14-0.11,2.2999-0.26,3.49-0.39C1709.28,1812.46,1708.6801,1811.75,1708.1,1811.0601
		 M975.09,1813.97c-0.8701,0.36-2.52,0.9301-1.7401,2.1901c2.61,0.3099,5.31,0.0299,7.61-1.35
		C979.2,1813.75,977.06,1813.46,975.09,1813.97 M1179.15,1812.64c0.9399,2.23,1.7899,4.71,3.7999,6.29
		c4.4501,3.6799,11.41,3.2999,15.8301-0.27c-4.97-1.16-10.11-0.62-15.1-1.38c-0.5601-1.5901,0.2599-3.23,0.5-4.74
		C1182.49,1812.54,1180.8199,1812.58,1179.15,1812.64 M1592.54,1815.63c4.22,0.11,8.3999,0.8099,12.62,1.15
		c1.2799,0.09,2.0699-1.16,3.12-1.7001C1603.22,1813.8101,1596.98,1811.79,1592.54,1815.63 M1239.01,1814.01
		c-1.0701,1.38,1.38,3.13,2.47,1.8199C1242.49,1814.39,1240.08,1812.7,1239.01,1814.01 M703.34,1815.1899
		c2.3799,1.05,5.17,1.63,7.6,0.3601C708.43,1815.0699,705.87,1814.9,703.34,1815.1899 M756.29,1815.0601
		c2.27,1.33,5.08,1.6499,7.51,0.5299C761.32,1815.11,758.8,1814.89,756.29,1815.0601 M888.1,1817.78
		c2.36,1.1899,4.79,0.35,6.63-1.37C892.31,1815.35,889.53,1815.22,888.1,1817.78 M1708.15,1815.12c2.9199,1.3,6.37,1.7,9.4199,0.52
		C1714.46,1815.0699,1711.28,1814.65,1708.15,1815.12 M687.01,1820.13c1.66-1.0601,3.34-2.23,4.27-4.03
		C688.67,1815.76,686.61,1817.4,687.01,1820.13 M780.31,1815.6899c0.01,1.4501,0.09,2.91,0.26,4.39
		c0.66-0.73,1.35-1.4199,1.98-2.1599C781.86,1817.11,781.06,1816.37,780.31,1815.6899 M693.41,1817.59c-1,0.3-2.06,2.36-0.52,2.7001
		c1.15-0.26,2.02-0.92,2.6-1.9601C696.1,1816.98,694.04,1817.03,693.41,1817.59 M787.39,1818.26c3.7,0.22,7.84,2.0699,11.19-0.38
		C794.87,1817.64,790.93,1816.67,787.39,1818.26 M751.46,1819.15c2.55,0.25,5.36,2.1899,7.85,0.85
		C757.83,1817.55,753.9,1818.8199,751.46,1819.15 M707.34,1823.16c2.3,0.2899,5.77-2.41,6.96,0.8099c-2.47,0.41-4.96,0.51-7.42,0.1
		c-0.67,0.91-1.36,1.79-1.95,2.8c4.54,3.61,10.37,0.66,15.15-0.85c7.33,2.73,15.09,4.54,22.97,3.76c0.23,1.97,0.96,3.7899,2.19,5.39
		c0.07-0.7001,0.22-2.11,0.3-2.8101c1.37,0.3101,2.7,0.47,4.11,0.79c-0.7401-3.48-3.19-6.1901-4.19-9.55
		c-6.65-0.33-14.32,0.49-19.44-4.6699C719.83,1820.38,712.48,1818.6899,707.34,1823.16 M814.28,1820.9
		c3.2,0.37,6.4399,0.02,9.66,0.2899c2.29,1.03,4.59,2.14,7.18,2.2201c2.9,0.6899,3.7-4.65,6.68-3.29c1.27,0.88,3.76,0.89,4.1,2.66
		c-0.65,1.12-1.3,2.24-1.92,3.4199c2-0.12,3.68-1.0399,3.99-3.1499c0.58-0.3,1.72-0.91,2.29-1.2101
		c-6.6-4.46-14.83-1.6699-22.19-1.6899C820.81,1820.59,817.19,1818.77,814.28,1820.9 M846.22,1820.77
		c2.36,0.35,4.79,0.54,7.1801,0.2C851.27,1819.49,847.93,1817.8199,846.22,1820.77 M896.59,1820.61c4.27,0.38,8.71,1.33,12.89-0.17
		C905.22,1819.64,900.4,1817.52,896.59,1820.61 M944.12,1820.55c2.44,0.5399,5.08,1.0699,7.51,0.11
		C949.18,1819.99,946.51,1819.39,944.12,1820.55 M1097.34,1821.01c0.02,0.3199,0.0601,0.97,0.0801,1.29
		c2.11-0.03,4.38,0.4299,6.35-0.63C1101.63,1821.27,1099.48,1821.11,1097.34,1821.01 M1108.97,1821.9c2.17,0.27,4.4,0.4,6.3301,1.64
		c0.2899-0.14,0.8899-0.41,1.1799-0.55C1114.6899,1820.22,1111.52,1820.71,1108.97,1821.9 M1282.45,1821.29
		c0.02,0.5599,0.05,1.6899,0.0701,2.26c0.5699,0.0299,1.7,0.09,2.27,0.12c0.0399-0.62,0.11-1.86,0.1499-2.49
		C1284.3199,1821.21,1283.08,1821.26,1282.45,1821.29 M1295.5601,1821.24c-1.04,2.21,4.37,1.96,3.8099-0.03
		C1298.34,1820.29,1296.5601,1820.36,1295.5601,1821.24 M763.02,1822c0.06,0.55,0.19,1.64,0.25,2.1899
		c1.09,1.2201,2.57-0.12,3.74-0.5399C765.69,1823.03,764.37,1822.47,763.02,1822 M782.83,1823.71c-0.07,0.54-0.19,1.62-0.26,2.16
		c1.26,0.04,2.53,0.11,3.82,0.2c-0.02-0.8199-0.04-1.63-0.04-2.4099C785.16,1823.65,783.99,1823.67,782.83,1823.71
		 M787.36,1825.4399c4.73-0.09,9.32,1.91,14.03,1.0701C798.1,1822.25,791.55,1822.9301,787.36,1825.4399 M1077.38,1824.37
		c3.6899,0.24,7.6801,1.29,11.1801-0.39C1084.86,1823.29,1080.77,1822.14,1077.38,1824.37 M1242.98,1826.11
		c3.5801,0.51,8.7001,1.41,10.4401-2.79C1249.6899,1822.89,1246.08,1824.13,1242.98,1826.11 M1595.49,1826.5601l2.89-0.13
		c-0.0601,0.6-0.16,1.7799-0.21,2.38c1.61,2.24,4.4299,3.0699,7.01,3.7c4.3899,0.86,9.5599,0.9,12.87-2.63
		c-6.12-0.7-12.88,1.3199-18.5701-1.51c-1.0499-1.79,1.62-2.64,2.6801-3.52c0.14-0.34,0.4099-1.03,0.5399-1.38
		C1600.14,1824.03,1597,1824.04,1595.49,1826.5601 M777.43,1823.96c-1.11,1.4501,1.66,2.1901,2.54,1.3101
		C781.12,1823.79,778.28,1822.92,777.43,1823.96 M994.39,1825.39c2.42,0.52,5.13,1.4299,7.39-0.17
		C999.33,1824.77,996.77,1824.51,994.39,1825.39 M1217.38,1825.51c7.75-1.16,15.3,2.9,22.96,0.9299
		C1232.8199,1825.6899,1224.5,1821.11,1217.38,1825.51 M1248.63,1830.11c1.14,0.3,2.3,0.59,3.48,0.89
		c0.09,0.27,0.25,0.8101,0.33,1.09c-1.6899,0.54-3.23,1.41-4.72,2.3401l3.04,0.5499c-0.63,0.67-1.24,1.38-1.8201,2.12
		c-4.0499,0.15-8.22-0.51-11.45-3.09c-0.34,1.03-0.8099,2.01-1.4,2.9299c-0.71,1.04-3.35,1.51-2.11,3.0701
		c2.13,1.37,4.42-0.96,6.51-1.58c0.8201,0.96,1.66,1.9299,2.53,2.9199c-2.3301,1.17-1.46,4.87-4.05,5.51
		c-5,1.5-9.7999-1.4399-14.61-2.36c1.5,3.16,5.8101,1.71,7.98,4.24c4.4401-1.77,9.14-0.1899,13.25,1.72
		c7.11-3.75,15.48-5.26,23.4401-4.02c3.9399,0.5901,7.65,3.13,8.6699,7.17c0.53-1.6799,0.67-3.6,1.9601-4.89
		c1.7-0.9399,4.0299-0.5699,5.5499-1.74c-2-2.79-1.98-6.01-0.64-9.08c-3.46-0.89-7.0299-1.09-10.5299-1.66
		c-1.66,2.39-3.64,4.55-5.26,6.97c-5.17,0.3-10.35,0.62-15.51,0.1901c-0.4501-1.9401-0.88-3.8201-1.39-5.7101
		c1.59-0.09,3.38,0.0801,4.4301-1.4399c-1.28,0.11-3.8501,0.33-5.13,0.45c1.23-2.0499,1.7699-4.35,2.4299-6.59
		c0.26-4.3199,5.08-2.61,7.92-2.99c-1.3101-0.89-2.7001-2.49-4.4401-1.83C1253.98,1826.3101,1251.48,1828.5699,1248.63,1830.11
		 M805.86,1828.04c3.82,0.1699,8.59,3.49,11.56-0.29C813.54,1827.92,809.31,1825.41,805.86,1828.04 M890.4,1829.4399
		c3.92,0.1101,8.11-0.1,11.48,2.29c-0.17-0.9299-0.51-2.79-0.67-3.72c1.68,0.66,2.65,1.9399,2.92,3.86c1.08-1.84,2.26-3.6,3.53-5.29
		C902.01,1828.29,895.12,1825.08,890.4,1829.4399 M867.08,1829.6c3.45,0.1801,7.66,0.9501,10.4-1.77
		C873.96,1827.8199,870.01,1827.1899,867.08,1829.6 M878.26,1827.64c0.67,2.28,2.76,2.29,4.22,0.84
		C881.07,1828.1,879.69,1827.8199,878.26,1827.64 M1206.39,1827.27c-0.4301,2.34,1.24,5.3099-0.41,7.27
		c-2.0599-0.51-2.21-2.79-3.1699-4.28c-0.54,0.05-1.6201,0.15-2.16,0.2c0.9,1.3101,1.75,2.66,2.58,4.0701
		c-3.34,0.95-7.8099,0.03-9.6699,3.73c4.1899-0.4401,9.2-2.1901,12.5599,1.4c0.0601-0.73,0.17-2.2001,0.23-2.9301
		c1.5801,1.05,3.22,2.14,5.01,2.89c-1.26-1.46-2.02-5.55-4.7-2.8199c0.5699-1.49,0.9199-3,1.0499-4.55
		c1.79-0.1801,3.54-0.67,5.24-1.28C1210.79,1829.66,1208.58,1828.47,1206.39,1827.27 M1219.8101,1828.65
		c-0.01,0.53-0.02,1.59-0.03,2.11c0.62,0.0599,1.85,0.17,2.47,0.23l-0.26-1.85c1.4301,0.52,2.9,1.11,4.36,1.6799
		c-0.5-1.3199-0.97-2.58-1.51-3.8199C1223.6,1828.67,1221.74,1829.14,1219.8101,1828.65 M1262.71,1830.35
		c1.9,0.42,4.05,0.4,5.7201,1.61c0.5299,1.8401-0.9801,2.9501-2.1101,4.14c5.6901,0.0601,9.41-4.52,12.3401-8.76
		C1273.24,1827.35,1267.3,1826.92,1262.71,1830.35 M845.37,1828.35c-1.24,2.2101,3.12,2.64,3.28,0.51
		C848.47,1827.3199,846.16,1827.37,845.37,1828.35 M1115.47,1830.88c2.41-0.15,5.12-0.2,6.8401-2.2
		C1119.75,1828.26,1117.4399,1829.39,1115.47,1830.88 M1192.58,1828.83c2.0601,0.63,4,1.9,6.2201,2
		C1198.6801,1827.99,1194.62,1828.33,1192.58,1828.83 M752.48,1830.4399c2.49,0.4501,5.03,0.6901,7.56,0.3201
		C757.7,1829.58,754.89,1829.28,752.48,1830.4399 M988.32,1830.49c2.47,0.4401,5,0.61,7.5,0.1801
		C993.46,1829.63,990.67,1829.2,988.32,1830.49 M998.44,1831.2c1.5,2.4501,4.87,3.0601,7.07,1.1901
		C1003.32,1831.27,1000.89,1830.38,998.44,1831.2 M1339.5699,1831.36c2.63,1.3201,5.8501,2.38,8.3,0.15
		C1345.12,1830.99,1342.3101,1830.77,1339.5699,1831.36 M1500.9,1832.7c3.24,1.3501,6.6899,1.92,10.09,2.74
		c1.51-0.35,2.9301-1,4.24-1.84c-2.21-0.3099-4.4299-0.38-6.5499-0.96c-0.7001,0.26-1.37,0.5499-2.02,0.87l-0.17-1.74
		C1504.59,1831.98,1502.74,1832.29,1500.9,1832.7 M726.32,1834.24c5.34,1.0601,10.53,2.6801,15.66,4.48
		c4.33,1.55,9.44,1.92,13.32-0.97c-4.05,0.83-8.3,0.89-12.23-0.5C737.63,1835.72,732.1,1832.0601,726.32,1834.24 M1290.6801,1833.48
		c0.1399,0.86-0.28,2.2001,0.9199,2.53c0.7001-0.4301,1.41-0.86,2.13-1.29C1292.7,1834.27,1291.6899,1833.86,1290.6801,1833.48
		 M1517.8199,1835.51c6.52-0.54,13.1101,0.4299,19.5901-0.6901C1531.11,1833.5,1523.46,1831.25,1517.8199,1835.51 M815.43,1835.35
		c3.08,0.49,6.24,0.84,9.36,0.3301C821.85,1834.4301,818.41,1834.0601,815.43,1835.35 M1309.66,1834.1
		c0.2999,1.3301,0.6,2.64,0.95,4.03c-2.4299-0.2-5.45-2.13-7.35,0.29c4.96,1.22,10.11,0.73,15.01-0.53
		C1314.83,1837.9399,1312.74,1835.02,1309.66,1834.1 M1369.05,1835.34c2.4099,0.42,5.0599,1.1,7.3199-0.26
		C1373.9301,1834.79,1371.33,1834.1,1369.05,1835.34 M1465.0601,1836.21c1.5299,1.6001,3.5499,2.76,5.87,2.4601
		c3.4099-0.2001,8.2599-0.9601,9.0199-5.01C1475.39,1836.29,1470.1,1835.9,1465.0601,1836.21 M1378.37,1837.11
		c1.8,0.2001,3.5699-0.21,5.13-1.12C1381.6801,1835.66,1379.65,1835.38,1378.37,1837.11 M1544.35,1836.09
		c3.73,1.78,7.9,4.27,12.1,2.4401C1552.8199,1836.4301,1548.5,1835.48,1544.35,1836.09 M777.37,1836.11
		c1.77,3.62,6.15,3.3201,9.58,3.26C785.15,1835.66,780.78,1836.1,777.37,1836.11 M1145.99,1837.7c2.52,0.8201,5.21,1.0901,7.74,0.15
		c-0.45-0.37-1.34-1.11-1.79-1.48C1149.95,1836.8101,1147.95,1837.21,1145.99,1837.7 M1184.02,1839.49
		c3.3099-0.1899,6.83-0.76,9.16-3.36C1189.9,1836.49,1186.59,1837.3199,1184.02,1839.49 M883.23,1837.13
		c2.15,1.87,5.21,3.35,7.97,1.83C888.67,1837.86,886.05,1836.73,883.23,1837.13 M1323.84,1838.08
		c8.14,1.3201,17.5701,5.4801,25.24,0.63C1340.63,1840.08,1332.28,1837.02,1323.84,1838.08 M713.12,1840.2
		c1.57,0.8301,3.18,0.3201,4.7-0.36c-0.99-0.48-1.97-0.9399-2.95-1.36C714.28,1839.03,713.69,1839.6,713.12,1840.2
		 M826.43,1840.6801c0.69-0.05,2.09-0.16,2.79-0.2201c0.48-0.8099,0.97-1.59,1.47-2.36
		C828.93,1838.4,827.04,1838.71,826.43,1840.6801 M1103.36,1838.6899c3.55,2.25,7.9401,2.1201,11.98,1.7001
		C1111.55,1838.86,1107.4399,1837.76,1103.36,1838.6899 M1223.13,1840.55c3,0.3899,6.05,0.72,9.09,0.2799
		c0.38-1.8099-1.7-3.01-3.25-2.64C1226.76,1838.13,1224.9301,1839.46,1223.13,1840.55 M1453.5699,1840.92
		c3.4501,0.9099,7.3101,0.1799,9.6801-2.65C1459.88,1838.52,1456.63,1839.53,1453.5699,1840.92 M802.53,1839.96
		c2.72,1.86,6.23,1.4501,9,3.14c-4.03,4.34-10.3,3.5701-15.33,5.8c0.98,0.5599,1.94,1.1699,2.89,1.84c-3.32,2.64-8.4,1.05-11.2,4.36
		c5.02,0.12,10.01,1.29,15.04,0.97c2.74-0.12,5.18-1.5499,6.74-3.7699c2.47,2.3999,5.78,1.6499,8.74,0.6899
		c1.2-3.67,4.92-5.27,7.5-7.8099c-3.39,0.22-6.6,2.08-10.03,1.5c-0.91-1.3101-1.2-2.9701-1.74-4.37
		c3.03,0.7899,6.18,1.5099,9.31,0.6699c-1.33-1.1799-2.71-2.27-4.06-3.37C813.77,1839.75,808.12,1839.3,802.53,1839.96
		 M1349.67,1839.73c1.01,0.97,1.8099,2.4,3.2899,2.77c7.9601,1.8,16.23,2.03,24.3,0.73
		C1368.16,1841.3199,1358.77,1841.66,1349.67,1839.73 M1196.37,1843.63c3.24,1.22,6.91,1.16,9.86-0.8101
		C1203.92,1839.8,1198.84,1841.45,1196.37,1843.63 M723.07,1842.6c1.77,3.28,5.75,1.49,8.71,1.55
		C730.39,1840.3199,726.07,1842.38,723.07,1842.6 M763.82,1844.28c11.47-0.7001,23.29,1.75,34.45-1.88
		C786.8,1842.63,774.95,1840.66,763.82,1844.28 M1291.86,1844.2c2.23,0.4301,5.3101-0.6599,6.37,2.2201
		c-3.7999,0.5-7.89-0.12-11.49,0.74c0.2,0.85,0.6,2.5499,0.8,3.4c-1.17,1.4199-2.79,2.2699-4.48,2.9299
		c2.2899,0.9,4.5,2.03,6.8199,2.92c-0.4301-0.5901-1.3-1.78-1.74-2.37c0.71-0.8,1.4399-1.5801,2.2-2.3201
		c5.63,2.5,12.02-0.73,17.63,2.28c0.25-1.41,0.37-2.83,0.9601-4.11c0.7799-2.08,3.2799-1.76,5.0399-2.29
		c0.1901-0.47,0.5601-1.4199,0.74-1.89c-5.22,0.62-9.5599,6.01-15.0499,3.23l1.47-1.1899c-2.23-1.22-4.08-2.99-3.58-5.72
		C1295.63,1842.71,1293.72,1843.39,1291.86,1844.2 M1419.79,1842.72c5.7899,1.11,11.7899,0.65,17.61-0.15
		C1431.55,1841.91,1425.6,1841.83,1419.79,1842.72 M738.32,1843.08c-1.14,2.11,3.15,2.49,3.55,0.62
		C741.63,1842.14,739.24,1842.23,738.32,1843.08 M746.79,1842.98c2.7401,3.02,6.98,3.4301,10.8,2.74
		C754.01,1844.6899,750.38,1843.91,746.79,1842.98 M850.41,1847.9301c3.05,0.6,6.17,0.5699,9.27,0.7c-0.61,1.04-1.18,2.13-1.73,3.24
		c0.67-0.8099,1.34-1.6,2-2.39c3.08-0.66,6.23-0.8199,9.38-0.95c-0.86-0.64-1.72-1.25-2.57-1.8401c1.04-1.2,2.11-2.37,3.16-3.5399
		C863.21,1843.5,856.34,1844.59,850.41,1847.9301 M1534.53,1843.33c-2.3401,0.9401-5.28,0.0801-7.11,2.11
		c6.2999,1.9701,12.8999-1.62,19.1699,1.0601C1543.89,1842.1,1538.51,1844.92,1534.53,1843.33 M1042.98,1846.9301
		c1-0.54,2.01-1.0801,3.02-1.6001c1.73,0.27,3.45,0.6001,5.1899,0.9601C1049.39,1843.59,1043.27,1843.05,1042.98,1846.9301
		 M1111.91,1848.38c1.1799-1.5699,2.4099-3.1,3.5599-4.6801C1112.62,1843.61,1111,1845.77,1111.91,1848.38 M1121.28,1845.13
		c3.01,0.46,6.51,2.23,9.13-0.24C1127.36,1844.63,1124.1801,1843.84,1121.28,1845.13 M878.23,1845.8199
		c-0.08,3.0701,2.94,2.3301,5.1,2.42c-0.01-0.86-0.01-1.6899,0-2.51C881.62,1845.74,879.92,1845.75,878.23,1845.8199
		 M1134.36,1844.87c2.4401,1.95,5.55,2.79,8.63,3.0601C1140.3101,1846.4301,1137.5,1844.95,1134.36,1844.87 M1439.46,1847.33
		c1.8301-0.34,3.7101-0.8099,5.2101-2.01C1442.5699,1845.11,1439.95,1844.46,1439.46,1847.33 M1115.42,1846.59
		c0.1699,1.39,0.4199,2.89,0.6899,4.3201c0.42-0.8201,1.26-2.4601,1.6801-3.28c3.62,2.51,4.48,8.36,9.4199,8.83
		c-1.25-1.7899-0.7799-3.73,0.03-5.5599c-1.41-1.0601-2.74-2.2101-4.01-3.39C1120.62,1848.9301,1118.0601,1846.91,1115.42,1846.59
		 M1450.0699,1845.92c1.9901,2.24,1.9701,5.14,1.67,7.98c1.5601-2.9601,6.88-5.6,8.96-1.98c0.27-0.0601,0.8201-0.1801,1.0901-0.24
		c-0.9701-1.1801-1.99-2.41-2.88-3.53c6.8199-0.0801,13.4199,1.85,20.2,2.36C1471.13,1843.45,1459.67,1846.96,1450.0699,1845.92
		 M1426.75,1846.6801c0.26,3.8999,4.46,2.99,7.09,2.2799C1431.46,1848.1899,1429.14,1847.3101,1426.75,1846.6801 M1554.9399,1851.09
		c1.39-0.73,2.76-1.51,4.14-2.27c-0.5499-0.1599-1.64-0.49-2.1799-0.6599C1556.22,1849.12,1555.54,1850.0601,1554.9399,1851.09
		 M1067.99,1851.15c-2.45-0.39-4.9-0.8201-7.29-1.4301C1061.9301,1852.9,1065.4399,1852.1899,1067.99,1851.15 M1111.54,1849.04
		c-0.52,3.27,2.12,5.61,5.35,5.12C1115.22,1852.3101,1113.5601,1850.46,1111.54,1849.04 M1374.49,1851.6
		c0.8-0.0599,2.41-0.1799,3.22-0.24C1378.58,1848.46,1375.09,1849.98,1374.49,1851.6 M1396.78,1849.62c1.58,1.39,3.47,1.21,4.96-0.3
		C1400.0601,1849.27,1398.41,1849.37,1396.78,1849.62 M1412.8,1850.0601c3.3899,0.4299,6.7699,0.99,10.1799,1.3899
		c1.39,0.1801,2.3-1.1799,3.41-1.7799C1421.87,1849.62,1417.1899,1848.6801,1412.8,1850.0601 M1442.75,1851.71
		c1.83-0.46,3.62-1.22,4.8101-2.76C1445.5,1849,1443.77,1849.9399,1442.75,1851.71 M1321.85,1852.92
		c8.75,1.0199,18.2101,3.97,26.49-0.5601c-4.1599-0.24-8.35-0.0499-12.48-0.64C1331.2,1851.16,1326.03,1850.09,1321.85,1852.92
		 M862.4,1854.23c5.61,2.11,12.24,2.34,17.5699-0.72C874.14,1853.58,867.94,1851.6899,862.4,1854.23 M912.86,1855.14
		c3.04,0.27,6.3,1.0599,9.15-0.48C919.03,1853.0699,915.65,1853.33,912.86,1855.14 M1012.55,1855.47
		c3.14-0.1,6.25-1.0499,9.42-0.5499c4.24,0.4399,9.12,1.5699,12.67-1.5601c-4.9-0.15-9.8-0.29-14.69-0.27
		C1017.37,1853.22,1014.25,1853.17,1012.55,1855.47 M1035.0699,1855.62c1.91-0.14,3.5601-1.04,4.5601-2.71
		C1037.55,1852.88,1035.79,1853.6,1035.0699,1855.62 M1262.16,1853.77c0.9199,1.02,1.45,2.23,1.5699,3.62
		c3.7001-1.8101,7.84-0.5,11.77-0.78C1272.1,1852.97,1266.73,1852.55,1262.16,1853.77 M986.64,1855.1
		c4.34,0.1801,8.93,1.3201,13.13-0.2999C995.42,1854.4399,990.84,1853.45,986.64,1855.1 M901.46,1856.01
		c1.72,1.28,3.56,2.51,5.67,3.1C905.94,1857.04,904.1,1854.3,901.46,1856.01 M1439.85,1856.3c-1.87,0.13-3.02,1.6799-4.2,2.9299
		c5.25,0.73,9.49-3.4,14.78-3.0599C1446.95,1855.36,1443.3199,1855.78,1439.85,1856.3 M911.76,1858.3101
		c3.68,1.5099,7.95,2.7999,11.89,1.6C919.67,1859.45,915.79,1858.1,911.76,1858.3101 M936.49,1859.8101
		c-2.53-0.9301-6.01-1.6201-7.3,1.5199c2.93,0.36,5.88-0.12,8.82,0.24c2.21,0.9801,4.06,2.62,6.27,3.65
		c-1.11-2.0599-4.53-3.34-3.38-6.0499c2.77-0.89,5.2599,2.1,8.14,0.95C945.73,1856.5699,940.26,1857.7,936.49,1859.8101
		 M1056.54,1858.21c0.0299,0.54,0.08,1.64,0.11,2.1801c0.5499,0.03,1.66,0.08,2.22,0.11c0.05-0.61,0.14-1.8199,0.1901-2.4301
		C1058.4301,1858.1,1057.17,1858.17,1056.54,1858.21 M1295.38,1858.12c1.67,2.5601,5.14,3.46,7.42,1.0699
		c-1.66-0.11-3.3101-0.1599-4.9501-0.1399C1297.23,1858.8199,1296,1858.35,1295.38,1858.12 M1347.35,1857.97
		c0.1,0.6,0.3101,1.78,0.42,2.37c2.14,0.3101,4.3199,0.4401,6.51,0.28c-3.1801,5.4401-9.4401,1.53-13.85,0.37
		c1.6699-1.22,3.71-1.45,5.71-1.72c-13.1901,0.16-26.4401-1.51-39.6,0.11c4.83,1.22,10.1599,1.15,14.59,3.73
		c2.24,2.16-0.98,4.2001-2.1801,5.91c7.4601-1.49,13.9701-5.67,21.3401-7.47c0.6799,1.83,1.24,3.6699,1.39,5.7
		c-2.3501-0.4301-4.53-1.98-6.9601-1.37c2.88,1.77,6.01,3.16,8.75,5.1899c0.67-2.33,1.85-4.83,4.41-5.5
		c4.5-1.45,9.33-1.2699,13.99-1.9099C1357.11,1861.6,1352.54,1858.48,1347.35,1857.97 M1012.27,1860.09
		c1.84,1.11,3.93,1.5601,6.07,1.7001C1017.62,1858.8199,1014.44,1859.76,1012.27,1860.09 M1380.22,1859.3
		c2.17,1.35,4.9501,1.5699,7.28,0.45C1385.1,1859.27,1382.64,1859,1380.22,1859.3 M796.76,1860.47
		c0.84,2.03,2.87,2.1901,4.66,1.3401C799.88,1861.22,798.34,1860.78,796.76,1860.47 M944.82,1865.3c5.92,1.13,12.42,0.62,17.11-3.55
		c-3.24-0.9301-6.5-2.21-9.92-2.08C948.7,1859.99,946.68,1862.88,944.82,1865.3 M844.25,1861.26c9.38,2.1899,19.6,4.5,28.99,1.17
		C863.49,1863.37,853.89,1858.8,844.25,1861.26 M1139.4,1862.24c0.4299,1.6901,3.5599,1.53,3.96-0.13
		C1142.83,1860.62,1139.8,1860.7,1139.4,1862.24 M1363.96,1866.66c8.7101,1.2999,17.4-0.77,26.0601-1.51
		c4.7-0.9601,10.5599-3.36,14.1899,1.1699c-1.4199-0.24-2.8199-0.4099-4.22-0.49c-1.54,0.76-2.41,2.3-3.39,3.62
		c4.5701-0.7699,9.2101-0.5399,13.8301-0.25c-3.04-2.48-0.5-5.8199,1.63-7.87C1395.8101,1859.11,1380.01,1865.16,1363.96,1866.66
		 M1531.48,1864.65c2.14-0.8301,5.48,0.14,6.85-1.73C1537.01,1859.42,1532.58,1862.3199,1531.48,1864.65 M1168.8199,1862.77
		l2.4801,0.62c0.37,0.66,1.12,1.99,1.49,2.65c-2.0801,0.2-4.1901,0.4399-5.9701,1.59c0.6101-0.23,1.8401-0.6901,2.4501-0.92
		c1.11,0.03,2.22,0.12,3.35,0.26c1.8199,1.9,4.01,3.47,6.5699,1.6901c-0.9099-0.35-2.72-1.04-3.6299-1.39
		c0.5499-1.8,2.6399-3.48,1.75-5.46C1174.4301,1861.65,1171.39,1861.2,1168.8199,1862.77 M1428.04,1865.4399
		c-4.5,0.0901-9.5601-1.0299-13.3401,2.0901c10.78-0.26,22.79,2.1799,32.29-4.37c-5.58-0.24-10.72,4.48-16.28,1.59
		c1.9601-0.52,3.92-1.0699,5.88-1.66C1433.48,1860.5601,1429.63,1862.14,1428.04,1865.4399 M962.73,1862.51
		c-0.45,3.3,2.7,3.4,4.74,2.22C965.93,1863.87,964.34,1863.13,962.73,1862.51 M1454.24,1864.4c6.55,0.85,13.05,3.78,19.73,2.48
		C1467.4399,1866.01,1460.8101,1861.77,1454.24,1864.4 M1151.99,1864.05c-1.12,1.99,3.36,2.36,3.8,0.63
		C1155.38,1863.12,1153.02,1863.3101,1151.99,1864.05 M987.75,1867.53c8.51-0.05,17.03,0.6599,25.53,0.4099
		C1004.92,1866.6899,995.86,1863.79,987.75,1867.53 M1049.89,1867.28c3.13,0.39,6.52,1.1799,9.5-0.28
		C1056.23,1866.6899,1052.91,1865.96,1049.89,1867.28 M931.3,1869.45c0,0.1901,0.01,0.5601,0.01,0.75
		c6.09,0.87,12.28,1.25,18.23-0.71C943.49,1868.67,937.34,1868.6,931.3,1869.45 M1131.17,1870.83
		c2.3199-0.4199,4.6799-0.2899,7.0399-0.14c0.28-0.6499,0.8201-1.9299,1.0901-2.5699
		C1136.48,1868.55,1133.0699,1868.33,1131.17,1870.83 M1139.5699,1871.28c2.7401-0.4501,5.5801-0.74,8.1001-2.01
		C1144.77,1868.95,1141.4301,1868.53,1139.5699,1871.28 M1344.5601,1868.99c1.25,2.03,3.61,3.14,5.8899,2.12
		C1348.54,1870.22,1346.67,1869.2,1344.5601,1868.99 M1483.7,1871.74c2.1901-0.02,4.17-0.84,5.53-2.58
		C1486.9399,1868.83,1484.27,1869.05,1483.7,1871.74 M1357.46,1871.8101c1.65,1.6799,4.0801,2.1,6.3201,1.47
		c-1.89-1.25-3.7001-2.48-5.55-3.7101C1357.9301,1870.29,1357.67,1871.03,1357.46,1871.8101 M898.71,1873.47
		c8.86-0.5499,17.74-0.2,26.6-0.87c-5.07-0.76-10.16-1.2899-15.26-1.66C906.16,1870.78,901.71,1870.46,898.71,1873.47
		 M1087.9399,1873.53c4.4701,0.35,8.9601,0.5399,13.42,1.2C1098.1801,1870.3,1092.25,1872.0601,1087.9399,1873.53
		 M1364.4399,1873.08c2.05,0.64,5.4301,4.04,6.92,1.02C1369.88,1871.5699,1366.7,1872.6899,1364.4399,1873.08 M1408.15,1872.9
		c0.65,4.2899,5.8199,5.71,9.38,7.01c-1.91-2.37-4.92-3.9701-5.51-7.1801C1410.71,1872.75,1409.41,1872.76,1408.15,1872.9
		 M1430.84,1873.71c4.4301,1.42,9.3401,2.51,13.8301,0.63C1440.3199,1872.61,1435.24,1871.63,1430.84,1873.71 M974.02,1877.08
		c4,0.17,7.62-1.7999,11.55-2.24l-1.01,2c7.59-1.8099,13.87,4.0701,21.28,4.23c-1-1.5099-1.9301-3.0299-2.88-4.5299
		c-2.7401,1.45-5.56,0.62-8.1-0.74c2.01-0.62,4.14-1.12,5.78-2.53c-3.88-0.1901-7.73,0.4399-11.6,0.23
		C983.87,1873.1899,978.08,1873.41,974.02,1877.08 M1294.76,1872.95c0.02,0.9501,0.04,2.8501,0.0599,3.8
		c1.26-0.73,2.5701-1.37,3.8401-2.09C1297.35,1874.0601,1296.05,1873.49,1294.76,1872.95 M1371.73,1875.2
		c3.72,0.4401,7.38-0.5399,11.0801-0.8199c-0.2401-0.4301-0.7301-1.28-0.9801-1.71
		C1378.21,1872.09,1374.0601,1871.76,1371.73,1875.2 M1018.54,1877.7c1.23-0.63,2.48-1.25,3.72-1.86
		c0.34,1.29,0.66,2.61,0.99,3.9601c6.96-1.37,13.89,0.6499,20.8199,1.12c4.0801-0.5701,9.1101-1.4801,11.78,2.6499
		c-2.21-0.49-4.46-0.9199-6.2,0.76c3.14,0.63,6.37,0.9801,9.5699,0.54c-0.77-0.45-2.3199-1.34-3.09-1.79
		c0.62-1.1899,1.27-2.36,1.9399-3.5c0.4901,0.52,1.4601,1.55,1.9501,2.0701c1.09-0.79,2.1699-1.6,3.26-2.38
		c-12.92,0.64-25.7101-4.39-38.54-1.76c-0.4299-1.27-0.85-2.52-1.28-3.74C1021.33,1874.23,1018.29,1874.9,1018.54,1877.7
		 M1382.74,1874.8101c1.21,1.0299,1.87,2.4299,2,4.1899c2.78,0.16,5.58-0.11,7.7-2.13c4.9801,1.5,10.92,3.23,15.4-0.51
		c-7.5599-3.58-16.0699-1.21-23.97-2.89C1383.47,1873.89,1383.1,1874.34,1382.74,1874.8101 M1321.71,1876.4301
		c0.5901,1.21,1.1801,2.46,1.78,3.72c2.38-0.05,4.8101-0.02,7.16-0.55c-1.8201-0.4399-3.63-0.8199-5.4301-1.14
		c0.67-1.2,1.41-2.35,2.17-3.47C1325.41,1875.13,1323.4399,1875.4,1321.71,1876.4301 M1418.4,1875.5
		c0.24,2.15,1.99,3.42,4.0699,3.74C1421.34,1877.8199,1420.85,1873.87,1418.4,1875.5 M1427.36,1876.24
		c-1.27,2.23,2.99,2.7,3.29,0.58C1430.5,1875.29,1428.17,1875.34,1427.36,1876.24 M1365.95,1879.63
		c1.5801,0.14,3.1901,0.24,4.8201,0.3199c-0.36-0.3899-1.0701-1.1699-1.4301-1.5499
		C1368.1801,1878.74,1367.05,1879.16,1365.95,1879.63 M921.48,1878.85c0.03,0.62,0.1,1.86,0.14,2.47
		c0.91-0.08,1.83-0.1399,2.75-0.1799C924.25,1879.3,923.14,1878.7,921.48,1878.85 M967.83,1881.01c6.87-0.38,14.3,3.6899,20.67-0.26
		C981.62,1881.4,974.47,1878.52,967.83,1881.01 M916.11,1883.25c1.42,0.28,2.86,0.46,4.33,0.54
		C919.37,1882.01,917.26,1880.15,916.11,1883.25 M989.72,1881.41c2.33,4.62,8.42,4.01,12.58,2.6c-1.84-0.34-3.11-1.6801-4.43-2.8101
		c-0.12,0.55-0.37,1.65-0.49,2.2001C995.13,1881.6801,992.59,1879.98,989.72,1881.41 M1078.37,1881.22
		c-1.0699,2.13,3.26,2.3401,3.55,0.47C1081.62,1880.12,1079.23,1880.28,1078.37,1881.22 M1451.51,1882.48
		c2.86,1.1,5.95,0.89,8.88,0.17C1457.49,1881.97,1454.27,1880.79,1451.51,1882.48 M1099.7,1883.01c3.29,0.47,6.41,1.92,9.8,1.77
		C1107.47,1881.51,1102.89,1882.25,1099.7,1883.01 M1021.15,1883.37c-1.28,1.61,1.63,2.72,2.48,1.27
		C1024.86,1883,1021.96,1881.86,1021.15,1883.37 M1076.45,1885.46c1.13,1.9501,3.62,1.9,5.4,3
		c-10.45,0.05-20.91-0.0599-31.36,0.3301c1.26,1.22,2.5601,2.51,3.91,3.71c1.45-0.98,2.7-2.65,4.62-2.63
		c3.28,0.3,6.29,1.75,9.36,2.86c-9.13,2.03-18.5699,2.39-27.8199,0.97c0.1-0.3199,0.2799-0.9399,0.37-1.26
		c-1.3401,0.3-2.6801,0.6101-4.01,0.8701c-0.2201-0.66-0.65-1.9701-0.87-2.63c-2.91,0.1399-5.91,0.5499-8.26,2.4299
		c1.99,0.08,3.99,0.04,6-0.13c-1.9,3.98-6.98,2.6-10.51,3.37c-0.02,0.2101-0.07,0.64-0.1,0.85c1.73-0.1499,3.46-0.2899,5.23-0.36
		c-0.0701,1.28-0.14,2.5901-0.2201,3.92c0.9301-0.87,1.8201-1.78,2.89-2.4401c1.67-0.99,3.3301,0.4801,4.79,1.1901
		c5.74-3.16,13.03-4.63,18.83-0.76c0.05,3.3199-3.24,4.58-5.08,6.8c4.47-0.4401,8.92-1.15,13.4-1.6001
		c-1.3101-0.7-3.41-0.9099-2.9401-2.86c3.37-4.6899,9.88-2.75,14.77-3.65c2.72,2.67,6.4301,3.89,10.1901,4.1201
		c11.1499,0.7899,22.0499-2.3301,33.13-3c-2.9401-0.2401-5.9801-0.25-8.54-1.88c-1.02,0.6-2.0601,1.1899-3.1,1.7599
		c0.6-1.7699,1.4299-3.4299,2.34-5.0399c5.1801,0.09,10.48,2.98,15.5,0.49c-11.46-5.28-23.55,2.79-35.3199,0.38
		c-1.05-0.16-1.78-1.02-2.53-1.61c1.9-0.92,6.61,0.9099,5.8199-2.4301c-3.6-0.5599-7.4-0.72-10.48-2.9
		c4.67-1.61,10.75,0.63,14.3201-3.61C1089.51,1883.4399,1083.2,1887.16,1076.45,1885.46 M1114.98,1883.33
		c8.3101,1.63,16.79,3.17,25.3,2.8C1132.74,1881.78,1123.33,1882.08,1114.98,1883.33 M1461.45,1885.0601
		c2.25,3.25,5.7101-0.1901,7.64-1.9901C1466.47,1883.36,1463.55,1883.1899,1461.45,1885.0601 M900.79,1886.39
		c1.6,0.63,3.02-2.02,1.18-2.6C900.46,1883.22,898.79,1885.89,900.79,1886.39 M1031.42,1886.99c2.39,0.33,5,1.01,7.2899-0.21
		C1036.29,1886.3101,1033.6801,1885.7,1031.42,1886.99 M1094.05,1888.17c3.74,2.45,8.5299,2.26,12.7,1.1
		C1103.35,1886.17,1098.15,1887.6801,1094.05,1888.17 M1116.38,1888.4399c2.92,1.1201,6.34,1.9301,9.15,0.05
		C1122.59,1887.4399,1119.16,1886.53,1116.38,1888.4399 M1423.97,1888.85c-1.62,0.48-0.6899,3.09,0.89,2.39
		C1426.47,1890.72,1425.49,1888.15,1423.97,1888.85 M989.11,1891.1899c0.01,0.5801,0.05,1.76,0.07,2.3401
		c0.57,0,1.71-0.01,2.28-0.01c0.0099-0.5601,0.0099-1.6801,0.02-2.24C990.89,1891.26,989.7,1891.21,989.11,1891.1899 M996,1892.38
		c3.58,1.3,8.8,2.8,11.67-0.52C1003.74,1892.42,999.56,1889.9399,996,1892.38 M922.72,1892.47c0.05,0.9601,0.14,2.88,0.19,3.8401
		c1.71-1.28,3.4301-2.53,5.2-3.7101C926.3,1892.54,924.51,1892.49,922.72,1892.47 M1011.07,1891.63c0.61,2.24,1.3,4.9,4.31,4.4
		C1014.4,1894.14,1012.84,1892.72,1011.07,1891.63 M1125.53,1898.66c1.49,1.6599,3.46,1.1,4.98-0.2001
		C1128.83,1898.39,1127.17,1898.45,1125.53,1898.66z"/>
	<path stroke="#000000" stroke-width="0.0938" d="M1032.27,1910.47c4.7999-1.45,9.87-0.74,14.75-0.1599
		c-1.36,0.5699-2.6801,1.2-4,1.8199c0.99,0.7,2.03,1.49,3.04,2.28c-5.7101,0.1899-11.41,0.1799-17.1101,0.01
		C1029.33,1912.6,1030.3199,1910.89,1032.27,1910.47z"/>
</g>
</svg>
