<?xml version="1.0" encoding="utf-8"?>
<!-- Generator: Adobe Illustrator 15.0.0, SVG Export Plug-In . SVG Version: 6.00 Build 0)  -->
<!DOCTYPE svg PUBLIC "-//W3C//DTD SVG 1.1//EN" "http://www.w3.org/Graphics/SVG/1.1/DTD/svg11.dtd">
<svg version="1.1" id="Layer_1" xmlns="http://www.w3.org/2000/svg" xmlns:xlink="http://www.w3.org/1999/xlink" x="0px" y="0px"
	 width="444.841px" height="497.338px" viewBox="0 0 444.841 497.338" enable-background="new 0 0 444.841 497.338"
	 xml:space="preserve">
<g id="Layer_X">
	<g id="change1">
		<path fill="#FF8650" d="M85.644,17.022c1.33,0.133,2.926-0.665,3.458-0.532c0.532,0.133,2.527,0.266,3.857,0.399
			c1.33,0.133,2.127-0.665,2.127-0.665s1.197,0.931,2.261,1.463c1.064,0.532,5.319,0,6.915-0.931s2.926-3.192,3.59-3.857
			c0.666-0.665,3.059-0.665,3.059-0.665l1.729-0.798c1.064,0.532,1.463,0,2.394-0.931c0.931-0.931,2.128-1.33,2.926-1.596
			s0.532-0.665,3.059-1.995c2.526-1.33,10.639-1.33,10.639-1.33l2.128-1.463c0,0,1.596,0.266,2.66,0.266s2.793-0.798,2.793-0.798
			l6.783,0.133l1.596,1.064l1.729,0.266c0,0,1.197-0.931,2.792-1.462c1.596-0.532,2.527-1.995,2.527-1.995s4.123,1.596,4.92,1.463
			c0.798-0.133,1.462-1.33,1.462-1.33l1.729,0.665l1.995,0.931l1.995-0.665c0,0,0.931,0.133,1.862,0.399
			c0.931,0.266,2.128-0.399,2.128-0.399c1.729-1.729,5.186-2.66,6.25-2.66s2.527,0.798,2.527,0.798
			c-0.133,0.798,1.196,2.128,1.196,2.128l-0.398,0.798l1.063,0.532l0.531-0.266c0,0,0.665-0.532,1.197-0.665
			s0.797-0.532,0.797-1.197s0.929,0.133,0.929,0.133l0.795,1.197l-0.672,1.729c0,0-0.811,0.931-2.273,1.995
			s-0.956,3.724-0.424,4.655c0.532,0.931,1.281,0.133,1.281,0.133l0.299,0.665l0.865,1.596c0,0,0-0.133,0,0.665
			s0.731,2.394,0.731,2.394s-1.53,2.527-2.328,3.724c-0.798,1.197-3.99,3.059-3.99,3.059l-0.266,1.596l-1.462-0.133l0.398,2.394
			c0,0,1.064,1.064,1.995,1.197c0.931,0.133,1.463-0.133,1.463-0.133l0.931,1.197l1.463-0.399l1.064,2.527l2.128,0.399
			c0,0,5.851,2.926,7.314,3.059c1.462,0.133,2.261-0.798,3.856-0.931c1.596-0.133,1.862,0.665,2.66,0.931
			c0.798,0.266,1.862-0.266,2.792,0.399c0.931,0.665,5.054,2.128,7.314,3.192c2.261,1.064,1.463,3.99,1.463,3.99
			s3.191,3.324,4.521,3.989s6.516,1.064,7.713,1.33c1.196,0.266,4.389,1.995,4.389,1.995l1.861,0.532c0,0,1.33,1.463,2.128,2.127
			c0.798,0.665,2.262,1.596,4.123,1.463s4.389-3.059,5.187-4.123s0.798-1.995,0.266-3.059c-0.531-1.064-0.532-1.862-0.798-2.792
			c-0.266-0.931,0.266-4.123,1.463-5.054c1.197-0.931,4.521-3.724,5.985-4.123c1.462-0.399,2.792-0.665,2.792-0.665
			s3.457-0.266,5.718,0.665c2.261,0.931,3.06,0.532,3.06,0.532l1.064,1.197v1.596c0,0,0.797,1.063,1.596,1.33
			c0.797,0.266,3.457,0.533,4.521,1.065c1.064,0.532,2.527,0.532,4.123,0.931c1.596,0.399,2.793,0.534,2.793,0.534
			c0.931,1.995,1.596,2.396,3.059,2.13c1.462-0.266,7.713,0.271,9.441,0.669s5.586,2.536,7.847,3.467
			c2.261,0.931,5.718,1.881,5.718,1.881l5.187-3.288c0,0,1.729-0.855,3.192-1.254s5.054-0.381,5.054-0.381s1.994,0,3.457,0
			s2.395-0.617,2.395-0.617s0-0.218,0.531,0.713c0.532,0.931,1.995,1.729,1.995,1.729l1.33,0.931c0,0,4.521,0.399,5.718,0.266
			c1.197-0.133,4.389-1.862,4.389-1.862l4.921,14.895c0,0-2.128,5.319-2.527,6.649c-0.398,1.33,0,2.394-1.196,3.856
			c-1.197,1.463-3.99-2.527-4.389-2.792c-0.399-0.266-2.527-2.261-2.527-4.123c0-1.862-2.659-4.654-2.659-4.654
			s-1.197-4.655-1.729-4.389c-0.532,0.266-0.267,0.931-0.267,0.931l-0.398,2.261c0,0,0.798,1.33,1.196,2.394
			c0.399,1.064,0.532,3.458,1.729,5.453c1.196,1.995,3.989,4.389,3.989,4.389s0,1.596,0.398,2.926
			c0.399,1.33,1.464,1.862,2.128,4.787c0.665,2.926,3.591,7.846,3.591,7.846s3.325,6.649,3.591,7.314s2.926,5.719,2.926,5.719
			s0,2.394,0.398,4.389c0.399,1.995,2.395,3.324,2.395,3.324s2.526,1.596,4.521,3.458c1.994,1.862,1.729,4.255,1.994,5.319
			c0.267,1.064,2.262,2.926,2.262,2.926s-0.134,8.512,0,12.369c0.133,3.856,2.394,3.99,4.255,4.654
			c1.862,0.665,1.995,2.396,1.995,2.396l1.329,0.268l0.666,0.937l1.994,3.202l0.532,2.681c0,0,0.665,3.764,1.197,6.558
			c0.531,2.792,1.994,3.273,1.994,3.273l0.134,1.626h1.196l0.798,2.629l0.798-0.43l-0.399-1.197l0.532-0.665l1.33,0.665
			c0,0-0.266,0.665,0.399,2.128c0.664,1.463,1.729,0.266,2.128,0.399c0.398,0.133,1.462,1.463,1.994,1.862s2.926,0.931,2.926,0.931
			l3.458,4.521l1.463,0.133l0.398,1.463l1.197,0.532c0,0,0.665,1.197,1.196,2.261c0.532,1.063,1.862,1.063,1.862,1.063
			c0.532,1.596,2.128,1.33,2.128,1.33l1.861,3.325l0.267,2.128c0,0-1.197,0.399-1.862,0.798c-0.665,0.398-0.798,0.931-1.463,1.064
			c-0.665,0.133-1.463,1.462-1.463,1.462l3.591-0.266c0,0,3.059,3.325,4.389,4.788c1.33,1.462,3.856,3.059,3.856,3.059l3.591-0.133
			c0,0,1.463-1.064,2.659-1.596c1.197-0.532,2.128-1.596,2.128-1.596s1.197,0.399,1.995,0.665c0.798,0.266,1.861,0.665,3.591,0.532
			c1.729-0.133,1.463-1.33,2.128-1.463c0.665-0.133,1.463-0.931,1.463-0.931s2.394-0.665,3.457-0.266
			c1.064,0.399,0.799-0.133,2.395-0.133s2.128-0.798,2.659-1.196c0.532-0.399,2.394,0.665,2.394,0.665s1.862-0.798,2.793-1.197
			s3.059-0.532,4.389-0.931c1.33-0.398,3.059-1.462,3.059-1.462s0.399-0.931,1.463-1.197c1.064-0.266,2.394,0.931,2.394,0.931
			l1.197,0.266l-0.398,1.33c-0.399,0.665-0.665,2.128-0.665,2.128l0.798,1.729l-0.267,2.394l-1.33,2.261l-1.462,7.713l-2.395,2.926
			c0,0-1.196,2.128-2.526,3.59c-1.33,1.463-1.197,3.724-1.995,5.187s-3.191,5.852-3.724,8.246c-0.532,2.394-1.196,2.26-2.926,3.723
			c-1.729,1.463-3.059,3.857-4.521,6.649s-3.59,3.99-4.787,5.054s-5.054,4.92-5.054,4.92l-3.191,3.99l-5.719,2.128
			c0,0-11.569,10.506-13.033,12.102c-1.462,1.596-2.394,0.798-2.394,0.798l-0.266,1.596l-6.915,8.777c0,0-1.064,0.398-2.395,0.931
			c-1.329,0.532-1.861,2.926-1.861,2.926l-2.66,2.261l-1.462,3.325c0,0-2.527,5.452-2.66,5.851c-0.134,0.399-2.66,2.66-2.66,2.66
			s-0.664,3.324-1.861,6.117s-1.064,5.453-1.064,5.453s1.463,0.531,2.394,1.994c0.932,1.463,2.128,3.059,2.128,3.059
			s-0.531,0.399-0.931,2.128c-0.398,1.729,0.532,3.99-0.398,4.521c-0.931,0.532,0.665,3.06,0.798,4.123
			c0.133,1.064,1.063,3.061,1.596,4.39c0.532,1.33,1.196,3.725,1.196,3.725l3.724,2.264l0.666,1.468c0,0,0,3.601-0.932,5.196
			c-0.931,1.596-0.931,7.601-0.931,7.601l0.266,10.81l1.729,2.208l-2.127,4.812h0.798l-0.133,1.372l-0.798,0.175l-2.527,3.724
			l-1.729,0.931l0.133,1.463c0,0-3.591,2.66-3.989,2.926c-0.399,0.267-0.399,0.665-0.798,1.197
			c-0.399,0.531-2.395,0.931-2.926,0.931c-0.532,0-3.458,1.33-6.649,2.659c-3.191,1.33-4.521,4.123-4.521,4.123l-1.729,0.399
			l0.532,1.329l-2.526,2.926l-1.33-1.463l-0.532,1.995c0,0-0.665,0.532-1.063,0.665c-0.399,0.133-2.926,3.591-3.724,3.989
			c-0.799,0.399-1.862,1.597-1.862,1.597l-1.729,0.798l0.133,4.255l2.128,2.66c0,0,0,0,0.266,1.329
			c0.266,1.33,1.729,4.655,1.729,4.655l0.266,2.526l0.398-0.931l0.532,0.665c0,0,0,6.517-0.931,8.645
			c-0.931,2.127-0.665,4.92-0.665,4.92s0.532-1.33,1.063-1.861c0.532-0.532-0.931,3.324-1.861,5.053
			c-0.931,1.729-4.389,2.395-5.452,2.66c-1.064,0.266-3.059,0.266-4.522,1.729c-1.462,1.463-3.723,1.862-4.521,2.527
			c-0.799,0.665-2.128,3.324-2.128,3.324l1.462,1.463l0.799-0.665c0,0-0.267,3.325-0.133,4.654c0.133,1.33-1.064,3.458-1.064,3.458
			s-0.532,3.99-0.665,4.787c-0.133,0.799-1.196,2.926-1.196,4.123s-1.597,1.729-2.395,2.394s-2.792,1.729-2.792,1.729l-4.655,7.313
			l-5.187,8.112l-4.122,4.123l-4.123,5.718c0,0-5.852,5.453-9.309,8.113c-3.458,2.659-6.384,2.261-8.112,2.127
			c-1.729-0.133-2.926,0.798-2.926,0.798l0.266,1.995c0,0-2.526-0.398-3.724-0.665c-1.196-0.266-0.798,0.532-1.995,1.463
			c-1.196,0.931-7.846-1.329-8.644-1.329s0.399,1.196-2.793,0.798c-3.191-0.399-5.319-0.267-5.319-0.267l-2.394,1.463l-0.931,1.064
			l-4.921-0.133l-1.596,0.398l-2.261,0.931c0,0,0,0-1.197,1.063c-1.196,1.064-3.856-0.531-3.856-0.531l-1.596-0.266l-0.665-1.331
			l-2.926-0.531c0,0,0.532-1.729-0.798-1.995c-1.33-0.266-1.063,2.262-1.063,2.262s-1.33-2.793-0.798-3.325
			c0.531-0.532,0.266-1.862,0.266-1.862l-1.197-1.861l-1.596-1.861c0.931-0.399-1.063-2.395-1.063-2.395l0.532-1.729l1.596,0.531
			l1.063-1.462l-0.798-5.719c0,0-2.926-4.123-3.458-5.452c-0.531-1.33-1.063-2.66-1.463-3.192c-0.398-0.531-1.596-3.856-1.596-4.255
			c0-0.399-2.793-7.314-2.793-7.314l-1.462-2.262c-0.266-1.329-1.064-1.329-1.064-1.329l-4.123-3.856
			c-0.665-1.463-3.325-5.187-3.325-5.187s-0.666-3.856-0.932-5.187s-0.932-2.128-0.932-3.192c0-1.063-0.667-2.926-0.667-2.926
			s0.13-4.787-1.466-8.91c-1.596-4.122-1.202-8.909-1.069-12.234c0.133-3.324-1.475-4.521-2.539-5.984
			c-1.063-1.463-5.211-9.575-5.211-9.575s-5.368-9.708-6.033-10.904c-0.665-1.197-1.825-1.995-1.825-1.995l-2.455-3.324v-1.995
			l-0.338-8.245l0.859-0.267l-0.266-4.654l0.931-1.197l1.596-4.654c0,0,1.196-4.122,2.127-7.846s1.729-4.123,2.527-4.788
			c0.798-0.664,0.532-2.394,0.532-2.394s1.463-0.532,2.66-1.196c1.196-0.666,2.792-4.256,2.926-6.118
			c0.133-1.861-0.266-4.122,0.398-4.654c0.666-0.532,0.133-2.394-0.665-3.059s-1.463-1.862-2.261-3.458s-1.462-5.054-1.462-5.852
			s1.462-1.861,1.462-1.861l-0.398-3.724c0,0-0.798-1.063-1.463-2.261c-0.665-1.197-0.665-4.521-0.665-4.521s0,0-1.862-2.128
			s-1.862-3.989-1.862-3.989l-0.399-2.527c-0.399-0.398-0.931-1.329-1.064-2.128c-0.133-0.798-0.399-2.526-0.798-3.324
			c-0.399-0.798-1.729-2.793-2.792-3.856c-1.064-1.064-0.931-1.064-1.33-1.729c-0.399-0.665-1.33-0.931-1.33-0.931
			s-1.995-2.128-2.66-3.191c-0.665-1.064-5.054-4.655-6.118-6.117c-1.064-1.464-3.724-3.458-3.724-3.458l-3.191-7.847
			c0,0,1.729-1.063,2.792-1.994c1.064-0.932,0.665-1.729,0.665-3.325s0.399-1.196,1.729-0.398s1.995-0.399,1.995-0.399
			s-0.665-0.266-1.729-0.798c-1.064-0.531-1.729-1.994-1.729-1.994l1.33-0.664c-0.266-0.932,0.399-2.261,0.399-2.261l-1.463-1.727
			c0,0,2.394-4.916,2.261-6.246c-0.133-1.33,1.33-5.578,1.33-5.578l-1.596-2.511l-1.596-2.762l-2.926-0.736l-1.197-2.402h-1.637
			v-1.578l-1.575-1.197l-0.777,2.926c0,0-3.99-0.267-4.389-0.267s-2.127-0.797-2.527-0.664c-0.399,0.133-0.532,0.931-0.532,0.931
			l-2.527,0.932l-2.526,0.667l-0.532-1.194l-1.463,0.272l-1.197-0.918c0,0-1.995-1.837-2.261-3.167
			c-0.266-1.33,0.133-2.743,0.133-2.743h-1.064c0,0-0.798-1.579-1.462-2.909c-0.666-1.33-2.793-2.377-4.389-3.042
			c-1.596-0.665-7.713-0.133-11.171,0.266c-3.458,0.398-8.644,1.729-8.644,1.729l-1.596,1.995c0,0-0.798,0-1.33-0.266
			c-0.532-0.266-2.128,0.532-3.192,0.532c-1.063,0-5.053,2.26-5.851,2.792c-0.798,0.532-4.521,0.798-5.187,1.463
			s-3.458,2.127-3.458,2.127s-6.383-1.995-7.314-2.127c-0.931-0.133-3.458-0.931-5.585-1.33s-11.171,1.596-13.698,2.128
			c-2.526,0.532-7.846,3.59-7.846,3.59l-2.527-0.665c0,0-1.596,0-1.995-0.532c-0.399-0.532-0.931-0.266-1.995-0.532
			c-1.064-0.266-3.325-1.33-3.857-1.862c-0.532-0.532-2.66-1.596-2.66-1.596s-1.862-1.729-3.458-3.191s-3.856-3.325-3.856-3.325
			s-2.128-0.798-2.66-1.064c-0.532-0.266-1.33-1.862-1.33-1.862l-0.931-0.931c0,0,0,0-0.399-0.399s-1.729-1.33-1.729-1.33
			l-5.719-2.793c-0.266-1.33-3.191-2.792-3.191-2.792c-0.266-1.064-0.798-1.729-1.463-1.995c-0.665-0.266-0.665-1.463-0.665-1.463
			l0.931-0.532l-0.798-0.398c0,0,0,0-0.133-1.064s-0.665-1.463-0.665-1.463l0.399-1.197c0,0-0.798-1.064-1.729-1.995
			c-0.931-0.931-1.197-0.532-1.197-0.532s0-0.665-0.798-1.862c-0.798-1.197-3.059-1.995-3.856-2.66
			c-0.798-0.666-0.266-3.192-1.197-3.325c-0.931-0.133-0.399-1.063-0.931-1.463c-0.532-0.398-0.532,1.064-1.33,1.197
			c-0.798,0.133-1.065-2.261-1.065-2.261s0,0-1.198-0.398c-1.197-0.399-0.267-1.729-0.267-1.729l-0.535-1.862
			c0,0,1.059-0.266,1.59-0.266c0.532,0,2.382-0.532,2.382-0.532l-0.289-0.797c0,0-2.707,0.266-4.435,0.931
			c-1.729,0.665-2.487,0.399-2.487,0.399v-0.665c0,0-0.971-0.266-1.902-0.532s-0.572-1.197-0.572-1.197s0,0-2.128-1.064
			c-2.127-1.064-0.665-2.926-0.665-4.255c0-1.33-0.532-2.66-0.532-2.66s0.798-0.931,1.463-1.596
			c0.665-0.665-0.798-2.128-0.798-2.128l-0.266-1.596c0,0-0.931-1.197-1.729-1.995c-0.797-0.798-1.596-1.995-1.596-1.995
			l-1.197,0.398L0,162.909c1.862-0.266,4.389-2.793,4.92-3.591c0.532-0.798,1.463-2.262,1.463-2.262s0.665-0.4,0.532-1.729
			c-0.133-1.33,0.532-3.86,1.33-6.121s1.729-6.256,1.995-10.246c0.266-3.99-0.931-4.932-1.995-6.128
			c-1.064-1.197-0.798-1.353-0.798-1.353s0.532-0.046,0.798-0.444c0.266-0.399,0.798-4.346,0.798-5.543s-0.931-2.441-0.931-2.441
			h-1.33l-1.33-2.678l-1.33-0.019l0.399-4.92c0,0,1.064-2.66,1.33-3.192c0.266-0.532,1.729-0.798,1.729-0.798l2.261-4.521
			l-0.532-1.33c0,0,0.931-0.931,1.995-2.261c1.064-1.33,1.153-3.014,1.685-3.546c0.532-0.532,2.305-2.482,3.192-3.901
			s2.305-3.369,2.305-3.369s-0.178-1.418,0.354-2.66c0.532-1.241,1.241-3.724,1.773-4.788c0.532-1.064,2.305-2.482,3.369-2.837
			c1.064-0.355,2.66-2.128,2.66-2.128s0.532-1.241,1.241-3.014c0.709-1.773,2.172-4.211,2.172-4.211l0.665-0.931
			c1.729-0.133,8.246-1.862,9.708-3.458s3.855-3.059,4.787-3.591c0.931-0.532,1.462-1.33,1.729-1.729
			c0.266-0.399,1.063-0.399,1.861-1.729s2.524-4.655,2.524-4.655l0.128-2.792l-1.073-2.527c0,0-0.019-3.325,0.114-4.521
			s1.026-1.862,1.825-2.926c0.798-1.064,0.589-1.862,0.589-1.862l1.045-0.399l0.763-2.792v-1.862c0,0,4.023-4.247,4.556-4.779
			c0.531-0.532,4.422-1.987,7.214-3.316s3.985-3.308,4.518-4.372c0.532-1.064,1.321-1.562,2.119-2.493
			c0.798-0.931,1.18-3.791,1.58-5.12c0.399-1.33,1.429-3.857,1.828-4.389c0.399-0.532,2.727-0.399,2.727-0.399
			C80.324,14.362,84.314,16.889,85.644,17.022z M398.839,376.424c1.196,1.994,0.798,5.984,2.394,9.176s-1.596,4.388-2.793,6.383
			c-1.196,1.995-2.792,5.585-4.389,8.776c-1.595,3.191-1.196,7.979,0,9.176c1.197,1.197,1.197,4.389,1.995,7.182
			c0.799,2.792,1.197,5.983,2.793,8.776c1.596,2.792,3.191,1.994,5.984,3.191c2.792,1.197,2.792-1.197,5.984-1.596
			c3.191-0.399,3.191-0.798,5.186-1.596c1.995-0.798,3.191-3.989,3.591-6.782c0.398-2.793,3.59-11.569,4.787-15.559
			c1.196-3.989,5.585-16.356,5.983-18.75c0.399-2.395,2.793-10.373,1.995-12.367c-0.798-1.995,1.995-3.591,2.793-5.187
			s-0.399-4.787-0.399-7.58c0-2.792,2.793,2.793,2.793,2.793s1.196-5.585,0.398-8.378s-0.398-4.787-1.994-8.378
			c-1.596-3.59-4.389-7.58-4.389-7.58l-2.394,0.798c0,0-0.398,2.395,0,3.99c0.398,1.595-2.394,2.394-3.191,3.59
			c-0.798,1.197-3.191,0.399-3.191,0.399l-0.399,3.989l-0.398,2.792l-3.191,2.793l-1.197,3.191c0,0-1.994-0.798-3.59-0.399
			c-1.597,0.399,0.398,4.389,0.398,4.389l-3.191-1.994l-2.394-0.798l-1.995,2.792l-1.994-0.398l-4.389,1.196l-0.399,3.99
			l-3.59,4.388C396.446,372.833,397.642,374.429,398.839,376.424z"/>
	</g>
</g>
</svg>
