<?xml version="1.0" encoding="iso-8859-1"?>
<!-- Generator: Adobe Illustrator 16.0.0, SVG Export Plug-In . SVG Version: 6.00 Build 0)  -->
<!DOCTYPE svg PUBLIC "-//W3C//DTD SVG 1.1//EN" "http://www.w3.org/Graphics/SVG/1.1/DTD/svg11.dtd">
<svg version="1.1" id="Layer_1" xmlns="http://www.w3.org/2000/svg" xmlns:xlink="http://www.w3.org/1999/xlink" x="0px" y="0px"
	 width="495.979px" height="456.282px" viewBox="0 0 495.979 456.282" style="enable-background:new 0 0 495.979 456.282;"
	 xml:space="preserve">
<g id="change1">
	<path style="fill:#9FB140;" d="M370.617,3.047c1.152,0,2.302,0,3.454,0c3.182,9.292,5.714,18.822,9.975,27.733
		c1.698,3.544,1.971,7.427,1.869,11.236c-0.086,3.139,0.604,6.068,1.238,9.055c0.627,2.952,1.597,4.654,5.035,2.493
		c3.12-1.967,6.057-2.014,7.685,2.317c0.494,1.321,1.815,2.54,3.057,3.338c4.202,2.699,4.623,6.328,4.771,11.138
		c0.18,5.881-0.424,12.478,3.373,17.599c1.877,2.528,2.945,5.028,4.02,7.898c2.406,6.426-1.059,13.222,2.477,19.89
		c1.656,3.123,2.567,5.846,5.896,7.313c2.898,1.282,6.551,1.889,8.276,4.498c2.995,4.526,7.415,6.963,11.68,9.752
		c2.979,1.951,5.744,4.016,4.681,8.237c-0.245,0.989-0.304,1.97,0.421,2.707c4.468,4.525,5.65,10.126,5.854,16.24
		c0.055,1.608,0.993,5.382,2.185,4.561c4.027-2.773,5.223,1.861,7.743,2.08c6.122,0.522,5.697,4.502,5.094,8.673
		c-1.013,7.002,1.036,11.707,7.259,15.286c2.165,1.243,3.794,2.921,4.37,5.063c1.383,5.122,5.031,9.024,7.719,13.199
		c2.06,3.193,0.37,7.466,3.922,9.615c0,14.204,0,28.403,0,42.603c-6.056,6.325-8.093,14.839-10.761,22.572
		c-4.136,11.972-8.381,23.134-20.314,29.446c-0.946,0.503-1.717,1.569-2.273,2.548c-4.309,7.559-11.154,13.65-13.141,22.561
		c-0.265,1.211-1.152,1.894-2.045,2.652c-7.31,6.212-9.623,15.049-11.594,23.749c-1.46,6.465-4.794,10.484-11.255,8.879
		c-12.012-2.99-21.069,3.393-28.402,10.243c-4.931,4.606-6.15,1.807-8.993-0.3c-1.223-0.903-2.174-2.15-3.334-3.139
		c-5.631-4.787-11.153-5.18-17.167-0.908c-2.53,1.796-5.168,2.521-7.283,0.358c-6.717-6.885-16.851-5.308-24.52-10.589
		c-6.679-4.607-11.933-11.244-11.021-19.633c0.639-5.88-2.422-10.405-6.706-13.923c-3.528-2.894-6.566-0.12-9.893,1.41
		c-4.451,2.056-9.272,3.408-14.375,2.574c-1.911-0.312-3.337-1.165-3.418-3.209c-0.074-1.838,1.265-2.723,2.894-3.033
		c3.146-0.612,6.23-2.544,9.525-1.149c4.553,1.92,6.434-1.22,7.952-4.276c1.823-3.66,0.554-7.196-2.753-9.483
		c-3.049,9.137-3.049,9.16-10.048,10.185c-1.387,0.202-3.218,1.272-3.906-0.899c-0.498-1.578,0.404-3.763,1.558-3.996
		c5.585-1.125,4.973-5.332,5.181-9.258c0.124-2.379,1.137-4.482,2.562-6.309c2.134-2.729,2.54-5.647,1.207-9.241
		c-2.352,6.526-7.745,9.537-12.999,13.008c-2.827,1.865-5.352,5.249-5.62,9c-0.409,5.697-3.759,4.108-6.041,2.31
		c-2.479-1.955-6.612-3.751-4.011-8.611c0.721-1.352,0.047-3.63-1.204-4.833c-3.333-3.205-3.862-8.821-9.382-10.277
		c-1.915-0.506-2.106-3.244-2.818-5.259c-1.169-3.298-2.264-7.037-7.171-7.469c-5.02-0.44-10.895-0.429-14.725-3.054
		c-6.292-4.315-12.334-4.813-19.436-4.081c-8.029,0.829-15.854,1.25-23.141,5.592c-5.221,3.112-11.238,6.096-17.306,5.683
		c-8.116-0.554-13.821,3.552-19.961,7.337c-1.302,0.803-2.482,1.986-3.895,2.399c-4.159,1.211-5.991,3.969-7.208,8.034
		c-1.291,4.315-4.074,7.63-9.279,8.187c-11.072,1.191-22.397-0.222-33.257,3.33c-2.074,0.677-4.134,1.157-5.242,3.131
		c-4.039,7.182-12.439,9.34-17.592,15.29c-0.867,1.004-3.253,0.838-4.956,0.946c-8.06,0.534-16.15,1.242-22.783-5.016
		c-0.865-0.814-2.502-1.13-3.782-1.126c-4.292,0.012-4.724-3.271-5.476-6.196c-0.727-2.824-0.602-4.923,3.168-5.966
		c3.024-0.834,2.976-4.155,2.343-6.897c-0.561-2.438-1.091-4.807-0.876-7.364c0.434-5.173-1.103-9.718-4.317-13.908
		c-4.92-6.414-9.298-13.19-10.227-21.536c-0.417-3.763-2.389-6.613-4.48-9.706c-2.789-4.119-7.468-7.364-8.697-11.878
		c-2.107-7.753-6.7-13.148-12.39-18.133c-1.688-1.479-2.288-11.43-0.857-13c1.398-1.534,2.452-0.148,3.412,0.631
		c2.199,1.787,4.3,3.688,7.703,6.636c-4.504-8.63-9.779-14.874-14.528-21.452c0-9.978,0-19.959,0-29.937
		c0.358-0.888,0.68-1.795,1.084-2.66c0.921-1.971,0.668-5.383,3.537-5.234c2.851,0.144,0.636,3.731,2.147,5.195
		c0.236,0.23,0.641,0.284,1.314,0.561c1.094-3.217,1.704-7.049,4.899-8.701c5.984-3.1,9.818-8.393,14.546-12.805
		c3.067-2.863,6.149-7.408,10.595-6.835c9.96,1.281,15.798-6.391,23.542-9.748c2.298-1.001,4.253-2.422,6.979-3.01
		c9.573-2.064,19.292-4.386,24.384-14.165c2.267-4.354,3.034-9.561,7.766-12.404c0.987-0.592,1.493-1.792,0.97-3.041
		c-3.563-8.499,0.658-14.578,5.97-20.61c2.693-3.061,4.198-4.471,6.06,0.479c0.988,2.621,2.214,5.289,4.794,7.228
		c-0.987-2.146,2.514-4.011-0.016-6.274c-2.562-2.293-1.608-5.027-0.265-7.353c1.352-2.345,3.896-1.398,5.766-0.818
		c4.734,1.464,5.439-0.643,4.602-4.572c-0.454-2.134-0.413-4.14,1.235-5.908c3.746-4.027,7.948-7.8,9.959-13.059
		c1.8-4.704,10.319-1.877,9.758-9.004c-0.002-0.047,1.712-0.226,2.623-0.342c1.309-0.172,2.703-0.113,3.913-0.561
		c7.834-2.89,11.794-2.672,16.641,3.824c5.513,7.388,13.043,6.559,20.443,7.065c2.689,0.183,3.855-1.102,1.651-3.369
		c-2.781-2.854-1.287-5.211,0.545-7.586c2.703-3.498,5.902-7.377,6.999-11.08c1.721-5.834,4.944-9.448,9.5-12.544
		c2.42-1.647,4.573-4.744,8.033-2.956c3.038,1.569,6.06,1.055,8.975,0.476c2.557-0.506,6.334-0.156,6.455-4.289
		c0.121-4.027-3.022-3.407-5.696-3.793c-2.025-0.292-4.479-1.624-4.21-3.922c0.3-2.562,3.197-2.905,5.114-2.391
		c4.089,1.09,8.655,1.967,11.869,4.436c6.036,4.646,13.401,4.51,20.053,6.566c2.641,0.813,5.717,4.046,8.35,2.219
		c5.374-3.727,11.24,1.099,16.832-1.857c2.072-1.09,5.565,2.636,6.812,5.647c0.736,1.784-7.45,13.167-9.479,13.581
		c-1.433,0.288-3.104,0.611-2.761,2.208c1.258,5.916-2.419,9.693-5.391,13.896c-0.996,1.41-2.936,3.256-0.771,5.032
		c5.017,4.12,9.65,9.74,15.462,11.628c10.593,3.443,17.116,13.592,28.234,15.625c0.935,0.171,2.011,1.336,2.431,2.294
		c2.08,4.728,6.473,6.465,10.702,8.073c4.12,1.565,8.171,0.616,10.5-3.474c7.2-12.649,10.705-26.284,10.522-40.881
		c-0.136-11.259,0.693-22.366,6.138-32.609c0.896-1.674,1.8-3.567,1.886-5.397C365.5,7.946,367.498,5.228,370.617,3.047z"/>
	<path style="fill-rule:evenodd;clip-rule:evenodd;fill:#9FB140;" d="M366.73,418.227c3.338,6.614,2.359,15.956,5.472,24.298
		c1.702,4.553,3.782,9.336,10.075,10.551c6.48,1.25,9.689-5.238,15.356-5.246c0.082,0,0.167-0.323,0.238-0.498
		c3.146-8.155,7.488-15.862,7.8-24.995c0.226-6.57-1.056-8.314-7.325-6.866c-8.171,1.881-16.179,3.583-23.079-3.256
		c-0.366-0.357-1.048-0.409-1.585-0.588C368.268,409.823,366.832,410.819,366.73,418.227z"/>
	<path style="fill-rule:evenodd;clip-rule:evenodd;fill:#9FB140;" d="M366.73,418.227c0.102-7.407,1.538-8.403,6.952-6.601
		c0.537,0.179,1.219,0.23,1.585,0.588c6.9,6.839,14.908,5.137,23.079,3.256c6.27-1.448,7.551,0.296,7.325,6.866
		c-0.312,9.133-4.654,16.84-7.8,24.995c-0.071,0.175-0.156,0.498-0.238,0.498c-5.667,0.008-8.876,6.496-15.356,5.246
		c-6.293-1.215-8.373-5.998-10.075-10.551C369.089,434.183,370.068,424.841,366.73,418.227z"/>
</g>
</svg>
