<?xml version="1.0" encoding="UTF-8"?><svg xmlns="http://www.w3.org/2000/svg" xmlns:xlink="http://www.w3.org/1999/xlink" height="198.4" preserveAspectRatio="xMidYMid meet" version="1.1" viewBox="113.4 113.4 198.4 198.4" width="198.4" zoomAndPan="magnify">
 <g id="surface1">
  <g id="change1_1"><path d="m311.81 212.59c0 0.24 0 0.5-0.01 0.73-0.03 4.89-0.42 9.7-1.15 14.39-3.45 22.7-14.6 42.85-30.69 57.72h-0.01c-17.7 16.37-41.37 26.38-67.36 26.38-12.71 0-24.88-2.38-36.03-6.76-1.38-0.53-2.76-1.1-4.11-1.7-18.88-8.36-34.63-22.43-45.12-40.03-5.27-8.85-9.22-18.59-11.54-28.94-1.58-7.02-2.4-14.31-2.4-21.79 0-2.62 0.09-5.22 0.32-7.78 1.67-21.76 10.38-41.54 23.84-57.09 5.18-5.99 11.07-11.35 17.54-15.95l0.02-0.02c1.75-1.23 3.54-2.45 5.39-3.57 11.27-6.98 24.03-11.77 37.7-13.76 4.7-0.69 9.51-1.03 14.39-1.03 11.65 0 22.86 2.02 33.23 5.71 16.78 5.95 31.45 16.3 42.69 29.63 14.55 17.26 23.3 39.54 23.3 63.86" fill="#02a7e8"/></g>
  <g id="change2_1"><path d="m225.85 290.24s-5.4-7.54-4.8-20.45c0.59-12.92-0.6-15.08-9-17.77s-16.8-7.54-18-13.99c-1.2-6.46 6-21.53 6-21.53s9.6-6.46 18-5.39c8.4 1.08 22.8 1.08 29.4 7s10.79 19.38 13.79 19.92-4.2 23.68-5.4 27.45-4.79 18.84-7.79 24.76-6 11.3-8.41 11.3c-2.39 0-13.19 1.08-13.79-11.3" fill="#6fc473"/></g>
  <g id="change2_2"><path d="m179.23 289.01c-0.52 2.54-1.46 9.31-2.67 16.04-1.38-0.53-2.76-1.1-4.11-1.7-18.88-8.36-34.63-22.43-45.12-40.03-5.27-8.85-9.22-18.59-11.54-28.94 3.66-1.94 8.25-3.69 12.75-3.61 9.87 0.19 11.11 2.62 19.51 8.64 8.39 6.04 14.96 21.09 18.51 21.35 3.55 0.24 13.58 23.72 12.67 28.25" fill="#6fc473"/></g>
  <g id="change2_3"><path d="m311.81 212.59c0 0.24 0 0.5-0.01 0.73-0.03 4.89-0.42 9.7-1.15 14.39-4.45-6.54-9.26-16.36-11.71-18.08-3.78-2.66-17.6-4.25-12.58 2.66 5.03 6.92 7.16 6.92 7.16 6.92s-9.67 19.49-16.58 17.59c-6.92-1.87-20.75-27.17-20.75-27.17-8.17-6.43 7.54-11.17 7.54-11.17s5.03-4.39-2.52-9.42c-7.54-5.03-13.19 5.65-18.22 4.39s-6.29 3.77-7.86 8.8c-1.58 5.03-6.16 8.04-7.23 0-1.08-8.04-12.57-3.13-16.34-3.13s-11.32 13.19-18.24 13.19c-6.91 0-6.91-9.42-5.65-13.83 1.26-4.39 11.94-8.8 21.99-9.42 10.06-0.64 0.64-9.44 3.78-11.15 3.15-1.71 12.57 1.09 21.69 4.86 9.1 3.77 18.54-5.03 26.72-4.86 8.17 0.18-17.6-6.46-9.44-12.75 8.19-6.28-9.42-11.94-8.8-18.85 0.64-6.93-5.03-15.09-5.03-22.64 0-2.4 2.68-3.96 7.24-4.55 16.78 5.95 31.45 16.3 42.69 29.63 14.55 17.26 23.3 39.54 23.3 63.86" fill="#6fc473"/></g>
  <g id="change2_4"><path d="m171.36 179.05s3.65 4.31 6.46 0c2.81-4.3 3.21-7.74 1.45-8.05-1.77-0.31-12.23 6.26-7.91 8.05" fill="#6fc473"/></g>
  <g id="change2_5"><path d="m150.13 179.05s7.49-1.91 9.16-5.66 11.24-2.08 13.74-5.83c2.5-3.74 8.96-5.08 10.52-8.58 1.55-3.49 3.24-8.9-3.22-9.32-6.47-0.41-12.84-3.32-12.78 0 0.07 3.34-1.6 2.5-7.43 4.58-5.82 2.08-12.07-0.92-12.07 4.74 0 5.67 1.67 12.01 1.67 12.01s-3.33 4.57 0.41 8.06" fill="#6fc473"/></g>
  <g id="change2_6"><path d="m198.2 114.42s-11.15 14.9-13.22 15.3c-2.09 0.39-8.47 4.77-9.65 9.15-1.19 4.38-9.55 7.16-15.91 4.38-6.37-2.79-7.83-5.86-4.33-11.48l0.02-0.02c1.75-1.23 3.54-2.45 5.39-3.57 11.27-6.98 24.03-11.77 37.7-13.76" fill="#6fc473"/></g>
  <g id="change2_7"><path d="m135.67 172.96c-1.05 3.18-0.79 6.9-4.23 8-3.46 1.12-2.14 5.26-4.52 10.56-2.15 4.78-11.37 11.91-13.21 13.29 1.67-21.76 10.38-41.54 23.84-57.09 1.4 4.25 0.86 11.26 2.1 13.56 1.86 3.45-2.92 8.5-3.98 11.68" fill="#6fc473"/></g>
 </g>
</svg>