<?xml version="1.0" encoding="iso-8859-1"?>
<!-- Generator: Adobe Illustrator 16.0.0, SVG Export Plug-In . SVG Version: 6.00 Build 0)  -->
<!DOCTYPE svg PUBLIC "-//W3C//DTD SVG 1.1//EN" "http://www.w3.org/Graphics/SVG/1.1/DTD/svg11.dtd">
<svg version="1.1" id="Layer_1" xmlns="http://www.w3.org/2000/svg" xmlns:xlink="http://www.w3.org/1999/xlink" x="0px" y="0px"
	 width="498.075px" height="317.043px" viewBox="0 0 498.075 317.043" style="enable-background:new 0 0 498.075 317.043;"
	 xml:space="preserve">
<g id="change2">
	<g>
		<path style="fill:#9FB140;" d="M441.088,155.33c-0.062-0.069-0.123-0.137-0.186-0.209c-0.286-0.817-0.49-1.683-0.887-2.444
			c-0.303-0.579-0.854-1.027-1.524-1.798c1.916-0.174,1.809-0.965,1.343-2.125c-0.402-1.007-0.617-2.136-0.665-3.221
			c-0.046-1.085-0.198-1.739-1.447-2.018c-0.836-0.185-1.552-0.914-2.205-1.327c0.635-0.683,1.503-1.235,1.438-1.624
			c-0.171-0.991-0.638-1.996-1.211-2.838c-0.911-1.337-1.729-2.564-1.421-4.35c0.209-1.198,0.051-2.484-0.115-3.709
			c-0.217-1.581,0.365-2.583,1.857-2.683c-0.198,0.764-0.389,1.501-0.573,2.214c1.112,0.804,2.053,2.881,1.431,3.323
			c-1.723,1.232-0.662,1.755,0.472,2.286c-0.919,1.731-0.338,4.625,1.024,4.58c2.283-0.072,3.414,0.737,4.818,2.565
			c0.916,1.187,0.959,1.734,0.404,2.65c-1.177,1.94-1.283,4.046-1.091,6.18c0.062,0.708,0.595,1.375,1.021,2.286
			c1.643-1.884,1.852-3.723,2.004-5.631c0.121-1.477,0.064-3.267,0.866-4.328c1.812-2.407,2.337-5.025,2.077-7.804
			c-0.177-1.865-0.774-3.671-2.693-4.813c-1.801-1.072-2.042-3.203-3.013-5.135c2.021,0.499,3.666,0.897,5.354,1.316
			c-0.064,0.857-0.129,1.742-0.192,2.624c0.171,0.056,0.343,0.112,0.512,0.166c0.466-0.783,1.01-1.533,1.386-2.355
			c0.817-1.806,1.538-3.656,2.32-5.475c0.327-0.767,0.98-1.498,1.013-2.259c0.1-2.822,0.06-5.655-0.059-8.477
			c-0.037-0.799-0.367-1.737-1.646-1.142c-0.3,0.139-0.771-0.094-1.704-0.239c1.238-0.89,1.982-1.838,2.864-1.994
			c3.878-0.67,7.399-2.005,10.401-4.604c1.484-1.286,3.033-2.495,4.606-3.781c-1.702-1.166-2.629-1.104-4.03,0.279
			c-1.432,1.41-3.672,2.656-5.599,2.717c-1.817,0.056-2.718,0.772-3.784,1.782c-0.183,0.171-0.45,0.257-1.109,0.625
			c0.386-1.085,0.432-2.021,0.917-2.412c2.015-1.629,4.067-3.264,6.303-4.561c1.439-0.839,3.245-1.016,4.84-1.622
			c2.021-0.769,4.055-1.543,5.96-2.551c1.603-0.844,3.031-2.023,4.524-3.068c0.203-0.145,0.369-0.365,0.493-0.584
			c0.372-0.654,0.715-1.326,1.174-2.187c0.627,0.809,0.954,1.228,1.099,1.417c2.05-1.139,3.955-2.2,5.863-3.259
			c-0.555-1.541-0.627-1.565-1.79-0.587c-1.988,1.662-2.975,1.501-4.379-0.665c-0.573-0.89-1.169-1.779-1.865-2.575
			c-0.327-0.373-0.9-0.702-1.389-0.737c-1.993-0.139-2.32-0.533-1.52-2.334c0.636-1.418,1.161-2.718-0.142-4.106
			c-0.311-0.332-0.252-1.158-0.14-1.712c0.694-3.414,1.404-6.828,2.229-10.21c0.178-0.705,0.327-1.71,1.759-1.439
			c1.624,0.303,3.754-1.638,4.103-3.345c2.189-0.472,2.291-0.713,2.219-2.999c-0.04-1.284,0.223-2.578,0.392-4.312
			c0.576,0.986,0.871,1.493,1.149,1.967c0.751-0.155,1.394-0.29,2.031-0.421c-0.12-0.142-0.241-0.287-0.364-0.429
			c0.936-0.981,1.868-1.962,2.844-2.983c0.587,0.544,0.94,0.871,1.481,1.373c1.498-1.413,2.833-2.97,4.46-4.106
			c1.217-0.85,1.999-1.822,2.498-3.144c0.696-1.838-0.82-2.774-1.731-3.816c-0.41-0.475-1.555-0.316-2.364-0.445
			c-0.134,0.177-0.271,0.354-0.404,0.531c-0.306-0.772-0.753-1.517-0.887-2.318c-0.387-2.281-0.365-2.364-2.713-2.375
			c-0.873-0.003-1.318-0.271-1.567-1.102c-1.235-4.108-2.806-8.142-3.666-12.325c-0.614-2.972-2.354-4.044-4.869-4.623
			c-0.45-0.104-1.057-0.167-1.404,0.051c-0.992,0.616-1.943,1.327-2.804,2.117c-1.346,1.232-1.924,1.158-2.819-0.456
			c-0.203-0.362-0.627-0.598-0.954-0.89c-0.292,0.352-0.696,0.66-0.862,1.064c-0.901,2.16-1.727,4.352-2.61,6.52
			c-0.716,1.752-1.016,3.511-0.547,5.392c0.112,0.447-0.332,1.002-0.359,1.517c-0.078,1.608-0.432,3.332,0.024,4.789
			c0.281,0.898,0.332,1.469,0.013,2.251c-0.97,2.361-1.902,4.741-2.942,7.348c-0.332,0.145-1.099,0.767-1.854,0.748
			c-1.409-0.032-2.015,0.605-2.01,1.833c0.017,1.726-0.938,2.286-2.438,2.428c-0.493,0.046-0.965,0.271-1.453,0.373
			c-7.766,1.629-15.227,4.489-23.122,5.644c-0.986,0.145-1.967,1.016-2.75,1.758c-3.098,2.938-4.357,7.287-7.736,10.058
			c-1.109,0.908-0.604,2.396,0.758,2.902c0.344,0.126,0.711,0.198,1.107,0.308c-0.223,0.793-0.783,1.675-0.539,2.125
			c0.983,1.836,0.874,3.01-1.206,3.966c-0.876,0.405-1.388,1.568-2.122,2.334c-0.381,0.396-0.943,1.016-1.313,0.949
			c-2.487-0.453-4.376,1.747-7.177,1.037c-3.047-0.772-6.419,0.155-9.412,1.565c-1.93,0.911-2.018,3.044-0.306,4.452
			c0.63,0.517,1.064,1.268,1.332,1.597c-0.796,1.241-1.332,2.112-1.905,2.953c-0.278,0.41-0.59,0.817-0.959,1.15
			c-1.983,1.798-3.924,3.653-6.012,5.328c-1.701,1.367-3.251,2.913-5.333,3.83c-2.431,1.072-4.783,2.339-6.482,4.583
			c-0.745,0.979-1.882,1.766-2.996,2.321c-1.321,0.657-2.879,0.833-4.213,1.471c-1.094,0.525-1.828,0.595-2.83-0.233
			c-0.654-0.539-1.726-0.574-2.607-0.836c-1.311-0.388-2.661-0.688-3.905-1.23c-0.332-0.147-0.638-1.192-0.447-1.554
			c0.871-1.653,2.185-3.114,1.766-5.207c-0.026-0.124,0.135-0.295,0.22-0.434c0.845-1.367,1.697-2.734,2.318-3.736
			c0.823-0.26,2.002-0.45,2.002-0.662c0.043-1.943,0.011-3.905-0.278-5.823c-0.186-1.228-0.879-2.372-1.286-3.575
			c-0.713-2.09-1.217-4.28-2.16-6.26c-0.333-0.7-1.979-1.496-2.524-1.228c-1.206,0.592-2.171,1.769-3.099,2.83
			c-0.6,0.691-0.916,1.624-1.431,2.398c-0.627,0.946-1.378,1.479-2.428,0.463c-0.992-0.962-1.287-3.213-0.276-3.562
			c1.638-0.565,1.876-1.648,1.938-3.047c0.014-0.311,0.177-0.826,0.381-0.89c1.541-0.475,1.149-1.715,1.165-2.782
			c0.03-2.042,0.33-4.17-1.669-5.625c-0.147-0.11-0.158-0.404-0.247-0.651c0.427-0.209,0.842-0.413,1.598-0.785
			c-0.981-1.163-1.79-3.007-2.71-3.061c-3.314-0.193-5.565-3.25-8.938-2.993c-0.171,0.013-0.354-0.266-0.546-0.375
			c-1.008-0.558-3.211,0.131-3.908,1.294c-0.819,1.367-0.085,2.254,1.193,2.972c-0.362,0.223-0.608,0.461-0.909,0.552
			c-2.519,0.761-2.519,0.75-2.117,3.267c0.341,2.123-0.106,3.001-2.074,3.712c0.252-1.648,0.485-3.184,0.777-5.105
			c-1.603,1.731-2.899,3.133-4.194,4.535c-0.072,0.081-0.18,0.222-0.152,0.29c0.565,1.353-0.45,1.809-1.3,2.253
			c0.185,1.016,0.774,2.133,0.447,2.819c-1.469,3.101-0.721,6.504-1.56,9.667c-0.097,0.351-0.04,0.812,0.107,1.152
			c0.509,1.174,1.051,2.34,1.656,3.468c1.46,2.734,2.852,5.478,1.935,8.729c-0.75,2.664-1.503,5.328-2.331,7.967
			c-0.207,0.659-0.568,1.442-1.104,1.798c-1.142,0.761-2.438,1.292-3.688,1.892c-0.906,0.434-2.841-0.134-3.302-1.035
			c-0.702-1.372-1.346-2.776-1.945-4.197c-0.439-1.045-0.92-2.106-1.115-3.21c-0.378-2.13-0.558-4.296-0.842-6.445
			c-0.198-1.517-0.702-3.047-0.603-4.542c0.169-2.56,1.487-4.982,0.801-7.694c-0.166-0.659,0.482-1.52,0.74-2.291
			c0.188-0.56,0.423-1.115,0.504-1.691c0.203-1.444,0.112-2.972,0.541-4.341c0.708-2.281,1.761-4.451,2.605-6.694
			c0.2-0.536,0.145-1.166,0.203-1.75c-0.15-0.043-0.303-0.081-0.455-0.118c-2.273,3.248-4.546,6.497-6.821,9.745
			c-0.163-0.021-0.329-0.046-0.495-0.073c0-0.56-0.19-1.219,0.034-1.669c1.086-2.152,2.391-4.197,3.417-6.375
			c1.158-2.46,2.106-5.017,3.074-7.356c0.86-0.113,1.584-0.088,2.219-0.319c0.933-0.343,1.769-0.952,2.814-0.239
			c0.147,0.099,0.935-0.319,0.935-0.501c0.017-1.889,1.309-1.849,2.659-2.018c1.146-0.145,2.551-0.324,3.296-1.048
			c0.922-0.903,1.716-1.05,2.809-0.814c2.074,0.453,4.146,1.541,6.253,0.056c0.136-0.097,0.418,0.035,0.632,0.019
			c1.412-0.083,2.825-0.179,4.24-0.271c0.104-0.107,0.206-0.214,0.313-0.327c-2.798-1.174-2.713-3.519-2.567-6.099
			c-0.737,0.182-1.252,0.278-1.745,0.439c-1.106,0.367-2.187,0.828-3.31,1.133c-1.801,0.485-2.664-0.188-2.712-2.002
			c-0.014-0.439-0.06-0.879-0.097-1.49c-0.737,0.233-1.351,0.442-1.975,0.627c-1.217,0.351-2.45,1.01-3.653,0.965
			c-2.396-0.081-4.218,0.863-5.891,2.369c-1.809,1.626-2.567,1.707-4.663,0.488c-2.015,1.12-3.114,0.895-4.373-1.332
			c-0.9-1.595-2.185-2.358-3.859-2.431c-1.217-0.054-2.449,0.252-3.795,0.413c0.402-3.05,2.761-5.046,5.226-7.107
			c-1.275-0.053-2.712-0.268-3.602,0.333c-2.005,1.348-3.913,2.943-5.539,4.728c-1.485,1.629-3.114,2.752-5.181,3.446
			c-1.265,0.426-2.409,1.198-3.615,1.806c-1.423,0.716-2.646,1.962-4.428,1.734c-0.978-0.126-1.942-0.308-3.216-0.514
			c0.271-0.555,0.697-1.276,0.968-2.05c0.152-0.442,0.241-1.235,0.017-1.399c-0.346-0.252-1.067-0.279-1.488-0.088
			c-2.165,0.983-4.269,2.106-6.426,3.108c-1.037,0.482-2.104,0.515-2.908-0.204c2.441-2.527,4.975-4.821,7.097-7.442
			c1.745-2.155,3.755-3.782,6.207-4.945c2.229-1.056,4.473-2.082,6.71-3.122c-0.043-0.147-0.085-0.292-0.128-0.437
			c-0.954,0-2.399,0.396-2.774-0.07c-1.423-1.774-3.227-0.976-4.834-0.997c-1.311-0.016-2.484,0.19-2.93-1.538
			c-0.871,0.536-1.616,0.911-2.272,1.41c-1.123,0.855-2.268,1.536-3.672,0.748c-0.45-0.254-0.702-0.962-1.152-1.099
			c-1.139-0.343-2.237-0.622-2.773-1.844c-0.035-0.075-0.318-0.027-0.479-0.059c-0.863-0.171-1.774-0.233-2.581-0.555
			c-1.192-0.472-2.265-1.265-3.473-1.675c-1.707-0.582-3.487-1.665-5.098,0.477c-0.321,0.424-2.323,0.282-2.372,0.1
			c-0.394-1.536-1.554-0.943-2.452-1.104c-1.229-0.22-2.5-0.373-3.642-0.831c-0.552-0.22-1.034-1.016-1.222-1.648
			c-0.365-1.216-0.558-2.498-0.711-3.762c-0.206-1.702-1.048-2.554-3.061-2.401c0,1.498,0,2.975,0,4.497
			c-0.683,0.045-1.125,0.104-1.564,0.099c-8.54-0.107-17.078-0.204-25.616-0.338c-4.768-0.078-9.534-0.201-14.3-0.346
			c-1.955-0.059-3.906-0.212-5.86-0.343c-6.404-0.439-12.81-0.887-19.215-1.332c-3.343-0.233-6.693-0.389-10.024-0.737
			c-4.427-0.461-8.834-1.093-13.255-1.619c-4.146-0.493-8.308-0.881-12.451-1.42c-4.576-0.595-9.133-1.313-13.703-1.956
			c-5.785-0.817-11.595-1.474-17.35-2.452c-7.777-1.321-15.532-2.787-23.259-4.369c-7.95-1.629-15.9-3.288-23.772-5.255
			C68.63,6.567,56.564,3.252,44.46,0.084c-0.588-0.155-1.245-0.045-1.872-0.059c0.149,0.608,0.214,1.246,0.458,1.812
			c0.688,1.592,2.022,3.098,0.384,4.877c-0.105,0.118,0.007,0.429,0.007,0.648c0.003,1.562,0,3.12,0,5.186
			c-0.898-1.46-1.562-2.541-2.243-3.647c1.722-0.767,1.722-0.767,0.512-2.305c-0.525,1.016-0.983,1.9-1.613,3.117
			c-1.231-0.399-2.566-0.863-3.922-1.262c-3.498-1.027-6.606-2.656-9.005-5.505c-0.235-0.284-1.155-0.359-1.459-0.134
			c-0.698,0.522-0.978,4.815-0.634,5.628c0.327,0.777,0.686,1.637,0.668,2.452c-0.079,3.256-0.748,6.56,1.175,9.272
			c-0.694,0.541-1.635,0.919-1.705,1.417c-0.087,0.625,0.544,1.348,0.862,2.032c0.189,0.021,0.376,0.045,0.563,0.069
			c-0.588,0.675-1.21,1.324-1.749,2.04c-0.414,0.547-1.131,1.329-0.978,1.729c0.21,0.549,1.08,0.895,1.727,1.211
			c0.397,0.193,0.903,0.166,1.362,0.238c-0.334,0.461-0.627,0.694-0.936,0.713c-1.667,0.107-2.407,1.075-2.739,2.613
			c-0.232,1.077-0.625,2.127-1.025,3.157c-1.837,4.717-3.616,9.46-5.589,14.121c-1.387,3.277-3.072,6.426-4.584,9.65
			c-1.546,3.302-4.914,5.735-4.761,9.833c0.092,2.487-1.746,4.966-0.011,7.461c0.096,0.14,0.016,0.418-0.015,0.63
			c-0.519,3.613-0.466,7.375-2.52,10.604c-0.978,1.539-1.95,3.138-3.217,4.419c-1.567,1.586-2.109,3.505-1.069,5.451
			c0.475,0.887,0.936,1.787,1.343,2.707c0.851,1.929,1.361,3.907,0.648,6.003c-0.425,1.246-1.08,2.45-1.262,3.73
			c-0.224,1.549-0.417,3.264,0.026,4.714c0.557,1.836,1.756,3.476,2.694,5.194c0.868,1.592,1.561,3.17,0.952,5.086
			c-0.16,0.504,0.21,1.268,0.524,1.801c0.335,0.565,1.001,0.938,1.329,1.509c0.674,1.166,1.443,1.477,2.77,0.337
			c0.419,1.865,0.793,3.527,1.167,5.191c-2.11-0.635-2.57-1.908-1.955-3.803c-0.619,0.3-1.152,0.603-1.208,0.979
			c-0.295,1.978-0.929,4.065-0.536,5.928c0.329,1.565,0.568,3.921,3.237,4.116c0.365,0.027,0.945,1.501,0.844,2.225
			c-0.11,0.791-0.774,1.621-1.411,2.2c-1.26,1.142-1.486,3.184-0.476,4.54c0.754,1.013,1.713,2.117,1.884,3.285
			c0.504,3.431,2.323,6.207,3.871,9.155c0.679,1.297,1.328,2.798,1.35,4.215c0.025,1.619-0.664,3.248-1.045,4.872
			c-0.374,1.598,0.438,2.57,1.98,2.817c1.291,0.209,2.535,0.739,3.773,1.197c0.777,0.29,1.494,0.957,2.265,1.008
			c1.58,0.104,2.389,1.102,3.153,2.206c0.535,0.782,0.774,1.838,1.447,2.428c0.974,0.85,2.168,1.819,3.363,1.97
			c2.469,0.303,3.555,1.844,2.389,4.322c1.952,0.596,3.642,1.413,5,3.16c2.438,3.133,4.623,6.201,4.021,10.443
			c-0.079,0.553-0.012,1.123-0.009,1.686c0.009,0.957,0.337,1.536,1.431,1.676c2.92,0.367,5.821,0.892,8.745,1.257
			c3.37,0.42,6.759,0.704,10.134,1.104c1.159,0.14,2.297,0.453,3.541,0.705c-0.666,1.157-1.722,2.085-0.161,3.013
			c3.468,2.055,6.936,4.107,10.408,6.155c5.854,3.454,11.611,7.1,17.619,10.267c2.471,1.3,4.556,3.345,7.659,3.677
			c5.762,0.617,11.47,1.727,17.212,2.56c2.905,0.424,5.868,0.512,8.734,1.099c1.686,0.344,1.971-0.369,2.136-1.618
			c0.159-1.188,0.299-2.38,0.461-3.661c0.609,0.15,0.975,0.279,1.353,0.324c4.472,0.584,8.953,1.097,13.408,1.771
			c1.208,0.185,2.695,0.552,3.433,1.389c1.318,1.492,1.706,3.789,3.922,4.556c0.035,0.014,0.033,0.107,0.065,0.152
			c1.372,1.759,2.633,3.618,4.157,5.234c1.083,1.146,2.732,1.774,3.752,2.959c2.26,2.618,3.694,5.59,3.661,9.264
			c-0.014,1.533,0.654,3.428,1.682,4.546c1.71,1.852,3.957,3.208,5.978,4.775c0.396,0.306,0.772,0.644,1.194,0.903
			c1.739,1.063,3.471,2.141,5.258,3.116c0.283,0.155,1.057-0.072,1.243-0.358c1.211-1.853,2.427-3.715,3.433-5.68
			c0.862-1.68,4.553-4.494,5.7-3.771c1.857,1.169,3.914,0.711,5.813,1.273c1.342,0.396,3.283,0.34,3.934,1.232
			c2.417,3.318,6.325,5.488,7.313,9.956c0.545,2.463,1.852,4.76,2.83,7.123c0.165,0.396,0.362,0.805,0.634,1.129
			c0.657,0.769,1.466,1.426,2.04,2.254c1.378,1.98,2.181,4.424,4.81,5.359c0.425,0.15,0.66,1.217,0.743,1.887
			c0.224,1.79,0.3,3.597,0.476,5.395c0.025,0.244,0.234,0.561,0.449,0.678c1.665,0.928,1.73,2.675,2.043,4.2
			c0.252,1.235,0.779,2.056,1.888,2.551c0.868,0.384,1.746,0.74,2.61,1.131c1.679,0.767,3.558,0.946,5.049,2.346
			c0.717,0.675,2.243,0.53,3.412,0.664c1.348,0.153,2.656,0.046,3.77,1.235c1.769,1.885,2.468,1.771,4.289,0.057
			c-0.607-2.444-1.218-4.725-1.731-7.029c-0.319-1.429-0.643-2.884-0.69-4.336c-0.104-3.189,1.808-5.701,3.216-8.324
			c1.062-1.976,2.223-4.144,3.926-5.47c3.192-2.487,6.822-4.4,10.244-6.599c2.477-1.592,4.985-3.154,7.344-4.909
			c1.913-1.423,3.451-3.393,5.461-4.62c3.28-2.005,6.877-3.519,10.693-4.159c2.484-0.415,4.941-0.479,7.504,0.627
			c2.383,1.032,5.164,1.16,7.788,1.6c0.487,0.081,1.045-0.235,1.321-0.308c-0.378-0.863-0.654-1.493-0.931-2.123
			c0.507-0.174,1.011-0.484,1.518-0.493c0.839-0.016,1.707,0.06,2.508,0.29c0.616,0.174,1.579,0.568,1.651,0.991
			c0.246,1.442,1.343,1.38,2.299,1.681c0.579,0.182,1.12,0.477,1.71,0.731c-0.477,0.82-0.799,1.372-1.206,2.074
			c1.681,0.774,3.154,1.576,4.723,2.104c0.65,0.22,1.64,0.062,2.232-0.308c1.182-0.737,2.2-1.739,3.095-2.477
			c0.954,0.727,1.688,1.281,2.42,1.836c0.384-1.011,0.791-2.013,1.134-3.034c0.072-0.209-0.08-0.495-0.147-0.814
			c0.699-0.126,1.273-0.23,1.847-0.335c-0.051,0.172-0.102,0.343-0.15,0.515c0.751,0.367,1.52,0.699,2.243,1.112
			c1,0.565,2.069,1.082,2.927,1.83c1.509,1.313,3.428,0.885,4.146-1.401c-1.415-0.605-2.813-1.495-4.325-1.782
			c-2.739-0.518-3.428-1.426-2.607-3.621c1.021-0.557,1.825-0.879,2.46-1.406c0.233-0.188,0.249-1.003,0.035-1.287
			c-0.429-0.578-1.077-0.986-1.641-1.466c-0.225,0.464-0.369,1.005-0.707,1.364c-0.327,0.354-0.9,0.767-1.292,0.699
			c-0.598-0.104-1.131-0.595-2.197-1.214c2.149-0.437,2.975-1.978,4.025-3.018c1.406-1.396,2.867-1.532,4.465-2.01
			c1.227-0.367,2.229-0.59,3.5-0.037c0.776,0.34,1.881,0.109,2.792-0.089c0.885-0.19,1.71-0.67,2.56-1.021
			c0.099,0.146,0.198,0.293,0.297,0.442c0.502-1.305,1.003-2.612,1.528-3.974c2.182,1.607,2.835,3.789,1.672,5.276
			c0.241,0.057,0.467,0.185,0.644,0.134c2.396-0.667,4.765-1.46,7.188-2.023c2.428-0.555,4.937-1.361,7.349-1.189
			c2.947,0.206,5.994,0.97,8.391,2.961c1.401,1.16,3.996,1.169,3.808,3.841c1.525-0.306,3.023-0.356,4.299-0.922
			c2.117-0.938,3.985-2.315,5.188-4.422c0.161-0.284,0.651-0.389,1-0.561c1.675-0.812,3.197-0.129,4.553,0.71
			c1.659,1.024,3.489,2.032,4.655,3.517c1.6,2.026,2.982,4.052,5.732,4.563c1.189,0.223,3.824,3.32,3.811,4.586
			c-0.016,1.895-0.263,3.789-0.308,5.684c-0.035,1.59-0.078,3.205,0.174,4.763c0.161,1.002,0.842,1.916,1.286,2.87
			c0.226-0.062,0.45-0.121,0.676-0.18c-0.083-1.134-0.166-2.262-0.252-3.492c-0.112,0.027,0.099-0.062,0.311-0.062
			c1.94-0.026,2.396,0.67,1.52,2.345c-0.613,1.169-1.271,2.315-1.873,3.412c1.94,2.589,3.886,5.186,6.046,8.066
			c0.415-1.104,0.699-1.857,0.986-2.615c0.171,0.011,0.343,0.019,0.515,0.023c0.134,0.711,0.235,1.432,0.418,2.128
			c0.23,0.9,0.257,2.238,0.853,2.589c1.929,1.147,2.629,2.876,3.237,4.843c0.391,1.281,1.056,2.369,2.904,1.897
			c0.767-0.193,2.16,0.209,2.565,0.814c1.208,1.793,3.065,3.28,2.972,5.821c-0.054,1.447,0.938,1.884,2.259,1.286
			c0.791-0.359,1.644-0.579,2.447-0.919c1.146-0.493,2.38-0.893,3.368-1.616c0.694-0.507,0.963-1.324,0.625-2.487
			c-0.287-0.98,0.412-2.265,0.718-3.4c0.172-0.651,0.627-1.278,0.627-1.911c-0.011-1.784-0.096-3.58-0.315-5.349
			c-0.324-2.573-0.107-5.256-1.533-7.63c-1.166-1.938-2.182-3.969-3.339-5.915c-1.024-1.712-2.273-3.296-3.189-5.06
			c-0.729-1.398-1.779-3.136-1.472-4.438c0.362-1.541-0.171-2.305-0.902-3.219c-1.435-1.785-2.976-3.481-4.398-5.277
			c-3.098-3.904-4.904-8.474-6.576-13.102c-1.332-3.686-2.271-7.273-1.075-11.353c0.885-3.013,1.118-6.196,3.023-8.854
			c0.123-0.172,0.257-0.475,0.188-0.616c-0.509-1.014,0.338-1.273,0.85-1.833c1.166-1.278,3.353-2.074,2.34-4.471
			c0.648-0.223,1.372-0.257,1.747-0.641c1.796-1.816,3.489-3.732,5.226-5.608c0.528-0.568,0.983-1.278,1.624-1.656
			c1.506-0.885,2.351-2.016,2.466-3.824c0.361-5.606,4.101-8.641,8.761-9.394c1.177-0.19,1.809-0.581,1.922-1.603
			c0.348-3.061,2.108-5.269,4.304-7.15c1.978-1.696,3.813-3.826,6.938-3.197c0.367,0.075,1.002-0.455,1.286-0.862
			c0.464-0.659,0.731-1.45,1.123-2.268c-1.313-0.429-2.431-0.79-3.564-1.16c0.318-1.286,0.648-2.621,0.991-3.998
			c1.97-0.169,3.726-0.566,4.022-2.945c0.032-0.266,0.413-0.515,0.67-0.727c1.509-1.235,1.681-2.061,0.539-3.658
			c-0.402-0.568-1.163-1.412-1.61-1.326c-2.243,0.42-4.436,1.117-6.654,1.69c-0.23,0.06-0.504-0.051-1.324-0.149
			c1.442-0.928,2.46-1.601,3.5-2.241c1.576-0.973,3.136-2.184,5.025-0.587c0.023,0.024,0.179-0.099,0.455-0.265
			c-0.959-2.131-1.98-4.267-2.886-6.454C444.609,156.107,443.617,154.542,441.088,155.33z M52.522,291.838
			c-0.536,0.249-0.91,0.37-1.217,0.587c-0.319,0.223-0.573,0.533-0.857,0.807c0.382,0.212,0.741,0.51,1.151,0.614
			c1.662,0.437,3.149-0.625,3.802-1.616c1.533-2.337,3.438-1.603,5.503-1.243c0-1.003-0.015-1.9,0.004-2.793
			c0.032-1.683,1.702-1.324,2.573-1.933c0.274-0.189,1.479,0.279,1.609,0.665c0.61,1.809,2.072,2.53,3.548,3.414
			c1.301,0.78,2.554,1.166,4.08,1.22c1.458,0.051,2.9,0.603,4.347,0.943c1.372,0.321,2.742,0.653,4.213,1.002
			c-0.733,1.088,0.537,1.297,1.455,1.836c2.996,1.764,5.862,3.615,7.544,6.906c1.141,2.229,2.817,4.181,4.029,6.378
			c0.981,1.779,2.14,2.653,4.031,1.836c0.625,1.158,1.54,2.146,1.646,3.219c0.154,1.56,0.867,2.554,1.732,3.363
			c0.896-0.22,1.58-0.389,2.425-0.598c-0.058-0.976-0.119-2.059-0.181-3.106c2.021-0.048,2.953,1.386,3.918,3.203
			c0.556-1.04,1.192-1.702,1.215-2.383c0.052-1.618,0.099-3.353-0.43-4.832c-0.248-0.691-1.873-0.833-2.806-1.345
			c-0.995-0.55-2.174-1.046-2.81-1.906c-1.812-2.452-3.379-5.086-5.065-7.632c-0.244-0.37-0.603-0.662-0.918-0.981
			c-1.179-1.192-2.354-2.391-3.55-3.564c-0.483-0.477-1.214-1.385-1.49-1.27c-0.859,0.356-2.101,1.026-2.206,1.723
			c-0.251,1.659-1.328,1.77-2.261,2.059c-1.812-2.091-3.499-4.036-5.404-6.233c0.205,0.019-0.017-0.014-0.238-0.017
			c-0.165,0-0.355-0.002-0.495,0.067c-2.401,1.238-3.367,0.742-3.343-2.396c0.102-14.295,0.054-28.59,0.016-42.885
			c0-0.633-0.245-1.656-0.655-1.825c-1.755-0.734-3.218-3.021-5.554-1.303c-0.073,0.054-0.231,0.041-0.331,0.006
			c-1.943-0.687-4.013-1.152-5.785-2.146c-1.372-0.772-2.616-1.244-4.195-1.271c-0.873-0.019-2.416-0.67-2.477-1.177
			c-0.26-2.229-1.55-1.938-2.544-1.686c-1.031-0.951-1.854-1.686-2.65-2.452c-1.341-1.286-2.111-0.166-3.057,0.616
			c-0.37,0.309-1.077,0.45-1.559,0.344c-1.713-0.378-3.153,0.185-4.568,1.018c-0.28,0.164-0.645,0.356-0.934,0.312
			c-1.886-0.309-2.928,0.764-3.888,2.157c-1.068,1.546-2.469,2.822-4.501,2.219c-1.63-0.479-2.809-0.19-3.777,1.059
			c0.968,1.67,1.907,3.312,2.869,4.947c0.8,1.354-0.295,3.27,1.647,4.446c0.828,0.501,0.86,2.297,1.281,3.494
			c0.322,0.919-0.154,1.45-0.937,1.249c-1.172-0.3-2.371-0.77-3.329-1.479c-0.295-0.22,0.16-1.452,0.304-2.455
			c-0.578-0.12-1.221-0.42-1.82-0.354c-1.637,0.196-3.257,0.533-4.88,0.834c-1.004,0.182-2.005,0.396-3.494,0.696
			c0.988,1.182,1.671,2.002,2.407,2.884c-0.038,0.112-0.131,0.313-0.175,0.525c-0.743,3.511,0.069,4.537,3.747,4.846
			c0.536,0.048,1.168,0.182,1.558,0.512c1.15,0.97,2.334,0.71,3.611,0.418c0.645-0.15,1.356-0.027,1.971-0.027
			c-0.445,1.734-0.777,3.128-1.163,4.508c-0.358,1.278-1.53,1.956-2.689,1.415c-0.863-0.402-1.383-0.241-2.072,0.332
			c-0.674,0.563-1.693,1.158-2.223-0.091c-0.7-1.653-1.685-1.069-2.506-0.396c-1.672,1.369-3.233,2.875-4.818,4.354
			c-0.93,0.868-1.268,3.581-0.316,4.264c1.118,0.807,0.598,1.525,0.056,1.97c-0.938,0.783-0.539,1.447-0.165,2.206
			c0.244,0.496,0.694,0.983,0.708,1.482c0.045,1.927,1.222,2.133,2.725,2.004c0.771-0.069,1.545-0.08,2.318-0.118
			c0.406,1.957,0.379,2.075-0.602,3.552c-0.115,0.174-0.171,0.415-0.176,0.63c-0.019,0.943-0.006,1.887-0.006,3.028
			c3.209-1.518,5.31-0.083,6.628,3.376c0.389-1.01,0.644-1.669,1.068-2.778c0.513,0.985,0.793,1.527,1.021,1.964
			c0.817-0.04,1.522-0.075,2.235-0.109c-0.887,1.741-1.617,3.296-2.464,4.78c-0.329,0.579-0.878,1.054-1.396,1.49
			c-0.789,0.662-1.642,1.252-2.465,1.873c-1.851,0.689-4.061,0.679-5.698,2.383c-0.197,0.204-0.658,0.437-0.839,0.343
			c-2.429-1.229-4.208,0.269-6.176,1.287c-0.899,0.463-2.053,0.439-3.095,0.618c-1.186,0.21-2.387,0.346-3.551,0.644
			c-0.211,0.051-0.486,0.842-0.352,1.054c0.181,0.286,0.928,0.584,1.084,0.458c1.093-0.908,2.101-0.249,3.174-0.038
			c0.524,0.104,1.133-0.12,1.684-0.271c0.41-0.112,0.776-0.394,1.186-0.515c1.066-0.318,2.146-0.587,3.221-0.873
			c1.268,0.037,2.583-0.003,3.883-0.169c1.829-0.233,3.647-0.558,5.471-0.842c0.047,0.169,0.095,0.338,0.141,0.504
			c0.291-0.396,0.883-0.85,0.823-1.185c-0.283-1.605,0.788-1.691,1.853-1.892c1.146-0.212,2.393-0.252,3.406-0.751
			c2.444-1.203,4.924-2.431,7.097-4.041c1.261-0.936,3.512-1.544,2.909-3.99c-0.513-0.292-1.025-0.59-2.031-1.166
			c1.213-0.729,2.05-1.544,3.012-1.739c1.224-0.247,1.619-0.979,2.284-1.862c1.301-1.731,2.831-3.391,4.568-4.672
			c1.324-0.973,2.196-0.404,2.735,0.965c-1.289,0.212-2.636,0.432-3.982,0.651c0.145,0.172,0.291,0.346,0.436,0.518
			c-0.765,1.546-1.532,3.093-2.321,4.688C51.584,291.441,51.962,291.6,52.522,291.838z M169.827,301.304
			c-0.793,0.641-1.696,1.232-2.401,2.002c-0.318,0.349-0.523,1.243-0.303,1.567c1.362,2.023,1.82,4.17,1.537,6.582
			c-0.185,1.57,1.211,2.104,2.344,2.396c0.423,0.109,1.214-0.767,1.678-1.324c1.056-1.278,2.054-2.308,3.915-2.646
			c1.514-0.275,2.861-1.549,4.228-2.46c0.124-0.08-0.04-0.833-0.26-1.137c-0.787-1.099-1.606-2.176-2.503-3.184
			c-0.701-0.785-1.434-1.632-2.328-2.136c-1.636-0.922-3.39-1.643-5.123-2.385c-0.529-0.226-1.152-0.239-1.731-0.354
			c0.045,0.625,0.043,1.258,0.164,1.865C169.103,300.393,169.392,300.649,169.827,301.304z M163.621,294.459
			c1.087-0.364,1.967-0.544,2.726-0.951c0.51-0.276,1.091-0.834,1.176-1.343c0.059-0.351-0.591-1.029-1.066-1.228
			c-1.864-0.777-3.775-1.447-5.694-2.085c-0.245-0.086-0.816,0.188-0.911,0.424c-0.163,0.404-0.252,1.031-0.044,1.351
			c0.603,0.922,1.32,1.782,2.09,2.578C162.386,293.711,163.046,294.049,163.621,294.459z M145.102,280.649
			c-0.721,0.356-1.365,0.581-1.893,0.962c-0.48,0.349-1.262,1.112-1.173,1.271c0.579,1.019,1.218,2.111,2.129,2.784
			c0.628,0.467,1.726,0.335,2.62,0.395c0.623,0.04,1.254-0.049,2.005-0.086C147.483,284.091,146.338,282.435,145.102,280.649z
			 M152.814,287.947c5.762,1.013,5.762,1.013,6.525-0.644C154.649,286.411,153.52,286.502,152.814,287.947z M155.239,290.271
			c0.861,0.927,0.562,2.554,2.203,2.047c0.382-0.115,0.943-0.801,0.87-1.077C157.906,289.724,156.704,290.149,155.239,290.271z"/>
		<path style="fill-rule:evenodd;clip-rule:evenodd;fill:#9FB140;" d="M441.088,155.33c2.529-0.788,3.521,0.777,4.342,2.752
			c0.905,2.187,1.927,4.323,2.886,6.454c-0.276,0.166-0.432,0.289-0.455,0.265c-1.89-1.597-3.449-0.386-5.025,0.587
			c-1.04,0.641-2.058,1.313-3.5,2.241c0.82,0.099,1.094,0.209,1.324,0.149c2.219-0.573,4.411-1.271,6.654-1.69
			c0.447-0.086,1.208,0.758,1.61,1.326c1.142,1.598,0.97,2.423-0.539,3.658c-0.257,0.212-0.638,0.461-0.67,0.727
			c-0.297,2.379-2.053,2.776-4.022,2.945c-0.343,1.377-0.673,2.712-0.991,3.998c1.134,0.37,2.251,0.731,3.564,1.16
			c-0.392,0.817-0.659,1.608-1.123,2.268c-0.284,0.407-0.919,0.938-1.286,0.862c-3.125-0.629-4.961,1.501-6.938,3.197
			c-2.195,1.882-3.956,4.09-4.304,7.15c-0.113,1.021-0.745,1.412-1.922,1.603c-4.66,0.753-8.399,3.787-8.761,9.394
			c-0.115,1.809-0.96,2.939-2.466,3.824c-0.641,0.378-1.096,1.088-1.624,1.656c-1.736,1.876-3.43,3.792-5.226,5.608
			c-0.375,0.384-1.099,0.418-1.747,0.641c1.013,2.396-1.174,3.192-2.34,4.471c-0.512,0.56-1.358,0.819-0.85,1.833
			c0.069,0.142-0.064,0.444-0.188,0.616c-1.905,2.658-2.139,5.842-3.023,8.854c-1.195,4.079-0.257,7.667,1.075,11.353
			c1.672,4.628,3.479,9.197,6.576,13.102c1.423,1.796,2.964,3.492,4.398,5.277c0.731,0.914,1.265,1.678,0.902,3.219
			c-0.308,1.302,0.742,3.039,1.472,4.438c0.916,1.764,2.165,3.348,3.189,5.06c1.157,1.946,2.173,3.978,3.339,5.915
			c1.426,2.374,1.209,5.057,1.533,7.63c0.22,1.769,0.305,3.564,0.315,5.349c0,0.633-0.455,1.26-0.627,1.911
			c-0.306,1.136-1.005,2.42-0.718,3.4c0.338,1.163,0.069,1.98-0.625,2.487c-0.988,0.724-2.222,1.123-3.368,1.616
			c-0.804,0.34-1.656,0.56-2.447,0.919c-1.321,0.598-2.312,0.161-2.259-1.286c0.094-2.541-1.764-4.028-2.972-5.821
			c-0.405-0.605-1.799-1.008-2.565-0.814c-1.849,0.472-2.514-0.616-2.904-1.897c-0.608-1.967-1.309-3.695-3.237-4.843
			c-0.596-0.351-0.622-1.688-0.853-2.589c-0.183-0.696-0.284-1.417-0.418-2.128c-0.172-0.005-0.344-0.013-0.515-0.023
			c-0.287,0.758-0.571,1.511-0.986,2.615c-2.16-2.881-4.105-5.478-6.046-8.066c0.603-1.097,1.26-2.243,1.873-3.412
			c0.877-1.675,0.421-2.371-1.52-2.345c-0.212,0-0.423,0.089-0.311,0.062c0.086,1.23,0.169,2.358,0.252,3.492
			c-0.226,0.059-0.45,0.118-0.676,0.18c-0.444-0.954-1.125-1.868-1.286-2.87c-0.252-1.558-0.209-3.173-0.174-4.763
			c0.045-1.895,0.292-3.789,0.308-5.684c0.014-1.266-2.621-4.363-3.811-4.586c-2.75-0.512-4.133-2.537-5.732-4.563
			c-1.166-1.484-2.996-2.492-4.655-3.517c-1.355-0.839-2.878-1.521-4.553-0.71c-0.349,0.172-0.839,0.276-1,0.561
			c-1.203,2.106-3.071,3.483-5.188,4.422c-1.275,0.565-2.773,0.616-4.299,0.922c0.188-2.672-2.406-2.681-3.808-3.841
			c-2.396-1.991-5.443-2.755-8.391-2.961c-2.412-0.172-4.921,0.635-7.349,1.189c-2.423,0.563-4.792,1.356-7.188,2.023
			c-0.177,0.051-0.402-0.077-0.644-0.134c1.163-1.487,0.51-3.669-1.672-5.276c-0.525,1.361-1.026,2.669-1.528,3.974
			c-0.099-0.149-0.198-0.297-0.297-0.442c-0.85,0.352-1.675,0.831-2.56,1.021c-0.911,0.198-2.016,0.429-2.792,0.089
			c-1.271-0.553-2.273-0.33-3.5,0.037c-1.598,0.478-3.059,0.613-4.465,2.01c-1.051,1.04-1.876,2.581-4.025,3.018
			c1.066,0.619,1.6,1.109,2.197,1.214c0.392,0.067,0.965-0.346,1.292-0.699c0.338-0.359,0.482-0.9,0.707-1.364
			c0.563,0.479,1.212,0.888,1.641,1.466c0.214,0.284,0.198,1.1-0.035,1.287c-0.635,0.527-1.439,0.85-2.46,1.406
			c-0.82,2.195-0.132,3.104,2.607,3.621c1.512,0.287,2.91,1.177,4.325,1.782c-0.718,2.286-2.637,2.715-4.146,1.401
			c-0.857-0.748-1.927-1.265-2.927-1.83c-0.724-0.413-1.492-0.745-2.243-1.112c0.049-0.172,0.1-0.343,0.15-0.515
			c-0.573,0.104-1.147,0.209-1.847,0.335c0.067,0.319,0.22,0.605,0.147,0.814c-0.343,1.021-0.75,2.023-1.134,3.034
			c-0.731-0.555-1.466-1.109-2.42-1.836c-0.895,0.737-1.913,1.739-3.095,2.477c-0.593,0.369-1.582,0.527-2.232,0.308
			c-1.568-0.527-3.042-1.329-4.723-2.104c0.407-0.702,0.729-1.254,1.206-2.074c-0.59-0.255-1.131-0.55-1.71-0.731
			c-0.956-0.301-2.053-0.238-2.299-1.681c-0.072-0.423-1.035-0.817-1.651-0.991c-0.801-0.23-1.669-0.306-2.508-0.29
			c-0.507,0.009-1.011,0.319-1.518,0.493c0.276,0.63,0.553,1.26,0.931,2.123c-0.276,0.072-0.834,0.389-1.321,0.308
			c-2.624-0.439-5.405-0.567-7.788-1.6c-2.562-1.106-5.02-1.042-7.504-0.627c-3.816,0.641-7.413,2.154-10.693,4.159
			c-2.01,1.228-3.548,3.197-5.461,4.62c-2.358,1.755-4.867,3.317-7.344,4.909c-3.422,2.198-7.052,4.111-10.244,6.599
			c-1.703,1.326-2.865,3.494-3.926,5.47c-1.408,2.623-3.32,5.135-3.216,8.324c0.047,1.452,0.371,2.907,0.69,4.336
			c0.513,2.305,1.125,4.585,1.731,7.029c-1.821,1.715-2.521,1.828-4.289-0.057c-1.114-1.189-2.421-1.082-3.77-1.235
			c-1.168-0.134-2.695,0.011-3.412-0.664c-1.491-1.399-3.37-1.579-5.049-2.346c-0.864-0.391-1.742-0.747-2.61-1.131
			c-1.109-0.495-1.636-1.315-1.888-2.551c-0.313-1.525-0.379-3.272-2.043-4.2c-0.214-0.117-0.423-0.434-0.449-0.678
			c-0.175-1.798-0.252-3.604-0.476-5.395c-0.083-0.67-0.318-1.736-0.743-1.887c-2.629-0.936-3.432-3.379-4.81-5.359
			c-0.574-0.828-1.383-1.485-2.04-2.254c-0.272-0.324-0.469-0.732-0.634-1.129c-0.978-2.363-2.285-4.66-2.83-7.123
			c-0.989-4.468-4.896-6.638-7.313-9.956c-0.651-0.893-2.592-0.836-3.934-1.232c-1.899-0.562-3.956-0.104-5.813-1.273
			c-1.147-0.724-4.838,2.091-5.7,3.771c-1.006,1.965-2.222,3.827-3.433,5.68c-0.186,0.286-0.96,0.514-1.243,0.358
			c-1.788-0.976-3.519-2.053-5.258-3.116c-0.422-0.26-0.798-0.598-1.194-0.903c-2.021-1.567-4.268-2.924-5.978-4.775
			c-1.028-1.118-1.695-3.013-1.682-4.546c0.033-3.674-1.4-6.646-3.661-9.264c-1.02-1.185-2.669-1.812-3.752-2.959
			c-1.524-1.616-2.785-3.476-4.157-5.234c-0.032-0.045-0.031-0.139-0.065-0.152c-2.216-0.767-2.604-3.063-3.922-4.556
			c-0.738-0.837-2.226-1.204-3.433-1.389c-4.455-0.675-8.936-1.188-13.408-1.771c-0.378-0.045-0.744-0.174-1.353-0.324
			c-0.162,1.281-0.302,2.474-0.461,3.661c-0.165,1.249-0.451,1.962-2.136,1.618c-2.866-0.587-5.829-0.675-8.734-1.099
			c-5.742-0.833-11.45-1.942-17.212-2.56c-3.103-0.332-5.188-2.377-7.659-3.677c-6.008-3.167-11.765-6.812-17.619-10.267
			c-3.472-2.048-6.94-4.101-10.408-6.155c-1.561-0.928-0.505-1.855,0.161-3.013c-1.244-0.252-2.381-0.565-3.541-0.705
			c-3.375-0.399-6.764-0.684-10.134-1.104c-2.924-0.365-5.825-0.89-8.745-1.257c-1.093-0.14-1.421-0.719-1.431-1.676
			c-0.003-0.562-0.07-1.133,0.009-1.686c0.602-4.242-1.584-7.311-4.021-10.443c-1.358-1.747-3.048-2.564-5-3.16
			c1.166-2.479,0.08-4.02-2.389-4.322c-1.195-0.15-2.389-1.12-3.363-1.97c-0.673-0.59-0.913-1.646-1.447-2.428
			c-0.764-1.104-1.573-2.102-3.153-2.206c-0.771-0.051-1.488-0.718-2.265-1.008c-1.238-0.458-2.483-0.988-3.773-1.197
			c-1.542-0.247-2.354-1.22-1.98-2.817c0.382-1.624,1.071-3.253,1.045-4.872c-0.021-1.417-0.67-2.918-1.35-4.215
			c-1.548-2.948-3.367-5.725-3.871-9.155c-0.17-1.168-1.13-2.272-1.884-3.285c-1.011-1.356-0.784-3.398,0.476-4.54
			c0.636-0.579,1.301-1.41,1.411-2.2c0.101-0.724-0.479-2.198-0.844-2.225c-2.669-0.195-2.909-2.551-3.237-4.116
			c-0.393-1.862,0.241-3.95,0.536-5.928c0.055-0.375,0.588-0.678,1.208-0.979c-0.615,1.895-0.156,3.168,1.955,3.803
			c-0.374-1.664-0.748-3.326-1.167-5.191c-1.326,1.139-2.096,0.828-2.77-0.337c-0.328-0.571-0.994-0.943-1.329-1.509
			c-0.314-0.534-0.684-1.297-0.524-1.801c0.609-1.916-0.083-3.495-0.952-5.086c-0.938-1.718-2.137-3.358-2.694-5.194
			c-0.442-1.45-0.25-3.165-0.026-4.714c0.183-1.281,0.837-2.484,1.262-3.73c0.713-2.096,0.203-4.074-0.648-6.003
			c-0.407-0.919-0.868-1.82-1.343-2.707c-1.04-1.946-0.498-3.865,1.069-5.451c1.268-1.281,2.239-2.881,3.217-4.419
			c2.053-3.229,2-6.992,2.52-10.604c0.031-0.211,0.111-0.49,0.015-0.63c-1.735-2.495,0.103-4.974,0.011-7.461
			c-0.153-4.097,3.214-6.531,4.761-9.833c1.512-3.224,3.197-6.373,4.584-9.65c1.973-4.66,3.752-9.404,5.589-14.121
			c0.401-1.029,0.793-2.08,1.025-3.157c0.332-1.539,1.072-2.506,2.739-2.613c0.308-0.019,0.602-0.252,0.936-0.713
			c-0.458-0.072-0.965-0.045-1.362-0.238c-0.647-0.316-1.517-0.662-1.727-1.211c-0.153-0.399,0.564-1.182,0.978-1.729
			c0.539-0.715,1.161-1.364,1.749-2.04c-0.187-0.024-0.374-0.048-0.563-0.069c-0.317-0.684-0.949-1.407-0.862-2.032
			c0.07-0.499,1.011-0.876,1.705-1.417c-1.923-2.712-1.254-6.017-1.175-9.272c0.018-0.815-0.341-1.675-0.668-2.452
			c-0.344-0.812-0.064-5.105,0.634-5.628c0.304-0.225,1.224-0.15,1.459,0.134c2.399,2.849,5.507,4.478,9.005,5.505
			c1.356,0.399,2.69,0.863,3.922,1.262c0.63-1.217,1.088-2.101,1.613-3.117c1.21,1.538,1.21,1.538-0.512,2.305
			c0.681,1.106,1.345,2.187,2.243,3.647c0-2.066,0.003-3.623,0-5.186c0-0.22-0.112-0.531-0.007-0.648
			c1.638-1.779,0.304-3.286-0.384-4.877c-0.244-0.565-0.31-1.203-0.458-1.812c0.627,0.013,1.284-0.097,1.872,0.059
			c12.104,3.168,24.17,6.483,36.308,9.52c7.873,1.967,15.822,3.626,23.772,5.255c7.728,1.582,15.482,3.047,23.259,4.369
			c5.755,0.978,11.565,1.635,17.35,2.452c4.569,0.643,9.126,1.361,13.703,1.956c4.143,0.539,8.305,0.927,12.451,1.42
			c4.42,0.525,8.828,1.158,13.255,1.619c3.331,0.349,6.681,0.504,10.024,0.737c6.405,0.445,12.811,0.892,19.215,1.332
			c1.954,0.131,3.905,0.284,5.86,0.343c4.766,0.145,9.533,0.268,14.3,0.346c8.538,0.134,17.076,0.23,25.616,0.338
			c0.439,0.005,0.882-0.054,1.564-0.099c0-1.522,0-2.999,0-4.497c2.013-0.153,2.854,0.699,3.061,2.401
			c0.153,1.265,0.346,2.546,0.711,3.762c0.188,0.633,0.67,1.429,1.222,1.648c1.142,0.458,2.412,0.611,3.642,0.831
			c0.898,0.161,2.059-0.431,2.452,1.104c0.049,0.182,2.051,0.324,2.372-0.1c1.61-2.141,3.391-1.059,5.098-0.477
			c1.208,0.41,2.28,1.203,3.473,1.675c0.807,0.321,1.718,0.383,2.581,0.555c0.161,0.032,0.444-0.016,0.479,0.059
			c0.536,1.222,1.635,1.5,2.773,1.844c0.45,0.137,0.702,0.844,1.152,1.099c1.404,0.788,2.549,0.107,3.672-0.748
			c0.656-0.499,1.401-0.874,2.272-1.41c0.445,1.729,1.619,1.522,2.93,1.538c1.607,0.021,3.411-0.777,4.834,0.997
			c0.375,0.466,1.82,0.07,2.774,0.07c0.043,0.145,0.085,0.289,0.128,0.437c-2.237,1.04-4.48,2.066-6.71,3.122
			c-2.452,1.163-4.462,2.79-6.207,4.945c-2.122,2.621-4.655,4.915-7.097,7.442c0.805,0.718,1.871,0.686,2.908,0.204
			c2.157-1.002,4.261-2.125,6.426-3.108c0.421-0.19,1.143-0.164,1.488,0.088c0.225,0.164,0.136,0.957-0.017,1.399
			c-0.271,0.774-0.696,1.495-0.968,2.05c1.273,0.206,2.238,0.388,3.216,0.514c1.782,0.228,3.005-1.018,4.428-1.734
			c1.206-0.608,2.351-1.38,3.615-1.806c2.066-0.694,3.695-1.817,5.181-3.446c1.626-1.785,3.534-3.379,5.539-4.728
			c0.89-0.6,2.326-0.386,3.602-0.333c-2.465,2.061-4.823,4.058-5.226,7.107c1.346-0.161,2.578-0.466,3.795-0.413
			c1.675,0.072,2.959,0.836,3.859,2.431c1.259,2.227,2.358,2.452,4.373,1.332c2.096,1.219,2.854,1.139,4.663-0.488
			c1.673-1.506,3.495-2.45,5.891-2.369c1.203,0.045,2.437-0.614,3.653-0.965c0.624-0.185,1.237-0.394,1.975-0.627
			c0.037,0.611,0.083,1.05,0.097,1.49c0.048,1.814,0.911,2.487,2.712,2.002c1.123-0.305,2.203-0.766,3.31-1.133
			c0.493-0.161,1.008-0.257,1.745-0.439c-0.146,2.581-0.23,4.925,2.567,6.099c-0.107,0.113-0.209,0.22-0.313,0.327
			c-1.415,0.091-2.828,0.188-4.24,0.271c-0.214,0.016-0.496-0.115-0.632-0.019c-2.106,1.485-4.179,0.396-6.253-0.056
			c-1.093-0.236-1.887-0.089-2.809,0.814c-0.745,0.724-2.149,0.903-3.296,1.048c-1.351,0.169-2.643,0.129-2.659,2.018
			c0,0.182-0.787,0.6-0.935,0.501c-1.046-0.713-1.882-0.104-2.814,0.239c-0.635,0.23-1.358,0.206-2.219,0.319
			c-0.968,2.339-1.916,4.896-3.074,7.356c-1.026,2.179-2.331,4.224-3.417,6.375c-0.225,0.45-0.034,1.109-0.034,1.669
			c0.166,0.027,0.332,0.051,0.495,0.073c2.275-3.248,4.548-6.497,6.821-9.745c0.152,0.038,0.305,0.075,0.455,0.118
			c-0.059,0.584-0.003,1.214-0.203,1.75c-0.845,2.243-1.897,4.414-2.605,6.694c-0.429,1.37-0.338,2.897-0.541,4.341
			c-0.081,0.576-0.316,1.131-0.504,1.691c-0.258,0.771-0.906,1.632-0.74,2.291c0.687,2.712-0.632,5.135-0.801,7.694
			c-0.1,1.495,0.404,3.025,0.603,4.542c0.284,2.149,0.464,4.315,0.842,6.445c0.195,1.104,0.676,2.166,1.115,3.21
			c0.6,1.42,1.243,2.825,1.945,4.197c0.461,0.9,2.396,1.469,3.302,1.035c1.249-0.601,2.546-1.131,3.688-1.892
			c0.536-0.356,0.897-1.139,1.104-1.798c0.828-2.64,1.581-5.304,2.331-7.967c0.917-3.251-0.475-5.995-1.935-8.729
			c-0.605-1.128-1.147-2.294-1.656-3.468c-0.147-0.34-0.204-0.801-0.107-1.152c0.839-3.162,0.091-6.565,1.56-9.667
			c0.327-0.686-0.263-1.803-0.447-2.819c0.85-0.445,1.865-0.9,1.3-2.253c-0.027-0.067,0.08-0.209,0.152-0.29
			c1.295-1.402,2.592-2.803,4.194-4.535c-0.292,1.922-0.525,3.457-0.777,5.105c1.968-0.71,2.415-1.589,2.074-3.712
			c-0.401-2.516-0.401-2.506,2.117-3.267c0.301-0.091,0.547-0.33,0.909-0.552c-1.278-0.718-2.013-1.605-1.193-2.972
			c0.697-1.163,2.9-1.852,3.908-1.294c0.192,0.109,0.375,0.388,0.546,0.375c3.372-0.257,5.623,2.8,8.938,2.993
			c0.92,0.054,1.729,1.897,2.71,3.061c-0.756,0.373-1.171,0.576-1.598,0.785c0.089,0.247,0.1,0.542,0.247,0.651
			c1.999,1.455,1.699,3.583,1.669,5.625c-0.016,1.066,0.376,2.307-1.165,2.782c-0.204,0.064-0.367,0.579-0.381,0.89
			c-0.062,1.399-0.3,2.481-1.938,3.047c-1.011,0.349-0.716,2.6,0.276,3.562c1.05,1.016,1.801,0.482,2.428-0.463
			c0.515-0.774,0.831-1.707,1.431-2.398c0.928-1.062,1.893-2.238,3.099-2.83c0.546-0.268,2.191,0.528,2.524,1.228
			c0.943,1.98,1.447,4.17,2.16,6.26c0.407,1.203,1.101,2.348,1.286,3.575c0.289,1.918,0.321,3.88,0.278,5.823
			c0,0.212-1.179,0.402-2.002,0.662c-0.621,1.002-1.474,2.369-2.318,3.736c-0.085,0.139-0.246,0.311-0.22,0.434
			c0.419,2.093-0.895,3.554-1.766,5.207c-0.19,0.362,0.115,1.407,0.447,1.554c1.244,0.542,2.595,0.842,3.905,1.23
			c0.882,0.263,1.953,0.298,2.607,0.836c1.002,0.828,1.736,0.758,2.83,0.233c1.334-0.638,2.892-0.814,4.213-1.471
			c1.114-0.555,2.251-1.342,2.996-2.321c1.699-2.243,4.052-3.511,6.482-4.583c2.082-0.917,3.632-2.463,5.333-3.83
			c2.088-1.675,4.028-3.53,6.012-5.328c0.369-0.333,0.681-0.74,0.959-1.15c0.573-0.841,1.109-1.712,1.905-2.953
			c-0.268-0.33-0.702-1.08-1.332-1.597c-1.712-1.407-1.624-3.541,0.306-4.452c2.993-1.41,6.365-2.337,9.412-1.565
			c2.801,0.71,4.689-1.49,7.177-1.037c0.37,0.067,0.933-0.552,1.313-0.949c0.734-0.767,1.246-1.93,2.122-2.334
			c2.08-0.957,2.189-2.13,1.206-3.966c-0.244-0.45,0.316-1.332,0.539-2.125c-0.396-0.11-0.764-0.182-1.107-0.308
			c-1.361-0.506-1.867-1.994-0.758-2.902c3.379-2.771,4.639-7.121,7.736-10.058c0.783-0.742,1.764-1.613,2.75-1.758
			c7.896-1.155,15.356-4.015,23.122-5.644c0.488-0.102,0.96-0.327,1.453-0.373c1.501-0.142,2.455-0.702,2.438-2.428
			c-0.005-1.228,0.601-1.865,2.01-1.833c0.756,0.019,1.522-0.603,1.854-0.748c1.04-2.607,1.973-4.987,2.942-7.348
			c0.319-0.783,0.269-1.354-0.013-2.251c-0.456-1.458-0.103-3.181-0.024-4.789c0.027-0.514,0.472-1.069,0.359-1.517
			c-0.469-1.881-0.169-3.64,0.547-5.392c0.884-2.168,1.709-4.36,2.61-6.52c0.166-0.405,0.57-0.713,0.862-1.064
			c0.327,0.292,0.751,0.528,0.954,0.89c0.896,1.613,1.474,1.688,2.819,0.456c0.86-0.791,1.812-1.501,2.804-2.117
			c0.348-0.217,0.954-0.155,1.404-0.051c2.516,0.579,4.255,1.65,4.869,4.623c0.86,4.184,2.431,8.217,3.666,12.325
			c0.249,0.831,0.694,1.099,1.567,1.102c2.348,0.011,2.326,0.094,2.713,2.375c0.134,0.801,0.581,1.546,0.887,2.318
			c0.134-0.177,0.271-0.354,0.404-0.531c0.81,0.129,1.954-0.029,2.364,0.445c0.911,1.042,2.428,1.978,1.731,3.816
			c-0.499,1.321-1.281,2.294-2.498,3.144c-1.627,1.136-2.962,2.693-4.46,4.106c-0.541-0.501-0.895-0.828-1.481-1.373
			c-0.976,1.021-1.908,2.002-2.844,2.983c0.123,0.142,0.244,0.287,0.364,0.429c-0.638,0.131-1.28,0.266-2.031,0.421
			c-0.278-0.475-0.573-0.981-1.149-1.967c-0.169,1.734-0.432,3.028-0.392,4.312c0.072,2.286-0.029,2.527-2.219,2.999
			c-0.349,1.707-2.479,3.647-4.103,3.345c-1.432-0.271-1.581,0.734-1.759,1.439c-0.825,3.382-1.535,6.796-2.229,10.21
			c-0.112,0.555-0.171,1.38,0.14,1.712c1.303,1.388,0.777,2.688,0.142,4.106c-0.801,1.801-0.474,2.195,1.52,2.334
			c0.488,0.035,1.062,0.365,1.389,0.737c0.696,0.796,1.292,1.686,1.865,2.575c1.404,2.166,2.391,2.326,4.379,0.665
			c1.163-0.978,1.235-0.954,1.79,0.587c-1.908,1.059-3.813,2.12-5.863,3.259c-0.145-0.19-0.472-0.608-1.099-1.417
			c-0.459,0.86-0.802,1.533-1.174,2.187c-0.124,0.22-0.29,0.439-0.493,0.584c-1.493,1.045-2.922,2.224-4.524,3.068
			c-1.905,1.008-3.939,1.782-5.96,2.551c-1.595,0.606-3.4,0.783-4.84,1.622c-2.235,1.297-4.288,2.932-6.303,4.561
			c-0.485,0.392-0.531,1.327-0.917,2.412c0.659-0.367,0.927-0.453,1.109-0.625c1.066-1.01,1.967-1.726,3.784-1.782
			c1.927-0.062,4.167-1.308,5.599-2.717c1.401-1.383,2.328-1.444,4.03-0.279c-1.573,1.287-3.122,2.495-4.606,3.781
			c-3.002,2.6-6.523,3.935-10.401,4.604c-0.882,0.155-1.626,1.104-2.864,1.994c0.933,0.145,1.404,0.378,1.704,0.239
			c1.278-0.595,1.608,0.343,1.646,1.142c0.118,2.822,0.158,5.655,0.059,8.477c-0.032,0.761-0.686,1.493-1.013,2.259
			c-0.782,1.819-1.503,3.669-2.32,5.475c-0.376,0.823-0.92,1.573-1.386,2.355c-0.169-0.054-0.341-0.11-0.512-0.166
			c0.063-0.882,0.128-1.766,0.192-2.624c-1.688-0.418-3.334-0.817-5.354-1.316c0.971,1.932,1.212,4.062,3.013,5.135
			c1.919,1.142,2.517,2.948,2.693,4.813c0.26,2.779-0.266,5.397-2.077,7.804c-0.802,1.061-0.745,2.851-0.866,4.328
			c-0.152,1.908-0.361,3.747-2.004,5.631c-0.427-0.911-0.96-1.579-1.021-2.286c-0.192-2.133-0.086-4.24,1.091-6.18
			c0.555-0.917,0.512-1.463-0.404-2.65c-1.404-1.828-2.535-2.637-4.818-2.565c-1.362,0.045-1.943-2.849-1.024-4.58
			c-1.134-0.531-2.194-1.053-0.472-2.286c0.622-0.442-0.318-2.52-1.431-3.323c0.185-0.713,0.375-1.45,0.573-2.214
			c-1.492,0.099-2.074,1.102-1.857,2.683c0.166,1.225,0.324,2.511,0.115,3.709c-0.308,1.785,0.51,3.012,1.421,4.35
			c0.573,0.842,1.04,1.847,1.211,2.838c0.064,0.389-0.804,0.941-1.438,1.624c0.653,0.413,1.369,1.142,2.205,1.327
			c1.249,0.279,1.401,0.933,1.447,2.018c0.048,1.085,0.263,2.214,0.665,3.221c0.466,1.161,0.573,1.951-1.343,2.125
			c0.67,0.771,1.222,1.219,1.524,1.798c0.396,0.761,0.601,1.626,0.887,2.444c-1.182-0.667-2.36-1.334-3.545-2.002
			c-0.115,0.142-0.233,0.284-0.349,0.426c1.149,1.158,2.3,2.315,3.569,3.591C440.796,156.37,440.943,155.85,441.088,155.33z"/>
		<path style="fill-rule:evenodd;clip-rule:evenodd;fill:#9FB140;" d="M52.522,291.838c-0.56-0.238-0.938-0.396-1.522-0.643
			c0.789-1.595,1.556-3.142,2.321-4.688c-0.145-0.172-0.291-0.346-0.436-0.518c1.347-0.22,2.693-0.439,3.982-0.651
			c-0.539-1.369-1.411-1.938-2.735-0.965c-1.737,1.281-3.267,2.94-4.568,4.672c-0.665,0.884-1.06,1.615-2.284,1.862
			c-0.962,0.195-1.799,1.01-3.012,1.739c1.006,0.576,1.518,0.874,2.031,1.166c0.603,2.446-1.648,3.055-2.909,3.99
			c-2.172,1.61-4.652,2.838-7.097,4.041c-1.013,0.499-2.26,0.539-3.406,0.751c-1.065,0.2-2.136,0.286-1.853,1.892
			c0.06,0.335-0.532,0.788-0.823,1.185c-0.045-0.166-0.094-0.335-0.141-0.504c-1.824,0.284-3.642,0.608-5.471,0.842
			c-1.3,0.166-2.616,0.206-3.883,0.169c-1.076,0.286-2.155,0.555-3.221,0.873c-0.41,0.121-0.776,0.402-1.186,0.515
			c-0.551,0.15-1.16,0.375-1.684,0.271c-1.073-0.211-2.081-0.87-3.174,0.038c-0.156,0.126-0.903-0.172-1.084-0.458
			c-0.134-0.212,0.141-1.003,0.352-1.054c1.165-0.298,2.365-0.434,3.551-0.644c1.042-0.179,2.196-0.155,3.095-0.618
			c1.968-1.019,3.747-2.517,6.176-1.287c0.181,0.094,0.642-0.139,0.839-0.343c1.637-1.704,3.847-1.693,5.698-2.383
			c0.824-0.621,1.676-1.211,2.465-1.873c0.519-0.437,1.068-0.911,1.396-1.49c0.847-1.484,1.577-3.039,2.464-4.78
			c-0.713,0.034-1.417,0.069-2.235,0.109c-0.228-0.437-0.508-0.979-1.021-1.964c-0.425,1.109-0.68,1.769-1.068,2.778
			c-1.318-3.459-3.419-4.894-6.628-3.376c0-1.142-0.012-2.085,0.006-3.028c0.004-0.215,0.061-0.456,0.176-0.63
			c0.981-1.477,1.008-1.595,0.602-3.552c-0.773,0.038-1.548,0.049-2.318,0.118c-1.503,0.129-2.68-0.077-2.725-2.004
			c-0.014-0.499-0.464-0.986-0.708-1.482c-0.374-0.759-0.773-1.423,0.165-2.206c0.542-0.444,1.062-1.163-0.056-1.97
			c-0.951-0.683-0.614-3.396,0.316-4.264c1.585-1.479,3.146-2.985,4.818-4.354c0.821-0.673,1.806-1.257,2.506,0.396
			c0.529,1.249,1.549,0.654,2.223,0.091c0.689-0.573,1.209-0.734,2.072-0.332c1.159,0.541,2.332-0.137,2.689-1.415
			c0.386-1.38,0.718-2.773,1.163-4.508c-0.615,0-1.327-0.123-1.971,0.027c-1.277,0.292-2.461,0.552-3.611-0.418
			c-0.39-0.33-1.022-0.464-1.558-0.512c-3.677-0.309-4.489-1.335-3.747-4.846c0.044-0.212,0.138-0.413,0.175-0.525
			c-0.735-0.882-1.419-1.702-2.407-2.884c1.489-0.3,2.49-0.515,3.494-0.696c1.623-0.301,3.243-0.638,4.88-0.834
			c0.599-0.066,1.242,0.233,1.82,0.354c-0.145,1.003-0.599,2.235-0.304,2.455c0.958,0.71,2.156,1.18,3.329,1.479
			c0.782,0.201,1.258-0.33,0.937-1.249c-0.421-1.197-0.453-2.993-1.281-3.494c-1.942-1.177-0.847-3.093-1.647-4.446
			c-0.962-1.635-1.901-3.277-2.869-4.947c0.969-1.249,2.147-1.538,3.777-1.059c2.032,0.604,3.433-0.673,4.501-2.219
			c0.959-1.394,2.002-2.466,3.888-2.157c0.289,0.045,0.654-0.147,0.934-0.312c1.415-0.833,2.854-1.396,4.568-1.018
			c0.481,0.106,1.189-0.035,1.559-0.344c0.946-0.782,1.715-1.902,3.057-0.616c0.796,0.767,1.62,1.501,2.65,2.452
			c0.994-0.252,2.285-0.544,2.544,1.686c0.061,0.507,1.604,1.158,2.477,1.177c1.58,0.026,2.823,0.498,4.195,1.271
			c1.771,0.994,3.842,1.46,5.785,2.146c0.099,0.035,0.257,0.048,0.331-0.006c2.336-1.718,3.799,0.568,5.554,1.303
			c0.41,0.169,0.655,1.192,0.655,1.825c0.038,14.295,0.086,28.59-0.016,42.885c-0.024,3.138,0.942,3.634,3.343,2.396
			c0.14-0.069,0.33-0.067,0.495-0.067c0.221,0.003,0.443,0.035,0.238,0.017c1.906,2.197,3.593,4.143,5.404,6.233
			c0.933-0.289,2.01-0.399,2.261-2.059c0.104-0.696,1.347-1.366,2.206-1.723c0.276-0.115,1.006,0.793,1.49,1.27
			c1.195,1.174,2.371,2.372,3.55,3.564c0.315,0.319,0.674,0.611,0.918,0.981c1.686,2.546,3.253,5.18,5.065,7.632
			c0.636,0.86,1.815,1.356,2.81,1.906c0.933,0.512,2.558,0.653,2.806,1.345c0.529,1.479,0.482,3.214,0.43,4.832
			c-0.023,0.681-0.659,1.343-1.215,2.383c-0.965-1.817-1.897-3.251-3.918-3.203c0.062,1.048,0.123,2.131,0.181,3.106
			c-0.845,0.209-1.529,0.378-2.425,0.598c-0.866-0.81-1.579-1.804-1.732-3.363c-0.106-1.072-1.021-2.061-1.646-3.219
			c-1.891,0.817-3.05-0.057-4.031-1.836c-1.212-2.197-2.889-4.148-4.029-6.378c-1.682-3.291-4.548-5.143-7.544-6.906
			c-0.918-0.539-2.188-0.748-1.455-1.836c-1.471-0.349-2.841-0.681-4.213-1.002c-1.447-0.341-2.889-0.893-4.347-0.943
			c-1.526-0.054-2.779-0.439-4.08-1.22c-1.477-0.884-2.938-1.605-3.548-3.414c-0.13-0.386-1.334-0.854-1.609-0.665
			c-0.871,0.608-2.541,0.25-2.573,1.933c-0.019,0.893-0.004,1.79-0.004,2.793c-2.065-0.359-3.97-1.094-5.503,1.243
			c-0.653,0.991-2.14,2.053-3.802,1.616c-0.41-0.104-0.769-0.402-1.151-0.614c0.284-0.273,0.539-0.584,0.857-0.807
			C51.613,292.208,51.986,292.087,52.522,291.838z"/>
		<path style="fill-rule:evenodd;clip-rule:evenodd;fill:#9FB140;" d="M169.827,301.304c-0.436-0.654-0.725-0.911-0.784-1.212
			c-0.121-0.607-0.118-1.24-0.164-1.865c0.579,0.115,1.202,0.129,1.731,0.354c1.732,0.742,3.486,1.463,5.123,2.385
			c0.894,0.504,1.627,1.351,2.328,2.136c0.896,1.008,1.716,2.085,2.503,3.184c0.22,0.304,0.383,1.057,0.26,1.137
			c-1.367,0.911-2.713,2.185-4.228,2.46c-1.861,0.338-2.859,1.367-3.915,2.646c-0.464,0.558-1.254,1.434-1.678,1.324
			c-1.132-0.293-2.529-0.826-2.344-2.396c0.283-2.412-0.175-4.559-1.537-6.582c-0.22-0.324-0.015-1.219,0.303-1.567
			C168.131,302.536,169.034,301.944,169.827,301.304z"/>
		<path style="fill-rule:evenodd;clip-rule:evenodd;fill:#9FB140;" d="M163.621,294.459c-0.575-0.41-1.234-0.748-1.723-1.254
			c-0.771-0.796-1.487-1.656-2.09-2.578c-0.208-0.319-0.119-0.946,0.044-1.351c0.095-0.236,0.666-0.51,0.911-0.424
			c1.919,0.638,3.83,1.308,5.694,2.085c0.476,0.198,1.125,0.877,1.066,1.228c-0.085,0.509-0.666,1.066-1.176,1.343
			C165.587,293.915,164.708,294.095,163.621,294.459z"/>
		<path style="fill-rule:evenodd;clip-rule:evenodd;fill:#9FB140;" d="M145.102,280.649c1.236,1.785,2.381,3.441,3.688,5.325
			c-0.75,0.037-1.382,0.126-2.005,0.086c-0.894-0.06-1.991,0.072-2.62-0.395c-0.911-0.673-1.55-1.766-2.129-2.784
			c-0.089-0.158,0.693-0.922,1.173-1.271C143.737,281.23,144.381,281.006,145.102,280.649z"/>
		<path style="fill-rule:evenodd;clip-rule:evenodd;fill:#9FB140;" d="M152.814,287.947c0.706-1.445,1.835-1.536,6.525-0.644
			C158.576,288.96,158.576,288.96,152.814,287.947z"/>
		<path style="fill-rule:evenodd;clip-rule:evenodd;fill:#9FB140;" d="M155.239,290.271c1.464-0.121,2.667-0.547,3.072,0.97
			c0.074,0.276-0.488,0.962-0.87,1.077C155.802,292.824,156.101,291.197,155.239,290.271z"/>
		<path style="fill-rule:evenodd;clip-rule:evenodd;fill:#9FB140;" d="M441.088,155.33c-0.145,0.52-0.292,1.04-0.51,1.807
			c-1.27-1.276-2.42-2.434-3.569-3.591c0.115-0.142,0.233-0.284,0.349-0.426c1.185,0.667,2.363,1.335,3.545,2.002
			C440.965,155.193,441.026,155.261,441.088,155.33z"/>
	</g>
</g>
</svg>
